%FSLAX35Y35*%
%MOIN*%
%IN18=Loetstoppmaskeoben(X.GTS)*%
%ADD10C,0.00591*%
%ADD11C,0.00512*%
%ADD12C,0.00614*%
%ADD13C,0.00768*%
%ADD14C,0.00787*%
%ADD15C,0.01181*%
%ADD16C,0.01280*%
%ADD17C,0.01575*%
%ADD18C,0.01969*%
%ADD19C,0.02362*%
%ADD20C,0.02795*%
%ADD21C,0.03937*%
%ADD22C,0.12205*%
%ADD23C,0.13780*%
%ADD24C,0.14173*%
%AMR_25*21,1,0.00787,0.00787,0,0,0.000*%
%ADD25R_25*%
%AMR_26*21,1,0.01575,0.01575,0,0,0.000*%
%ADD26R_26*%
%AMR_27*21,1,0.01870,0.01870,0,0,0.000*%
%ADD27R_27*%
%AMR_28*21,1,0.01969,0.01969,0,0,0.000*%
%ADD28R_28*%
%AMR_29*21,1,0.02559,0.02559,0,0,0.000*%
%ADD29R_29*%
%AMR_30*21,1,0.04587,0.05433,0,0,90.000*%
%ADD30R_30*%
%AMR_31*21,1,0.05000,0.05000,0,0,0.000*%
%ADD31R_31*%
%AMR_32*21,1,0.05000,0.05000,0,0,90.000*%
%ADD32R_32*%
%AMR_33*21,1,0.05000,0.05000,0,0,270.000*%
%ADD33R_33*%
%AMR_34*21,1,0.05000,0.09843,0,0,270.000*%
%ADD34R_34*%
%AMR_35*21,1,0.05000,0.10000,0,0,90.000*%
%ADD35R_35*%
%AMR_36*21,1,0.12205,0.05118,0,0,90.000*%
%ADD36R_36*%
%AMR_37*21,1,0.12205,0.05118,0,0,180.000*%
%ADD37R_37*%
%AMR_38*21,1,0.19685,0.19685,0,0,0.000*%
%ADD38R_38*%
%AMOCT_39*4,1,8,0.023622,0.011811,0.011811,0.023622,-0.011811,0.023622,-0.023622,0.011811,-0.023622,-0.011811,-0.011811,-0.023622,0.011811,-0.023622,0.023622,-0.011811,0.023622,0.011811,0.000*%
%ADD39OCT_39*%
%AMOCT_40*4,1,8,0.029528,0.014764,0.014764,0.029528,-0.014764,0.029528,-0.029528,0.014764,-0.029528,-0.014764,-0.014764,-0.029528,0.014764,-0.029528,0.029528,-0.014764,0.029528,0.014764,0.000*%
%ADD40OCT_40*%
%AMOCT_41*4,1,8,0.031496,0.015748,0.015748,0.031496,-0.015748,0.031496,-0.031496,0.015748,-0.031496,-0.015748,-0.015748,-0.031496,0.015748,-0.031496,0.031496,-0.015748,0.031496,0.015748,-0.000*%
%ADD41OCT_41*%
%AMOCT_42*4,1,8,0.031496,0.015748,0.015748,0.031496,-0.015748,0.031496,-0.031496,0.015748,-0.031496,-0.015748,-0.015748,-0.031496,0.015748,-0.031496,0.031496,-0.015748,0.031496,0.015748,90.000*%
%ADD42OCT_42*%
%AMOCT_43*4,1,8,0.031496,0.015748,0.015748,0.031496,-0.015748,0.031496,-0.031496,0.015748,-0.031496,-0.015748,-0.015748,-0.031496,0.015748,-0.031496,0.031496,-0.015748,0.031496,0.015748,270.000*%
%ADD43OCT_43*%
%AMOCT_44*4,1,8,0.035433,0.017717,0.017717,0.035433,-0.017717,0.035433,-0.035433,0.017717,-0.035433,-0.017717,-0.017717,-0.035433,0.017717,-0.035433,0.035433,-0.017717,0.035433,0.017717,-0.000*%
%ADD44OCT_44*%
%AMOCT_45*4,1,8,0.035433,0.017717,0.017717,0.035433,-0.017717,0.035433,-0.035433,0.017717,-0.035433,-0.017717,-0.017717,-0.035433,0.017717,-0.035433,0.035433,-0.017717,0.035433,0.017717,180.000*%
%ADD45OCT_45*%
%AMOCT_46*4,1,8,0.035433,0.017717,0.017717,0.035433,-0.017717,0.035433,-0.035433,0.017717,-0.035433,-0.017717,-0.017717,-0.035433,0.017717,-0.035433,0.035433,-0.017717,0.035433,0.017717,270.000*%
%ADD46OCT_46*%
%AMOCT_47*4,1,8,0.037402,0.018701,0.018701,0.037402,-0.018701,0.037402,-0.037402,0.018701,-0.037402,-0.018701,-0.018701,-0.037402,0.018701,-0.037402,0.037402,-0.018701,0.037402,0.018701,180.000*%
%ADD47OCT_47*%
%AMOCT_48*4,1,8,0.039370,0.019685,0.019685,0.039370,-0.019685,0.039370,-0.039370,0.019685,-0.039370,-0.019685,-0.019685,-0.039370,0.019685,-0.039370,0.039370,-0.019685,0.039370,0.019685,0.000*%
%ADD48OCT_48*%
%AMOCT_49*4,1,8,0.051181,0.025591,0.025591,0.051181,-0.025591,0.051181,-0.051181,0.025591,-0.051181,-0.025591,-0.025591,-0.051181,0.025591,-0.051181,0.051181,-0.025591,0.051181,0.025591,180.000*%
%ADD49OCT_49*%
%AMOCT_50*4,1,8,0.063976,0.031988,0.031988,0.063976,-0.031988,0.063976,-0.063976,0.031988,-0.063976,-0.031988,-0.031988,-0.063976,0.031988,-0.063976,0.063976,-0.031988,0.063976,0.031988,180.000*%
%ADD50OCT_50*%
%AMO_51*20,1,0.03937,-0.00787,0.00000,0.00787,0.00000,0*1,1,0.03937,-0.00787,0.00000*1,1,0.03937,0.00787,0.00000*%
%ADD51O_51*%
%AMO_52*20,1,0.05000,-0.02421,0.00000,0.02421,0.00000,0*1,1,0.05000,-0.02421,0.00000*1,1,0.05000,0.02421,0.00000*%
%ADD52O_52*%
%AMO_53*20,1,0.05000,0.02500,0.00000,-0.02500,0.00000,0*1,1,0.05000,0.02500,0.00000*1,1,0.05000,-0.02500,0.00000*%
%ADD53O_53*%
%AMRR_54*21,1,0.06299,0.05039,0,0,-0.000*21,1,0.05039,0.06299,0,0,-0.000*1,1,0.01260,0.02520,0.02520*1,1,0.01260,-0.02520,-0.02520*1,1,0.01260,0.02520,-0.02520*1,1,0.01260,-0.02520,0.02520*%
%ADD54RR_54*%
%AMRR_55*21,1,0.06299,0.05039,0,0,90.000*21,1,0.05039,0.06299,0,0,90.000*1,1,0.01260,-0.02520,0.02520*1,1,0.01260,0.02520,-0.02520*1,1,0.01260,0.02520,0.02520*1,1,0.01260,-0.02520,-0.02520*%
%ADD55RR_55*%
%AMRR_56*21,1,0.06299,0.05039,0,0,270.000*21,1,0.05039,0.06299,0,0,270.000*1,1,0.01260,0.02520,-0.02520*1,1,0.01260,-0.02520,0.02520*1,1,0.01260,-0.02520,-0.02520*1,1,0.01260,0.02520,0.02520*%
%ADD56RR_56*%
G54D21*
X192165Y79320D03*
X48661Y306289D03*
X48267Y252942D03*
X186259Y308651D03*
X186850Y274202D03*
X106732Y297627D03*
X105944Y252942D03*
X63425Y319675D03*
X231535Y271250D03*
X358897Y252942D03*
X365196Y193297D03*
X385275Y168690D03*
X332322Y80895D03*
X344133Y80895D03*
X320118Y148612D03*
X95708Y80895D03*
X198858Y269084D03*
X48464Y269084D03*
X105157Y269084D03*
X79763Y290738D03*
X79566Y246250D03*
X44330Y224005D03*
X193740Y334045D03*
X294133Y293887D03*
X298070Y288375D03*
X257519Y358061D03*
X330354Y176171D03*
X322874Y181683D03*
X337440Y215541D03*
X315393Y180895D03*
X318149Y189163D03*
X34291Y188769D03*
X181929Y291131D03*
X171299Y192706D03*
X164212Y199399D03*
X140590Y217509D03*
X146496Y221840D03*
X322086Y323021D03*
X271692Y283651D03*
X275629Y278533D03*
X272480Y292706D03*
X133503Y221446D03*
X88228Y329714D03*
X12637Y321840D03*
X98070Y313179D03*
X20905Y316328D03*
X13425Y58454D03*
X25629Y58454D03*
X37047Y58061D03*
X98464Y326564D03*
X11850Y315147D03*
X284291Y308061D03*
X346496Y214360D03*
X289015Y223021D03*
X290196Y233257D03*
X151220Y216328D03*
X296102Y275383D03*
X294921Y282470D03*
X281141Y261998D03*
X266574Y234045D03*
X292165Y243100D03*
X71299Y213966D03*
X19330Y51958D03*
X59094Y23021D03*
X68937Y24990D03*
X78385Y26564D03*
X42952Y51564D03*
X54370Y333257D03*
X108307Y333257D03*
X31141Y51761D03*
X227992Y163966D03*
X138228Y333651D03*
X209488Y296643D03*
X213818Y201368D03*
X128385Y328927D03*
X203188Y296643D03*
X210275Y194675D03*
X223267Y161998D03*
X277992Y81683D03*
X272874Y69872D03*
X283897Y61210D03*
X283897Y74596D03*
X306732Y51368D03*
X294921Y51368D03*
X313425Y171446D03*
X293740Y99005D03*
G54D22*
X11742Y93759D03*
X11742Y349350D03*
X279458Y93759D03*
X383100Y10600D03*
X10600Y10600D03*
X10600Y383100D03*
X383100Y383100D03*
X279458Y349350D03*
G54D24*
X334291Y256486D03*
X383503Y256486D03*
G54D30*
X37047Y72765D03*
X37047Y64360D03*
X25629Y72765D03*
X25629Y64360D03*
X13425Y72765D03*
X13425Y64360D03*
X37047Y45797D03*
X37047Y37391D03*
X25629Y45797D03*
X25629Y37391D03*
X13425Y46190D03*
X13425Y37785D03*
G54D31*
X363754Y214163D03*
X355354Y214163D03*
G54D32*
X156535Y251500D03*
X156535Y243100D03*
X146102Y241461D03*
X146102Y233061D03*
X155354Y301106D03*
X155354Y292706D03*
X79566Y261933D03*
X79566Y253533D03*
X79763Y305634D03*
X79763Y297234D03*
X239803Y214689D03*
X239803Y206289D03*
X240984Y265083D03*
X240984Y256683D03*
X22480Y261146D03*
X22480Y252746D03*
X22480Y306027D03*
X22480Y297627D03*
G54D33*
X223661Y330960D03*
X223661Y339360D03*
X203188Y331353D03*
X203188Y339753D03*
X136259Y312259D03*
X136259Y320659D03*
X79566Y230960D03*
X79566Y239360D03*
X105944Y233519D03*
X105944Y241919D03*
X106929Y277810D03*
X106929Y286210D03*
X79763Y275842D03*
X79763Y284242D03*
X222086Y278991D03*
X222086Y287391D03*
X22480Y231550D03*
X22480Y239950D03*
X48464Y233519D03*
X48464Y241919D03*
X48464Y277810D03*
X48464Y286210D03*
X22480Y276629D03*
X22480Y285029D03*
X52795Y125842D03*
X52795Y134242D03*
X63031Y125842D03*
X63031Y134242D03*
X73267Y125842D03*
X73267Y134242D03*
G54D34*
X165984Y301761D03*
X252007Y265935D03*
G54D35*
X91771Y231683D03*
X91771Y275974D03*
X33503Y231879D03*
X33503Y276171D03*
G54D36*
X54566Y69872D03*
X72283Y69872D03*
X54566Y38572D03*
X72283Y38572D03*
X109685Y69872D03*
X127401Y69872D03*
X109685Y38572D03*
X127401Y38572D03*
X164606Y69872D03*
X182322Y69872D03*
X164606Y38572D03*
X182322Y38572D03*
X219527Y69872D03*
X237244Y69872D03*
X219527Y38572D03*
X237244Y38572D03*
X356141Y136801D03*
X373858Y136801D03*
X356141Y105501D03*
X373858Y105501D03*
X356141Y181683D03*
X373858Y181683D03*
X356141Y150383D03*
X373858Y150383D03*
X296299Y69872D03*
X314015Y69872D03*
X296299Y38572D03*
X314015Y38572D03*
X325826Y40344D03*
X343543Y40344D03*
X325826Y9045D03*
X343543Y9045D03*
X355354Y69872D03*
X373070Y69872D03*
X355354Y38572D03*
X373070Y38572D03*
X325826Y99399D03*
X343543Y99399D03*
X325826Y68100D03*
X343543Y68100D03*
G54D37*
X346889Y349596D03*
X346889Y367312D03*
X378188Y349596D03*
X378188Y367312D03*
G54D39*
X244527Y169478D03*
X237047Y195068D03*
G54D40*
X342559Y376368D03*
X352401Y386368D03*
X362244Y376368D03*
G54D41*
X20275Y368100D03*
X30275Y368100D03*
X40275Y368100D03*
X50275Y368100D03*
X60275Y368100D03*
X70275Y368100D03*
X80275Y368100D03*
X90275Y368100D03*
X100275Y368100D03*
X56299Y177942D03*
X66299Y177942D03*
X76299Y177942D03*
X86299Y177942D03*
X96299Y177942D03*
X106299Y177942D03*
X116299Y177942D03*
X146259Y177942D03*
X156259Y177942D03*
X166259Y177942D03*
X176259Y177942D03*
X186259Y177942D03*
X196259Y177942D03*
X206259Y177942D03*
X236417Y177942D03*
X246417Y177942D03*
X256417Y177942D03*
X266417Y177942D03*
X276417Y177942D03*
X286417Y177942D03*
X296417Y177942D03*
X216338Y368100D03*
X226338Y368100D03*
X236338Y368100D03*
X246338Y368100D03*
X256338Y368100D03*
X266338Y368100D03*
X276338Y368100D03*
X126377Y368100D03*
X136377Y368100D03*
X146377Y368100D03*
X156377Y368100D03*
X166377Y368100D03*
X176377Y368100D03*
X186377Y368100D03*
X53346Y349399D03*
X63346Y349399D03*
X73346Y349399D03*
X83346Y349399D03*
X93346Y349399D03*
X103346Y349399D03*
X113346Y349399D03*
X123346Y349399D03*
X133346Y349399D03*
X143346Y349399D03*
X153346Y349399D03*
X163346Y349399D03*
X173346Y349399D03*
X183346Y349399D03*
X193346Y349399D03*
X203346Y349399D03*
X213346Y349399D03*
X223346Y349399D03*
X233346Y349399D03*
G54D42*
X126417Y156250D03*
X196062Y201958D03*
X186062Y211958D03*
X196062Y211958D03*
X186062Y221958D03*
X196062Y221958D03*
X16574Y156250D03*
X363425Y27116D03*
G54D43*
X306338Y358100D03*
X306338Y348100D03*
X306338Y338100D03*
X306338Y328100D03*
X306338Y318100D03*
X306338Y308100D03*
X306338Y298100D03*
X306338Y288100D03*
X306338Y278100D03*
X306338Y268100D03*
X306338Y258100D03*
X306338Y248100D03*
X306338Y238100D03*
X306338Y228100D03*
X306338Y218100D03*
X306338Y208100D03*
X306338Y198100D03*
X316377Y358100D03*
X316377Y348100D03*
X316377Y338100D03*
X316377Y328100D03*
X316377Y318100D03*
X316377Y308100D03*
X316377Y298100D03*
X316377Y288100D03*
X316377Y278100D03*
X316377Y268100D03*
X316377Y258100D03*
X316377Y248100D03*
X316377Y238100D03*
X316377Y228100D03*
X316377Y218100D03*
X316377Y208100D03*
X316377Y198100D03*
G54D44*
X275236Y27155D03*
X275236Y17155D03*
X285236Y27155D03*
X285236Y17155D03*
X295236Y27155D03*
X295236Y17155D03*
X305236Y17155D03*
X305236Y27155D03*
X315236Y27155D03*
X315236Y17155D03*
G54D45*
X384488Y296446D03*
X374488Y296446D03*
G54D46*
X338818Y324202D03*
X338818Y314202D03*
X352401Y324202D03*
X352401Y314202D03*
X366181Y324202D03*
X366181Y314202D03*
X379960Y324202D03*
X379960Y314202D03*
G54D47*
X190787Y152746D03*
X185787Y162746D03*
X180787Y152746D03*
X175787Y162746D03*
X170787Y152746D03*
X165787Y162746D03*
X160787Y152746D03*
X155787Y162746D03*
X301023Y152746D03*
X296023Y162746D03*
X291023Y152746D03*
X286023Y162746D03*
X281023Y152746D03*
X276023Y162746D03*
X271023Y152746D03*
X266023Y162746D03*
X135669Y83848D03*
X130669Y93848D03*
X125669Y83848D03*
X120669Y93848D03*
X115669Y83848D03*
X110669Y93848D03*
X105669Y83848D03*
X100669Y93848D03*
X245905Y83848D03*
X240905Y93848D03*
X235905Y83848D03*
X230905Y93848D03*
X225905Y83848D03*
X220905Y93848D03*
X215905Y83848D03*
X210905Y93848D03*
X80551Y152746D03*
X75551Y162746D03*
X70551Y152746D03*
X65551Y162746D03*
X60551Y152746D03*
X55551Y162746D03*
X50551Y152746D03*
X45551Y162746D03*
G54D48*
X349055Y226958D03*
X358897Y226958D03*
X368740Y226958D03*
X349055Y284045D03*
X368740Y284045D03*
X345314Y195659D03*
X375314Y195659D03*
G54D49*
X142480Y138572D03*
X204094Y138572D03*
X252716Y138572D03*
X314330Y138572D03*
X87362Y69675D03*
X148976Y69675D03*
X197598Y69675D03*
X259212Y69675D03*
X32244Y138572D03*
X93858Y138572D03*
G54D50*
X195787Y127746D03*
X150787Y127746D03*
X306023Y127746D03*
X261023Y127746D03*
X140669Y58848D03*
X95669Y58848D03*
X250905Y58848D03*
X205905Y58848D03*
X85551Y127746D03*
X40551Y127746D03*
G54D51*
X359488Y206092D03*
X359488Y198612D03*
X368149Y202352D03*
G54D52*
X165984Y291761D03*
X165984Y281761D03*
X165984Y271761D03*
X165984Y261761D03*
X165984Y251761D03*
X165984Y241761D03*
X165984Y231761D03*
X135984Y231761D03*
X135984Y241761D03*
X135984Y251761D03*
X135984Y261761D03*
X135984Y271761D03*
X135984Y281761D03*
X135984Y291761D03*
X135984Y301761D03*
X252007Y255935D03*
X252007Y245935D03*
X252007Y235935D03*
X252007Y225935D03*
X252007Y215935D03*
X252007Y205935D03*
X252007Y195935D03*
X222007Y195935D03*
X222007Y205935D03*
X222007Y215935D03*
X222007Y225935D03*
X222007Y235935D03*
X222007Y245935D03*
X222007Y255935D03*
X222007Y265935D03*
G54D53*
X91771Y241683D03*
X91771Y251683D03*
X91771Y261683D03*
X121771Y261683D03*
X121771Y251683D03*
X121771Y241683D03*
X121771Y231683D03*
X91771Y285974D03*
X91771Y295974D03*
X91771Y305974D03*
X121771Y305974D03*
X121771Y295974D03*
X121771Y285974D03*
X121771Y275974D03*
X33503Y241879D03*
X33503Y251879D03*
X33503Y261879D03*
X63503Y261879D03*
X63503Y251879D03*
X63503Y241879D03*
X63503Y231879D03*
X33503Y286171D03*
X33503Y296171D03*
X33503Y306171D03*
X63503Y306171D03*
X63503Y296171D03*
X63503Y286171D03*
X63503Y276171D03*
G54D54*
X10275Y368100D03*
X46299Y177942D03*
X136259Y177942D03*
X226417Y177942D03*
X206338Y368100D03*
X116377Y368100D03*
X43346Y349399D03*
G54D55*
X126417Y146250D03*
X186062Y201958D03*
X16574Y146250D03*
X363425Y17116D03*
G54D56*
X306338Y368100D03*
X316377Y368100D03*
M02*
