%FSLAX35Y35*%
%MOIN*%
%IN21=Bestoeckungsdruckoben(X.GTO)*%
%ADD10C,0.00591*%
%ADD11C,0.00512*%
%ADD12C,0.00614*%
%ADD13C,0.00768*%
%ADD14C,0.00787*%
%ADD15C,0.01024*%
%ADD16C,0.01181*%
%ADD17C,0.01575*%
%ADD18C,0.01969*%
%ADD19C,0.02362*%
%ADD20C,0.02795*%
%ADD21C,0.03150*%
%ADD22C,0.03937*%
%ADD23C,0.06299*%
%ADD24C,0.12205*%
%ADD25C,0.13780*%
%ADD26C,0.14173*%
%AMR_27*21,1,0.00787,0.00787,0,0,0.000*%
%ADD27R_27*%
%AMR_28*21,1,0.01575,0.01575,0,0,0.000*%
%ADD28R_28*%
%AMR_29*21,1,0.01870,0.01870,0,0,0.000*%
%ADD29R_29*%
%AMR_30*21,1,0.01969,0.01969,0,0,0.000*%
%ADD30R_30*%
%AMR_31*21,1,0.02559,0.02559,0,0,0.000*%
%ADD31R_31*%
%AMR_32*21,1,0.03937,0.12441,0,0,180.000*%
%ADD32R_32*%
%AMR_33*21,1,0.04587,0.05433,0,0,90.000*%
%ADD33R_33*%
%AMR_34*21,1,0.05000,0.05000,0,0,0.000*%
%ADD34R_34*%
%AMR_35*21,1,0.05000,0.05000,0,0,90.000*%
%ADD35R_35*%
%AMR_36*21,1,0.05000,0.05000,0,0,270.000*%
%ADD36R_36*%
%AMR_37*21,1,0.05000,0.09843,0,0,270.000*%
%ADD37R_37*%
%AMR_38*21,1,0.05000,0.10000,0,0,90.000*%
%ADD38R_38*%
%AMR_39*21,1,0.05512,0.07087,0,0,90.000*%
%ADD39R_39*%
%AMR_40*21,1,0.12205,0.05118,0,0,90.000*%
%ADD40R_40*%
%AMR_41*21,1,0.12205,0.05118,0,0,180.000*%
%ADD41R_41*%
%AMR_42*21,1,0.19685,0.19685,0,0,0.000*%
%ADD42R_42*%
%AMOCT_43*4,1,8,0.023622,0.011811,0.011811,0.023622,-0.011811,0.023622,-0.023622,0.011811,-0.023622,-0.011811,-0.011811,-0.023622,0.011811,-0.023622,0.023622,-0.011811,0.023622,0.011811,0.000*%
%ADD43OCT_43*%
%AMOCT_44*4,1,8,0.029528,0.014764,0.014764,0.029528,-0.014764,0.029528,-0.029528,0.014764,-0.029528,-0.014764,-0.014764,-0.029528,0.014764,-0.029528,0.029528,-0.014764,0.029528,0.014764,0.000*%
%ADD44OCT_44*%
%AMOCT_45*4,1,8,0.031496,0.015748,0.015748,0.031496,-0.015748,0.031496,-0.031496,0.015748,-0.031496,-0.015748,-0.015748,-0.031496,0.015748,-0.031496,0.031496,-0.015748,0.031496,0.015748,-0.000*%
%ADD45OCT_45*%
%AMOCT_46*4,1,8,0.031496,0.015748,0.015748,0.031496,-0.015748,0.031496,-0.031496,0.015748,-0.031496,-0.015748,-0.015748,-0.031496,0.015748,-0.031496,0.031496,-0.015748,0.031496,0.015748,90.000*%
%ADD46OCT_46*%
%AMOCT_47*4,1,8,0.031496,0.015748,0.015748,0.031496,-0.015748,0.031496,-0.031496,0.015748,-0.031496,-0.015748,-0.015748,-0.031496,0.015748,-0.031496,0.031496,-0.015748,0.031496,0.015748,270.000*%
%ADD47OCT_47*%
%AMOCT_48*4,1,8,0.035433,0.017717,0.017717,0.035433,-0.017717,0.035433,-0.035433,0.017717,-0.035433,-0.017717,-0.017717,-0.035433,0.017717,-0.035433,0.035433,-0.017717,0.035433,0.017717,-0.000*%
%ADD48OCT_48*%
%AMOCT_49*4,1,8,0.035433,0.017717,0.017717,0.035433,-0.017717,0.035433,-0.035433,0.017717,-0.035433,-0.017717,-0.017717,-0.035433,0.017717,-0.035433,0.035433,-0.017717,0.035433,0.017717,180.000*%
%ADD49OCT_49*%
%AMOCT_50*4,1,8,0.035433,0.017717,0.017717,0.035433,-0.017717,0.035433,-0.035433,0.017717,-0.035433,-0.017717,-0.017717,-0.035433,0.017717,-0.035433,0.035433,-0.017717,0.035433,0.017717,270.000*%
%ADD50OCT_50*%
%AMOCT_51*4,1,8,0.037402,0.018701,0.018701,0.037402,-0.018701,0.037402,-0.037402,0.018701,-0.037402,-0.018701,-0.018701,-0.037402,0.018701,-0.037402,0.037402,-0.018701,0.037402,0.018701,180.000*%
%ADD51OCT_51*%
%AMOCT_52*4,1,8,0.039370,0.019685,0.019685,0.039370,-0.019685,0.039370,-0.039370,0.019685,-0.039370,-0.019685,-0.019685,-0.039370,0.019685,-0.039370,0.039370,-0.019685,0.039370,0.019685,0.000*%
%ADD52OCT_52*%
%AMOCT_53*4,1,8,0.041339,0.020669,0.020669,0.041339,-0.020669,0.041339,-0.041339,0.020669,-0.041339,-0.020669,-0.020669,-0.041339,0.020669,-0.041339,0.041339,-0.020669,0.041339,0.020669,180.000*%
%ADD53OCT_53*%
%AMOCT_54*4,1,8,0.051181,0.025591,0.025591,0.051181,-0.025591,0.051181,-0.051181,0.025591,-0.051181,-0.025591,-0.025591,-0.051181,0.025591,-0.051181,0.051181,-0.025591,0.051181,0.025591,180.000*%
%ADD54OCT_54*%
%AMOCT_55*4,1,8,0.063976,0.031988,0.031988,0.063976,-0.031988,0.063976,-0.063976,0.031988,-0.063976,-0.031988,-0.031988,-0.063976,0.031988,-0.063976,0.063976,-0.031988,0.063976,0.031988,180.000*%
%ADD55OCT_55*%
%AMO_56*20,1,0.03937,-0.00787,0.00000,0.00787,0.00000,0*1,1,0.03937,-0.00787,0.00000*1,1,0.03937,0.00787,0.00000*%
%ADD56O_56*%
%AMO_57*20,1,0.05000,-0.02421,0.00000,0.02421,0.00000,0*1,1,0.05000,-0.02421,0.00000*1,1,0.05000,0.02421,0.00000*%
%ADD57O_57*%
%AMO_58*20,1,0.05000,0.02500,0.00000,-0.02500,0.00000,0*1,1,0.05000,0.02500,0.00000*1,1,0.05000,-0.02500,0.00000*%
%ADD58O_58*%
%AMRR_59*21,1,0.06299,0.05039,0,0,-0.000*21,1,0.05039,0.06299,0,0,-0.000*1,1,0.01260,0.02520,0.02520*1,1,0.01260,-0.02520,-0.02520*1,1,0.01260,0.02520,-0.02520*1,1,0.01260,-0.02520,0.02520*%
%ADD59RR_59*%
%AMRR_60*21,1,0.06299,0.05039,0,0,90.000*21,1,0.05039,0.06299,0,0,90.000*1,1,0.01260,-0.02520,0.02520*1,1,0.01260,0.02520,-0.02520*1,1,0.01260,0.02520,0.02520*1,1,0.01260,-0.02520,-0.02520*%
%ADD60RR_60*%
%AMRR_61*21,1,0.06299,0.05039,0,0,270.000*21,1,0.05039,0.06299,0,0,270.000*1,1,0.01260,0.02520,-0.02520*1,1,0.01260,-0.02520,0.02520*1,1,0.01260,-0.02520,-0.02520*1,1,0.01260,0.02520,0.02520*%
%ADD61RR_61*%
G54D11*
X218312Y319970D02*
X214768Y319970D01*
X214768Y320836D01*
X216520Y320836D02*
X216401Y321279D01*
X216077Y321603D01*
X215634Y321722D01*
X215191Y321603D01*
X214867Y321279D01*
X214749Y320836D01*
X216540Y320836D02*
X216540Y319970D01*
X216540Y320836D02*
X218312Y321742D01*
X218312Y325206D02*
X218203Y325652D01*
X217886Y325983D01*
X217445Y326112D01*
X218312Y325206D02*
X218312Y324340D01*
X214768Y324340D01*
X214768Y325206D01*
X215634Y326112D02*
X215194Y325983D01*
X214877Y325652D01*
X214768Y325206D01*
X215634Y326112D02*
X217445Y326112D01*
X218312Y327017D02*
X215831Y327017D01*
X215123Y327017D02*
X214768Y327017D01*
X217800Y327923D02*
X218056Y327991D01*
X218243Y328179D01*
X218312Y328435D01*
X218312Y328789D01*
X218250Y329057D01*
X218063Y329259D01*
X217800Y329340D01*
X217603Y329340D01*
X217340Y329259D01*
X217152Y329057D01*
X217091Y328789D01*
X217091Y328435D01*
X215989Y328435D02*
X216094Y328111D01*
X216370Y327910D01*
X216710Y327910D01*
X216986Y328111D01*
X217091Y328435D01*
X215989Y328435D02*
X215989Y328789D01*
X216540Y329340D02*
X216264Y329266D01*
X216063Y329064D01*
X215989Y328789D01*
X219375Y330246D02*
X215989Y330246D01*
X217603Y330246D02*
X217957Y330341D01*
X218217Y330600D01*
X218312Y330954D01*
X218217Y331309D01*
X217957Y331568D01*
X217603Y331663D01*
X216737Y331663D02*
X217603Y331663D01*
X216737Y331663D02*
X216382Y331568D01*
X216123Y331309D01*
X216028Y330954D01*
X216123Y330600D01*
X216382Y330341D01*
X216737Y330246D01*
X217957Y332568D02*
X218312Y332568D01*
X214768Y335167D02*
X218312Y335167D01*
X218312Y336742D01*
X214768Y339419D02*
X214768Y337647D01*
X216540Y337647D01*
X216540Y338868D01*
X216540Y337647D02*
X218312Y337647D01*
X218312Y339419D01*
X218312Y341190D02*
X218203Y341636D01*
X217886Y341968D01*
X217445Y342096D01*
X218312Y341190D02*
X218312Y340324D01*
X214768Y340324D01*
X214768Y341190D01*
X215634Y342096D02*
X215194Y341968D01*
X214877Y341636D01*
X214768Y341190D01*
X215634Y342096D02*
X217445Y342096D01*
G54D13*
X38879Y337249D02*
X39390Y337338D01*
X39828Y337617D01*
X40125Y338041D01*
X40238Y338548D01*
X38879Y337249D02*
X37580Y337249D01*
X37580Y342563D01*
X38879Y342563D01*
X40238Y341264D02*
X40125Y341771D01*
X39828Y342195D01*
X39390Y342474D01*
X38879Y342563D01*
X40238Y341264D02*
X40238Y338548D01*
X41596Y337249D02*
X41596Y340969D01*
X41596Y342032D02*
X41596Y342563D01*
X42954Y338016D02*
X43057Y337632D01*
X43338Y337351D01*
X43722Y337249D01*
X44253Y337249D01*
X44656Y337340D01*
X44959Y337621D01*
X45080Y338016D01*
X45080Y338312D01*
X44959Y338706D01*
X44656Y338987D01*
X44253Y339079D01*
X43722Y339079D01*
X43722Y340733D02*
X43309Y340622D01*
X43006Y340319D01*
X42895Y339906D01*
X43006Y339493D01*
X43309Y339190D01*
X43722Y339079D01*
X43722Y340733D02*
X44253Y340733D01*
X45080Y339906D02*
X44969Y340319D01*
X44667Y340622D01*
X44253Y340733D01*
X46438Y335654D02*
X46438Y340733D01*
X46438Y338312D02*
X46544Y337850D01*
X46839Y337480D01*
X47265Y337275D01*
X47738Y337275D01*
X48164Y337480D01*
X48459Y337850D01*
X48564Y338312D01*
X48564Y339611D02*
X48564Y338312D01*
X48564Y339611D02*
X48459Y340072D01*
X48164Y340442D01*
X47738Y340647D01*
X47265Y340647D01*
X46839Y340442D01*
X46544Y340072D01*
X46438Y339611D01*
X49923Y342563D02*
X49923Y338016D01*
X50026Y337632D01*
X50307Y337351D01*
X50690Y337249D01*
X54175Y339611D02*
X54069Y340072D01*
X53774Y340442D01*
X53348Y340647D01*
X52875Y340647D01*
X52449Y340442D01*
X52154Y340072D01*
X52049Y339611D01*
X53348Y338843D02*
X53751Y338935D01*
X54053Y339216D01*
X54175Y339611D01*
X53348Y338843D02*
X52816Y338843D01*
X52816Y338813D02*
X52418Y338707D01*
X52126Y338415D01*
X52019Y338016D01*
X52126Y337618D01*
X52418Y337326D01*
X52816Y337219D01*
X52816Y337249D02*
X53348Y337249D01*
X53751Y337340D01*
X54053Y337621D01*
X54175Y338016D01*
X54175Y339611D02*
X54175Y337780D01*
X54706Y337249D01*
X56064Y340733D02*
X57364Y337249D01*
X58722Y340733D02*
X56832Y335949D01*
X56301Y335713D01*
X222014Y316544D02*
X220951Y317607D01*
X226266Y317607D01*
X222014Y321091D02*
X225203Y321091D01*
X222014Y321091D02*
X221552Y320986D01*
X221183Y320691D01*
X220977Y320264D01*
X220977Y319791D01*
X221183Y319365D01*
X221552Y319070D01*
X222014Y318965D01*
X225203Y318965D02*
X222014Y318965D01*
X225203Y318965D02*
X225664Y319070D01*
X226034Y319365D01*
X226239Y319791D01*
X226239Y320264D01*
X226034Y320691D01*
X225664Y320986D01*
X225203Y321091D01*
X222014Y324575D02*
X225203Y324575D01*
X222014Y324575D02*
X221552Y324470D01*
X221183Y324175D01*
X220977Y323749D01*
X220977Y323276D01*
X221183Y322849D01*
X221552Y322554D01*
X222014Y322449D01*
X225203Y322449D02*
X222014Y322449D01*
X225203Y322449D02*
X225664Y322554D01*
X226034Y322849D01*
X226239Y323276D01*
X226239Y323749D01*
X226034Y324175D01*
X225664Y324470D01*
X225203Y324575D01*
X201792Y316440D02*
X200729Y317503D01*
X206044Y317503D01*
X201792Y320988D02*
X204981Y320988D01*
X201792Y320988D02*
X201331Y320882D01*
X200961Y320587D01*
X200756Y320161D01*
X200756Y319688D01*
X200961Y319262D01*
X201331Y318967D01*
X201792Y318862D01*
X204981Y318862D02*
X201792Y318862D01*
X204981Y318862D02*
X205442Y318967D01*
X205812Y319262D01*
X206017Y319688D01*
X206017Y320161D01*
X205812Y320587D01*
X205442Y320882D01*
X204981Y320988D01*
X206044Y322346D02*
X200729Y322346D01*
X204213Y322346D02*
X200729Y325003D01*
X202855Y323409D02*
X206044Y325003D01*
X335930Y289876D02*
X335807Y290441D01*
X335461Y290903D01*
X334954Y291180D01*
X334378Y291221D01*
X333837Y291019D01*
X333429Y290611D01*
X333227Y290070D01*
X333268Y289494D01*
X333545Y288987D01*
X334007Y288641D01*
X334571Y288518D01*
X333272Y287160D02*
X333405Y286611D01*
X333753Y286166D01*
X334255Y285907D01*
X334819Y285879D01*
X335344Y286088D01*
X335734Y286496D01*
X335920Y287030D01*
X335867Y287592D01*
X335585Y288082D01*
X335126Y288410D01*
X334571Y288518D01*
X337288Y290113D02*
X338351Y291176D01*
X338351Y285861D01*
X339709Y290113D02*
X340772Y291176D01*
X340772Y285861D01*
X337618Y328577D02*
X338128Y328667D01*
X338566Y328945D01*
X338864Y329370D01*
X338976Y329876D01*
X337618Y328577D02*
X336318Y328577D01*
X336318Y333892D01*
X337618Y333892D01*
X338976Y332593D02*
X338864Y333099D01*
X338566Y333524D01*
X338128Y333802D01*
X337618Y333892D01*
X338976Y332593D02*
X338976Y329876D01*
X340334Y332829D02*
X341397Y333892D01*
X341397Y328577D01*
X350263Y328577D02*
X350774Y328667D01*
X351211Y328945D01*
X351509Y329370D01*
X351621Y329876D01*
X350263Y328577D02*
X348964Y328577D01*
X348964Y333892D01*
X350263Y333892D01*
X351621Y332593D02*
X351509Y333099D01*
X351211Y333524D01*
X350774Y333802D01*
X350263Y333892D01*
X351621Y332593D02*
X351621Y329876D01*
X355105Y332829D02*
X355000Y333290D01*
X354705Y333660D01*
X354279Y333866D01*
X353806Y333866D01*
X353380Y333660D01*
X353085Y333290D01*
X352979Y332829D01*
X355105Y332829D02*
X352979Y328577D01*
X355105Y328577D01*
X362480Y328577D02*
X362991Y328667D01*
X363428Y328945D01*
X363726Y329370D01*
X363838Y329876D01*
X362480Y328577D02*
X361181Y328577D01*
X361181Y333892D01*
X362480Y333892D01*
X363838Y332593D02*
X363726Y333099D01*
X363428Y333524D01*
X362991Y333802D01*
X362480Y333892D01*
X363838Y332593D02*
X363838Y329876D01*
X365196Y329640D02*
X365302Y329179D01*
X365597Y328809D01*
X366023Y328604D01*
X366496Y328604D01*
X366922Y328809D01*
X367217Y329179D01*
X367322Y329640D01*
X367322Y330408D02*
X367322Y329640D01*
X367322Y330408D02*
X367241Y330815D01*
X367011Y331160D01*
X366666Y331390D01*
X366259Y331471D01*
X365964Y331471D02*
X366259Y331471D01*
X365964Y331471D01*
X366259Y331471D02*
X366675Y331565D01*
X367023Y331812D01*
X367251Y332173D01*
X367322Y332593D01*
X367322Y332829D02*
X367322Y332593D01*
X367322Y332829D02*
X367217Y333290D01*
X366922Y333660D01*
X366496Y333866D01*
X366023Y333866D01*
X365597Y333660D01*
X365302Y333290D01*
X365196Y332829D01*
X377509Y328922D02*
X378020Y329012D01*
X378458Y329290D01*
X378755Y329715D01*
X378868Y330221D01*
X377509Y328922D02*
X376210Y328922D01*
X376210Y334237D01*
X377509Y334237D01*
X378868Y332937D02*
X378755Y333444D01*
X378458Y333869D01*
X378020Y334147D01*
X377509Y334237D01*
X378868Y332937D02*
X378868Y330221D01*
X381820Y334237D02*
X380226Y330221D01*
X382352Y330221D01*
X381820Y331284D02*
X381820Y328922D01*
X340442Y294202D02*
X340442Y296860D01*
X341742Y296860D01*
X341742Y296889D02*
X342250Y296990D01*
X342681Y297278D01*
X342969Y297710D01*
X343070Y298218D01*
X342969Y298726D01*
X342681Y299158D01*
X342250Y299446D01*
X341742Y299547D01*
X341742Y299517D02*
X340442Y299517D01*
X340442Y296860D01*
X346584Y296564D02*
X346584Y295265D01*
X346584Y296564D02*
X346479Y297026D01*
X346184Y297396D01*
X345758Y297601D01*
X345285Y297601D01*
X344858Y297396D01*
X344563Y297026D01*
X344458Y296564D01*
X344458Y295265D02*
X344458Y296564D01*
X344458Y295265D02*
X344563Y294804D01*
X344858Y294434D01*
X345285Y294229D01*
X345758Y294229D01*
X346184Y294434D01*
X346479Y294804D01*
X346584Y295265D01*
X347942Y297687D02*
X349005Y294202D01*
X350068Y297687D01*
X351131Y294202D01*
X352194Y297687D01*
X353553Y296033D02*
X355679Y296033D01*
X355679Y296564D01*
X355573Y297026D01*
X355278Y297396D01*
X354852Y297601D01*
X354379Y297601D01*
X353953Y297396D01*
X353658Y297026D01*
X353553Y296564D01*
X353553Y295265D01*
X353667Y294786D01*
X353984Y294410D01*
X354437Y294217D01*
X354928Y294248D01*
X355353Y294497D01*
X355620Y294911D01*
X357037Y294202D02*
X357037Y297687D01*
X358395Y297450D02*
X358073Y297640D01*
X357699Y297663D01*
X357356Y297514D01*
X357118Y297225D01*
X357037Y296860D01*
X363592Y294202D02*
X364103Y294292D01*
X364540Y294570D01*
X364838Y294995D01*
X364950Y295501D01*
X363592Y294202D02*
X362293Y294202D01*
X362293Y299517D01*
X363592Y299517D01*
X364950Y298218D02*
X364838Y298724D01*
X364540Y299149D01*
X364103Y299427D01*
X363592Y299517D01*
X364950Y298218D02*
X364950Y295501D01*
X366486Y294675D02*
X366808Y294362D01*
X367231Y294210D01*
X367679Y294247D01*
X368072Y294465D01*
X368340Y294826D01*
X368435Y295265D01*
X368435Y296328D01*
X368329Y296789D01*
X368034Y297159D01*
X367608Y297365D01*
X367135Y297365D01*
X366709Y297159D01*
X366414Y296789D01*
X366309Y296328D01*
X366309Y299517D01*
X368435Y299517D01*
X157897Y226940D02*
X158358Y227045D01*
X158728Y227340D01*
X158933Y227766D01*
X158933Y228239D01*
X158728Y228665D01*
X158358Y228960D01*
X157897Y229066D01*
X157129Y229066D02*
X157897Y229066D01*
X157129Y229066D02*
X156722Y228985D01*
X156377Y228754D01*
X156147Y228409D01*
X156066Y228003D01*
X156066Y227707D02*
X156066Y228003D01*
X156066Y227707D01*
X156066Y228003D02*
X155972Y228419D01*
X155725Y228767D01*
X155364Y228994D01*
X154944Y229066D01*
X154708Y229066D02*
X154944Y229066D01*
X154708Y229066D02*
X154247Y228960D01*
X153877Y228665D01*
X153672Y228239D01*
X153672Y227766D01*
X153877Y227340D01*
X154247Y227045D01*
X154708Y226940D01*
X157897Y230424D02*
X158358Y230529D01*
X158728Y230824D01*
X158933Y231250D01*
X158933Y231723D01*
X158728Y232150D01*
X158358Y232445D01*
X157897Y232550D01*
X157129Y232550D02*
X157897Y232550D01*
X157129Y232550D02*
X156722Y232469D01*
X156377Y232239D01*
X156147Y231894D01*
X156066Y231487D01*
X156066Y231192D02*
X156066Y231487D01*
X156066Y231192D01*
X156066Y231487D02*
X155972Y231903D01*
X155725Y232251D01*
X155364Y232478D01*
X154944Y232550D01*
X154708Y232550D02*
X154944Y232550D01*
X154708Y232550D02*
X154247Y232445D01*
X153877Y232150D01*
X153672Y231723D01*
X153672Y231250D01*
X153877Y230824D01*
X154247Y230529D01*
X154708Y230424D01*
X154708Y236034D02*
X157897Y236034D01*
X154708Y236034D02*
X154247Y235929D01*
X153877Y235634D01*
X153672Y235208D01*
X153672Y234735D01*
X153877Y234308D01*
X154247Y234013D01*
X154708Y233908D01*
X157897Y233908D02*
X154708Y233908D01*
X157897Y233908D02*
X158358Y234013D01*
X158728Y234308D01*
X158933Y234735D01*
X158933Y235208D01*
X158728Y235634D01*
X158358Y235929D01*
X157897Y236034D01*
X147001Y217205D02*
X147462Y217311D01*
X147832Y217606D01*
X148038Y218032D01*
X148038Y218505D01*
X147832Y218931D01*
X147462Y219226D01*
X147001Y219331D01*
X146233Y219331D02*
X147001Y219331D01*
X146233Y219331D02*
X145827Y219250D01*
X145482Y219020D01*
X145251Y218675D01*
X145170Y218268D01*
X145170Y217973D02*
X145170Y218268D01*
X145170Y217973D01*
X145170Y218268D02*
X145076Y218684D01*
X144830Y219032D01*
X144469Y219260D01*
X144048Y219331D01*
X143812Y219331D02*
X144048Y219331D01*
X143812Y219331D02*
X143351Y219226D01*
X142981Y218931D01*
X142776Y218505D01*
X142776Y218032D01*
X142981Y217606D01*
X143351Y217311D01*
X143812Y217205D01*
X147001Y220690D02*
X147462Y220795D01*
X147832Y221090D01*
X148038Y221516D01*
X148038Y221989D01*
X147832Y222415D01*
X147462Y222710D01*
X147001Y222816D01*
X146233Y222816D02*
X147001Y222816D01*
X146233Y222816D02*
X145827Y222735D01*
X145482Y222504D01*
X145251Y222159D01*
X145170Y221753D01*
X145170Y221457D02*
X145170Y221753D01*
X145170Y221457D01*
X145170Y221753D02*
X145076Y222169D01*
X144830Y222517D01*
X144469Y222744D01*
X144048Y222816D01*
X143812Y222816D02*
X144048Y222816D01*
X143812Y222816D02*
X143351Y222710D01*
X142981Y222415D01*
X142776Y221989D01*
X142776Y221516D01*
X142981Y221090D01*
X143351Y220795D01*
X143812Y220690D01*
X143812Y226300D02*
X147001Y226300D01*
X143812Y226300D02*
X143351Y226195D01*
X142981Y225900D01*
X142776Y225473D01*
X142776Y225000D01*
X142981Y224574D01*
X143351Y224279D01*
X143812Y224174D01*
X147001Y224174D02*
X143812Y224174D01*
X147001Y224174D02*
X147462Y224279D01*
X147832Y224574D01*
X148038Y225000D01*
X148038Y225473D01*
X147832Y225900D01*
X147462Y226195D01*
X147001Y226300D01*
X156322Y306861D02*
X156783Y306966D01*
X157153Y307261D01*
X157358Y307687D01*
X157358Y308160D01*
X157153Y308587D01*
X156783Y308882D01*
X156322Y308987D01*
X155554Y308987D02*
X156322Y308987D01*
X155554Y308987D02*
X155148Y308906D01*
X154803Y308676D01*
X154572Y308331D01*
X154491Y307924D01*
X154491Y307629D02*
X154491Y307924D01*
X154491Y307629D01*
X154491Y307924D02*
X154397Y308340D01*
X154151Y308688D01*
X153790Y308915D01*
X153369Y308987D01*
X153133Y308987D02*
X153369Y308987D01*
X153133Y308987D02*
X152672Y308882D01*
X152302Y308587D01*
X152097Y308160D01*
X152097Y307687D01*
X152302Y307261D01*
X152672Y306966D01*
X153133Y306861D01*
X156322Y310345D02*
X156783Y310450D01*
X157153Y310745D01*
X157358Y311172D01*
X157358Y311645D01*
X157153Y312071D01*
X156783Y312366D01*
X156322Y312471D01*
X155554Y312471D02*
X156322Y312471D01*
X155554Y312471D02*
X155148Y312390D01*
X154803Y312160D01*
X154572Y311815D01*
X154491Y311408D01*
X154491Y311113D02*
X154491Y311408D01*
X154491Y311113D01*
X154491Y311408D02*
X154397Y311824D01*
X154151Y312172D01*
X153790Y312399D01*
X153369Y312471D01*
X153133Y312471D02*
X153369Y312471D01*
X153133Y312471D02*
X152672Y312366D01*
X152302Y312071D01*
X152097Y311645D01*
X152097Y311172D01*
X152302Y310745D01*
X152672Y310450D01*
X153133Y310345D01*
X153133Y315955D02*
X156322Y315955D01*
X153133Y315955D02*
X152672Y315850D01*
X152302Y315555D01*
X152097Y315129D01*
X152097Y314656D01*
X152302Y314230D01*
X152672Y313935D01*
X153133Y313829D01*
X156322Y313829D02*
X153133Y313829D01*
X156322Y313829D02*
X156783Y313935D01*
X157153Y314230D01*
X157358Y314656D01*
X157358Y315129D01*
X157153Y315555D01*
X156783Y315850D01*
X156322Y315955D01*
X142894Y308059D02*
X141831Y309122D01*
X147146Y309122D01*
X142894Y312607D02*
X146083Y312607D01*
X142894Y312607D02*
X142433Y312501D01*
X142063Y312206D01*
X141858Y311780D01*
X141858Y311307D01*
X142063Y310881D01*
X142433Y310586D01*
X142894Y310481D01*
X146083Y310481D02*
X142894Y310481D01*
X146083Y310481D02*
X146545Y310586D01*
X146915Y310881D01*
X147120Y311307D01*
X147120Y311780D01*
X146915Y312206D01*
X146545Y312501D01*
X146083Y312607D01*
X142894Y316091D02*
X146083Y316091D01*
X142894Y316091D02*
X142433Y315986D01*
X142063Y315691D01*
X141858Y315264D01*
X141858Y314791D01*
X142063Y314365D01*
X142433Y314070D01*
X142894Y313965D01*
X146083Y313965D02*
X142894Y313965D01*
X146083Y313965D02*
X146545Y314070D01*
X146915Y314365D01*
X147120Y314791D01*
X147120Y315264D01*
X146915Y315691D01*
X146545Y315986D01*
X146083Y316091D01*
X147146Y317449D02*
X143662Y317449D01*
X144784Y319575D02*
X144323Y319470D01*
X143953Y319175D01*
X143748Y318749D01*
X143748Y318276D01*
X143953Y317849D01*
X144323Y317554D01*
X144784Y317449D01*
X144784Y319575D02*
X147146Y319575D01*
X141831Y323591D02*
X141831Y320933D01*
X144489Y320933D01*
X144489Y322764D01*
X144489Y320933D02*
X147146Y320933D01*
X73534Y226504D02*
X73995Y226610D01*
X74365Y226905D01*
X74571Y227331D01*
X74571Y227804D01*
X74365Y228230D01*
X73995Y228525D01*
X73534Y228630D01*
X72767Y228630D02*
X73534Y228630D01*
X72767Y228630D02*
X72360Y228549D01*
X72015Y228319D01*
X71784Y227974D01*
X71704Y227567D01*
X71704Y227272D02*
X71704Y227567D01*
X71704Y227272D01*
X71704Y227567D02*
X71609Y227983D01*
X71363Y228331D01*
X71002Y228559D01*
X70581Y228630D01*
X70345Y228630D02*
X70581Y228630D01*
X70345Y228630D02*
X69884Y228525D01*
X69514Y228230D01*
X69309Y227804D01*
X69309Y227331D01*
X69514Y226905D01*
X69884Y226610D01*
X70345Y226504D01*
X73534Y229989D02*
X73995Y230094D01*
X74365Y230389D01*
X74571Y230815D01*
X74571Y231288D01*
X74365Y231714D01*
X73995Y232009D01*
X73534Y232115D01*
X72767Y232115D02*
X73534Y232115D01*
X72767Y232115D02*
X72360Y232034D01*
X72015Y231803D01*
X71784Y231458D01*
X71704Y231052D01*
X71704Y230756D02*
X71704Y231052D01*
X71704Y230756D01*
X71704Y231052D02*
X71609Y231467D01*
X71363Y231816D01*
X71002Y232043D01*
X70581Y232115D01*
X70345Y232115D02*
X70581Y232115D01*
X70345Y232115D02*
X69884Y232009D01*
X69514Y231714D01*
X69309Y231288D01*
X69309Y230815D01*
X69514Y230389D01*
X69884Y230094D01*
X70345Y229989D01*
X70345Y235599D02*
X73534Y235599D01*
X70345Y235599D02*
X69884Y235493D01*
X69514Y235199D01*
X69309Y234772D01*
X69309Y234299D01*
X69514Y233873D01*
X69884Y233578D01*
X70345Y233473D01*
X73534Y233473D02*
X70345Y233473D01*
X73534Y233473D02*
X73995Y233578D01*
X74365Y233873D01*
X74571Y234299D01*
X74571Y234772D01*
X74365Y235199D01*
X73995Y235493D01*
X73534Y235599D01*
X104418Y246837D02*
X103355Y247900D01*
X108669Y247900D01*
X104418Y251384D02*
X107606Y251384D01*
X104418Y251384D02*
X103956Y251279D01*
X103586Y250984D01*
X103381Y250558D01*
X103381Y250085D01*
X103586Y249658D01*
X103956Y249363D01*
X104418Y249258D01*
X107606Y249258D02*
X104418Y249258D01*
X107606Y249258D02*
X108068Y249363D01*
X108438Y249658D01*
X108643Y250085D01*
X108643Y250558D01*
X108438Y250984D01*
X108068Y251279D01*
X107606Y251384D01*
X104418Y254868D02*
X107606Y254868D01*
X104418Y254868D02*
X103956Y254763D01*
X103586Y254468D01*
X103381Y254042D01*
X103381Y253569D01*
X103586Y253143D01*
X103956Y252848D01*
X104418Y252742D01*
X107606Y252742D02*
X104418Y252742D01*
X107606Y252742D02*
X108068Y252848D01*
X108438Y253143D01*
X108643Y253569D01*
X108643Y254042D01*
X108438Y254468D01*
X108068Y254763D01*
X107606Y254868D01*
X108669Y256227D02*
X105185Y256227D01*
X106307Y258353D02*
X105846Y258247D01*
X105476Y257952D01*
X105271Y257526D01*
X105271Y257053D01*
X105476Y256627D01*
X105846Y256332D01*
X106307Y256227D01*
X106307Y258353D02*
X108669Y258353D01*
X103355Y262368D02*
X103355Y259711D01*
X106012Y259711D01*
X106012Y261542D01*
X106012Y259711D02*
X108669Y259711D01*
X105111Y291059D02*
X104048Y292122D01*
X109363Y292122D01*
X105111Y295607D02*
X108300Y295607D01*
X105111Y295607D02*
X104650Y295501D01*
X104280Y295206D01*
X104075Y294780D01*
X104075Y294307D01*
X104280Y293881D01*
X104650Y293586D01*
X105111Y293481D01*
X108300Y293481D02*
X105111Y293481D01*
X108300Y293481D02*
X108762Y293586D01*
X109131Y293881D01*
X109337Y294307D01*
X109337Y294780D01*
X109131Y295206D01*
X108762Y295501D01*
X108300Y295607D01*
X105111Y299091D02*
X108300Y299091D01*
X105111Y299091D02*
X104650Y298986D01*
X104280Y298691D01*
X104075Y298264D01*
X104075Y297791D01*
X104280Y297365D01*
X104650Y297070D01*
X105111Y296965D01*
X108300Y296965D02*
X105111Y296965D01*
X108300Y296965D02*
X108762Y297070D01*
X109131Y297365D01*
X109337Y297791D01*
X109337Y298264D01*
X109131Y298691D01*
X108762Y298986D01*
X108300Y299091D01*
X109363Y300449D02*
X105879Y300449D01*
X107001Y302575D02*
X106540Y302470D01*
X106170Y302175D01*
X105965Y301749D01*
X105965Y301276D01*
X106170Y300849D01*
X106540Y300554D01*
X107001Y300449D01*
X107001Y302575D02*
X109363Y302575D01*
X104048Y306591D02*
X104048Y303933D01*
X106706Y303933D01*
X106706Y305764D01*
X106706Y303933D02*
X109363Y303933D01*
X73236Y249243D02*
X73698Y249348D01*
X74067Y249643D01*
X74273Y250069D01*
X74273Y250542D01*
X74067Y250969D01*
X73698Y251263D01*
X73236Y251369D01*
X72469Y251369D02*
X73236Y251369D01*
X72469Y251369D02*
X72062Y251288D01*
X71717Y251057D01*
X71487Y250713D01*
X71406Y250306D01*
X71406Y250010D02*
X71406Y250306D01*
X71406Y250010D01*
X71406Y250306D02*
X71311Y250722D01*
X71065Y251070D01*
X70704Y251297D01*
X70284Y251369D01*
X70047Y251369D02*
X70284Y251369D01*
X70047Y251369D02*
X69586Y251263D01*
X69216Y250969D01*
X69011Y250542D01*
X69011Y250069D01*
X69216Y249643D01*
X69586Y249348D01*
X70047Y249243D01*
X73236Y252727D02*
X73698Y252832D01*
X74067Y253127D01*
X74273Y253553D01*
X74273Y254027D01*
X74067Y254453D01*
X73698Y254748D01*
X73236Y254853D01*
X72469Y254853D02*
X73236Y254853D01*
X72469Y254853D02*
X72062Y254772D01*
X71717Y254542D01*
X71487Y254197D01*
X71406Y253790D01*
X71406Y253495D02*
X71406Y253790D01*
X71406Y253495D01*
X71406Y253790D02*
X71311Y254206D01*
X71065Y254554D01*
X70704Y254781D01*
X70284Y254853D01*
X70047Y254853D02*
X70284Y254853D01*
X70047Y254853D02*
X69586Y254748D01*
X69216Y254453D01*
X69011Y254027D01*
X69011Y253553D01*
X69216Y253127D01*
X69586Y252832D01*
X70047Y252727D01*
X70047Y258337D02*
X73236Y258337D01*
X70047Y258337D02*
X69586Y258232D01*
X69216Y257937D01*
X69011Y257511D01*
X69011Y257038D01*
X69216Y256611D01*
X69586Y256317D01*
X70047Y256211D01*
X73236Y256211D02*
X70047Y256211D01*
X73236Y256211D02*
X73698Y256317D01*
X74067Y256611D01*
X74273Y257038D01*
X74273Y257511D01*
X74067Y257937D01*
X73698Y258232D01*
X73236Y258337D01*
X73337Y271942D02*
X73799Y272048D01*
X74168Y272342D01*
X74374Y272769D01*
X74374Y273242D01*
X74168Y273668D01*
X73799Y273963D01*
X73337Y274068D01*
X72570Y274068D02*
X73337Y274068D01*
X72570Y274068D02*
X72163Y273987D01*
X71818Y273757D01*
X71588Y273412D01*
X71507Y273005D01*
X71507Y272710D02*
X71507Y273005D01*
X71507Y272710D01*
X71507Y273005D02*
X71412Y273421D01*
X71166Y273769D01*
X70805Y273997D01*
X70385Y274068D01*
X70148Y274068D02*
X70385Y274068D01*
X70148Y274068D02*
X69687Y273963D01*
X69317Y273668D01*
X69112Y273242D01*
X69112Y272769D01*
X69317Y272342D01*
X69687Y272048D01*
X70148Y271942D01*
X73337Y275427D02*
X73799Y275532D01*
X74168Y275827D01*
X74374Y276253D01*
X74374Y276726D01*
X74168Y277152D01*
X73799Y277447D01*
X73337Y277553D01*
X72570Y277553D02*
X73337Y277553D01*
X72570Y277553D02*
X72163Y277472D01*
X71818Y277241D01*
X71588Y276896D01*
X71507Y276490D01*
X71507Y276194D02*
X71507Y276490D01*
X71507Y276194D01*
X71507Y276490D02*
X71412Y276905D01*
X71166Y277254D01*
X70805Y277481D01*
X70385Y277553D01*
X70148Y277553D02*
X70385Y277553D01*
X70148Y277553D02*
X69687Y277447D01*
X69317Y277152D01*
X69112Y276726D01*
X69112Y276253D01*
X69317Y275827D01*
X69687Y275532D01*
X70148Y275427D01*
X70148Y281037D02*
X73337Y281037D01*
X70148Y281037D02*
X69687Y280931D01*
X69317Y280637D01*
X69112Y280210D01*
X69112Y279737D01*
X69317Y279311D01*
X69687Y279016D01*
X70148Y278911D01*
X73337Y278911D02*
X70148Y278911D01*
X73337Y278911D02*
X73799Y279016D01*
X74168Y279311D01*
X74374Y279737D01*
X74374Y280210D01*
X74168Y280637D01*
X73799Y280931D01*
X73337Y281037D01*
X73433Y293175D02*
X73894Y293280D01*
X74264Y293575D01*
X74470Y294001D01*
X74470Y294474D01*
X74264Y294901D01*
X73894Y295196D01*
X73433Y295301D01*
X72666Y295301D02*
X73433Y295301D01*
X72666Y295301D02*
X72259Y295220D01*
X71914Y294989D01*
X71683Y294645D01*
X71603Y294238D01*
X71603Y293943D02*
X71603Y294238D01*
X71603Y293943D01*
X71603Y294238D02*
X71508Y294654D01*
X71262Y295002D01*
X70901Y295229D01*
X70480Y295301D01*
X70244Y295301D02*
X70480Y295301D01*
X70244Y295301D02*
X69783Y295196D01*
X69413Y294901D01*
X69208Y294474D01*
X69208Y294001D01*
X69413Y293575D01*
X69783Y293280D01*
X70244Y293175D01*
X73433Y296659D02*
X73894Y296764D01*
X74264Y297059D01*
X74470Y297486D01*
X74470Y297959D01*
X74264Y298385D01*
X73894Y298680D01*
X73433Y298785D01*
X72666Y298785D02*
X73433Y298785D01*
X72666Y298785D02*
X72259Y298704D01*
X71914Y298474D01*
X71683Y298129D01*
X71603Y297722D01*
X71603Y297427D02*
X71603Y297722D01*
X71603Y297427D01*
X71603Y297722D02*
X71508Y298138D01*
X71262Y298486D01*
X70901Y298713D01*
X70480Y298785D01*
X70244Y298785D02*
X70480Y298785D01*
X70244Y298785D02*
X69783Y298680D01*
X69413Y298385D01*
X69208Y297959D01*
X69208Y297486D01*
X69413Y297059D01*
X69783Y296764D01*
X70244Y296659D01*
X70244Y302269D02*
X73433Y302269D01*
X70244Y302269D02*
X69783Y302164D01*
X69413Y301869D01*
X69208Y301443D01*
X69208Y300970D01*
X69413Y300544D01*
X69783Y300249D01*
X70244Y300143D01*
X73433Y300143D02*
X70244Y300143D01*
X73433Y300143D02*
X73894Y300249D01*
X74264Y300544D01*
X74470Y300970D01*
X74470Y301443D01*
X74264Y301869D01*
X73894Y302164D01*
X73433Y302269D01*
X373843Y203700D02*
X372544Y203700D01*
X373843Y203730D02*
X374351Y203831D01*
X374783Y204119D01*
X375071Y204550D01*
X375172Y205059D01*
X375071Y205567D01*
X374783Y205998D01*
X374351Y206286D01*
X373843Y206387D01*
X372544Y206358D02*
X373843Y206358D01*
X372544Y201043D02*
X372544Y206358D01*
X373843Y201043D02*
X372544Y201043D01*
X373843Y201013D02*
X374351Y201114D01*
X374783Y201402D01*
X375071Y201834D01*
X375172Y202342D01*
X375071Y202851D01*
X374783Y203282D01*
X374351Y203570D01*
X373843Y203671D01*
X379187Y205059D02*
X379086Y205567D01*
X378798Y205998D01*
X378367Y206286D01*
X377859Y206387D01*
X377350Y206286D01*
X376919Y205998D01*
X376631Y205567D01*
X376530Y205059D01*
X376560Y205059D02*
X376560Y202342D01*
X376530Y202342D02*
X376631Y201834D01*
X376919Y201402D01*
X377350Y201114D01*
X377859Y201013D01*
X378367Y201114D01*
X378798Y201402D01*
X379086Y201834D01*
X379187Y202342D01*
X382701Y202874D02*
X382701Y202106D01*
X382701Y202874D02*
X382596Y203335D01*
X382301Y203705D01*
X381875Y203910D01*
X381402Y203910D01*
X380976Y203705D01*
X380681Y203335D01*
X380575Y202874D01*
X380575Y202106D02*
X380575Y202874D01*
X380575Y202106D02*
X380681Y201645D01*
X380976Y201275D01*
X381402Y201069D01*
X381875Y201069D01*
X382301Y201275D01*
X382596Y201645D01*
X382701Y202106D01*
X382701Y205295D02*
X382701Y205059D01*
X382701Y205295D02*
X382596Y205756D01*
X382301Y206126D01*
X381875Y206331D01*
X381402Y206331D01*
X380976Y206126D01*
X380681Y205756D01*
X380575Y205295D01*
X380575Y205059D02*
X380575Y205295D01*
X380575Y205059D02*
X380681Y204597D01*
X380976Y204227D01*
X381402Y204022D01*
X381875Y204022D01*
X382301Y204227D01*
X382596Y204597D01*
X382701Y205059D01*
X384060Y205295D02*
X385123Y206358D01*
X385123Y201043D01*
X386481Y205590D02*
X386481Y206358D01*
X388607Y206358D01*
X387012Y201043D01*
X371113Y217304D02*
X369518Y213288D01*
X371644Y213288D01*
X371113Y214351D02*
X371113Y211989D01*
X373003Y211989D02*
X373534Y211989D01*
X373062Y210926D01*
X374892Y216536D02*
X374892Y217304D01*
X377018Y217304D01*
X375424Y211989D01*
X378377Y211989D02*
X378377Y217304D01*
X378377Y213820D02*
X381034Y217304D01*
X379440Y215178D02*
X381034Y211989D01*
X45590Y44576D02*
X45026Y44454D01*
X44564Y44107D01*
X44287Y43601D01*
X44246Y43025D01*
X44447Y42484D01*
X44856Y42075D01*
X45397Y41874D01*
X45973Y41915D01*
X46480Y42191D01*
X46826Y42654D01*
X46948Y43218D01*
X48307Y41919D02*
X48856Y42051D01*
X49300Y42400D01*
X49560Y42901D01*
X49587Y43466D01*
X49378Y43990D01*
X48970Y44381D01*
X48437Y44566D01*
X47874Y44514D01*
X47385Y44232D01*
X47056Y43772D01*
X46948Y43218D01*
X45354Y45935D02*
X44291Y46998D01*
X49606Y46998D01*
X99527Y44379D02*
X98963Y44257D01*
X98501Y43911D01*
X98224Y43404D01*
X98183Y42828D01*
X98384Y42287D01*
X98793Y41879D01*
X99334Y41677D01*
X99910Y41718D01*
X100417Y41995D01*
X100763Y42457D01*
X100885Y43021D01*
X102244Y41722D02*
X102793Y41854D01*
X103237Y42203D01*
X103497Y42705D01*
X103524Y43269D01*
X103315Y43793D01*
X102907Y44184D01*
X102374Y44369D01*
X101811Y44317D01*
X101322Y44035D01*
X100993Y43576D01*
X100885Y43021D01*
X99291Y47864D02*
X98830Y47758D01*
X98460Y47463D01*
X98254Y47037D01*
X98254Y46564D01*
X98460Y46138D01*
X98830Y45843D01*
X99291Y45738D01*
X99291Y47864D02*
X103543Y45738D01*
X103543Y47864D01*
X154448Y44379D02*
X153884Y44257D01*
X153422Y43911D01*
X153145Y43404D01*
X153104Y42828D01*
X153306Y42287D01*
X153714Y41879D01*
X154255Y41677D01*
X154831Y41718D01*
X155338Y41995D01*
X155684Y42457D01*
X155807Y43021D01*
X157165Y41722D02*
X157714Y41854D01*
X158158Y42203D01*
X158418Y42705D01*
X158446Y43269D01*
X158237Y43793D01*
X157828Y44184D01*
X157295Y44369D01*
X156733Y44317D01*
X156243Y44035D01*
X155914Y43576D01*
X155807Y43021D01*
X157401Y45738D02*
X157862Y45843D01*
X158232Y46138D01*
X158437Y46564D01*
X158437Y47037D01*
X158232Y47463D01*
X157862Y47758D01*
X157401Y47864D01*
X156633Y47864D02*
X157401Y47864D01*
X156633Y47864D02*
X156227Y47783D01*
X155882Y47552D01*
X155651Y47207D01*
X155570Y46801D01*
X155570Y46505D02*
X155570Y46801D01*
X155570Y46505D01*
X155570Y46801D02*
X155476Y47217D01*
X155230Y47565D01*
X154869Y47792D01*
X154448Y47864D01*
X154212Y47864D02*
X154448Y47864D01*
X154212Y47864D02*
X153751Y47758D01*
X153381Y47463D01*
X153176Y47037D01*
X153176Y46564D01*
X153381Y46138D01*
X153751Y45843D01*
X154212Y45738D01*
X209370Y44379D02*
X208805Y44257D01*
X208343Y43911D01*
X208066Y43404D01*
X208025Y42828D01*
X208227Y42287D01*
X208635Y41879D01*
X209176Y41677D01*
X209752Y41718D01*
X210259Y41995D01*
X210605Y42457D01*
X210728Y43021D01*
X212086Y41722D02*
X212635Y41854D01*
X213080Y42203D01*
X213339Y42705D01*
X213367Y43269D01*
X213158Y43793D01*
X212750Y44184D01*
X212216Y44369D01*
X211654Y44317D01*
X211164Y44035D01*
X210836Y43576D01*
X210728Y43021D01*
X208070Y47332D02*
X212086Y45738D01*
X212086Y47864D01*
X211023Y47332D02*
X213385Y47332D01*
X345984Y111309D02*
X345420Y111186D01*
X344957Y110840D01*
X344681Y110333D01*
X344639Y109757D01*
X344841Y109216D01*
X345249Y108808D01*
X345790Y108606D01*
X346366Y108647D01*
X346873Y108924D01*
X347219Y109386D01*
X347342Y109950D01*
X348700Y108651D02*
X349249Y108783D01*
X349694Y109132D01*
X349953Y109634D01*
X349981Y110198D01*
X349772Y110723D01*
X349364Y111113D01*
X348830Y111299D01*
X348268Y111246D01*
X347778Y110964D01*
X347450Y110505D01*
X347342Y109950D01*
X349527Y112844D02*
X349840Y113167D01*
X349991Y113590D01*
X349955Y114038D01*
X349737Y114430D01*
X349376Y114698D01*
X348937Y114793D01*
X347874Y114793D01*
X347412Y114688D01*
X347042Y114393D01*
X346837Y113966D01*
X346837Y113493D01*
X347042Y113067D01*
X347412Y112772D01*
X347874Y112667D01*
X344685Y112667D01*
X344685Y114793D01*
X345984Y156190D02*
X345420Y156068D01*
X344957Y155722D01*
X344681Y155215D01*
X344639Y154639D01*
X344841Y154098D01*
X345249Y153690D01*
X345790Y153488D01*
X346366Y153529D01*
X346873Y153806D01*
X347219Y154268D01*
X347342Y154832D01*
X348700Y153533D02*
X349249Y153665D01*
X349694Y154014D01*
X349953Y154516D01*
X349981Y155080D01*
X349772Y155604D01*
X349364Y155995D01*
X348830Y156180D01*
X348268Y156128D01*
X347778Y155846D01*
X347450Y155387D01*
X347342Y154832D01*
X345748Y159675D02*
X345286Y159569D01*
X344916Y159274D01*
X344711Y158848D01*
X344711Y158375D01*
X344916Y157949D01*
X345286Y157654D01*
X345748Y157549D01*
X348937Y157549D01*
X349398Y157654D01*
X349768Y157949D01*
X349973Y158375D01*
X349973Y158848D01*
X349768Y159274D01*
X349398Y159569D01*
X348937Y159675D01*
X347874Y159675D01*
X347412Y159569D01*
X347042Y159274D01*
X346837Y158848D01*
X346837Y158375D01*
X347042Y157949D01*
X347412Y157654D01*
X347874Y157549D01*
X286141Y44379D02*
X285577Y44257D01*
X285115Y43911D01*
X284838Y43404D01*
X284797Y42828D01*
X284999Y42287D01*
X285407Y41879D01*
X285948Y41677D01*
X286524Y41718D01*
X287031Y41995D01*
X287377Y42457D01*
X287500Y43021D01*
X288858Y41722D02*
X289407Y41854D01*
X289851Y42203D01*
X290111Y42705D01*
X290139Y43269D01*
X289929Y43793D01*
X289521Y44184D01*
X288988Y44369D01*
X288425Y44317D01*
X287936Y44035D01*
X287607Y43576D01*
X287500Y43021D01*
X285610Y45738D02*
X284842Y45738D01*
X284842Y47864D01*
X290157Y46269D01*
X315669Y7765D02*
X315105Y7643D01*
X314642Y7296D01*
X314366Y6790D01*
X314324Y6214D01*
X314526Y5673D01*
X314934Y5264D01*
X315475Y5063D01*
X316051Y5104D01*
X316558Y5380D01*
X316904Y5843D01*
X317027Y6407D01*
X318385Y5108D02*
X318934Y5240D01*
X319379Y5589D01*
X319638Y6090D01*
X319666Y6655D01*
X319457Y7179D01*
X319049Y7570D01*
X318515Y7755D01*
X317953Y7703D01*
X317463Y7421D01*
X317135Y6961D01*
X317027Y6407D01*
X317854Y11250D02*
X318622Y11250D01*
X317854Y11250D02*
X317393Y11144D01*
X317023Y10849D01*
X316817Y10423D01*
X316817Y9950D01*
X317023Y9524D01*
X317393Y9229D01*
X317854Y9124D01*
X318622Y9124D02*
X317854Y9124D01*
X318622Y9124D02*
X319083Y9229D01*
X319453Y9524D01*
X319658Y9950D01*
X319658Y10423D01*
X319453Y10849D01*
X319083Y11144D01*
X318622Y11250D01*
X315433Y11250D02*
X315669Y11250D01*
X315433Y11250D02*
X314971Y11144D01*
X314601Y10849D01*
X314396Y10423D01*
X314396Y9950D01*
X314601Y9524D01*
X314971Y9229D01*
X315433Y9124D01*
X315669Y9124D02*
X315433Y9124D01*
X315669Y9124D02*
X316130Y9229D01*
X316500Y9524D01*
X316705Y9950D01*
X316705Y10423D01*
X316500Y10849D01*
X316130Y11144D01*
X315669Y11250D01*
X345196Y51879D02*
X344632Y51757D01*
X344170Y51411D01*
X343893Y50904D01*
X343852Y50328D01*
X344054Y49787D01*
X344462Y49379D01*
X345003Y49177D01*
X345579Y49218D01*
X346086Y49495D01*
X346432Y49957D01*
X346555Y50521D01*
X347913Y49222D02*
X348462Y49354D01*
X348906Y49703D01*
X349166Y50205D01*
X349194Y50769D01*
X348985Y51293D01*
X348576Y51684D01*
X348043Y51869D01*
X347481Y51817D01*
X346991Y51535D01*
X346663Y51076D01*
X346555Y50521D01*
X348149Y53238D02*
X348610Y53343D01*
X348980Y53638D01*
X349185Y54064D01*
X349185Y54537D01*
X348980Y54963D01*
X348610Y55258D01*
X348149Y55364D01*
X344960Y55364D01*
X344499Y55258D01*
X344129Y54963D01*
X343924Y54537D01*
X343924Y54064D01*
X344129Y53638D01*
X344499Y53343D01*
X344960Y53238D01*
X346023Y53238D01*
X346484Y53343D01*
X346854Y53638D01*
X347059Y54064D01*
X347059Y54537D01*
X346854Y54963D01*
X346484Y55258D01*
X346023Y55364D01*
X315669Y82032D02*
X315105Y81909D01*
X314642Y81563D01*
X314366Y81056D01*
X314324Y80480D01*
X314526Y79939D01*
X314934Y79531D01*
X315475Y79329D01*
X316051Y79370D01*
X316558Y79647D01*
X316904Y80109D01*
X317027Y80674D01*
X318385Y79375D02*
X318934Y79507D01*
X319379Y79855D01*
X319638Y80357D01*
X319666Y80921D01*
X319457Y81446D01*
X319049Y81836D01*
X318515Y82022D01*
X317953Y81969D01*
X317463Y81688D01*
X317135Y81228D01*
X317027Y80674D01*
X315433Y83390D02*
X314370Y84453D01*
X319685Y84453D01*
X315433Y87937D02*
X318622Y87937D01*
X315433Y87937D02*
X314971Y87832D01*
X314601Y87537D01*
X314396Y87111D01*
X314396Y86638D01*
X314601Y86212D01*
X314971Y85917D01*
X315433Y85812D01*
X318622Y85812D02*
X315433Y85812D01*
X318622Y85812D02*
X319083Y85917D01*
X319453Y86212D01*
X319658Y86638D01*
X319658Y87111D01*
X319453Y87537D01*
X319083Y87832D01*
X318622Y87937D01*
X333897Y348508D02*
X333333Y348386D01*
X332871Y348040D01*
X332594Y347533D01*
X332553Y346957D01*
X332754Y346416D01*
X333163Y346007D01*
X333704Y345806D01*
X334280Y345847D01*
X334787Y346124D01*
X335133Y346586D01*
X335255Y347150D01*
X336614Y345851D02*
X337163Y345983D01*
X337607Y346332D01*
X337867Y346833D01*
X337895Y347398D01*
X337685Y347922D01*
X337277Y348313D01*
X336744Y348498D01*
X336181Y348446D01*
X335692Y348164D01*
X335363Y347705D01*
X335255Y347150D01*
X333661Y349867D02*
X332598Y350930D01*
X337913Y350930D01*
X333661Y354414D02*
X333200Y354309D01*
X332830Y354014D01*
X332625Y353587D01*
X332625Y353114D01*
X332830Y352688D01*
X333200Y352393D01*
X333661Y352288D01*
X333661Y354414D02*
X337913Y352288D01*
X337913Y354414D01*
X233773Y202392D02*
X234234Y202498D01*
X234604Y202793D01*
X234809Y203219D01*
X234809Y203692D01*
X234604Y204118D01*
X234234Y204413D01*
X233773Y204518D01*
X233005Y204518D02*
X233773Y204518D01*
X233005Y204518D02*
X232598Y204437D01*
X232253Y204207D01*
X232023Y203862D01*
X231942Y203455D01*
X231942Y203160D02*
X231942Y203455D01*
X231942Y203160D01*
X231942Y203455D02*
X231848Y203871D01*
X231601Y204219D01*
X231240Y204447D01*
X230820Y204518D01*
X230584Y204518D02*
X230820Y204518D01*
X230584Y204518D02*
X230123Y204413D01*
X229753Y204118D01*
X229548Y203692D01*
X229548Y203219D01*
X229753Y202793D01*
X230123Y202498D01*
X230584Y202392D01*
X233773Y205877D02*
X234234Y205982D01*
X234604Y206277D01*
X234809Y206703D01*
X234809Y207176D01*
X234604Y207602D01*
X234234Y207897D01*
X233773Y208003D01*
X233005Y208003D02*
X233773Y208003D01*
X233005Y208003D02*
X232598Y207922D01*
X232253Y207691D01*
X232023Y207346D01*
X231942Y206940D01*
X231942Y206644D02*
X231942Y206940D01*
X231942Y206644D01*
X231942Y206940D02*
X231848Y207356D01*
X231601Y207704D01*
X231240Y207931D01*
X230820Y208003D01*
X230584Y208003D02*
X230820Y208003D01*
X230584Y208003D02*
X230123Y207897D01*
X229753Y207602D01*
X229548Y207176D01*
X229548Y206703D01*
X229753Y206277D01*
X230123Y205982D01*
X230584Y205877D01*
X230584Y211487D02*
X233773Y211487D01*
X230584Y211487D02*
X230123Y211382D01*
X229753Y211087D01*
X229548Y210660D01*
X229548Y210187D01*
X229753Y209761D01*
X230123Y209466D01*
X230584Y209361D01*
X233773Y209361D02*
X230584Y209361D01*
X233773Y209361D02*
X234234Y209466D01*
X234604Y209761D01*
X234809Y210187D01*
X234809Y210660D01*
X234604Y211087D01*
X234234Y211382D01*
X233773Y211487D01*
X234560Y252392D02*
X235021Y252498D01*
X235391Y252793D01*
X235597Y253219D01*
X235597Y253692D01*
X235391Y254118D01*
X235021Y254413D01*
X234560Y254518D01*
X233793Y254518D02*
X234560Y254518D01*
X233793Y254518D02*
X233386Y254437D01*
X233041Y254207D01*
X232810Y253862D01*
X232730Y253455D01*
X232730Y253160D02*
X232730Y253455D01*
X232730Y253160D01*
X232730Y253455D02*
X232635Y253871D01*
X232389Y254219D01*
X232028Y254447D01*
X231607Y254518D01*
X231371Y254518D02*
X231607Y254518D01*
X231371Y254518D02*
X230910Y254413D01*
X230540Y254118D01*
X230335Y253692D01*
X230335Y253219D01*
X230540Y252793D01*
X230910Y252498D01*
X231371Y252392D01*
X234560Y255877D02*
X235021Y255982D01*
X235391Y256277D01*
X235597Y256703D01*
X235597Y257176D01*
X235391Y257602D01*
X235021Y257897D01*
X234560Y258003D01*
X233793Y258003D02*
X234560Y258003D01*
X233793Y258003D02*
X233386Y257922D01*
X233041Y257691D01*
X232810Y257346D01*
X232730Y256940D01*
X232730Y256644D02*
X232730Y256940D01*
X232730Y256644D01*
X232730Y256940D02*
X232635Y257356D01*
X232389Y257704D01*
X232028Y257931D01*
X231607Y258003D01*
X231371Y258003D02*
X231607Y258003D01*
X231371Y258003D02*
X230910Y257897D01*
X230540Y257602D01*
X230335Y257176D01*
X230335Y256703D01*
X230540Y256277D01*
X230910Y255982D01*
X231371Y255877D01*
X231371Y261487D02*
X234560Y261487D01*
X231371Y261487D02*
X230910Y261382D01*
X230540Y261087D01*
X230335Y260660D01*
X230335Y260187D01*
X230540Y259761D01*
X230910Y259466D01*
X231371Y259361D01*
X234560Y259361D02*
X231371Y259361D01*
X234560Y259361D02*
X235021Y259466D01*
X235391Y259761D01*
X235597Y260187D01*
X235597Y260660D01*
X235391Y261087D01*
X235021Y261382D01*
X234560Y261487D01*
X212565Y274674D02*
X211502Y275737D01*
X216817Y275737D01*
X212565Y279221D02*
X215754Y279221D01*
X212565Y279221D02*
X212104Y279116D01*
X211734Y278821D01*
X211528Y278394D01*
X211528Y277921D01*
X211734Y277495D01*
X212104Y277200D01*
X212565Y277095D01*
X215754Y277095D02*
X212565Y277095D01*
X215754Y277095D02*
X216215Y277200D01*
X216585Y277495D01*
X216790Y277921D01*
X216790Y278394D01*
X216585Y278821D01*
X216215Y279116D01*
X215754Y279221D01*
X212565Y282705D02*
X215754Y282705D01*
X212565Y282705D02*
X212104Y282600D01*
X211734Y282305D01*
X211528Y281879D01*
X211528Y281406D01*
X211734Y280979D01*
X212104Y280684D01*
X212565Y280579D01*
X215754Y280579D02*
X212565Y280579D01*
X215754Y280579D02*
X216215Y280684D01*
X216585Y280979D01*
X216790Y281406D01*
X216790Y281879D01*
X216585Y282305D01*
X216215Y282600D01*
X215754Y282705D01*
X216817Y284063D02*
X213332Y284063D01*
X214455Y286189D02*
X213993Y286084D01*
X213623Y285789D01*
X213418Y285363D01*
X213418Y284890D01*
X213623Y284464D01*
X213993Y284169D01*
X214455Y284063D01*
X214455Y286189D02*
X216817Y286189D01*
X211502Y290205D02*
X211502Y287548D01*
X214159Y287548D01*
X214159Y289378D01*
X214159Y287548D02*
X216817Y287548D01*
X16541Y227154D02*
X17002Y227259D01*
X17372Y227554D01*
X17577Y227980D01*
X17577Y228453D01*
X17372Y228880D01*
X17002Y229175D01*
X16541Y229280D01*
X15773Y229280D02*
X16541Y229280D01*
X15773Y229280D02*
X15367Y229199D01*
X15022Y228969D01*
X14791Y228624D01*
X14710Y228217D01*
X14710Y227922D02*
X14710Y228217D01*
X14710Y227922D01*
X14710Y228217D02*
X14616Y228633D01*
X14370Y228981D01*
X14009Y229208D01*
X13588Y229280D01*
X13352Y229280D02*
X13588Y229280D01*
X13352Y229280D02*
X12891Y229175D01*
X12521Y228880D01*
X12316Y228453D01*
X12316Y227980D01*
X12521Y227554D01*
X12891Y227259D01*
X13352Y227154D01*
X16541Y230638D02*
X17002Y230743D01*
X17372Y231038D01*
X17577Y231465D01*
X17577Y231938D01*
X17372Y232364D01*
X17002Y232659D01*
X16541Y232764D01*
X15773Y232764D02*
X16541Y232764D01*
X15773Y232764D02*
X15367Y232683D01*
X15022Y232453D01*
X14791Y232108D01*
X14710Y231701D01*
X14710Y231406D02*
X14710Y231701D01*
X14710Y231406D01*
X14710Y231701D02*
X14616Y232117D01*
X14370Y232465D01*
X14009Y232692D01*
X13588Y232764D01*
X13352Y232764D02*
X13588Y232764D01*
X13352Y232764D02*
X12891Y232659D01*
X12521Y232364D01*
X12316Y231938D01*
X12316Y231465D01*
X12521Y231038D01*
X12891Y230743D01*
X13352Y230638D01*
X13352Y236248D02*
X16541Y236248D01*
X13352Y236248D02*
X12891Y236143D01*
X12521Y235848D01*
X12316Y235422D01*
X12316Y234949D01*
X12521Y234523D01*
X12891Y234228D01*
X13352Y234122D01*
X16541Y234122D02*
X13352Y234122D01*
X16541Y234122D02*
X17002Y234228D01*
X17372Y234523D01*
X17577Y234949D01*
X17577Y235422D01*
X17372Y235848D01*
X17002Y236143D01*
X16541Y236248D01*
X47210Y247311D02*
X46147Y248374D01*
X51462Y248374D01*
X47210Y251859D02*
X50399Y251859D01*
X47210Y251859D02*
X46749Y251753D01*
X46379Y251458D01*
X46174Y251032D01*
X46174Y250559D01*
X46379Y250133D01*
X46749Y249838D01*
X47210Y249733D01*
X50399Y249733D02*
X47210Y249733D01*
X50399Y249733D02*
X50861Y249838D01*
X51230Y250133D01*
X51436Y250559D01*
X51436Y251032D01*
X51230Y251458D01*
X50861Y251753D01*
X50399Y251859D01*
X47210Y255343D02*
X50399Y255343D01*
X47210Y255343D02*
X46749Y255238D01*
X46379Y254943D01*
X46174Y254516D01*
X46174Y254043D01*
X46379Y253617D01*
X46749Y253322D01*
X47210Y253217D01*
X50399Y253217D02*
X47210Y253217D01*
X50399Y253217D02*
X50861Y253322D01*
X51230Y253617D01*
X51436Y254043D01*
X51436Y254516D01*
X51230Y254943D01*
X50861Y255238D01*
X50399Y255343D01*
X51462Y256701D02*
X47978Y256701D01*
X49100Y258827D02*
X48639Y258722D01*
X48269Y258427D01*
X48064Y258001D01*
X48064Y257528D01*
X48269Y257101D01*
X48639Y256806D01*
X49100Y256701D01*
X49100Y258827D02*
X51462Y258827D01*
X46147Y262843D02*
X46147Y260185D01*
X48805Y260185D01*
X48805Y262016D01*
X48805Y260185D02*
X51462Y260185D01*
X47210Y291327D02*
X46147Y292390D01*
X51462Y292390D01*
X47210Y295874D02*
X50399Y295874D01*
X47210Y295874D02*
X46749Y295769D01*
X46379Y295474D01*
X46174Y295048D01*
X46174Y294575D01*
X46379Y294149D01*
X46749Y293854D01*
X47210Y293748D01*
X50399Y293748D02*
X47210Y293748D01*
X50399Y293748D02*
X50861Y293854D01*
X51230Y294149D01*
X51436Y294575D01*
X51436Y295048D01*
X51230Y295474D01*
X50861Y295769D01*
X50399Y295874D01*
X47210Y299359D02*
X50399Y299359D01*
X47210Y299359D02*
X46749Y299253D01*
X46379Y298958D01*
X46174Y298532D01*
X46174Y298059D01*
X46379Y297633D01*
X46749Y297338D01*
X47210Y297233D01*
X50399Y297233D02*
X47210Y297233D01*
X50399Y297233D02*
X50861Y297338D01*
X51230Y297633D01*
X51436Y298059D01*
X51436Y298532D01*
X51230Y298958D01*
X50861Y299253D01*
X50399Y299359D01*
X51462Y300717D02*
X47978Y300717D01*
X49100Y302843D02*
X48639Y302738D01*
X48269Y302443D01*
X48064Y302016D01*
X48064Y301543D01*
X48269Y301117D01*
X48639Y300822D01*
X49100Y300717D01*
X49100Y302843D02*
X51462Y302843D01*
X46147Y306859D02*
X46147Y304201D01*
X48805Y304201D01*
X48805Y306032D01*
X48805Y304201D02*
X51462Y304201D01*
X16450Y248003D02*
X16911Y248108D01*
X17281Y248403D01*
X17486Y248829D01*
X17486Y249302D01*
X17281Y249728D01*
X16911Y250023D01*
X16450Y250129D01*
X15682Y250129D02*
X16450Y250129D01*
X15682Y250129D02*
X15275Y250048D01*
X14931Y249817D01*
X14700Y249472D01*
X14619Y249066D01*
X14619Y248770D02*
X14619Y249066D01*
X14619Y248770D01*
X14619Y249066D02*
X14525Y249482D01*
X14279Y249830D01*
X13918Y250057D01*
X13497Y250129D01*
X13261Y250129D02*
X13497Y250129D01*
X13261Y250129D02*
X12800Y250023D01*
X12430Y249728D01*
X12225Y249302D01*
X12225Y248829D01*
X12430Y248403D01*
X12800Y248108D01*
X13261Y248003D01*
X16450Y251487D02*
X16911Y251592D01*
X17281Y251887D01*
X17486Y252313D01*
X17486Y252786D01*
X17281Y253213D01*
X16911Y253508D01*
X16450Y253613D01*
X15682Y253613D02*
X16450Y253613D01*
X15682Y253613D02*
X15275Y253532D01*
X14931Y253301D01*
X14700Y252957D01*
X14619Y252550D01*
X14619Y252255D02*
X14619Y252550D01*
X14619Y252255D01*
X14619Y252550D02*
X14525Y252966D01*
X14279Y253314D01*
X13918Y253541D01*
X13497Y253613D01*
X13261Y253613D02*
X13497Y253613D01*
X13261Y253613D02*
X12800Y253508D01*
X12430Y253213D01*
X12225Y252786D01*
X12225Y252313D01*
X12430Y251887D01*
X12800Y251592D01*
X13261Y251487D01*
X13261Y257097D02*
X16450Y257097D01*
X13261Y257097D02*
X12800Y256992D01*
X12430Y256697D01*
X12225Y256271D01*
X12225Y255798D01*
X12430Y255371D01*
X12800Y255076D01*
X13261Y254971D01*
X16450Y254971D02*
X13261Y254971D01*
X16450Y254971D02*
X16911Y255076D01*
X17281Y255371D01*
X17486Y255798D01*
X17486Y256271D01*
X17281Y256697D01*
X16911Y256992D01*
X16450Y257097D01*
X16147Y272233D02*
X16609Y272338D01*
X16979Y272633D01*
X17184Y273059D01*
X17184Y273532D01*
X16979Y273958D01*
X16609Y274253D01*
X16147Y274359D01*
X15380Y274359D02*
X16147Y274359D01*
X15380Y274359D02*
X14973Y274278D01*
X14628Y274047D01*
X14398Y273702D01*
X14317Y273296D01*
X14317Y273000D02*
X14317Y273296D01*
X14317Y273000D01*
X14317Y273296D02*
X14222Y273712D01*
X13976Y274060D01*
X13615Y274287D01*
X13195Y274359D01*
X12958Y274359D02*
X13195Y274359D01*
X12958Y274359D02*
X12497Y274253D01*
X12127Y273958D01*
X11922Y273532D01*
X11922Y273059D01*
X12127Y272633D01*
X12497Y272338D01*
X12958Y272233D01*
X16147Y275717D02*
X16609Y275822D01*
X16979Y276117D01*
X17184Y276543D01*
X17184Y277016D01*
X16979Y277443D01*
X16609Y277738D01*
X16147Y277843D01*
X15380Y277843D02*
X16147Y277843D01*
X15380Y277843D02*
X14973Y277762D01*
X14628Y277532D01*
X14398Y277187D01*
X14317Y276780D01*
X14317Y276485D02*
X14317Y276780D01*
X14317Y276485D01*
X14317Y276780D02*
X14222Y277196D01*
X13976Y277544D01*
X13615Y277771D01*
X13195Y277843D01*
X12958Y277843D02*
X13195Y277843D01*
X12958Y277843D02*
X12497Y277738D01*
X12127Y277443D01*
X11922Y277016D01*
X11922Y276543D01*
X12127Y276117D01*
X12497Y275822D01*
X12958Y275717D01*
X12958Y281327D02*
X16147Y281327D01*
X12958Y281327D02*
X12497Y281222D01*
X12127Y280927D01*
X11922Y280501D01*
X11922Y280028D01*
X12127Y279601D01*
X12497Y279306D01*
X12958Y279201D01*
X16147Y279201D02*
X12958Y279201D01*
X16147Y279201D02*
X16609Y279306D01*
X16979Y279601D01*
X17184Y280028D01*
X17184Y280501D01*
X16979Y280927D01*
X16609Y281222D01*
X16147Y281327D01*
X16056Y293278D02*
X16518Y293383D01*
X16887Y293678D01*
X17093Y294105D01*
X17093Y294578D01*
X16887Y295004D01*
X16518Y295299D01*
X16056Y295404D01*
X15289Y295404D02*
X16056Y295404D01*
X15289Y295404D02*
X14882Y295323D01*
X14537Y295093D01*
X14306Y294748D01*
X14226Y294341D01*
X14226Y294046D02*
X14226Y294341D01*
X14226Y294046D01*
X14226Y294341D02*
X14131Y294757D01*
X13885Y295105D01*
X13524Y295332D01*
X13104Y295404D01*
X12867Y295404D02*
X13104Y295404D01*
X12867Y295404D02*
X12406Y295299D01*
X12036Y295004D01*
X11831Y294578D01*
X11831Y294105D01*
X12036Y293678D01*
X12406Y293383D01*
X12867Y293278D01*
X16056Y296762D02*
X16518Y296868D01*
X16887Y297163D01*
X17093Y297589D01*
X17093Y298062D01*
X16887Y298488D01*
X16518Y298783D01*
X16056Y298888D01*
X15289Y298888D02*
X16056Y298888D01*
X15289Y298888D02*
X14882Y298808D01*
X14537Y298577D01*
X14306Y298232D01*
X14226Y297825D01*
X14226Y297530D02*
X14226Y297825D01*
X14226Y297530D01*
X14226Y297825D02*
X14131Y298241D01*
X13885Y298589D01*
X13524Y298817D01*
X13104Y298888D01*
X12867Y298888D02*
X13104Y298888D01*
X12867Y298888D02*
X12406Y298783D01*
X12036Y298488D01*
X11831Y298062D01*
X11831Y297589D01*
X12036Y297163D01*
X12406Y296868D01*
X12867Y296762D01*
X12867Y302373D02*
X16056Y302373D01*
X12867Y302373D02*
X12406Y302267D01*
X12036Y301972D01*
X11831Y301546D01*
X11831Y301073D01*
X12036Y300647D01*
X12406Y300352D01*
X12867Y300247D01*
X16056Y300247D02*
X12867Y300247D01*
X16056Y300247D02*
X16518Y300352D01*
X16887Y300647D01*
X17093Y301073D01*
X17093Y301546D01*
X16887Y301972D01*
X16518Y302267D01*
X16056Y302373D01*
X50360Y111130D02*
X49297Y112193D01*
X54612Y112193D01*
X50360Y115678D02*
X53549Y115678D01*
X50360Y115678D02*
X49899Y115572D01*
X49529Y115277D01*
X49324Y114851D01*
X49324Y114378D01*
X49529Y113952D01*
X49899Y113657D01*
X50360Y113552D01*
X53549Y113552D02*
X50360Y113552D01*
X53549Y113552D02*
X54010Y113657D01*
X54380Y113952D01*
X54585Y114378D01*
X54585Y114851D01*
X54380Y115277D01*
X54010Y115572D01*
X53549Y115678D01*
X54612Y117036D02*
X49297Y117036D01*
X52781Y117036D02*
X49297Y119693D01*
X51423Y118099D02*
X54612Y119693D01*
X60990Y110894D02*
X59927Y111957D01*
X65242Y111957D01*
X60990Y115441D02*
X64179Y115441D01*
X60990Y115441D02*
X60529Y115336D01*
X60159Y115041D01*
X59954Y114615D01*
X59954Y114142D01*
X60159Y113716D01*
X60529Y113421D01*
X60990Y113315D01*
X64179Y113315D02*
X60990Y113315D01*
X64179Y113315D02*
X64640Y113421D01*
X65010Y113716D01*
X65215Y114142D01*
X65215Y114615D01*
X65010Y115041D01*
X64640Y115336D01*
X64179Y115441D01*
X65242Y116800D02*
X59927Y116800D01*
X63411Y116800D02*
X59927Y119457D01*
X62053Y117863D02*
X65242Y119457D01*
X70832Y111130D02*
X69769Y112193D01*
X75084Y112193D01*
X70832Y115678D02*
X74021Y115678D01*
X70832Y115678D02*
X70371Y115572D01*
X70001Y115277D01*
X69796Y114851D01*
X69796Y114378D01*
X70001Y113952D01*
X70371Y113657D01*
X70832Y113552D01*
X74021Y113552D02*
X70832Y113552D01*
X74021Y113552D02*
X74483Y113657D01*
X74853Y113952D01*
X75058Y114378D01*
X75058Y114851D01*
X74853Y115277D01*
X74483Y115572D01*
X74021Y115678D01*
X75084Y117036D02*
X69769Y117036D01*
X73254Y117036D02*
X69769Y119693D01*
X71895Y118099D02*
X75084Y119693D01*
X371122Y19074D02*
X370613Y18973D01*
X370182Y18685D01*
X369894Y18254D01*
X369793Y17746D01*
X369894Y17237D01*
X370182Y16806D01*
X370613Y16518D01*
X371122Y16417D01*
X371122Y16446D02*
X373838Y16446D01*
X373838Y16417D02*
X374347Y16518D01*
X374778Y16806D01*
X375066Y17237D01*
X375167Y17746D01*
X375066Y18254D01*
X374778Y18685D01*
X374347Y18973D01*
X373838Y19074D01*
X373838Y19104D02*
X372480Y19104D01*
X372480Y17746D01*
X375137Y20462D02*
X369822Y20462D01*
X375137Y23120D01*
X369822Y23120D01*
X375137Y25777D02*
X375048Y26288D01*
X374769Y26725D01*
X374344Y27023D01*
X373838Y27135D01*
X375137Y25777D02*
X375137Y24478D01*
X369822Y24478D01*
X369822Y25777D01*
X371122Y27135D02*
X370615Y27023D01*
X370191Y26725D01*
X369912Y26288D01*
X369822Y25777D01*
X371122Y27135D02*
X373838Y27135D01*
X382160Y22787D02*
X387475Y24087D01*
X382160Y25445D01*
X385644Y26803D02*
X385644Y28929D01*
X385113Y28929D01*
X384651Y28824D01*
X384282Y28529D01*
X384076Y28103D01*
X384076Y27630D01*
X384282Y27203D01*
X384651Y26908D01*
X385113Y26803D01*
X386412Y26803D01*
X386891Y26917D01*
X387267Y27234D01*
X387461Y27687D01*
X387429Y28179D01*
X387180Y28603D01*
X386766Y28870D01*
X387475Y30287D02*
X383991Y30287D01*
X384227Y31646D02*
X384037Y31323D01*
X384014Y30950D01*
X384163Y30606D01*
X384452Y30368D01*
X384817Y30287D01*
X386707Y33004D02*
X387091Y33107D01*
X387372Y33388D01*
X387475Y33772D01*
X387475Y34303D01*
X387383Y34706D01*
X387102Y35008D01*
X386707Y35130D01*
X386412Y35130D01*
X386017Y35008D01*
X385736Y34706D01*
X385644Y34303D01*
X385644Y33772D01*
X383991Y33772D02*
X384101Y33358D01*
X384404Y33056D01*
X384817Y32945D01*
X385231Y33056D01*
X385533Y33358D01*
X385644Y33772D01*
X383991Y33772D02*
X383991Y34303D01*
X384817Y35130D02*
X384404Y35019D01*
X384101Y34717D01*
X383991Y34303D01*
X387475Y36488D02*
X383754Y36488D01*
X382691Y36488D02*
X382160Y36488D01*
X385113Y39972D02*
X386412Y39972D01*
X385113Y39972D02*
X384651Y39867D01*
X384282Y39572D01*
X384076Y39146D01*
X384076Y38673D01*
X384282Y38247D01*
X384651Y37952D01*
X385113Y37846D01*
X386412Y37846D02*
X385113Y37846D01*
X386412Y37846D02*
X386873Y37952D01*
X387243Y38247D01*
X387448Y38673D01*
X387448Y39146D01*
X387243Y39572D01*
X386873Y39867D01*
X386412Y39972D01*
X387475Y41331D02*
X383991Y41331D01*
X385113Y43457D02*
X384651Y43351D01*
X384282Y43056D01*
X384076Y42630D01*
X384076Y42157D01*
X384282Y41731D01*
X384651Y41436D01*
X385113Y41331D01*
X385113Y43457D02*
X387475Y43457D01*
X387475Y47354D02*
X382160Y47354D01*
X386412Y47354D02*
X386873Y47460D01*
X387243Y47755D01*
X387448Y48181D01*
X387448Y48654D01*
X387243Y49080D01*
X386873Y49375D01*
X386412Y49480D01*
X385113Y49480D02*
X386412Y49480D01*
X385113Y49480D02*
X384651Y49375D01*
X384282Y49080D01*
X384076Y48654D01*
X384076Y48181D01*
X384282Y47755D01*
X384651Y47460D01*
X385113Y47354D01*
X383223Y52965D02*
X382762Y52859D01*
X382392Y52564D01*
X382187Y52138D01*
X382187Y51665D01*
X382392Y51239D01*
X382762Y50944D01*
X383223Y50839D01*
X383223Y52965D02*
X387475Y50839D01*
X387475Y52965D01*
X386943Y54323D02*
X387475Y54323D01*
X383223Y57807D02*
X386412Y57807D01*
X383223Y57807D02*
X382762Y57702D01*
X382392Y57407D01*
X382187Y56981D01*
X382187Y56508D01*
X382392Y56081D01*
X382762Y55786D01*
X383223Y55681D01*
X386412Y55681D02*
X383223Y55681D01*
X386412Y55681D02*
X386873Y55786D01*
X387243Y56081D01*
X387448Y56508D01*
X387448Y56981D01*
X387243Y57407D01*
X386873Y57702D01*
X386412Y57807D01*
X383223Y61291D02*
X382762Y61186D01*
X382392Y60891D01*
X382187Y60465D01*
X382187Y59992D01*
X382392Y59566D01*
X382762Y59271D01*
X383223Y59165D01*
X383223Y61291D02*
X387475Y59165D01*
X387475Y61291D01*
X383459Y70356D02*
X382951Y70255D01*
X382520Y69967D01*
X382232Y69536D01*
X382130Y69028D01*
X382232Y68519D01*
X382520Y68088D01*
X382951Y67800D01*
X383459Y67699D01*
X383459Y67728D02*
X386176Y67728D01*
X386176Y67699D02*
X386684Y67800D01*
X387115Y68088D01*
X387403Y68519D01*
X387504Y69028D01*
X387403Y69536D01*
X387115Y69967D01*
X386684Y70255D01*
X386176Y70356D01*
X383459Y74372D02*
X382951Y74271D01*
X382520Y73983D01*
X382232Y73552D01*
X382130Y73043D01*
X382232Y72535D01*
X382520Y72104D01*
X382951Y71816D01*
X383459Y71715D01*
X383459Y71744D02*
X386176Y71744D01*
X386176Y71715D02*
X386684Y71816D01*
X387115Y72104D01*
X387403Y72535D01*
X387504Y73043D01*
X387403Y73552D01*
X387115Y73983D01*
X386684Y74271D01*
X386176Y74372D01*
X384817Y79598D02*
X384817Y78299D01*
X384788Y79598D02*
X384687Y80107D01*
X384399Y80538D01*
X383968Y80826D01*
X383459Y80927D01*
X382951Y80826D01*
X382520Y80538D01*
X382232Y80107D01*
X382130Y79598D01*
X382160Y78299D02*
X382160Y79598D01*
X387475Y78299D02*
X382160Y78299D01*
X387475Y79598D02*
X387475Y78299D01*
X387504Y79598D02*
X387403Y80107D01*
X387115Y80538D01*
X386684Y80826D01*
X386176Y80927D01*
X385667Y80826D01*
X385236Y80538D01*
X384948Y80107D01*
X384847Y79598D01*
X382160Y82315D02*
X385644Y83614D01*
X382160Y84972D01*
X385644Y83614D02*
X387475Y83614D01*
X384817Y86331D02*
X384817Y88693D01*
X387475Y90051D02*
X382160Y90051D01*
X387475Y92709D01*
X382160Y92709D01*
X383459Y96695D02*
X382951Y96594D01*
X382520Y96306D01*
X382232Y95875D01*
X382130Y95366D01*
X382232Y94858D01*
X382520Y94427D01*
X382951Y94139D01*
X383459Y94037D01*
X383459Y94067D02*
X386176Y94067D01*
X386176Y94037D02*
X386684Y94139D01*
X387115Y94427D01*
X387403Y94858D01*
X387504Y95366D01*
X387403Y95875D01*
X387115Y96306D01*
X386684Y96594D01*
X386176Y96695D01*
X384817Y98083D02*
X384817Y100445D01*
X383459Y104461D02*
X382895Y104338D01*
X382433Y103992D01*
X382156Y103485D01*
X382115Y102909D01*
X382317Y102368D01*
X382725Y101960D01*
X383266Y101758D01*
X383842Y101799D01*
X384349Y102076D01*
X384695Y102538D01*
X384817Y103102D01*
X386176Y101803D02*
X386725Y101936D01*
X387169Y102284D01*
X387429Y102786D01*
X387457Y103350D01*
X387247Y103875D01*
X386839Y104265D01*
X386306Y104451D01*
X385743Y104398D01*
X385254Y104116D01*
X384925Y103657D01*
X384817Y103102D01*
X387475Y105819D02*
X382160Y107650D01*
X387475Y109539D01*
X385880Y106350D02*
X385880Y109008D01*
X386412Y113437D02*
X386873Y113542D01*
X387243Y113837D01*
X387448Y114263D01*
X387448Y114737D01*
X387243Y115163D01*
X386873Y115458D01*
X386412Y115563D01*
X385644Y115563D02*
X386412Y115563D01*
X385644Y115563D02*
X385237Y115482D01*
X384893Y115252D01*
X384662Y114907D01*
X384581Y114500D01*
X384581Y114205D02*
X384581Y114500D01*
X384581Y114205D01*
X384581Y114500D02*
X384487Y114916D01*
X384240Y115264D01*
X383880Y115491D01*
X383459Y115563D01*
X383223Y115563D02*
X383459Y115563D01*
X383223Y115563D02*
X382762Y115458D01*
X382392Y115163D01*
X382187Y114737D01*
X382187Y114263D01*
X382392Y113837D01*
X382762Y113542D01*
X383223Y113437D01*
X386943Y116921D02*
X387475Y116921D01*
X383223Y120406D02*
X386412Y120406D01*
X383223Y120406D02*
X382762Y120300D01*
X382392Y120005D01*
X382187Y119579D01*
X382187Y119106D01*
X382392Y118680D01*
X382762Y118385D01*
X383223Y118280D01*
X386412Y118280D02*
X383223Y118280D01*
X386412Y118280D02*
X386873Y118385D01*
X387243Y118680D01*
X387448Y119106D01*
X387448Y119579D01*
X387243Y120005D01*
X386873Y120300D01*
X386412Y120406D01*
X382160Y124303D02*
X386707Y124303D01*
X387091Y124406D01*
X387372Y124687D01*
X387475Y125071D01*
X387475Y126429D02*
X383754Y126429D01*
X382691Y126429D02*
X382160Y126429D01*
X385113Y129913D02*
X384651Y129808D01*
X384282Y129513D01*
X384076Y129087D01*
X384076Y128614D01*
X384282Y128188D01*
X384651Y127893D01*
X385113Y127787D01*
X386412Y127787D01*
X386873Y127893D01*
X387243Y128188D01*
X387448Y128614D01*
X387448Y129087D01*
X387243Y129513D01*
X386873Y129808D01*
X386412Y129913D01*
X385644Y131272D02*
X385644Y133398D01*
X385113Y133398D01*
X384651Y133292D01*
X384282Y132997D01*
X384076Y132571D01*
X384076Y132098D01*
X384282Y131672D01*
X384651Y131377D01*
X385113Y131272D01*
X386412Y131272D01*
X386891Y131386D01*
X387267Y131703D01*
X387461Y132156D01*
X387429Y132647D01*
X387180Y133072D01*
X386766Y133339D01*
X387475Y134756D02*
X383991Y134756D01*
X385113Y136882D02*
X384651Y136777D01*
X384282Y136482D01*
X384076Y136055D01*
X384076Y135582D01*
X384282Y135156D01*
X384651Y134861D01*
X385113Y134756D01*
X385113Y136882D02*
X387475Y136882D01*
X386707Y138240D02*
X387091Y138343D01*
X387372Y138624D01*
X387475Y139008D01*
X387475Y139539D01*
X387383Y139942D01*
X387102Y140245D01*
X386707Y140366D01*
X386412Y140366D01*
X386017Y140245D01*
X385736Y139942D01*
X385644Y139539D01*
X385644Y139008D01*
X383991Y139008D02*
X384101Y138594D01*
X384404Y138292D01*
X384817Y138181D01*
X385231Y138292D01*
X385533Y138594D01*
X385644Y139008D01*
X383991Y139008D02*
X383991Y139539D01*
X384817Y140366D02*
X384404Y140255D01*
X384101Y139953D01*
X383991Y139539D01*
X385644Y141724D02*
X385644Y143850D01*
X385113Y143850D01*
X384651Y143745D01*
X384282Y143450D01*
X384076Y143024D01*
X384076Y142551D01*
X384282Y142125D01*
X384651Y141830D01*
X385113Y141724D01*
X386412Y141724D01*
X386891Y141838D01*
X387267Y142156D01*
X387461Y142608D01*
X387429Y143100D01*
X387180Y143524D01*
X386766Y143791D01*
X7632Y27563D02*
X7734Y27055D01*
X8022Y26624D01*
X8453Y26336D01*
X8961Y26235D01*
X9470Y26336D01*
X9901Y26624D01*
X10189Y27055D01*
X10290Y27563D01*
X10319Y27563D02*
X10319Y30280D01*
X10290Y30280D02*
X10189Y30789D01*
X9901Y31220D01*
X9470Y31508D01*
X8961Y31609D01*
X8453Y31508D01*
X8022Y31220D01*
X7734Y30789D01*
X7632Y30280D01*
X7662Y30280D02*
X7662Y27563D01*
X11678Y29749D02*
X11678Y27327D01*
X11783Y26866D01*
X12078Y26496D01*
X12504Y26291D01*
X12977Y26291D01*
X13403Y26496D01*
X13698Y26866D01*
X13804Y27327D01*
X13804Y29749D02*
X13804Y26264D01*
X15162Y29749D02*
X16756Y29749D01*
X15930Y31579D02*
X15930Y27032D01*
X16051Y26637D01*
X16354Y26356D01*
X16756Y26264D01*
X18115Y24670D02*
X18115Y29749D01*
X18115Y27327D02*
X18220Y26866D01*
X18515Y26496D01*
X18941Y26291D01*
X19414Y26291D01*
X19840Y26496D01*
X20135Y26866D01*
X20241Y27327D01*
X20241Y28626D02*
X20241Y27327D01*
X20241Y28626D02*
X20135Y29088D01*
X19840Y29458D01*
X19414Y29663D01*
X18941Y29663D01*
X18515Y29458D01*
X18220Y29088D01*
X18115Y28626D01*
X21599Y29749D02*
X21599Y27327D01*
X21704Y26866D01*
X21999Y26496D01*
X22425Y26291D01*
X22898Y26291D01*
X23325Y26496D01*
X23620Y26866D01*
X23725Y27327D01*
X23725Y29749D02*
X23725Y26264D01*
X25083Y29749D02*
X26678Y29749D01*
X25851Y31579D02*
X25851Y27032D01*
X25972Y26637D01*
X26275Y26356D01*
X26678Y26264D01*
X30575Y31579D02*
X30575Y26264D01*
X32937Y26264D01*
X36953Y31579D02*
X34296Y31579D01*
X34296Y28922D01*
X36126Y28922D01*
X34296Y28922D02*
X34296Y26264D01*
X36953Y26264D01*
X39611Y26264D02*
X40122Y26354D01*
X40559Y26632D01*
X40857Y27057D01*
X40969Y27563D01*
X39611Y26264D02*
X38312Y26264D01*
X38312Y31579D01*
X39611Y31579D01*
X40969Y30280D02*
X40857Y30786D01*
X40559Y31211D01*
X40122Y31489D01*
X39611Y31579D01*
X40969Y30280D02*
X40969Y27563D01*
X42327Y27032D02*
X42430Y26648D01*
X42711Y26367D01*
X43095Y26264D01*
X43626Y26264D01*
X44029Y26356D01*
X44332Y26637D01*
X44453Y27032D01*
X44453Y27327D01*
X44332Y27722D01*
X44029Y28003D01*
X43626Y28095D01*
X43095Y28095D01*
X43095Y29749D02*
X42682Y29638D01*
X42379Y29335D01*
X42268Y28922D01*
X42379Y28508D01*
X42682Y28206D01*
X43095Y28095D01*
X43095Y29749D02*
X43626Y29749D01*
X44453Y28922D02*
X44342Y29335D01*
X44040Y29638D01*
X43626Y29749D01*
X352549Y341692D02*
X352426Y342257D01*
X352080Y342719D01*
X351573Y342996D01*
X350997Y343037D01*
X350456Y342835D01*
X350048Y342427D01*
X349846Y341886D01*
X349887Y341310D01*
X350164Y340803D01*
X350626Y340457D01*
X351190Y340334D01*
X349891Y338976D02*
X350024Y338427D01*
X350372Y337982D01*
X350874Y337723D01*
X351438Y337695D01*
X351963Y337904D01*
X352353Y338312D01*
X352539Y338846D01*
X352486Y339408D01*
X352204Y339898D01*
X351745Y340226D01*
X351190Y340334D01*
X353907Y341161D02*
X355501Y341161D01*
X354675Y342992D02*
X354675Y338444D01*
X354796Y338050D01*
X355099Y337769D01*
X355501Y337677D01*
X358986Y340039D02*
X358880Y340500D01*
X358585Y340870D01*
X358159Y341075D01*
X357686Y341075D01*
X357260Y340870D01*
X356965Y340500D01*
X356860Y340039D01*
X358159Y339271D02*
X358562Y339363D01*
X358864Y339644D01*
X358986Y340039D01*
X358159Y339271D02*
X357627Y339271D01*
X357627Y339242D02*
X357229Y339135D01*
X356937Y338843D01*
X356830Y338444D01*
X356937Y338046D01*
X357229Y337754D01*
X357627Y337647D01*
X357627Y337677D02*
X358159Y337677D01*
X358562Y337769D01*
X358864Y338050D01*
X358986Y338444D01*
X358986Y340039D02*
X358986Y338208D01*
X359517Y337677D01*
X360875Y341161D02*
X362470Y341161D01*
X361643Y342992D02*
X361643Y338444D01*
X361765Y338050D01*
X362067Y337769D01*
X362470Y337677D01*
X363828Y341161D02*
X363828Y338740D01*
X363934Y338278D01*
X364228Y337909D01*
X364655Y337703D01*
X365128Y337703D01*
X365554Y337909D01*
X365849Y338278D01*
X365954Y338740D01*
X365954Y341161D02*
X365954Y337677D01*
X367312Y338444D02*
X367415Y338061D01*
X367696Y337780D01*
X368080Y337677D01*
X368612Y337677D01*
X369014Y337769D01*
X369317Y338050D01*
X369438Y338444D01*
X369438Y338740D01*
X369317Y339134D01*
X369014Y339415D01*
X368612Y339507D01*
X368080Y339507D01*
X368080Y341161D02*
X367667Y341050D01*
X367364Y340748D01*
X367253Y340334D01*
X367364Y339921D01*
X367667Y339618D01*
X368080Y339507D01*
X368080Y341161D02*
X368612Y341161D01*
X369438Y340334D02*
X369328Y340748D01*
X369025Y341050D01*
X368612Y341161D01*
X373336Y342992D02*
X373336Y337677D01*
X375698Y337677D01*
X379714Y342992D02*
X377057Y342992D01*
X377057Y340334D01*
X378887Y340334D01*
X377057Y340334D02*
X377057Y337677D01*
X379714Y337677D01*
X382372Y337677D02*
X382882Y337766D01*
X383320Y338045D01*
X383617Y338470D01*
X383730Y338976D01*
X382372Y337677D02*
X381072Y337677D01*
X381072Y342992D01*
X382372Y342992D01*
X383730Y341692D02*
X383617Y342199D01*
X383320Y342623D01*
X382882Y342902D01*
X382372Y342992D01*
X383730Y341692D02*
X383730Y338976D01*
X385088Y338444D02*
X385191Y338061D01*
X385472Y337780D01*
X385856Y337677D01*
X386387Y337677D01*
X386790Y337769D01*
X387093Y338050D01*
X387214Y338444D01*
X387214Y338740D01*
X387093Y339134D01*
X386790Y339415D01*
X386387Y339507D01*
X385856Y339507D01*
X385856Y341161D02*
X385442Y341050D01*
X385140Y340748D01*
X385029Y340334D01*
X385140Y339921D01*
X385442Y339618D01*
X385856Y339507D01*
X385856Y341161D02*
X386387Y341161D01*
X387214Y340334D02*
X387103Y340748D01*
X386801Y341050D01*
X386387Y341161D01*
X45698Y99084D02*
X45698Y101742D01*
X46998Y101742D01*
X46998Y101771D02*
X47506Y101872D01*
X47937Y102160D01*
X48225Y102591D01*
X48326Y103100D01*
X48225Y103608D01*
X47937Y104039D01*
X47506Y104327D01*
X46998Y104429D01*
X46998Y104399D02*
X45698Y104399D01*
X45698Y101742D01*
X49714Y102568D02*
X49714Y100147D01*
X49819Y99686D01*
X50114Y99316D01*
X50541Y99111D01*
X51014Y99111D01*
X51440Y99316D01*
X51735Y99686D01*
X51840Y100147D01*
X51840Y102568D02*
X51840Y99084D01*
X53198Y104399D02*
X53198Y99852D01*
X53301Y99468D01*
X53582Y99187D01*
X53966Y99084D01*
X55324Y104399D02*
X55324Y99852D01*
X55427Y99468D01*
X55708Y99187D01*
X56092Y99084D01*
X57450Y102568D02*
X57450Y100147D01*
X57556Y99686D01*
X57851Y99316D01*
X58277Y99111D01*
X58750Y99111D01*
X59176Y99316D01*
X59471Y99686D01*
X59576Y100147D01*
X59576Y102568D02*
X59576Y99084D01*
X60935Y97490D02*
X60935Y102568D01*
X60935Y100147D02*
X61040Y99686D01*
X61335Y99316D01*
X61761Y99111D01*
X62234Y99111D01*
X62660Y99316D01*
X62955Y99686D01*
X63061Y100147D01*
X63061Y101446D02*
X63061Y100147D01*
X63061Y101446D02*
X62955Y101908D01*
X62660Y102277D01*
X62234Y102483D01*
X61761Y102483D01*
X61335Y102277D01*
X61040Y101908D01*
X60935Y101446D01*
X66958Y99084D02*
X66958Y104399D01*
X68789Y100679D01*
X70679Y104399D01*
X70679Y99084D01*
X77057Y98671D02*
X72037Y98671D01*
X79714Y101742D02*
X78415Y101742D01*
X79714Y101771D02*
X80223Y101872D01*
X80654Y102160D01*
X80942Y102591D01*
X81043Y103100D01*
X80942Y103608D01*
X80654Y104039D01*
X80223Y104327D01*
X79714Y104429D01*
X78415Y104399D02*
X79714Y104399D01*
X78415Y99084D02*
X78415Y104399D01*
X79714Y99084D02*
X78415Y99084D01*
X79714Y99055D02*
X80223Y99156D01*
X80654Y99444D01*
X80942Y99875D01*
X81043Y100383D01*
X80942Y100892D01*
X80654Y101323D01*
X80223Y101611D01*
X79714Y101712D01*
X76377Y335777D02*
X76690Y336100D01*
X76842Y336523D01*
X76805Y336971D01*
X76587Y337363D01*
X76226Y337631D01*
X75787Y337726D01*
X74724Y337726D01*
X74263Y337621D01*
X73893Y337326D01*
X73688Y336899D01*
X73688Y336426D01*
X73893Y336000D01*
X74263Y335705D01*
X74724Y335600D01*
X71535Y335600D01*
X71535Y337726D01*
X71535Y339084D02*
X76850Y340383D01*
X71535Y341742D01*
X232209Y333228D02*
X231701Y333127D01*
X231270Y332839D01*
X230982Y332408D01*
X230880Y331899D01*
X230982Y331391D01*
X231270Y330960D01*
X231701Y330672D01*
X232209Y330570D01*
X232209Y330600D02*
X234926Y330600D01*
X234926Y330570D02*
X235434Y330672D01*
X235865Y330960D01*
X236153Y331391D01*
X236254Y331899D01*
X236153Y332408D01*
X235865Y332839D01*
X235434Y333127D01*
X234926Y333228D01*
X234926Y333257D02*
X233567Y333257D01*
X233567Y331899D01*
X236225Y334616D02*
X230910Y334616D01*
X236225Y337273D01*
X230910Y337273D01*
X236225Y339931D02*
X236135Y340441D01*
X235857Y340879D01*
X235432Y341177D01*
X234926Y341289D01*
X236225Y339931D02*
X236225Y338631D01*
X230910Y338631D01*
X230910Y339931D01*
X232209Y341289D02*
X231703Y341177D01*
X231278Y340879D01*
X231000Y340441D01*
X230910Y339931D01*
X232209Y341289D02*
X234926Y341289D01*
X62209Y333853D02*
X61701Y333752D01*
X61270Y333464D01*
X60982Y333033D01*
X60880Y332524D01*
X60982Y332016D01*
X61270Y331585D01*
X61701Y331297D01*
X62209Y331195D01*
X62209Y331225D02*
X64926Y331225D01*
X64926Y331195D02*
X65434Y331297D01*
X65865Y331585D01*
X66153Y332016D01*
X66254Y332524D01*
X66153Y333033D01*
X65865Y333464D01*
X65434Y333752D01*
X64926Y333853D01*
X64926Y333882D02*
X63567Y333882D01*
X63567Y332524D01*
X66225Y335241D02*
X60910Y335241D01*
X66225Y337898D01*
X60910Y337898D01*
X66225Y340556D02*
X66135Y341066D01*
X65857Y341504D01*
X65432Y341802D01*
X64926Y341914D01*
X66225Y340556D02*
X66225Y339256D01*
X60910Y339256D01*
X60910Y340556D01*
X62209Y341914D02*
X61703Y341802D01*
X61278Y341504D01*
X61000Y341066D01*
X60910Y340556D01*
X62209Y341914D02*
X64926Y341914D01*
X323056Y198085D02*
X322954Y198594D01*
X322666Y199025D01*
X322235Y199313D01*
X321727Y199414D01*
X321218Y199313D01*
X320787Y199025D01*
X320499Y198594D01*
X320398Y198085D01*
X320428Y198085D02*
X320428Y195369D01*
X320398Y195369D02*
X320499Y194860D01*
X320787Y194429D01*
X321218Y194141D01*
X321727Y194040D01*
X322235Y194141D01*
X322666Y194429D01*
X322954Y194860D01*
X323056Y195369D01*
X323085Y195369D02*
X323085Y196727D01*
X321727Y196727D01*
X324443Y194069D02*
X324443Y199384D01*
X327101Y194069D01*
X327101Y199384D01*
X329758Y194069D02*
X330269Y194159D01*
X330707Y194438D01*
X331004Y194862D01*
X331117Y195369D01*
X329758Y194069D02*
X328459Y194069D01*
X328459Y199384D01*
X329758Y199384D01*
X331117Y198085D02*
X331004Y198591D01*
X330707Y199016D01*
X330269Y199295D01*
X329758Y199384D01*
X331117Y198085D02*
X331117Y195369D01*
X368331Y371481D02*
X368331Y376796D01*
X369630Y376796D01*
X369630Y374168D02*
X370139Y374269D01*
X370570Y374557D01*
X370858Y374988D01*
X370959Y375497D01*
X370858Y376005D01*
X370570Y376436D01*
X370139Y376724D01*
X369630Y376825D01*
X369630Y374138D02*
X368331Y374138D01*
X369630Y374138D02*
X370989Y371481D01*
X372347Y373312D02*
X374473Y373312D01*
X374473Y373843D01*
X374368Y374304D01*
X374073Y374674D01*
X373646Y374879D01*
X373173Y374879D01*
X372747Y374674D01*
X372452Y374304D01*
X372347Y373843D01*
X372347Y372544D01*
X372461Y372065D01*
X372778Y371688D01*
X373231Y371495D01*
X373722Y371527D01*
X374147Y371776D01*
X374414Y372189D01*
X375831Y372249D02*
X375934Y371865D01*
X376215Y371584D01*
X376599Y371481D01*
X377130Y371481D01*
X377533Y371573D01*
X377836Y371854D01*
X377957Y372249D01*
X377957Y372544D01*
X377836Y372939D01*
X377533Y373220D01*
X377130Y373312D01*
X376599Y373312D01*
X376599Y374965D02*
X376186Y374854D01*
X375883Y374552D01*
X375772Y374138D01*
X375883Y373725D01*
X376186Y373422D01*
X376599Y373312D01*
X376599Y374965D02*
X377130Y374965D01*
X377957Y374138D02*
X377846Y374552D01*
X377544Y374854D01*
X377130Y374965D01*
X379315Y373312D02*
X381441Y373312D01*
X381441Y373843D01*
X381336Y374304D01*
X381041Y374674D01*
X380615Y374879D01*
X380142Y374879D01*
X379716Y374674D01*
X379421Y374304D01*
X379315Y373843D01*
X379315Y372544D01*
X379429Y372065D01*
X379747Y371688D01*
X380200Y371495D01*
X380691Y371527D01*
X381115Y371776D01*
X381382Y372189D01*
X382800Y374965D02*
X384394Y374965D01*
X383567Y376796D02*
X383567Y372249D01*
X383689Y371854D01*
X383992Y371573D01*
X384394Y371481D01*
X324064Y365807D02*
X324387Y365494D01*
X324810Y365342D01*
X325258Y365379D01*
X325651Y365597D01*
X325918Y365958D01*
X326013Y366397D01*
X326013Y367460D01*
X325908Y367921D01*
X325613Y368291D01*
X325187Y368496D01*
X324714Y368496D01*
X324288Y368291D01*
X323993Y367921D01*
X323887Y367460D01*
X323887Y370649D01*
X326013Y370649D01*
X327372Y370649D02*
X328671Y365334D01*
X330029Y370649D01*
X34448Y350147D02*
X35511Y351210D01*
X35511Y345895D01*
X242263Y350738D02*
X242158Y351199D01*
X241863Y351569D01*
X241437Y351774D01*
X240964Y351774D01*
X240538Y351569D01*
X240243Y351199D01*
X240137Y350738D01*
X242263Y350738D02*
X240137Y346486D01*
X242263Y346486D01*
X245748Y350738D02*
X245748Y347549D01*
X245748Y350738D02*
X245642Y351199D01*
X245347Y351569D01*
X244921Y351774D01*
X244448Y351774D01*
X244022Y351569D01*
X243727Y351199D01*
X243622Y350738D01*
X243622Y347549D02*
X243622Y350738D01*
X243622Y347549D02*
X243727Y347087D01*
X244022Y346718D01*
X244448Y346512D01*
X244921Y346512D01*
X245347Y346718D01*
X245642Y347087D01*
X245748Y347549D01*
X85725Y3764D02*
X87556Y9079D01*
X89446Y3764D01*
X86257Y5359D02*
X88914Y5359D01*
X90804Y7249D02*
X92399Y7249D01*
X91572Y9079D02*
X91572Y4532D01*
X91693Y4137D01*
X91996Y3856D01*
X92399Y3764D01*
X93757Y7249D02*
X95351Y7249D01*
X94525Y9079D02*
X94525Y4532D01*
X94646Y4137D01*
X94949Y3856D01*
X95351Y3764D01*
X96710Y5595D02*
X98836Y5595D01*
X98836Y6126D01*
X98730Y6588D01*
X98435Y6958D01*
X98009Y7163D01*
X97536Y7163D01*
X97110Y6958D01*
X96815Y6588D01*
X96710Y6126D01*
X96710Y4827D01*
X96824Y4348D01*
X97141Y3972D01*
X97594Y3779D01*
X98085Y3810D01*
X98510Y4059D01*
X98777Y4473D01*
X100194Y3764D02*
X100194Y7249D01*
X102320Y6126D02*
X102215Y6588D01*
X101920Y6958D01*
X101493Y7163D01*
X101020Y7163D01*
X100594Y6958D01*
X100299Y6588D01*
X100194Y6126D01*
X102320Y6126D02*
X102320Y3764D01*
X103678Y7249D02*
X105273Y7249D01*
X104446Y9079D02*
X104446Y4532D01*
X104567Y4137D01*
X104870Y3856D01*
X105273Y3764D01*
X106631Y3764D02*
X106631Y7485D01*
X106631Y8548D02*
X106631Y9079D01*
X110115Y6126D02*
X110115Y4827D01*
X110115Y6126D02*
X110010Y6588D01*
X109715Y6958D01*
X109289Y7163D01*
X108816Y7163D01*
X108389Y6958D01*
X108094Y6588D01*
X107989Y6126D01*
X107989Y4827D02*
X107989Y6126D01*
X107989Y4827D02*
X108094Y4366D01*
X108389Y3996D01*
X108816Y3791D01*
X109289Y3791D01*
X109715Y3996D01*
X110010Y4366D01*
X110115Y4827D01*
X111473Y3764D02*
X111473Y7249D01*
X113599Y6126D02*
X113494Y6588D01*
X113199Y6958D01*
X112773Y7163D01*
X112300Y7163D01*
X111874Y6958D01*
X111579Y6588D01*
X111473Y6126D01*
X113599Y6126D02*
X113599Y3764D01*
X114958Y9079D02*
X114958Y5595D01*
X114958Y4532D02*
X114958Y3764D01*
X118855Y3764D02*
X118855Y9079D01*
X121513Y3764D01*
X121513Y9079D01*
X124997Y6126D02*
X124997Y4827D01*
X124997Y6126D02*
X124892Y6588D01*
X124597Y6958D01*
X124171Y7163D01*
X123698Y7163D01*
X123271Y6958D01*
X122976Y6588D01*
X122871Y6126D01*
X122871Y4827D02*
X122871Y6126D01*
X122871Y4827D02*
X122976Y4366D01*
X123271Y3996D01*
X123698Y3791D01*
X124171Y3791D01*
X124597Y3996D01*
X124892Y4366D01*
X124997Y4827D01*
X128895Y3764D02*
X128895Y9079D01*
X131021Y6126D02*
X130915Y6588D01*
X130620Y6958D01*
X130194Y7163D01*
X129721Y7163D01*
X129295Y6958D01*
X129000Y6588D01*
X128895Y6126D01*
X131021Y6126D02*
X131021Y3764D01*
X132379Y3764D02*
X132379Y7485D01*
X132379Y8548D02*
X132379Y9079D01*
X133796Y2878D02*
X134063Y2465D01*
X134488Y2215D01*
X134979Y2184D01*
X135432Y2377D01*
X135749Y2754D01*
X135863Y3233D01*
X135863Y6126D01*
X135758Y6588D01*
X135463Y6958D01*
X135037Y7163D01*
X134564Y7163D01*
X134137Y6958D01*
X133842Y6588D01*
X133737Y6126D01*
X133737Y4827D01*
X133842Y4366D01*
X134137Y3996D01*
X134564Y3791D01*
X135037Y3791D01*
X135463Y3996D01*
X135758Y4366D01*
X135863Y4827D01*
X137221Y3764D02*
X137221Y9079D01*
X139347Y6126D02*
X139242Y6588D01*
X138947Y6958D01*
X138521Y7163D01*
X138048Y7163D01*
X137622Y6958D01*
X137327Y6588D01*
X137221Y6126D01*
X139347Y6126D02*
X139347Y3764D01*
X143245Y7249D02*
X144544Y3764D01*
X145903Y7249D01*
X149387Y6126D02*
X149387Y4827D01*
X149387Y6126D02*
X149282Y6588D01*
X148987Y6958D01*
X148560Y7163D01*
X148087Y7163D01*
X147661Y6958D01*
X147366Y6588D01*
X147261Y6126D01*
X147261Y4827D02*
X147261Y6126D01*
X147261Y4827D02*
X147366Y4366D01*
X147661Y3996D01*
X148087Y3791D01*
X148560Y3791D01*
X148987Y3996D01*
X149282Y4366D01*
X149387Y4827D01*
X150745Y9079D02*
X150745Y4532D01*
X150848Y4148D01*
X151129Y3867D01*
X151513Y3764D01*
X152871Y7249D02*
X154466Y7249D01*
X153639Y9079D02*
X153639Y4532D01*
X153760Y4137D01*
X154063Y3856D01*
X154466Y3764D01*
X157950Y6126D02*
X157845Y6588D01*
X157550Y6958D01*
X157123Y7163D01*
X156650Y7163D01*
X156224Y6958D01*
X155929Y6588D01*
X155824Y6126D01*
X157123Y5359D02*
X157526Y5451D01*
X157828Y5732D01*
X157950Y6126D01*
X157123Y5359D02*
X156592Y5359D01*
X156592Y5329D02*
X156193Y5222D01*
X155901Y4931D01*
X155794Y4532D01*
X155901Y4133D01*
X156193Y3842D01*
X156592Y3735D01*
X156592Y3764D02*
X157123Y3764D01*
X157526Y3856D01*
X157828Y4137D01*
X157950Y4532D01*
X157950Y6126D02*
X157950Y4296D01*
X158481Y3764D01*
X159899Y2878D02*
X160166Y2465D01*
X160590Y2215D01*
X161081Y2184D01*
X161534Y2377D01*
X161852Y2754D01*
X161966Y3233D01*
X161966Y6126D01*
X161860Y6588D01*
X161565Y6958D01*
X161139Y7163D01*
X160666Y7163D01*
X160240Y6958D01*
X159945Y6588D01*
X159840Y6126D01*
X159840Y4827D01*
X159945Y4366D01*
X160240Y3996D01*
X160666Y3791D01*
X161139Y3791D01*
X161565Y3996D01*
X161860Y4366D01*
X161966Y4827D01*
X163324Y5595D02*
X165450Y5595D01*
X165450Y6126D01*
X165345Y6588D01*
X165050Y6958D01*
X164623Y7163D01*
X164150Y7163D01*
X163724Y6958D01*
X163429Y6588D01*
X163324Y6126D01*
X163324Y4827D01*
X163438Y4348D01*
X163755Y3972D01*
X164208Y3779D01*
X164699Y3810D01*
X165124Y4059D01*
X165391Y4473D01*
X27957Y88845D02*
X25300Y88845D01*
X25300Y90145D01*
X25270Y90145D02*
X25169Y90653D01*
X24881Y91084D01*
X24450Y91372D01*
X23941Y91473D01*
X23433Y91372D01*
X23002Y91084D01*
X22714Y90653D01*
X22613Y90145D01*
X22642Y90145D02*
X22642Y88845D01*
X25300Y88845D01*
X22642Y92861D02*
X27957Y94160D01*
X22642Y95519D01*
X27957Y96877D01*
X22642Y98176D01*
X27957Y99534D02*
X22642Y99534D01*
X26363Y101365D01*
X22642Y103255D01*
X27957Y103255D01*
X27957Y107153D02*
X22642Y107153D01*
X22642Y108452D01*
X25270Y108452D02*
X25169Y108960D01*
X24881Y109391D01*
X24450Y109679D01*
X23941Y109781D01*
X23433Y109679D01*
X23002Y109391D01*
X22714Y108960D01*
X22613Y108452D01*
X25300Y108452D02*
X25300Y107153D01*
X25300Y108452D02*
X27957Y109810D01*
X22642Y113826D02*
X26658Y113826D01*
X26658Y111139D02*
X27166Y111240D01*
X27598Y111528D01*
X27886Y111959D01*
X27987Y112468D01*
X27886Y112976D01*
X27598Y113407D01*
X27166Y113695D01*
X26658Y113796D01*
X22642Y116779D02*
X26658Y115184D01*
X26658Y117310D01*
X25595Y116779D02*
X27957Y116779D01*
X27485Y118845D02*
X27797Y119168D01*
X27949Y119591D01*
X27913Y120039D01*
X27694Y120432D01*
X27333Y120699D01*
X26894Y120794D01*
X25831Y120794D01*
X25370Y120689D01*
X25000Y120394D01*
X24795Y119968D01*
X24795Y119495D01*
X25000Y119069D01*
X25370Y118774D01*
X25831Y118668D01*
X22642Y118668D01*
X22642Y120794D01*
X22642Y124515D02*
X27957Y122153D01*
X27957Y125873D02*
X25300Y125873D01*
X25300Y127172D01*
X25270Y127172D02*
X25169Y127681D01*
X24881Y128112D01*
X24450Y128400D01*
X23941Y128501D01*
X23433Y128400D01*
X23002Y128112D01*
X22714Y127681D01*
X22613Y127172D01*
X22642Y127172D02*
X22642Y125873D01*
X25300Y125873D01*
X23705Y129889D02*
X22642Y130952D01*
X27957Y130952D01*
G54D16*
X40846Y354399D02*
X45846Y354399D01*
X48346Y351899D01*
X48346Y346899D02*
X45846Y344399D01*
X38346Y351899D02*
X38346Y344399D01*
X40846Y354399D02*
X38346Y351899D01*
X45846Y344399D02*
X38346Y344399D01*
X220846Y354399D02*
X225846Y354399D01*
X228346Y351899D01*
X228346Y346899D01*
X225846Y344399D01*
X208346Y351899D02*
X210846Y354399D01*
X215846Y354399D01*
X218346Y351899D01*
X218346Y346899D01*
X215846Y344399D01*
X210846Y344399D01*
X208346Y346899D01*
X220846Y354399D02*
X218346Y351899D01*
X218346Y346899D02*
X220846Y344399D01*
X225846Y344399D02*
X220846Y344399D01*
X190846Y354399D02*
X195846Y354399D01*
X198346Y351899D01*
X198346Y346899D01*
X195846Y344399D01*
X198346Y351899D02*
X200846Y354399D01*
X205846Y354399D01*
X208346Y351899D01*
X208346Y346899D01*
X205846Y344399D01*
X200846Y344399D01*
X198346Y346899D01*
X178346Y351899D02*
X180846Y354399D01*
X185846Y354399D01*
X188346Y351899D01*
X188346Y346899D01*
X185846Y344399D01*
X180846Y344399D01*
X178346Y346899D01*
X190846Y354399D02*
X188346Y351899D01*
X188346Y346899D02*
X190846Y344399D01*
X195846Y344399D02*
X190846Y344399D01*
X160846Y354399D02*
X165846Y354399D01*
X168346Y351899D01*
X168346Y346899D01*
X165846Y344399D01*
X168346Y351899D02*
X170846Y354399D01*
X175846Y354399D01*
X178346Y351899D01*
X178346Y346899D01*
X175846Y344399D01*
X170846Y344399D01*
X168346Y346899D01*
X148346Y351899D02*
X150846Y354399D01*
X155846Y354399D01*
X158346Y351899D01*
X158346Y346899D01*
X155846Y344399D01*
X150846Y344399D01*
X148346Y346899D01*
X160846Y354399D02*
X158346Y351899D01*
X158346Y346899D02*
X160846Y344399D01*
X165846Y344399D02*
X160846Y344399D01*
X130846Y354399D02*
X135846Y354399D01*
X138346Y351899D01*
X138346Y346899D01*
X135846Y344399D01*
X138346Y351899D02*
X140846Y354399D01*
X145846Y354399D01*
X148346Y351899D01*
X148346Y346899D01*
X145846Y344399D01*
X140846Y344399D01*
X138346Y346899D01*
X118346Y351899D02*
X120846Y354399D01*
X125846Y354399D01*
X128346Y351899D01*
X128346Y346899D01*
X125846Y344399D01*
X120846Y344399D01*
X118346Y346899D01*
X130846Y354399D02*
X128346Y351899D01*
X128346Y346899D02*
X130846Y344399D01*
X135846Y344399D02*
X130846Y344399D01*
X100846Y354399D02*
X105846Y354399D01*
X108346Y351899D01*
X108346Y346899D01*
X105846Y344399D01*
X108346Y351899D02*
X110846Y354399D01*
X115846Y354399D01*
X118346Y351899D01*
X118346Y346899D01*
X115846Y344399D01*
X110846Y344399D01*
X108346Y346899D01*
X88346Y351899D02*
X90846Y354399D01*
X95846Y354399D01*
X98346Y351899D01*
X98346Y346899D01*
X95846Y344399D01*
X90846Y344399D01*
X88346Y346899D01*
X100846Y354399D02*
X98346Y351899D01*
X98346Y346899D02*
X100846Y344399D01*
X105846Y344399D02*
X100846Y344399D01*
X70846Y354399D02*
X75846Y354399D01*
X78346Y351899D01*
X78346Y346899D01*
X75846Y344399D01*
X78346Y351899D02*
X80846Y354399D01*
X85846Y354399D01*
X88346Y351899D01*
X88346Y346899D01*
X85846Y344399D01*
X80846Y344399D01*
X78346Y346899D01*
X58346Y351899D02*
X60846Y354399D01*
X65846Y354399D01*
X68346Y351899D01*
X68346Y346899D01*
X65846Y344399D01*
X60846Y344399D01*
X58346Y346899D01*
X70846Y354399D02*
X68346Y351899D01*
X68346Y346899D02*
X70846Y344399D01*
X75846Y344399D02*
X70846Y344399D01*
X48346Y351899D02*
X48346Y346899D01*
X48346Y351899D02*
X50846Y354399D01*
X55846Y354399D01*
X58346Y351899D01*
X58346Y346899D01*
X55846Y344399D01*
X50846Y344399D01*
X48346Y346899D01*
X230846Y354399D02*
X235846Y354399D01*
X238346Y351899D01*
X238346Y346899D01*
X235846Y344399D01*
X230846Y354399D02*
X228346Y351899D01*
X228346Y346899D02*
X230846Y344399D01*
X235846Y344399D02*
X230846Y344399D01*
X227461Y343160D02*
X227461Y327160D01*
X219861Y327160D01*
X219861Y343160D01*
X227461Y343160D02*
X219861Y343160D01*
X206988Y343553D02*
X206988Y327553D01*
X199388Y327553D01*
X199388Y343553D01*
X206988Y343553D02*
X199388Y343553D01*
X335866Y280108D02*
X335866Y232864D01*
X381929Y232864D01*
X381929Y280108D01*
X335866Y280108D01*
X370708Y256486D02*
X370563Y258333D01*
X370130Y260136D01*
X369421Y261848D01*
X368452Y263428D01*
X367249Y264837D01*
X365839Y266041D01*
X364259Y267009D01*
X362547Y267719D01*
X360745Y268151D01*
X358897Y268297D01*
X357049Y268151D01*
X355247Y267719D01*
X353535Y267009D01*
X351955Y266041D01*
X350545Y264837D01*
X349342Y263428D01*
X348373Y261848D01*
X347664Y260136D01*
X347232Y258333D01*
X347086Y256486D01*
X347232Y254638D01*
X347664Y252836D01*
X348373Y251124D01*
X349342Y249543D01*
X350545Y248134D01*
X351955Y246930D01*
X353535Y245962D01*
X355247Y245253D01*
X357049Y244820D01*
X358897Y244675D01*
X360745Y244820D01*
X362547Y245253D01*
X364259Y245962D01*
X365839Y246930D01*
X367249Y248134D01*
X368452Y249543D01*
X369421Y251124D01*
X370130Y252836D01*
X370563Y254638D01*
X370708Y256486D01*
X367755Y256486D02*
X367613Y258067D01*
X367191Y259598D01*
X366502Y261029D01*
X365568Y262314D01*
X364420Y263411D01*
X363095Y264286D01*
X361634Y264910D01*
X360086Y265264D01*
X358500Y265335D01*
X356926Y265122D01*
X355416Y264631D01*
X354017Y263879D01*
X352776Y262888D01*
X351731Y261692D01*
X350916Y260329D01*
X350358Y258842D01*
X350075Y257280D01*
X350075Y255692D01*
X350358Y254129D01*
X350916Y252642D01*
X351731Y251279D01*
X352776Y250083D01*
X354017Y249093D01*
X355416Y248340D01*
X356926Y247850D01*
X358500Y247636D01*
X360086Y247708D01*
X361635Y248061D01*
X363095Y248685D01*
X364420Y249560D01*
X365568Y250658D01*
X366502Y251942D01*
X367191Y253373D01*
X367613Y254904D01*
X367755Y256486D01*
X362647Y263572D02*
X362647Y249399D01*
X341318Y314202D02*
X336318Y314202D01*
X341385Y314065D02*
X342504Y314769D01*
X343438Y315704D01*
X344141Y316824D01*
X344577Y318072D01*
X344724Y319386D01*
X344575Y320700D01*
X344138Y321947D01*
X343435Y323067D01*
X342500Y324001D01*
X341380Y324704D01*
X340132Y325141D01*
X338818Y325289D01*
X337505Y325141D01*
X336257Y324704D01*
X335137Y324001D01*
X334202Y323067D01*
X333499Y321947D01*
X333061Y320700D01*
X332913Y319386D01*
X333060Y318072D01*
X333496Y316824D01*
X334199Y315704D01*
X335133Y314769D01*
X336252Y314065D01*
X354901Y314202D02*
X349901Y314202D01*
X354968Y314065D02*
X356086Y314769D01*
X357021Y315704D01*
X357723Y316824D01*
X358159Y318072D01*
X358307Y319386D01*
X358158Y320700D01*
X357721Y321947D01*
X357017Y323067D01*
X356082Y324001D01*
X354963Y324704D01*
X353715Y325141D01*
X352401Y325289D01*
X351087Y325141D01*
X349839Y324704D01*
X348720Y324001D01*
X347785Y323067D01*
X347081Y321947D01*
X346644Y320700D01*
X346496Y319386D01*
X346643Y318072D01*
X347079Y316824D01*
X347782Y315704D01*
X348716Y314769D01*
X349835Y314065D01*
X368681Y314202D02*
X363681Y314202D01*
X368747Y314065D02*
X369866Y314769D01*
X370800Y315704D01*
X371503Y316824D01*
X371939Y318072D01*
X372086Y319386D01*
X371938Y320700D01*
X371500Y321947D01*
X370797Y323067D01*
X369862Y324001D01*
X368742Y324704D01*
X367494Y325141D01*
X366181Y325289D01*
X364867Y325141D01*
X363619Y324704D01*
X362499Y324001D01*
X361564Y323067D01*
X360861Y321947D01*
X360424Y320700D01*
X360275Y319386D01*
X360422Y318072D01*
X360858Y316824D01*
X361561Y315704D01*
X362495Y314769D01*
X363614Y314065D01*
X382460Y314202D02*
X377460Y314202D01*
X382527Y314065D02*
X383646Y314769D01*
X384580Y315704D01*
X385282Y316824D01*
X385718Y318072D01*
X385866Y319386D01*
X385717Y320700D01*
X385280Y321947D01*
X384576Y323067D01*
X383641Y324001D01*
X382522Y324704D01*
X381274Y325141D01*
X379960Y325289D01*
X378646Y325141D01*
X377399Y324704D01*
X376279Y324001D01*
X375344Y323067D01*
X374640Y321947D01*
X374203Y320700D01*
X374055Y319386D01*
X374202Y318072D01*
X374638Y316824D01*
X375341Y315704D01*
X376275Y314769D01*
X377394Y314065D01*
X374488Y293946D02*
X374488Y298946D01*
X374350Y293880D02*
X375054Y292761D01*
X375990Y291827D01*
X377110Y291124D01*
X378358Y290688D01*
X379672Y290541D01*
X380985Y290689D01*
X382233Y291127D01*
X383352Y291830D01*
X384287Y292765D01*
X384990Y293885D01*
X385426Y295133D01*
X385574Y296446D01*
X385426Y297760D01*
X384990Y299008D01*
X384287Y300127D01*
X383352Y301062D01*
X382233Y301766D01*
X380985Y302203D01*
X379672Y302352D01*
X378358Y302204D01*
X377110Y301769D01*
X375990Y301066D01*
X375054Y300132D01*
X374350Y299013D01*
X152735Y239300D02*
X152735Y255300D01*
X160335Y255300D01*
X160335Y239300D01*
X152735Y239300D02*
X160335Y239300D01*
X142302Y229261D02*
X142302Y245261D01*
X149902Y245261D01*
X149902Y229261D01*
X142302Y229261D02*
X149902Y229261D01*
X151554Y288906D02*
X151554Y304906D01*
X159154Y304906D01*
X159154Y288906D01*
X151554Y288906D02*
X159154Y288906D01*
X140059Y324459D02*
X140059Y308459D01*
X132459Y308459D01*
X132459Y324459D01*
X140059Y324459D02*
X132459Y324459D01*
X83366Y243160D02*
X83366Y227160D01*
X75766Y227160D01*
X75766Y243160D01*
X83366Y243160D02*
X75766Y243160D01*
X109744Y245719D02*
X109744Y229719D01*
X102144Y229719D01*
X102144Y245719D01*
X109744Y245719D02*
X102144Y245719D01*
X110729Y290010D02*
X110729Y274010D01*
X103129Y274010D01*
X103129Y290010D01*
X110729Y290010D02*
X103129Y290010D01*
X75766Y249733D02*
X75766Y265733D01*
X83366Y265733D01*
X83366Y249733D01*
X75766Y249733D02*
X83366Y249733D01*
X83563Y288042D02*
X83563Y272042D01*
X75963Y272042D01*
X75963Y288042D01*
X83563Y288042D02*
X75963Y288042D01*
X75963Y293434D02*
X75963Y309434D01*
X83563Y309434D01*
X83563Y293434D01*
X75963Y293434D02*
X83563Y293434D01*
X34389Y70434D02*
X39704Y70434D01*
X34389Y64429D02*
X34389Y72696D01*
X39704Y72696D01*
X39704Y64429D01*
X34389Y64429D02*
X39704Y64429D01*
X22972Y70434D02*
X28287Y70434D01*
X22972Y64429D02*
X22972Y72696D01*
X28287Y72696D01*
X28287Y64429D01*
X22972Y64429D02*
X28287Y64429D01*
X10767Y70434D02*
X16082Y70434D01*
X10767Y64429D02*
X10767Y72696D01*
X16082Y72696D01*
X16082Y64429D01*
X10767Y64429D02*
X16082Y64429D01*
X361062Y208257D02*
X366574Y208257D01*
X366574Y196446D01*
X361062Y196446D01*
X361062Y208257D01*
X351554Y217963D02*
X367554Y217963D01*
X367554Y210363D01*
X351554Y210363D01*
X351554Y217963D02*
X351554Y210363D01*
X51220Y42017D02*
X75629Y42017D01*
X75629Y66427D01*
X51220Y66427D01*
X51220Y42017D01*
X106338Y42017D02*
X130748Y42017D01*
X130748Y66427D01*
X106338Y66427D01*
X106338Y42017D01*
X161259Y42017D02*
X185669Y42017D01*
X185669Y66427D01*
X161259Y66427D01*
X161259Y42017D01*
X216181Y42017D02*
X240590Y42017D01*
X240590Y66427D01*
X216181Y66427D01*
X216181Y42017D01*
X352795Y108946D02*
X377204Y108946D01*
X377204Y133356D01*
X352795Y133356D01*
X352795Y108946D01*
X352795Y153828D02*
X377204Y153828D01*
X377204Y178238D01*
X352795Y178238D01*
X352795Y153828D01*
X292952Y42017D02*
X317362Y42017D01*
X317362Y66427D01*
X292952Y66427D01*
X292952Y42017D01*
X322480Y12490D02*
X346889Y12490D01*
X346889Y36899D01*
X322480Y36899D01*
X322480Y12490D01*
X352007Y42017D02*
X376417Y42017D01*
X376417Y66427D01*
X352007Y66427D01*
X352007Y42017D01*
X322480Y71545D02*
X346889Y71545D01*
X346889Y95954D01*
X322480Y95954D01*
X322480Y71545D01*
X374744Y346250D02*
X374744Y370659D01*
X350334Y370659D01*
X350334Y346250D01*
X374744Y346250D01*
X236003Y202489D02*
X236003Y218489D01*
X243603Y218489D01*
X243603Y202489D01*
X236003Y202489D02*
X243603Y202489D01*
X237184Y252883D02*
X237184Y268883D01*
X244784Y268883D01*
X244784Y252883D01*
X237184Y252883D02*
X244784Y252883D01*
X225886Y291191D02*
X225886Y275191D01*
X218286Y275191D01*
X218286Y291191D01*
X225886Y291191D02*
X218286Y291191D01*
X26280Y243750D02*
X26280Y227750D01*
X18680Y227750D01*
X18680Y243750D01*
X26280Y243750D02*
X18680Y243750D01*
X52264Y245719D02*
X52264Y229719D01*
X44664Y229719D01*
X44664Y245719D01*
X52264Y245719D02*
X44664Y245719D01*
X52264Y290010D02*
X52264Y274010D01*
X44664Y274010D01*
X44664Y290010D01*
X52264Y290010D02*
X44664Y290010D01*
X18680Y248946D02*
X18680Y264946D01*
X26280Y264946D01*
X26280Y248946D01*
X18680Y248946D02*
X26280Y248946D01*
X26280Y288829D02*
X26280Y272829D01*
X18680Y272829D01*
X18680Y288829D01*
X26280Y288829D02*
X18680Y288829D01*
X18680Y293827D02*
X18680Y309827D01*
X26280Y309827D01*
X26280Y293827D01*
X18680Y293827D02*
X26280Y293827D01*
X56595Y138042D02*
X56595Y122042D01*
X48995Y122042D01*
X48995Y138042D01*
X56595Y138042D02*
X48995Y138042D01*
X66831Y138042D02*
X66831Y122042D01*
X59231Y122042D01*
X59231Y138042D01*
X66831Y138042D02*
X59231Y138042D01*
X77067Y138042D02*
X77067Y122042D01*
X69467Y122042D01*
X69467Y138042D01*
X77067Y138042D02*
X69467Y138042D01*
X34389Y43465D02*
X39704Y43465D01*
X34389Y37460D02*
X34389Y45728D01*
X39704Y45728D01*
X39704Y37460D01*
X34389Y37460D02*
X39704Y37460D01*
X22972Y43465D02*
X28287Y43465D01*
X22972Y37460D02*
X22972Y45728D01*
X28287Y45728D01*
X28287Y37460D01*
X22972Y37460D02*
X28287Y37460D01*
X10767Y43859D02*
X16082Y43859D01*
X10767Y37854D02*
X10767Y46122D01*
X16082Y46122D01*
X16082Y37854D01*
X10767Y37854D02*
X16082Y37854D01*
X358425Y14616D02*
X358425Y19616D01*
X360925Y22116D01*
X365925Y22116D01*
X368425Y19616D01*
X360925Y12116D02*
X368425Y12116D01*
X358425Y14616D02*
X360925Y12116D01*
X368425Y19616D02*
X368425Y12116D01*
X360925Y22116D02*
X358425Y24616D01*
X358425Y29616D01*
X360925Y32116D01*
X365925Y32116D01*
X368425Y29616D01*
X368425Y24616D01*
X365925Y22116D01*
X32066Y90612D02*
X32066Y106612D01*
X39666Y106612D01*
X39666Y90612D01*
X32066Y90612D02*
X39666Y90612D01*
X45698Y140679D02*
X45698Y107554D01*
X79773Y107554D02*
X45698Y107554D01*
X79773Y107554D02*
X79773Y140679D01*
X45698Y140679D01*
X329975Y336850D02*
X329975Y308725D01*
X388725Y308725D01*
X388725Y336850D01*
X329975Y336850D01*
X7475Y75738D02*
X7475Y33208D01*
X42475Y33208D01*
X42475Y75738D02*
X42475Y33208D01*
X42475Y75738D02*
X7475Y75738D01*
X2475Y85600D02*
X298100Y85600D01*
X298100Y357475D01*
X2475Y357475D02*
X298100Y357475D01*
X44242Y70419D02*
X49557Y70419D01*
X44242Y64414D02*
X44242Y72682D01*
X49557Y72682D01*
X49557Y64414D01*
X44242Y64414D02*
X49557Y64414D01*
X7716Y54714D02*
X42362Y54714D01*
X54566Y79320D02*
X59881Y79320D01*
X65984Y83848D01*
X66771Y79320D02*
X71889Y79320D01*
X349055Y27155D02*
X363425Y27155D01*
X349055Y17116D02*
X349055Y27155D01*
X349055Y17116D02*
X363425Y17116D01*
G54D22*
X54566Y79320D03*
X72480Y79320D03*
G54D25*
X63425Y54222D03*
X118543Y54222D03*
X173464Y54222D03*
X228385Y54222D03*
X365000Y121151D03*
X365000Y166033D03*
X305157Y54222D03*
X334685Y24694D03*
X364212Y54222D03*
X334685Y83750D03*
X362539Y358454D03*
G36*
X143452Y19045D02*
X147231Y19163D01*
X149003Y19281D01*
X148924Y19005D01*
X148885Y18769D01*
X148924Y18572D01*
X148964Y18375D01*
X148531Y18375D01*
X146286Y18375D01*
X142153Y18415D01*
X138964Y18375D01*
X138964Y18572D01*
X144121Y24714D01*
X144948Y25698D01*
X145656Y26525D01*
X146208Y27234D01*
X146641Y27824D01*
X144633Y27824D01*
X141168Y27706D01*
X139672Y27627D01*
X139712Y27903D01*
X139751Y28100D01*
X139712Y28336D01*
X139672Y28533D01*
X140381Y28533D01*
X141011Y28494D01*
X141523Y28494D01*
X141916Y28494D01*
X146798Y28494D01*
X148885Y28533D01*
X149042Y28533D01*
X149042Y28336D01*
X146916Y26013D01*
X142782Y21053D01*
X141286Y19124D01*
X141365Y19045D01*
X142586Y19045D01*
X143452Y19045D01*
D02*G37*
G36*
X151601Y15265D02*
X152428Y16525D01*
X153176Y17706D01*
X153491Y18257D01*
X153570Y18336D01*
X153334Y18848D01*
X149987Y25423D01*
X150578Y25383D01*
X151011Y25383D01*
X151680Y25383D01*
X151798Y24990D01*
X152743Y22982D01*
X154200Y19990D01*
X154357Y19911D01*
X154554Y20265D01*
X155184Y21407D01*
X155853Y22942D01*
X156916Y25423D01*
X157192Y25383D01*
X157468Y25383D01*
X157822Y25383D01*
X158097Y25423D01*
X153924Y17588D01*
X152822Y15265D01*
X152546Y15344D01*
X152271Y15344D01*
X151956Y15344D01*
X151601Y15265D01*
D02*G37*
G36*
X159790Y18730D02*
X159830Y19911D01*
X159948Y25541D01*
X159830Y29084D01*
X159830Y29517D01*
X160027Y29438D01*
X161050Y29438D01*
X161168Y29478D01*
X161286Y29517D01*
X161326Y29438D01*
X161326Y29281D01*
X161326Y29005D01*
X161208Y26407D01*
X161208Y22824D01*
X161247Y22509D01*
X161326Y22312D01*
X161641Y22391D01*
X161995Y22549D01*
X162428Y22824D01*
X162901Y23218D01*
X163964Y24163D01*
X165381Y25383D01*
X165538Y25344D01*
X165932Y25344D01*
X166444Y25344D01*
X166798Y25383D01*
X166798Y25305D01*
X166247Y24911D01*
X165617Y24478D01*
X165302Y24242D01*
X165027Y24045D01*
X164790Y23887D01*
X164633Y23809D01*
X164042Y23375D01*
X162861Y22431D01*
X163255Y22076D01*
X163727Y21604D01*
X164279Y21092D01*
X164869Y20501D01*
X165696Y19753D01*
X166523Y19005D01*
X167034Y18415D01*
X167034Y18336D01*
X166680Y18375D01*
X166168Y18375D01*
X165617Y18375D01*
X165223Y18336D01*
X164712Y18887D01*
X164279Y19320D01*
X163688Y19911D01*
X162782Y20816D01*
X161916Y21643D01*
X161719Y21801D01*
X161562Y21958D01*
X161208Y21958D01*
X161168Y21722D01*
X161168Y21328D01*
X161168Y19911D01*
X161247Y18730D01*
X161247Y18336D01*
X161129Y18375D01*
X160735Y18375D01*
X160420Y18375D01*
X160184Y18375D01*
X159948Y18336D01*
X159790Y18336D01*
X159790Y18730D01*
D02*G37*
G36*
X170460Y25816D02*
X170460Y20029D01*
X170499Y18494D01*
X170499Y18336D01*
X170027Y18375D01*
X169712Y18336D01*
X169397Y18336D01*
X169160Y18336D01*
X169003Y18336D01*
X169003Y18769D01*
X169121Y22234D01*
X169121Y28061D01*
X169082Y29399D01*
X169042Y29517D01*
X169279Y29438D01*
X170381Y29438D01*
X170499Y29438D01*
X170578Y29517D01*
X170578Y29084D01*
X170460Y25816D01*
D02*G37*
G36*
X176090Y25462D02*
X177743Y25501D01*
X176956Y25541D01*
D02*G37*
G36*
X178452Y25344D02*
X177743Y25501D01*
X176090Y25462D01*
D02*G37*
G36*
X175302Y25305D02*
X178452Y25344D01*
X176090Y25462D01*
D02*G37*
G36*
X179082Y25068D02*
X178452Y25344D01*
X175302Y25305D01*
D02*G37*
G36*
X176917Y25029D02*
X179082Y25068D01*
X175302Y25305D01*
D02*G37*
G36*
X174633Y24990D02*
X176917Y25029D01*
X175302Y25305D01*
D02*G37*
G36*
X176405Y24990D02*
X176917Y25029D01*
X174633Y24990D01*
D02*G37*
G36*
X177428Y24990D02*
X179082Y25068D01*
X176917Y25029D01*
D02*G37*
G36*
X175893Y24872D02*
X176405Y24990D01*
X174633Y24990D01*
D02*G37*
G36*
X177901Y24872D02*
X179082Y25068D01*
X177428Y24990D01*
D02*G37*
G36*
X179593Y24714D02*
X179082Y25068D01*
X177901Y24872D01*
D02*G37*
G36*
X178255Y24675D02*
X179593Y24714D01*
X177901Y24872D01*
D02*G37*
G36*
X175499Y24635D02*
X175893Y24872D01*
X174633Y24990D01*
D02*G37*
G36*
X174003Y24557D02*
X175499Y24635D01*
X174633Y24990D01*
D02*G37*
G36*
X178570Y24399D02*
X179593Y24714D01*
X178255Y24675D01*
D02*G37*
G36*
X175145Y24281D02*
X175499Y24635D01*
X174003Y24557D01*
D02*G37*
G36*
X179987Y24281D02*
X179593Y24714D01*
X178570Y24399D01*
D02*G37*
G36*
X178845Y24045D02*
X179987Y24281D01*
X178570Y24399D01*
D02*G37*
G36*
X173531Y24005D02*
X175145Y24281D01*
X174003Y24557D01*
D02*G37*
G36*
X174869Y23927D02*
X175145Y24281D01*
X173531Y24005D01*
D02*G37*
G36*
X180302Y23769D02*
X179987Y24281D01*
X178845Y24045D01*
D02*G37*
G36*
X179003Y23612D02*
X180302Y23769D01*
X178845Y24045D01*
D02*G37*
G36*
X174672Y23494D02*
X174869Y23927D01*
X173531Y24005D01*
D02*G37*
G36*
X173176Y23297D02*
X174672Y23494D01*
X173531Y24005D01*
D02*G37*
G36*
X180499Y23179D02*
X180302Y23769D01*
X179003Y23612D01*
D02*G37*
G36*
X179121Y23100D02*
X180499Y23179D01*
X179003Y23612D01*
D02*G37*
G36*
X174515Y23021D02*
X174672Y23494D01*
X173176Y23297D01*
D02*G37*
G36*
X172979Y22588D02*
X174515Y23021D01*
X173176Y23297D01*
D02*G37*
G36*
X174436Y22509D02*
X174515Y23021D01*
X172979Y22588D01*
D02*G37*
G36*
X179160Y22509D02*
X180499Y23179D01*
X179121Y23100D01*
D02*G37*
G36*
X180617Y22509D02*
X180499Y23179D01*
X179160Y22509D01*
D02*G37*
G36*
X175578Y22470D02*
X175223Y22509D01*
X174436Y22509D01*
D02*G37*
G36*
X177979Y22470D02*
X180617Y22509D01*
X178334Y22509D01*
D02*G37*
G36*
X176916Y21958D02*
X180617Y22509D01*
X177979Y22470D01*
D02*G37*
G36*
X176916Y21958D02*
X177979Y22470D01*
X175578Y22470D01*
D02*G37*
G36*
X176916Y21958D02*
X175578Y22470D01*
X174436Y22509D01*
D02*G37*
G36*
X176916Y21958D02*
X174436Y22509D01*
X172979Y22588D01*
D02*G37*
G36*
X174397Y21919D02*
X176916Y21958D01*
X172979Y22588D01*
D02*G37*
G36*
X180538Y21919D02*
X180617Y22509D01*
X176916Y21958D01*
D02*G37*
G36*
X172901Y21840D02*
X174397Y21919D01*
X172979Y22588D01*
D02*G37*
G36*
X172940Y21250D02*
X174397Y21919D01*
X172901Y21840D01*
D02*G37*
G36*
X174436Y21250D02*
X174397Y21919D01*
X172940Y21250D01*
D02*G37*
G36*
X173058Y20698D02*
X174436Y21250D01*
X172940Y21250D01*
D02*G37*
G36*
X174593Y20620D02*
X174436Y21250D01*
X173058Y20698D01*
D02*G37*
G36*
X173255Y20187D02*
X174593Y20620D01*
X173058Y20698D01*
D02*G37*
G36*
X174869Y20108D02*
X174593Y20620D01*
X173255Y20187D01*
D02*G37*
G36*
X173531Y19753D02*
X174869Y20108D01*
X173255Y20187D01*
D02*G37*
G36*
X179987Y19714D02*
X180263Y19793D01*
X180105Y19753D01*
D02*G37*
G36*
X175223Y19635D02*
X174869Y20108D01*
X173531Y19753D01*
D02*G37*
G36*
X179475Y19360D02*
X180263Y19793D01*
X179987Y19714D01*
D02*G37*
G36*
X175656Y19281D02*
X175223Y19635D01*
X173531Y19753D01*
D02*G37*
G36*
X173964Y19242D02*
X175656Y19281D01*
X173531Y19753D01*
D02*G37*
G36*
X180145Y19045D02*
X180263Y19793D01*
X179475Y19360D01*
D02*G37*
G36*
X180145Y19045D02*
X179475Y19360D01*
X178845Y19045D01*
D02*G37*
G36*
X176208Y19005D02*
X175656Y19281D01*
X173964Y19242D01*
D02*G37*
G36*
X174515Y18848D02*
X176208Y19005D01*
X173964Y19242D01*
D02*G37*
G36*
X176798Y18848D02*
X176208Y19005D01*
X174515Y18848D01*
D02*G37*
G36*
X178176Y18848D02*
X180145Y19045D01*
X178845Y19045D01*
D02*G37*
G36*
X177507Y18809D02*
X176798Y18848D01*
X174515Y18848D01*
D02*G37*
G36*
X179397Y18651D02*
X180145Y19045D01*
X178176Y18848D01*
D02*G37*
G36*
X179397Y18651D02*
X178176Y18848D01*
X177507Y18809D01*
D02*G37*
G36*
X179397Y18651D02*
X177507Y18809D01*
X174515Y18848D01*
D02*G37*
G36*
X175184Y18533D02*
X179397Y18651D01*
X174515Y18848D01*
D02*G37*
G36*
X178649Y18375D02*
X179397Y18651D01*
X175184Y18533D01*
D02*G37*
G36*
X175853Y18336D02*
X178649Y18375D01*
X175184Y18533D01*
D02*G37*
G36*
X176286Y18257D02*
X178649Y18375D01*
X175853Y18336D01*
D02*G37*
G36*
X176680Y18179D02*
X178649Y18375D01*
X176286Y18257D01*
D02*G37*
G36*
X177861Y18179D02*
X178649Y18375D01*
X176680Y18179D01*
D02*G37*
G36*
X176916Y18139D02*
X177861Y18179D01*
X176680Y18179D01*
D02*G37*
G36*
X177074Y18139D02*
X177861Y18179D01*
X176916Y18139D01*
D02*G37*
G36*
X189672Y22627D02*
X189633Y20462D01*
X189672Y19005D01*
X189672Y18454D01*
X189672Y18336D01*
X189318Y18375D01*
X188924Y18375D01*
X188491Y18375D01*
X188176Y18336D01*
X188216Y18612D01*
X188216Y18966D01*
X188255Y19360D01*
X188255Y19596D01*
X188255Y19911D01*
X188294Y20305D01*
X188294Y20738D01*
X188334Y21250D01*
X188334Y21446D01*
X188334Y21761D01*
X188373Y22037D01*
X188373Y22234D01*
X188334Y22746D01*
X188294Y23179D01*
X188216Y23494D01*
X188097Y23730D01*
X187782Y24163D01*
X187349Y24478D01*
X186877Y24675D01*
X186326Y24753D01*
X185656Y24675D01*
X185145Y24517D01*
X184672Y24242D01*
X184357Y23848D01*
X184200Y23454D01*
X184042Y22982D01*
X184003Y22431D01*
X183964Y21761D01*
X183964Y19320D01*
X184003Y18415D01*
X184003Y18336D01*
X183609Y18375D01*
X183294Y18375D01*
X182861Y18375D01*
X182586Y18336D01*
X182586Y18690D01*
X182625Y19163D01*
X182664Y20108D01*
X182704Y20935D01*
X182704Y21683D01*
X182704Y22273D01*
X182704Y22785D01*
X182704Y23061D01*
X182704Y23375D01*
X182704Y23769D01*
X182664Y24242D01*
X182664Y24438D01*
X182664Y24714D01*
X182625Y25029D01*
X182625Y25423D01*
X182979Y25383D01*
X183334Y25383D01*
X183727Y25383D01*
X184003Y25423D01*
X184003Y25068D01*
X183964Y24596D01*
X183964Y24202D01*
X183964Y24084D01*
X184239Y24399D01*
X184515Y24675D01*
X184869Y24950D01*
X185184Y25147D01*
X185578Y25305D01*
X185971Y25423D01*
X186405Y25462D01*
X186838Y25501D01*
X187546Y25462D01*
X188137Y25305D01*
X188649Y25068D01*
X189082Y24753D01*
X189279Y24517D01*
X189436Y24281D01*
X189515Y24045D01*
X189593Y23848D01*
X189633Y23572D01*
X189672Y23297D01*
X189672Y22982D01*
X189672Y22627D01*
D02*G37*
G36*
X196641Y26801D02*
X197231Y28769D01*
X196877Y28769D01*
D02*G37*
G36*
X194712Y22942D02*
X196641Y26801D01*
X196877Y28769D01*
D02*G37*
G36*
X198610Y22942D02*
X197231Y28769D01*
X196641Y26801D01*
D02*G37*
G36*
X196759Y22391D02*
X198610Y22942D01*
X194712Y22942D01*
D02*G37*
G36*
X194357Y22312D02*
X196759Y22391D01*
X194712Y22942D01*
D02*G37*
G36*
X194357Y22312D02*
X194712Y22942D01*
X196877Y28769D01*
D02*G37*
G36*
X198885Y22312D02*
X198610Y22942D01*
X196759Y22391D01*
D02*G37*
G36*
X198885Y22312D02*
X197231Y28769D01*
X198610Y22942D01*
D02*G37*
G36*
X194042Y21643D02*
X194357Y22312D01*
X196877Y28769D01*
D02*G37*
G36*
X193767Y21013D02*
X194042Y21643D01*
X196877Y28769D01*
D02*G37*
G36*
X199751Y20541D02*
X197231Y28769D01*
X198885Y22312D01*
D02*G37*
G36*
X193491Y20462D02*
X193767Y21013D01*
X196877Y28769D01*
D02*G37*
G36*
X193255Y19911D02*
X193491Y20462D01*
X196877Y28769D01*
D02*G37*
G36*
X193058Y19438D02*
X193255Y19911D01*
X196877Y28769D01*
D02*G37*
G36*
X192861Y19045D02*
X193058Y19438D01*
X196877Y28769D01*
D02*G37*
G36*
X202271Y18887D02*
X197231Y28769D01*
X199751Y20541D01*
D02*G37*
G36*
X200538Y18769D02*
X202271Y18887D01*
X199751Y20541D01*
D02*G37*
G36*
X191719Y18375D02*
X192743Y18651D01*
X192861Y19045D01*
D02*G37*
G36*
X191719Y18375D02*
X192861Y19045D01*
X196877Y28769D01*
D02*G37*
G36*
X192349Y18375D02*
X192743Y18651D01*
X191719Y18375D01*
D02*G37*
G36*
X201129Y18375D02*
X202271Y18887D01*
X200538Y18769D01*
D02*G37*
G36*
X202074Y18375D02*
X202271Y18887D01*
X201129Y18375D01*
D02*G37*
G36*
X191326Y18336D02*
X191719Y18375D01*
X196877Y28769D01*
D02*G37*
G36*
X192586Y18336D02*
X192743Y18651D01*
X192349Y18375D01*
D02*G37*
G36*
X200735Y18336D02*
X201129Y18375D01*
X200538Y18769D01*
D02*G37*
G36*
X200893Y18336D02*
X201129Y18375D01*
X200735Y18336D01*
D02*G37*
G36*
X202310Y18336D02*
X202271Y18887D01*
X202074Y18375D01*
D02*G37*
G36*
X202586Y18336D02*
X202271Y18887D01*
X202310Y18336D01*
D02*G37*
G36*
X209987Y21998D02*
X209987Y24438D01*
X209948Y25305D01*
X209948Y25423D01*
X210263Y25383D01*
X210696Y25383D01*
X211129Y25383D01*
X211444Y25423D01*
X211405Y24872D01*
X211365Y24399D01*
X211326Y24005D01*
X211326Y23651D01*
X211326Y23139D01*
X211326Y22549D01*
X211286Y21801D01*
X211286Y20974D01*
X211286Y20659D01*
X211326Y20147D01*
X211326Y19675D01*
X211326Y19320D01*
X211326Y19005D01*
X211326Y18730D01*
X211326Y18533D01*
X211365Y18336D01*
X211090Y18336D01*
X210893Y18375D01*
X210735Y18375D01*
X210656Y18375D01*
X210263Y18375D01*
X209948Y18336D01*
X209948Y18651D01*
X209987Y19517D01*
X209987Y19675D01*
X209751Y19320D01*
X209436Y19045D01*
X209160Y18809D01*
X208806Y18612D01*
X208412Y18454D01*
X208019Y18336D01*
X207586Y18297D01*
X207113Y18257D01*
X206444Y18297D01*
X205853Y18454D01*
X205302Y18690D01*
X204869Y19005D01*
X204554Y19399D01*
X204357Y19872D01*
X204279Y20423D01*
X204279Y21131D01*
X204318Y23297D01*
X204279Y24753D01*
X204279Y25305D01*
X204279Y25423D01*
X204633Y25383D01*
X205027Y25383D01*
X205460Y25383D01*
X205775Y25423D01*
X205696Y24872D01*
X205696Y24320D01*
X205656Y23494D01*
X205617Y22706D01*
X205578Y22076D01*
X205578Y21486D01*
X205617Y20974D01*
X205656Y20541D01*
X205735Y20187D01*
X205893Y19911D01*
X206208Y19478D01*
X206641Y19202D01*
X207153Y19045D01*
X207743Y18966D01*
X208176Y19005D01*
X208531Y19084D01*
X208885Y19242D01*
X209160Y19438D01*
X209436Y19675D01*
X209633Y19950D01*
X209790Y20265D01*
X209908Y20620D01*
X209948Y20895D01*
X209987Y21210D01*
X209987Y21564D01*
X209987Y21998D01*
D02*G37*
G36*
X214279Y26919D02*
X215814Y27431D01*
X215814Y27234D01*
X215775Y27076D01*
X215656Y25265D01*
X217546Y25305D01*
X217546Y24675D01*
X215656Y24714D01*
X215617Y24557D01*
X215617Y24399D01*
X215578Y21092D01*
X215578Y20501D01*
X215617Y20108D01*
X215656Y19753D01*
X215735Y19438D01*
X215853Y19202D01*
X216050Y18966D01*
X216286Y18809D01*
X216601Y18730D01*
X216956Y18690D01*
X217389Y18730D01*
X217782Y18809D01*
X217782Y18415D01*
X217034Y18257D01*
X216286Y18218D01*
X216050Y18218D01*
X215775Y18257D01*
X215499Y18297D01*
X215145Y18415D01*
X214790Y18651D01*
X214515Y18966D01*
X214318Y19320D01*
X214239Y19832D01*
X214200Y20501D01*
X214318Y23139D01*
X214318Y24399D01*
X214318Y24714D01*
X213137Y24675D01*
X213137Y24872D01*
X213137Y25344D01*
X214318Y25265D01*
X214318Y25620D01*
X214279Y26131D01*
X214279Y26604D01*
X214279Y26919D01*
D02*G37*
G36*
X223806Y25462D02*
X222901Y25541D01*
X221956Y25462D01*
D02*G37*
G36*
X221129Y25305D02*
X223806Y25462D01*
X221956Y25462D01*
D02*G37*
G36*
X224633Y25265D02*
X223806Y25462D01*
X221129Y25305D01*
D02*G37*
G36*
X222901Y25029D02*
X224633Y25265D01*
X221129Y25305D01*
D02*G37*
G36*
X220381Y24990D02*
X222901Y25029D01*
X221129Y25305D01*
D02*G37*
G36*
X222192Y24990D02*
X222901Y25029D01*
X220381Y24990D01*
D02*G37*
G36*
X223531Y24990D02*
X224633Y25265D01*
X222901Y25029D01*
D02*G37*
G36*
X225342Y24911D02*
X224633Y25265D01*
X223531Y24990D01*
D02*G37*
G36*
X221562Y24793D02*
X222192Y24990D01*
X220381Y24990D01*
D02*G37*
G36*
X224082Y24793D02*
X225342Y24911D01*
X223531Y24990D01*
D02*G37*
G36*
X219672Y24557D02*
X221562Y24793D01*
X220381Y24990D01*
D02*G37*
G36*
X224515Y24517D02*
X225342Y24911D01*
X224082Y24793D01*
D02*G37*
G36*
X221050Y24478D02*
X221562Y24793D01*
X219672Y24557D01*
D02*G37*
G36*
X225971Y24399D02*
X225342Y24911D01*
X224515Y24517D01*
D02*G37*
G36*
X220656Y24084D02*
X221050Y24478D01*
X219672Y24557D01*
D02*G37*
G36*
X224869Y24084D02*
X225971Y24399D01*
X224515Y24517D01*
D02*G37*
G36*
X219121Y24005D02*
X220656Y24084D01*
X219672Y24557D01*
D02*G37*
G36*
X226444Y23887D02*
X225971Y24399D01*
X224869Y24084D01*
D02*G37*
G36*
X225105Y23612D02*
X226444Y23887D01*
X224869Y24084D01*
D02*G37*
G36*
X220381Y23533D02*
X220656Y24084D01*
X219121Y24005D01*
D02*G37*
G36*
X218727Y23375D02*
X220381Y23533D01*
X219121Y24005D01*
D02*G37*
G36*
X226759Y23297D02*
X226444Y23887D01*
X225105Y23612D01*
D02*G37*
G36*
X225302Y23100D02*
X226759Y23297D01*
X225105Y23612D01*
D02*G37*
G36*
X218609Y23061D02*
X220381Y23533D01*
X218727Y23375D01*
D02*G37*
G36*
X220145Y22982D02*
X220381Y23533D01*
X218609Y23061D01*
D02*G37*
G36*
X218491Y22706D02*
X220145Y22982D01*
X218609Y23061D01*
D02*G37*
G36*
X226956Y22627D02*
X226759Y23297D01*
X225302Y23100D01*
D02*G37*
G36*
X225420Y22549D02*
X226956Y22627D01*
X225302Y23100D01*
D02*G37*
G36*
X220027Y22352D02*
X220145Y22982D01*
X218491Y22706D01*
D02*G37*
G36*
X225460Y21958D02*
X226956Y22627D01*
X225420Y22549D01*
D02*G37*
G36*
X218412Y21919D02*
X220027Y22352D01*
X218491Y22706D01*
D02*G37*
G36*
X227034Y21879D02*
X226956Y22627D01*
X225460Y21958D01*
D02*G37*
G36*
X219987Y21683D02*
X220027Y22352D01*
X218412Y21919D01*
D02*G37*
G36*
X225460Y21486D02*
X227034Y21879D01*
X225460Y21958D01*
D02*G37*
G36*
X226995Y21368D02*
X227034Y21879D01*
X225460Y21486D01*
D02*G37*
G36*
X225420Y21171D02*
X226995Y21368D01*
X225460Y21486D01*
D02*G37*
G36*
X218452Y21131D02*
X219987Y21683D01*
X218412Y21919D01*
D02*G37*
G36*
X220027Y21092D02*
X219987Y21683D01*
X218452Y21131D01*
D02*G37*
G36*
X226877Y20856D02*
X226995Y21368D01*
X225420Y21171D01*
D02*G37*
G36*
X225302Y20698D02*
X226877Y20856D01*
X225420Y21171D01*
D02*G37*
G36*
X220145Y20541D02*
X220027Y21092D01*
X218452Y21131D01*
D02*G37*
G36*
X218609Y20501D02*
X220145Y20541D01*
X218452Y21131D01*
D02*G37*
G36*
X226680Y20344D02*
X226877Y20856D01*
X225302Y20698D01*
D02*G37*
G36*
X225145Y20265D02*
X226680Y20344D01*
X225302Y20698D01*
D02*G37*
G36*
X218767Y20187D02*
X220145Y20541D01*
X218609Y20501D01*
D02*G37*
G36*
X220381Y20029D02*
X220145Y20541D01*
X218767Y20187D01*
D02*G37*
G36*
X218924Y19911D02*
X220381Y20029D01*
X218767Y20187D01*
D02*G37*
G36*
X224948Y19911D02*
X226680Y20344D01*
X225145Y20265D01*
D02*G37*
G36*
X226405Y19872D02*
X226680Y20344D01*
X224948Y19911D01*
D02*G37*
G36*
X220656Y19557D02*
X220381Y20029D01*
X218924Y19911D01*
D02*G37*
G36*
X224713Y19557D02*
X226405Y19872D01*
X224948Y19911D01*
D02*G37*
G36*
X226090Y19478D02*
X226405Y19872D01*
X224713Y19557D01*
D02*G37*
G36*
X219397Y19360D02*
X220656Y19557D01*
X218924Y19911D01*
D02*G37*
G36*
X221050Y19163D02*
X220656Y19557D01*
X219397Y19360D01*
D02*G37*
G36*
X224279Y19163D02*
X226090Y19478D01*
X224713Y19557D01*
D02*G37*
G36*
X225696Y19124D02*
X226090Y19478D01*
X224279Y19163D01*
D02*G37*
G36*
X221523Y18887D02*
X221050Y19163D01*
X219397Y19360D01*
D02*G37*
G36*
X223806Y18887D02*
X225696Y19124D01*
X224279Y19163D01*
D02*G37*
G36*
X220066Y18848D02*
X221523Y18887D01*
X219397Y19360D01*
D02*G37*
G36*
X225302Y18848D02*
X225696Y19124D01*
X223806Y18887D01*
D02*G37*
G36*
X222074Y18730D02*
X221523Y18887D01*
X220066Y18848D01*
D02*G37*
G36*
X223294Y18730D02*
X225302Y18848D01*
X223806Y18887D01*
D02*G37*
G36*
X222743Y18690D02*
X225302Y18848D01*
X223294Y18730D01*
D02*G37*
G36*
X224830Y18612D02*
X225302Y18848D01*
X222743Y18690D01*
D02*G37*
G36*
X220775Y18494D02*
X222743Y18690D01*
X220066Y18848D01*
D02*G37*
G36*
X220775Y18494D02*
X224830Y18612D01*
X222743Y18690D01*
D02*G37*
G36*
X224357Y18415D02*
X224830Y18612D01*
X220775Y18494D01*
D02*G37*
G36*
X223806Y18297D02*
X224357Y18415D01*
X220775Y18494D01*
D02*G37*
G36*
X221680Y18257D02*
X223806Y18297D01*
X220775Y18494D01*
D02*G37*
G36*
X223216Y18218D02*
X223806Y18297D01*
X221680Y18257D01*
D02*G37*
G36*
X222586Y18179D02*
X223216Y18218D01*
X221680Y18257D01*
D02*G37*
G36*
X241168Y21958D02*
X241090Y21013D01*
X241090Y19714D01*
X241168Y18730D01*
X241168Y18336D01*
X241011Y18375D01*
X240656Y18375D01*
X240066Y18375D01*
X239672Y18336D01*
X239672Y18533D01*
X239712Y18769D01*
X239790Y19714D01*
X239830Y21289D01*
X239830Y22391D01*
X239830Y22982D01*
X239751Y23454D01*
X239672Y23809D01*
X239515Y24124D01*
X239239Y24399D01*
X238885Y24596D01*
X238491Y24714D01*
X238019Y24753D01*
X237625Y24714D01*
X237271Y24675D01*
X236956Y24557D01*
X236680Y24438D01*
X236405Y24242D01*
X236208Y24045D01*
X236011Y23769D01*
X235893Y23494D01*
X235853Y23336D01*
X235814Y23061D01*
X235775Y22746D01*
X235735Y22312D01*
X235735Y20501D01*
X235735Y20108D01*
X235775Y19793D01*
X235775Y19517D01*
X235775Y19281D01*
X235775Y18651D01*
X235814Y18336D01*
X235538Y18375D01*
X235105Y18375D01*
X234633Y18375D01*
X234318Y18336D01*
X234318Y18651D01*
X234436Y20344D01*
X234436Y21446D01*
X234436Y22667D01*
X234397Y23139D01*
X234318Y23572D01*
X234200Y23887D01*
X234003Y24163D01*
X233727Y24399D01*
X233412Y24557D01*
X233019Y24675D01*
X232546Y24714D01*
X231877Y24635D01*
X231326Y24438D01*
X230893Y24124D01*
X230578Y23651D01*
X230460Y23297D01*
X230381Y22864D01*
X230302Y22352D01*
X230302Y21722D01*
X230302Y20935D01*
X230302Y19714D01*
X230342Y18651D01*
X230381Y18336D01*
X230223Y18375D01*
X229987Y18375D01*
X229633Y18375D01*
X229239Y18375D01*
X228924Y18336D01*
X228924Y18494D01*
X228924Y18690D01*
X229082Y21643D01*
X229082Y23415D01*
X229003Y25068D01*
X229003Y25423D01*
X229121Y25383D01*
X229357Y25383D01*
X229712Y25383D01*
X230105Y25383D01*
X230381Y25423D01*
X230342Y24832D01*
X230342Y24517D01*
X230342Y24124D01*
X230617Y24438D01*
X230893Y24714D01*
X231208Y24950D01*
X231523Y25147D01*
X231877Y25305D01*
X232231Y25423D01*
X232625Y25462D01*
X233058Y25501D01*
X233491Y25462D01*
X233885Y25383D01*
X234279Y25265D01*
X234672Y25108D01*
X234987Y24911D01*
X235263Y24635D01*
X235460Y24360D01*
X235656Y24005D01*
X235932Y24360D01*
X236208Y24635D01*
X236523Y24872D01*
X236877Y25108D01*
X237271Y25265D01*
X237664Y25383D01*
X238097Y25423D01*
X238570Y25462D01*
X239121Y25423D01*
X239633Y25305D01*
X240105Y25147D01*
X240499Y24872D01*
X240814Y24596D01*
X241050Y24202D01*
X241168Y23809D01*
X241208Y23336D01*
X241208Y23061D01*
X241208Y22746D01*
X241208Y22391D01*
X241168Y21958D01*
D02*G37*
G36*
X247625Y25501D02*
X246956Y25541D01*
X246247Y25501D01*
D02*G37*
G36*
X248216Y25383D02*
X247625Y25501D01*
X246247Y25501D01*
D02*G37*
G36*
X245538Y25305D02*
X248216Y25383D01*
X246247Y25501D01*
D02*G37*
G36*
X248727Y25147D02*
X248216Y25383D01*
X245538Y25305D01*
D02*G37*
G36*
X244830Y25029D02*
X248727Y25147D01*
X245538Y25305D01*
D02*G37*
G36*
X246405Y24872D02*
X248727Y25147D01*
X244830Y25029D01*
D02*G37*
G36*
X245814Y24832D02*
X246405Y24872D01*
X244830Y25029D01*
D02*G37*
G36*
X246877Y24832D02*
X248727Y25147D01*
X246405Y24872D01*
D02*G37*
G36*
X249160Y24832D02*
X248727Y25147D01*
X246877Y24832D01*
D02*G37*
G36*
X247271Y24753D02*
X249160Y24832D01*
X246877Y24832D01*
D02*G37*
G36*
X244082Y24675D02*
X245814Y24832D01*
X244830Y25029D01*
D02*G37*
G36*
X245263Y24675D02*
X245814Y24832D01*
X244082Y24675D01*
D02*G37*
G36*
X247625Y24596D02*
X249160Y24832D01*
X247271Y24753D01*
D02*G37*
G36*
X249515Y24478D02*
X249160Y24832D01*
X247625Y24596D01*
D02*G37*
G36*
X244830Y24399D02*
X245263Y24675D01*
X244082Y24675D01*
D02*G37*
G36*
X247940Y24399D02*
X249515Y24478D01*
X247625Y24596D01*
D02*G37*
G36*
X249633Y24281D02*
X249515Y24478D01*
X247940Y24399D01*
D02*G37*
G36*
X248176Y24163D02*
X249633Y24281D01*
X247940Y24399D01*
D02*G37*
G36*
X249712Y24084D02*
X249633Y24281D01*
X248176Y24163D01*
D02*G37*
G36*
X244436Y24045D02*
X244830Y24399D01*
X244082Y24675D01*
D02*G37*
G36*
X244318Y23887D02*
X244436Y24045D01*
X244082Y24675D01*
D02*G37*
G36*
X244082Y23848D02*
X244318Y23887D01*
X244082Y24675D01*
D02*G37*
G36*
X244279Y23848D02*
X244318Y23887D01*
X244082Y23848D01*
D02*G37*
G36*
X248334Y23848D02*
X249712Y24084D01*
X248176Y24163D01*
D02*G37*
G36*
X249790Y23612D02*
X249712Y24084D01*
X248334Y23848D01*
D02*G37*
G36*
X248452Y23494D02*
X249790Y23612D01*
X248334Y23848D01*
D02*G37*
G36*
X248491Y23139D02*
X249790Y23612D01*
X248452Y23494D01*
D02*G37*
G36*
X249830Y23021D02*
X249790Y23612D01*
X248491Y23139D01*
D02*G37*
G36*
X248491Y22824D02*
X249830Y23021D01*
X248491Y23139D01*
D02*G37*
G36*
X248412Y22627D02*
X249830Y23021D01*
X248491Y22824D01*
D02*G37*
G36*
X248137Y22470D02*
X249830Y23021D01*
X248412Y22627D01*
D02*G37*
G36*
X247901Y22391D02*
X249830Y23021D01*
X248137Y22470D01*
D02*G37*
G36*
X245853Y22037D02*
X247153Y22234D01*
X246601Y22155D01*
D02*G37*
G36*
X248492Y22037D02*
X249830Y23021D01*
X247901Y22391D01*
D02*G37*
G36*
X248492Y22037D02*
X247901Y22391D01*
X247586Y22312D01*
D02*G37*
G36*
X248492Y22037D02*
X247586Y22312D01*
X247153Y22234D01*
D02*G37*
G36*
X248492Y22037D02*
X247153Y22234D01*
X245853Y22037D01*
D02*G37*
G36*
X248334Y21998D02*
X248492Y22037D01*
X245853Y22037D01*
D02*G37*
G36*
X245263Y21919D02*
X248334Y21998D01*
X245853Y22037D01*
D02*G37*
G36*
X247782Y21919D02*
X248334Y21998D01*
X245263Y21919D01*
D02*G37*
G36*
X247271Y21840D02*
X247782Y21919D01*
X245263Y21919D01*
D02*G37*
G36*
X244751Y21761D02*
X247271Y21840D01*
X245263Y21919D01*
D02*G37*
G36*
X246838Y21761D02*
X247271Y21840D01*
X244751Y21761D01*
D02*G37*
G36*
X246483Y21683D02*
X246838Y21761D01*
X244751Y21761D01*
D02*G37*
G36*
X244357Y21643D02*
X246483Y21683D01*
X244751Y21761D01*
D02*G37*
G36*
X246208Y21604D02*
X246483Y21683D01*
X244357Y21643D01*
D02*G37*
G36*
X245696Y21446D02*
X246208Y21604D01*
X244357Y21643D01*
D02*G37*
G36*
X243924Y21368D02*
X245696Y21446D01*
X244357Y21643D01*
D02*G37*
G36*
X249751Y21250D02*
X249830Y23021D01*
X248492Y22037D01*
D02*G37*
G36*
X245223Y21171D02*
X245696Y21446D01*
X243924Y21368D01*
D02*G37*
G36*
X245027Y20974D02*
X245223Y21171D01*
X243924Y21368D01*
D02*G37*
G36*
X243570Y20935D02*
X245027Y20974D01*
X243924Y21368D01*
D02*G37*
G36*
X244869Y20777D02*
X245027Y20974D01*
X243570Y20935D01*
D02*G37*
G36*
X244790Y20501D02*
X244869Y20777D01*
X243570Y20935D01*
D02*G37*
G36*
X243373Y20462D02*
X244790Y20501D01*
X243570Y20935D01*
D02*G37*
G36*
X249751Y20383D02*
X249751Y21250D01*
X248492Y22037D01*
D02*G37*
G36*
X244751Y20226D02*
X244790Y20501D01*
X243373Y20462D01*
D02*G37*
G36*
X249712Y20147D02*
X249751Y20383D01*
X248492Y22037D01*
D02*G37*
G36*
X243294Y19990D02*
X244751Y20226D01*
X243373Y20462D01*
D02*G37*
G36*
X244790Y19911D02*
X244751Y20226D01*
X243294Y19990D01*
D02*G37*
G36*
X248412Y19832D02*
X249712Y20147D01*
X248492Y22037D01*
D02*G37*
G36*
X249751Y19832D02*
X249712Y20147D01*
X248412Y19832D01*
D02*G37*
G36*
X243334Y19596D02*
X244790Y19911D01*
X243294Y19990D01*
D02*G37*
G36*
X244869Y19596D02*
X244790Y19911D01*
X243334Y19596D01*
D02*G37*
G36*
X248176Y19596D02*
X249751Y19832D01*
X248412Y19832D01*
D02*G37*
G36*
X249751Y19596D02*
X249751Y19832D01*
X248176Y19596D01*
D02*G37*
G36*
X247940Y19399D02*
X249751Y19596D01*
X248176Y19596D01*
D02*G37*
G36*
X245027Y19360D02*
X244869Y19596D01*
X243334Y19596D01*
D02*G37*
G36*
X249790Y19360D02*
X249751Y19596D01*
X247940Y19399D01*
D02*G37*
G36*
X243452Y19281D02*
X245027Y19360D01*
X243334Y19596D01*
D02*G37*
G36*
X248452Y19281D02*
X249790Y19360D01*
X247940Y19399D01*
D02*G37*
G36*
X245184Y19163D02*
X245027Y19360D01*
X243452Y19281D01*
D02*G37*
G36*
X247586Y19163D02*
X248452Y19281D01*
X247940Y19399D01*
D02*G37*
G36*
X249869Y19163D02*
X249790Y19360D01*
X248452Y19281D01*
D02*G37*
G36*
X248294Y19124D02*
X248452Y19281D01*
X247586Y19163D01*
D02*G37*
G36*
X249948Y19005D02*
X249869Y19163D01*
X248452Y19281D01*
D02*G37*
G36*
X243688Y18966D02*
X245184Y19163D01*
X243452Y19281D01*
D02*G37*
G36*
X247231Y18966D02*
X248294Y19124D01*
X247586Y19163D01*
D02*G37*
G36*
X245735Y18927D02*
X245184Y19163D01*
X243688Y18966D01*
D02*G37*
G36*
X250066Y18927D02*
X249948Y19005D01*
X248452Y19281D01*
D02*G37*
G36*
X246877Y18887D02*
X248294Y19124D01*
X247231Y18966D01*
D02*G37*
G36*
X248570Y18887D02*
X250066Y18927D01*
X248452Y19281D01*
D02*G37*
G36*
X246090Y18848D02*
X245735Y18927D01*
X243688Y18966D01*
D02*G37*
G36*
X250223Y18848D02*
X250066Y18927D01*
X248570Y18887D01*
D02*G37*
G36*
X247704Y18730D02*
X248294Y19124D01*
X246877Y18887D01*
D02*G37*
G36*
X247704Y18730D02*
X246877Y18887D01*
X246523Y18848D01*
D02*G37*
G36*
X247704Y18730D02*
X246523Y18848D01*
X246090Y18848D01*
D02*G37*
G36*
X247704Y18730D02*
X246090Y18848D01*
X243688Y18966D01*
D02*G37*
G36*
X244003Y18690D02*
X247704Y18730D01*
X243688Y18966D01*
D02*G37*
G36*
X248845Y18572D02*
X250223Y18848D01*
X248570Y18887D01*
D02*G37*
G36*
X248845Y18572D02*
X250656Y18848D01*
X250223Y18848D01*
D02*G37*
G36*
X250814Y18533D02*
X250814Y18887D01*
X250656Y18848D01*
D02*G37*
G36*
X250814Y18533D02*
X250656Y18848D01*
X248845Y18572D01*
D02*G37*
G36*
X250696Y18494D02*
X250814Y18533D01*
X248845Y18572D01*
D02*G37*
G36*
X244357Y18454D02*
X247704Y18730D01*
X244003Y18690D01*
D02*G37*
G36*
X250460Y18454D02*
X250696Y18494D01*
X248845Y18572D01*
D02*G37*
G36*
X247074Y18415D02*
X247704Y18730D01*
X244357Y18454D01*
D02*G37*
G36*
X249200Y18415D02*
X250460Y18454D01*
X248845Y18572D01*
D02*G37*
G36*
X250302Y18415D02*
X250460Y18454D01*
X249200Y18415D01*
D02*G37*
G36*
X249712Y18336D02*
X250302Y18415D01*
X249200Y18415D01*
D02*G37*
G36*
X249948Y18336D02*
X250302Y18415D01*
X249712Y18336D01*
D02*G37*
G36*
X244751Y18297D02*
X247074Y18415D01*
X244357Y18454D01*
D02*G37*
G36*
X245223Y18218D02*
X247074Y18415D01*
X244751Y18297D01*
D02*G37*
G36*
X246405Y18218D02*
X247074Y18415D01*
X245223Y18218D01*
D02*G37*
G36*
X245696Y18179D02*
X246405Y18218D01*
X245223Y18218D01*
D02*G37*
G36*
X252822Y26919D02*
X254357Y27431D01*
X254357Y27234D01*
X254318Y27076D01*
X254200Y25265D01*
X256090Y25305D01*
X256090Y24675D01*
X254200Y24714D01*
X254160Y24557D01*
X254160Y24399D01*
X254121Y21092D01*
X254121Y20501D01*
X254160Y20108D01*
X254200Y19753D01*
X254279Y19438D01*
X254397Y19202D01*
X254593Y18966D01*
X254830Y18809D01*
X255145Y18730D01*
X255499Y18690D01*
X255932Y18730D01*
X256326Y18809D01*
X256326Y18415D01*
X255578Y18257D01*
X254830Y18218D01*
X254593Y18218D01*
X254318Y18257D01*
X254042Y18297D01*
X253688Y18415D01*
X253334Y18651D01*
X253058Y18966D01*
X252861Y19320D01*
X252782Y19832D01*
X252743Y20501D01*
X252861Y23139D01*
X252861Y24399D01*
X252861Y24714D01*
X251680Y24675D01*
X251680Y24872D01*
X251680Y25344D01*
X252861Y25265D01*
X252861Y25620D01*
X252822Y26131D01*
X252822Y26604D01*
X252822Y26919D01*
D02*G37*
G36*
X258097Y25305D02*
X258058Y25423D01*
X258412Y25383D01*
X258924Y25383D01*
X259357Y25383D01*
X259633Y25423D01*
X259593Y24596D01*
X259554Y23730D01*
X259515Y22824D01*
X259515Y21879D01*
X259554Y20187D01*
X259593Y18494D01*
X259633Y18336D01*
X259160Y18375D01*
X258845Y18375D01*
X258373Y18375D01*
X258058Y18336D01*
X258097Y19163D01*
X258137Y20029D01*
X258176Y20935D01*
X258176Y21879D01*
X258176Y22942D01*
X258176Y23887D01*
X258137Y24675D01*
X258097Y25305D01*
D02*G37*
G36*
X259279Y27273D02*
X258924Y27234D01*
X258570Y27273D01*
X258294Y27470D01*
X258097Y27706D01*
X258019Y27982D01*
X258097Y28297D01*
X258294Y28533D01*
X258570Y28690D01*
X258924Y28769D01*
X259279Y28690D01*
X259554Y28533D01*
X259751Y28297D01*
X259830Y27982D01*
X259751Y27706D01*
X259554Y27470D01*
X259279Y27273D01*
D02*G37*
G36*
X262664Y18730D02*
X262704Y19911D01*
X262822Y25541D01*
X262704Y29084D01*
X262704Y29517D01*
X262901Y29438D01*
X263924Y29438D01*
X264042Y29478D01*
X264160Y29517D01*
X264200Y29438D01*
X264200Y29281D01*
X264200Y29005D01*
X264082Y26407D01*
X264082Y22824D01*
X264121Y22509D01*
X264200Y22312D01*
X264515Y22391D01*
X264869Y22549D01*
X265302Y22824D01*
X265775Y23218D01*
X266838Y24163D01*
X268255Y25383D01*
X268412Y25344D01*
X268806Y25344D01*
X269318Y25344D01*
X269672Y25383D01*
X269672Y25305D01*
X269121Y24911D01*
X268491Y24478D01*
X268176Y24242D01*
X267901Y24045D01*
X267664Y23887D01*
X267507Y23809D01*
X266916Y23375D01*
X265735Y22431D01*
X266129Y22076D01*
X266601Y21604D01*
X267153Y21092D01*
X267743Y20501D01*
X268570Y19753D01*
X269397Y19005D01*
X269908Y18415D01*
X269908Y18336D01*
X269554Y18375D01*
X269042Y18375D01*
X268491Y18375D01*
X268097Y18336D01*
X267586Y18887D01*
X267153Y19320D01*
X266562Y19911D01*
X265656Y20816D01*
X264790Y21643D01*
X264593Y21801D01*
X264436Y21958D01*
X264082Y21958D01*
X264042Y21722D01*
X264042Y21328D01*
X264042Y19911D01*
X264121Y18730D01*
X264121Y18336D01*
X264003Y18375D01*
X263609Y18375D01*
X263294Y18375D01*
X263058Y18375D01*
X262822Y18336D01*
X262664Y18336D01*
X262664Y18730D01*
D02*G37*
G36*
X184687Y13260D02*
X184372Y13339D01*
X184293Y13339D01*
D02*G37*
G36*
X185199Y13220D02*
X185199Y13339D01*
X185002Y13260D01*
D02*G37*
G36*
X185199Y13220D02*
X185002Y13260D01*
X184687Y13260D01*
D02*G37*
G36*
X184293Y13102D02*
X184687Y13260D01*
X184293Y13339D01*
D02*G37*
G36*
X184293Y13102D02*
X185199Y13220D01*
X184687Y13260D01*
D02*G37*
G36*
X185159Y13102D02*
X185199Y13220D01*
X184293Y13102D01*
D02*G37*
G36*
X185120Y12276D02*
X185159Y13102D01*
X184293Y13102D01*
D02*G37*
G36*
X184333Y10976D02*
X185120Y12276D01*
X184293Y13102D01*
D02*G37*
G36*
X186419Y10819D02*
X187482Y10858D01*
X186931Y10898D01*
D02*G37*
G36*
X187915Y10740D02*
X187482Y10858D01*
X186419Y10819D01*
D02*G37*
G36*
X185947Y10661D02*
X187915Y10740D01*
X186419Y10819D01*
D02*G37*
G36*
X186695Y10543D02*
X187915Y10740D01*
X185947Y10661D01*
D02*G37*
G36*
X186262Y10504D02*
X186695Y10543D01*
X185947Y10661D01*
D02*G37*
G36*
X187010Y10504D02*
X187915Y10740D01*
X186695Y10543D01*
D02*G37*
G36*
X188270Y10504D02*
X187915Y10740D01*
X187010Y10504D01*
D02*G37*
G36*
X185474Y10386D02*
X186262Y10504D01*
X185947Y10661D01*
D02*G37*
G36*
X187325Y10386D02*
X188270Y10504D01*
X187010Y10504D01*
D02*G37*
G36*
X185907Y10346D02*
X186262Y10504D01*
X185474Y10386D01*
D02*G37*
G36*
X188585Y10268D02*
X188270Y10504D01*
X187325Y10386D01*
D02*G37*
G36*
X187600Y10228D02*
X188585Y10268D01*
X187325Y10386D01*
D02*G37*
G36*
X185081Y10189D02*
X185120Y12276D01*
X184333Y10976D01*
D02*G37*
G36*
X185593Y10110D02*
X185907Y10346D01*
X185474Y10386D01*
D02*G37*
G36*
X185081Y9992D02*
X185081Y10189D01*
X184333Y10976D01*
D02*G37*
G36*
X185081Y9992D02*
X185593Y10110D01*
X185474Y10386D01*
D02*G37*
G36*
X187838Y9992D02*
X188585Y10268D01*
X187600Y10228D01*
D02*G37*
G36*
X188821Y9953D02*
X188585Y10268D01*
X187838Y9992D01*
D02*G37*
G36*
X185356Y9795D02*
X185593Y10110D01*
X185081Y9992D01*
D02*G37*
G36*
X187994Y9756D02*
X188821Y9953D01*
X187838Y9992D01*
D02*G37*
G36*
X188978Y9598D02*
X188821Y9953D01*
X187994Y9756D01*
D02*G37*
G36*
X185238Y9520D02*
X185356Y9795D01*
X185081Y9992D01*
D02*G37*
G36*
X185238Y9520D02*
X185081Y9992D01*
X184333Y10976D01*
D02*G37*
G36*
X188112Y9441D02*
X188978Y9598D01*
X187994Y9756D01*
D02*G37*
G36*
X185159Y9244D02*
X185238Y9520D01*
X184333Y10976D01*
D02*G37*
G36*
X189057Y9244D02*
X188978Y9598D01*
X188112Y9441D01*
D02*G37*
G36*
X185081Y8850D02*
X185159Y9244D01*
X184333Y10976D01*
D02*G37*
G36*
X188191Y8811D02*
X189057Y9244D01*
X188112Y9441D01*
D02*G37*
G36*
X189096Y8811D02*
X189057Y9244D01*
X188191Y8811D01*
D02*G37*
G36*
X185081Y8417D02*
X185081Y8850D01*
X184333Y10976D01*
D02*G37*
G36*
X188152Y8417D02*
X189096Y8811D01*
X188191Y8811D01*
D02*G37*
G36*
X189018Y8220D02*
X189096Y8811D01*
X188152Y8417D01*
D02*G37*
G36*
X188112Y8063D02*
X189018Y8220D01*
X188152Y8417D01*
D02*G37*
G36*
X185159Y7787D02*
X185081Y8417D01*
X184333Y10976D01*
D02*G37*
G36*
X187955Y7748D02*
X189018Y8220D01*
X188112Y8063D01*
D02*G37*
G36*
X188821Y7669D02*
X189018Y8220D01*
X187955Y7748D01*
D02*G37*
G36*
X184293Y7591D02*
X185159Y7787D01*
X184333Y10976D01*
D02*G37*
G36*
X185278Y7512D02*
X185159Y7787D01*
X184293Y7591D01*
D02*G37*
G36*
X187797Y7394D02*
X188821Y7669D01*
X187955Y7748D01*
D02*G37*
G36*
X185435Y7276D02*
X185278Y7512D01*
X184293Y7591D01*
D02*G37*
G36*
X188467Y7197D02*
X188821Y7669D01*
X187797Y7394D01*
D02*G37*
G36*
X185159Y7118D02*
X185435Y7276D01*
X184293Y7591D01*
D02*G37*
G36*
X187561Y7118D02*
X188467Y7197D01*
X187797Y7394D01*
D02*G37*
G36*
X185081Y7079D02*
X185159Y7118D01*
X184293Y7591D01*
D02*G37*
G36*
X185632Y7079D02*
X185435Y7276D01*
X185159Y7118D01*
D02*G37*
G36*
X185238Y7039D02*
X185632Y7079D01*
X185159Y7118D01*
D02*G37*
G36*
X184923Y6961D02*
X185081Y7079D01*
X184293Y7591D01*
D02*G37*
G36*
X185947Y6921D02*
X185632Y7079D01*
X185238Y7039D01*
D02*G37*
G36*
X187285Y6921D02*
X188467Y7197D01*
X187561Y7118D01*
D02*G37*
G36*
X184293Y6803D02*
X184923Y6961D01*
X184293Y7591D01*
D02*G37*
G36*
X184726Y6803D02*
X184923Y6961D01*
X184293Y6803D01*
D02*G37*
G36*
X185553Y6803D02*
X185947Y6921D01*
X185238Y7039D01*
D02*G37*
G36*
X186262Y6803D02*
X185947Y6921D01*
X185553Y6803D01*
D02*G37*
G36*
X186970Y6803D02*
X188467Y7197D01*
X187285Y6921D01*
D02*G37*
G36*
X187955Y6803D02*
X188467Y7197D01*
X186970Y6803D01*
D02*G37*
G36*
X184254Y6685D02*
X184726Y6803D01*
X184293Y6803D01*
D02*G37*
G36*
X187679Y6685D02*
X187955Y6803D01*
X185553Y6803D01*
D02*G37*
G36*
X185907Y6646D02*
X187679Y6685D01*
X185553Y6803D01*
D02*G37*
G36*
X184254Y6606D02*
X184726Y6803D01*
X184254Y6685D01*
D02*G37*
G36*
X184451Y6606D02*
X184726Y6803D01*
X184254Y6606D01*
D02*G37*
G36*
X187364Y6567D02*
X187679Y6685D01*
X185907Y6646D01*
D02*G37*
G36*
X186262Y6528D02*
X187364Y6567D01*
X185907Y6646D01*
D02*G37*
G36*
X186695Y6488D02*
X187364Y6567D01*
X186262Y6528D01*
D02*G37*
G36*
X187049Y6488D02*
X187364Y6567D01*
X186695Y6488D01*
D02*G37*
G36*
X190750Y4756D02*
X191222Y5504D01*
X191656Y6213D01*
X191852Y6528D01*
X191892Y6606D01*
X191774Y6921D01*
X189766Y10858D01*
X190120Y10819D01*
X190356Y10819D01*
X190789Y10858D01*
X190868Y10622D01*
X191419Y9402D01*
X192285Y7591D01*
X192364Y7551D01*
X192482Y7787D01*
X192876Y8457D01*
X193270Y9362D01*
X193900Y10858D01*
X194215Y10819D01*
X194451Y10819D01*
X194608Y10858D01*
X192128Y6173D01*
X191459Y4756D01*
X191144Y4795D01*
X190750Y4756D01*
D02*G37*
G36*
X200041Y12827D02*
X200238Y12827D01*
X201695Y10465D01*
X203309Y8024D01*
X203545Y8378D01*
X203742Y8693D01*
X204136Y9283D01*
X205514Y11449D01*
X205593Y11528D01*
X205671Y11685D01*
X205789Y11843D01*
X205947Y12079D01*
X206222Y12472D01*
X206459Y12827D01*
X206577Y12827D01*
X207089Y8929D01*
X207167Y8339D01*
X207285Y7669D01*
X207364Y7079D01*
X207443Y6606D01*
X207167Y6606D01*
X206970Y6646D01*
X206656Y6606D01*
X206459Y6606D01*
X206104Y9874D01*
X205907Y11213D01*
X204411Y8890D01*
X203860Y7945D01*
X203703Y7709D01*
X203545Y7394D01*
X203112Y6685D01*
X202994Y6685D01*
X202404Y7669D01*
X202167Y8142D01*
X201813Y8693D01*
X201104Y9874D01*
X200711Y10504D01*
X200278Y11213D01*
X199805Y7709D01*
X199766Y6803D01*
X199766Y6606D01*
X199569Y6606D01*
X199333Y6606D01*
X199175Y6606D01*
X199018Y6606D01*
X199018Y6685D01*
X199372Y8535D01*
X199884Y11803D01*
X199923Y12000D01*
X199963Y12236D01*
X200041Y12827D01*
D02*G37*
G36*
X212207Y8811D02*
X212207Y10268D01*
X212207Y10780D01*
X212207Y10858D01*
X212364Y10819D01*
X212600Y10819D01*
X212876Y10819D01*
X213073Y10858D01*
X213033Y10543D01*
X212994Y10228D01*
X212994Y9992D01*
X212994Y9795D01*
X212994Y9480D01*
X212994Y9126D01*
X212994Y8693D01*
X212994Y8181D01*
X212994Y7984D01*
X212994Y7709D01*
X212994Y7394D01*
X212994Y7197D01*
X212994Y6843D01*
X212994Y6606D01*
X212758Y6606D01*
X212600Y6646D01*
X212364Y6606D01*
X212207Y6606D01*
X212207Y6803D01*
X212207Y7315D01*
X212207Y7394D01*
X211892Y7039D01*
X211498Y6764D01*
X211026Y6606D01*
X210514Y6567D01*
X210081Y6606D01*
X209726Y6685D01*
X209411Y6803D01*
X209136Y7000D01*
X208978Y7236D01*
X208860Y7551D01*
X208821Y7866D01*
X208781Y8299D01*
X208821Y9559D01*
X208781Y10465D01*
X208781Y10780D01*
X208781Y10858D01*
X209254Y10819D01*
X209490Y10819D01*
X209687Y10858D01*
X209648Y10189D01*
X209608Y9677D01*
X209569Y9244D01*
X209569Y8850D01*
X209569Y8496D01*
X209569Y8181D01*
X209608Y7906D01*
X209687Y7709D01*
X209766Y7551D01*
X209963Y7315D01*
X210199Y7118D01*
X210514Y7039D01*
X210868Y7000D01*
X211341Y7039D01*
X211695Y7276D01*
X212010Y7551D01*
X212167Y7984D01*
X212207Y8339D01*
X212207Y8811D01*
D02*G37*
G36*
X218821Y10543D02*
X218585Y9953D01*
X218506Y9953D01*
X218348Y10150D01*
X218230Y10268D01*
X217994Y10386D01*
X217758Y10504D01*
X217443Y10583D01*
X217167Y10622D01*
X216734Y10583D01*
X216380Y10504D01*
X216065Y10307D01*
X215789Y10071D01*
X215553Y9795D01*
X215396Y9480D01*
X215317Y9126D01*
X215278Y8772D01*
X215317Y8378D01*
X215396Y7984D01*
X215553Y7669D01*
X215789Y7394D01*
X216065Y7157D01*
X216419Y6961D01*
X216852Y6843D01*
X217246Y6803D01*
X217640Y6843D01*
X217994Y6961D01*
X218388Y7118D01*
X218742Y7394D01*
X218821Y7354D01*
X218742Y6921D01*
X218388Y6724D01*
X217994Y6606D01*
X217561Y6528D01*
X217128Y6488D01*
X216301Y6567D01*
X215593Y6764D01*
X215041Y7118D01*
X214648Y7630D01*
X214451Y8142D01*
X214372Y8693D01*
X214411Y9047D01*
X214451Y9323D01*
X214569Y9638D01*
X214726Y9874D01*
X215159Y10307D01*
X215711Y10622D01*
X216380Y10819D01*
X217167Y10898D01*
X217640Y10858D01*
X218073Y10819D01*
X218467Y10701D01*
X218821Y10543D01*
D02*G37*
G36*
X220120Y6843D02*
X220159Y7551D01*
X220199Y10937D01*
X220159Y13063D01*
X220159Y13339D01*
X220238Y13260D01*
X220868Y13260D01*
X220947Y13299D01*
X221026Y13339D01*
X221065Y13299D01*
X221026Y13181D01*
X221026Y13024D01*
X220986Y11449D01*
X220986Y9283D01*
X220986Y9126D01*
X221065Y9008D01*
X221222Y9047D01*
X221459Y9126D01*
X221695Y9283D01*
X221970Y9520D01*
X222640Y10110D01*
X223467Y10858D01*
X223545Y10819D01*
X223781Y10780D01*
X224096Y10780D01*
X224293Y10858D01*
X223978Y10583D01*
X223585Y10307D01*
X223230Y10071D01*
X223033Y9913D01*
X222679Y9638D01*
X221970Y9087D01*
X222207Y8850D01*
X222482Y8575D01*
X222797Y8260D01*
X223152Y7906D01*
X223663Y7472D01*
X224136Y7000D01*
X224451Y6646D01*
X224254Y6606D01*
X223939Y6646D01*
X223624Y6606D01*
X223388Y6606D01*
X223073Y6921D01*
X222797Y7197D01*
X222443Y7551D01*
X221892Y8102D01*
X221380Y8614D01*
X221183Y8772D01*
X220986Y8772D01*
X220947Y8614D01*
X220947Y8417D01*
X220947Y7551D01*
X220986Y6843D01*
X220986Y6606D01*
X220907Y6606D01*
X220671Y6646D01*
X220356Y6606D01*
X220120Y6606D01*
X220120Y6843D01*
D02*G37*
G36*
X228978Y7748D02*
X229096Y7748D01*
X229451Y7354D01*
X229844Y7079D01*
X230278Y6921D01*
X230829Y6843D01*
X231104Y6882D01*
X231380Y6921D01*
X231656Y7039D01*
X231852Y7236D01*
X232049Y7433D01*
X232167Y7630D01*
X232246Y7866D01*
X232285Y8142D01*
X232207Y8496D01*
X232010Y8772D01*
X231695Y9047D01*
X231222Y9283D01*
X230711Y9480D01*
X230159Y9677D01*
X229726Y9874D01*
X229411Y10110D01*
X229175Y10386D01*
X229018Y10740D01*
X228978Y11094D01*
X229018Y11488D01*
X229136Y11843D01*
X229372Y12118D01*
X229648Y12394D01*
X230002Y12591D01*
X230396Y12709D01*
X230829Y12787D01*
X231341Y12827D01*
X231774Y12787D01*
X232207Y12709D01*
X232561Y12591D01*
X232837Y12433D01*
X232718Y12118D01*
X232561Y11685D01*
X232443Y11685D01*
X232246Y12000D01*
X231931Y12276D01*
X231577Y12433D01*
X231144Y12512D01*
X230632Y12433D01*
X230199Y12197D01*
X230041Y12039D01*
X229923Y11843D01*
X229844Y11646D01*
X229805Y11409D01*
X229844Y11173D01*
X229923Y10937D01*
X230041Y10740D01*
X230238Y10583D01*
X230671Y10346D01*
X231065Y10189D01*
X231380Y10110D01*
X231577Y10031D01*
X231813Y9953D01*
X232049Y9835D01*
X232285Y9717D01*
X232482Y9638D01*
X232600Y9520D01*
X232718Y9441D01*
X232915Y9205D01*
X233033Y8968D01*
X233112Y8732D01*
X233152Y8496D01*
X233112Y8220D01*
X233073Y7906D01*
X232955Y7669D01*
X232797Y7433D01*
X232404Y7039D01*
X231852Y6724D01*
X231222Y6528D01*
X230514Y6488D01*
X230041Y6528D01*
X229569Y6606D01*
X229096Y6764D01*
X228781Y6961D01*
X228900Y7315D01*
X228978Y7748D01*
D02*G37*
G36*
X237285Y10898D02*
X236734Y10937D01*
X236183Y10898D01*
D02*G37*
G36*
X235671Y10780D02*
X237285Y10898D01*
X236183Y10898D01*
D02*G37*
G36*
X237758Y10780D02*
X237285Y10898D01*
X235671Y10780D01*
D02*G37*
G36*
X236734Y10622D02*
X237758Y10780D01*
X235671Y10780D01*
D02*G37*
G36*
X235199Y10583D02*
X236734Y10622D01*
X235671Y10780D01*
D02*G37*
G36*
X236301Y10583D02*
X236734Y10622D01*
X235199Y10583D01*
D02*G37*
G36*
X237089Y10583D02*
X237758Y10780D01*
X236734Y10622D01*
D02*G37*
G36*
X238191Y10543D02*
X237758Y10780D01*
X237089Y10583D01*
D02*G37*
G36*
X235907Y10504D02*
X236301Y10583D01*
X235199Y10583D01*
D02*G37*
G36*
X237443Y10504D02*
X238191Y10543D01*
X237089Y10583D01*
D02*G37*
G36*
X234805Y10346D02*
X235907Y10504D01*
X235199Y10583D01*
D02*G37*
G36*
X235632Y10307D02*
X235907Y10504D01*
X234805Y10346D01*
D02*G37*
G36*
X237679Y10307D02*
X238191Y10543D01*
X237443Y10504D01*
D02*G37*
G36*
X238585Y10228D02*
X238191Y10543D01*
X237679Y10307D01*
D02*G37*
G36*
X237915Y10071D02*
X238585Y10228D01*
X237679Y10307D01*
D02*G37*
G36*
X235396Y10031D02*
X235632Y10307D01*
X234805Y10346D01*
D02*G37*
G36*
X234451Y9992D02*
X235396Y10031D01*
X234805Y10346D01*
D02*G37*
G36*
X238860Y9953D02*
X238585Y10228D01*
X237915Y10071D01*
D02*G37*
G36*
X238073Y9756D02*
X238860Y9953D01*
X237915Y10071D01*
D02*G37*
G36*
X235199Y9717D02*
X235396Y10031D01*
X234451Y9992D01*
D02*G37*
G36*
X234215Y9638D02*
X235199Y9717D01*
X234451Y9992D01*
D02*G37*
G36*
X239057Y9559D02*
X238860Y9953D01*
X238073Y9756D01*
D02*G37*
G36*
X238191Y9441D02*
X239057Y9559D01*
X238073Y9756D01*
D02*G37*
G36*
X235081Y9402D02*
X235199Y9717D01*
X234215Y9638D01*
D02*G37*
G36*
X234057Y9205D02*
X235081Y9402D01*
X234215Y9638D01*
D02*G37*
G36*
X239175Y9165D02*
X239057Y9559D01*
X238191Y9441D01*
D02*G37*
G36*
X238230Y9126D02*
X239175Y9165D01*
X238191Y9441D01*
D02*G37*
G36*
X235002Y9008D02*
X235081Y9402D01*
X234057Y9205D01*
D02*G37*
G36*
X234018Y8772D02*
X235002Y9008D01*
X234057Y9205D01*
D02*G37*
G36*
X238270Y8772D02*
X239175Y9165D01*
X238230Y9126D01*
D02*G37*
G36*
X239215Y8732D02*
X239175Y9165D01*
X238270Y8772D01*
D02*G37*
G36*
X234963Y8614D02*
X235002Y9008D01*
X234018Y8772D01*
D02*G37*
G36*
X238270Y8496D02*
X239215Y8732D01*
X238270Y8772D01*
D02*G37*
G36*
X238230Y8299D02*
X239215Y8732D01*
X238270Y8496D01*
D02*G37*
G36*
X234057Y8260D02*
X234963Y8614D01*
X234018Y8772D01*
D02*G37*
G36*
X235002Y8260D02*
X234963Y8614D01*
X234057Y8260D01*
D02*G37*
G36*
X239136Y8102D02*
X239215Y8732D01*
X238230Y8299D01*
D02*G37*
G36*
X235081Y7906D02*
X235002Y8260D01*
X234057Y8260D01*
D02*G37*
G36*
X234136Y7866D02*
X235081Y7906D01*
X234057Y8260D01*
D02*G37*
G36*
X239018Y7787D02*
X239136Y8102D01*
X238230Y8299D01*
D02*G37*
G36*
X238073Y7748D02*
X239018Y7787D01*
X238230Y8299D01*
D02*G37*
G36*
X235199Y7591D02*
X235081Y7906D01*
X234136Y7866D01*
D02*G37*
G36*
X234333Y7512D02*
X235199Y7591D01*
X234136Y7866D01*
D02*G37*
G36*
X238821Y7512D02*
X239018Y7787D01*
X238073Y7748D01*
D02*G37*
G36*
X235356Y7315D02*
X235199Y7591D01*
X234333Y7512D01*
D02*G37*
G36*
X237838Y7315D02*
X238821Y7512D01*
X238073Y7748D01*
D02*G37*
G36*
X234608Y7197D02*
X235356Y7315D01*
X234333Y7512D01*
D02*G37*
G36*
X235593Y7079D02*
X235356Y7315D01*
X234608Y7197D01*
D02*G37*
G36*
X237561Y7079D02*
X238821Y7512D01*
X237838Y7315D01*
D02*G37*
G36*
X238427Y7039D02*
X238821Y7512D01*
X237561Y7079D01*
D02*G37*
G36*
X235868Y6921D02*
X235593Y7079D01*
X234608Y7197D01*
D02*G37*
G36*
X237285Y6921D02*
X238427Y7039D01*
X237561Y7079D01*
D02*G37*
G36*
X235002Y6882D02*
X235868Y6921D01*
X234608Y7197D01*
D02*G37*
G36*
X236222Y6803D02*
X235868Y6921D01*
X235002Y6882D01*
D02*G37*
G36*
X236970Y6803D02*
X238427Y7039D01*
X237285Y6921D01*
D02*G37*
G36*
X237915Y6724D02*
X238427Y7039D01*
X236970Y6803D01*
D02*G37*
G36*
X237915Y6724D02*
X236970Y6803D01*
X236222Y6803D01*
D02*G37*
G36*
X235435Y6685D02*
X236222Y6803D01*
X235002Y6882D01*
D02*G37*
G36*
X235435Y6685D02*
X237915Y6724D01*
X236222Y6803D01*
D02*G37*
G36*
X237285Y6567D02*
X237915Y6724D01*
X235435Y6685D01*
D02*G37*
G36*
X235986Y6528D02*
X237285Y6567D01*
X235435Y6685D01*
D02*G37*
G36*
X236537Y6488D02*
X237285Y6567D01*
X235986Y6528D01*
D02*G37*
G36*
X241498Y11094D02*
X241498Y7630D01*
X241498Y6685D01*
X241537Y6606D01*
X241262Y6606D01*
X240868Y6606D01*
X240632Y6606D01*
X240632Y6882D01*
X240711Y8968D01*
X240711Y12433D01*
X240671Y13260D01*
X240671Y13339D01*
X240789Y13260D01*
X241459Y13260D01*
X241577Y13339D01*
X241577Y13063D01*
X241498Y11094D01*
D02*G37*
G36*
X246774Y8811D02*
X246774Y10268D01*
X246774Y10780D01*
X246774Y10858D01*
X246931Y10819D01*
X247167Y10819D01*
X247443Y10819D01*
X247640Y10858D01*
X247600Y10543D01*
X247561Y10228D01*
X247561Y9992D01*
X247561Y9795D01*
X247561Y9480D01*
X247561Y9126D01*
X247561Y8693D01*
X247561Y8181D01*
X247561Y7984D01*
X247561Y7709D01*
X247561Y7394D01*
X247561Y7197D01*
X247561Y6843D01*
X247561Y6606D01*
X247325Y6606D01*
X247167Y6646D01*
X246931Y6606D01*
X246774Y6606D01*
X246774Y6803D01*
X246774Y7315D01*
X246774Y7394D01*
X246459Y7039D01*
X246065Y6764D01*
X245593Y6606D01*
X245081Y6567D01*
X244648Y6606D01*
X244293Y6685D01*
X243978Y6803D01*
X243703Y7000D01*
X243545Y7236D01*
X243427Y7551D01*
X243388Y7866D01*
X243348Y8299D01*
X243388Y9559D01*
X243348Y10465D01*
X243348Y10780D01*
X243348Y10858D01*
X243821Y10819D01*
X244057Y10819D01*
X244254Y10858D01*
X244215Y10189D01*
X244175Y9677D01*
X244136Y9244D01*
X244136Y8850D01*
X244136Y8496D01*
X244136Y8181D01*
X244175Y7906D01*
X244254Y7709D01*
X244333Y7551D01*
X244530Y7315D01*
X244766Y7118D01*
X245081Y7039D01*
X245435Y7000D01*
X245907Y7039D01*
X246262Y7276D01*
X246577Y7551D01*
X246734Y7984D01*
X246774Y8339D01*
X246774Y8811D01*
D02*G37*
G36*
X249333Y11764D02*
X250278Y12079D01*
X250278Y11921D01*
X250238Y11843D01*
X250199Y10780D01*
X251341Y10780D01*
X251341Y10425D01*
X250199Y10465D01*
X250159Y10268D01*
X250159Y8260D01*
X250159Y7906D01*
X250199Y7472D01*
X250317Y7118D01*
X250396Y7000D01*
X250553Y6882D01*
X250750Y6843D01*
X250986Y6803D01*
X251222Y6843D01*
X251459Y6882D01*
X251459Y6646D01*
X251026Y6567D01*
X250553Y6528D01*
X250435Y6528D01*
X250278Y6567D01*
X250081Y6567D01*
X249844Y6646D01*
X249648Y6803D01*
X249490Y6961D01*
X249372Y7197D01*
X249333Y7512D01*
X249293Y7906D01*
X249372Y9480D01*
X249372Y10268D01*
X249372Y10465D01*
X248663Y10425D01*
X248663Y10543D01*
X248663Y10780D01*
X249372Y10780D01*
X249372Y10976D01*
X249372Y11252D01*
X249333Y11567D01*
X249333Y11764D01*
D02*G37*
G36*
X252522Y10780D02*
X252482Y10858D01*
X252718Y10819D01*
X252994Y10819D01*
X253230Y10819D01*
X253427Y10858D01*
X253348Y9835D01*
X253348Y8732D01*
X253388Y6685D01*
X253427Y6606D01*
X253152Y6606D01*
X252955Y6646D01*
X252679Y6606D01*
X252482Y6606D01*
X252561Y7630D01*
X252561Y8732D01*
X252561Y9362D01*
X252561Y9953D01*
X252522Y10386D01*
X252522Y10780D01*
D02*G37*
G36*
X253191Y11961D02*
X252994Y11961D01*
X252797Y11961D01*
X252640Y12079D01*
X252522Y12236D01*
X252482Y12394D01*
X252522Y12591D01*
X252640Y12709D01*
X252797Y12827D01*
X252994Y12866D01*
X253191Y12827D01*
X253388Y12709D01*
X253506Y12551D01*
X253545Y12394D01*
X253506Y12236D01*
X253388Y12079D01*
X253191Y11961D01*
D02*G37*
G36*
X258033Y10898D02*
X257482Y10937D01*
X256931Y10898D01*
D02*G37*
G36*
X256419Y10780D02*
X258033Y10898D01*
X256931Y10898D01*
D02*G37*
G36*
X258506Y10780D02*
X258033Y10898D01*
X256419Y10780D01*
D02*G37*
G36*
X257482Y10622D02*
X258506Y10780D01*
X256419Y10780D01*
D02*G37*
G36*
X255947Y10583D02*
X257482Y10622D01*
X256419Y10780D01*
D02*G37*
G36*
X257049Y10583D02*
X257482Y10622D01*
X255947Y10583D01*
D02*G37*
G36*
X257837Y10583D02*
X258506Y10780D01*
X257482Y10622D01*
D02*G37*
G36*
X258939Y10543D02*
X258506Y10780D01*
X257837Y10583D01*
D02*G37*
G36*
X256656Y10504D02*
X257049Y10583D01*
X255947Y10583D01*
D02*G37*
G36*
X258191Y10504D02*
X258939Y10543D01*
X257837Y10583D01*
D02*G37*
G36*
X255553Y10346D02*
X256656Y10504D01*
X255947Y10583D01*
D02*G37*
G36*
X256380Y10307D02*
X256656Y10504D01*
X255553Y10346D01*
D02*G37*
G36*
X258427Y10307D02*
X258939Y10543D01*
X258191Y10504D01*
D02*G37*
G36*
X259333Y10228D02*
X258939Y10543D01*
X258427Y10307D01*
D02*G37*
G36*
X258663Y10071D02*
X259333Y10228D01*
X258427Y10307D01*
D02*G37*
G36*
X256144Y10031D02*
X256380Y10307D01*
X255553Y10346D01*
D02*G37*
G36*
X255199Y9992D02*
X256144Y10031D01*
X255553Y10346D01*
D02*G37*
G36*
X259608Y9953D02*
X259333Y10228D01*
X258663Y10071D01*
D02*G37*
G36*
X258821Y9756D02*
X259608Y9953D01*
X258663Y10071D01*
D02*G37*
G36*
X255947Y9717D02*
X256144Y10031D01*
X255199Y9992D01*
D02*G37*
G36*
X254963Y9638D02*
X255947Y9717D01*
X255199Y9992D01*
D02*G37*
G36*
X259805Y9559D02*
X259608Y9953D01*
X258821Y9756D01*
D02*G37*
G36*
X258939Y9441D02*
X259805Y9559D01*
X258821Y9756D01*
D02*G37*
G36*
X255829Y9402D02*
X255947Y9717D01*
X254963Y9638D01*
D02*G37*
G36*
X254805Y9205D02*
X255829Y9402D01*
X254963Y9638D01*
D02*G37*
G36*
X259923Y9165D02*
X259805Y9559D01*
X258939Y9441D01*
D02*G37*
G36*
X258978Y9126D02*
X259923Y9165D01*
X258939Y9441D01*
D02*G37*
G36*
X255750Y9008D02*
X255829Y9402D01*
X254805Y9205D01*
D02*G37*
G36*
X254766Y8772D02*
X255750Y9008D01*
X254805Y9205D01*
D02*G37*
G36*
X259018Y8772D02*
X259923Y9165D01*
X258978Y9126D01*
D02*G37*
G36*
X259963Y8732D02*
X259923Y9165D01*
X259018Y8772D01*
D02*G37*
G36*
X255711Y8614D02*
X255750Y9008D01*
X254766Y8772D01*
D02*G37*
G36*
X259018Y8496D02*
X259963Y8732D01*
X259018Y8772D01*
D02*G37*
G36*
X258978Y8299D02*
X259963Y8732D01*
X259018Y8496D01*
D02*G37*
G36*
X254805Y8260D02*
X255711Y8614D01*
X254766Y8772D01*
D02*G37*
G36*
X255750Y8260D02*
X255711Y8614D01*
X254805Y8260D01*
D02*G37*
G36*
X259884Y8102D02*
X259963Y8732D01*
X258978Y8299D01*
D02*G37*
G36*
X255829Y7906D02*
X255750Y8260D01*
X254805Y8260D01*
D02*G37*
G36*
X254884Y7866D02*
X255829Y7906D01*
X254805Y8260D01*
D02*G37*
G36*
X259766Y7787D02*
X259884Y8102D01*
X258978Y8299D01*
D02*G37*
G36*
X258821Y7748D02*
X259766Y7787D01*
X258978Y8299D01*
D02*G37*
G36*
X255947Y7591D02*
X255829Y7906D01*
X254884Y7866D01*
D02*G37*
G36*
X255081Y7512D02*
X255947Y7591D01*
X254884Y7866D01*
D02*G37*
G36*
X259569Y7512D02*
X259766Y7787D01*
X258821Y7748D01*
D02*G37*
G36*
X256104Y7315D02*
X255947Y7591D01*
X255081Y7512D01*
D02*G37*
G36*
X258586Y7315D02*
X259569Y7512D01*
X258821Y7748D01*
D02*G37*
G36*
X255356Y7197D02*
X256104Y7315D01*
X255081Y7512D01*
D02*G37*
G36*
X256341Y7079D02*
X256104Y7315D01*
X255356Y7197D01*
D02*G37*
G36*
X258309Y7079D02*
X259569Y7512D01*
X258586Y7315D01*
D02*G37*
G36*
X259175Y7039D02*
X259569Y7512D01*
X258309Y7079D01*
D02*G37*
G36*
X256616Y6921D02*
X256341Y7079D01*
X255356Y7197D01*
D02*G37*
G36*
X258033Y6921D02*
X259175Y7039D01*
X258309Y7079D01*
D02*G37*
G36*
X255750Y6882D02*
X256616Y6921D01*
X255356Y7197D01*
D02*G37*
G36*
X256970Y6803D02*
X256616Y6921D01*
X255750Y6882D01*
D02*G37*
G36*
X257718Y6803D02*
X259175Y7039D01*
X258033Y6921D01*
D02*G37*
G36*
X258663Y6724D02*
X259175Y7039D01*
X257718Y6803D01*
D02*G37*
G36*
X258663Y6724D02*
X257718Y6803D01*
X256970Y6803D01*
D02*G37*
G36*
X256183Y6685D02*
X256970Y6803D01*
X255750Y6882D01*
D02*G37*
G36*
X256183Y6685D02*
X258663Y6724D01*
X256970Y6803D01*
D02*G37*
G36*
X258033Y6567D02*
X258663Y6724D01*
X256183Y6685D01*
D02*G37*
G36*
X256734Y6528D02*
X258033Y6567D01*
X256183Y6685D01*
D02*G37*
G36*
X257285Y6488D02*
X258033Y6567D01*
X256734Y6528D01*
D02*G37*
G36*
X265474Y9205D02*
X265435Y7866D01*
X265474Y7000D01*
X265474Y6685D01*
X265474Y6606D01*
X265002Y6646D01*
X264766Y6606D01*
X264569Y6606D01*
X264569Y6764D01*
X264608Y7000D01*
X264608Y7197D01*
X264608Y7394D01*
X264648Y7787D01*
X264648Y8063D01*
X264648Y8378D01*
X264687Y8496D01*
X264687Y8654D01*
X264687Y8850D01*
X264687Y8968D01*
X264687Y9283D01*
X264648Y9520D01*
X264608Y9717D01*
X264530Y9874D01*
X264333Y10110D01*
X264096Y10307D01*
X263781Y10425D01*
X263427Y10465D01*
X263033Y10425D01*
X262718Y10346D01*
X262443Y10150D01*
X262246Y9913D01*
X262128Y9717D01*
X262089Y9402D01*
X262010Y9087D01*
X262010Y8654D01*
X262010Y7197D01*
X262049Y6646D01*
X261813Y6606D01*
X261616Y6646D01*
X261341Y6606D01*
X261183Y6606D01*
X261183Y6803D01*
X261183Y7079D01*
X261222Y7669D01*
X261222Y8181D01*
X261262Y8614D01*
X261262Y8968D01*
X261262Y9283D01*
X261262Y9638D01*
X261222Y10150D01*
X261222Y10425D01*
X261222Y10858D01*
X261616Y10819D01*
X261852Y10819D01*
X262049Y10858D01*
X262049Y10661D01*
X262010Y10386D01*
X262010Y10150D01*
X262010Y10071D01*
X262364Y10425D01*
X262758Y10701D01*
X263230Y10858D01*
X263742Y10898D01*
X264175Y10858D01*
X264530Y10780D01*
X264844Y10661D01*
X265120Y10465D01*
X265317Y10189D01*
X265435Y9913D01*
X265474Y9598D01*
X265474Y9205D01*
D02*G37*
G36*
X266970Y7433D02*
X267049Y7433D01*
X267325Y7197D01*
X267600Y7000D01*
X267955Y6843D01*
X268270Y6803D01*
X268663Y6882D01*
X269018Y7039D01*
X269136Y7157D01*
X269254Y7276D01*
X269293Y7433D01*
X269333Y7591D01*
X269254Y7945D01*
X269018Y8142D01*
X268860Y8220D01*
X268663Y8299D01*
X268388Y8378D01*
X268112Y8457D01*
X267797Y8535D01*
X267561Y8614D01*
X267404Y8732D01*
X267246Y8811D01*
X267089Y8968D01*
X266931Y9165D01*
X266852Y9362D01*
X266852Y9598D01*
X266852Y9913D01*
X266970Y10150D01*
X267128Y10386D01*
X267325Y10583D01*
X267600Y10740D01*
X267876Y10858D01*
X268191Y10898D01*
X268545Y10937D01*
X269136Y10898D01*
X269687Y10701D01*
X269727Y10701D01*
X269490Y10071D01*
X269411Y10071D01*
X269254Y10268D01*
X269057Y10465D01*
X268781Y10583D01*
X268506Y10622D01*
X268112Y10583D01*
X267837Y10425D01*
X267600Y10189D01*
X267561Y9913D01*
X267600Y9559D01*
X267797Y9362D01*
X268112Y9205D01*
X268545Y9087D01*
X268900Y9008D01*
X269175Y8929D01*
X269372Y8850D01*
X269530Y8772D01*
X269726Y8575D01*
X269923Y8378D01*
X270002Y8142D01*
X270041Y7906D01*
X270002Y7551D01*
X269844Y7236D01*
X269569Y6961D01*
X269175Y6685D01*
X268978Y6606D01*
X268742Y6528D01*
X268427Y6488D01*
X268073Y6488D01*
X267404Y6567D01*
X266774Y6764D01*
X266852Y7039D01*
X266931Y7236D01*
X266970Y7354D01*
X266970Y7433D01*
D02*G37*
M02*
