<?xml version="1.0" encoding="UTF-8"?><svg xmlns="http://www.w3.org/2000/svg" xmlns:xlink="http://www.w3.org/1999/xlink" fill-opacity="1" color-rendering="auto" color-interpolation="auto" stroke="black" text-rendering="auto" stroke-linecap="square" width="1138" stroke-miterlimit="10" stroke-opacity="1" shape-rendering="auto" fill="black" stroke-dasharray="none" font-weight="normal" stroke-width="1" height="534" font-family="'Dialog'" font-style="normal" stroke-linejoin="miter" font-size="12" stroke-dashoffset="0" image-rendering="auto">
  <!--Generated by ySVG 2.5-->
  <defs id="genericDefs"/>
  <g>
    <defs id="defs1">
      <clipPath clipPathUnits="userSpaceOnUse" id="clipPath1">
        <path d="M0 0 L1138 0 L1138 534 L0 534 L0 0 Z"/>
      </clipPath>
      <clipPath clipPathUnits="userSpaceOnUse" id="clipPath2">
        <path d="M545 649 L1683 649 L1683 1183 L545 1183 L545 649 Z"/>
      </clipPath>
    </defs>
    <g fill="white" text-rendering="geometricPrecision" shape-rendering="geometricPrecision" transform="translate(-545,-649)" stroke="white">
      <rect x="545" width="1138" height="534" y="649" clip-path="url(#clipPath2)" stroke="none"/>
    </g>
    <g fill="rgb(245,245,245)" text-rendering="geometricPrecision" shape-rendering="geometricPrecision" transform="matrix(1,0,0,1,-545,-649)" stroke="rgb(245,245,245)">
      <rect x="560.9506" y="664.5954" clip-path="url(#clipPath2)" width="1107.0258" rx="4" ry="4" height="503.2016" stroke="none"/>
      <rect x="560.9506" y="664.5954" clip-path="url(#clipPath2)" fill="rgb(235,235,235)" width="1107.0258" height="21.4609" stroke="none"/>
    </g>
    <g font-size="15" stroke-linecap="butt" transform="matrix(1,0,0,1,-545,-649)" text-rendering="geometricPrecision" font-family="sans-serif" shape-rendering="geometricPrecision" stroke-miterlimit="1.45">
      <text x="1510.8055" xml:space="preserve" y="680.5188" clip-path="url(#clipPath2)" stroke="none">Parameter/Variablen</text>
      <rect x="560.9506" y="664.5954" clip-path="url(#clipPath2)" fill="none" width="1107.0258" stroke-dasharray="6,2" rx="4" ry="4" height="503.2016"/>
    </g>
    <g fill="rgb(255,153,0)" text-rendering="geometricPrecision" shape-rendering="geometricPrecision" transform="matrix(1,0,0,1,-545,-649)" stroke="rgb(255,153,0)">
      <rect x="882.7283" y="882.797" clip-path="url(#clipPath2)" width="45" rx="4" ry="4" height="45" stroke="none"/>
    </g>
    <g text-rendering="geometricPrecision" stroke-miterlimit="1.45" shape-rendering="geometricPrecision" font-family="sans-serif" transform="matrix(1,0,0,1,-545,-649)" stroke-linecap="butt">
      <text x="891.9041" xml:space="preserve" y="909.4513" clip-path="url(#clipPath2)" stroke="none">+/-Z</text>
      <rect x="882.7283" y="882.797" clip-path="url(#clipPath2)" fill="none" width="45" rx="4" ry="4" height="45"/>
    </g>
    <g fill="rgb(255,153,0)" text-rendering="geometricPrecision" shape-rendering="geometricPrecision" transform="matrix(1,0,0,1,-545,-649)" stroke="rgb(255,153,0)">
      <rect x="957.7283" y="882.797" clip-path="url(#clipPath2)" width="109.4901" rx="4" ry="4" height="45" stroke="none"/>
    </g>
    <g text-rendering="geometricPrecision" stroke-miterlimit="1.45" shape-rendering="geometricPrecision" font-family="sans-serif" transform="matrix(1,0,0,1,-545,-649)" stroke-linecap="butt">
      <text x="969.4626" xml:space="preserve" y="909.4513" clip-path="url(#clipPath2)" stroke="none">Schlossmutter</text>
      <rect x="957.7283" y="882.797" clip-path="url(#clipPath2)" fill="none" width="109.4901" rx="4" ry="4" height="45"/>
    </g>
    <g fill="rgb(255,153,0)" text-rendering="geometricPrecision" shape-rendering="geometricPrecision" transform="matrix(1,0,0,1,-545,-649)" stroke="rgb(255,153,0)">
      <rect x="1097.2184" y="957.797" clip-path="url(#clipPath2)" width="109.4901" rx="4" ry="4" height="45" stroke="none"/>
    </g>
    <g text-rendering="geometricPrecision" stroke-miterlimit="1.45" shape-rendering="geometricPrecision" font-family="sans-serif" transform="matrix(1,0,0,1,-545,-649)" stroke-linecap="butt">
      <text x="1098.2594" xml:space="preserve" y="984.4513" clip-path="url(#clipPath2)" stroke="none">Vorschub (manu.)</text>
      <rect x="1097.2184" y="957.797" clip-path="url(#clipPath2)" fill="none" width="109.4901" rx="4" ry="4" height="45"/>
    </g>
    <g fill="rgb(255,102,0)" text-rendering="geometricPrecision" shape-rendering="geometricPrecision" transform="matrix(1,0,0,1,-545,-649)" stroke="rgb(255,102,0)">
      <rect x="743.2382" y="882.797" clip-path="url(#clipPath2)" width="109.4901" rx="4" ry="4" height="45" stroke="none"/>
    </g>
    <g text-rendering="geometricPrecision" stroke-miterlimit="1.45" shape-rendering="geometricPrecision" font-family="sans-serif" transform="matrix(1,0,0,1,-545,-649)" stroke-linecap="butt">
      <text x="771.1063" xml:space="preserve" y="909.4513" clip-path="url(#clipPath2)" stroke="none">Drehzahl</text>
      <rect x="743.2382" y="882.797" clip-path="url(#clipPath2)" fill="none" width="109.4901" rx="4" ry="4" height="45"/>
    </g>
    <g fill="yellow" text-rendering="geometricPrecision" shape-rendering="geometricPrecision" transform="matrix(1,0,0,1,-545,-649)" stroke="yellow">
      <rect x="1236.7085" y="851.0564" clip-path="url(#clipPath2)" width="109.4901" rx="4" ry="4" height="45" stroke="none"/>
    </g>
    <g text-rendering="geometricPrecision" stroke-miterlimit="1.45" shape-rendering="geometricPrecision" font-family="sans-serif" transform="matrix(1,0,0,1,-545,-649)" stroke-linecap="butt">
      <text x="1238.2827" xml:space="preserve" y="877.7107" clip-path="url(#clipPath2)" stroke="none">Vorschub_x (Z,W)</text>
      <rect x="1236.7085" y="851.0564" clip-path="url(#clipPath2)" fill="none" width="109.4901" stroke-dasharray="6,2" rx="4" ry="4" height="45"/>
    </g>
    <g fill="yellow" text-rendering="geometricPrecision" shape-rendering="geometricPrecision" transform="matrix(1,0,0,1,-545,-649)" stroke="yellow">
      <rect x="1236.7085" y="920.297" clip-path="url(#clipPath2)" width="109.4901" rx="4" ry="4" height="45" stroke="none"/>
    </g>
    <g text-rendering="geometricPrecision" stroke-miterlimit="1.45" shape-rendering="geometricPrecision" font-family="sans-serif" transform="matrix(1,0,0,1,-545,-649)" stroke-linecap="butt">
      <text x="1256.8218" xml:space="preserve" y="946.9513" clip-path="url(#clipPath2)" stroke="none">Vorschub_x</text>
      <rect x="1236.7085" y="920.297" clip-path="url(#clipPath2)" fill="none" width="109.4901" stroke-dasharray="6,2" rx="4" ry="4" height="45"/>
    </g>
    <g fill="rgb(255,153,0)" text-rendering="geometricPrecision" shape-rendering="geometricPrecision" transform="matrix(1,0,0,1,-545,-649)" stroke="rgb(255,153,0)">
      <rect x="725.2325" width="109.4901" height="45" y="1032.797" clip-path="url(#clipPath2)" stroke="none"/>
    </g>
    <g text-rendering="geometricPrecision" stroke-miterlimit="1.45" shape-rendering="geometricPrecision" font-family="sans-serif" transform="matrix(1,0,0,1,-545,-649)" stroke-linecap="butt">
      <text x="757.6475" xml:space="preserve" y="1059.4513" clip-path="url(#clipPath2)" stroke="none">End_Z0</text>
      <rect fill="none" x="725.2325" width="109.4901" height="45" y="1032.797" clip-path="url(#clipPath2)"/>
    </g>
    <g fill="rgb(255,153,0)" text-rendering="geometricPrecision" shape-rendering="geometricPrecision" transform="matrix(1,0,0,1,-545,-649)" stroke="rgb(255,153,0)">
      <rect x="864.7226" y="1032.797" clip-path="url(#clipPath2)" width="109.4901" rx="4" ry="4" height="45" stroke="none"/>
    </g>
    <g text-rendering="geometricPrecision" stroke-miterlimit="1.45" shape-rendering="geometricPrecision" font-family="sans-serif" transform="matrix(1,0,0,1,-545,-649)" stroke-linecap="butt">
      <text x="879.287" xml:space="preserve" y="1059.4513" clip-path="url(#clipPath2)" stroke="none">End_Z0 (soft)</text>
      <rect x="864.7226" y="1032.797" clip-path="url(#clipPath2)" fill="none" width="109.4901" rx="4" ry="4" height="45"/>
    </g>
    <g fill="rgb(255,153,0)" text-rendering="geometricPrecision" shape-rendering="geometricPrecision" transform="matrix(1,0,0,1,-545,-649)" stroke="rgb(255,153,0)">
      <rect x="1143.7029" y="1032.797" clip-path="url(#clipPath2)" width="109.4901" rx="4" ry="4" height="45" stroke="none"/>
    </g>
    <g text-rendering="geometricPrecision" stroke-miterlimit="1.45" shape-rendering="geometricPrecision" font-family="sans-serif" transform="matrix(1,0,0,1,-545,-649)" stroke-linecap="butt">
      <text x="1157.9742" xml:space="preserve" y="1059.4513" clip-path="url(#clipPath2)" stroke="none">End_ZZ (soft)</text>
      <rect x="1143.7029" y="1032.797" clip-path="url(#clipPath2)" fill="none" width="109.4901" rx="4" ry="4" height="45"/>
    </g>
    <g fill="rgb(255,153,0)" text-rendering="geometricPrecision" shape-rendering="geometricPrecision" transform="matrix(1,0,0,1,-545,-649)" stroke="rgb(255,153,0)">
      <rect x="1283.193" width="109.4901" height="45" y="1032.797" clip-path="url(#clipPath2)" stroke="none"/>
    </g>
    <g text-rendering="geometricPrecision" stroke-miterlimit="1.45" shape-rendering="geometricPrecision" font-family="sans-serif" transform="matrix(1,0,0,1,-545,-649)" stroke-linecap="butt">
      <text x="1315.3151" xml:space="preserve" y="1059.4513" clip-path="url(#clipPath2)" stroke="none">End_ZZ</text>
      <rect fill="none" x="1283.193" width="109.4901" height="45" y="1032.797" clip-path="url(#clipPath2)"/>
    </g>
    <g fill="yellow" text-rendering="geometricPrecision" shape-rendering="geometricPrecision" transform="matrix(1,0,0,1,-545,-649)" stroke="yellow">
      <rect x="1376.1987" y="920.297" clip-path="url(#clipPath2)" width="109.4901" rx="4" ry="4" height="45" stroke="none"/>
    </g>
    <g text-rendering="geometricPrecision" stroke-miterlimit="1.45" shape-rendering="geometricPrecision" font-family="sans-serif" transform="matrix(1,0,0,1,-545,-649)" stroke-linecap="butt">
      <text x="1408.6136" xml:space="preserve" y="946.9513" clip-path="url(#clipPath2)" stroke="none">End_X0</text>
      <rect x="1376.1987" y="920.297" clip-path="url(#clipPath2)" fill="none" width="109.4901" stroke-dasharray="6,2" rx="4" ry="4" height="45"/>
    </g>
    <g fill="yellow" text-rendering="geometricPrecision" shape-rendering="geometricPrecision" transform="matrix(1,0,0,1,-545,-649)" stroke="yellow">
      <rect x="1376.1987" y="851.0564" clip-path="url(#clipPath2)" width="109.4901" rx="4" ry="4" height="45" stroke="none"/>
    </g>
    <g text-rendering="geometricPrecision" stroke-miterlimit="1.45" shape-rendering="geometricPrecision" font-family="sans-serif" transform="matrix(1,0,0,1,-545,-649)" stroke-linecap="butt">
      <text x="1390.7631" xml:space="preserve" y="877.7107" clip-path="url(#clipPath2)" stroke="none">End_X0 (soft)</text>
      <rect x="1376.1987" y="851.0564" clip-path="url(#clipPath2)" fill="none" width="109.4901" stroke-dasharray="6,2" rx="4" ry="4" height="45"/>
    </g>
    <g fill="yellow" text-rendering="geometricPrecision" shape-rendering="geometricPrecision" transform="matrix(1,0,0,1,-545,-649)" stroke="yellow">
      <rect x="1376.1987" y="776.0564" clip-path="url(#clipPath2)" width="109.4901" rx="4" ry="4" height="45" stroke="none"/>
    </g>
    <g text-rendering="geometricPrecision" stroke-miterlimit="1.45" shape-rendering="geometricPrecision" font-family="sans-serif" transform="matrix(1,0,0,1,-545,-649)" stroke-linecap="butt">
      <text x="1390.4701" xml:space="preserve" y="802.7107" clip-path="url(#clipPath2)" stroke="none">End_XX (soft)</text>
      <rect x="1376.1987" y="776.0564" clip-path="url(#clipPath2)" fill="none" width="109.4901" stroke-dasharray="6,2" rx="4" ry="4" height="45"/>
    </g>
    <g fill="yellow" text-rendering="geometricPrecision" shape-rendering="geometricPrecision" transform="matrix(1,0,0,1,-545,-649)" stroke="yellow">
      <rect x="1376.1987" y="701.0564" clip-path="url(#clipPath2)" width="109.4901" rx="4" ry="4" height="45" stroke="none"/>
    </g>
    <g text-rendering="geometricPrecision" stroke-miterlimit="1.45" shape-rendering="geometricPrecision" font-family="sans-serif" transform="matrix(1,0,0,1,-545,-649)" stroke-linecap="butt">
      <text x="1408.3207" xml:space="preserve" y="727.7107" clip-path="url(#clipPath2)" stroke="none">End_XX</text>
      <rect x="1376.1987" y="701.0564" clip-path="url(#clipPath2)" fill="none" width="109.4901" stroke-dasharray="6,2" rx="4" ry="4" height="45"/>
    </g>
    <g fill="rgb(255,102,0)" text-rendering="geometricPrecision" shape-rendering="geometricPrecision" transform="matrix(1,0,0,1,-545,-649)" stroke="rgb(255,102,0)">
      <rect x="575.9506" width="137.2876" height="45" y="852.797" clip-path="url(#clipPath2)" stroke="none"/>
    </g>
    <g text-rendering="geometricPrecision" stroke-miterlimit="1.45" shape-rendering="geometricPrecision" font-family="sans-serif" transform="matrix(1,0,0,1,-545,-649)" stroke-linecap="butt">
      <text x="590.5944" xml:space="preserve" y="879.4513" clip-path="url(#clipPath2)" stroke="none">Encoderauflösung</text>
      <rect fill="none" x="575.9506" width="137.2876" height="45" y="852.797" clip-path="url(#clipPath2)"/>
    </g>
    <g fill="rgb(255,102,0)" text-rendering="geometricPrecision" shape-rendering="geometricPrecision" transform="matrix(1,0,0,1,-545,-649)" stroke="rgb(255,102,0)">
      <rect x="575.9506" width="137.2876" height="45" y="927.797" clip-path="url(#clipPath2)" stroke="none"/>
    </g>
    <g text-rendering="geometricPrecision" stroke-miterlimit="1.45" shape-rendering="geometricPrecision" font-family="sans-serif" transform="matrix(1,0,0,1,-545,-649)" stroke-linecap="butt">
      <text x="627.9713" xml:space="preserve" y="954.4513" clip-path="url(#clipPath2)" stroke="none">Index</text>
      <rect fill="none" x="575.9506" width="137.2876" height="45" y="927.797" clip-path="url(#clipPath2)"/>
    </g>
    <g fill="rgb(255,153,0)" text-rendering="geometricPrecision" shape-rendering="geometricPrecision" transform="matrix(1,0,0,1,-545,-649)" stroke="rgb(255,153,0)">
      <rect x="746.627" width="137.2876" height="45" y="1107.797" clip-path="url(#clipPath2)" stroke="none"/>
    </g>
    <g text-rendering="geometricPrecision" stroke-miterlimit="1.45" shape-rendering="geometricPrecision" font-family="sans-serif" transform="matrix(1,0,0,1,-545,-649)" stroke-linecap="butt">
      <text x="792.0706" xml:space="preserve" y="1134.4513" clip-path="url(#clipPath2)" stroke="none">Steps/U</text>
      <rect fill="none" x="746.627" width="137.2876" height="45" y="1107.797" clip-path="url(#clipPath2)"/>
    </g>
    <g fill="rgb(255,153,0)" text-rendering="geometricPrecision" shape-rendering="geometricPrecision" transform="matrix(1,0,0,1,-545,-649)" stroke="rgb(255,153,0)">
      <rect x="919.0094" width="137.2876" height="45" y="1107.797" clip-path="url(#clipPath2)" stroke="none"/>
    </g>
    <g text-rendering="geometricPrecision" stroke-miterlimit="1.45" shape-rendering="geometricPrecision" font-family="sans-serif" transform="matrix(1,0,0,1,-545,-649)" stroke-linecap="butt">
      <text x="969.5507" xml:space="preserve" y="1134.4513" clip-path="url(#clipPath2)" stroke="none">mm/U</text>
      <rect fill="none" x="919.0094" width="137.2876" height="45" y="1107.797" clip-path="url(#clipPath2)"/>
    </g>
    <g fill="rgb(255,153,0)" text-rendering="geometricPrecision" shape-rendering="geometricPrecision" transform="matrix(1,0,0,1,-545,-649)" stroke="rgb(255,153,0)">
      <rect x="1091.9635" width="137.2876" height="45" y="1107.797" clip-path="url(#clipPath2)" stroke="none"/>
    </g>
    <g text-rendering="geometricPrecision" stroke-miterlimit="1.45" shape-rendering="geometricPrecision" font-family="sans-serif" transform="matrix(1,0,0,1,-545,-649)" stroke-linecap="butt">
      <text x="1097.7391" xml:space="preserve" y="1134.4513" clip-path="url(#clipPath2)" stroke="none">max Beschleunigung</text>
      <rect fill="none" x="1091.9635" width="137.2876" height="45" y="1107.797" clip-path="url(#clipPath2)"/>
    </g>
    <g fill="rgb(255,153,0)" text-rendering="geometricPrecision" shape-rendering="geometricPrecision" transform="matrix(1,0,0,1,-545,-649)" stroke="rgb(255,153,0)">
      <rect x="1264.9176" width="137.2876" height="45" y="1107.797" clip-path="url(#clipPath2)" stroke="none"/>
    </g>
    <g text-rendering="geometricPrecision" stroke-miterlimit="1.45" shape-rendering="geometricPrecision" font-family="sans-serif" transform="matrix(1,0,0,1,-545,-649)" stroke-linecap="butt">
      <text x="1288.8104" xml:space="preserve" y="1134.4513" clip-path="url(#clipPath2)" stroke="none">max. Frequenz</text>
      <rect fill="none" x="1264.9176" width="137.2876" height="45" y="1107.797" clip-path="url(#clipPath2)"/>
    </g>
    <g fill="yellow" text-rendering="geometricPrecision" shape-rendering="geometricPrecision" transform="matrix(1,0,0,1,-545,-649)" stroke="yellow">
      <rect x="1515.6888" width="137.2876" height="45" y="920.297" clip-path="url(#clipPath2)" stroke="none"/>
    </g>
    <g text-rendering="geometricPrecision" stroke-miterlimit="1.45" shape-rendering="geometricPrecision" font-family="sans-serif" transform="matrix(1,0,0,1,-545,-649)" stroke-linecap="butt">
      <text x="1561.1324" xml:space="preserve" y="946.9513" clip-path="url(#clipPath2)" stroke="none">Steps/U</text>
      <rect x="1515.6888" y="920.297" clip-path="url(#clipPath2)" fill="none" width="137.2876" stroke-dasharray="6,2" height="45"/>
    </g>
    <g fill="yellow" text-rendering="geometricPrecision" shape-rendering="geometricPrecision" transform="matrix(1,0,0,1,-545,-649)" stroke="yellow">
      <rect x="1515.6888" width="137.2876" height="45" y="851.0564" clip-path="url(#clipPath2)" stroke="none"/>
    </g>
    <g text-rendering="geometricPrecision" stroke-miterlimit="1.45" shape-rendering="geometricPrecision" font-family="sans-serif" transform="matrix(1,0,0,1,-545,-649)" stroke-linecap="butt">
      <text x="1566.2301" xml:space="preserve" y="877.7107" clip-path="url(#clipPath2)" stroke="none">mm/U</text>
      <rect x="1515.6888" y="851.0564" clip-path="url(#clipPath2)" fill="none" width="137.2876" stroke-dasharray="6,2" height="45"/>
    </g>
    <g fill="yellow" text-rendering="geometricPrecision" shape-rendering="geometricPrecision" transform="matrix(1,0,0,1,-545,-649)" stroke="yellow">
      <rect x="1515.6888" width="137.2876" height="45" y="776.0564" clip-path="url(#clipPath2)" stroke="none"/>
    </g>
    <g text-rendering="geometricPrecision" stroke-miterlimit="1.45" shape-rendering="geometricPrecision" font-family="sans-serif" transform="matrix(1,0,0,1,-545,-649)" stroke-linecap="butt">
      <text x="1521.4645" xml:space="preserve" y="802.7107" clip-path="url(#clipPath2)" stroke="none">max Beschleunigung</text>
      <rect x="1515.6888" y="776.0564" clip-path="url(#clipPath2)" fill="none" width="137.2876" stroke-dasharray="6,2" height="45"/>
    </g>
    <g fill="yellow" text-rendering="geometricPrecision" shape-rendering="geometricPrecision" transform="matrix(1,0,0,1,-545,-649)" stroke="yellow">
      <rect x="1515.6888" width="137.2876" height="45" y="701.0564" clip-path="url(#clipPath2)" stroke="none"/>
    </g>
    <g text-rendering="geometricPrecision" stroke-miterlimit="1.45" shape-rendering="geometricPrecision" font-family="sans-serif" transform="matrix(1,0,0,1,-545,-649)" stroke-linecap="butt">
      <text x="1539.5817" xml:space="preserve" y="727.7107" clip-path="url(#clipPath2)" stroke="none">max. Frequenz</text>
      <rect x="1515.6888" y="701.0564" clip-path="url(#clipPath2)" fill="none" width="137.2876" stroke-dasharray="6,2" height="45"/>
    </g>
    <g fill="rgb(255,153,0)" text-rendering="geometricPrecision" shape-rendering="geometricPrecision" transform="matrix(1,0,0,1,-545,-649)" stroke="rgb(255,153,0)">
      <rect x="812.9832" width="109.4901" height="45" y="957.797" clip-path="url(#clipPath2)" stroke="none"/>
    </g>
    <g text-rendering="geometricPrecision" stroke-miterlimit="1.45" shape-rendering="geometricPrecision" font-family="sans-serif" transform="matrix(1,0,0,1,-545,-649)" stroke-linecap="butt">
      <text x="830.0964" xml:space="preserve" y="984.4513" clip-path="url(#clipPath2)" stroke="none">Umkehrspiel</text>
      <rect fill="none" x="812.9832" width="109.4901" height="45" y="957.797" clip-path="url(#clipPath2)"/>
    </g>
    <g fill="yellow" text-rendering="geometricPrecision" shape-rendering="geometricPrecision" transform="matrix(1,0,0,1,-545,-649)" stroke="yellow">
      <rect x="1543.4863" width="109.4901" height="45" y="983.3056" clip-path="url(#clipPath2)" stroke="none"/>
    </g>
    <g text-rendering="geometricPrecision" stroke-miterlimit="1.45" shape-rendering="geometricPrecision" font-family="sans-serif" transform="matrix(1,0,0,1,-545,-649)" stroke-linecap="butt">
      <text x="1560.5995" xml:space="preserve" y="1009.9599" clip-path="url(#clipPath2)" stroke="none">Umkehrspiel</text>
      <rect x="1543.4863" y="983.3056" clip-path="url(#clipPath2)" fill="none" width="109.4901" stroke-dasharray="6,2" height="45"/>
    </g>
    <g fill="yellow" text-rendering="geometricPrecision" shape-rendering="geometricPrecision" transform="matrix(1,0,0,1,-545,-649)" stroke="yellow">
      <rect x="1182.9105" y="741.2019" clip-path="url(#clipPath2)" width="109.4901" rx="4" ry="4" height="45" stroke="none"/>
    </g>
    <g text-rendering="geometricPrecision" stroke-miterlimit="1.45" shape-rendering="geometricPrecision" font-family="sans-serif" transform="matrix(1,0,0,1,-545,-649)" stroke-linecap="butt">
      <text x="1221.2229" xml:space="preserve" y="767.8562" clip-path="url(#clipPath2)" stroke="none">Pos X</text>
      <rect x="1182.9105" y="741.2019" clip-path="url(#clipPath2)" fill="none" width="109.4901" stroke-dasharray="6,2" rx="4" ry="4" height="45"/>
    </g>
    <g fill="rgb(255,153,0)" text-rendering="geometricPrecision" shape-rendering="geometricPrecision" transform="matrix(1,0,0,1,-545,-649)" stroke="rgb(255,153,0)">
      <rect x="1004.2127" y="1032.797" clip-path="url(#clipPath2)" width="109.4901" rx="4" ry="4" height="45" stroke="none"/>
    </g>
    <g text-rendering="geometricPrecision" stroke-miterlimit="1.45" shape-rendering="geometricPrecision" font-family="sans-serif" transform="matrix(1,0,0,1,-545,-649)" stroke-linecap="butt">
      <text x="1009.6512" xml:space="preserve" y="1052.4669" clip-path="url(#clipPath2)" stroke="none">Wiederholungen</text>
      <text x="1053.0251" xml:space="preserve" y="1066.4357" clip-path="url(#clipPath2)" stroke="none">W</text>
      <rect x="1004.2127" y="1032.797" clip-path="url(#clipPath2)" fill="none" width="109.4901" rx="4" ry="4" height="45"/>
    </g>
    <g fill="rgb(255,153,0)" text-rendering="geometricPrecision" shape-rendering="geometricPrecision" transform="matrix(1,0,0,1,-545,-649)" stroke="rgb(255,153,0)">
      <rect x="952.4734" y="957.797" clip-path="url(#clipPath2)" width="109.4901" rx="4" ry="4" height="45" stroke="none"/>
    </g>
    <g text-rendering="geometricPrecision" stroke-miterlimit="1.45" shape-rendering="geometricPrecision" font-family="sans-serif" transform="matrix(1,0,0,1,-545,-649)" stroke-linecap="butt">
      <text x="970.8083" xml:space="preserve" y="984.4513" clip-path="url(#clipPath2)" stroke="none">Flankenlage</text>
      <rect x="952.4734" y="957.797" clip-path="url(#clipPath2)" fill="none" width="109.4901" rx="4" ry="4" height="45"/>
    </g>
    <g fill="yellow" text-rendering="geometricPrecision" shape-rendering="geometricPrecision" transform="matrix(1,0,0,1,-545,-649)" stroke="yellow">
      <rect x="1402.0293" y="983.3056" clip-path="url(#clipPath2)" width="109.4901" rx="4" ry="4" height="45" stroke="none"/>
    </g>
    <g text-rendering="geometricPrecision" stroke-miterlimit="1.45" shape-rendering="geometricPrecision" font-family="sans-serif" transform="matrix(1,0,0,1,-545,-649)" stroke-linecap="butt">
      <text x="1420.3641" xml:space="preserve" y="1009.9599" clip-path="url(#clipPath2)" stroke="none">Flankenlage</text>
      <rect x="1402.0293" y="983.3056" clip-path="url(#clipPath2)" fill="none" width="109.4901" stroke-dasharray="6,2" rx="4" ry="4" height="45"/>
    </g>
  </g>
</svg>
