%FSLAX35Y35*%
%MOIN*%
%IN7=Bestoeckungsdruckunten(X.GBO)*%
%ADD10C,0.00591*%
%ADD11C,0.00512*%
%ADD12C,0.00614*%
%ADD13C,0.00768*%
%ADD14C,0.00787*%
%ADD15C,0.01024*%
%ADD16C,0.01181*%
%ADD17C,0.01575*%
%ADD18C,0.01969*%
%ADD19C,0.02362*%
%ADD20C,0.02795*%
%ADD21C,0.03150*%
%ADD22C,0.03937*%
%ADD23C,0.06299*%
%ADD24C,0.12205*%
%ADD25C,0.13780*%
%ADD26C,0.14173*%
%AMR_27*21,1,0.00787,0.00787,0,0,0.000*%
%ADD27R_27*%
%AMR_28*21,1,0.01575,0.01575,0,0,0.000*%
%ADD28R_28*%
%AMR_29*21,1,0.01870,0.01870,0,0,0.000*%
%ADD29R_29*%
%AMR_30*21,1,0.01969,0.01969,0,0,0.000*%
%ADD30R_30*%
%AMR_31*21,1,0.02559,0.02559,0,0,0.000*%
%ADD31R_31*%
%AMR_32*21,1,0.03937,0.12441,0,0,180.000*%
%ADD32R_32*%
%AMR_33*21,1,0.04587,0.05433,0,0,90.000*%
%ADD33R_33*%
%AMR_34*21,1,0.05000,0.05000,0,0,0.000*%
%ADD34R_34*%
%AMR_35*21,1,0.05000,0.05000,0,0,90.000*%
%ADD35R_35*%
%AMR_36*21,1,0.05000,0.05000,0,0,270.000*%
%ADD36R_36*%
%AMR_37*21,1,0.05000,0.09843,0,0,270.000*%
%ADD37R_37*%
%AMR_38*21,1,0.05000,0.10000,0,0,90.000*%
%ADD38R_38*%
%AMR_39*21,1,0.05512,0.07087,0,0,90.000*%
%ADD39R_39*%
%AMR_40*21,1,0.12205,0.05118,0,0,90.000*%
%ADD40R_40*%
%AMR_41*21,1,0.12205,0.05118,0,0,180.000*%
%ADD41R_41*%
%AMR_42*21,1,0.19685,0.19685,0,0,0.000*%
%ADD42R_42*%
%AMOCT_43*4,1,8,0.023622,0.011811,0.011811,0.023622,-0.011811,0.023622,-0.023622,0.011811,-0.023622,-0.011811,-0.011811,-0.023622,0.011811,-0.023622,0.023622,-0.011811,0.023622,0.011811,0.000*%
%ADD43OCT_43*%
%AMOCT_44*4,1,8,0.029528,0.014764,0.014764,0.029528,-0.014764,0.029528,-0.029528,0.014764,-0.029528,-0.014764,-0.014764,-0.029528,0.014764,-0.029528,0.029528,-0.014764,0.029528,0.014764,0.000*%
%ADD44OCT_44*%
%AMOCT_45*4,1,8,0.031496,0.015748,0.015748,0.031496,-0.015748,0.031496,-0.031496,0.015748,-0.031496,-0.015748,-0.015748,-0.031496,0.015748,-0.031496,0.031496,-0.015748,0.031496,0.015748,-0.000*%
%ADD45OCT_45*%
%AMOCT_46*4,1,8,0.031496,0.015748,0.015748,0.031496,-0.015748,0.031496,-0.031496,0.015748,-0.031496,-0.015748,-0.015748,-0.031496,0.015748,-0.031496,0.031496,-0.015748,0.031496,0.015748,90.000*%
%ADD46OCT_46*%
%AMOCT_47*4,1,8,0.031496,0.015748,0.015748,0.031496,-0.015748,0.031496,-0.031496,0.015748,-0.031496,-0.015748,-0.015748,-0.031496,0.015748,-0.031496,0.031496,-0.015748,0.031496,0.015748,270.000*%
%ADD47OCT_47*%
%AMOCT_48*4,1,8,0.035433,0.017717,0.017717,0.035433,-0.017717,0.035433,-0.035433,0.017717,-0.035433,-0.017717,-0.017717,-0.035433,0.017717,-0.035433,0.035433,-0.017717,0.035433,0.017717,-0.000*%
%ADD48OCT_48*%
%AMOCT_49*4,1,8,0.035433,0.017717,0.017717,0.035433,-0.017717,0.035433,-0.035433,0.017717,-0.035433,-0.017717,-0.017717,-0.035433,0.017717,-0.035433,0.035433,-0.017717,0.035433,0.017717,180.000*%
%ADD49OCT_49*%
%AMOCT_50*4,1,8,0.035433,0.017717,0.017717,0.035433,-0.017717,0.035433,-0.035433,0.017717,-0.035433,-0.017717,-0.017717,-0.035433,0.017717,-0.035433,0.035433,-0.017717,0.035433,0.017717,270.000*%
%ADD50OCT_50*%
%AMOCT_51*4,1,8,0.037402,0.018701,0.018701,0.037402,-0.018701,0.037402,-0.037402,0.018701,-0.037402,-0.018701,-0.018701,-0.037402,0.018701,-0.037402,0.037402,-0.018701,0.037402,0.018701,180.000*%
%ADD51OCT_51*%
%AMOCT_52*4,1,8,0.039370,0.019685,0.019685,0.039370,-0.019685,0.039370,-0.039370,0.019685,-0.039370,-0.019685,-0.019685,-0.039370,0.019685,-0.039370,0.039370,-0.019685,0.039370,0.019685,0.000*%
%ADD52OCT_52*%
%AMOCT_53*4,1,8,0.041339,0.020669,0.020669,0.041339,-0.020669,0.041339,-0.041339,0.020669,-0.041339,-0.020669,-0.020669,-0.041339,0.020669,-0.041339,0.041339,-0.020669,0.041339,0.020669,180.000*%
%ADD53OCT_53*%
%AMOCT_54*4,1,8,0.051181,0.025591,0.025591,0.051181,-0.025591,0.051181,-0.051181,0.025591,-0.051181,-0.025591,-0.025591,-0.051181,0.025591,-0.051181,0.051181,-0.025591,0.051181,0.025591,180.000*%
%ADD54OCT_54*%
%AMOCT_55*4,1,8,0.063976,0.031988,0.031988,0.063976,-0.031988,0.063976,-0.063976,0.031988,-0.063976,-0.031988,-0.031988,-0.063976,0.031988,-0.063976,0.063976,-0.031988,0.063976,0.031988,180.000*%
%ADD55OCT_55*%
%AMO_56*20,1,0.03937,-0.00787,0.00000,0.00787,0.00000,0*1,1,0.03937,-0.00787,0.00000*1,1,0.03937,0.00787,0.00000*%
%ADD56O_56*%
%AMO_57*20,1,0.05000,-0.02421,0.00000,0.02421,0.00000,0*1,1,0.05000,-0.02421,0.00000*1,1,0.05000,0.02421,0.00000*%
%ADD57O_57*%
%AMO_58*20,1,0.05000,0.02500,0.00000,-0.02500,0.00000,0*1,1,0.05000,0.02500,0.00000*1,1,0.05000,-0.02500,0.00000*%
%ADD58O_58*%
%AMRR_59*21,1,0.06299,0.05039,0,0,-0.000*21,1,0.05039,0.06299,0,0,-0.000*1,1,0.01260,0.02520,0.02520*1,1,0.01260,-0.02520,-0.02520*1,1,0.01260,0.02520,-0.02520*1,1,0.01260,-0.02520,0.02520*%
%ADD59RR_59*%
%AMRR_60*21,1,0.06299,0.05039,0,0,90.000*21,1,0.05039,0.06299,0,0,90.000*1,1,0.01260,-0.02520,0.02520*1,1,0.01260,0.02520,-0.02520*1,1,0.01260,0.02520,0.02520*1,1,0.01260,-0.02520,-0.02520*%
%ADD60RR_60*%
%AMRR_61*21,1,0.06299,0.05039,0,0,270.000*21,1,0.05039,0.06299,0,0,270.000*1,1,0.01260,0.02520,-0.02520*1,1,0.01260,-0.02520,0.02520*1,1,0.01260,-0.02520,-0.02520*1,1,0.01260,0.02520,0.02520*%
%ADD61RR_61*%
G54D11*
X226895Y15994D02*
X223351Y15994D01*
X223351Y17569D01*
X226895Y18475D02*
X223351Y18475D01*
X223351Y20050D01*
X226895Y22018D02*
X224217Y20955D01*
X224217Y22372D01*
X224926Y22018D02*
X223351Y22018D01*
X226186Y23278D02*
X226895Y23987D01*
X223351Y23987D01*
X226895Y25955D02*
X224217Y24892D01*
X224217Y26309D01*
X224926Y25955D02*
X223351Y25955D01*
X224572Y28632D02*
X224060Y28632D01*
X224572Y27215D02*
X224926Y27310D01*
X225186Y27569D01*
X225280Y27924D01*
X225186Y28278D01*
X224926Y28537D01*
X224572Y28632D01*
X224060Y27215D02*
X224572Y27215D01*
X224060Y28632D02*
X223706Y28537D01*
X223446Y28278D01*
X223351Y27924D01*
X223446Y27569D01*
X223706Y27310D01*
X224060Y27215D01*
X226186Y28632D02*
X226029Y28632D01*
X226186Y27215D02*
X226540Y27310D01*
X226800Y27569D01*
X226895Y27924D01*
X226800Y28278D01*
X226540Y28537D01*
X226186Y28632D01*
X226029Y27215D02*
X226186Y27215D01*
X226029Y28632D02*
X225674Y28537D01*
X225415Y28278D01*
X225320Y27924D01*
X225415Y27569D01*
X225674Y27310D01*
X226029Y27215D01*
X135393Y99212D02*
X137165Y99212D01*
X137165Y100078D01*
X138956Y100078D02*
X138838Y100521D01*
X138513Y100845D01*
X138070Y100964D01*
X137627Y100845D01*
X137303Y100521D01*
X137185Y100078D01*
X138937Y100078D02*
X138937Y99212D01*
X137165Y99212D01*
X137716Y101889D02*
X136102Y101889D01*
X136102Y103307D02*
X135748Y103212D01*
X135488Y102952D01*
X135393Y102598D01*
X135488Y102244D01*
X135748Y101984D01*
X136102Y101889D01*
X137716Y103307D02*
X135393Y103307D01*
X138937Y104212D02*
X135905Y104212D01*
X135393Y104724D02*
X135462Y104468D01*
X135649Y104281D01*
X135905Y104212D01*
X138937Y105629D02*
X135905Y105629D01*
X135393Y106141D02*
X135462Y105885D01*
X135649Y105698D01*
X135905Y105629D01*
X137716Y107047D02*
X136102Y107047D01*
X136102Y108464D02*
X135748Y108369D01*
X135488Y108110D01*
X135393Y107755D01*
X135488Y107401D01*
X135748Y107142D01*
X136102Y107047D01*
X137716Y108464D02*
X135393Y108464D01*
X134330Y109370D02*
X137716Y109370D01*
X136102Y110787D02*
X135748Y110692D01*
X135488Y110433D01*
X135393Y110078D01*
X135488Y109724D01*
X135748Y109465D01*
X136102Y109370D01*
X136968Y110787D02*
X136102Y110787D01*
X136968Y109370D02*
X137322Y109465D01*
X137582Y109724D01*
X137677Y110078D01*
X137582Y110433D01*
X137322Y110692D01*
X136968Y110787D01*
X135393Y113385D02*
X138937Y113385D01*
X136456Y114606D01*
X138937Y115866D01*
X135393Y115866D01*
X135118Y120118D02*
X135118Y116771D01*
X135393Y121023D02*
X138937Y122244D01*
X135393Y123503D01*
X136456Y121377D02*
X136456Y123149D01*
X120127Y204399D02*
X120127Y207942D01*
X119222Y204399D02*
X119222Y206722D01*
X119222Y205974D02*
X119127Y206328D01*
X118868Y206588D01*
X118513Y206683D01*
X118159Y206588D01*
X117900Y206328D01*
X117805Y205974D01*
X117805Y204399D01*
X116899Y203336D02*
X116899Y206722D01*
X115482Y205108D02*
X115577Y204753D01*
X115836Y204494D01*
X116190Y204399D01*
X116545Y204494D01*
X116804Y204753D01*
X116899Y205108D01*
X115482Y205974D02*
X115482Y205108D01*
X116899Y205974D02*
X116804Y206328D01*
X116545Y206588D01*
X116190Y206683D01*
X115836Y206588D01*
X115577Y206328D01*
X115482Y205974D01*
X114576Y206722D02*
X114576Y205108D01*
X113159Y205108D02*
X113254Y204753D01*
X113513Y204494D01*
X113868Y204399D01*
X114222Y204494D01*
X114481Y204753D01*
X114576Y205108D01*
X113159Y206722D02*
X113159Y204399D01*
X112253Y206722D02*
X111190Y206722D01*
X111742Y207942D02*
X111742Y204911D01*
X111190Y204399D02*
X111459Y204460D01*
X111661Y204648D01*
X111742Y204911D01*
X108592Y204399D02*
X108592Y206171D01*
X107726Y206171D01*
X107726Y207962D02*
X107283Y207843D01*
X106959Y207519D01*
X106840Y207076D01*
X106959Y206633D01*
X107283Y206309D01*
X107726Y206190D01*
X107726Y207942D02*
X108592Y207942D01*
X108592Y206171D01*
X105915Y206722D02*
X105915Y205108D01*
X104498Y205108D02*
X104592Y204753D01*
X104852Y204494D01*
X105206Y204399D01*
X105561Y204494D01*
X105820Y204753D01*
X105915Y205108D01*
X104498Y206722D02*
X104498Y204399D01*
X103592Y207942D02*
X103592Y204911D01*
X103080Y204399D02*
X103336Y204468D01*
X103523Y204655D01*
X103592Y204911D01*
X102175Y207942D02*
X102175Y204911D01*
X101663Y204399D02*
X101919Y204468D01*
X102106Y204655D01*
X102175Y204911D01*
X100757Y206722D02*
X100757Y205108D01*
X99340Y205108D02*
X99435Y204753D01*
X99694Y204494D01*
X100049Y204399D01*
X100403Y204494D01*
X100662Y204753D01*
X100757Y205108D01*
X99340Y206722D02*
X99340Y204399D01*
X98435Y203336D02*
X98435Y206722D01*
X97017Y205108D02*
X97112Y204753D01*
X97372Y204494D01*
X97726Y204399D01*
X98080Y204494D01*
X98340Y204753D01*
X98435Y205108D01*
X97017Y205974D02*
X97017Y205108D01*
X98435Y205974D02*
X98340Y206328D01*
X98080Y206588D01*
X97726Y206683D01*
X97372Y206588D01*
X97112Y206328D01*
X97017Y205974D01*
X61466Y204399D02*
X61466Y207942D01*
X60561Y204399D02*
X60561Y206722D01*
X60561Y205974D02*
X60466Y206328D01*
X60206Y206588D01*
X59852Y206683D01*
X59498Y206588D01*
X59238Y206328D01*
X59143Y205974D01*
X59143Y204399D01*
X58238Y203336D02*
X58238Y206722D01*
X56820Y205108D02*
X56915Y204753D01*
X57175Y204494D01*
X57529Y204399D01*
X57883Y204494D01*
X58143Y204753D01*
X58238Y205108D01*
X56820Y205974D02*
X56820Y205108D01*
X58238Y205974D02*
X58143Y206328D01*
X57883Y206588D01*
X57529Y206683D01*
X57175Y206588D01*
X56915Y206328D01*
X56820Y205974D01*
X55915Y206722D02*
X55915Y205108D01*
X54498Y205108D02*
X54592Y204753D01*
X54852Y204494D01*
X55206Y204399D01*
X55561Y204494D01*
X55820Y204753D01*
X55915Y205108D01*
X54498Y206722D02*
X54498Y204399D01*
X53592Y206722D02*
X52529Y206722D01*
X53080Y207942D02*
X53080Y204911D01*
X52529Y204399D02*
X52797Y204460D01*
X52999Y204648D01*
X53080Y204911D01*
X49931Y204399D02*
X49931Y206171D01*
X49064Y206171D01*
X49064Y207962D02*
X48622Y207843D01*
X48297Y207519D01*
X48179Y207076D01*
X48297Y206633D01*
X48622Y206309D01*
X49064Y206190D01*
X49064Y207942D02*
X49931Y207942D01*
X49931Y206171D01*
X47253Y206722D02*
X47253Y205108D01*
X45836Y205108D02*
X45931Y204753D01*
X46190Y204494D01*
X46545Y204399D01*
X46899Y204494D01*
X47158Y204753D01*
X47253Y205108D01*
X45836Y206722D02*
X45836Y204399D01*
X44931Y207942D02*
X44931Y204911D01*
X44419Y204399D02*
X44675Y204468D01*
X44862Y204655D01*
X44931Y204911D01*
X43513Y207942D02*
X43513Y204911D01*
X43001Y204399D02*
X43257Y204468D01*
X43445Y204655D01*
X43513Y204911D01*
X42096Y206722D02*
X42096Y205108D01*
X40679Y205108D02*
X40774Y204753D01*
X41033Y204494D01*
X41387Y204399D01*
X41742Y204494D01*
X42001Y204753D01*
X42096Y205108D01*
X40679Y206722D02*
X40679Y204399D01*
X39773Y203336D02*
X39773Y206722D01*
X38356Y205108D02*
X38451Y204753D01*
X38710Y204494D01*
X39064Y204399D01*
X39419Y204494D01*
X39678Y204753D01*
X39773Y205108D01*
X38356Y205974D02*
X38356Y205108D01*
X39773Y205974D02*
X39678Y206328D01*
X39419Y206588D01*
X39064Y206683D01*
X38710Y206588D01*
X38451Y206328D01*
X38356Y205974D01*
X373868Y266210D02*
X373868Y269753D01*
X373001Y269753D01*
X373001Y269773D02*
X372559Y269654D01*
X372234Y269330D01*
X372116Y268887D01*
X372234Y268444D01*
X372559Y268120D01*
X373001Y268001D01*
X373001Y267982D02*
X373868Y267982D01*
X373001Y267982D02*
X372096Y266210D01*
X371190Y267982D02*
X369616Y267982D01*
X368730Y268887D02*
X368611Y269330D01*
X368287Y269654D01*
X367844Y269773D01*
X367401Y269654D01*
X367077Y269330D01*
X366958Y268887D01*
X368710Y268887D02*
X368710Y267076D01*
X366958Y267076D02*
X367077Y266633D01*
X367401Y266309D01*
X367844Y266190D01*
X368287Y266309D01*
X368611Y266633D01*
X368730Y267076D01*
X362923Y269753D02*
X362923Y266210D01*
X364340Y267785D02*
X364245Y268139D01*
X363986Y268399D01*
X363631Y268494D01*
X363277Y268399D01*
X363018Y268139D01*
X362923Y267785D01*
X364340Y267785D02*
X364340Y266919D01*
X362923Y266919D02*
X363018Y266564D01*
X363277Y266305D01*
X363631Y266210D01*
X363986Y266305D01*
X364245Y266564D01*
X364340Y266919D01*
X362017Y267431D02*
X360600Y267431D01*
X360600Y267785D01*
X362017Y267785D02*
X361922Y268139D01*
X361663Y268399D01*
X361309Y268494D01*
X360954Y268399D01*
X360695Y268139D01*
X360600Y267785D01*
X362017Y267785D02*
X362017Y266919D01*
X360639Y266683D02*
X360867Y266363D01*
X361230Y266214D01*
X361616Y266280D01*
X361909Y266542D01*
X362017Y266919D01*
X359694Y266210D02*
X359694Y269753D01*
X358277Y266919D02*
X358372Y266564D01*
X358631Y266305D01*
X358986Y266210D01*
X359340Y266305D01*
X359599Y266564D01*
X359694Y266919D01*
X358277Y267785D02*
X358277Y266919D01*
X359694Y267785D02*
X359599Y268139D01*
X359340Y268399D01*
X358986Y268494D01*
X358631Y268399D01*
X358372Y268139D01*
X358277Y267785D01*
X355954Y267785D02*
X355954Y266919D01*
X357372Y267785D02*
X357277Y268139D01*
X357017Y268399D01*
X356663Y268494D01*
X356309Y268399D01*
X356049Y268139D01*
X355954Y267785D01*
X357372Y266919D02*
X357372Y267785D01*
X355954Y266919D02*
X356049Y266564D01*
X356309Y266305D01*
X356663Y266210D01*
X357017Y266305D01*
X357277Y266564D01*
X357372Y266919D01*
X355049Y268533D02*
X355049Y266919D01*
X353631Y266919D02*
X353726Y266564D01*
X353986Y266305D01*
X354340Y266210D01*
X354694Y266305D01*
X354954Y266564D01*
X355049Y266919D01*
X353631Y268533D02*
X353631Y266210D01*
X352726Y266210D02*
X352726Y268533D01*
X352726Y267785D02*
X352631Y268139D01*
X352372Y268399D01*
X352017Y268494D01*
X351663Y268399D01*
X351403Y268139D01*
X351309Y267785D01*
X351309Y266210D01*
X350403Y267785D02*
X350308Y268139D01*
X350049Y268399D01*
X349694Y268494D01*
X349340Y268399D01*
X349081Y268139D01*
X348986Y267785D01*
X350403Y267785D02*
X350403Y266919D01*
X348986Y266919D02*
X349081Y266564D01*
X349340Y266305D01*
X349694Y266210D01*
X350049Y266305D01*
X350308Y266564D01*
X350403Y266919D01*
X348080Y267431D02*
X346663Y267431D01*
X346663Y267785D01*
X348080Y267785D02*
X347985Y268139D01*
X347726Y268399D01*
X347372Y268494D01*
X347017Y268399D01*
X346758Y268139D01*
X346663Y267785D01*
X348080Y267785D02*
X348080Y266919D01*
X346702Y266683D02*
X346930Y266363D01*
X347293Y266214D01*
X347679Y266280D01*
X347972Y266542D01*
X348080Y266919D01*
X78597Y85723D02*
X78478Y86166D01*
X78154Y86490D01*
X77711Y86609D01*
X77268Y86490D01*
X76944Y86166D01*
X76825Y85723D01*
X78577Y85723D02*
X78577Y83912D01*
X76825Y83912D02*
X76944Y83469D01*
X77268Y83145D01*
X77711Y83026D01*
X78154Y83145D01*
X78478Y83469D01*
X78597Y83912D01*
X76806Y83912D02*
X76806Y84817D01*
X77711Y84817D01*
X75900Y83046D02*
X75900Y86589D01*
X74128Y83046D01*
X74128Y86589D01*
X71451Y83912D02*
X71580Y83472D01*
X71911Y83155D01*
X72357Y83046D01*
X73223Y83046D01*
X73223Y86589D01*
X72357Y86589D01*
X71911Y86480D01*
X71580Y86163D01*
X71451Y85723D01*
X71451Y83912D01*
X55147Y83956D02*
X55238Y83610D01*
X55486Y83351D01*
X55829Y83247D01*
X56179Y83324D01*
X56446Y83562D01*
X55147Y83956D02*
X55147Y84665D01*
X56564Y84665D02*
X56470Y85019D01*
X56210Y85279D01*
X55856Y85374D01*
X55501Y85279D01*
X55242Y85019D01*
X55147Y84665D01*
X56564Y84665D02*
X56564Y86791D01*
X55147Y86791D01*
X54242Y86791D02*
X53375Y83248D01*
X52470Y86791D01*
G54D13*
X105043Y374350D02*
X105043Y377007D01*
X103744Y377007D01*
X103744Y379694D02*
X103235Y379593D01*
X102804Y379305D01*
X102516Y378874D01*
X102415Y378366D01*
X102516Y377857D01*
X102804Y377426D01*
X103235Y377138D01*
X103744Y377037D01*
X103744Y379665D02*
X105043Y379665D01*
X105043Y377007D01*
X101027Y379665D02*
X99728Y374350D01*
X98370Y379665D01*
X97011Y374350D01*
X95712Y379665D01*
X94354Y374350D02*
X94354Y379665D01*
X92523Y375944D01*
X90633Y379665D01*
X90633Y374350D01*
X89275Y378602D02*
X89170Y379063D01*
X88875Y379433D01*
X88449Y379638D01*
X87976Y379638D01*
X87549Y379433D01*
X87254Y379063D01*
X87149Y378602D01*
X89275Y374350D01*
X87149Y374350D01*
X294537Y349514D02*
X294031Y349402D01*
X293606Y349104D01*
X293327Y348667D01*
X293238Y348156D01*
X293238Y346857D01*
X298553Y346857D01*
X298553Y348156D01*
X298463Y348667D01*
X298184Y349104D01*
X297760Y349402D01*
X297253Y349514D01*
X294537Y349514D01*
X293238Y350873D02*
X296958Y350873D01*
X298021Y350873D02*
X298553Y350873D01*
X292706Y354357D02*
X292227Y354243D01*
X291851Y353926D01*
X291658Y353473D01*
X291689Y352981D01*
X291938Y352557D01*
X292352Y352290D01*
X292706Y354357D02*
X295600Y354357D01*
X295600Y352231D02*
X296061Y352336D01*
X296431Y352631D01*
X296636Y353057D01*
X296636Y353530D01*
X296431Y353957D01*
X296061Y354252D01*
X295600Y354357D01*
X295600Y352231D02*
X294301Y352231D01*
X294301Y354357D02*
X293839Y354252D01*
X293470Y353957D01*
X293264Y353530D01*
X293264Y353057D01*
X293470Y352631D01*
X293839Y352336D01*
X294301Y352231D01*
X293238Y355715D02*
X296958Y355715D01*
X298021Y355715D02*
X298553Y355715D01*
X297490Y357073D02*
X298553Y358136D01*
X293238Y358136D01*
X325123Y219799D02*
X324616Y219686D01*
X324192Y219389D01*
X323913Y218951D01*
X323823Y218440D01*
X323823Y217141D01*
X329138Y217141D01*
X329138Y218440D01*
X329049Y218951D01*
X328770Y219389D01*
X328345Y219686D01*
X327839Y219799D01*
X325123Y219799D01*
X323823Y221157D02*
X327544Y221157D01*
X328607Y221157D02*
X329138Y221157D01*
X323292Y224641D02*
X322813Y224527D01*
X322436Y224210D01*
X322243Y223757D01*
X322275Y223266D01*
X322524Y222841D01*
X322937Y222574D01*
X323292Y224641D02*
X326186Y224641D01*
X326186Y222515D02*
X326647Y222621D01*
X327017Y222915D01*
X327222Y223342D01*
X327222Y223815D01*
X327017Y224241D01*
X326647Y224536D01*
X326186Y224641D01*
X326186Y222515D02*
X324886Y222515D01*
X324886Y224641D02*
X324425Y224536D01*
X324055Y224241D01*
X323850Y223815D01*
X323850Y223342D01*
X324055Y222915D01*
X324425Y222621D01*
X324886Y222515D01*
X323823Y226000D02*
X327544Y226000D01*
X328607Y226000D02*
X329138Y226000D01*
X328075Y227358D02*
X328537Y227463D01*
X328906Y227758D01*
X329112Y228184D01*
X329112Y228657D01*
X328906Y229084D01*
X328537Y229378D01*
X328075Y229484D01*
X323823Y227358D01*
X323823Y229484D01*
X91598Y184192D02*
X91598Y186850D01*
X90299Y186850D01*
X90299Y189537D02*
X89790Y189436D01*
X89359Y189148D01*
X89071Y188717D01*
X88970Y188208D01*
X89071Y187700D01*
X89359Y187269D01*
X89790Y186981D01*
X90299Y186879D01*
X90299Y189507D02*
X91598Y189507D01*
X91598Y186850D01*
X85456Y186555D02*
X85456Y185255D01*
X87582Y186555D02*
X87477Y187016D01*
X87182Y187386D01*
X86756Y187591D01*
X86283Y187591D01*
X85856Y187386D01*
X85561Y187016D01*
X85456Y186555D01*
X87582Y185255D02*
X87582Y186555D01*
X85456Y185255D02*
X85561Y184794D01*
X85856Y184424D01*
X86283Y184219D01*
X86756Y184219D01*
X87182Y184424D01*
X87477Y184794D01*
X87582Y185255D01*
X84098Y187677D02*
X83035Y184192D01*
X81972Y187677D01*
X80909Y184192D01*
X79846Y187677D01*
X78488Y186023D02*
X76362Y186023D01*
X76362Y186555D01*
X78488Y186555D02*
X78382Y187016D01*
X78087Y187386D01*
X77661Y187591D01*
X77188Y187591D01*
X76762Y187386D01*
X76467Y187016D01*
X76362Y186555D01*
X78488Y186555D02*
X78488Y185255D01*
X76421Y184901D02*
X76688Y184487D01*
X77112Y184238D01*
X77604Y184207D01*
X78056Y184400D01*
X78374Y184776D01*
X78488Y185255D01*
X75003Y184192D02*
X75003Y187677D01*
X75003Y186850D02*
X74923Y187215D01*
X74684Y187504D01*
X74341Y187653D01*
X73968Y187631D01*
X73645Y187440D01*
X191455Y185442D02*
X189625Y190757D01*
X187735Y185442D01*
X190924Y187037D02*
X188266Y187037D01*
X186376Y185442D02*
X186376Y188927D01*
X186376Y187805D02*
X186271Y188266D01*
X185976Y188636D01*
X185550Y188841D01*
X185077Y188841D01*
X184651Y188636D01*
X184356Y188266D01*
X184250Y187805D01*
X184250Y185442D01*
X182892Y187805D02*
X182787Y188266D01*
X182492Y188636D01*
X182066Y188841D01*
X181593Y188841D01*
X181166Y188636D01*
X180872Y188266D01*
X180766Y187805D01*
X180888Y187410D01*
X181190Y187129D01*
X181593Y187037D01*
X182125Y187037D01*
X182125Y185413D02*
X182523Y185520D01*
X182815Y185812D01*
X182922Y186210D01*
X182815Y186609D01*
X182523Y186901D01*
X182125Y187007D01*
X182125Y185442D02*
X181593Y185442D01*
X180766Y186210D02*
X180888Y185815D01*
X181190Y185534D01*
X181593Y185442D01*
X180766Y187805D02*
X180766Y185974D01*
X180235Y185442D01*
X178876Y190757D02*
X178876Y186210D01*
X178109Y185442D02*
X178493Y185545D01*
X178774Y185826D01*
X178876Y186210D01*
X174625Y187805D02*
X174625Y186505D01*
X176750Y187805D02*
X176645Y188266D01*
X176350Y188636D01*
X175924Y188841D01*
X175451Y188841D01*
X175025Y188636D01*
X174730Y188266D01*
X174625Y187805D01*
X176750Y186505D02*
X176750Y187805D01*
X174625Y186505D02*
X174730Y186044D01*
X175025Y185674D01*
X175451Y185469D01*
X175924Y185469D01*
X176350Y185674D01*
X176645Y186044D01*
X176750Y186505D01*
X171140Y184911D02*
X171254Y184432D01*
X171571Y184055D01*
X172024Y183862D01*
X172516Y183894D01*
X172940Y184143D01*
X173207Y184557D01*
X171140Y184911D02*
X171140Y187805D01*
X173266Y187805D02*
X173161Y188266D01*
X172866Y188636D01*
X172440Y188841D01*
X171967Y188841D01*
X171540Y188636D01*
X171246Y188266D01*
X171140Y187805D01*
X173266Y187805D02*
X173266Y186505D01*
X171140Y186505D02*
X171246Y186044D01*
X171540Y185674D01*
X171967Y185469D01*
X172440Y185469D01*
X172866Y185674D01*
X173161Y186044D01*
X173266Y186505D01*
X167243Y185442D02*
X167243Y190757D01*
X165884Y185442D02*
X165884Y190757D01*
X163227Y185442D01*
X163227Y190757D01*
X161869Y189694D02*
X160806Y190757D01*
X160806Y185442D01*
X286860Y185836D02*
X285029Y191151D01*
X283139Y185836D01*
X286328Y187431D02*
X283671Y187431D01*
X281781Y185836D02*
X281781Y189320D01*
X281781Y188198D02*
X281676Y188660D01*
X281381Y189029D01*
X280955Y189235D01*
X280481Y189235D01*
X280055Y189029D01*
X279760Y188660D01*
X279655Y188198D01*
X279655Y185836D01*
X278297Y188198D02*
X278191Y188660D01*
X277897Y189029D01*
X277470Y189235D01*
X276997Y189235D01*
X276571Y189029D01*
X276276Y188660D01*
X276171Y188198D01*
X276292Y187804D01*
X276595Y187522D01*
X276998Y187431D01*
X277529Y187431D01*
X277529Y185807D02*
X277928Y185913D01*
X278219Y186205D01*
X278326Y186604D01*
X278219Y187002D01*
X277928Y187294D01*
X277529Y187401D01*
X277529Y185836D02*
X276998Y185836D01*
X276171Y186604D02*
X276292Y186209D01*
X276595Y185928D01*
X276998Y185836D01*
X276171Y188198D02*
X276171Y186368D01*
X275639Y185836D01*
X274281Y191151D02*
X274281Y186604D01*
X273513Y185836D02*
X273897Y185939D01*
X274178Y186220D01*
X274281Y186604D01*
X270029Y188198D02*
X270029Y186899D01*
X272155Y188198D02*
X272050Y188660D01*
X271755Y189029D01*
X271329Y189235D01*
X270855Y189235D01*
X270429Y189029D01*
X270134Y188660D01*
X270029Y188198D01*
X272155Y186899D02*
X272155Y188198D01*
X270029Y186899D02*
X270134Y186438D01*
X270429Y186068D01*
X270855Y185863D01*
X271329Y185863D01*
X271755Y186068D01*
X272050Y186438D01*
X272155Y186899D01*
X266545Y185305D02*
X266659Y184826D01*
X266976Y184449D01*
X267429Y184256D01*
X267920Y184287D01*
X268345Y184537D01*
X268612Y184950D01*
X266545Y185305D02*
X266545Y188198D01*
X268671Y188198D02*
X268565Y188660D01*
X268271Y189029D01*
X267844Y189235D01*
X267371Y189235D01*
X266945Y189029D01*
X266650Y188660D01*
X266545Y188198D01*
X268671Y188198D02*
X268671Y186899D01*
X266545Y186899D02*
X266650Y186438D01*
X266945Y186068D01*
X267371Y185863D01*
X267844Y185863D01*
X268271Y186068D01*
X268565Y186438D01*
X268671Y186899D01*
X262647Y185836D02*
X262647Y191151D01*
X261289Y185836D02*
X261289Y191151D01*
X258631Y185836D01*
X258631Y191151D01*
X257273Y190088D02*
X257168Y190549D01*
X256873Y190919D01*
X256447Y191124D01*
X255974Y191124D01*
X255547Y190919D01*
X255252Y190549D01*
X255147Y190088D01*
X257273Y185836D01*
X255147Y185836D01*
X282059Y378366D02*
X281957Y378874D01*
X281669Y379305D01*
X281238Y379593D01*
X280730Y379694D01*
X280221Y379593D01*
X279790Y379305D01*
X279502Y378874D01*
X279401Y378366D01*
X282029Y378366D02*
X282029Y375649D01*
X279401Y375649D02*
X279502Y375141D01*
X279790Y374710D01*
X280221Y374422D01*
X280730Y374320D01*
X281238Y374422D01*
X281669Y374710D01*
X281957Y375141D01*
X282059Y375649D01*
X275887Y376712D02*
X275887Y375413D01*
X278013Y376712D02*
X277908Y377173D01*
X277613Y377543D01*
X277187Y377748D01*
X276714Y377748D01*
X276288Y377543D01*
X275993Y377173D01*
X275887Y376712D01*
X278013Y375413D02*
X278013Y376712D01*
X275887Y375413D02*
X275993Y374952D01*
X276288Y374582D01*
X276714Y374377D01*
X277187Y374377D01*
X277613Y374582D01*
X277908Y374952D01*
X278013Y375413D01*
X274529Y374350D02*
X274529Y377834D01*
X274529Y376712D02*
X274424Y377173D01*
X274129Y377543D01*
X273703Y377748D01*
X273229Y377748D01*
X272803Y377543D01*
X272508Y377173D01*
X272403Y376712D01*
X272403Y374350D01*
X272403Y376712D02*
X272298Y377173D01*
X272003Y377543D01*
X271577Y377748D01*
X271104Y377748D01*
X270677Y377543D01*
X270382Y377173D01*
X270277Y376712D01*
X270277Y374350D01*
X268919Y374350D02*
X268919Y377834D01*
X268919Y376712D02*
X268814Y377173D01*
X268519Y377543D01*
X268092Y377748D01*
X267619Y377748D01*
X267193Y377543D01*
X266898Y377173D01*
X266793Y376712D01*
X266793Y374350D01*
X266793Y376712D02*
X266688Y377173D01*
X266393Y377543D01*
X265966Y377748D01*
X265493Y377748D01*
X265067Y377543D01*
X264772Y377173D01*
X264667Y376712D01*
X264667Y374350D01*
X263309Y377834D02*
X263309Y375413D01*
X261183Y375413D02*
X261288Y374952D01*
X261583Y374582D01*
X262009Y374377D01*
X262482Y374377D01*
X262908Y374582D01*
X263203Y374952D01*
X263309Y375413D01*
X261183Y377834D02*
X261183Y374350D01*
X259824Y374350D02*
X259824Y377834D01*
X259824Y376712D02*
X259719Y377173D01*
X259424Y377543D01*
X258998Y377748D01*
X258525Y377748D01*
X258099Y377543D01*
X257804Y377173D01*
X257698Y376712D01*
X257698Y374350D01*
X256340Y374350D02*
X256340Y378070D01*
X256340Y379133D02*
X256340Y379665D01*
X254982Y376712D02*
X254877Y377173D01*
X254582Y377543D01*
X254155Y377748D01*
X253682Y377748D01*
X253256Y377543D01*
X252961Y377173D01*
X252856Y376712D01*
X254982Y376712D02*
X254982Y375413D01*
X252856Y375413D02*
X252961Y374952D01*
X253256Y374582D01*
X253682Y374377D01*
X254155Y374377D01*
X254582Y374582D01*
X254877Y374952D01*
X254982Y375413D01*
X251498Y376712D02*
X251392Y377173D01*
X251097Y377543D01*
X250671Y377748D01*
X250198Y377748D01*
X249772Y377543D01*
X249477Y377173D01*
X249372Y376712D01*
X249493Y376317D01*
X249796Y376036D01*
X250198Y375944D01*
X250730Y375944D01*
X250730Y374320D02*
X251128Y374427D01*
X251420Y374719D01*
X251527Y375118D01*
X251420Y375516D01*
X251128Y375808D01*
X250730Y375915D01*
X250730Y374350D02*
X250198Y374350D01*
X249372Y375118D02*
X249493Y374723D01*
X249796Y374442D01*
X250198Y374350D01*
X249372Y376712D02*
X249372Y374881D01*
X248840Y374350D01*
X247482Y377834D02*
X245887Y377834D01*
X246714Y379665D02*
X246714Y375118D01*
X245887Y374350D02*
X246290Y374442D01*
X246593Y374723D01*
X246714Y375118D01*
X244529Y374350D02*
X244529Y378070D01*
X244529Y379133D02*
X244529Y379665D01*
X241045Y376712D02*
X241045Y375413D01*
X243171Y376712D02*
X243065Y377173D01*
X242771Y377543D01*
X242344Y377748D01*
X241871Y377748D01*
X241445Y377543D01*
X241150Y377173D01*
X241045Y376712D01*
X243171Y375413D02*
X243171Y376712D01*
X241045Y375413D02*
X241150Y374952D01*
X241445Y374582D01*
X241871Y374377D01*
X242344Y374377D01*
X242771Y374582D01*
X243065Y374952D01*
X243171Y375413D01*
X239687Y374350D02*
X239687Y377834D01*
X239687Y376712D02*
X239581Y377173D01*
X239286Y377543D01*
X238860Y377748D01*
X238387Y377748D01*
X237961Y377543D01*
X237666Y377173D01*
X237561Y376712D01*
X237561Y374350D01*
X190555Y374350D02*
X190555Y377007D01*
X189255Y377007D01*
X189255Y379694D02*
X188747Y379593D01*
X188316Y379305D01*
X188028Y378874D01*
X187927Y378366D01*
X188028Y377857D01*
X188316Y377426D01*
X188747Y377138D01*
X189255Y377037D01*
X189255Y379665D02*
X190555Y379665D01*
X190555Y377007D01*
X186539Y379665D02*
X185240Y374350D01*
X183881Y379665D01*
X182523Y374350D01*
X181224Y379665D01*
X179866Y374350D02*
X179866Y379665D01*
X178035Y375944D01*
X176145Y379665D01*
X176145Y374350D01*
X174787Y378602D02*
X173724Y379665D01*
X173724Y374350D01*
X337456Y351546D02*
X336995Y351441D01*
X336625Y351146D01*
X336420Y350719D01*
X336420Y350246D01*
X336625Y349820D01*
X336995Y349525D01*
X337456Y349420D01*
X338224Y351546D02*
X337456Y351546D01*
X339287Y350483D02*
X339206Y350890D01*
X338976Y351235D01*
X338631Y351465D01*
X338224Y351546D01*
X339287Y350188D02*
X339287Y350483D01*
X339287Y350188D01*
X340409Y351546D02*
X339989Y351474D01*
X339628Y351247D01*
X339382Y350899D01*
X339287Y350483D01*
X340645Y351546D02*
X340409Y351546D01*
X340645Y349420D02*
X341107Y349525D01*
X341477Y349820D01*
X341682Y350246D01*
X341682Y350719D01*
X341477Y351146D01*
X341107Y351441D01*
X340645Y351546D01*
X337456Y355030D02*
X336995Y354925D01*
X336625Y354630D01*
X336420Y354204D01*
X336420Y353731D01*
X336625Y353304D01*
X336995Y353009D01*
X337456Y352904D01*
X338224Y355030D02*
X337456Y355030D01*
X339287Y353967D02*
X339206Y354374D01*
X338976Y354719D01*
X338631Y354949D01*
X338224Y355030D01*
X339287Y353672D02*
X339287Y353967D01*
X339287Y353672D01*
X340409Y355030D02*
X339989Y354958D01*
X339628Y354731D01*
X339382Y354383D01*
X339287Y353967D01*
X340645Y355030D02*
X340409Y355030D01*
X340645Y352904D02*
X341107Y353009D01*
X341477Y353304D01*
X341682Y353731D01*
X341682Y354204D01*
X341477Y354630D01*
X341107Y354925D01*
X340645Y355030D01*
X340645Y358514D02*
X337456Y358514D01*
X340645Y356388D02*
X341107Y356494D01*
X341477Y356789D01*
X341682Y357215D01*
X341682Y357688D01*
X341477Y358114D01*
X341107Y358409D01*
X340645Y358514D01*
X337456Y356388D02*
X340645Y356388D01*
X337456Y358514D02*
X336995Y358409D01*
X336625Y358114D01*
X336420Y357688D01*
X336420Y357215D01*
X336625Y356789D01*
X336995Y356494D01*
X337456Y356388D01*
X349789Y351546D02*
X349328Y351441D01*
X348958Y351146D01*
X348753Y350719D01*
X348753Y350246D01*
X348958Y349820D01*
X349328Y349525D01*
X349789Y349420D01*
X350557Y351546D02*
X349789Y351546D01*
X351620Y350483D02*
X351539Y350890D01*
X351309Y351235D01*
X350964Y351465D01*
X350557Y351546D01*
X351620Y350188D02*
X351620Y350483D01*
X351620Y350188D01*
X352742Y351546D02*
X352322Y351474D01*
X351961Y351247D01*
X351714Y350899D01*
X351620Y350483D01*
X352978Y351546D02*
X352742Y351546D01*
X352978Y349420D02*
X353439Y349525D01*
X353809Y349820D01*
X354014Y350246D01*
X354014Y350719D01*
X353809Y351146D01*
X353439Y351441D01*
X352978Y351546D01*
X349789Y355030D02*
X349328Y354925D01*
X348958Y354630D01*
X348753Y354204D01*
X348753Y353731D01*
X348958Y353304D01*
X349328Y353009D01*
X349789Y352904D01*
X350557Y355030D02*
X349789Y355030D01*
X351620Y353967D02*
X351539Y354374D01*
X351309Y354719D01*
X350964Y354949D01*
X350557Y355030D01*
X351620Y353672D02*
X351620Y353967D01*
X351620Y353672D01*
X352742Y355030D02*
X352322Y354958D01*
X351961Y354731D01*
X351714Y354383D01*
X351620Y353967D01*
X352978Y355030D02*
X352742Y355030D01*
X352978Y352904D02*
X353439Y353009D01*
X353809Y353304D01*
X354014Y353731D01*
X354014Y354204D01*
X353809Y354630D01*
X353439Y354925D01*
X352978Y355030D01*
X352978Y358514D02*
X349789Y358514D01*
X352978Y356388D02*
X353439Y356494D01*
X353809Y356789D01*
X354014Y357215D01*
X354014Y357688D01*
X353809Y358114D01*
X353439Y358409D01*
X352978Y358514D01*
X349789Y356388D02*
X352978Y356388D01*
X349789Y358514D02*
X349328Y358409D01*
X348958Y358114D01*
X348753Y357688D01*
X348753Y357215D01*
X348958Y356789D01*
X349328Y356494D01*
X349789Y356388D01*
X364819Y351546D02*
X364357Y351441D01*
X363988Y351146D01*
X363782Y350719D01*
X363782Y350246D01*
X363988Y349820D01*
X364357Y349525D01*
X364819Y349420D01*
X365586Y351546D02*
X364819Y351546D01*
X366649Y350483D02*
X366568Y350890D01*
X366338Y351235D01*
X365993Y351465D01*
X365586Y351546D01*
X366649Y350188D02*
X366649Y350483D01*
X366649Y350188D01*
X367771Y351546D02*
X367351Y351474D01*
X366990Y351247D01*
X366744Y350899D01*
X366649Y350483D01*
X368008Y351546D02*
X367771Y351546D01*
X368008Y349420D02*
X368469Y349525D01*
X368839Y349820D01*
X369044Y350246D01*
X369044Y350719D01*
X368839Y351146D01*
X368469Y351441D01*
X368008Y351546D01*
X364819Y355030D02*
X364357Y354925D01*
X363988Y354630D01*
X363782Y354204D01*
X363782Y353731D01*
X363988Y353304D01*
X364357Y353009D01*
X364819Y352904D01*
X365586Y355030D02*
X364819Y355030D01*
X366649Y353967D02*
X366568Y354374D01*
X366338Y354719D01*
X365993Y354949D01*
X365586Y355030D01*
X366649Y353672D02*
X366649Y353967D01*
X366649Y353672D01*
X367771Y355030D02*
X367351Y354958D01*
X366990Y354731D01*
X366744Y354383D01*
X366649Y353967D01*
X368008Y355030D02*
X367771Y355030D01*
X368008Y352904D02*
X368469Y353009D01*
X368839Y353304D01*
X369044Y353731D01*
X369044Y354204D01*
X368839Y354630D01*
X368469Y354925D01*
X368008Y355030D01*
X368008Y358514D02*
X364819Y358514D01*
X368008Y356388D02*
X368469Y356494D01*
X368839Y356789D01*
X369044Y357215D01*
X369044Y357688D01*
X368839Y358114D01*
X368469Y358409D01*
X368008Y358514D01*
X364819Y356388D02*
X368008Y356388D01*
X364819Y358514D02*
X364357Y358409D01*
X363988Y358114D01*
X363782Y357688D01*
X363782Y357215D01*
X363988Y356789D01*
X364357Y356494D01*
X364819Y356388D01*
X378505Y351187D02*
X378044Y351081D01*
X377674Y350786D01*
X377468Y350360D01*
X377468Y349887D01*
X377674Y349461D01*
X378044Y349166D01*
X378505Y349061D01*
X379272Y351187D02*
X378505Y351187D01*
X380335Y350124D02*
X380255Y350530D01*
X380024Y350875D01*
X379679Y351106D01*
X379272Y351187D01*
X380335Y349828D02*
X380335Y350124D01*
X380335Y349828D01*
X381457Y351187D02*
X381037Y351115D01*
X380676Y350888D01*
X380430Y350540D01*
X380335Y350124D01*
X381694Y351187D02*
X381457Y351187D01*
X381694Y349061D02*
X382155Y349166D01*
X382525Y349461D01*
X382730Y349887D01*
X382730Y350360D01*
X382525Y350786D01*
X382155Y351081D01*
X381694Y351187D01*
X378505Y354671D02*
X378044Y354566D01*
X377674Y354271D01*
X377468Y353844D01*
X377468Y353371D01*
X377674Y352945D01*
X378044Y352650D01*
X378505Y352545D01*
X379272Y354671D02*
X378505Y354671D01*
X380335Y353608D02*
X380255Y354015D01*
X380024Y354360D01*
X379679Y354590D01*
X379272Y354671D01*
X380335Y353313D02*
X380335Y353608D01*
X380335Y353313D01*
X381457Y354671D02*
X381037Y354599D01*
X380676Y354372D01*
X380430Y354024D01*
X380335Y353608D01*
X381694Y354671D02*
X381457Y354671D01*
X381694Y352545D02*
X382155Y352650D01*
X382525Y352945D01*
X382730Y353371D01*
X382730Y353844D01*
X382525Y354271D01*
X382155Y354566D01*
X381694Y354671D01*
X381694Y358155D02*
X378505Y358155D01*
X381694Y356029D02*
X382155Y356134D01*
X382525Y356429D01*
X382730Y356856D01*
X382730Y357329D01*
X382525Y357755D01*
X382155Y358050D01*
X381694Y358155D01*
X378505Y356029D02*
X381694Y356029D01*
X378505Y358155D02*
X378044Y358050D01*
X377674Y357755D01*
X377468Y357329D01*
X377468Y356856D01*
X377674Y356429D01*
X378044Y356134D01*
X378505Y356029D01*
X375289Y272774D02*
X374827Y272669D01*
X374457Y272374D01*
X374252Y271948D01*
X374252Y271474D01*
X374457Y271048D01*
X374827Y270753D01*
X375289Y270648D01*
X376056Y272774D02*
X375289Y272774D01*
X377119Y271711D02*
X377038Y272118D01*
X376808Y272463D01*
X376463Y272693D01*
X376056Y272774D01*
X377119Y271416D02*
X377119Y271711D01*
X377119Y271416D01*
X378241Y272774D02*
X377821Y272702D01*
X377460Y272475D01*
X377214Y272127D01*
X377119Y271711D01*
X378478Y272774D02*
X378241Y272774D01*
X378478Y270648D02*
X378939Y270753D01*
X379309Y271048D01*
X379514Y271474D01*
X379514Y271948D01*
X379309Y272374D01*
X378939Y272669D01*
X378478Y272774D01*
X375289Y276258D02*
X374827Y276153D01*
X374457Y275858D01*
X374252Y275432D01*
X374252Y274959D01*
X374457Y274532D01*
X374827Y274237D01*
X375289Y274132D01*
X376056Y276258D02*
X375289Y276258D01*
X377119Y275195D02*
X377038Y275602D01*
X376808Y275947D01*
X376463Y276177D01*
X376056Y276258D01*
X377119Y274900D02*
X377119Y275195D01*
X377119Y274900D01*
X378241Y276258D02*
X377821Y276186D01*
X377460Y275959D01*
X377214Y275611D01*
X377119Y275195D01*
X378478Y276258D02*
X378241Y276258D01*
X378478Y274132D02*
X378939Y274237D01*
X379309Y274532D01*
X379514Y274959D01*
X379514Y275432D01*
X379309Y275858D01*
X378939Y276153D01*
X378478Y276258D01*
X378478Y279742D02*
X375289Y279742D01*
X378478Y277616D02*
X378939Y277722D01*
X379309Y278017D01*
X379514Y278443D01*
X379514Y278916D01*
X379309Y279342D01*
X378939Y279637D01*
X378478Y279742D01*
X375289Y277616D02*
X378478Y277616D01*
X375289Y279742D02*
X374827Y279637D01*
X374457Y279342D01*
X374252Y278916D01*
X374252Y278443D01*
X374457Y278017D01*
X374827Y277722D01*
X375289Y277616D01*
X174207Y275565D02*
X179522Y277396D01*
X174207Y279286D01*
X175802Y276097D02*
X175802Y278754D01*
X174207Y280644D02*
X179522Y280644D01*
X175802Y282475D01*
X179522Y284365D01*
X174207Y284365D01*
X178459Y285723D02*
X178920Y285828D01*
X179290Y286123D01*
X179495Y286549D01*
X179495Y287022D01*
X179290Y287449D01*
X178920Y287744D01*
X178459Y287849D01*
X174207Y285723D01*
X174207Y287849D01*
X178459Y289207D02*
X178920Y289312D01*
X179290Y289607D01*
X179495Y290034D01*
X179495Y290507D01*
X179290Y290933D01*
X178920Y291228D01*
X178459Y291333D01*
X178459Y289207D02*
X175270Y289207D01*
X175270Y291333D02*
X174809Y291228D01*
X174439Y290933D01*
X174234Y290507D01*
X174234Y290034D01*
X174439Y289607D01*
X174809Y289312D01*
X175270Y289207D01*
X175270Y291333D02*
X176333Y291333D01*
X176333Y289207D02*
X176794Y289312D01*
X177164Y289607D01*
X177370Y290034D01*
X177370Y290507D01*
X177164Y290933D01*
X176794Y291228D01*
X176333Y291333D01*
X179522Y292691D02*
X174207Y292691D01*
X174207Y295054D01*
X176865Y297711D02*
X176987Y297147D01*
X177333Y296685D01*
X177840Y296408D01*
X178416Y296367D01*
X178957Y296568D01*
X179366Y296977D01*
X179567Y297518D01*
X179526Y298094D01*
X179249Y298601D01*
X178787Y298947D01*
X178223Y299069D01*
X176865Y297711D02*
X176757Y298266D01*
X176428Y298725D01*
X175939Y299007D01*
X175376Y299059D01*
X174843Y298874D01*
X174435Y298483D01*
X174226Y297959D01*
X174253Y297395D01*
X174513Y296893D01*
X174957Y296544D01*
X175506Y296412D01*
X175270Y302554D02*
X174809Y302448D01*
X174439Y302153D01*
X174234Y301727D01*
X174234Y301254D01*
X174439Y300828D01*
X174809Y300533D01*
X175270Y300428D01*
X176038Y302554D02*
X175270Y302554D01*
X177101Y301491D02*
X177020Y301897D01*
X176790Y302242D01*
X176445Y302473D01*
X176038Y302554D01*
X177101Y301195D02*
X177101Y301491D01*
X177101Y301195D01*
X178223Y302554D02*
X177803Y302482D01*
X177442Y302255D01*
X177195Y301907D01*
X177101Y301491D01*
X178459Y302554D02*
X178223Y302554D01*
X178459Y300428D02*
X178920Y300533D01*
X179290Y300828D01*
X179495Y301254D01*
X179495Y301727D01*
X179290Y302153D01*
X178920Y302448D01*
X178459Y302554D01*
X178459Y303912D02*
X178920Y304017D01*
X179290Y304312D01*
X179495Y304738D01*
X179495Y305211D01*
X179290Y305638D01*
X178920Y305933D01*
X178459Y306038D01*
X174207Y303912D01*
X174207Y306038D01*
X109016Y223094D02*
X107953Y224157D01*
X107953Y218842D01*
X104469Y223094D02*
X104469Y219905D01*
X106595Y223094D02*
X106490Y223555D01*
X106195Y223925D01*
X105769Y224130D01*
X105296Y224130D01*
X104869Y223925D01*
X104574Y223555D01*
X104469Y223094D01*
X106595Y219905D02*
X106595Y223094D01*
X104469Y219905D02*
X104574Y219443D01*
X104869Y219074D01*
X105296Y218868D01*
X105769Y218868D01*
X106195Y219074D01*
X106490Y219443D01*
X106595Y219905D01*
X103111Y218842D02*
X103111Y224157D01*
X103111Y220672D02*
X100453Y224157D01*
X102048Y222031D02*
X100453Y218842D01*
X79070Y230982D02*
X81728Y230982D01*
X81728Y233639D01*
X81728Y230982D02*
X84385Y230982D01*
X84385Y233639D02*
X79070Y233639D01*
X83086Y234968D02*
X83595Y235069D01*
X84026Y235357D01*
X84314Y235788D01*
X84415Y236297D01*
X84314Y236805D01*
X84026Y237236D01*
X83595Y237524D01*
X83086Y237625D01*
X83086Y234998D02*
X80370Y234998D01*
X80370Y237625D02*
X79861Y237524D01*
X79430Y237236D01*
X79142Y236805D01*
X79041Y236297D01*
X79142Y235788D01*
X79430Y235357D01*
X79861Y235069D01*
X80370Y234968D01*
X79070Y239013D02*
X81728Y239013D01*
X81728Y240312D01*
X84415Y240312D02*
X84314Y240821D01*
X84026Y241252D01*
X83595Y241540D01*
X83086Y241641D01*
X82578Y241540D01*
X82147Y241252D01*
X81859Y240821D01*
X81757Y240312D01*
X84385Y240312D02*
X84385Y239013D01*
X81728Y239013D01*
X84385Y243029D02*
X79070Y243029D01*
X79070Y245391D01*
X81728Y246750D02*
X81728Y249112D01*
X83322Y250470D02*
X83784Y250575D01*
X84153Y250870D01*
X84359Y251296D01*
X84359Y251770D01*
X84153Y252196D01*
X83784Y252491D01*
X83322Y252596D01*
X79070Y250470D01*
X79070Y252596D01*
X83322Y253954D02*
X83784Y254059D01*
X84153Y254354D01*
X84359Y254781D01*
X84359Y255254D01*
X84153Y255680D01*
X83784Y255975D01*
X83322Y256080D01*
X83322Y253954D02*
X80133Y253954D01*
X80133Y256080D02*
X79672Y255975D01*
X79302Y255680D01*
X79097Y255254D01*
X79097Y254781D01*
X79302Y254354D01*
X79672Y254059D01*
X80133Y253954D01*
X80133Y256080D02*
X81196Y256080D01*
X81196Y253954D02*
X81658Y254059D01*
X82027Y254354D01*
X82233Y254781D01*
X82233Y255254D01*
X82027Y255680D01*
X81658Y255975D01*
X81196Y256080D01*
X80133Y259564D02*
X79672Y259459D01*
X79302Y259164D01*
X79097Y258738D01*
X79097Y258265D01*
X79302Y257839D01*
X79672Y257544D01*
X80133Y257438D01*
X80901Y259564D02*
X80133Y259564D01*
X81964Y258501D02*
X81883Y258908D01*
X81653Y259253D01*
X81308Y259484D01*
X80901Y259564D01*
X81964Y258206D02*
X81964Y258501D01*
X81964Y258206D01*
X83086Y259564D02*
X82666Y259493D01*
X82305Y259265D01*
X82058Y258917D01*
X81964Y258501D01*
X83322Y259564D02*
X83086Y259564D01*
X83322Y257438D02*
X83784Y257544D01*
X84153Y257839D01*
X84359Y258265D01*
X84359Y258738D01*
X84153Y259164D01*
X83784Y259459D01*
X83322Y259564D01*
X83322Y263049D02*
X80133Y263049D01*
X83322Y260923D02*
X83784Y261028D01*
X84153Y261323D01*
X84359Y261749D01*
X84359Y262222D01*
X84153Y262648D01*
X83784Y262943D01*
X83322Y263049D01*
X80133Y260923D02*
X83322Y260923D01*
X80133Y263049D02*
X79672Y262943D01*
X79302Y262648D01*
X79097Y262222D01*
X79097Y261749D01*
X79302Y261323D01*
X79672Y261028D01*
X80133Y260923D01*
X79070Y275273D02*
X81728Y275273D01*
X81728Y277931D01*
X81728Y275273D02*
X84385Y275273D01*
X84385Y277931D02*
X79070Y277931D01*
X83086Y279259D02*
X83595Y279360D01*
X84026Y279649D01*
X84314Y280080D01*
X84415Y280588D01*
X84314Y281097D01*
X84026Y281528D01*
X83595Y281816D01*
X83086Y281917D01*
X83086Y279289D02*
X80370Y279289D01*
X80370Y281917D02*
X79861Y281816D01*
X79430Y281528D01*
X79142Y281097D01*
X79041Y280588D01*
X79142Y280080D01*
X79430Y279649D01*
X79861Y279360D01*
X80370Y279259D01*
X79070Y283305D02*
X81728Y283305D01*
X81728Y284604D01*
X84415Y284604D02*
X84314Y285112D01*
X84026Y285543D01*
X83595Y285831D01*
X83086Y285933D01*
X82578Y285831D01*
X82147Y285543D01*
X81859Y285112D01*
X81757Y284604D01*
X84385Y284604D02*
X84385Y283305D01*
X81728Y283305D01*
X84385Y287320D02*
X79070Y287320D01*
X79070Y289683D01*
X81728Y291041D02*
X81728Y293403D01*
X83322Y294761D02*
X83784Y294867D01*
X84153Y295162D01*
X84359Y295588D01*
X84359Y296061D01*
X84153Y296487D01*
X83784Y296782D01*
X83322Y296887D01*
X79070Y294761D01*
X79070Y296887D01*
X83322Y298246D02*
X83784Y298351D01*
X84153Y298646D01*
X84359Y299072D01*
X84359Y299545D01*
X84153Y299971D01*
X83784Y300266D01*
X83322Y300372D01*
X83322Y298246D02*
X80133Y298246D01*
X80133Y300372D02*
X79672Y300266D01*
X79302Y299971D01*
X79097Y299545D01*
X79097Y299072D01*
X79302Y298646D01*
X79672Y298351D01*
X80133Y298246D01*
X80133Y300372D02*
X81196Y300372D01*
X81196Y298246D02*
X81658Y298351D01*
X82027Y298646D01*
X82233Y299072D01*
X82233Y299545D01*
X82027Y299971D01*
X81658Y300266D01*
X81196Y300372D01*
X80133Y303856D02*
X79672Y303751D01*
X79302Y303456D01*
X79097Y303029D01*
X79097Y302556D01*
X79302Y302130D01*
X79672Y301835D01*
X80133Y301730D01*
X80901Y303856D02*
X80133Y303856D01*
X81964Y302793D02*
X81883Y303200D01*
X81653Y303544D01*
X81308Y303775D01*
X80901Y303856D01*
X81964Y302498D02*
X81964Y302793D01*
X81964Y302498D01*
X83086Y303856D02*
X82666Y303784D01*
X82305Y303557D01*
X82058Y303209D01*
X81964Y302793D01*
X83322Y303856D02*
X83086Y303856D01*
X83322Y301730D02*
X83784Y301835D01*
X84153Y302130D01*
X84359Y302556D01*
X84359Y303029D01*
X84153Y303456D01*
X83784Y303751D01*
X83322Y303856D01*
X83322Y307340D02*
X80133Y307340D01*
X83322Y305214D02*
X83784Y305319D01*
X84153Y305614D01*
X84359Y306041D01*
X84359Y306514D01*
X84153Y306940D01*
X83784Y307235D01*
X83322Y307340D01*
X80133Y305214D02*
X83322Y305214D01*
X80133Y307340D02*
X79672Y307235D01*
X79302Y306940D01*
X79097Y306514D01*
X79097Y306041D01*
X79302Y305614D01*
X79672Y305319D01*
X80133Y305214D01*
X109671Y122865D02*
X110734Y123928D01*
X105419Y123928D01*
X109671Y127412D02*
X106482Y127412D01*
X109671Y125286D02*
X110132Y125391D01*
X110502Y125686D01*
X110707Y126113D01*
X110707Y126586D01*
X110502Y127012D01*
X110132Y127307D01*
X109671Y127412D01*
X106482Y125286D02*
X109671Y125286D01*
X106482Y127412D02*
X106021Y127307D01*
X105651Y127012D01*
X105446Y126586D01*
X105446Y126113D01*
X105651Y125686D01*
X106021Y125391D01*
X106482Y125286D01*
X105419Y128770D02*
X110734Y128770D01*
X107250Y128770D02*
X110734Y131428D01*
X108608Y129833D02*
X105419Y131428D01*
X120173Y122865D02*
X121236Y123928D01*
X115921Y123928D01*
X120173Y127412D02*
X116984Y127412D01*
X120173Y125286D02*
X120634Y125391D01*
X121004Y125686D01*
X121209Y126113D01*
X121209Y126586D01*
X121004Y127012D01*
X120634Y127307D01*
X120173Y127412D01*
X116984Y125286D02*
X120173Y125286D01*
X116984Y127412D02*
X116523Y127307D01*
X116153Y127012D01*
X115948Y126586D01*
X115948Y126113D01*
X116153Y125686D01*
X116523Y125391D01*
X116984Y125286D01*
X115921Y128770D02*
X121236Y128770D01*
X117752Y128770D02*
X121236Y131428D01*
X119110Y129833D02*
X115921Y131428D01*
X129425Y122865D02*
X130488Y123928D01*
X125173Y123928D01*
X129425Y127412D02*
X126236Y127412D01*
X129425Y125286D02*
X129886Y125391D01*
X130256Y125686D01*
X130461Y126113D01*
X130461Y126586D01*
X130256Y127012D01*
X129886Y127307D01*
X129425Y127412D01*
X126236Y125286D02*
X129425Y125286D01*
X126236Y127412D02*
X125775Y127307D01*
X125405Y127012D01*
X125200Y126586D01*
X125200Y126113D01*
X125405Y125686D01*
X125775Y125391D01*
X126236Y125286D01*
X125173Y128770D02*
X130488Y128770D01*
X127004Y128770D02*
X130488Y131428D01*
X128362Y129833D02*
X125173Y131428D01*
X373809Y168459D02*
X371151Y168459D01*
X372509Y168459D02*
X372509Y163144D01*
X369793Y166628D02*
X368730Y163144D01*
X367667Y166628D01*
X366604Y163144D01*
X365541Y166628D01*
X364183Y164975D02*
X362057Y164975D01*
X362057Y165506D01*
X364183Y165506D02*
X364077Y165968D01*
X363782Y166337D01*
X363356Y166543D01*
X362883Y166543D01*
X362457Y166337D01*
X362162Y165968D01*
X362057Y165506D01*
X364183Y165506D02*
X364183Y164207D01*
X362116Y163853D02*
X362383Y163439D01*
X362807Y163190D01*
X363299Y163159D01*
X363751Y163352D01*
X364069Y163728D01*
X364183Y164207D01*
X360698Y164975D02*
X358572Y164975D01*
X358572Y165506D01*
X360698Y165506D02*
X360593Y165968D01*
X360298Y166337D01*
X359872Y166543D01*
X359399Y166543D01*
X358973Y166337D01*
X358678Y165968D01*
X358572Y165506D01*
X360698Y165506D02*
X360698Y164207D01*
X358631Y163853D02*
X358898Y163439D01*
X359323Y163190D01*
X359814Y163159D01*
X360267Y163352D01*
X360584Y163728D01*
X360698Y164207D01*
X357214Y166628D02*
X355620Y166628D01*
X356446Y168459D02*
X356446Y163912D01*
X355620Y163144D02*
X356022Y163236D01*
X356325Y163517D01*
X356446Y163912D01*
X354261Y164975D02*
X352135Y164975D01*
X352135Y165506D01*
X354261Y165506D02*
X354156Y165968D01*
X353861Y166337D01*
X353435Y166543D01*
X352962Y166543D01*
X352536Y166337D01*
X352241Y165968D01*
X352135Y165506D01*
X354261Y165506D02*
X354261Y164207D01*
X352194Y163853D02*
X352461Y163439D01*
X352886Y163190D01*
X353377Y163159D01*
X353830Y163352D01*
X354147Y163728D01*
X354261Y164207D01*
X350777Y163144D02*
X350777Y166628D01*
X350777Y165802D02*
X350696Y166167D01*
X350458Y166456D01*
X350115Y166605D01*
X349741Y166582D01*
X349419Y166392D01*
X366337Y252306D02*
X362321Y250712D01*
X362321Y252838D01*
X363384Y252306D02*
X361022Y252306D01*
X365569Y254196D02*
X366337Y254196D01*
X366337Y256322D01*
X361022Y254728D01*
X361022Y257680D02*
X364506Y257680D01*
X363384Y257680D02*
X363845Y257786D01*
X364215Y258081D01*
X364420Y258507D01*
X364420Y258980D01*
X364215Y259406D01*
X363845Y259701D01*
X363384Y259806D01*
X361022Y259806D01*
X366337Y263822D02*
X366337Y261165D01*
X363679Y261165D01*
X363679Y262995D01*
X363679Y261165D02*
X361022Y261165D01*
X356726Y252144D02*
X352710Y250550D01*
X352710Y252676D01*
X353773Y252144D02*
X351411Y252144D01*
X355958Y254034D02*
X356726Y254034D01*
X356726Y256160D01*
X351411Y254565D01*
X351411Y257518D02*
X354895Y257518D01*
X353773Y257518D02*
X354234Y257623D01*
X354604Y257918D01*
X354809Y258345D01*
X354809Y258818D01*
X354604Y259244D01*
X354234Y259539D01*
X353773Y259644D01*
X351411Y259644D01*
X356726Y263660D02*
X356726Y261002D01*
X354068Y261002D01*
X354068Y262833D01*
X354068Y261002D02*
X351411Y261002D01*
X382644Y232619D02*
X383706Y233682D01*
X378392Y233682D01*
X382644Y237166D02*
X379455Y237166D01*
X382644Y235040D02*
X383105Y235145D01*
X383475Y235440D01*
X383680Y235866D01*
X383680Y236340D01*
X383475Y236766D01*
X383105Y237061D01*
X382644Y237166D01*
X379455Y235040D02*
X382644Y235040D01*
X379455Y237166D02*
X378993Y237061D01*
X378623Y236766D01*
X378418Y236340D01*
X378418Y235866D01*
X378623Y235440D01*
X378993Y235145D01*
X379455Y235040D01*
X382644Y240650D02*
X379455Y240650D01*
X382644Y238524D02*
X383105Y238630D01*
X383475Y238924D01*
X383680Y239351D01*
X383680Y239824D01*
X383475Y240250D01*
X383105Y240545D01*
X382644Y240650D01*
X379455Y238524D02*
X382644Y238524D01*
X379455Y240650D02*
X378993Y240545D01*
X378623Y240250D01*
X378418Y239824D01*
X378418Y239351D01*
X378623Y238924D01*
X378993Y238630D01*
X379455Y238524D01*
X378392Y242009D02*
X383706Y242009D01*
X380222Y242009D02*
X383706Y244666D01*
X381581Y243071D02*
X378392Y244666D01*
X338515Y232619D02*
X339578Y233682D01*
X334263Y233682D01*
X338515Y237166D02*
X335326Y237166D01*
X338515Y235040D02*
X338976Y235145D01*
X339346Y235440D01*
X339551Y235866D01*
X339551Y236340D01*
X339346Y236766D01*
X338976Y237061D01*
X338515Y237166D01*
X335326Y235040D02*
X338515Y235040D01*
X335326Y237166D02*
X334864Y237061D01*
X334495Y236766D01*
X334289Y236340D01*
X334289Y235866D01*
X334495Y235440D01*
X334864Y235145D01*
X335326Y235040D01*
X338515Y240650D02*
X335326Y240650D01*
X338515Y238524D02*
X338976Y238630D01*
X339346Y238924D01*
X339551Y239351D01*
X339551Y239824D01*
X339346Y240250D01*
X338976Y240545D01*
X338515Y240650D01*
X335326Y238524D02*
X338515Y238524D01*
X335326Y240650D02*
X334864Y240545D01*
X334495Y240250D01*
X334289Y239824D01*
X334289Y239351D01*
X334495Y238924D01*
X334864Y238630D01*
X335326Y238524D01*
X334263Y242009D02*
X339578Y242009D01*
X336093Y242009D02*
X339578Y244666D01*
X337452Y243071D02*
X334263Y244666D01*
X179596Y205866D02*
X179596Y203208D01*
X176938Y203208D01*
X176938Y205039D01*
X176938Y203208D02*
X174281Y203208D01*
X174281Y205866D01*
X174281Y207224D02*
X177765Y207224D01*
X176643Y207224D02*
X177104Y207329D01*
X177474Y207624D01*
X177680Y208050D01*
X177680Y208523D01*
X177474Y208950D01*
X177104Y209245D01*
X176643Y209350D01*
X174281Y209350D01*
X176643Y210708D02*
X177104Y210813D01*
X177474Y211108D01*
X177680Y211535D01*
X177680Y212008D01*
X177474Y212434D01*
X177104Y212729D01*
X176643Y212834D01*
X176643Y210708D02*
X175344Y210708D01*
X175344Y212834D02*
X174883Y212729D01*
X174513Y212434D01*
X174308Y212008D01*
X174308Y211535D01*
X174513Y211108D01*
X174883Y210813D01*
X175344Y210708D01*
X176643Y216318D02*
X175344Y216318D01*
X176643Y214192D02*
X177104Y214298D01*
X177474Y214593D01*
X177680Y215019D01*
X177680Y215492D01*
X177474Y215918D01*
X177104Y216213D01*
X176643Y216318D01*
X175344Y214192D02*
X176643Y214192D01*
X175344Y216318D02*
X174883Y216213D01*
X174513Y215918D01*
X174308Y215492D01*
X174308Y215019D01*
X174513Y214593D01*
X174883Y214298D01*
X175344Y214192D01*
X179596Y219803D02*
X174281Y219803D01*
X176643Y217677D02*
X177104Y217782D01*
X177474Y218077D01*
X177680Y218503D01*
X177680Y218976D01*
X177474Y219402D01*
X177104Y219697D01*
X176643Y219803D01*
X176643Y217677D02*
X175344Y217677D01*
X175344Y219803D02*
X174883Y219697D01*
X174513Y219402D01*
X174308Y218976D01*
X174308Y218503D01*
X174513Y218077D01*
X174883Y217782D01*
X175344Y217677D01*
X176112Y221161D02*
X176112Y223287D01*
X176643Y223287D01*
X176643Y221161D02*
X177104Y221266D01*
X177474Y221561D01*
X177680Y221987D01*
X177680Y222460D01*
X177474Y222887D01*
X177104Y223182D01*
X176643Y223287D01*
X176643Y221161D02*
X175344Y221161D01*
X174990Y223228D02*
X174576Y222961D01*
X174327Y222536D01*
X174295Y222045D01*
X174489Y221592D01*
X174865Y221275D01*
X175344Y221161D01*
X174281Y224645D02*
X177765Y224645D01*
X176938Y224645D02*
X177304Y224726D01*
X177593Y224964D01*
X177742Y225307D01*
X177719Y225681D01*
X177529Y226003D01*
X338572Y387839D02*
X337509Y388902D01*
X337509Y383587D01*
X334025Y387839D02*
X334025Y384650D01*
X336151Y387839D02*
X336046Y388300D01*
X335751Y388670D01*
X335325Y388875D01*
X334852Y388875D01*
X334425Y388670D01*
X334130Y388300D01*
X334025Y387839D01*
X336151Y384650D02*
X336151Y387839D01*
X334025Y384650D02*
X334130Y384189D01*
X334425Y383819D01*
X334852Y383614D01*
X335325Y383614D01*
X335751Y383819D01*
X336046Y384189D01*
X336151Y384650D01*
X332667Y383587D02*
X332667Y388902D01*
X332667Y385418D02*
X330009Y388902D01*
X331604Y386776D02*
X330009Y383587D01*
X195191Y105743D02*
X193361Y111058D01*
X191471Y105743D01*
X194660Y107337D02*
X192002Y107337D01*
X190113Y105743D02*
X189581Y105743D01*
X190054Y104680D01*
X188223Y105743D02*
X186392Y111058D01*
X184502Y105743D01*
X187691Y107337D02*
X185034Y107337D01*
X182908Y111058D02*
X182908Y110526D01*
X183144Y110290D01*
X179187Y111058D02*
X181550Y105743D01*
X176530Y108400D02*
X177829Y108400D01*
X176530Y111087D02*
X176022Y110986D01*
X175590Y110698D01*
X175302Y110267D01*
X175201Y109758D01*
X175302Y109250D01*
X175590Y108819D01*
X176022Y108531D01*
X176530Y108430D01*
X177829Y111058D02*
X176530Y111058D01*
X177829Y105743D02*
X177829Y111058D01*
X176530Y105743D02*
X177829Y105743D01*
X176530Y108371D02*
X176022Y108269D01*
X175590Y107981D01*
X175302Y107550D01*
X175201Y107042D01*
X175302Y106533D01*
X175590Y106102D01*
X176022Y105814D01*
X176530Y105713D01*
X173813Y105743D02*
X173282Y105743D01*
X173754Y104680D01*
X170625Y108400D02*
X171924Y108400D01*
X170625Y111087D02*
X170116Y110986D01*
X169685Y110698D01*
X169397Y110267D01*
X169296Y109758D01*
X169397Y109250D01*
X169685Y108819D01*
X170116Y108531D01*
X170625Y108430D01*
X171924Y111058D02*
X170625Y111058D01*
X171924Y105743D02*
X171924Y111058D01*
X170625Y105743D02*
X171924Y105743D01*
X170625Y108371D02*
X170116Y108269D01*
X169685Y107981D01*
X169397Y107550D01*
X169296Y107042D01*
X169397Y106533D01*
X169685Y106102D01*
X170116Y105814D01*
X170625Y105713D01*
X167672Y111058D02*
X167672Y110526D01*
X167908Y110290D01*
X163951Y111058D02*
X166313Y105743D01*
X162593Y111058D02*
X159936Y111058D01*
X162593Y105743D01*
X159936Y105743D01*
X158577Y105743D02*
X158046Y105743D01*
X158518Y104680D01*
X156687Y111058D02*
X154030Y111058D01*
X156687Y105743D01*
X154030Y105743D01*
X152436Y111058D02*
X152436Y110526D01*
X152672Y110290D01*
X316023Y104950D02*
X314192Y110265D01*
X312303Y104950D01*
X315492Y106545D02*
X312834Y106545D01*
X310944Y104950D02*
X310413Y104950D01*
X310885Y103887D01*
X307755Y107608D02*
X309055Y107608D01*
X307755Y110295D02*
X307247Y110194D01*
X306816Y109906D01*
X306528Y109475D01*
X306427Y108966D01*
X306528Y108458D01*
X306816Y108026D01*
X307247Y107738D01*
X307755Y107637D01*
X309055Y110265D02*
X307755Y110265D01*
X309055Y104950D02*
X309055Y110265D01*
X307755Y104950D02*
X309055Y104950D01*
X307755Y107578D02*
X307247Y107477D01*
X306816Y107189D01*
X306528Y106758D01*
X306427Y106250D01*
X306528Y105741D01*
X306816Y105310D01*
X307247Y105022D01*
X307755Y104921D01*
X305039Y104950D02*
X304507Y104950D01*
X304980Y103887D01*
X303149Y110265D02*
X300492Y110265D01*
X303149Y104950D01*
X300492Y104950D01*
X299133Y104950D02*
X298602Y104950D01*
X299074Y103887D01*
X294704Y107608D02*
X292047Y107608D01*
X293405Y108966D02*
X293405Y106250D01*
X286850Y107608D02*
X287414Y107731D01*
X287876Y108077D01*
X288153Y108583D01*
X288194Y109159D01*
X287993Y109700D01*
X287584Y110109D01*
X287043Y110310D01*
X286467Y110269D01*
X285960Y109993D01*
X285614Y109530D01*
X285492Y108966D01*
X286850Y107608D02*
X286295Y107500D01*
X285836Y107171D01*
X285554Y106682D01*
X285502Y106119D01*
X285687Y105586D01*
X286078Y105178D01*
X286602Y104969D01*
X287166Y104996D01*
X287668Y105256D01*
X288017Y105700D01*
X288149Y106250D01*
X284133Y108435D02*
X283070Y104950D01*
X282007Y108435D01*
X280944Y104950D01*
X279881Y108435D01*
X278523Y104950D02*
X278523Y108671D01*
X278523Y109734D02*
X278523Y110265D01*
X277165Y108435D02*
X275570Y108435D01*
X276397Y110265D02*
X276397Y105718D01*
X275570Y104950D02*
X275973Y105042D01*
X276276Y105323D01*
X276397Y105718D01*
X274212Y107312D02*
X274107Y107774D01*
X273812Y108144D01*
X273386Y108349D01*
X272913Y108349D01*
X272486Y108144D01*
X272191Y107774D01*
X272086Y107312D01*
X274212Y107312D02*
X274212Y106013D01*
X272086Y106013D02*
X272191Y105552D01*
X272486Y105182D01*
X272913Y104977D01*
X273386Y104977D01*
X273812Y105182D01*
X274107Y105552D01*
X274212Y106013D01*
X270728Y104950D02*
X270728Y110265D01*
X270728Y107312D02*
X270623Y107774D01*
X270328Y108144D01*
X269901Y108349D01*
X269428Y108349D01*
X269002Y108144D01*
X268707Y107774D01*
X268602Y107312D01*
X268602Y104950D01*
X130408Y37544D02*
X128577Y42859D01*
X126687Y37544D01*
X129876Y39138D02*
X127219Y39138D01*
X122790Y37544D02*
X122790Y42859D01*
X120959Y39138D01*
X119069Y42859D01*
X119069Y37544D01*
X115585Y39906D02*
X115585Y38607D01*
X117711Y39906D02*
X117606Y40367D01*
X117311Y40737D01*
X116885Y40942D01*
X116412Y40942D01*
X115985Y40737D01*
X115690Y40367D01*
X115585Y39906D01*
X117711Y38607D02*
X117711Y39906D01*
X115585Y38607D02*
X115690Y38146D01*
X115985Y37776D01*
X116412Y37570D01*
X116885Y37570D01*
X117311Y37776D01*
X117606Y38146D01*
X117711Y38607D01*
X114227Y41028D02*
X112632Y41028D01*
X113459Y42859D02*
X113459Y38312D01*
X112632Y37544D02*
X113035Y37636D01*
X113338Y37917D01*
X113459Y38312D01*
X109148Y39906D02*
X109148Y38607D01*
X111274Y39906D02*
X111169Y40367D01*
X110874Y40737D01*
X110448Y40942D01*
X109975Y40942D01*
X109548Y40737D01*
X109253Y40367D01*
X109148Y39906D01*
X111274Y38607D02*
X111274Y39906D01*
X109148Y38607D02*
X109253Y38146D01*
X109548Y37776D01*
X109975Y37570D01*
X110448Y37570D01*
X110874Y37776D01*
X111169Y38146D01*
X111274Y38607D01*
X107790Y37544D02*
X107790Y41028D01*
X107790Y40201D02*
X107709Y40567D01*
X107471Y40856D01*
X107128Y41005D01*
X106754Y40982D01*
X106432Y40792D01*
X259389Y239124D02*
X264704Y240954D01*
X259389Y242844D01*
X260984Y239655D02*
X260984Y242312D01*
X259389Y244202D02*
X264704Y244202D01*
X260984Y246033D01*
X264704Y247923D01*
X259389Y247923D01*
X263641Y249281D02*
X264102Y249386D01*
X264472Y249681D01*
X264678Y250107D01*
X264678Y250581D01*
X264472Y251007D01*
X264102Y251302D01*
X263641Y251407D01*
X259389Y249281D01*
X259389Y251407D01*
X263641Y252765D02*
X264102Y252871D01*
X264472Y253165D01*
X264678Y253592D01*
X264678Y254065D01*
X264472Y254491D01*
X264102Y254786D01*
X263641Y254891D01*
X263641Y252765D02*
X260452Y252765D01*
X260452Y254891D02*
X259991Y254786D01*
X259621Y254491D01*
X259416Y254065D01*
X259416Y253592D01*
X259621Y253165D01*
X259991Y252871D01*
X260452Y252765D01*
X260452Y254891D02*
X261515Y254891D01*
X261515Y252765D02*
X261976Y252871D01*
X262346Y253165D01*
X262552Y253592D01*
X262552Y254065D01*
X262346Y254491D01*
X261976Y254786D01*
X261515Y254891D01*
X264704Y256250D02*
X259389Y256250D01*
X259389Y258612D01*
X262047Y261269D02*
X262169Y260705D01*
X262516Y260243D01*
X263022Y259966D01*
X263598Y259925D01*
X264139Y260127D01*
X264548Y260535D01*
X264749Y261076D01*
X264708Y261652D01*
X264432Y262159D01*
X263969Y262505D01*
X263405Y262627D01*
X262047Y261269D02*
X261939Y261824D01*
X261610Y262283D01*
X261121Y262565D01*
X260558Y262617D01*
X260025Y262432D01*
X259617Y262041D01*
X259408Y261517D01*
X259435Y260953D01*
X259695Y260451D01*
X260139Y260102D01*
X260688Y259970D01*
X260452Y266112D02*
X259991Y266006D01*
X259621Y265711D01*
X259416Y265285D01*
X259416Y264812D01*
X259621Y264386D01*
X259991Y264091D01*
X260452Y263986D01*
X261220Y266112D02*
X260452Y266112D01*
X262283Y265049D02*
X262202Y265456D01*
X261972Y265800D01*
X261627Y266031D01*
X261220Y266112D01*
X262283Y264753D02*
X262283Y265049D01*
X262283Y264753D01*
X263405Y266112D02*
X262985Y266040D01*
X262624Y265813D01*
X262377Y265465D01*
X262283Y265049D01*
X263641Y266112D02*
X263405Y266112D01*
X263641Y263986D02*
X264102Y264091D01*
X264472Y264386D01*
X264678Y264812D01*
X264678Y265285D01*
X264472Y265711D01*
X264102Y266006D01*
X263641Y266112D01*
X263641Y267470D02*
X264102Y267575D01*
X264472Y267870D01*
X264678Y268296D01*
X264678Y268770D01*
X264472Y269196D01*
X264102Y269491D01*
X263641Y269596D01*
X259389Y267470D01*
X259389Y269596D01*
X261003Y103218D02*
X260898Y103679D01*
X260603Y104049D01*
X260177Y104254D01*
X259704Y104254D01*
X259278Y104049D01*
X258983Y103679D01*
X258877Y103218D01*
X261003Y98966D01*
X258877Y98966D01*
X257519Y98966D02*
X255688Y104281D01*
X253799Y98966D01*
X256988Y100561D02*
X254330Y100561D01*
X252440Y98966D02*
X251909Y98966D01*
X252381Y97903D01*
X250551Y98966D02*
X248720Y104281D01*
X246830Y98966D01*
X250019Y100561D02*
X247362Y100561D01*
X245236Y104281D02*
X245236Y103750D01*
X245472Y103513D01*
X241515Y104281D02*
X243877Y98966D01*
X240157Y103218D02*
X240052Y103679D01*
X239757Y104049D01*
X239331Y104254D01*
X238857Y104254D01*
X238431Y104049D01*
X238136Y103679D01*
X238031Y103218D01*
X240157Y98966D01*
X238031Y98966D01*
X235374Y101624D02*
X236673Y101624D01*
X235374Y104311D02*
X234865Y104209D01*
X234434Y103921D01*
X234146Y103490D01*
X234045Y102982D01*
X234146Y102473D01*
X234434Y102042D01*
X234865Y101754D01*
X235374Y101653D01*
X236673Y104281D02*
X235374Y104281D01*
X236673Y98966D02*
X236673Y104281D01*
X235374Y98966D02*
X236673Y98966D01*
X235374Y101594D02*
X234865Y101493D01*
X234434Y101205D01*
X234146Y100774D01*
X234045Y100265D01*
X234146Y99757D01*
X234434Y99326D01*
X234865Y99038D01*
X235374Y98937D01*
X232657Y98966D02*
X232125Y98966D01*
X232598Y97903D01*
X229468Y101624D02*
X230767Y101624D01*
X229468Y104311D02*
X228960Y104209D01*
X228528Y103921D01*
X228240Y103490D01*
X228139Y102982D01*
X228240Y102473D01*
X228528Y102042D01*
X228960Y101754D01*
X229468Y101653D01*
X230767Y104281D02*
X229468Y104281D01*
X230767Y98966D02*
X230767Y104281D01*
X229468Y98966D02*
X230767Y98966D01*
X229468Y101594D02*
X228960Y101493D01*
X228528Y101205D01*
X228240Y100774D01*
X228139Y100265D01*
X228240Y99757D01*
X228528Y99326D01*
X228960Y99038D01*
X229468Y98937D01*
X226515Y104281D02*
X226515Y103750D01*
X226751Y103513D01*
X222618Y101624D02*
X219960Y101624D01*
X221318Y102982D02*
X221318Y100265D01*
X214763Y101624D02*
X215328Y101746D01*
X215790Y102092D01*
X216067Y102599D01*
X216108Y103175D01*
X215906Y103716D01*
X215498Y104124D01*
X214957Y104326D01*
X214381Y104285D01*
X213874Y104008D01*
X213528Y103546D01*
X213405Y102982D01*
X214763Y101624D02*
X214209Y101516D01*
X213749Y101187D01*
X213468Y100698D01*
X213415Y100135D01*
X213601Y99602D01*
X213991Y99194D01*
X214516Y98984D01*
X215080Y99012D01*
X215582Y99272D01*
X215930Y99716D01*
X216062Y100265D01*
X212047Y102450D02*
X210984Y98966D01*
X209921Y102450D01*
X208858Y98966D01*
X207795Y102450D01*
X206437Y98966D02*
X206437Y102687D01*
X206437Y103750D02*
X206437Y104281D01*
X205078Y102450D02*
X203484Y102450D01*
X204311Y104281D02*
X204311Y99734D01*
X203484Y98966D02*
X203886Y99058D01*
X204189Y99339D01*
X204311Y99734D01*
X202125Y101328D02*
X202020Y101789D01*
X201725Y102159D01*
X201299Y102365D01*
X200826Y102365D01*
X200400Y102159D01*
X200105Y101789D01*
X200000Y101328D01*
X202125Y101328D02*
X202125Y100029D01*
X200000Y100029D02*
X200105Y99568D01*
X200400Y99198D01*
X200826Y98993D01*
X201299Y98993D01*
X201725Y99198D01*
X202020Y99568D01*
X202125Y100029D01*
X198641Y98966D02*
X198641Y104281D01*
X198641Y101328D02*
X198536Y101789D01*
X198241Y102159D01*
X197815Y102365D01*
X197342Y102365D01*
X196915Y102159D01*
X196621Y101789D01*
X196515Y101328D01*
X196515Y98966D01*
X53268Y223094D02*
X52205Y224157D01*
X52205Y218842D01*
X48721Y223094D02*
X48721Y219905D01*
X50847Y223094D02*
X50742Y223555D01*
X50447Y223925D01*
X50021Y224130D01*
X49548Y224130D01*
X49121Y223925D01*
X48826Y223555D01*
X48721Y223094D01*
X50847Y219905D02*
X50847Y223094D01*
X48721Y219905D02*
X48826Y219443D01*
X49121Y219074D01*
X49548Y218868D01*
X50021Y218868D01*
X50447Y219074D01*
X50742Y219443D01*
X50847Y219905D01*
X47363Y218842D02*
X47363Y224157D01*
X47363Y220672D02*
X44705Y224157D01*
X46300Y222031D02*
X44705Y218842D01*
X20803Y231179D02*
X23460Y231179D01*
X23460Y233836D01*
X23460Y231179D02*
X26118Y231179D01*
X26118Y233836D02*
X20803Y233836D01*
X24818Y235165D02*
X25327Y235266D01*
X25758Y235554D01*
X26046Y235985D01*
X26147Y236494D01*
X26046Y237002D01*
X25758Y237433D01*
X25327Y237721D01*
X24818Y237822D01*
X24818Y235194D02*
X22102Y235194D01*
X22102Y237822D02*
X21593Y237721D01*
X21162Y237433D01*
X20874Y237002D01*
X20773Y236494D01*
X20874Y235985D01*
X21162Y235554D01*
X21593Y235266D01*
X22102Y235165D01*
X20803Y239210D02*
X23460Y239210D01*
X23460Y240509D01*
X26147Y240509D02*
X26046Y241018D01*
X25758Y241449D01*
X25327Y241737D01*
X24818Y241838D01*
X24310Y241737D01*
X23879Y241449D01*
X23591Y241018D01*
X23490Y240509D01*
X26118Y240509D02*
X26118Y239210D01*
X23460Y239210D01*
X26118Y243226D02*
X20803Y243226D01*
X20803Y245588D01*
X23460Y246946D02*
X23460Y249309D01*
X25055Y250667D02*
X25516Y250772D01*
X25886Y251067D01*
X26091Y251493D01*
X26091Y251966D01*
X25886Y252393D01*
X25516Y252688D01*
X25055Y252793D01*
X20803Y250667D01*
X20803Y252793D01*
X25055Y254151D02*
X25516Y254256D01*
X25886Y254551D01*
X26091Y254978D01*
X26091Y255451D01*
X25886Y255877D01*
X25516Y256172D01*
X25055Y256277D01*
X25055Y254151D02*
X21866Y254151D01*
X21866Y256277D02*
X21404Y256172D01*
X21035Y255877D01*
X20829Y255451D01*
X20829Y254978D01*
X21035Y254551D01*
X21404Y254256D01*
X21866Y254151D01*
X21866Y256277D02*
X22929Y256277D01*
X22929Y254151D02*
X23390Y254256D01*
X23760Y254551D01*
X23965Y254978D01*
X23965Y255451D01*
X23760Y255877D01*
X23390Y256172D01*
X22929Y256277D01*
X21866Y259761D02*
X21404Y259656D01*
X21035Y259361D01*
X20829Y258935D01*
X20829Y258462D01*
X21035Y258036D01*
X21404Y257741D01*
X21866Y257635D01*
X22633Y259761D02*
X21866Y259761D01*
X23696Y258698D02*
X23615Y259105D01*
X23385Y259450D01*
X23040Y259680D01*
X22633Y259761D01*
X23696Y258403D02*
X23696Y258698D01*
X23696Y258403D01*
X24818Y259761D02*
X24398Y259690D01*
X24037Y259462D01*
X23791Y259114D01*
X23696Y258698D01*
X25055Y259761D02*
X24818Y259761D01*
X25055Y257635D02*
X25516Y257741D01*
X25886Y258036D01*
X26091Y258462D01*
X26091Y258935D01*
X25886Y259361D01*
X25516Y259656D01*
X25055Y259761D01*
X25055Y263246D02*
X21866Y263246D01*
X25055Y261120D02*
X25516Y261225D01*
X25886Y261520D01*
X26091Y261946D01*
X26091Y262419D01*
X25886Y262845D01*
X25516Y263140D01*
X25055Y263246D01*
X21866Y261120D02*
X25055Y261120D01*
X21866Y263246D02*
X21404Y263140D01*
X21035Y262845D01*
X20829Y262419D01*
X20829Y261946D01*
X21035Y261520D01*
X21404Y261225D01*
X21866Y261120D01*
X20803Y275470D02*
X23460Y275470D01*
X23460Y278127D01*
X23460Y275470D02*
X26118Y275470D01*
X26118Y278127D02*
X20803Y278127D01*
X24818Y279456D02*
X25327Y279557D01*
X25758Y279845D01*
X26046Y280276D01*
X26147Y280785D01*
X26046Y281293D01*
X25758Y281724D01*
X25327Y282013D01*
X24818Y282114D01*
X24818Y279486D02*
X22102Y279486D01*
X22102Y282114D02*
X21593Y282013D01*
X21162Y281724D01*
X20874Y281293D01*
X20773Y280785D01*
X20874Y280276D01*
X21162Y279845D01*
X21593Y279557D01*
X22102Y279456D01*
X20803Y283501D02*
X23460Y283501D01*
X23460Y284801D01*
X26147Y284801D02*
X26046Y285309D01*
X25758Y285740D01*
X25327Y286028D01*
X24818Y286129D01*
X24310Y286028D01*
X23879Y285740D01*
X23591Y285309D01*
X23490Y284801D01*
X26118Y284801D02*
X26118Y283501D01*
X23460Y283501D01*
X26118Y287517D02*
X20803Y287517D01*
X20803Y289879D01*
X23460Y291238D02*
X23460Y293600D01*
X25055Y294958D02*
X25516Y295063D01*
X25886Y295358D01*
X26091Y295785D01*
X26091Y296258D01*
X25886Y296684D01*
X25516Y296979D01*
X25055Y297084D01*
X20803Y294958D01*
X20803Y297084D01*
X25055Y298442D02*
X25516Y298548D01*
X25886Y298843D01*
X26091Y299269D01*
X26091Y299742D01*
X25886Y300168D01*
X25516Y300463D01*
X25055Y300568D01*
X25055Y298442D02*
X21866Y298442D01*
X21866Y300568D02*
X21404Y300463D01*
X21035Y300168D01*
X20829Y299742D01*
X20829Y299269D01*
X21035Y298843D01*
X21404Y298548D01*
X21866Y298442D01*
X21866Y300568D02*
X22929Y300568D01*
X22929Y298442D02*
X23390Y298548D01*
X23760Y298843D01*
X23965Y299269D01*
X23965Y299742D01*
X23760Y300168D01*
X23390Y300463D01*
X22929Y300568D01*
X21866Y304053D02*
X21404Y303947D01*
X21035Y303652D01*
X20829Y303226D01*
X20829Y302753D01*
X21035Y302327D01*
X21404Y302032D01*
X21866Y301927D01*
X22633Y304053D02*
X21866Y304053D01*
X23696Y302990D02*
X23615Y303396D01*
X23385Y303741D01*
X23040Y303972D01*
X22633Y304053D01*
X23696Y302694D02*
X23696Y302990D01*
X23696Y302694D01*
X24818Y304053D02*
X24398Y303981D01*
X24037Y303754D01*
X23791Y303406D01*
X23696Y302990D01*
X25055Y304053D02*
X24818Y304053D01*
X25055Y301927D02*
X25516Y302032D01*
X25886Y302327D01*
X26091Y302753D01*
X26091Y303226D01*
X25886Y303652D01*
X25516Y303947D01*
X25055Y304053D01*
X25055Y307537D02*
X21866Y307537D01*
X25055Y305411D02*
X25516Y305516D01*
X25886Y305811D01*
X26091Y306237D01*
X26091Y306710D01*
X25886Y307137D01*
X25516Y307432D01*
X25055Y307537D01*
X21866Y305411D02*
X25055Y305411D01*
X21866Y307537D02*
X21404Y307432D01*
X21035Y307137D01*
X20829Y306710D01*
X20829Y306237D01*
X21035Y305811D01*
X21404Y305516D01*
X21866Y305411D01*
X85505Y9792D02*
X85044Y9686D01*
X84674Y9391D01*
X84469Y8965D01*
X84469Y8492D01*
X84674Y8066D01*
X85044Y7771D01*
X85505Y7666D01*
X86273Y9792D02*
X85505Y9792D01*
X87336Y8729D02*
X87255Y9135D01*
X87024Y9480D01*
X86680Y9711D01*
X86273Y9792D01*
X87336Y8433D02*
X87336Y8729D01*
X87336Y8433D01*
X88458Y9792D02*
X88037Y9720D01*
X87677Y9493D01*
X87430Y9145D01*
X87336Y8729D01*
X88694Y9792D02*
X88458Y9792D01*
X88694Y7666D02*
X89155Y7771D01*
X89525Y8066D01*
X89730Y8492D01*
X89730Y8965D01*
X89525Y9391D01*
X89155Y9686D01*
X88694Y9792D01*
X85505Y13276D02*
X85044Y13171D01*
X84674Y12876D01*
X84469Y12449D01*
X84469Y11976D01*
X84674Y11550D01*
X85044Y11255D01*
X85505Y11150D01*
X86273Y13276D02*
X85505Y13276D01*
X87336Y12213D02*
X87255Y12620D01*
X87024Y12965D01*
X86680Y13195D01*
X86273Y13276D01*
X87336Y11918D02*
X87336Y12213D01*
X87336Y11918D01*
X88458Y13276D02*
X88037Y13204D01*
X87677Y12977D01*
X87430Y12629D01*
X87336Y12213D01*
X88694Y13276D02*
X88458Y13276D01*
X88694Y11150D02*
X89155Y11255D01*
X89525Y11550D01*
X89730Y11976D01*
X89730Y12449D01*
X89525Y12876D01*
X89155Y13171D01*
X88694Y13276D01*
X88694Y16760D02*
X85505Y16760D01*
X88694Y14634D02*
X89155Y14739D01*
X89525Y15034D01*
X89730Y15461D01*
X89730Y15934D01*
X89525Y16360D01*
X89155Y16655D01*
X88694Y16760D01*
X85505Y14634D02*
X88694Y14634D01*
X85505Y16760D02*
X85044Y16655D01*
X84674Y16360D01*
X84469Y15934D01*
X84469Y15461D01*
X84674Y15034D01*
X85044Y14739D01*
X85505Y14634D01*
X73779Y107608D02*
X75078Y107608D01*
X73779Y110295D02*
X73271Y110194D01*
X72839Y109906D01*
X72551Y109475D01*
X72450Y108966D01*
X72551Y108458D01*
X72839Y108026D01*
X73271Y107738D01*
X73779Y107637D01*
X75078Y110265D02*
X73779Y110265D01*
X75078Y104950D02*
X75078Y110265D01*
X73779Y104950D02*
X75078Y104950D01*
X73779Y107578D02*
X73271Y107477D01*
X72839Y107189D01*
X72551Y106758D01*
X72450Y106250D01*
X72551Y105741D01*
X72839Y105310D01*
X73271Y105022D01*
X73779Y104921D01*
X68523Y104950D02*
X68523Y110265D01*
X66692Y106545D01*
X64803Y110265D01*
X64803Y104950D01*
X61318Y107312D02*
X61318Y106013D01*
X63444Y107312D02*
X63339Y107774D01*
X63044Y108144D01*
X62618Y108349D01*
X62145Y108349D01*
X61719Y108144D01*
X61424Y107774D01*
X61318Y107312D01*
X63444Y106013D02*
X63444Y107312D01*
X61318Y106013D02*
X61424Y105552D01*
X61719Y105182D01*
X62145Y104977D01*
X62618Y104977D01*
X63044Y105182D01*
X63339Y105552D01*
X63444Y106013D01*
X59960Y108435D02*
X58366Y108435D01*
X59192Y110265D02*
X59192Y105718D01*
X58366Y104950D02*
X58768Y105042D01*
X59071Y105323D01*
X59192Y105718D01*
X54881Y107312D02*
X54881Y106013D01*
X57007Y107312D02*
X56902Y107774D01*
X56607Y108144D01*
X56181Y108349D01*
X55708Y108349D01*
X55282Y108144D01*
X54987Y107774D01*
X54881Y107312D01*
X57007Y106013D02*
X57007Y107312D01*
X54881Y106013D02*
X54987Y105552D01*
X55282Y105182D01*
X55708Y104977D01*
X56181Y104977D01*
X56607Y105182D01*
X56902Y105552D01*
X57007Y106013D01*
X53523Y104950D02*
X53523Y108435D01*
X53523Y107608D02*
X53442Y107973D01*
X53204Y108262D01*
X52861Y108411D01*
X52487Y108388D01*
X52165Y108198D01*
X269866Y32966D02*
X268803Y34029D01*
X268803Y28714D01*
X335629Y40856D02*
X335629Y46171D01*
X335629Y42687D02*
X332972Y46171D01*
X334566Y44045D02*
X332972Y40856D01*
X331614Y42687D02*
X329488Y42687D01*
X329488Y43218D01*
X331614Y43218D02*
X331508Y43679D01*
X331213Y44049D01*
X330787Y44254D01*
X330314Y44254D01*
X329888Y44049D01*
X329593Y43679D01*
X329488Y43218D01*
X331614Y43218D02*
X331614Y41919D01*
X329547Y41564D02*
X329814Y41151D01*
X330238Y40902D01*
X330730Y40870D01*
X331182Y41063D01*
X331500Y41440D01*
X331614Y41919D01*
X328129Y44340D02*
X326830Y40856D01*
X325472Y44340D02*
X327362Y39557D01*
X327893Y39320D01*
X324114Y40856D02*
X324114Y43513D01*
X322814Y43513D01*
X322814Y46200D02*
X322306Y46099D01*
X321875Y45811D01*
X321587Y45380D01*
X321486Y44872D01*
X321587Y44363D01*
X321875Y43932D01*
X322306Y43644D01*
X322814Y43543D01*
X322814Y46171D02*
X324114Y46171D01*
X324114Y43513D01*
X320098Y43218D02*
X319993Y43679D01*
X319698Y44049D01*
X319271Y44254D01*
X318798Y44254D01*
X318372Y44049D01*
X318077Y43679D01*
X317972Y43218D01*
X318093Y42823D01*
X318396Y42542D01*
X318799Y42450D01*
X319330Y42450D01*
X319330Y40826D02*
X319729Y40933D01*
X320021Y41225D01*
X320127Y41624D01*
X320021Y42022D01*
X319729Y42314D01*
X319330Y42421D01*
X319330Y40856D02*
X318799Y40856D01*
X317972Y41624D02*
X318093Y41229D01*
X318396Y40948D01*
X318799Y40856D01*
X317972Y43218D02*
X317972Y41387D01*
X317440Y40856D01*
X313956Y46171D02*
X313956Y40856D01*
X316082Y43218D02*
X315977Y43679D01*
X315682Y44049D01*
X315256Y44254D01*
X314783Y44254D01*
X314356Y44049D01*
X314061Y43679D01*
X313956Y43218D01*
X316082Y43218D02*
X316082Y41919D01*
X313956Y41919D02*
X314061Y41458D01*
X314356Y41088D01*
X314783Y40882D01*
X315256Y40882D01*
X315682Y41088D01*
X315977Y41458D01*
X316082Y41919D01*
X308464Y46171D02*
X310059Y42155D01*
X307933Y42155D01*
X308464Y43218D02*
X308464Y40856D01*
X306574Y40856D02*
X304448Y44340D01*
X306574Y44340D02*
X304448Y40856D01*
X301496Y46171D02*
X303090Y42155D01*
X300964Y42155D01*
X301496Y43218D02*
X301496Y40856D01*
X61811Y52273D02*
X64468Y52273D01*
X64468Y53572D01*
X67155Y53572D02*
X67054Y54081D01*
X66766Y54512D01*
X66335Y54800D01*
X65826Y54901D01*
X65318Y54800D01*
X64887Y54512D01*
X64599Y54081D01*
X64498Y53572D01*
X67125Y53572D02*
X67125Y52273D01*
X64468Y52273D01*
X67125Y56289D02*
X61811Y57588D01*
X67125Y58946D01*
X61811Y60305D01*
X67125Y61604D01*
X61811Y62962D02*
X67125Y62962D01*
X63405Y64793D01*
X67125Y66683D01*
X61811Y66683D01*
X61811Y70580D02*
X64468Y70580D01*
X64468Y71879D01*
X67155Y71879D02*
X67054Y72388D01*
X66766Y72819D01*
X66335Y73107D01*
X65826Y73208D01*
X65318Y73107D01*
X64887Y72819D01*
X64599Y72388D01*
X64498Y71879D01*
X67125Y71879D02*
X67125Y70580D01*
X64468Y70580D01*
X61811Y74596D02*
X65531Y74596D01*
X66594Y74596D02*
X67125Y74596D01*
X61811Y75954D02*
X65295Y75954D01*
X64173Y75954D02*
X64634Y76059D01*
X65004Y76354D01*
X65209Y76781D01*
X65209Y77254D01*
X65004Y77680D01*
X64634Y77975D01*
X64173Y78080D01*
X61811Y78080D01*
X66062Y81978D02*
X67125Y83041D01*
X61811Y83041D01*
X66062Y84399D02*
X67125Y85462D01*
X61811Y85462D01*
X176181Y239916D02*
X175674Y239803D01*
X175250Y239506D01*
X174971Y239068D01*
X174881Y238558D01*
X174881Y237258D01*
X180196Y237258D01*
X180196Y238558D01*
X180107Y239068D01*
X179828Y239506D01*
X179403Y239803D01*
X178897Y239916D01*
X176181Y239916D01*
X174881Y241274D02*
X178602Y241274D01*
X179665Y241274D02*
X180196Y241274D01*
X179429Y243400D02*
X179823Y243522D01*
X180104Y243824D01*
X180196Y244227D01*
X179429Y243400D02*
X178366Y243400D01*
X174881Y243400D01*
X178366Y242632D02*
X178366Y244227D01*
X179429Y246353D02*
X179823Y246474D01*
X180104Y246777D01*
X180196Y247180D01*
X179429Y246353D02*
X178366Y246353D01*
X174881Y246353D01*
X178366Y245585D02*
X178366Y247180D01*
X175413Y248538D02*
X174881Y248538D01*
X176181Y255063D02*
X175672Y254962D01*
X175241Y254674D01*
X174953Y254243D01*
X174852Y253735D01*
X174953Y253226D01*
X175241Y252795D01*
X175672Y252507D01*
X176181Y252406D01*
X176181Y255093D02*
X178897Y255093D01*
X178897Y252406D02*
X179406Y252507D01*
X179837Y252795D01*
X180125Y253226D01*
X180226Y253735D01*
X180125Y254243D01*
X179837Y254674D01*
X179406Y254962D01*
X178897Y255063D01*
X178897Y252436D02*
X176181Y252436D01*
X174881Y256451D02*
X180196Y256451D01*
X174881Y259109D01*
X180196Y259109D01*
X5029Y174783D02*
X4590Y174688D01*
X4229Y174420D01*
X4011Y174028D01*
X3974Y173580D01*
X4126Y173157D01*
X4438Y172834D01*
X5029Y174783D02*
X6092Y174783D01*
X6092Y172657D02*
X6553Y172762D01*
X6923Y173057D01*
X7128Y173483D01*
X7128Y173957D01*
X6923Y174383D01*
X6553Y174678D01*
X6092Y174783D01*
X6092Y172657D02*
X9281Y172657D01*
X9281Y174783D01*
X9281Y176141D02*
X3966Y177440D01*
X9281Y178799D01*
X343661Y186240D02*
X346318Y186240D01*
X344960Y187598D02*
X344960Y184881D01*
X383267Y97544D02*
X385925Y97544D01*
X385925Y94886D01*
X384094Y94886D01*
X385925Y94886D02*
X385925Y92229D01*
X379783Y94591D02*
X379783Y93292D01*
X381909Y94591D02*
X381804Y95052D01*
X381509Y95422D01*
X381082Y95627D01*
X380609Y95627D01*
X380183Y95422D01*
X379888Y95052D01*
X379783Y94591D01*
X381909Y93292D02*
X381909Y94591D01*
X379783Y93292D02*
X379888Y92831D01*
X380183Y92461D01*
X380609Y92255D01*
X381082Y92255D01*
X381509Y92461D01*
X381804Y92831D01*
X381909Y93292D01*
X378425Y92229D02*
X378425Y95713D01*
X378425Y94886D02*
X378344Y95252D01*
X378106Y95541D01*
X377762Y95690D01*
X377389Y95667D01*
X377066Y95477D01*
X373169Y92229D02*
X371338Y97544D01*
X369448Y92229D01*
X372637Y93823D02*
X369980Y93823D01*
X365728Y97544D02*
X368090Y92229D01*
X363070Y94886D02*
X364370Y94886D01*
X363070Y97573D02*
X362562Y97472D01*
X362131Y97184D01*
X361843Y96753D01*
X361742Y96245D01*
X361843Y95736D01*
X362131Y95305D01*
X362562Y95017D01*
X363070Y94916D01*
X364370Y97544D02*
X363070Y97544D01*
X364370Y92229D02*
X364370Y97544D01*
X363070Y92229D02*
X364370Y92229D01*
X363070Y94857D02*
X362562Y94756D01*
X362131Y94468D01*
X361843Y94037D01*
X361742Y93528D01*
X361843Y93020D01*
X362131Y92588D01*
X362562Y92300D01*
X363070Y92199D01*
X357992Y97544D02*
X360354Y92229D01*
X356633Y97544D02*
X353976Y97544D01*
X356633Y92229D01*
X353976Y92229D01*
X347952Y97544D02*
X347952Y92229D01*
X350078Y94591D02*
X349973Y95052D01*
X349678Y95422D01*
X349252Y95627D01*
X348779Y95627D01*
X348352Y95422D01*
X348058Y95052D01*
X347952Y94591D01*
X350078Y94591D02*
X350078Y93292D01*
X347952Y93292D02*
X348058Y92831D01*
X348352Y92461D01*
X348779Y92255D01*
X349252Y92255D01*
X349678Y92461D01*
X349973Y92831D01*
X350078Y93292D01*
X346594Y92229D02*
X346594Y95949D01*
X346594Y97012D02*
X346594Y97544D01*
X344468Y92229D02*
X344852Y92332D01*
X345133Y92613D01*
X345236Y92997D01*
X344468Y92229D02*
X343937Y92229D01*
X343110Y92997D02*
X343231Y92602D01*
X343534Y92321D01*
X343937Y92229D01*
X343110Y92997D02*
X343110Y93292D01*
X343937Y94060D02*
X343534Y93968D01*
X343231Y93687D01*
X343110Y93292D01*
X343937Y94060D02*
X344468Y94060D01*
X344881Y94170D01*
X345184Y94473D01*
X345295Y94886D01*
X345184Y95300D01*
X344881Y95602D01*
X344468Y95713D01*
X343937Y95713D01*
X343523Y95602D01*
X343221Y95300D01*
X343110Y94886D01*
X341751Y94591D02*
X341646Y95052D01*
X341351Y95422D01*
X340925Y95627D01*
X340452Y95627D01*
X340026Y95422D01*
X339731Y95052D01*
X339625Y94591D01*
X339747Y94196D01*
X340050Y93915D01*
X340452Y93823D01*
X340984Y93823D01*
X340984Y92199D02*
X341382Y92306D01*
X341674Y92598D01*
X341781Y92997D01*
X341674Y93395D01*
X341382Y93687D01*
X340984Y93794D01*
X340984Y92229D02*
X340452Y92229D01*
X339625Y92997D02*
X339747Y92602D01*
X340050Y92321D01*
X340452Y92229D01*
X339625Y94591D02*
X339625Y92760D01*
X339094Y92229D01*
X337736Y92229D02*
X337736Y97544D01*
X335610Y93292D02*
X335715Y92831D01*
X336010Y92461D01*
X336436Y92255D01*
X336909Y92255D01*
X337335Y92461D01*
X337630Y92831D01*
X337736Y93292D01*
X335610Y94591D02*
X335610Y93292D01*
X337736Y94591D02*
X337630Y95052D01*
X337335Y95422D01*
X336909Y95627D01*
X336436Y95627D01*
X336010Y95422D01*
X335715Y95052D01*
X335610Y94591D01*
X334251Y97544D02*
X334251Y92997D01*
X333484Y92229D02*
X333868Y92332D01*
X334149Y92613D01*
X334251Y92997D01*
X332125Y94060D02*
X330000Y94060D01*
X330000Y94591D01*
X332125Y94591D02*
X332020Y95052D01*
X331725Y95422D01*
X331299Y95627D01*
X330826Y95627D01*
X330400Y95422D01*
X330105Y95052D01*
X330000Y94591D01*
X332125Y94591D02*
X332125Y93292D01*
X330059Y92937D02*
X330325Y92524D01*
X330750Y92275D01*
X331241Y92243D01*
X331694Y92436D01*
X332012Y92813D01*
X332125Y93292D01*
X323444Y93528D02*
X323557Y93022D01*
X323854Y92597D01*
X324292Y92319D01*
X324803Y92229D01*
X326102Y92229D01*
X326102Y97544D01*
X324803Y97544D01*
X324292Y97454D01*
X323854Y97176D01*
X323557Y96751D01*
X323444Y96245D01*
X323444Y93528D01*
X322086Y92229D02*
X322086Y95949D01*
X322086Y97012D02*
X322086Y97544D01*
X319960Y96776D02*
X319839Y97171D01*
X319536Y97452D01*
X319133Y97544D01*
X319960Y96776D02*
X319960Y95713D01*
X319960Y92229D01*
X320728Y95713D02*
X319133Y95713D01*
X317007Y96776D02*
X316886Y97171D01*
X316583Y97452D01*
X316181Y97544D01*
X317007Y96776D02*
X317007Y95713D01*
X317007Y92229D01*
X317775Y95713D02*
X316181Y95713D01*
X314822Y92760D02*
X314822Y92229D01*
X87755Y168213D02*
X87850Y167774D01*
X88118Y167413D01*
X88511Y167195D01*
X88959Y167158D01*
X89382Y167310D01*
X89704Y167623D01*
X87755Y168213D02*
X87755Y169276D01*
X89881Y169276D02*
X89776Y169737D01*
X89481Y170107D01*
X89055Y170312D01*
X88582Y170312D01*
X88156Y170107D01*
X87861Y169737D01*
X87755Y169276D01*
X89881Y169276D02*
X89881Y172465D01*
X87755Y172465D01*
X86397Y172465D02*
X85098Y167150D01*
X83740Y172465D01*
X107244Y170812D02*
X107142Y171320D01*
X106854Y171751D01*
X106423Y172039D01*
X105915Y172140D01*
X105406Y172039D01*
X104975Y171751D01*
X104687Y171320D01*
X104586Y170812D01*
X107214Y170812D02*
X107214Y168095D01*
X104586Y168095D02*
X104687Y167586D01*
X104975Y167155D01*
X105406Y166867D01*
X105915Y166766D01*
X106423Y166867D01*
X106854Y167155D01*
X107142Y167586D01*
X107244Y168095D01*
X104557Y168095D02*
X104557Y169453D01*
X105915Y169453D01*
X103198Y166796D02*
X103198Y172111D01*
X100541Y166796D01*
X100541Y172111D01*
X96525Y168095D02*
X96637Y167589D01*
X96935Y167164D01*
X97373Y166886D01*
X97883Y166796D01*
X99183Y166796D01*
X99183Y172111D01*
X97883Y172111D01*
X97373Y172021D01*
X96935Y171743D01*
X96637Y171318D01*
X96525Y170812D01*
X96525Y168095D01*
X65098Y24660D02*
X65098Y29975D01*
X63799Y29975D01*
X63799Y30004D02*
X63290Y29903D01*
X62859Y29615D01*
X62571Y29184D01*
X62470Y28676D01*
X62571Y28167D01*
X62859Y27736D01*
X63290Y27448D01*
X63799Y27347D01*
X63799Y27317D02*
X65098Y27317D01*
X63799Y27317D02*
X62440Y24660D01*
X56417Y27022D02*
X56417Y25723D01*
X58543Y27022D02*
X58438Y27483D01*
X58143Y27853D01*
X57716Y28058D01*
X57243Y28058D01*
X56817Y27853D01*
X56522Y27483D01*
X56417Y27022D01*
X58543Y25723D02*
X58543Y27022D01*
X56417Y25723D02*
X56522Y25262D01*
X56817Y24892D01*
X57243Y24687D01*
X57716Y24687D01*
X58143Y24892D01*
X58438Y25262D01*
X58543Y25723D01*
X55059Y28144D02*
X55059Y25723D01*
X52933Y25723D02*
X53038Y25262D01*
X53333Y24892D01*
X53759Y24687D01*
X54232Y24687D01*
X54658Y24892D01*
X54953Y25262D01*
X55059Y25723D01*
X52933Y28144D02*
X52933Y24660D01*
X51574Y28144D02*
X49980Y28144D01*
X50807Y29975D02*
X50807Y25428D01*
X49980Y24660D02*
X50383Y24752D01*
X50685Y25033D01*
X50807Y25428D01*
X48622Y23065D02*
X48622Y28144D01*
X46496Y25723D02*
X46601Y25262D01*
X46896Y24892D01*
X47322Y24687D01*
X47795Y24687D01*
X48221Y24892D01*
X48516Y25262D01*
X48622Y25723D01*
X46496Y27022D02*
X46496Y25723D01*
X48622Y27022D02*
X48516Y27483D01*
X48221Y27853D01*
X47795Y28058D01*
X47322Y28058D01*
X46896Y27853D01*
X46601Y27483D01*
X46496Y27022D01*
X45137Y28144D02*
X45137Y25723D01*
X43011Y25723D02*
X43117Y25262D01*
X43412Y24892D01*
X43838Y24687D01*
X44311Y24687D01*
X44737Y24892D01*
X45032Y25262D01*
X45137Y25723D01*
X43011Y28144D02*
X43011Y24660D01*
X41653Y28144D02*
X40059Y28144D01*
X40885Y29975D02*
X40885Y25428D01*
X40059Y24660D02*
X40461Y24752D01*
X40764Y25033D01*
X40885Y25428D01*
X36161Y29975D02*
X36161Y24660D01*
X33799Y24660D01*
X29783Y29975D02*
X32440Y29975D01*
X32440Y27317D01*
X30610Y27317D01*
X32440Y27317D02*
X32440Y24660D01*
X29783Y24660D01*
X25767Y25959D02*
X25880Y25453D01*
X26177Y25028D01*
X26615Y24750D01*
X27125Y24660D01*
X28425Y24660D01*
X28425Y29975D01*
X27125Y29975D01*
X26615Y29885D01*
X26177Y29607D01*
X25880Y29182D01*
X25767Y28676D01*
X25767Y25959D01*
X23641Y24660D02*
X24025Y24763D01*
X24306Y25044D01*
X24409Y25428D01*
X23641Y24660D02*
X23110Y24660D01*
X22283Y25428D02*
X22404Y25033D01*
X22707Y24752D01*
X23110Y24660D01*
X22283Y25428D02*
X22283Y25723D01*
X23110Y26491D02*
X22707Y26399D01*
X22404Y26118D01*
X22283Y25723D01*
X23110Y26491D02*
X23641Y26491D01*
X24055Y26601D01*
X24357Y26904D01*
X24468Y27317D01*
X24357Y27731D01*
X24055Y28033D01*
X23641Y28144D01*
X23110Y28144D01*
X22696Y28033D01*
X22394Y27731D01*
X22283Y27317D01*
X299552Y198085D02*
X299451Y198594D01*
X299162Y199025D01*
X298731Y199313D01*
X298223Y199414D01*
X297714Y199313D01*
X297283Y199025D01*
X296995Y198594D01*
X296894Y198085D01*
X299522Y198085D02*
X299522Y195369D01*
X296894Y195369D02*
X296995Y194860D01*
X297283Y194429D01*
X297714Y194141D01*
X298223Y194040D01*
X298731Y194141D01*
X299162Y194429D01*
X299451Y194860D01*
X299552Y195369D01*
X296865Y195369D02*
X296865Y196727D01*
X298223Y196727D01*
X295506Y194069D02*
X295506Y199384D01*
X292849Y194069D01*
X292849Y199384D01*
X288833Y195369D02*
X288946Y194862D01*
X289243Y194438D01*
X289681Y194159D01*
X290191Y194069D01*
X291491Y194069D01*
X291491Y199384D01*
X290191Y199384D01*
X289681Y199295D01*
X289243Y199016D01*
X288946Y198591D01*
X288833Y198085D01*
X288833Y195369D01*
X383892Y83528D02*
X384005Y83022D01*
X384302Y82597D01*
X384740Y82319D01*
X385250Y82229D01*
X386550Y82229D01*
X386550Y87544D01*
X385250Y87544D01*
X384740Y87454D01*
X384302Y87176D01*
X384005Y86751D01*
X383892Y86245D01*
X383892Y83528D01*
X382534Y82229D02*
X382534Y85949D01*
X382534Y87012D02*
X382534Y87544D01*
X380408Y86776D02*
X380287Y87171D01*
X379984Y87452D01*
X379581Y87544D01*
X380408Y86776D02*
X380408Y85713D01*
X380408Y82229D01*
X381176Y85713D02*
X379581Y85713D01*
X377455Y86776D02*
X377334Y87171D01*
X377031Y87452D01*
X376628Y87544D01*
X377455Y86776D02*
X377455Y85713D01*
X377455Y82229D01*
X378223Y85713D02*
X376628Y85713D01*
X375270Y82760D02*
X375270Y82229D01*
X368745Y83528D02*
X368846Y83020D01*
X369134Y82588D01*
X369565Y82300D01*
X370073Y82199D01*
X370582Y82300D01*
X371013Y82588D01*
X371301Y83020D01*
X371402Y83528D01*
X368715Y83528D02*
X368715Y86245D01*
X371402Y86245D02*
X371301Y86753D01*
X371013Y87184D01*
X370582Y87472D01*
X370073Y87573D01*
X369565Y87472D01*
X369134Y87184D01*
X368846Y86753D01*
X368745Y86245D01*
X371373Y86245D02*
X371373Y83528D01*
X367357Y82229D02*
X367357Y87544D01*
X364699Y82229D01*
X364699Y87544D01*
X348267Y83528D02*
X348380Y83022D01*
X348677Y82597D01*
X349115Y82319D01*
X349625Y82229D01*
X350925Y82229D01*
X350925Y87544D01*
X349625Y87544D01*
X349115Y87454D01*
X348677Y87176D01*
X348380Y86751D01*
X348267Y86245D01*
X348267Y83528D01*
X346909Y82229D02*
X346909Y85949D01*
X346909Y87012D02*
X346909Y87544D01*
X344783Y86776D02*
X344662Y87171D01*
X344359Y87452D01*
X343956Y87544D01*
X344783Y86776D02*
X344783Y85713D01*
X344783Y82229D01*
X345551Y85713D02*
X343956Y85713D01*
X341830Y86776D02*
X341709Y87171D01*
X341406Y87452D01*
X341003Y87544D01*
X341830Y86776D02*
X341830Y85713D01*
X341830Y82229D01*
X342598Y85713D02*
X341003Y85713D01*
X339645Y82760D02*
X339645Y82229D01*
X333120Y83528D02*
X333221Y83020D01*
X333509Y82588D01*
X333940Y82300D01*
X334448Y82199D01*
X334957Y82300D01*
X335388Y82588D01*
X335676Y83020D01*
X335777Y83528D01*
X333090Y83528D02*
X333090Y86245D01*
X335777Y86245D02*
X335676Y86753D01*
X335388Y87184D01*
X334957Y87472D01*
X334448Y87573D01*
X333940Y87472D01*
X333509Y87184D01*
X333221Y86753D01*
X333120Y86245D01*
X335748Y86245D02*
X335748Y83528D01*
X329074Y87544D02*
X331732Y87544D01*
X331732Y84886D01*
X329901Y84886D01*
X331732Y84886D02*
X331732Y82229D01*
X325059Y87544D02*
X327716Y87544D01*
X327716Y84886D01*
X325885Y84886D01*
X327716Y84886D02*
X327716Y82229D01*
X388725Y363100D02*
X388725Y368415D01*
X387426Y368415D01*
X387426Y368444D02*
X386917Y368343D01*
X386486Y368055D01*
X386198Y367624D01*
X386097Y367116D01*
X386198Y366607D01*
X386486Y366176D01*
X386917Y365888D01*
X387426Y365787D01*
X387426Y365757D02*
X388725Y365757D01*
X387426Y365757D02*
X386067Y363100D01*
X380871Y365757D02*
X381435Y365880D01*
X381897Y366226D01*
X382174Y366733D01*
X382215Y367309D01*
X382013Y367850D01*
X381605Y368258D01*
X381064Y368460D01*
X380488Y368419D01*
X379981Y368142D01*
X379635Y367680D01*
X379512Y367116D01*
X380871Y365757D02*
X380316Y365649D01*
X379857Y365321D01*
X379575Y364831D01*
X379522Y364269D01*
X379708Y363736D01*
X380098Y363327D01*
X380623Y363118D01*
X381187Y363146D01*
X381689Y363406D01*
X382037Y363850D01*
X382170Y364399D01*
X378154Y366584D02*
X376560Y366584D01*
X377386Y368415D02*
X377386Y363868D01*
X376560Y363100D02*
X376962Y363192D01*
X377265Y363473D01*
X377386Y363868D01*
X375201Y365462D02*
X375096Y365923D01*
X374801Y366293D01*
X374375Y366498D01*
X373902Y366498D01*
X373476Y366293D01*
X373181Y365923D01*
X373075Y365462D01*
X373197Y365067D01*
X373499Y364786D01*
X373902Y364694D01*
X374434Y364694D01*
X374434Y363070D02*
X374832Y363177D01*
X375124Y363469D01*
X375231Y363868D01*
X375124Y364266D01*
X374832Y364558D01*
X374434Y364665D01*
X374434Y363100D02*
X373902Y363100D01*
X373075Y363868D02*
X373197Y363473D01*
X373499Y363192D01*
X373902Y363100D01*
X373075Y365462D02*
X373075Y363631D01*
X372544Y363100D01*
X371186Y366584D02*
X369591Y366584D01*
X370418Y368415D02*
X370418Y363868D01*
X369591Y363100D02*
X369994Y363192D01*
X370296Y363473D01*
X370418Y363868D01*
X368233Y366584D02*
X368233Y364163D01*
X366107Y364163D02*
X366212Y363702D01*
X366507Y363332D01*
X366933Y363127D01*
X367406Y363127D01*
X367833Y363332D01*
X368128Y363702D01*
X368233Y364163D01*
X366107Y366584D02*
X366107Y363100D01*
X363981Y363100D02*
X364365Y363203D01*
X364646Y363484D01*
X364749Y363868D01*
X363981Y363100D02*
X363449Y363100D01*
X362623Y363868D02*
X362744Y363473D01*
X363047Y363192D01*
X363449Y363100D01*
X362623Y363868D02*
X362623Y364163D01*
X363449Y364931D02*
X363047Y364839D01*
X362744Y364558D01*
X362623Y364163D01*
X363449Y364931D02*
X363981Y364931D01*
X364394Y365041D01*
X364697Y365344D01*
X364808Y365757D01*
X364697Y366171D01*
X364394Y366473D01*
X363981Y366584D01*
X363449Y366584D01*
X363036Y366473D01*
X362733Y366171D01*
X362623Y365757D01*
X358725Y368415D02*
X358725Y363100D01*
X356363Y363100D01*
X352347Y368415D02*
X355004Y368415D01*
X355004Y365757D01*
X353174Y365757D01*
X355004Y365757D02*
X355004Y363100D01*
X352347Y363100D01*
X348331Y364399D02*
X348444Y363893D01*
X348741Y363468D01*
X349179Y363190D01*
X349689Y363100D01*
X350989Y363100D01*
X350989Y368415D01*
X349689Y368415D01*
X349179Y368325D01*
X348741Y368047D01*
X348444Y367622D01*
X348331Y367116D01*
X348331Y364399D01*
X346205Y363100D02*
X346589Y363203D01*
X346870Y363484D01*
X346973Y363868D01*
X346205Y363100D02*
X345674Y363100D01*
X344847Y363868D02*
X344968Y363473D01*
X345271Y363192D01*
X345674Y363100D01*
X344847Y363868D02*
X344847Y364163D01*
X345674Y364931D02*
X345271Y364839D01*
X344968Y364558D01*
X344847Y364163D01*
X345674Y364931D02*
X346205Y364931D01*
X346619Y365041D01*
X346921Y365344D01*
X347032Y365757D01*
X346921Y366171D01*
X346619Y366473D01*
X346205Y366584D01*
X345674Y366584D01*
X345260Y366473D01*
X344958Y366171D01*
X344847Y365757D01*
X297096Y366200D02*
X297191Y365761D01*
X297458Y365400D01*
X297851Y365182D01*
X298299Y365145D01*
X298722Y365297D01*
X299045Y365610D01*
X297096Y366200D02*
X297096Y367263D01*
X299222Y367263D02*
X299117Y367724D01*
X298822Y368094D01*
X298395Y368300D01*
X297922Y368300D01*
X297496Y368094D01*
X297201Y367724D01*
X297096Y367263D01*
X299222Y367263D02*
X299222Y370452D01*
X297096Y370452D01*
X295738Y370452D02*
X294438Y365137D01*
X293080Y370452D01*
X328395Y15019D02*
X328490Y14580D01*
X328758Y14219D01*
X329150Y14001D01*
X329598Y13964D01*
X330021Y14116D01*
X330344Y14429D01*
X328395Y15019D02*
X328395Y16082D01*
X330521Y16082D02*
X330416Y16543D01*
X330121Y16913D01*
X329695Y17119D01*
X329222Y17119D01*
X328795Y16913D01*
X328500Y16543D01*
X328395Y16082D01*
X330521Y16082D02*
X330521Y19271D01*
X328395Y19271D01*
X327037Y19271D02*
X325738Y13956D01*
X324379Y19271D01*
X333804Y28400D02*
X333702Y28909D01*
X333414Y29340D01*
X332983Y29628D01*
X332475Y29729D01*
X331966Y29628D01*
X331535Y29340D01*
X331247Y28909D01*
X331146Y28400D01*
X333774Y28400D02*
X333774Y25684D01*
X331146Y25684D02*
X331247Y25175D01*
X331535Y24744D01*
X331966Y24456D01*
X332475Y24355D01*
X332983Y24456D01*
X333414Y24744D01*
X333702Y25175D01*
X333804Y25684D01*
X331117Y25684D02*
X331117Y27042D01*
X332475Y27042D01*
X329758Y24384D02*
X329758Y29699D01*
X327101Y24384D01*
X327101Y29699D01*
X323085Y25684D02*
X323197Y25177D01*
X323495Y24753D01*
X323933Y24474D01*
X324443Y24384D01*
X325743Y24384D01*
X325743Y29699D01*
X324443Y29699D01*
X323933Y29610D01*
X323495Y29331D01*
X323197Y28906D01*
X323085Y28400D01*
X323085Y25684D01*
X147891Y29355D02*
X146060Y34670D01*
X144170Y29355D01*
X147359Y30949D02*
X144702Y30949D01*
X142812Y32839D02*
X141218Y32839D01*
X142044Y34670D02*
X142044Y30123D01*
X141218Y29355D02*
X141620Y29447D01*
X141923Y29728D01*
X142044Y30123D01*
X139859Y32839D02*
X138265Y32839D01*
X139092Y34670D02*
X139092Y30123D01*
X138265Y29355D02*
X138667Y29447D01*
X138970Y29728D01*
X139092Y30123D01*
X136906Y31186D02*
X134781Y31186D01*
X134781Y31717D01*
X136906Y31717D02*
X136801Y32178D01*
X136506Y32548D01*
X136080Y32753D01*
X135607Y32753D01*
X135181Y32548D01*
X134886Y32178D01*
X134781Y31717D01*
X136906Y31717D02*
X136906Y30418D01*
X134840Y30063D02*
X135106Y29650D01*
X135531Y29401D01*
X136022Y29369D01*
X136475Y29562D01*
X136793Y29939D01*
X136906Y30418D01*
X133422Y29355D02*
X133422Y32839D01*
X133422Y31717D02*
X133317Y32178D01*
X133022Y32548D01*
X132596Y32753D01*
X132123Y32753D01*
X131696Y32548D01*
X131402Y32178D01*
X131296Y31717D01*
X131296Y29355D01*
X129938Y32839D02*
X128343Y32839D01*
X129170Y34670D02*
X129170Y30123D01*
X128343Y29355D02*
X128746Y29447D01*
X129049Y29728D01*
X129170Y30123D01*
X126985Y29355D02*
X126985Y33075D01*
X126985Y34138D02*
X126985Y34670D01*
X123501Y31717D02*
X123501Y30418D01*
X125627Y31717D02*
X125522Y32178D01*
X125227Y32548D01*
X124801Y32753D01*
X124327Y32753D01*
X123901Y32548D01*
X123606Y32178D01*
X123501Y31717D01*
X125627Y30418D02*
X125627Y31717D01*
X123501Y30418D02*
X123606Y29957D01*
X123901Y29587D01*
X124327Y29381D01*
X124801Y29381D01*
X125227Y29587D01*
X125522Y29957D01*
X125627Y30418D01*
X122143Y29355D02*
X122143Y32839D01*
X122143Y31717D02*
X122037Y32178D01*
X121742Y32548D01*
X121316Y32753D01*
X120843Y32753D01*
X120417Y32548D01*
X120122Y32178D01*
X120017Y31717D01*
X120017Y29355D01*
X118658Y34670D02*
X118658Y31186D01*
X118658Y30123D02*
X118658Y29355D01*
X114761Y29355D02*
X114761Y34670D01*
X112103Y29355D01*
X112103Y34670D01*
X108619Y31717D02*
X108619Y30418D01*
X110745Y31717D02*
X110640Y32178D01*
X110345Y32548D01*
X109919Y32753D01*
X109446Y32753D01*
X109019Y32548D01*
X108724Y32178D01*
X108619Y31717D01*
X110745Y30418D02*
X110745Y31717D01*
X108619Y30418D02*
X108724Y29957D01*
X109019Y29587D01*
X109446Y29381D01*
X109919Y29381D01*
X110345Y29587D01*
X110640Y29957D01*
X110745Y30418D01*
X104721Y29355D02*
X104721Y34670D01*
X104721Y31717D02*
X104616Y32178D01*
X104321Y32548D01*
X103895Y32753D01*
X103422Y32753D01*
X102996Y32548D01*
X102701Y32178D01*
X102595Y31717D01*
X102595Y29355D01*
X101237Y29355D02*
X101237Y33075D01*
X101237Y34138D02*
X101237Y34670D01*
X97753Y28823D02*
X97867Y28344D01*
X98184Y27968D01*
X98637Y27775D01*
X99128Y27806D01*
X99553Y28055D01*
X99820Y28469D01*
X97753Y28823D02*
X97753Y31717D01*
X99879Y31717D02*
X99774Y32178D01*
X99479Y32548D01*
X99052Y32753D01*
X98579Y32753D01*
X98153Y32548D01*
X97858Y32178D01*
X97753Y31717D01*
X99879Y31717D02*
X99879Y30418D01*
X97753Y30418D02*
X97858Y29957D01*
X98153Y29587D01*
X98579Y29381D01*
X99052Y29381D01*
X99479Y29587D01*
X99774Y29957D01*
X99879Y30418D01*
X96395Y29355D02*
X96395Y34670D01*
X96395Y31717D02*
X96289Y32178D01*
X95994Y32548D01*
X95568Y32753D01*
X95095Y32753D01*
X94669Y32548D01*
X94374Y32178D01*
X94269Y31717D01*
X94269Y29355D01*
X90371Y32839D02*
X89072Y29355D01*
X87714Y32839D01*
X84229Y31717D02*
X84229Y30418D01*
X86355Y31717D02*
X86250Y32178D01*
X85955Y32548D01*
X85529Y32753D01*
X85056Y32753D01*
X84630Y32548D01*
X84335Y32178D01*
X84229Y31717D01*
X86355Y30418D02*
X86355Y31717D01*
X84229Y30418D02*
X84335Y29957D01*
X84630Y29587D01*
X85056Y29381D01*
X85529Y29381D01*
X85955Y29587D01*
X86250Y29957D01*
X86355Y30418D01*
X82871Y34670D02*
X82871Y30123D01*
X82103Y29355D02*
X82487Y29458D01*
X82768Y29739D01*
X82871Y30123D01*
X80745Y32839D02*
X79151Y32839D01*
X79977Y34670D02*
X79977Y30123D01*
X79151Y29355D02*
X79553Y29447D01*
X79856Y29728D01*
X79977Y30123D01*
X77792Y31717D02*
X77687Y32178D01*
X77392Y32548D01*
X76966Y32753D01*
X76493Y32753D01*
X76067Y32548D01*
X75772Y32178D01*
X75666Y31717D01*
X75788Y31322D01*
X76090Y31041D01*
X76493Y30949D01*
X77025Y30949D01*
X77025Y29325D02*
X77423Y29432D01*
X77715Y29724D01*
X77822Y30123D01*
X77715Y30521D01*
X77423Y30813D01*
X77025Y30920D01*
X77025Y29355D02*
X76493Y29355D01*
X75666Y30123D02*
X75788Y29728D01*
X76090Y29447D01*
X76493Y29355D01*
X75666Y31717D02*
X75666Y29886D01*
X75135Y29355D01*
X71651Y28823D02*
X71764Y28344D01*
X72082Y27968D01*
X72535Y27775D01*
X73026Y27806D01*
X73451Y28055D01*
X73718Y28469D01*
X71651Y28823D02*
X71651Y31717D01*
X73777Y31717D02*
X73671Y32178D01*
X73376Y32548D01*
X72950Y32753D01*
X72477Y32753D01*
X72051Y32548D01*
X71756Y32178D01*
X71651Y31717D01*
X73777Y31717D02*
X73777Y30418D01*
X71651Y30418D02*
X71756Y29957D01*
X72051Y29587D01*
X72477Y29381D01*
X72950Y29381D01*
X73376Y29587D01*
X73671Y29957D01*
X73777Y30418D01*
X70292Y31186D02*
X68166Y31186D01*
X68166Y31717D01*
X70292Y31717D02*
X70187Y32178D01*
X69892Y32548D01*
X69466Y32753D01*
X68993Y32753D01*
X68567Y32548D01*
X68272Y32178D01*
X68166Y31717D01*
X70292Y31717D02*
X70292Y30418D01*
X68225Y30063D02*
X68492Y29650D01*
X68917Y29401D01*
X69408Y29369D01*
X69861Y29562D01*
X70178Y29939D01*
X70292Y30418D01*
X105423Y145649D02*
X104983Y145554D01*
X104623Y145287D01*
X104404Y144894D01*
X104368Y144446D01*
X104519Y144023D01*
X104832Y143700D01*
X105423Y145649D02*
X106486Y145649D01*
X106486Y143523D02*
X106947Y143628D01*
X107317Y143923D01*
X107522Y144350D01*
X107522Y144823D01*
X107317Y145249D01*
X106947Y145544D01*
X106486Y145649D01*
X106486Y143523D02*
X109675Y143523D01*
X109675Y145649D01*
X109675Y147007D02*
X104360Y148307D01*
X109675Y149665D01*
G54D15*
X239862Y337504D02*
X239862Y344591D01*
X239862Y340654D02*
X239754Y341196D01*
X239447Y341656D01*
X238987Y341963D01*
X238444Y342071D01*
X237902Y341963D01*
X237442Y341656D01*
X237135Y341196D01*
X237027Y340654D01*
X237027Y337504D01*
X235216Y342150D02*
X233090Y342150D01*
X234192Y344591D02*
X234192Y338528D01*
X233090Y337504D02*
X233500Y337570D01*
X233853Y337788D01*
X234097Y338124D01*
X234192Y338528D01*
X231279Y342150D02*
X229153Y342150D01*
X230255Y344591D02*
X230255Y338528D01*
X229153Y337504D02*
X229563Y337570D01*
X229916Y337788D01*
X230160Y338124D01*
X230255Y338528D01*
X227342Y335378D02*
X227342Y342150D01*
X224507Y338922D02*
X224615Y338379D01*
X224923Y337920D01*
X225382Y337612D01*
X225925Y337504D01*
X226467Y337612D01*
X226927Y337920D01*
X227234Y338379D01*
X227342Y338922D01*
X224507Y340654D02*
X224507Y338922D01*
X227342Y340654D02*
X227234Y341196D01*
X226927Y341656D01*
X226467Y341963D01*
X225925Y342071D01*
X225382Y341963D01*
X224923Y341656D01*
X224615Y341196D01*
X224507Y340654D01*
X221673Y337504D02*
X222064Y337582D01*
X222397Y337804D01*
X222618Y338136D01*
X222696Y338528D01*
X221673Y337504D02*
X220964Y337504D01*
X219862Y338528D02*
X219957Y338124D01*
X220201Y337788D01*
X220554Y337570D01*
X220964Y337504D01*
X219862Y338528D02*
X219862Y338922D01*
X220964Y339945D02*
X220554Y339880D01*
X220201Y339662D01*
X219957Y339326D01*
X219862Y338922D01*
X220964Y339945D02*
X221673Y339945D01*
X222151Y340055D01*
X222535Y340360D01*
X222747Y340802D01*
X222747Y341293D01*
X222535Y341735D01*
X222151Y342041D01*
X221673Y342150D01*
X220964Y342150D01*
X220542Y342066D01*
X220185Y341827D01*
X219946Y341470D01*
X219862Y341048D01*
X218051Y342859D02*
X217342Y342859D01*
X217342Y339237D02*
X218051Y339237D01*
X212381Y344591D02*
X215531Y337504D01*
X207421Y344591D02*
X210570Y337504D01*
X202775Y336796D02*
X202887Y336243D01*
X203206Y335778D01*
X203681Y335473D01*
X204237Y335378D01*
X204786Y335507D01*
X205241Y335839D01*
X205531Y336323D01*
X202775Y336796D02*
X202775Y340654D01*
X205610Y340654D02*
X205502Y341196D01*
X205195Y341656D01*
X204735Y341963D01*
X204192Y342071D01*
X203650Y341963D01*
X203190Y341656D01*
X202883Y341196D01*
X202775Y340654D01*
X205610Y340654D02*
X205610Y338922D01*
X202775Y338922D02*
X202883Y338379D01*
X203190Y337920D01*
X203650Y337612D01*
X204192Y337504D01*
X204735Y337612D01*
X205195Y337920D01*
X205502Y338379D01*
X205610Y338922D01*
X200964Y337504D02*
X200964Y342465D01*
X200964Y343882D02*
X200964Y344591D01*
X199153Y342150D02*
X197027Y342150D01*
X198129Y344591D02*
X198129Y338528D01*
X197027Y337504D02*
X197437Y337570D01*
X197790Y337788D01*
X198034Y338124D01*
X198129Y338528D01*
X195216Y337504D02*
X195216Y344591D01*
X195216Y340654D02*
X195108Y341196D01*
X194801Y341656D01*
X194341Y341963D01*
X193799Y342071D01*
X193256Y341963D01*
X192797Y341656D01*
X192489Y341196D01*
X192381Y340654D01*
X192381Y337504D01*
X190570Y342150D02*
X190570Y338922D01*
X187736Y338922D02*
X187844Y338379D01*
X188151Y337920D01*
X188611Y337612D01*
X189153Y337504D01*
X189695Y337612D01*
X190155Y337920D01*
X190462Y338379D01*
X190570Y338922D01*
X187736Y342150D02*
X187736Y337504D01*
X185925Y337504D02*
X185925Y344591D01*
X183090Y338922D02*
X183198Y338379D01*
X183505Y337920D01*
X183965Y337612D01*
X184507Y337504D01*
X185050Y337612D01*
X185510Y337920D01*
X185817Y338379D01*
X185925Y338922D01*
X183090Y340654D02*
X183090Y338922D01*
X185925Y340654D02*
X185817Y341196D01*
X185510Y341656D01*
X185050Y341963D01*
X184507Y342071D01*
X183965Y341963D01*
X183505Y341656D01*
X183198Y341196D01*
X183090Y340654D01*
X181279Y338213D02*
X181279Y337504D01*
X179468Y340654D02*
X179360Y341196D01*
X179053Y341656D01*
X178593Y341963D01*
X178051Y342071D01*
X177508Y341963D01*
X177048Y341656D01*
X176741Y341196D01*
X176633Y340654D01*
X179468Y340654D02*
X179468Y338922D01*
X176633Y338922D02*
X176741Y338379D01*
X177048Y337920D01*
X177508Y337612D01*
X178051Y337504D01*
X178593Y337612D01*
X179053Y337920D01*
X179360Y338379D01*
X179468Y338922D01*
X171988Y340654D02*
X171988Y338922D01*
X174822Y340654D02*
X174714Y341196D01*
X174407Y341656D01*
X173947Y341963D01*
X173405Y342071D01*
X172863Y341963D01*
X172403Y341656D01*
X172096Y341196D01*
X171988Y340654D01*
X174822Y338922D02*
X174822Y340654D01*
X171988Y338922D02*
X172096Y338379D01*
X172403Y337920D01*
X172863Y337612D01*
X173405Y337504D01*
X173947Y337612D01*
X174407Y337920D01*
X174714Y338379D01*
X174822Y338922D01*
X170177Y337504D02*
X170177Y342150D01*
X170177Y340654D02*
X170069Y341196D01*
X169762Y341656D01*
X169302Y341963D01*
X168759Y342071D01*
X168217Y341963D01*
X167757Y341656D01*
X167450Y341196D01*
X167342Y340654D01*
X167342Y337504D01*
X167342Y340654D02*
X167234Y341196D01*
X166927Y341656D01*
X166467Y341963D01*
X165925Y342071D01*
X165382Y341963D01*
X164923Y341656D01*
X164615Y341196D01*
X164507Y340654D01*
X164507Y337504D01*
X159547Y344591D02*
X162696Y337504D01*
X157736Y342150D02*
X155610Y342150D01*
X156712Y344591D02*
X156712Y338528D01*
X155610Y337504D02*
X156020Y337570D01*
X156373Y337788D01*
X156616Y338124D01*
X156712Y338528D01*
X153799Y337504D02*
X153799Y344591D01*
X153799Y340654D02*
X153691Y341196D01*
X153384Y341656D01*
X152924Y341963D01*
X152381Y342071D01*
X151839Y341963D01*
X151379Y341656D01*
X151072Y341196D01*
X150964Y340654D01*
X150964Y337504D01*
X149153Y339945D02*
X146318Y339945D01*
X146318Y340654D01*
X149153Y340654D02*
X149045Y341196D01*
X148738Y341656D01*
X148278Y341963D01*
X147736Y342071D01*
X147193Y341963D01*
X146734Y341656D01*
X146426Y341196D01*
X146318Y340654D01*
X149153Y340654D02*
X149153Y338922D01*
X146397Y338449D02*
X146687Y337965D01*
X147142Y337633D01*
X147692Y337504D01*
X148247Y337599D01*
X148722Y337904D01*
X149041Y338369D01*
X149153Y338922D01*
X144507Y337504D02*
X144507Y342150D01*
X144507Y340654D02*
X144399Y341196D01*
X144092Y341656D01*
X143632Y341963D01*
X143090Y342071D01*
X142548Y341963D01*
X142088Y341656D01*
X141781Y341196D01*
X141673Y340654D01*
X141673Y337504D01*
X141673Y340654D02*
X141565Y341196D01*
X141258Y341656D01*
X140798Y341963D01*
X140255Y342071D01*
X139713Y341963D01*
X139253Y341656D01*
X138946Y341196D01*
X138838Y340654D01*
X138838Y337504D01*
X137027Y342150D02*
X137027Y338922D01*
X134192Y338922D02*
X134300Y338379D01*
X134608Y337920D01*
X135067Y337612D01*
X135610Y337504D01*
X136152Y337612D01*
X136612Y337920D01*
X136919Y338379D01*
X137027Y338922D01*
X134192Y342150D02*
X134192Y337504D01*
X132381Y340654D02*
X132274Y341196D01*
X131966Y341656D01*
X131506Y341963D01*
X130964Y342071D01*
X130422Y341963D01*
X129962Y341656D01*
X129655Y341196D01*
X129547Y340654D01*
X132381Y340654D02*
X132381Y338922D01*
X129547Y338922D02*
X129655Y338379D01*
X129962Y337920D01*
X130422Y337612D01*
X130964Y337504D01*
X131506Y337612D01*
X131966Y337920D01*
X132274Y338379D01*
X132381Y338922D01*
X127736Y337504D02*
X127736Y344591D01*
X127736Y338922D02*
X124586Y342150D01*
X126318Y340339D02*
X124586Y337504D01*
X119625Y344591D02*
X122775Y337504D01*
X117814Y344591D02*
X114271Y344591D01*
X117814Y337504D01*
X114271Y337504D01*
X112460Y342150D02*
X110728Y337504D01*
X108917Y342150D02*
X111437Y335772D01*
X112145Y335457D01*
X107106Y337504D02*
X107106Y344591D01*
X107106Y338922D02*
X103956Y342150D01*
X105688Y340339D02*
X103956Y337504D01*
X102145Y344591D02*
X102145Y338528D01*
X101122Y337504D02*
X101513Y337582D01*
X101845Y337804D01*
X102067Y338136D01*
X102145Y338528D01*
X99311Y339945D02*
X96476Y339945D01*
X96476Y340654D01*
X99311Y340654D02*
X99203Y341196D01*
X98895Y341656D01*
X98436Y341963D01*
X97893Y342071D01*
X97351Y341963D01*
X96891Y341656D01*
X96584Y341196D01*
X96476Y340654D01*
X99311Y340654D02*
X99311Y338922D01*
X96555Y338449D02*
X96844Y337965D01*
X97300Y337633D01*
X97849Y337504D01*
X98405Y337599D01*
X98880Y337904D01*
X99198Y338369D01*
X99311Y338922D01*
X94665Y337504D02*
X94665Y342150D01*
X94665Y340654D02*
X94557Y341196D01*
X94250Y341656D01*
X93790Y341963D01*
X93248Y342071D01*
X92705Y341963D01*
X92245Y341656D01*
X91938Y341196D01*
X91830Y340654D01*
X91830Y337504D01*
X90019Y337504D02*
X87578Y344591D01*
X85059Y337504D01*
X89311Y339630D02*
X85767Y339630D01*
X83248Y342150D02*
X83248Y338922D01*
X80413Y338922D02*
X80521Y338379D01*
X80828Y337920D01*
X81288Y337612D01*
X81830Y337504D01*
X82373Y337612D01*
X82832Y337920D01*
X83140Y338379D01*
X83248Y338922D01*
X80413Y342150D02*
X80413Y337504D01*
X78602Y342150D02*
X76476Y342150D01*
X77578Y344591D02*
X77578Y338528D01*
X76476Y337504D02*
X76886Y337570D01*
X77239Y337788D01*
X77482Y338124D01*
X77578Y338528D01*
X71830Y340654D02*
X71830Y338922D01*
X74665Y340654D02*
X74557Y341196D01*
X74250Y341656D01*
X73790Y341963D01*
X73248Y342071D01*
X72705Y341963D01*
X72245Y341656D01*
X71938Y341196D01*
X71830Y340654D01*
X74665Y338922D02*
X74665Y340654D01*
X71830Y338922D02*
X71938Y338379D01*
X72245Y337920D01*
X72705Y337612D01*
X73248Y337504D01*
X73790Y337612D01*
X74250Y337920D01*
X74557Y338379D01*
X74665Y338922D01*
X70019Y337504D02*
X70019Y342150D01*
X70019Y340654D02*
X69911Y341196D01*
X69604Y341656D01*
X69144Y341963D01*
X68602Y342071D01*
X68059Y341963D01*
X67600Y341656D01*
X67292Y341196D01*
X67185Y340654D01*
X67185Y337504D01*
X67185Y340654D02*
X67077Y341196D01*
X66769Y341656D01*
X66310Y341963D01*
X65767Y342071D01*
X65225Y341963D01*
X64765Y341656D01*
X64458Y341196D01*
X64350Y340654D01*
X64350Y337504D01*
X62539Y340654D02*
X62431Y341196D01*
X62124Y341656D01*
X61664Y341963D01*
X61122Y342071D01*
X60579Y341963D01*
X60119Y341656D01*
X59812Y341196D01*
X59704Y340654D01*
X59800Y340250D01*
X60043Y339914D01*
X60397Y339696D01*
X60807Y339630D01*
X61515Y339630D01*
X61515Y337465D02*
X61976Y337570D01*
X62346Y337865D01*
X62552Y338292D01*
X62552Y338765D01*
X62346Y339191D01*
X61976Y339486D01*
X61515Y339591D01*
X61515Y337504D02*
X60807Y337504D01*
X59704Y338528D02*
X59800Y338124D01*
X60043Y337788D01*
X60397Y337570D01*
X60807Y337504D01*
X59704Y340654D02*
X59704Y338213D01*
X58996Y337504D01*
X57185Y342150D02*
X55059Y342150D01*
X56161Y344591D02*
X56161Y338528D01*
X55059Y337504D02*
X55468Y337570D01*
X55822Y337788D01*
X56065Y338124D01*
X56161Y338528D01*
X53248Y337504D02*
X53248Y342465D01*
X53248Y343882D02*
X53248Y344591D01*
X51437Y337504D02*
X51437Y344591D01*
X51437Y338922D02*
X48287Y342150D01*
X50019Y340339D02*
X48287Y337504D01*
X319783Y383567D02*
X317342Y390654D01*
X314822Y383567D01*
X319074Y385693D02*
X315531Y385693D01*
X313011Y383567D02*
X313011Y388213D01*
X313011Y387111D02*
X312903Y387598D01*
X312586Y387983D01*
X312128Y388182D01*
X311630Y388152D01*
X311200Y387898D01*
X306555Y390654D02*
X306555Y383567D01*
X309389Y386717D02*
X309281Y387259D01*
X308974Y387719D01*
X308514Y388026D01*
X307972Y388134D01*
X307430Y388026D01*
X306970Y387719D01*
X306663Y387259D01*
X306555Y386717D01*
X309389Y386717D02*
X309389Y384985D01*
X306555Y384985D02*
X306663Y384442D01*
X306970Y383983D01*
X307430Y383675D01*
X307972Y383567D01*
X308514Y383675D01*
X308974Y383983D01*
X309281Y384442D01*
X309389Y384985D01*
X304744Y388213D02*
X304744Y384985D01*
X301909Y384985D02*
X302017Y384442D01*
X302324Y383983D01*
X302784Y383675D01*
X303326Y383567D01*
X303869Y383675D01*
X304328Y383983D01*
X304636Y384442D01*
X304744Y384985D01*
X301909Y388213D02*
X301909Y383567D01*
X300098Y383567D02*
X300098Y388528D01*
X300098Y389945D02*
X300098Y390654D01*
X298287Y383567D02*
X298287Y388213D01*
X298287Y386717D02*
X298179Y387259D01*
X297872Y387719D01*
X297412Y388026D01*
X296870Y388134D01*
X296327Y388026D01*
X295867Y387719D01*
X295560Y387259D01*
X295452Y386717D01*
X295452Y383567D01*
X290807Y386717D02*
X290807Y384985D01*
X293641Y386717D02*
X293533Y387259D01*
X293226Y387719D01*
X292766Y388026D01*
X292224Y388134D01*
X291682Y388026D01*
X291222Y387719D01*
X290914Y387259D01*
X290807Y386717D01*
X293641Y384985D02*
X293641Y386717D01*
X290807Y384985D02*
X290914Y384442D01*
X291222Y383983D01*
X291682Y383675D01*
X292224Y383567D01*
X292766Y383675D01*
X293226Y383983D01*
X293533Y384442D01*
X293641Y384985D01*
X285610Y383567D02*
X285610Y390654D01*
X283169Y385693D01*
X280649Y390654D01*
X280649Y383567D01*
X278838Y386008D02*
X276003Y386008D01*
X276003Y386717D01*
X278838Y386717D02*
X278730Y387259D01*
X278423Y387719D01*
X277963Y388026D01*
X277421Y388134D01*
X276878Y388026D01*
X276419Y387719D01*
X276111Y387259D01*
X276003Y386717D01*
X278838Y386717D02*
X278838Y384985D01*
X276082Y384512D02*
X276372Y384028D01*
X276827Y383696D01*
X277377Y383567D01*
X277933Y383662D01*
X278407Y383967D01*
X278726Y384432D01*
X278838Y384985D01*
X271358Y382859D02*
X271470Y382306D01*
X271789Y381841D01*
X272263Y381536D01*
X272819Y381441D01*
X273368Y381570D01*
X273824Y381902D01*
X274114Y382386D01*
X271358Y382859D02*
X271358Y386717D01*
X274192Y386717D02*
X274085Y387259D01*
X273777Y387719D01*
X273317Y388026D01*
X272775Y388134D01*
X272233Y388026D01*
X271773Y387719D01*
X271466Y387259D01*
X271358Y386717D01*
X274192Y386717D02*
X274192Y384985D01*
X271358Y384985D02*
X271466Y384442D01*
X271773Y383983D01*
X272233Y383675D01*
X272775Y383567D01*
X273317Y383675D01*
X273777Y383983D01*
X274085Y384442D01*
X274192Y384985D01*
X269547Y386717D02*
X269439Y387259D01*
X269132Y387719D01*
X268672Y388026D01*
X268129Y388134D01*
X267587Y388026D01*
X267127Y387719D01*
X266820Y387259D01*
X266712Y386717D01*
X266808Y386313D01*
X267051Y385977D01*
X267405Y385759D01*
X267814Y385693D01*
X268523Y385693D01*
X268523Y383528D02*
X268984Y383633D01*
X269354Y383928D01*
X269559Y384354D01*
X269559Y384828D01*
X269354Y385254D01*
X268984Y385549D01*
X268523Y385654D01*
X268523Y383567D02*
X267814Y383567D01*
X266712Y384591D02*
X266808Y384187D01*
X267051Y383851D01*
X267405Y383633D01*
X267814Y383567D01*
X266712Y386717D02*
X266712Y384276D01*
X266003Y383567D01*
X264192Y389237D02*
X264085Y389779D01*
X263777Y390239D01*
X263317Y390546D01*
X262775Y390654D01*
X262233Y390546D01*
X261773Y390239D01*
X261466Y389779D01*
X261358Y389237D01*
X264192Y383567D01*
X261358Y383567D01*
X256712Y384985D02*
X256838Y384399D01*
X257195Y383918D01*
X257719Y383627D01*
X258316Y383578D01*
X258880Y383780D01*
X259311Y384197D01*
X256712Y384985D02*
X256712Y386402D01*
X259547Y386402D02*
X259439Y386944D01*
X259132Y387404D01*
X258672Y387711D01*
X258129Y387819D01*
X257587Y387711D01*
X257127Y387404D01*
X256820Y386944D01*
X256712Y386402D01*
X259547Y386402D02*
X259547Y390654D01*
X256712Y390654D01*
X254901Y389237D02*
X254793Y389779D01*
X254486Y390239D01*
X254026Y390546D01*
X253484Y390654D01*
X252941Y390546D01*
X252482Y390239D01*
X252174Y389779D01*
X252066Y389237D01*
X254901Y389237D02*
X254901Y384985D01*
X252066Y384985D02*
X252174Y384442D01*
X252482Y383983D01*
X252941Y383675D01*
X253484Y383567D01*
X254026Y383675D01*
X254486Y383983D01*
X254793Y384442D01*
X254901Y384985D01*
X252066Y384985D02*
X252066Y386402D01*
X254901Y386402D02*
X254793Y386944D01*
X254486Y387404D01*
X254026Y387711D01*
X253484Y387819D01*
X252941Y387711D01*
X252482Y387404D01*
X252174Y386944D01*
X252066Y386402D01*
X247421Y389237D02*
X247421Y384985D01*
X250255Y389237D02*
X250148Y389779D01*
X249840Y390239D01*
X249380Y390546D01*
X248838Y390654D01*
X248296Y390546D01*
X247836Y390239D01*
X247529Y389779D01*
X247421Y389237D01*
X250255Y384985D02*
X250255Y389237D01*
X247421Y384985D02*
X247529Y384442D01*
X247836Y383983D01*
X248296Y383675D01*
X248838Y383567D01*
X249380Y383675D01*
X249840Y383983D01*
X250148Y384442D01*
X250255Y384985D01*
G54D16*
X85275Y365600D02*
X87775Y363100D01*
X92775Y363100D01*
X95275Y365600D01*
X95275Y370600D01*
X92775Y373100D01*
X87775Y373100D01*
X85275Y370600D01*
X67775Y363100D02*
X72775Y363100D01*
X75275Y365600D01*
X75275Y370600D01*
X72775Y373100D01*
X75275Y365600D02*
X77775Y363100D01*
X82775Y363100D01*
X85275Y365600D01*
X85275Y370600D01*
X82775Y373100D01*
X77775Y373100D01*
X75275Y370600D01*
X55275Y365600D02*
X57775Y363100D01*
X62775Y363100D01*
X65275Y365600D01*
X65275Y370600D01*
X62775Y373100D01*
X57775Y373100D01*
X55275Y370600D01*
X67775Y363100D02*
X65275Y365600D01*
X65275Y370600D02*
X67775Y373100D01*
X72775Y373100D02*
X67775Y373100D01*
X37775Y363100D02*
X42775Y363100D01*
X45275Y365600D01*
X45275Y370600D01*
X42775Y373100D01*
X45275Y365600D02*
X47775Y363100D01*
X52775Y363100D01*
X55275Y365600D01*
X55275Y370600D01*
X52775Y373100D01*
X47775Y373100D01*
X45275Y370600D01*
X25275Y365600D02*
X27775Y363100D01*
X32775Y363100D01*
X35275Y365600D01*
X35275Y370600D01*
X32775Y373100D01*
X27775Y373100D01*
X25275Y370600D01*
X37775Y363100D02*
X35275Y365600D01*
X35275Y370600D02*
X37775Y373100D01*
X42775Y373100D02*
X37775Y373100D01*
X7775Y363100D02*
X12775Y363100D01*
X15275Y365600D01*
X15275Y370600D01*
X12775Y373100D01*
X15275Y365600D02*
X17775Y363100D01*
X22775Y363100D01*
X25275Y365600D01*
X25275Y370600D01*
X22775Y373100D01*
X17775Y373100D01*
X15275Y370600D01*
X5275Y365600D02*
X5275Y373100D01*
X7775Y363100D02*
X5275Y365600D01*
X12775Y373100D02*
X5275Y373100D01*
X97775Y363100D02*
X102775Y363100D01*
X105275Y365600D01*
X105275Y370600D01*
X102775Y373100D01*
X97775Y363100D02*
X95275Y365600D01*
X95275Y370600D02*
X97775Y373100D01*
X102775Y373100D02*
X97775Y373100D01*
X301338Y370600D02*
X301338Y365600D01*
X303838Y363100D01*
X308838Y363100D02*
X311338Y365600D01*
X303838Y373100D02*
X311338Y373100D01*
X301338Y370600D02*
X303838Y373100D01*
X311338Y365600D02*
X311338Y373100D01*
X301338Y220600D02*
X301338Y215600D01*
X303838Y213100D01*
X308838Y213100D01*
X311338Y215600D01*
X303838Y213100D02*
X301338Y210600D01*
X301338Y205600D01*
X303838Y203100D01*
X308838Y203100D01*
X311338Y205600D01*
X311338Y210600D01*
X308838Y213100D01*
X303838Y233100D02*
X301338Y230600D01*
X301338Y225600D01*
X303838Y223100D01*
X308838Y223100D01*
X311338Y225600D01*
X311338Y230600D01*
X308838Y233100D01*
X301338Y220600D02*
X303838Y223100D01*
X308838Y223100D02*
X311338Y220600D01*
X311338Y215600D02*
X311338Y220600D01*
X301338Y250600D02*
X301338Y245600D01*
X303838Y243100D01*
X308838Y243100D01*
X311338Y245600D01*
X303838Y243100D02*
X301338Y240600D01*
X301338Y235600D01*
X303838Y233100D01*
X308838Y233100D01*
X311338Y235600D01*
X311338Y240600D01*
X308838Y243100D01*
X303838Y263100D02*
X301338Y260600D01*
X301338Y255600D01*
X303838Y253100D01*
X308838Y253100D01*
X311338Y255600D01*
X311338Y260600D01*
X308838Y263100D01*
X301338Y250600D02*
X303838Y253100D01*
X308838Y253100D02*
X311338Y250600D01*
X311338Y245600D02*
X311338Y250600D01*
X301338Y280600D02*
X301338Y275600D01*
X303838Y273100D01*
X308838Y273100D01*
X311338Y275600D01*
X303838Y273100D02*
X301338Y270600D01*
X301338Y265600D01*
X303838Y263100D01*
X308838Y263100D01*
X311338Y265600D01*
X311338Y270600D01*
X308838Y273100D01*
X303838Y293100D02*
X301338Y290600D01*
X301338Y285600D01*
X303838Y283100D01*
X308838Y283100D01*
X311338Y285600D01*
X311338Y290600D01*
X308838Y293100D01*
X301338Y280600D02*
X303838Y283100D01*
X308838Y283100D02*
X311338Y280600D01*
X311338Y275600D02*
X311338Y280600D01*
X301338Y310600D02*
X301338Y305600D01*
X303838Y303100D01*
X308838Y303100D01*
X311338Y305600D01*
X303838Y303100D02*
X301338Y300600D01*
X301338Y295600D01*
X303838Y293100D01*
X308838Y293100D01*
X311338Y295600D01*
X311338Y300600D01*
X308838Y303100D01*
X303838Y323100D02*
X301338Y320600D01*
X301338Y315600D01*
X303838Y313100D01*
X308838Y313100D01*
X311338Y315600D01*
X311338Y320600D01*
X308838Y323100D01*
X301338Y310600D02*
X303838Y313100D01*
X308838Y313100D02*
X311338Y310600D01*
X311338Y305600D02*
X311338Y310600D01*
X301338Y340600D02*
X301338Y335600D01*
X303838Y333100D01*
X308838Y333100D01*
X311338Y335600D01*
X303838Y333100D02*
X301338Y330600D01*
X301338Y325600D01*
X303838Y323100D01*
X308838Y323100D01*
X311338Y325600D01*
X311338Y330600D01*
X308838Y333100D01*
X303838Y353100D02*
X301338Y350600D01*
X301338Y345600D01*
X303838Y343100D01*
X308838Y343100D01*
X311338Y345600D01*
X311338Y350600D01*
X308838Y353100D01*
X301338Y340600D02*
X303838Y343100D01*
X308838Y343100D02*
X311338Y340600D01*
X311338Y335600D02*
X311338Y340600D01*
X303838Y363100D02*
X308838Y363100D01*
X303838Y363100D02*
X301338Y360600D01*
X301338Y355600D01*
X303838Y353100D01*
X308838Y353100D01*
X311338Y355600D01*
X311338Y360600D01*
X308838Y363100D01*
X303838Y203100D02*
X301338Y200600D01*
X301338Y195600D01*
X303838Y193100D01*
X308838Y193100D01*
X311338Y195600D01*
X311338Y200600D01*
X308838Y203100D01*
X311377Y370600D02*
X311377Y365600D01*
X313877Y363100D01*
X318877Y363100D02*
X321377Y365600D01*
X313877Y373100D02*
X321377Y373100D01*
X311377Y370600D02*
X313877Y373100D01*
X321377Y365600D02*
X321377Y373100D01*
X311377Y220600D02*
X311377Y215600D01*
X313877Y213100D01*
X318877Y213100D01*
X321377Y215600D01*
X313877Y213100D02*
X311377Y210600D01*
X311377Y205600D01*
X313877Y203100D01*
X318877Y203100D01*
X321377Y205600D01*
X321377Y210600D01*
X318877Y213100D01*
X313877Y233100D02*
X311377Y230600D01*
X311377Y225600D01*
X313877Y223100D01*
X318877Y223100D01*
X321377Y225600D01*
X321377Y230600D01*
X318877Y233100D01*
X311377Y220600D02*
X313877Y223100D01*
X318877Y223100D02*
X321377Y220600D01*
X321377Y215600D02*
X321377Y220600D01*
X311377Y250600D02*
X311377Y245600D01*
X313877Y243100D01*
X318877Y243100D01*
X321377Y245600D01*
X313877Y243100D02*
X311377Y240600D01*
X311377Y235600D01*
X313877Y233100D01*
X318877Y233100D01*
X321377Y235600D01*
X321377Y240600D01*
X318877Y243100D01*
X313877Y263100D02*
X311377Y260600D01*
X311377Y255600D01*
X313877Y253100D01*
X318877Y253100D01*
X321377Y255600D01*
X321377Y260600D01*
X318877Y263100D01*
X311377Y250600D02*
X313877Y253100D01*
X318877Y253100D02*
X321377Y250600D01*
X321377Y245600D02*
X321377Y250600D01*
X311377Y280600D02*
X311377Y275600D01*
X313877Y273100D01*
X318877Y273100D01*
X321377Y275600D01*
X313877Y273100D02*
X311377Y270600D01*
X311377Y265600D01*
X313877Y263100D01*
X318877Y263100D01*
X321377Y265600D01*
X321377Y270600D01*
X318877Y273100D01*
X313877Y293100D02*
X311377Y290600D01*
X311377Y285600D01*
X313877Y283100D01*
X318877Y283100D01*
X321377Y285600D01*
X321377Y290600D01*
X318877Y293100D01*
X311377Y280600D02*
X313877Y283100D01*
X318877Y283100D02*
X321377Y280600D01*
X321377Y275600D02*
X321377Y280600D01*
X311377Y310600D02*
X311377Y305600D01*
X313877Y303100D01*
X318877Y303100D01*
X321377Y305600D01*
X313877Y303100D02*
X311377Y300600D01*
X311377Y295600D01*
X313877Y293100D01*
X318877Y293100D01*
X321377Y295600D01*
X321377Y300600D01*
X318877Y303100D01*
X313877Y323100D02*
X311377Y320600D01*
X311377Y315600D01*
X313877Y313100D01*
X318877Y313100D01*
X321377Y315600D01*
X321377Y320600D01*
X318877Y323100D01*
X311377Y310600D02*
X313877Y313100D01*
X318877Y313100D02*
X321377Y310600D01*
X321377Y305600D02*
X321377Y310600D01*
X311377Y340600D02*
X311377Y335600D01*
X313877Y333100D01*
X318877Y333100D01*
X321377Y335600D01*
X313877Y333100D02*
X311377Y330600D01*
X311377Y325600D01*
X313877Y323100D01*
X318877Y323100D01*
X321377Y325600D01*
X321377Y330600D01*
X318877Y333100D01*
X313877Y353100D02*
X311377Y350600D01*
X311377Y345600D01*
X313877Y343100D01*
X318877Y343100D01*
X321377Y345600D01*
X321377Y350600D01*
X318877Y353100D01*
X311377Y340600D02*
X313877Y343100D01*
X318877Y343100D02*
X321377Y340600D01*
X321377Y335600D02*
X321377Y340600D01*
X313877Y363100D02*
X318877Y363100D01*
X313877Y363100D02*
X311377Y360600D01*
X311377Y355600D01*
X313877Y353100D01*
X318877Y353100D01*
X321377Y355600D01*
X321377Y360600D01*
X318877Y363100D01*
X313877Y203100D02*
X311377Y200600D01*
X311377Y195600D01*
X313877Y193100D01*
X318877Y193100D01*
X321377Y195600D01*
X321377Y200600D01*
X318877Y203100D01*
X43799Y172942D02*
X48799Y172942D01*
X51299Y175442D01*
X51299Y180442D02*
X48799Y182942D01*
X41299Y175442D02*
X41299Y182942D01*
X43799Y172942D02*
X41299Y175442D01*
X48799Y182942D02*
X41299Y182942D01*
X103799Y172942D02*
X108799Y172942D01*
X111299Y175442D01*
X111299Y180442D01*
X108799Y182942D01*
X91299Y175442D02*
X93799Y172942D01*
X98799Y172942D01*
X101299Y175442D01*
X101299Y180442D01*
X98799Y182942D01*
X93799Y182942D01*
X91299Y180442D01*
X103799Y172942D02*
X101299Y175442D01*
X101299Y180442D02*
X103799Y182942D01*
X108799Y182942D02*
X103799Y182942D01*
X73799Y172942D02*
X78799Y172942D01*
X81299Y175442D01*
X81299Y180442D01*
X78799Y182942D01*
X81299Y175442D02*
X83799Y172942D01*
X88799Y172942D01*
X91299Y175442D01*
X91299Y180442D01*
X88799Y182942D01*
X83799Y182942D01*
X81299Y180442D01*
X61299Y175442D02*
X63799Y172942D01*
X68799Y172942D01*
X71299Y175442D01*
X71299Y180442D01*
X68799Y182942D01*
X63799Y182942D01*
X61299Y180442D01*
X73799Y172942D02*
X71299Y175442D01*
X71299Y180442D02*
X73799Y182942D01*
X78799Y182942D02*
X73799Y182942D01*
X51299Y175442D02*
X51299Y180442D01*
X51299Y175442D02*
X53799Y172942D01*
X58799Y172942D01*
X61299Y175442D01*
X61299Y180442D01*
X58799Y182942D01*
X53799Y182942D01*
X51299Y180442D01*
X113799Y172942D02*
X118799Y172942D01*
X121299Y175442D01*
X121299Y180442D01*
X118799Y182942D01*
X113799Y172942D02*
X111299Y175442D01*
X111299Y180442D02*
X113799Y182942D01*
X118799Y182942D02*
X113799Y182942D01*
X133759Y172942D02*
X138759Y172942D01*
X141259Y175442D01*
X141259Y180442D02*
X138759Y182942D01*
X131259Y175442D02*
X131259Y182942D01*
X133759Y172942D02*
X131259Y175442D01*
X138759Y182942D02*
X131259Y182942D01*
X193759Y172942D02*
X198759Y172942D01*
X201259Y175442D01*
X201259Y180442D01*
X198759Y182942D01*
X181259Y175442D02*
X183759Y172942D01*
X188759Y172942D01*
X191259Y175442D01*
X191259Y180442D01*
X188759Y182942D01*
X183759Y182942D01*
X181259Y180442D01*
X193759Y172942D02*
X191259Y175442D01*
X191259Y180442D02*
X193759Y182942D01*
X198759Y182942D02*
X193759Y182942D01*
X163759Y172942D02*
X168759Y172942D01*
X171259Y175442D01*
X171259Y180442D01*
X168759Y182942D01*
X171259Y175442D02*
X173759Y172942D01*
X178759Y172942D01*
X181259Y175442D01*
X181259Y180442D01*
X178759Y182942D01*
X173759Y182942D01*
X171259Y180442D01*
X151259Y175442D02*
X153759Y172942D01*
X158759Y172942D01*
X161259Y175442D01*
X161259Y180442D01*
X158759Y182942D01*
X153759Y182942D01*
X151259Y180442D01*
X163759Y172942D02*
X161259Y175442D01*
X161259Y180442D02*
X163759Y182942D01*
X168759Y182942D02*
X163759Y182942D01*
X141259Y175442D02*
X141259Y180442D01*
X141259Y175442D02*
X143759Y172942D01*
X148759Y172942D01*
X151259Y175442D01*
X151259Y180442D01*
X148759Y182942D01*
X143759Y182942D01*
X141259Y180442D01*
X203759Y172942D02*
X208759Y172942D01*
X211259Y175442D01*
X211259Y180442D01*
X208759Y182942D01*
X203759Y172942D02*
X201259Y175442D01*
X201259Y180442D02*
X203759Y182942D01*
X208759Y182942D02*
X203759Y182942D01*
X223917Y172942D02*
X228917Y172942D01*
X231417Y175442D01*
X231417Y180442D02*
X228917Y182942D01*
X221417Y175442D02*
X221417Y182942D01*
X223917Y172942D02*
X221417Y175442D01*
X228917Y182942D02*
X221417Y182942D01*
X283917Y172942D02*
X288917Y172942D01*
X291417Y175442D01*
X291417Y180442D01*
X288917Y182942D01*
X271417Y175442D02*
X273917Y172942D01*
X278917Y172942D01*
X281417Y175442D01*
X281417Y180442D01*
X278917Y182942D01*
X273917Y182942D01*
X271417Y180442D01*
X283917Y172942D02*
X281417Y175442D01*
X281417Y180442D02*
X283917Y182942D01*
X288917Y182942D02*
X283917Y182942D01*
X253917Y172942D02*
X258917Y172942D01*
X261417Y175442D01*
X261417Y180442D01*
X258917Y182942D01*
X261417Y175442D02*
X263917Y172942D01*
X268917Y172942D01*
X271417Y175442D01*
X271417Y180442D01*
X268917Y182942D01*
X263917Y182942D01*
X261417Y180442D01*
X241417Y175442D02*
X243917Y172942D01*
X248917Y172942D01*
X251417Y175442D01*
X251417Y180442D01*
X248917Y182942D01*
X243917Y182942D01*
X241417Y180442D01*
X253917Y172942D02*
X251417Y175442D01*
X251417Y180442D02*
X253917Y182942D01*
X258917Y182942D02*
X253917Y182942D01*
X231417Y175442D02*
X231417Y180442D01*
X231417Y175442D02*
X233917Y172942D01*
X238917Y172942D01*
X241417Y175442D01*
X241417Y180442D01*
X238917Y182942D01*
X233917Y182942D01*
X231417Y180442D01*
X293917Y172942D02*
X298917Y172942D01*
X301417Y175442D01*
X301417Y180442D01*
X298917Y182942D01*
X293917Y172942D02*
X291417Y175442D01*
X291417Y180442D02*
X293917Y182942D01*
X298917Y182942D02*
X293917Y182942D01*
X203838Y363100D02*
X208838Y363100D01*
X211338Y365600D01*
X211338Y370600D02*
X208838Y373100D01*
X201338Y365600D02*
X201338Y373100D01*
X203838Y363100D02*
X201338Y365600D01*
X208838Y373100D02*
X201338Y373100D01*
X263838Y363100D02*
X268838Y363100D01*
X271338Y365600D01*
X271338Y370600D01*
X268838Y373100D01*
X251338Y365600D02*
X253838Y363100D01*
X258838Y363100D01*
X261338Y365600D01*
X261338Y370600D01*
X258838Y373100D01*
X253838Y373100D01*
X251338Y370600D01*
X263838Y363100D02*
X261338Y365600D01*
X261338Y370600D02*
X263838Y373100D01*
X268838Y373100D02*
X263838Y373100D01*
X233838Y363100D02*
X238838Y363100D01*
X241338Y365600D01*
X241338Y370600D01*
X238838Y373100D01*
X241338Y365600D02*
X243838Y363100D01*
X248838Y363100D01*
X251338Y365600D01*
X251338Y370600D01*
X248838Y373100D01*
X243838Y373100D01*
X241338Y370600D01*
X221338Y365600D02*
X223838Y363100D01*
X228838Y363100D01*
X231338Y365600D01*
X231338Y370600D01*
X228838Y373100D01*
X223838Y373100D01*
X221338Y370600D01*
X233838Y363100D02*
X231338Y365600D01*
X231338Y370600D02*
X233838Y373100D01*
X238838Y373100D02*
X233838Y373100D01*
X211338Y365600D02*
X211338Y370600D01*
X211338Y365600D02*
X213838Y363100D01*
X218838Y363100D01*
X221338Y365600D01*
X221338Y370600D01*
X218838Y373100D01*
X213838Y373100D01*
X211338Y370600D01*
X273838Y363100D02*
X278838Y363100D01*
X281338Y365600D01*
X281338Y370600D01*
X278838Y373100D01*
X273838Y363100D02*
X271338Y365600D01*
X271338Y370600D02*
X273838Y373100D01*
X278838Y373100D02*
X273838Y373100D01*
X113877Y363100D02*
X118877Y363100D01*
X121377Y365600D01*
X121377Y370600D02*
X118877Y373100D01*
X111377Y365600D02*
X111377Y373100D01*
X113877Y363100D02*
X111377Y365600D01*
X118877Y373100D02*
X111377Y373100D01*
X173877Y363100D02*
X178877Y363100D01*
X181377Y365600D01*
X181377Y370600D01*
X178877Y373100D01*
X161377Y365600D02*
X163877Y363100D01*
X168877Y363100D01*
X171377Y365600D01*
X171377Y370600D01*
X168877Y373100D01*
X163877Y373100D01*
X161377Y370600D01*
X173877Y363100D02*
X171377Y365600D01*
X171377Y370600D02*
X173877Y373100D01*
X178877Y373100D02*
X173877Y373100D01*
X143877Y363100D02*
X148877Y363100D01*
X151377Y365600D01*
X151377Y370600D01*
X148877Y373100D01*
X151377Y365600D02*
X153877Y363100D01*
X158877Y363100D01*
X161377Y365600D01*
X161377Y370600D01*
X158877Y373100D01*
X153877Y373100D01*
X151377Y370600D01*
X131377Y365600D02*
X133877Y363100D01*
X138877Y363100D01*
X141377Y365600D01*
X141377Y370600D01*
X138877Y373100D01*
X133877Y373100D01*
X131377Y370600D01*
X143877Y363100D02*
X141377Y365600D01*
X141377Y370600D02*
X143877Y373100D01*
X148877Y373100D02*
X143877Y373100D01*
X121377Y365600D02*
X121377Y370600D01*
X121377Y365600D02*
X123877Y363100D01*
X128877Y363100D01*
X131377Y365600D01*
X131377Y370600D01*
X128877Y373100D01*
X123877Y373100D01*
X121377Y370600D01*
X183877Y363100D02*
X188877Y363100D01*
X191377Y365600D01*
X191377Y370600D01*
X188877Y373100D01*
X183877Y363100D02*
X181377Y365600D01*
X181377Y370600D02*
X183877Y373100D01*
X188877Y373100D02*
X183877Y373100D01*
X342618Y331426D02*
X342618Y347426D01*
X335018Y347426D01*
X335018Y331426D01*
X342618Y331426D02*
X335018Y331426D01*
X356201Y331426D02*
X356201Y347426D01*
X348601Y347426D01*
X348601Y331426D01*
X356201Y331426D02*
X348601Y331426D01*
X369981Y331426D02*
X369981Y347426D01*
X362381Y347426D01*
X362381Y331426D01*
X369981Y331426D02*
X362381Y331426D01*
X383760Y331426D02*
X383760Y347426D01*
X376160Y347426D01*
X376160Y331426D01*
X383760Y331426D02*
X376160Y331426D01*
X380688Y286861D02*
X380688Y270861D01*
X388288Y270861D01*
X388288Y286861D01*
X380688Y286861D02*
X388288Y286861D01*
X148484Y306761D02*
X148606Y305989D01*
X148961Y305292D01*
X149514Y304739D01*
X150211Y304384D01*
X150984Y304261D01*
X151756Y304384D01*
X152453Y304739D01*
X153006Y305292D01*
X153361Y305989D01*
X153484Y306761D01*
X160984Y306761D02*
X140984Y306761D01*
X160984Y306761D02*
X160984Y226761D01*
X140984Y226761D01*
X140984Y306761D01*
X99585Y209772D02*
X115585Y209772D01*
X115585Y217372D01*
X99585Y217372D01*
X99585Y209772D02*
X99585Y217372D01*
X92775Y226683D02*
X92775Y266683D01*
X120767Y266683D01*
X120767Y226683D01*
X92775Y226683D01*
X92775Y270974D02*
X92775Y310974D01*
X120767Y310974D01*
X120767Y270974D01*
X92775Y270974D01*
X112894Y105048D02*
X112894Y121048D01*
X105294Y121048D01*
X105294Y105048D01*
X112894Y105048D02*
X105294Y105048D01*
X122146Y105048D02*
X122146Y121048D01*
X114546Y121048D01*
X114546Y105048D01*
X122146Y105048D02*
X114546Y105048D01*
X131398Y105048D02*
X131398Y121048D01*
X123798Y121048D01*
X123798Y105048D01*
X131398Y105048D02*
X123798Y105048D01*
X45451Y20719D02*
X45451Y4719D01*
X53051Y4719D01*
X53051Y20719D01*
X45451Y20719D02*
X53051Y20719D01*
X36003Y20719D02*
X36003Y4719D01*
X43603Y4719D01*
X43603Y20719D01*
X36003Y20719D02*
X43603Y20719D01*
X26160Y20719D02*
X26160Y4719D01*
X33760Y4719D01*
X33760Y20719D01*
X26160Y20719D02*
X33760Y20719D01*
X383937Y195659D02*
X383788Y198304D01*
X383344Y200915D01*
X382611Y203461D01*
X381597Y205908D01*
X380316Y208227D01*
X378783Y210387D01*
X377018Y212362D01*
X375043Y214127D01*
X372882Y215660D01*
X370564Y216942D01*
X368116Y217955D01*
X365571Y218689D01*
X362959Y219132D01*
X360314Y219281D01*
X357670Y219132D01*
X355058Y218689D01*
X352513Y217955D01*
X350065Y216942D01*
X347747Y215660D01*
X345586Y214127D01*
X343611Y212362D01*
X341846Y210387D01*
X340313Y208227D01*
X339032Y205908D01*
X338018Y203461D01*
X337285Y200915D01*
X336841Y198304D01*
X336692Y195659D01*
X336841Y193014D01*
X337285Y190403D01*
X338018Y187857D01*
X339032Y185410D01*
X340313Y183091D01*
X341846Y180931D01*
X343611Y178956D01*
X345586Y177190D01*
X347747Y175658D01*
X350065Y174376D01*
X352513Y173362D01*
X355058Y172629D01*
X357670Y172185D01*
X360314Y172037D01*
X362959Y172185D01*
X365571Y172629D01*
X368116Y173363D01*
X370564Y174376D01*
X372882Y175658D01*
X375043Y177191D01*
X377018Y178956D01*
X378783Y180931D01*
X380316Y183091D01*
X381597Y185410D01*
X382611Y187857D01*
X383344Y190403D01*
X383788Y193014D01*
X383937Y195659D01*
X360609Y249065D02*
X360609Y233065D01*
X368209Y233065D01*
X368209Y249065D01*
X360609Y249065D02*
X368209Y249065D01*
X350766Y249065D02*
X350766Y233065D01*
X358366Y233065D01*
X358366Y249065D01*
X350766Y249065D02*
X358366Y249065D01*
X377067Y233198D02*
X377067Y249198D01*
X369467Y249198D01*
X369467Y233198D01*
X377067Y233198D02*
X369467Y233198D01*
X349311Y233198D02*
X349311Y249198D01*
X341711Y249198D01*
X341711Y233198D01*
X349311Y233198D02*
X341711Y233198D01*
X181062Y196958D02*
X198562Y196958D01*
X181062Y196958D02*
X181062Y204458D01*
X183562Y206958D01*
X181062Y209458D01*
X181062Y214458D02*
X183562Y216958D01*
X198562Y196958D02*
X201062Y199458D01*
X201062Y204458D01*
X198562Y206958D01*
X201062Y209458D01*
X201062Y214458D01*
X198562Y216958D01*
X198562Y206958D02*
X183562Y206958D01*
X198562Y216958D02*
X183562Y216958D01*
X181062Y209458D02*
X181062Y214458D01*
X183562Y216958D02*
X181062Y219458D01*
X181062Y224458D02*
X183562Y226958D01*
X198562Y216958D02*
X201062Y219458D01*
X201062Y224458D01*
X198562Y226958D01*
X183562Y226958D01*
X181062Y219458D02*
X181062Y224458D01*
X339901Y372864D02*
X339901Y389872D01*
X364901Y389872D01*
X364901Y372864D01*
X339901Y372864D01*
X141200Y126171D02*
X135295Y126171D01*
X135295Y153730D01*
X141200Y153730D01*
X205374Y153730D02*
X211279Y153730D01*
X211279Y126171D01*
X205374Y126171D01*
X205374Y165935D02*
X205374Y113966D01*
X141200Y113966D01*
X141200Y165935D01*
X205374Y165935D01*
X198287Y154950D02*
X198287Y129950D01*
X148287Y129950D02*
X148287Y154950D01*
X198287Y154950D01*
X198287Y129950D02*
X188287Y129950D01*
X188287Y117450D01*
X148287Y129950D02*
X158287Y129950D01*
X158287Y117450D01*
X188287Y117450D02*
X158287Y117450D01*
X251437Y126171D02*
X245531Y126171D01*
X245531Y153730D01*
X251437Y153730D01*
X315610Y153730D02*
X321515Y153730D01*
X321515Y126171D01*
X315610Y126171D01*
X315610Y165935D02*
X315610Y113966D01*
X251437Y113966D01*
X251437Y165935D01*
X315610Y165935D01*
X308523Y154950D02*
X308523Y129950D01*
X258523Y129950D02*
X258523Y154950D01*
X308523Y154950D01*
X308523Y129950D02*
X298523Y129950D01*
X298523Y117450D01*
X258523Y129950D02*
X268523Y129950D01*
X268523Y117450D01*
X298523Y117450D02*
X268523Y117450D01*
X86082Y57273D02*
X80177Y57273D01*
X80177Y84832D01*
X86082Y84832D01*
X150255Y84832D02*
X156161Y84832D01*
X156161Y57273D01*
X150255Y57273D01*
X150255Y97037D02*
X150255Y45068D01*
X86082Y45068D01*
X86082Y97037D01*
X150255Y97037D01*
X143169Y86053D02*
X143169Y61053D01*
X93169Y61053D02*
X93169Y86053D01*
X143169Y86053D01*
X143169Y61053D02*
X133169Y61053D01*
X133169Y48553D01*
X93169Y61053D02*
X103169Y61053D01*
X103169Y48553D01*
X133169Y48553D02*
X103169Y48553D01*
X234507Y270935D02*
X234630Y270162D01*
X234985Y269465D01*
X235538Y268912D01*
X236235Y268557D01*
X237007Y268435D01*
X237780Y268557D01*
X238477Y268912D01*
X239030Y269465D01*
X239385Y270162D01*
X239507Y270935D01*
X247007Y270935D02*
X227007Y270935D01*
X247007Y270935D02*
X247007Y190935D01*
X227007Y190935D01*
X227007Y270935D01*
X196318Y57273D02*
X190413Y57273D01*
X190413Y84832D01*
X196318Y84832D01*
X260492Y84832D02*
X266397Y84832D01*
X266397Y57273D01*
X260492Y57273D01*
X260492Y97037D02*
X260492Y45068D01*
X196318Y45068D01*
X196318Y97037D01*
X260492Y97037D01*
X253405Y86053D02*
X253405Y61053D01*
X203405Y61053D02*
X203405Y86053D01*
X253405Y86053D01*
X253405Y61053D02*
X243405Y61053D01*
X243405Y48553D01*
X203405Y61053D02*
X213405Y61053D01*
X213405Y48553D01*
X243405Y48553D02*
X213405Y48553D01*
X40530Y209772D02*
X56530Y209772D01*
X56530Y217372D01*
X40530Y217372D01*
X40530Y209772D02*
X40530Y217372D01*
X34507Y226879D02*
X34507Y266879D01*
X62500Y266879D01*
X62500Y226879D01*
X34507Y226879D01*
X34507Y271171D02*
X34507Y311171D01*
X62500Y311171D01*
X62500Y271171D01*
X34507Y271171D01*
X74585Y20719D02*
X74585Y4719D01*
X82185Y4719D01*
X82185Y20719D01*
X74585Y20719D02*
X82185Y20719D01*
X65137Y20719D02*
X65137Y4719D01*
X72737Y4719D01*
X72737Y20719D01*
X65137Y20719D02*
X72737Y20719D01*
X55294Y20719D02*
X55294Y4719D01*
X62894Y4719D01*
X62894Y20719D01*
X55294Y20719D02*
X62894Y20719D01*
X30964Y126171D02*
X25059Y126171D01*
X25059Y153730D01*
X30964Y153730D01*
X95137Y153730D02*
X101043Y153730D01*
X101043Y126171D01*
X95137Y126171D01*
X95137Y165935D02*
X95137Y113966D01*
X30964Y113966D01*
X30964Y165935D01*
X95137Y165935D01*
X88051Y154950D02*
X88051Y129950D01*
X38051Y129950D02*
X38051Y154950D01*
X88051Y154950D01*
X88051Y129950D02*
X78051Y129950D01*
X78051Y117450D01*
X38051Y129950D02*
X48051Y129950D01*
X48051Y117450D01*
X78051Y117450D02*
X48051Y117450D01*
X335236Y38155D02*
X335236Y6155D01*
X255236Y6155D02*
X255236Y38155D01*
X255236Y6155D02*
X335236Y6155D01*
X303236Y38155D02*
X303236Y34155D01*
X287236Y34155D01*
X287236Y38155D02*
X287236Y34155D01*
X335236Y38155D02*
X303236Y38155D01*
X255236Y38155D02*
X287236Y38155D01*
X210669Y36801D02*
X210669Y7667D01*
X151614Y7667D01*
X151614Y36801D01*
X210669Y36801D01*
X201161Y28116D02*
X201161Y34832D01*
X201141Y17978D02*
X201141Y9635D01*
X203702Y17978D02*
X203702Y27978D01*
X198702Y17978D02*
X198702Y27978D01*
X203702Y27978D02*
X198702Y27978D01*
X198702Y17978D02*
X203702Y17978D01*
X198702Y17978D02*
X203702Y27978D01*
X221496Y30698D02*
X214803Y30698D01*
X214803Y16131D02*
X214803Y30698D01*
X214803Y16131D02*
X221496Y16131D01*
X221496Y30698D01*
X214803Y26299D02*
X221496Y26299D01*
X142755Y27155D02*
X142755Y1564D01*
X101417Y1564D01*
X101417Y27155D01*
X142755Y27155D01*
X51870Y88887D02*
X56870Y88887D01*
X59370Y91387D01*
X59370Y96387D02*
X56870Y98887D01*
X49370Y91387D02*
X49370Y98887D01*
X51870Y88887D02*
X49370Y91387D01*
X56870Y98887D02*
X49370Y98887D01*
X59370Y91387D02*
X59370Y96387D01*
X59370Y91387D02*
X61870Y88887D01*
X66870Y88887D01*
X69370Y91387D01*
X69370Y96387D01*
X66870Y98887D01*
X61870Y98887D01*
X59370Y96387D01*
X69370Y91387D02*
X71870Y88887D01*
X76870Y88887D01*
X79370Y91387D01*
X79370Y96387D01*
X76870Y98887D01*
X71870Y98887D01*
X69370Y96387D01*
X124585Y153462D02*
X124585Y137462D01*
X132185Y137462D01*
X132185Y153462D01*
X124585Y153462D02*
X132185Y153462D01*
X24192Y183777D02*
X24192Y167777D01*
X31792Y167777D01*
X31792Y183777D01*
X24192Y183777D02*
X31792Y183777D01*
X200162Y260467D02*
X200162Y228592D01*
X182037Y260467D02*
X200162Y260467D01*
X182037Y260467D02*
X182037Y228592D01*
X200162Y228592D01*
X197662Y257342D02*
X197662Y241717D01*
X192662Y257342D02*
X197662Y257342D01*
X192662Y257342D02*
X192662Y241717D01*
X197662Y241717D01*
X189537Y257342D02*
X189537Y241717D01*
X184537Y257342D02*
X189537Y257342D01*
X184537Y257342D02*
X184537Y241717D01*
X189537Y241717D01*
X11515Y186707D02*
X11515Y164832D01*
X21515Y164832D01*
X21515Y186707D01*
X11515Y186707D01*
X22529Y23179D02*
X22529Y2352D01*
X94512Y23179D02*
X22529Y23179D01*
X94512Y23179D02*
X94512Y2352D01*
X22529Y2352D01*
X386550Y62229D02*
X354675Y62229D01*
X386550Y80354D02*
X386550Y62229D01*
X386550Y80354D02*
X354675Y80354D01*
X354675Y62229D01*
X383425Y64729D02*
X367800Y64729D01*
X383425Y69729D02*
X383425Y64729D01*
X383425Y69729D02*
X367800Y69729D01*
X367800Y64729D01*
X383425Y72854D02*
X367800Y72854D01*
X383425Y77854D02*
X383425Y72854D01*
X383425Y77854D02*
X367800Y77854D01*
X367800Y72854D01*
X319675Y80354D02*
X351550Y80354D01*
X319675Y62229D02*
X319675Y80354D01*
X319675Y62229D02*
X351550Y62229D01*
X351550Y80354D01*
X322800Y77854D02*
X338425Y77854D01*
X322800Y72854D02*
X322800Y77854D01*
X322800Y72854D02*
X338425Y72854D01*
X338425Y77854D01*
X322800Y69729D02*
X338425Y69729D01*
X322800Y64729D02*
X322800Y69729D01*
X322800Y64729D02*
X338425Y64729D01*
X338425Y69729D01*
X329350Y361225D02*
X329350Y327475D01*
X388725Y327475D01*
X388725Y361225D01*
X329350Y361225D01*
X102391Y133567D02*
X102391Y101820D01*
X133710Y133567D02*
X102391Y133567D01*
X133710Y133567D02*
X133710Y101820D01*
X102391Y101820D01*
X54370Y23218D02*
X54173Y23021D01*
X54173Y2746D01*
X16181Y180501D02*
X16574Y180108D01*
X16574Y170659D01*
X111909Y157573D02*
X111909Y135698D01*
X121909Y135698D01*
X121909Y157573D01*
X111909Y157573D01*
X116574Y151368D02*
X116968Y150974D01*
X116968Y141525D01*
G54D20*
X195162Y233592D03*
X187037Y233592D03*
X195162Y244217D03*
X187037Y244217D03*
X195162Y254842D03*
X187037Y254842D03*
X359675Y67229D03*
X359675Y75354D03*
X370300Y67229D03*
X370300Y75354D03*
X380925Y67229D03*
X380925Y75354D03*
X346550Y75354D03*
X346550Y67229D03*
X335925Y75354D03*
X335925Y67229D03*
X325300Y75354D03*
X325300Y67229D03*
G54D22*
X155984Y301761D03*
X242007Y265935D03*
X96643Y274694D03*
X96250Y230374D03*
X37982Y275088D03*
X37588Y230767D03*
G54D23*
X16515Y180885D03*
X16515Y170457D03*
X116909Y151751D03*
X116909Y141323D03*
G36*
X140984Y156486D02*
X140984Y165147D01*
X141771Y165147D01*
X141771Y156486D01*
X140984Y156486D01*
D02*G37*
G36*
X94921Y156486D02*
X94921Y165147D01*
X95708Y165147D01*
X95708Y156486D01*
X94921Y156486D01*
D02*G37*
M02*
