M48
METRIC
T1F00S00C0.500
T2F00S00C0.600
T3F00S00C0.800
T4F00S00C0.900
T5F00S00C1.000
T6F00S00C1.100
T7F00S00C1.600
T8F00S00C3.100
T9F00S00C3.250
T10F00S00C3.600
%
M71
T1
X87.0100Y95.5975
X89.5100Y98.1375
X92.0100Y95.5975
T2
X48.8100Y20.1475
X12.3600Y77.7975
X12.2600Y64.2475
X47.3100Y78.3975
X47.4600Y69.6475
X27.1100Y75.5975
X26.9100Y64.2475
X16.1100Y81.1975
X58.8100Y68.8975
X91.1600Y64.2475
X92.7600Y49.0975
X97.8600Y42.8475
X84.4100Y20.5475
X87.4100Y20.5475
X81.3100Y37.7475
X24.3100Y20.5475
X50.5100Y68.3475
X12.3100Y68.3475
X26.7100Y68.3475
X20.2600Y73.8475
X20.2100Y62.5475
X11.2600Y56.8975
X49.2100Y84.8475
X74.7100Y74.6475
X75.7100Y73.2475
X65.4100Y90.9475
X83.9100Y44.7475
X82.0100Y46.1475
X85.7100Y54.7475
X80.1100Y45.9475
X80.8100Y48.0475
X8.7100Y47.9475
X46.2100Y73.9475
X43.5100Y48.9475
X41.7100Y50.6475
X35.7100Y55.2475
X37.2100Y56.3475
X81.8100Y82.0475
X69.0100Y72.0475
X70.0100Y70.7475
X69.2100Y74.3475
X33.9100Y56.2475
X22.4100Y83.7475
X3.2100Y81.7475
X24.9100Y79.5475
X5.3100Y80.3475
X3.4100Y14.8475
X6.5100Y14.8475
X9.4100Y14.7475
X25.0100Y82.9475
X3.0100Y80.0475
X72.2100Y78.2475
X88.0100Y54.4475
X73.4100Y56.6475
X73.7100Y59.2475
X38.4100Y54.9475
X75.2100Y69.9475
X74.9100Y71.7475
X71.4100Y66.5475
X67.7100Y59.4475
X74.2100Y61.7475
X62.1100Y43.0475
X60.2100Y49.5475
X4.2100Y37.1475
X18.1100Y54.3475
X4.9100Y13.1975
X15.0100Y5.8475
X17.5100Y6.3475
X19.9100Y6.7475
X10.9100Y13.0975
X13.8100Y84.6475
X27.5100Y84.6475
X7.9100Y13.1475
X57.9100Y41.6475
X35.1100Y84.7475
X53.2100Y75.3475
X54.3100Y51.1475
X32.6100Y83.5475
X51.6100Y75.3475
X53.4100Y49.4475
X56.7100Y41.1475
X70.6100Y20.7475
X69.3100Y17.7475
X72.1100Y15.5475
X72.1100Y18.9475
X77.9100Y13.0475
X74.9100Y13.0475
X79.6100Y43.5475
X74.6100Y25.1475
X49.5100Y10.4475
T3
X86.0600Y82.3475
X86.0600Y79.8075
X89.5100Y82.3475
X89.5100Y79.8075
X93.0100Y82.3475
X93.0100Y79.8075
X96.5100Y82.3475
X96.5100Y79.8075
X97.6600Y75.2975
X95.1200Y75.2975
X42.1600Y76.6475
X42.1600Y74.1075
X42.1600Y71.5675
X42.1600Y69.0275
X42.1600Y66.4875
X42.1600Y63.9475
X42.1600Y61.4075
X42.1600Y58.8675
X34.5400Y58.8675
X34.5400Y61.4075
X34.5400Y63.9475
X34.5400Y66.4875
X34.5400Y69.0275
X34.5400Y71.5675
X34.5400Y74.1075
X34.5400Y76.6475
X23.3100Y58.8475
X23.3100Y61.3875
X23.3100Y63.9275
X23.3100Y66.4675
X30.9300Y66.4675
X30.9300Y63.9275
X30.9300Y61.3875
X30.9300Y58.8475
X23.3100Y70.0975
X23.3100Y72.6375
X23.3100Y75.1775
X23.3100Y77.7175
X30.9300Y77.7175
X30.9300Y75.1775
X30.9300Y72.6375
X30.9300Y70.0975
X64.0100Y67.5475
X64.0100Y65.0075
X64.0100Y62.4675
X64.0100Y59.9275
X64.0100Y57.3875
X64.0100Y54.8475
X64.0100Y52.3075
X64.0100Y49.7675
X56.3900Y49.7675
X56.3900Y52.3075
X56.3900Y54.8475
X56.3900Y57.3875
X56.3900Y59.9275
X56.3900Y62.4675
X56.3900Y65.0075
X56.3900Y67.5475
X8.5100Y58.8975
X8.5100Y61.4375
X8.5100Y63.9775
X8.5100Y66.5175
X16.1300Y66.5175
X16.1300Y63.9775
X16.1300Y61.4375
X16.1300Y58.8975
X8.5100Y70.1475
X8.5100Y72.6875
X8.5100Y75.2275
X8.5100Y77.7675
X16.1300Y77.7675
X16.1300Y75.2275
X16.1300Y72.6875
X16.1300Y70.1475
T4
X48.4600Y38.7975
X47.1900Y41.3375
X45.9200Y38.7975
X44.6500Y41.3375
X43.3800Y38.7975
X42.1100Y41.3375
X40.8400Y38.7975
X39.5700Y41.3375
X76.4600Y38.7975
X75.1900Y41.3375
X73.9200Y38.7975
X72.6500Y41.3375
X71.3800Y38.7975
X70.1100Y41.3375
X68.8400Y38.7975
X67.5700Y41.3375
X34.4600Y21.2975
X33.1900Y23.8375
X31.9200Y21.2975
X30.6500Y23.8375
X29.3800Y21.2975
X28.1100Y23.8375
X26.8400Y21.2975
X25.5700Y23.8375
X62.4600Y21.2975
X61.1900Y23.8375
X59.9200Y21.2975
X58.6500Y23.8375
X57.3800Y21.2975
X56.1100Y23.8375
X54.8400Y21.2975
X53.5700Y23.8375
X20.4600Y38.7975
X19.1900Y41.3375
X17.9200Y38.7975
X16.6500Y41.3375
X15.3800Y38.7975
X14.1100Y41.3375
X12.8400Y38.7975
X11.5700Y41.3375
T5
X2.6100Y93.4975
X5.1500Y93.4975
X7.6900Y93.4975
X10.2300Y93.4975
X12.7700Y93.4975
X15.3100Y93.4975
X17.8500Y93.4975
X20.3900Y93.4975
X22.9300Y93.4975
X25.4700Y93.4975
X77.8100Y93.4975
X77.8100Y90.9575
X77.8100Y88.4175
X77.8100Y85.8775
X77.8100Y83.3375
X77.8100Y80.7975
X77.8100Y78.2575
X77.8100Y75.7175
X77.8100Y73.1775
X77.8100Y70.6375
X77.8100Y68.0975
X77.8100Y65.5575
X77.8100Y63.0175
X77.8100Y60.4775
X77.8100Y57.9375
X77.8100Y55.3975
X77.8100Y52.8575
X77.8100Y50.3175
X80.3600Y93.4975
X80.3600Y90.9575
X80.3600Y88.4175
X80.3600Y85.8775
X80.3600Y83.3375
X80.3600Y80.7975
X80.3600Y78.2575
X80.3600Y75.7175
X80.3600Y73.1775
X80.3600Y70.6375
X80.3600Y68.0975
X80.3600Y65.5575
X80.3600Y63.0175
X80.3600Y60.4775
X80.3600Y57.9375
X80.3600Y55.3975
X80.3600Y52.8575
X80.3600Y50.3175
X11.7600Y45.1975
X14.3000Y45.1975
X16.8400Y45.1975
X19.3800Y45.1975
X21.9200Y45.1975
X24.4600Y45.1975
X27.0000Y45.1975
X29.5400Y45.1975
X34.6100Y45.1975
X37.1500Y45.1975
X39.6900Y45.1975
X42.2300Y45.1975
X44.7700Y45.1975
X47.3100Y45.1975
X49.8500Y45.1975
X52.3900Y45.1975
X57.5100Y45.1975
X60.0500Y45.1975
X62.5900Y45.1975
X65.1300Y45.1975
X67.6700Y45.1975
X70.2100Y45.1975
X72.7500Y45.1975
X75.2900Y45.1975
X52.4100Y93.4975
X54.9500Y93.4975
X57.4900Y93.4975
X60.0300Y93.4975
X62.5700Y93.4975
X65.1100Y93.4975
X67.6500Y93.4975
X70.1900Y93.4975
X29.5600Y93.4975
X32.1000Y93.4975
X34.6400Y93.4975
X37.1800Y93.4975
X39.7200Y93.4975
X42.2600Y93.4975
X44.8000Y93.4975
X47.3400Y93.4975
X11.0100Y88.7475
X13.5500Y88.7475
X16.0900Y88.7475
X18.6300Y88.7475
X21.1700Y88.7475
X23.7100Y88.7475
X26.2500Y88.7475
X28.7900Y88.7475
X31.3300Y88.7475
X33.8700Y88.7475
X36.4100Y88.7475
X38.9500Y88.7475
X41.4900Y88.7475
X44.0300Y88.7475
X46.5700Y88.7475
X49.1100Y88.7475
X51.6500Y88.7475
X54.1900Y88.7475
X56.7300Y88.7475
X59.2700Y88.7475
X88.6600Y57.6475
X91.1600Y57.6475
X93.6600Y57.6475
X88.6600Y72.1475
X93.6600Y72.1475
X87.7100Y49.6975
X95.3300Y49.6975
X47.2600Y51.2975
X49.8000Y51.2975
X47.2600Y53.8375
X49.8000Y53.8375
X47.2600Y56.3775
X49.8000Y56.3775
X92.3100Y4.3475
X92.3100Y6.8875
X13.8100Y23.8475
X16.3500Y23.8475
X18.8900Y23.8475
T6
X69.9100Y6.8975
X69.9100Y4.3575
X72.4500Y6.8975
X72.4500Y4.3575
X74.9900Y6.8975
X74.9900Y4.3575
X77.5300Y4.3575
X77.5300Y6.8975
X80.0700Y6.8975
X80.0700Y4.3575
X27.5100Y3.6475
X34.5100Y3.6475
X31.0100Y3.6475
T7
X36.1900Y35.1975
X51.8400Y35.1975
X64.1900Y35.1975
X79.8400Y35.1975
X22.1900Y17.6975
X37.8400Y17.6975
X50.1900Y17.6975
X65.8400Y17.6975
X8.1900Y35.1975
X23.8400Y35.1975
T8
X2.9825Y23.8150
X2.9825Y88.7350
X70.9825Y23.8150
X97.3075Y2.6925
X2.6925Y2.6925
X2.6925Y97.3075
X97.3075Y97.3075
X70.9825Y88.7350
T9
X49.7300Y32.4475
X38.3000Y32.4475
X77.7300Y32.4475
X66.3000Y32.4475
X35.7300Y14.9475
X24.3000Y14.9475
X63.7300Y14.9475
X52.3000Y14.9475
X21.7300Y32.4475
X10.3000Y32.4475
T10
X84.9100Y65.1475
X97.4100Y65.1475
M30
