M48
METRIC
T1F00S00C0.500
T2F00S00C0.600
T3F00S00C0.800
T4F00S00C0.900
T5F00S00C1.000
T6F00S00C1.700
T7F00S00C3.100
T8F00S00C3.300
T9F00S00C3.600
%
M71
T1
X87.0288Y95.5613
X89.5288Y98.1013
X92.0288Y95.5613
T2
X50.0000Y86.5125
X14.3000Y23.4700
X87.3063Y31.5850
X81.4325Y28.4100
X62.9032Y71.5900
X2.6925Y79.2100
X4.7563Y67.7800
X56.0300Y67.6213
X54.1275Y67.6213
X21.9013Y85.4013
X66.5100Y84.4488
X66.4306Y80.0038
X1.1050Y62.3825
X4.2800Y48.4125
X39.5225Y48.0950
X34.7600Y47.7775
X17.6150Y40.1575
X1.7338Y13.1256
X4.8538Y13.0550
X7.9600Y13.0550
X7.1375Y84.8456
X72.2250Y60.0013
X82.0675Y76.6700
X82.0675Y70.1613
X60.7950Y40.9513
X47.6188Y77.1463
X53.6513Y77.9400
X64.1288Y80.0038
X49.5238Y49.3650
X50.6350Y50.1588
X62.5413Y56.5088
X60.1600Y54.1275
X46.0313Y78.8925
X51.9050Y79.5275
X61.9063Y80.0038
X16.3450Y66.5100
X13.4875Y67.9388
T3
X86.0363Y82.3850
X86.0363Y79.8450
X89.5288Y82.3850
X89.5288Y79.8450
X93.0213Y82.3850
X93.0213Y79.8450
X96.5138Y82.3850
X96.5138Y79.8450
X97.7838Y75.4000
X95.2438Y75.4000
X25.8700Y66.8275
X28.4100Y66.8275
X30.9500Y66.8275
X33.4900Y66.8275
X36.0300Y66.8275
X38.5700Y66.8275
X41.1100Y66.8275
X43.6500Y66.8275
X43.6500Y59.2075
X41.1100Y59.2075
X38.5700Y59.2075
X36.0300Y59.2075
X33.4900Y59.2075
X30.9500Y59.2075
X28.4100Y59.2075
X25.8700Y59.2075
X28.4100Y80.7975
X30.9500Y80.7975
X33.4900Y80.7975
X36.0300Y80.7975
X38.5700Y80.7975
X41.1100Y80.7975
X43.6500Y80.7975
X43.6500Y73.1775
X41.1100Y73.1775
X38.5700Y73.1775
X36.0300Y73.1775
X33.4900Y73.1775
X30.9500Y73.1775
X28.4100Y73.1775
X9.6775Y56.0325
X9.6775Y58.5725
X9.6775Y61.1125
X9.6775Y63.6525
X17.2975Y63.6525
X17.2975Y61.1125
X17.2975Y58.5725
X17.2975Y56.0325
X9.6775Y71.5900
X9.6775Y74.1300
X9.6775Y76.6700
X9.6775Y79.2100
X17.2975Y79.2100
X17.2975Y76.6700
X17.2975Y74.1300
X17.2975Y71.5900
T4
X34.2938Y33.9663
X35.3138Y35.7463
X32.2538Y33.9663
X33.2738Y35.7463
X30.2138Y33.9663
X31.2338Y35.7463
X28.1738Y33.9663
X29.1938Y35.7463
X53.5025Y33.9663
X54.5225Y35.7463
X51.4625Y33.9663
X52.4825Y35.7463
X49.4225Y33.9663
X50.4425Y35.7463
X47.3825Y33.9663
X48.4025Y35.7463
X15.0850Y33.9663
X16.1050Y35.7463
X13.0450Y33.9663
X14.0650Y35.7463
X11.0050Y33.9663
X12.0250Y35.7463
X8.9650Y33.9663
X9.9850Y35.7463
T5
X2.1210Y93.1800
X4.6610Y93.1800
X7.2010Y93.1800
X9.7410Y93.1800
X12.2810Y93.1800
X14.8210Y93.1800
X17.3610Y93.1800
X19.9010Y93.1800
X22.4410Y93.1800
X24.9810Y93.1800
X77.3050Y93.1800
X77.3050Y90.6400
X77.3050Y88.1000
X77.3050Y85.5600
X77.3050Y83.0200
X77.3050Y80.4800
X77.3050Y77.9400
X77.3050Y75.4000
X77.3050Y72.8600
X77.3050Y70.3200
X77.3050Y67.7800
X77.3050Y65.2400
X77.3050Y62.7000
X77.3050Y60.1600
X77.3050Y57.6200
X77.3050Y55.0800
X77.3050Y52.5400
X77.3050Y50.0000
X79.8450Y93.1800
X79.8450Y90.6400
X79.8450Y88.1000
X79.8450Y85.5600
X79.8450Y83.0200
X79.8450Y80.4800
X79.8450Y77.9400
X79.8450Y75.4000
X79.8450Y72.8600
X79.8450Y70.3200
X79.8450Y67.7800
X79.8450Y65.2400
X79.8450Y62.7000
X79.8450Y60.1600
X79.8450Y57.6200
X79.8450Y55.0800
X79.8450Y52.5400
X79.8450Y50.0000
X11.2650Y44.9200
X13.8050Y44.9200
X16.3450Y44.9200
X18.8850Y44.9200
X21.4250Y44.9200
X23.9650Y44.9200
X26.5050Y44.9200
X29.0450Y44.9200
X34.1250Y44.9200
X36.6650Y44.9200
X39.2050Y44.9200
X41.7450Y44.9200
X44.2850Y44.9200
X46.8250Y44.9200
X49.3650Y44.9200
X51.9050Y44.9200
X56.9850Y44.9200
X59.5250Y44.9200
X62.0650Y44.9200
X64.6050Y44.9200
X67.1450Y44.9200
X69.6850Y44.9200
X72.2250Y44.9200
X74.7650Y44.9200
X51.9050Y93.1800
X54.4450Y93.1800
X56.9850Y93.1800
X59.5250Y93.1800
X62.0650Y93.1800
X64.6050Y93.1800
X67.1450Y93.1800
X69.6850Y93.1800
X29.0450Y93.1800
X31.5850Y93.1800
X34.1250Y93.1800
X36.6650Y93.1800
X39.2050Y93.1800
X41.7450Y93.1800
X44.2850Y93.1800
X46.8250Y93.1800
X11.0100Y88.7350
X13.5500Y88.7350
X16.0900Y88.7350
X18.6300Y88.7350
X21.1700Y88.7350
X23.7100Y88.7350
X26.2500Y88.7350
X28.7900Y88.7350
X31.3300Y88.7350
X33.8700Y88.7350
X36.4100Y88.7350
X38.9500Y88.7350
X41.4900Y88.7350
X44.0300Y88.7350
X46.5700Y88.7350
X49.1100Y88.7350
X51.6500Y88.7350
X54.1900Y88.7350
X56.7300Y88.7350
X59.2700Y88.7350
X88.4575Y54.2475
X90.9575Y54.2475
X93.4575Y54.2475
X88.4575Y68.7475
X93.4575Y68.7475
X22.6950Y51.8256
X22.6950Y54.3656
X70.0025Y36.6650
X70.0025Y29.0450
X29.0450Y54.2863
X26.5050Y54.2863
X29.0450Y51.7463
X26.5050Y51.7463
X29.0450Y49.2063
X26.5050Y49.2063
T6
X23.6188Y34.8563
X39.8688Y34.8563
X42.8275Y34.8563
X59.0775Y34.8563
X4.4100Y34.8563
X20.6600Y34.8563
T7
X2.9825Y23.8150
X2.9825Y88.7350
X70.9825Y23.8150
X97.3075Y2.6925
X2.6925Y2.6925
X2.6925Y97.3075
X97.3075Y97.3075
X70.9825Y88.7350
T8
X38.0938Y31.4263
X25.3938Y31.4263
X57.3025Y31.4263
X44.6025Y31.4263
X18.8850Y31.4263
X6.1850Y31.4263
T9
X84.7075Y61.7475
X97.2075Y61.7475
M30
