M48
METRIC
T1F00S00C0.600
T2F00S00C0.800
T3F00S00C0.900
T4F00S00C1.000
T5F00S00C1.500
T6F00S00C1.700
T7F00S00C3.100
T8F00S00C3.200
T9F00S00C3.600
%
M71
T1
X50.0000Y86.5125
X88.7075Y27.3175
X83.8075Y25.0575
X89.9775Y13.0300
X89.3425Y16.0250
X14.3000Y23.4700
X62.9032Y71.5900
X18.2500Y81.7500
X2.6925Y79.2100
X4.7563Y67.7800
X56.0300Y67.6213
X54.1275Y67.6213
X66.5100Y84.4488
X66.4306Y80.0038
X1.1050Y62.3825
X4.2800Y48.4125
X11.5825Y28.4100
X10.7888Y49.6031
X1.8925Y11.6968
X4.8538Y14.3250
X7.6425Y13.0550
X7.1375Y84.8456
X72.2250Y60.0013
X82.0675Y76.6700
X82.0675Y70.1613
X60.7950Y40.9513
X47.6188Y77.1463
X53.6513Y77.9400
X64.1288Y80.0038
X52.0638Y48.0950
X50.6350Y50.1588
X48.0950Y51.5875
X57.1438Y62.5413
X46.0313Y78.8925
X51.9050Y79.5275
X61.9063Y80.0038
X16.3450Y66.5100
X13.4875Y67.9388
T2
X85.8775Y74.7650
X85.8775Y72.2250
X89.3700Y74.7650
X89.3700Y72.2250
X92.8625Y74.7650
X92.8625Y72.2250
X96.3550Y74.7650
X96.3550Y72.2250
X97.6250Y69.0500
X95.0850Y69.0500
X25.8700Y66.8275
X28.4100Y66.8275
X30.9500Y66.8275
X33.4900Y66.8275
X36.0300Y66.8275
X38.5700Y66.8275
X41.1100Y66.8275
X43.6500Y66.8275
X43.6500Y59.2075
X41.1100Y59.2075
X38.5700Y59.2075
X36.0300Y59.2075
X33.4900Y59.2075
X30.9500Y59.2075
X28.4100Y59.2075
X25.8700Y59.2075
X28.4100Y80.7975
X30.9500Y80.7975
X33.4900Y80.7975
X36.0300Y80.7975
X38.5700Y80.7975
X41.1100Y80.7975
X43.6500Y80.7975
X43.6500Y73.1775
X41.1100Y73.1775
X38.5700Y73.1775
X36.0300Y73.1775
X33.4900Y73.1775
X30.9500Y73.1775
X28.4100Y73.1775
X9.6775Y56.0325
X9.6775Y58.5725
X9.6775Y61.1125
X9.6775Y63.6525
X17.2975Y63.6525
X17.2975Y61.1125
X17.2975Y58.5725
X17.2975Y56.0325
X9.6775Y71.5900
X9.6775Y74.1300
X9.6775Y76.6700
X9.6775Y79.2100
X17.2975Y79.2100
X17.2975Y76.6700
X17.2975Y74.1300
X17.2975Y71.5900
T3
X35.7125Y36.9825
X34.4425Y39.5225
X33.1725Y36.9825
X31.9025Y39.5225
X30.6325Y36.9825
X29.3625Y39.5225
X28.0925Y36.9825
X26.8225Y39.5225
X17.9325Y36.9825
X16.6625Y39.5225
X15.3925Y36.9825
X14.1225Y39.5225
X12.8525Y36.9825
X11.5825Y39.5225
X10.3125Y36.9825
X9.0425Y39.5225
X53.6513Y36.9825
X52.3813Y39.5225
X51.1113Y36.9825
X49.8413Y39.5225
X48.5713Y36.9825
X47.3013Y39.5225
X46.0313Y36.9825
X44.7613Y39.5225
T4
X2.1210Y93.1800
X4.6610Y93.1800
X7.2010Y93.1800
X9.7410Y93.1800
X12.2810Y93.1800
X14.8210Y93.1800
X17.3610Y93.1800
X19.9010Y93.1800
X22.4410Y93.1800
X24.9810Y93.1800
X77.3050Y93.1800
X77.3050Y90.6400
X77.3050Y88.1000
X77.3050Y85.5600
X77.3050Y83.0200
X77.3050Y80.4800
X77.3050Y77.9400
X77.3050Y75.4000
X77.3050Y72.8600
X77.3050Y70.3200
X77.3050Y67.7800
X77.3050Y65.2400
X77.3050Y62.7000
X77.3050Y60.1600
X77.3050Y57.6200
X77.3050Y55.0800
X77.3050Y52.5400
X77.3050Y50.0000
X79.8450Y93.1800
X79.8450Y90.6400
X79.8450Y88.1000
X79.8450Y85.5600
X79.8450Y83.0200
X79.8450Y80.4800
X79.8450Y77.9400
X79.8450Y75.4000
X79.8450Y72.8600
X79.8450Y70.3200
X79.8450Y67.7800
X79.8450Y65.2400
X79.8450Y62.7000
X79.8450Y60.1600
X79.8450Y57.6200
X79.8450Y55.0800
X79.8450Y52.5400
X79.8450Y50.0000
X11.2650Y44.9200
X13.8050Y44.9200
X16.3450Y44.9200
X18.8850Y44.9200
X21.4250Y44.9200
X23.9650Y44.9200
X26.5050Y44.9200
X29.0450Y44.9200
X34.1250Y44.9200
X36.6650Y44.9200
X39.2050Y44.9200
X41.7450Y44.9200
X44.2850Y44.9200
X46.8250Y44.9200
X49.3650Y44.9200
X51.9050Y44.9200
X56.9850Y44.9200
X59.5250Y44.9200
X62.0650Y44.9200
X64.6050Y44.9200
X67.1450Y44.9200
X69.6850Y44.9200
X72.2250Y44.9200
X74.7650Y44.9200
X51.9050Y93.1800
X54.4450Y93.1800
X56.9850Y93.1800
X59.5250Y93.1800
X62.0650Y93.1800
X64.6050Y93.1800
X67.1450Y93.1800
X69.6850Y93.1800
X29.0450Y93.1800
X31.5850Y93.1800
X34.1250Y93.1800
X36.6650Y93.1800
X39.2050Y93.1800
X41.7450Y93.1800
X44.2850Y93.1800
X46.8250Y93.1800
X11.0100Y88.7350
X13.5500Y88.7350
X16.0900Y88.7350
X18.6300Y88.7350
X21.1700Y88.7350
X23.7100Y88.7350
X26.2500Y88.7350
X28.7900Y88.7350
X31.3300Y88.7350
X33.8700Y88.7350
X36.4100Y88.7350
X38.9500Y88.7350
X41.4900Y88.7350
X44.0300Y88.7350
X46.5700Y88.7350
X49.1100Y88.7350
X51.6500Y88.7350
X54.1900Y88.7350
X56.7300Y88.7350
X59.2700Y88.7350
X88.4575Y51.3900
X90.9575Y51.3900
X93.4575Y51.3900
X88.4575Y65.8900
X93.4575Y65.8900
X18.0913Y49.6031
X18.0913Y52.1431
X70.0025Y36.6650
X70.0025Y29.0450
X25.7113Y54.6038
X23.1713Y54.6038
X25.7113Y52.0638
X23.1713Y52.0638
X25.7113Y49.5238
X23.1713Y49.5238
T5
X93.4575Y85.0050
X88.4575Y85.0050
X90.9575Y95.0050
T6
X23.5175Y33.6825
X39.0175Y33.6825
X5.7375Y33.6825
X21.2375Y33.6825
X41.4563Y33.6825
X56.9563Y33.6825
T7
X2.9825Y23.8150
X2.9825Y88.7350
X70.9825Y23.8150
X97.3075Y2.6925
X2.6925Y2.6925
X2.6925Y97.3075
X97.3075Y97.3075
X70.9825Y88.7350
T8
X36.9825Y30.6325
X25.5525Y30.6325
X19.2025Y30.6325
X7.7725Y30.6325
X54.9213Y30.6325
X43.4913Y30.6325
T9
X84.7075Y58.8900
X97.2075Y58.8900
M30
