%FSLAX35Y35*%
%MOIN*%
%IN7=Bestoeckungsdruckunten(X.GBO)*%
%ADD10C,0.00591*%
%ADD11C,0.00768*%
%ADD12C,0.01181*%
%ADD13C,0.01535*%
%ADD14C,0.01575*%
%ADD15C,0.01969*%
%ADD16C,0.02362*%
%ADD17C,0.02559*%
%ADD18C,0.02795*%
%ADD19C,0.03937*%
%AMR_20*21,1,0.01181,0.01181,0,0,0.000*%
%ADD20R_20*%
%AMR_21*21,1,0.01250,0.01250,0,0,0.000*%
%ADD21R_21*%
%AMR_22*21,1,0.01280,0.01280,0,0,0.000*%
%ADD22R_22*%
%AMR_23*21,1,0.01575,0.01575,0,0,0.000*%
%ADD23R_23*%
%AMR_24*21,1,0.01772,0.01772,0,0,0.000*%
%ADD24R_24*%
%AMR_25*21,1,0.01969,0.01969,0,0,0.000*%
%ADD25R_25*%
%AMR_26*21,1,0.02461,0.02461,0,0,0.000*%
%ADD26R_26*%
%AMR_27*21,1,0.04587,0.05433,0,0,90.000*%
%ADD27R_27*%
%AMR_28*21,1,0.05000,0.05000,0,0,0.000*%
%ADD28R_28*%
%AMR_29*21,1,0.05000,0.05000,0,0,90.000*%
%ADD29R_29*%
%AMR_30*21,1,0.05000,0.05000,0,0,180.000*%
%ADD30R_30*%
%AMR_31*21,1,0.05000,0.05000,0,0,270.000*%
%ADD31R_31*%
%AMR_32*21,1,0.05000,0.09843,0,0,0.000*%
%ADD32R_32*%
%AMR_33*21,1,0.05000,0.10000,0,0,90.000*%
%ADD33R_33*%
%AMR_34*21,1,0.05118,0.06102,0,0,0.000*%
%ADD34R_34*%
%AMR_35*21,1,0.05118,0.06102,0,0,90.000*%
%ADD35R_35*%
%AMR_36*21,1,0.19685,0.19685,0,0,0.000*%
%ADD36R_36*%
%AMOCT_37*4,1,8,0.023622,0.011811,0.011811,0.023622,-0.011811,0.023622,-0.023622,0.011811,-0.023622,-0.011811,-0.011811,-0.023622,0.011811,-0.023622,0.023622,-0.011811,0.023622,0.011811,0.000*%
%ADD37OCT_37*%
%AMOCT_38*4,1,8,0.031496,0.015748,0.015748,0.031496,-0.015748,0.031496,-0.031496,0.015748,-0.031496,-0.015748,-0.015748,-0.031496,0.015748,-0.031496,0.031496,-0.015748,0.031496,0.015748,-0.000*%
%ADD38OCT_38*%
%AMOCT_39*4,1,8,0.031496,0.015748,0.015748,0.031496,-0.015748,0.031496,-0.031496,0.015748,-0.031496,-0.015748,-0.015748,-0.031496,0.015748,-0.031496,0.031496,-0.015748,0.031496,0.015748,90.000*%
%ADD39OCT_39*%
%AMOCT_40*4,1,8,0.031496,0.015748,0.015748,0.031496,-0.015748,0.031496,-0.031496,0.015748,-0.031496,-0.015748,-0.015748,-0.031496,0.015748,-0.031496,0.031496,-0.015748,0.031496,0.015748,180.000*%
%ADD40OCT_40*%
%AMOCT_41*4,1,8,0.031496,0.015748,0.015748,0.031496,-0.015748,0.031496,-0.031496,0.015748,-0.031496,-0.015748,-0.015748,-0.031496,0.015748,-0.031496,0.031496,-0.015748,0.031496,0.015748,270.000*%
%ADD41OCT_41*%
%AMOCT_42*4,1,8,0.035433,0.017717,0.017717,0.035433,-0.017717,0.035433,-0.035433,0.017717,-0.035433,-0.017717,-0.017717,-0.035433,0.017717,-0.035433,0.035433,-0.017717,0.035433,0.017717,180.000*%
%ADD42OCT_42*%
%AMOCT_43*4,1,8,0.035433,0.017717,0.017717,0.035433,-0.017717,0.035433,-0.035433,0.017717,-0.035433,-0.017717,-0.017717,-0.035433,0.017717,-0.035433,0.035433,-0.017717,0.035433,0.017717,270.000*%
%ADD43OCT_43*%
%AMOCT_44*4,1,8,0.039370,0.019685,0.019685,0.039370,-0.019685,0.039370,-0.039370,0.019685,-0.039370,-0.019685,-0.019685,-0.039370,0.019685,-0.039370,0.039370,-0.019685,0.039370,0.019685,0.000*%
%ADD44OCT_44*%
%AMOCT_45*4,1,8,0.039370,0.019685,0.019685,0.039370,-0.019685,0.039370,-0.039370,0.019685,-0.039370,-0.019685,-0.019685,-0.039370,0.019685,-0.039370,0.039370,-0.019685,0.039370,0.019685,270.000*%
%ADD45OCT_45*%
%AMOCT_46*4,1,8,0.049213,0.024606,0.024606,0.049213,-0.024606,0.049213,-0.049213,0.024606,-0.049213,-0.024606,-0.024606,-0.049213,0.024606,-0.049213,0.049213,-0.024606,0.049213,0.024606,180.000*%
%ADD46OCT_46*%
%AMOCT_47*4,1,8,0.062992,0.031496,0.031496,0.062992,-0.031496,0.062992,-0.062992,0.031496,-0.062992,-0.031496,-0.031496,-0.062992,0.031496,-0.062992,0.062992,-0.031496,0.062992,0.031496,180.000*%
%ADD47OCT_47*%
%AMOCT_48*4,1,8,0.078740,0.039370,0.039370,0.078740,-0.039370,0.078740,-0.078740,0.039370,-0.078740,-0.039370,-0.039370,-0.078740,0.039370,-0.078740,0.078740,-0.039370,0.078740,0.039370,0.000*%
%ADD48OCT_48*%
%AMOCT_49*4,1,8,0.078740,0.039370,0.039370,0.078740,-0.039370,0.078740,-0.078740,0.039370,-0.078740,-0.039370,-0.039370,-0.078740,0.039370,-0.078740,0.078740,-0.039370,0.078740,0.039370,180.000*%
%ADD49OCT_49*%
%AMOCT_50*4,1,8,0.090551,0.045276,0.045276,0.090551,-0.045276,0.090551,-0.090551,0.045276,-0.090551,-0.045276,-0.045276,-0.090551,0.045276,-0.090551,0.090551,-0.045276,0.090551,0.045276,0.000*%
%ADD50OCT_50*%
%AMO_51*20,1,0.03937,-0.00787,0.00000,0.00787,0.00000,0*1,1,0.03937,-0.00787,0.00000*1,1,0.03937,0.00787,0.00000*%
%ADD51O_51*%
%AMO_52*20,1,0.05000,0.00000,-0.02421,0.00000,0.02421,0*1,1,0.05000,0.00000,-0.02421*1,1,0.05000,0.00000,0.02421*%
%ADD52O_52*%
%AMO_53*20,1,0.05000,0.02500,0.00000,-0.02500,0.00000,0*1,1,0.05000,0.02500,0.00000*1,1,0.05000,-0.02500,0.00000*%
%ADD53O_53*%
%AMRR_54*21,1,0.06299,0.05039,0,0,-0.000*21,1,0.05039,0.06299,0,0,-0.000*1,1,0.01260,0.02520,0.02520*1,1,0.01260,-0.02520,-0.02520*1,1,0.01260,0.02520,-0.02520*1,1,0.01260,-0.02520,0.02520*%
%ADD54RR_54*%
%AMRR_55*21,1,0.06299,0.05039,0,0,90.000*21,1,0.05039,0.06299,0,0,90.000*1,1,0.01260,-0.02520,0.02520*1,1,0.01260,0.02520,-0.02520*1,1,0.01260,0.02520,0.02520*1,1,0.01260,-0.02520,-0.02520*%
%ADD55RR_55*%
%AMRR_56*21,1,0.06299,0.05039,0,0,180.000*21,1,0.05039,0.06299,0,0,180.000*1,1,0.01260,-0.02520,-0.02520*1,1,0.01260,0.02520,0.02520*1,1,0.01260,-0.02520,0.02520*1,1,0.01260,0.02520,-0.02520*%
%ADD56RR_56*%
%AMRR_57*21,1,0.06299,0.05039,0,0,270.000*21,1,0.05039,0.06299,0,0,270.000*1,1,0.01260,0.02520,-0.02520*1,1,0.01260,-0.02520,0.02520*1,1,0.01260,-0.02520,-0.02520*1,1,0.01260,0.02520,0.02520*%
%ADD57RR_57*%
G54D11*
X63118Y373100D02*
X63118Y375757D01*
X61818Y375757D01*
X61818Y378444D02*
X61310Y378343D01*
X60879Y378055D01*
X60591Y377624D01*
X60490Y377116D01*
X60591Y376607D01*
X60879Y376176D01*
X61310Y375888D01*
X61818Y375787D01*
X61818Y378415D02*
X63118Y378415D01*
X63118Y375757D01*
X59102Y378415D02*
X57803Y373100D01*
X56444Y378415D01*
X55086Y373100D01*
X53787Y378415D01*
X52429Y373100D02*
X52429Y378415D01*
X50598Y374694D01*
X48708Y378415D01*
X48708Y373100D01*
X47350Y377352D02*
X47245Y377813D01*
X46950Y378183D01*
X46523Y378388D01*
X46050Y378388D01*
X45624Y378183D01*
X45329Y377813D01*
X45224Y377352D01*
X47350Y373100D01*
X45224Y373100D01*
X295203Y353582D02*
X295316Y353076D01*
X295613Y352651D01*
X296051Y352373D01*
X296562Y352283D01*
X297861Y352283D01*
X297861Y357598D01*
X296562Y357598D01*
X296051Y357508D01*
X295613Y357230D01*
X295316Y356805D01*
X295203Y356299D01*
X295203Y353582D01*
X293845Y352283D02*
X293845Y356003D01*
X293845Y357066D02*
X293845Y357598D01*
X290361Y351751D02*
X290475Y351272D01*
X290792Y350896D01*
X291245Y350703D01*
X291736Y350734D01*
X292161Y350983D01*
X292428Y351397D01*
X290361Y351751D02*
X290361Y354645D01*
X292487Y354645D02*
X292381Y355106D01*
X292086Y355476D01*
X291660Y355682D01*
X291187Y355682D01*
X290761Y355476D01*
X290466Y355106D01*
X290361Y354645D01*
X292487Y354645D02*
X292487Y353346D01*
X290361Y353346D02*
X290466Y352885D01*
X290761Y352515D01*
X291187Y352310D01*
X291660Y352310D01*
X292086Y352515D01*
X292381Y352885D01*
X292487Y353346D01*
X289002Y352283D02*
X289002Y356003D01*
X289002Y357066D02*
X289002Y357598D01*
X287644Y356535D02*
X286581Y357598D01*
X286581Y352283D01*
X331511Y202957D02*
X331624Y202451D01*
X331921Y202026D01*
X332359Y201748D01*
X332870Y201658D01*
X334169Y201658D01*
X334169Y206973D01*
X332870Y206973D01*
X332359Y206883D01*
X331921Y206605D01*
X331624Y206180D01*
X331511Y205674D01*
X331511Y202957D01*
X330153Y201658D02*
X330153Y205378D01*
X330153Y206441D02*
X330153Y206973D01*
X326669Y201126D02*
X326783Y200647D01*
X327100Y200271D01*
X327553Y200078D01*
X328044Y200109D01*
X328469Y200358D01*
X328736Y200772D01*
X326669Y201126D02*
X326669Y204020D01*
X328795Y204020D02*
X328690Y204481D01*
X328395Y204851D01*
X327968Y205057D01*
X327495Y205057D01*
X327069Y204851D01*
X326774Y204481D01*
X326669Y204020D01*
X328795Y204020D02*
X328795Y202721D01*
X326669Y202721D02*
X326774Y202260D01*
X327069Y201890D01*
X327495Y201685D01*
X327968Y201685D01*
X328395Y201890D01*
X328690Y202260D01*
X328795Y202721D01*
X325311Y201658D02*
X325311Y205378D01*
X325311Y206441D02*
X325311Y206973D01*
X323952Y205910D02*
X323847Y206371D01*
X323552Y206741D01*
X323126Y206946D01*
X322653Y206946D01*
X322227Y206741D01*
X321932Y206371D01*
X321826Y205910D01*
X323952Y201658D01*
X321826Y201658D01*
X89649Y183100D02*
X89649Y185757D01*
X88350Y185757D01*
X88350Y188444D02*
X87841Y188343D01*
X87410Y188055D01*
X87122Y187624D01*
X87021Y187116D01*
X87122Y186607D01*
X87410Y186176D01*
X87841Y185888D01*
X88350Y185787D01*
X88350Y188415D02*
X89649Y188415D01*
X89649Y185757D01*
X83507Y185462D02*
X83507Y184163D01*
X85633Y185462D02*
X85528Y185923D01*
X85233Y186293D01*
X84807Y186498D01*
X84334Y186498D01*
X83908Y186293D01*
X83613Y185923D01*
X83507Y185462D01*
X85633Y184163D02*
X85633Y185462D01*
X83507Y184163D02*
X83613Y183702D01*
X83908Y183332D01*
X84334Y183127D01*
X84807Y183127D01*
X85233Y183332D01*
X85528Y183702D01*
X85633Y184163D01*
X82149Y186584D02*
X81086Y183100D01*
X80023Y186584D01*
X78960Y183100D01*
X77897Y186584D01*
X76539Y184931D02*
X74413Y184931D01*
X74413Y185462D01*
X76539Y185462D02*
X76434Y185923D01*
X76139Y186293D01*
X75712Y186498D01*
X75239Y186498D01*
X74813Y186293D01*
X74518Y185923D01*
X74413Y185462D01*
X76539Y185462D02*
X76539Y184163D01*
X74472Y183809D02*
X74739Y183395D01*
X75163Y183146D01*
X75655Y183114D01*
X76108Y183307D01*
X76425Y183684D01*
X76539Y184163D01*
X73055Y183100D02*
X73055Y186584D01*
X73055Y185757D02*
X72974Y186123D01*
X72736Y186412D01*
X72392Y186561D01*
X72019Y186538D01*
X71696Y186348D01*
X183921Y184350D02*
X182090Y189665D01*
X180200Y184350D01*
X183389Y185944D02*
X180732Y185944D01*
X178842Y184350D02*
X178842Y187834D01*
X178842Y186712D02*
X178737Y187173D01*
X178442Y187543D01*
X178016Y187748D01*
X177542Y187748D01*
X177116Y187543D01*
X176821Y187173D01*
X176716Y186712D01*
X176716Y184350D01*
X175358Y186712D02*
X175253Y187173D01*
X174958Y187543D01*
X174531Y187748D01*
X174058Y187748D01*
X173632Y187543D01*
X173337Y187173D01*
X173232Y186712D01*
X173353Y186317D01*
X173656Y186036D01*
X174059Y185944D01*
X174590Y185944D01*
X174590Y184320D02*
X174989Y184427D01*
X175280Y184719D01*
X175387Y185118D01*
X175280Y185516D01*
X174989Y185808D01*
X174590Y185915D01*
X174590Y184350D02*
X174059Y184350D01*
X173232Y185118D02*
X173353Y184723D01*
X173656Y184442D01*
X174059Y184350D01*
X173232Y186712D02*
X173232Y184881D01*
X172700Y184350D01*
X171342Y189665D02*
X171342Y185118D01*
X170574Y184350D02*
X170958Y184453D01*
X171239Y184734D01*
X171342Y185118D01*
X167090Y186712D02*
X167090Y185413D01*
X169216Y186712D02*
X169111Y187173D01*
X168816Y187543D01*
X168390Y187748D01*
X167917Y187748D01*
X167490Y187543D01*
X167195Y187173D01*
X167090Y186712D01*
X169216Y185413D02*
X169216Y186712D01*
X167090Y185413D02*
X167195Y184952D01*
X167490Y184582D01*
X167917Y184377D01*
X168390Y184377D01*
X168816Y184582D01*
X169111Y184952D01*
X169216Y185413D01*
X163606Y183818D02*
X163720Y183339D01*
X164037Y182963D01*
X164490Y182770D01*
X164981Y182801D01*
X165406Y183050D01*
X165673Y183464D01*
X163606Y183818D02*
X163606Y186712D01*
X165732Y186712D02*
X165627Y187173D01*
X165332Y187543D01*
X164905Y187748D01*
X164432Y187748D01*
X164006Y187543D01*
X163711Y187173D01*
X163606Y186712D01*
X165732Y186712D02*
X165732Y185413D01*
X163606Y185413D02*
X163711Y184952D01*
X164006Y184582D01*
X164432Y184377D01*
X164905Y184377D01*
X165332Y184582D01*
X165627Y184952D01*
X165732Y185413D01*
X159708Y184350D02*
X159708Y189665D01*
X158350Y184350D02*
X158350Y189665D01*
X155692Y184350D01*
X155692Y189665D01*
X154334Y188602D02*
X153271Y189665D01*
X153271Y184350D01*
X275738Y184350D02*
X273907Y189665D01*
X272017Y184350D01*
X275206Y185944D02*
X272549Y185944D01*
X270659Y184350D02*
X270659Y187834D01*
X270659Y186712D02*
X270554Y187173D01*
X270259Y187543D01*
X269832Y187748D01*
X269359Y187748D01*
X268933Y187543D01*
X268638Y187173D01*
X268533Y186712D01*
X268533Y184350D01*
X267175Y186712D02*
X267069Y187173D01*
X266774Y187543D01*
X266348Y187748D01*
X265875Y187748D01*
X265449Y187543D01*
X265154Y187173D01*
X265049Y186712D01*
X265170Y186317D01*
X265473Y186036D01*
X265875Y185944D01*
X266407Y185944D01*
X266407Y184320D02*
X266806Y184427D01*
X267097Y184719D01*
X267204Y185118D01*
X267097Y185516D01*
X266806Y185808D01*
X266407Y185915D01*
X266407Y184350D02*
X265875Y184350D01*
X265049Y185118D02*
X265170Y184723D01*
X265473Y184442D01*
X265875Y184350D01*
X265049Y186712D02*
X265049Y184881D01*
X264517Y184350D01*
X263159Y189665D02*
X263159Y185118D01*
X262391Y184350D02*
X262775Y184453D01*
X263056Y184734D01*
X263159Y185118D01*
X258907Y186712D02*
X258907Y185413D01*
X261033Y186712D02*
X260928Y187173D01*
X260633Y187543D01*
X260207Y187748D01*
X259733Y187748D01*
X259307Y187543D01*
X259012Y187173D01*
X258907Y186712D01*
X261033Y185413D02*
X261033Y186712D01*
X258907Y185413D02*
X259012Y184952D01*
X259307Y184582D01*
X259733Y184377D01*
X260207Y184377D01*
X260633Y184582D01*
X260928Y184952D01*
X261033Y185413D01*
X255423Y183818D02*
X255537Y183339D01*
X255854Y182963D01*
X256307Y182770D01*
X256798Y182801D01*
X257223Y183050D01*
X257490Y183464D01*
X255423Y183818D02*
X255423Y186712D01*
X257549Y186712D02*
X257443Y187173D01*
X257148Y187543D01*
X256722Y187748D01*
X256249Y187748D01*
X255823Y187543D01*
X255528Y187173D01*
X255423Y186712D01*
X257549Y186712D02*
X257549Y185413D01*
X255423Y185413D02*
X255528Y184952D01*
X255823Y184582D01*
X256249Y184377D01*
X256722Y184377D01*
X257148Y184582D01*
X257443Y184952D01*
X257549Y185413D01*
X251525Y184350D02*
X251525Y189665D01*
X250167Y184350D02*
X250167Y189665D01*
X247509Y184350D01*
X247509Y189665D01*
X246151Y188602D02*
X246046Y189063D01*
X245751Y189433D01*
X245325Y189638D01*
X244852Y189638D01*
X244425Y189433D01*
X244130Y189063D01*
X244025Y188602D01*
X246151Y184350D01*
X244025Y184350D01*
X277570Y378366D02*
X277469Y378874D01*
X277181Y379305D01*
X276750Y379593D01*
X276242Y379694D01*
X275733Y379593D01*
X275302Y379305D01*
X275014Y378874D01*
X274913Y378366D01*
X277541Y378366D02*
X277541Y375649D01*
X274913Y375649D02*
X275014Y375141D01*
X275302Y374710D01*
X275733Y374422D01*
X276242Y374320D01*
X276750Y374422D01*
X277181Y374710D01*
X277469Y375141D01*
X277570Y375649D01*
X271399Y376712D02*
X271399Y375413D01*
X273525Y376712D02*
X273420Y377173D01*
X273125Y377543D01*
X272699Y377748D01*
X272226Y377748D01*
X271799Y377543D01*
X271504Y377173D01*
X271399Y376712D01*
X273525Y375413D02*
X273525Y376712D01*
X271399Y375413D02*
X271504Y374952D01*
X271799Y374582D01*
X272226Y374377D01*
X272699Y374377D01*
X273125Y374582D01*
X273420Y374952D01*
X273525Y375413D01*
X270041Y374350D02*
X270041Y377834D01*
X270041Y376712D02*
X269936Y377173D01*
X269641Y377543D01*
X269214Y377748D01*
X268741Y377748D01*
X268315Y377543D01*
X268020Y377173D01*
X267915Y376712D01*
X267915Y374350D01*
X267915Y376712D02*
X267810Y377173D01*
X267515Y377543D01*
X267088Y377748D01*
X266615Y377748D01*
X266189Y377543D01*
X265894Y377173D01*
X265789Y376712D01*
X265789Y374350D01*
X264431Y374350D02*
X264431Y377834D01*
X264431Y376712D02*
X264325Y377173D01*
X264030Y377543D01*
X263604Y377748D01*
X263131Y377748D01*
X262705Y377543D01*
X262410Y377173D01*
X262305Y376712D01*
X262305Y374350D01*
X262305Y376712D02*
X262199Y377173D01*
X261904Y377543D01*
X261478Y377748D01*
X261005Y377748D01*
X260579Y377543D01*
X260284Y377173D01*
X260179Y376712D01*
X260179Y374350D01*
X258820Y377834D02*
X258820Y375413D01*
X256694Y375413D02*
X256800Y374952D01*
X257095Y374582D01*
X257521Y374377D01*
X257994Y374377D01*
X258420Y374582D01*
X258715Y374952D01*
X258820Y375413D01*
X256694Y377834D02*
X256694Y374350D01*
X255336Y374350D02*
X255336Y377834D01*
X255336Y376712D02*
X255231Y377173D01*
X254936Y377543D01*
X254510Y377748D01*
X254037Y377748D01*
X253610Y377543D01*
X253315Y377173D01*
X253210Y376712D01*
X253210Y374350D01*
X251852Y374350D02*
X251852Y378070D01*
X251852Y379133D02*
X251852Y379665D01*
X250494Y376712D02*
X250388Y377173D01*
X250093Y377543D01*
X249667Y377748D01*
X249194Y377748D01*
X248768Y377543D01*
X248473Y377173D01*
X248368Y376712D01*
X250494Y376712D02*
X250494Y375413D01*
X248368Y375413D02*
X248473Y374952D01*
X248768Y374582D01*
X249194Y374377D01*
X249667Y374377D01*
X250093Y374582D01*
X250388Y374952D01*
X250494Y375413D01*
X247009Y376712D02*
X246904Y377173D01*
X246609Y377543D01*
X246183Y377748D01*
X245710Y377748D01*
X245284Y377543D01*
X244989Y377173D01*
X244883Y376712D01*
X245005Y376317D01*
X245307Y376036D01*
X245710Y375944D01*
X246242Y375944D01*
X246242Y374320D02*
X246640Y374427D01*
X246932Y374719D01*
X247039Y375118D01*
X246932Y375516D01*
X246640Y375808D01*
X246242Y375915D01*
X246242Y374350D02*
X245710Y374350D01*
X244883Y375118D02*
X245005Y374723D01*
X245307Y374442D01*
X245710Y374350D01*
X244883Y376712D02*
X244883Y374881D01*
X244352Y374350D01*
X242994Y377834D02*
X241399Y377834D01*
X242226Y379665D02*
X242226Y375118D01*
X241399Y374350D02*
X241802Y374442D01*
X242104Y374723D01*
X242226Y375118D01*
X240041Y374350D02*
X240041Y378070D01*
X240041Y379133D02*
X240041Y379665D01*
X236557Y376712D02*
X236557Y375413D01*
X238683Y376712D02*
X238577Y377173D01*
X238282Y377543D01*
X237856Y377748D01*
X237383Y377748D01*
X236957Y377543D01*
X236662Y377173D01*
X236557Y376712D01*
X238683Y375413D02*
X238683Y376712D01*
X236557Y375413D02*
X236662Y374952D01*
X236957Y374582D01*
X237383Y374377D01*
X237856Y374377D01*
X238282Y374582D01*
X238577Y374952D01*
X238683Y375413D01*
X235198Y374350D02*
X235198Y377834D01*
X235198Y376712D02*
X235093Y377173D01*
X234798Y377543D01*
X234372Y377748D01*
X233899Y377748D01*
X233473Y377543D01*
X233178Y377173D01*
X233072Y376712D01*
X233072Y374350D01*
X156652Y373725D02*
X156652Y376382D01*
X155353Y376382D01*
X155353Y379069D02*
X154844Y378968D01*
X154413Y378680D01*
X154125Y378249D01*
X154024Y377741D01*
X154125Y377232D01*
X154413Y376801D01*
X154844Y376513D01*
X155353Y376412D01*
X155353Y379040D02*
X156652Y379040D01*
X156652Y376382D01*
X152636Y379040D02*
X151337Y373725D01*
X149979Y379040D01*
X148621Y373725D01*
X147321Y379040D01*
X145963Y373725D02*
X145963Y379040D01*
X144132Y375319D01*
X142243Y379040D01*
X142243Y373725D01*
X140884Y377977D02*
X139821Y379040D01*
X139821Y373725D01*
X229930Y321387D02*
X229424Y321275D01*
X228999Y320977D01*
X228721Y320539D01*
X228631Y320029D01*
X228631Y318729D01*
X233946Y318729D01*
X233946Y320029D01*
X233856Y320539D01*
X233578Y320977D01*
X233153Y321275D01*
X232646Y321387D01*
X229930Y321387D01*
X228217Y327765D02*
X228217Y322745D01*
X233946Y329123D02*
X228631Y329123D01*
X228631Y331485D01*
X233946Y335501D02*
X233946Y332844D01*
X231288Y332844D01*
X231288Y334674D01*
X231288Y332844D02*
X228631Y332844D01*
X228631Y335501D01*
X229930Y339517D02*
X229424Y339405D01*
X228999Y339107D01*
X228721Y338669D01*
X228631Y338159D01*
X228631Y336859D01*
X233946Y336859D01*
X233946Y338159D01*
X233856Y338669D01*
X233578Y339107D01*
X233153Y339405D01*
X232646Y339517D01*
X229930Y339517D01*
X232883Y340875D02*
X233946Y341938D01*
X228631Y341938D01*
X224496Y311570D02*
X225559Y312633D01*
X220244Y312633D01*
X224496Y316118D02*
X221307Y316118D01*
X224496Y313992D02*
X224957Y314097D01*
X225327Y314392D01*
X225533Y314818D01*
X225533Y315291D01*
X225327Y315717D01*
X224957Y316012D01*
X224496Y316118D01*
X221307Y313992D02*
X224496Y313992D01*
X221307Y316118D02*
X220846Y316012D01*
X220476Y315717D01*
X220271Y315291D01*
X220271Y314818D01*
X220476Y314392D01*
X220846Y314097D01*
X221307Y313992D01*
X224496Y319602D02*
X221307Y319602D01*
X224496Y317476D02*
X224957Y317581D01*
X225327Y317876D01*
X225533Y318302D01*
X225533Y318775D01*
X225327Y319202D01*
X224957Y319497D01*
X224496Y319602D01*
X221307Y317476D02*
X224496Y317476D01*
X221307Y319602D02*
X220846Y319497D01*
X220476Y319202D01*
X220271Y318775D01*
X220271Y318302D01*
X220476Y317876D01*
X220846Y317581D01*
X221307Y317476D01*
X336122Y369852D02*
X335059Y370915D01*
X335059Y365600D01*
X331574Y369852D02*
X331574Y366663D01*
X333700Y369852D02*
X333595Y370313D01*
X333300Y370683D01*
X332874Y370888D01*
X332401Y370888D01*
X331975Y370683D01*
X331680Y370313D01*
X331574Y369852D01*
X333700Y366663D02*
X333700Y369852D01*
X331574Y366663D02*
X331680Y366202D01*
X331975Y365832D01*
X332401Y365627D01*
X332874Y365627D01*
X333300Y365832D01*
X333595Y366202D01*
X333700Y366663D01*
X330216Y365600D02*
X330216Y370915D01*
X330216Y367431D02*
X327559Y370915D01*
X329153Y368789D02*
X327559Y365600D01*
X204496Y311487D02*
X205559Y312550D01*
X200244Y312550D01*
X204496Y316034D02*
X201307Y316034D01*
X204496Y313908D02*
X204957Y314013D01*
X205327Y314308D01*
X205533Y314734D01*
X205533Y315208D01*
X205327Y315634D01*
X204957Y315929D01*
X204496Y316034D01*
X201307Y313908D02*
X204496Y313908D01*
X201307Y316034D02*
X200846Y315929D01*
X200476Y315634D01*
X200271Y315208D01*
X200271Y314734D01*
X200476Y314308D01*
X200846Y314013D01*
X201307Y313908D01*
X200244Y317392D02*
X205559Y317392D01*
X202075Y317392D02*
X205559Y320050D01*
X203433Y318455D02*
X200244Y320050D01*
X339927Y319344D02*
X340388Y319449D01*
X340758Y319744D01*
X340963Y320170D01*
X340963Y320643D01*
X340758Y321070D01*
X340388Y321365D01*
X339927Y321470D01*
X335675Y319344D01*
X335675Y321470D01*
X339927Y322828D02*
X340388Y322933D01*
X340758Y323228D01*
X340963Y323655D01*
X340963Y324128D01*
X340758Y324554D01*
X340388Y324849D01*
X339927Y324954D01*
X335675Y322828D01*
X335675Y324954D01*
X339927Y328438D02*
X336738Y328438D01*
X339927Y326312D02*
X340388Y326418D01*
X340758Y326713D01*
X340963Y327139D01*
X340963Y327612D01*
X340758Y328038D01*
X340388Y328333D01*
X339927Y328438D01*
X336738Y326312D02*
X339927Y326312D01*
X336738Y328438D02*
X336277Y328333D01*
X335907Y328038D01*
X335702Y327612D01*
X335702Y327139D01*
X335907Y326713D01*
X336277Y326418D01*
X336738Y326312D01*
X352427Y319344D02*
X352888Y319449D01*
X353258Y319744D01*
X353463Y320170D01*
X353463Y320643D01*
X353258Y321070D01*
X352888Y321365D01*
X352427Y321470D01*
X348175Y319344D01*
X348175Y321470D01*
X352427Y322828D02*
X352888Y322933D01*
X353258Y323228D01*
X353463Y323655D01*
X353463Y324128D01*
X353258Y324554D01*
X352888Y324849D01*
X352427Y324954D01*
X348175Y322828D01*
X348175Y324954D01*
X352427Y328438D02*
X349238Y328438D01*
X352427Y326312D02*
X352888Y326418D01*
X353258Y326713D01*
X353463Y327139D01*
X353463Y327612D01*
X353258Y328038D01*
X352888Y328333D01*
X352427Y328438D01*
X349238Y326312D02*
X352427Y326312D01*
X349238Y328438D02*
X348777Y328333D01*
X348407Y328038D01*
X348202Y327612D01*
X348202Y327139D01*
X348407Y326713D01*
X348777Y326418D01*
X349238Y326312D01*
X367427Y319344D02*
X367888Y319449D01*
X368258Y319744D01*
X368463Y320170D01*
X368463Y320643D01*
X368258Y321070D01*
X367888Y321365D01*
X367427Y321470D01*
X363175Y319344D01*
X363175Y321470D01*
X367427Y322828D02*
X367888Y322933D01*
X368258Y323228D01*
X368463Y323655D01*
X368463Y324128D01*
X368258Y324554D01*
X367888Y324849D01*
X367427Y324954D01*
X363175Y322828D01*
X363175Y324954D01*
X367427Y328438D02*
X364238Y328438D01*
X367427Y326312D02*
X367888Y326418D01*
X368258Y326713D01*
X368463Y327139D01*
X368463Y327612D01*
X368258Y328038D01*
X367888Y328333D01*
X367427Y328438D01*
X364238Y326312D02*
X367427Y326312D01*
X364238Y328438D02*
X363777Y328333D01*
X363407Y328038D01*
X363202Y327612D01*
X363202Y327139D01*
X363407Y326713D01*
X363777Y326418D01*
X364238Y326312D01*
X381083Y318985D02*
X381545Y319090D01*
X381915Y319385D01*
X382120Y319811D01*
X382120Y320284D01*
X381915Y320710D01*
X381545Y321005D01*
X381083Y321111D01*
X376831Y318985D01*
X376831Y321111D01*
X381083Y322469D02*
X381545Y322574D01*
X381915Y322869D01*
X382120Y323295D01*
X382120Y323768D01*
X381915Y324195D01*
X381545Y324490D01*
X381083Y324595D01*
X376831Y322469D01*
X376831Y324595D01*
X381083Y328079D02*
X377894Y328079D01*
X381083Y325953D02*
X381545Y326058D01*
X381915Y326353D01*
X382120Y326780D01*
X382120Y327253D01*
X381915Y327679D01*
X381545Y327974D01*
X381083Y328079D01*
X377894Y325953D02*
X381083Y325953D01*
X377894Y328079D02*
X377433Y327974D01*
X377063Y327679D01*
X376858Y327253D01*
X376858Y326780D01*
X377063Y326353D01*
X377433Y326058D01*
X377894Y325953D01*
X378340Y246137D02*
X378801Y246243D01*
X379171Y246538D01*
X379376Y246964D01*
X379376Y247437D01*
X379171Y247863D01*
X378801Y248158D01*
X378340Y248263D01*
X374088Y246137D01*
X374088Y248263D01*
X378340Y249622D02*
X378801Y249727D01*
X379171Y250022D01*
X379376Y250448D01*
X379376Y250921D01*
X379171Y251347D01*
X378801Y251642D01*
X378340Y251748D01*
X374088Y249622D01*
X374088Y251748D01*
X378340Y255232D02*
X375151Y255232D01*
X378340Y253106D02*
X378801Y253211D01*
X379171Y253506D01*
X379376Y253932D01*
X379376Y254405D01*
X379171Y254832D01*
X378801Y255127D01*
X378340Y255232D01*
X375151Y253106D02*
X378340Y253106D01*
X375151Y255232D02*
X374690Y255127D01*
X374320Y254832D01*
X374114Y254405D01*
X374114Y253932D01*
X374320Y253506D01*
X374690Y253211D01*
X375151Y253106D01*
X153444Y69350D02*
X151614Y74665D01*
X149724Y69350D01*
X152913Y70944D02*
X150255Y70944D01*
X148366Y69350D02*
X147834Y69350D01*
X148307Y68287D01*
X146476Y69350D02*
X144645Y74665D01*
X142755Y69350D01*
X145944Y70944D02*
X143287Y70944D01*
X141161Y74665D02*
X141161Y74133D01*
X141397Y73897D01*
X137440Y74665D02*
X139803Y69350D01*
X134783Y72007D02*
X136082Y72007D01*
X134783Y74694D02*
X134274Y74593D01*
X133843Y74305D01*
X133555Y73874D01*
X133454Y73366D01*
X133555Y72857D01*
X133843Y72426D01*
X134274Y72138D01*
X134783Y72037D01*
X136082Y74665D02*
X134783Y74665D01*
X136082Y69350D02*
X136082Y74665D01*
X134783Y69350D02*
X136082Y69350D01*
X134783Y71978D02*
X134274Y71877D01*
X133843Y71589D01*
X133555Y71158D01*
X133454Y70649D01*
X133555Y70141D01*
X133843Y69710D01*
X134274Y69422D01*
X134783Y69320D01*
X132066Y69350D02*
X131535Y69350D01*
X132007Y68287D01*
X128877Y72007D02*
X130177Y72007D01*
X128877Y74694D02*
X128369Y74593D01*
X127938Y74305D01*
X127650Y73874D01*
X127549Y73366D01*
X127650Y72857D01*
X127938Y72426D01*
X128369Y72138D01*
X128877Y72037D01*
X130177Y74665D02*
X128877Y74665D01*
X130177Y69350D02*
X130177Y74665D01*
X128877Y69350D02*
X130177Y69350D01*
X128877Y71978D02*
X128369Y71877D01*
X127938Y71589D01*
X127650Y71158D01*
X127549Y70649D01*
X127650Y70141D01*
X127938Y69710D01*
X128369Y69422D01*
X128877Y69320D01*
X125925Y74665D02*
X125925Y74133D01*
X126161Y73897D01*
X122204Y74665D02*
X124566Y69350D01*
X120846Y74665D02*
X118188Y74665D01*
X120846Y69350D01*
X118188Y69350D01*
X116830Y69350D02*
X116299Y69350D01*
X116771Y68287D01*
X114940Y74665D02*
X112283Y74665D01*
X114940Y69350D01*
X112283Y69350D01*
X110688Y74665D02*
X110688Y74133D01*
X110925Y73897D01*
X83444Y69350D02*
X83444Y74665D01*
X81614Y70944D01*
X79724Y74665D01*
X79724Y69350D01*
X76240Y71712D02*
X76240Y70413D01*
X78366Y71712D02*
X78260Y72173D01*
X77965Y72543D01*
X77539Y72748D01*
X77066Y72748D01*
X76640Y72543D01*
X76345Y72173D01*
X76240Y71712D01*
X78366Y70413D02*
X78366Y71712D01*
X76240Y70413D02*
X76345Y69952D01*
X76640Y69582D01*
X77066Y69377D01*
X77539Y69377D01*
X77965Y69582D01*
X78260Y69952D01*
X78366Y70413D01*
X74881Y72834D02*
X73287Y72834D01*
X74114Y74665D02*
X74114Y70118D01*
X73287Y69350D02*
X73690Y69442D01*
X73992Y69723D01*
X74114Y70118D01*
X69803Y71712D02*
X69803Y70413D01*
X71929Y71712D02*
X71823Y72173D01*
X71528Y72543D01*
X71102Y72748D01*
X70629Y72748D01*
X70203Y72543D01*
X69908Y72173D01*
X69803Y71712D01*
X71929Y70413D02*
X71929Y71712D01*
X69803Y70413D02*
X69908Y69952D01*
X70203Y69582D01*
X70629Y69377D01*
X71102Y69377D01*
X71528Y69582D01*
X71823Y69952D01*
X71929Y70413D01*
X68444Y69350D02*
X68444Y72834D01*
X68444Y72007D02*
X68363Y72373D01*
X68125Y72662D01*
X67782Y72811D01*
X67409Y72788D01*
X67086Y72598D01*
X63188Y72007D02*
X60531Y72007D01*
X61889Y73366D02*
X61889Y70649D01*
X55334Y72007D02*
X55898Y72130D01*
X56361Y72476D01*
X56637Y72983D01*
X56679Y73559D01*
X56477Y74100D01*
X56068Y74508D01*
X55527Y74710D01*
X54951Y74669D01*
X54445Y74392D01*
X54099Y73930D01*
X53976Y73366D01*
X55334Y72007D02*
X54780Y71899D01*
X54320Y71571D01*
X54039Y71081D01*
X53986Y70519D01*
X54171Y69986D01*
X54562Y69577D01*
X55087Y69368D01*
X55651Y69396D01*
X56152Y69656D01*
X56501Y70100D01*
X56633Y70649D01*
X52618Y72834D02*
X51023Y72834D01*
X51850Y74665D02*
X51850Y70118D01*
X51023Y69350D02*
X51426Y69442D01*
X51728Y69723D01*
X51850Y70118D01*
X49665Y71712D02*
X49560Y72173D01*
X49265Y72543D01*
X48838Y72748D01*
X48365Y72748D01*
X47939Y72543D01*
X47644Y72173D01*
X47539Y71712D01*
X47660Y71317D01*
X47963Y71036D01*
X48366Y70944D01*
X48897Y70944D01*
X48897Y69320D02*
X49296Y69427D01*
X49588Y69719D01*
X49694Y70118D01*
X49588Y70516D01*
X49296Y70808D01*
X48897Y70915D01*
X48897Y69350D02*
X48366Y69350D01*
X47539Y70118D02*
X47660Y69723D01*
X47963Y69442D01*
X48366Y69350D01*
X47539Y71712D02*
X47539Y69881D01*
X47007Y69350D01*
X45649Y72834D02*
X44055Y72834D01*
X44881Y74665D02*
X44881Y70118D01*
X44055Y69350D02*
X44457Y69442D01*
X44760Y69723D01*
X44881Y70118D01*
X42696Y72834D02*
X42696Y70413D01*
X40570Y70413D02*
X40676Y69952D01*
X40971Y69582D01*
X41397Y69377D01*
X41870Y69377D01*
X42296Y69582D01*
X42591Y69952D01*
X42696Y70413D01*
X40570Y72834D02*
X40570Y69350D01*
X38444Y69350D02*
X38828Y69453D01*
X39109Y69734D01*
X39212Y70118D01*
X38444Y69350D02*
X37913Y69350D01*
X37086Y70118D02*
X37208Y69723D01*
X37510Y69442D01*
X37913Y69350D01*
X37086Y70118D02*
X37086Y70413D01*
X37913Y71181D02*
X37510Y71089D01*
X37208Y70808D01*
X37086Y70413D01*
X37913Y71181D02*
X38444Y71181D01*
X38858Y71291D01*
X39160Y71594D01*
X39271Y72007D01*
X39160Y72421D01*
X38858Y72723D01*
X38444Y72834D01*
X37913Y72834D01*
X37500Y72723D01*
X37197Y72421D01*
X37086Y72007D01*
X104744Y229976D02*
X104744Y235291D01*
X103415Y233992D02*
X103314Y234500D01*
X103026Y234931D01*
X102595Y235219D01*
X102086Y235320D01*
X101578Y235219D01*
X101147Y234931D01*
X100859Y234500D01*
X100757Y233992D01*
X103385Y233992D02*
X103385Y231275D01*
X100757Y231275D02*
X100859Y230767D01*
X101147Y230336D01*
X101578Y230047D01*
X102086Y229946D01*
X102595Y230047D01*
X103026Y230336D01*
X103314Y230767D01*
X103415Y231275D01*
X99370Y234228D02*
X98307Y235291D01*
X98307Y229976D01*
X174896Y250851D02*
X173065Y256166D01*
X171176Y250851D01*
X174365Y252445D02*
X171707Y252445D01*
X169817Y250851D02*
X169817Y256166D01*
X167987Y252445D01*
X166097Y256166D01*
X166097Y250851D01*
X164739Y255103D02*
X164633Y255564D01*
X164338Y255934D01*
X163912Y256139D01*
X163439Y256139D01*
X163013Y255934D01*
X162718Y255564D01*
X162613Y255103D01*
X164739Y250851D01*
X162613Y250851D01*
X161254Y255103D02*
X161149Y255564D01*
X160854Y255934D01*
X160428Y256139D01*
X159955Y256139D01*
X159529Y255934D01*
X159234Y255564D01*
X159128Y255103D01*
X161254Y255103D02*
X161254Y251914D01*
X159128Y251914D02*
X159234Y251453D01*
X159529Y251083D01*
X159955Y250878D01*
X160428Y250878D01*
X160854Y251083D01*
X161149Y251453D01*
X161254Y251914D01*
X159128Y251914D02*
X159128Y252977D01*
X161254Y252977D02*
X161149Y253438D01*
X160854Y253808D01*
X160428Y254013D01*
X159955Y254013D01*
X159529Y253808D01*
X159234Y253438D01*
X159128Y252977D01*
X157770Y256166D02*
X157770Y250851D01*
X155408Y250851D01*
X152750Y253508D02*
X153315Y253631D01*
X153777Y253977D01*
X154054Y254484D01*
X154095Y255060D01*
X153893Y255601D01*
X153485Y256009D01*
X152944Y256211D01*
X152368Y256170D01*
X151861Y255893D01*
X151515Y255431D01*
X151392Y254867D01*
X152750Y253508D02*
X152196Y253400D01*
X151737Y253072D01*
X151455Y252582D01*
X151402Y252020D01*
X151588Y251487D01*
X151978Y251078D01*
X152503Y250869D01*
X153067Y250897D01*
X153569Y251157D01*
X153917Y251601D01*
X154050Y252150D01*
X147908Y251914D02*
X148013Y251453D01*
X148308Y251083D01*
X148734Y250878D01*
X149207Y250878D01*
X149634Y251083D01*
X149929Y251453D01*
X150034Y251914D01*
X147908Y252682D02*
X147908Y251914D01*
X148971Y253745D02*
X148564Y253664D01*
X148219Y253433D01*
X147989Y253088D01*
X147908Y252682D01*
X149266Y253745D02*
X148971Y253745D01*
X149266Y253745D01*
X147908Y254867D02*
X147980Y254446D01*
X148207Y254085D01*
X148555Y253839D01*
X148971Y253745D01*
X147908Y255103D02*
X147908Y254867D01*
X150034Y255103D02*
X149929Y255564D01*
X149634Y255934D01*
X149207Y256139D01*
X148734Y256139D01*
X148308Y255934D01*
X148013Y255564D01*
X147908Y255103D01*
X146550Y255103D02*
X146444Y255564D01*
X146149Y255934D01*
X145723Y256139D01*
X145250Y256139D01*
X144824Y255934D01*
X144529Y255564D01*
X144424Y255103D01*
X146550Y250851D01*
X144424Y250851D01*
X177210Y278677D02*
X176147Y279740D01*
X176147Y274425D01*
X174789Y278677D02*
X174684Y279138D01*
X174389Y279508D01*
X173962Y279713D01*
X173489Y279713D01*
X173063Y279508D01*
X172768Y279138D01*
X172663Y278677D01*
X174789Y274425D01*
X172663Y274425D01*
X169179Y278677D02*
X169179Y275488D01*
X171305Y278677D02*
X171199Y279138D01*
X170904Y279508D01*
X170478Y279713D01*
X170005Y279713D01*
X169579Y279508D01*
X169284Y279138D01*
X169179Y278677D01*
X171305Y275488D02*
X171305Y278677D01*
X169179Y275488D02*
X169284Y275027D01*
X169579Y274657D01*
X170005Y274452D01*
X170478Y274452D01*
X170904Y274657D01*
X171199Y275027D01*
X171305Y275488D01*
X157840Y222958D02*
X156777Y224021D01*
X156777Y218706D01*
X155419Y222958D02*
X155314Y223420D01*
X155019Y223790D01*
X154592Y223995D01*
X154119Y223995D01*
X153693Y223790D01*
X153398Y223420D01*
X153293Y222958D01*
X155419Y218706D01*
X153293Y218706D01*
X149809Y222958D02*
X149809Y219769D01*
X151935Y222958D02*
X151829Y223420D01*
X151534Y223790D01*
X151108Y223995D01*
X150635Y223995D01*
X150209Y223790D01*
X149914Y223420D01*
X149809Y222958D01*
X151935Y219769D02*
X151935Y222958D01*
X149809Y219769D02*
X149914Y219308D01*
X150209Y218938D01*
X150635Y218733D01*
X151108Y218733D01*
X151534Y218938D01*
X151829Y219308D01*
X151935Y219769D01*
X127210Y278677D02*
X126147Y279740D01*
X126147Y274425D01*
X124789Y278677D02*
X124684Y279138D01*
X124389Y279508D01*
X123962Y279713D01*
X123489Y279713D01*
X123063Y279508D01*
X122768Y279138D01*
X122663Y278677D01*
X124789Y274425D01*
X122663Y274425D01*
X119179Y278677D02*
X119179Y275488D01*
X121305Y278677D02*
X121199Y279138D01*
X120904Y279508D01*
X120478Y279713D01*
X120005Y279713D01*
X119579Y279508D01*
X119284Y279138D01*
X119179Y278677D01*
X121305Y275488D02*
X121305Y278677D01*
X119179Y275488D02*
X119284Y275027D01*
X119579Y274657D01*
X120005Y274452D01*
X120478Y274452D01*
X120904Y274657D01*
X121199Y275027D01*
X121305Y275488D01*
X59788Y188038D02*
X59349Y187944D01*
X58988Y187676D01*
X58770Y187283D01*
X58733Y186835D01*
X58885Y186412D01*
X59197Y186090D01*
X59788Y188038D02*
X60851Y188038D01*
X60851Y185912D02*
X61312Y186018D01*
X61682Y186313D01*
X61887Y186739D01*
X61887Y187212D01*
X61682Y187638D01*
X61312Y187933D01*
X60851Y188038D01*
X60851Y185912D02*
X64040Y185912D01*
X64040Y188038D01*
X64040Y189397D02*
X58725Y190696D01*
X64040Y192054D01*
X65103Y195952D02*
X57662Y195952D01*
X65103Y197310D02*
X57662Y197310D01*
X64040Y203865D02*
X64040Y201208D01*
X61382Y201208D01*
X61382Y203038D01*
X61382Y201208D02*
X58725Y201208D01*
X58725Y203865D01*
X58725Y205223D02*
X62209Y207349D01*
X62209Y205223D02*
X58725Y207349D01*
X62209Y208708D02*
X62209Y210302D01*
X64040Y209475D02*
X59493Y209475D01*
X58725Y210302D02*
X58817Y209899D01*
X59098Y209597D01*
X59493Y209475D01*
X59256Y211660D02*
X58725Y211660D01*
X114911Y283726D02*
X114911Y289041D01*
X113582Y287742D02*
X113481Y288250D01*
X113193Y288681D01*
X112762Y288969D01*
X112253Y289070D01*
X111745Y288969D01*
X111314Y288681D01*
X111026Y288250D01*
X110925Y287742D01*
X113553Y287742D02*
X113553Y285025D01*
X110925Y285025D02*
X111026Y284517D01*
X111314Y284086D01*
X111745Y283797D01*
X112253Y283696D01*
X112762Y283797D01*
X113193Y284086D01*
X113481Y284517D01*
X113582Y285025D01*
X107411Y284789D02*
X107516Y284328D01*
X107811Y283958D01*
X108237Y283753D01*
X108710Y283753D01*
X109137Y283958D01*
X109432Y284328D01*
X109537Y284789D01*
X107411Y285557D02*
X107411Y284789D01*
X108474Y286620D02*
X108067Y286539D01*
X107722Y286308D01*
X107492Y285963D01*
X107411Y285557D01*
X108769Y286620D02*
X108474Y286620D01*
X108769Y286620D01*
X107411Y287742D02*
X107483Y287321D01*
X107710Y286960D01*
X108058Y286714D01*
X108474Y286620D01*
X107411Y287978D02*
X107411Y287742D01*
X109537Y287978D02*
X109432Y288439D01*
X109137Y288809D01*
X108710Y289014D01*
X108237Y289014D01*
X107811Y288809D01*
X107516Y288439D01*
X107411Y287978D01*
X175078Y310398D02*
X175078Y311166D01*
X172952Y311166D01*
X174547Y305851D01*
X170000Y311166D02*
X171594Y307150D01*
X169468Y307150D01*
X170000Y308213D02*
X170000Y305851D01*
X168110Y305851D02*
X168110Y308508D01*
X165452Y308508D01*
X168110Y308508D02*
X168110Y311166D01*
X165452Y311166D02*
X165452Y305851D01*
X164124Y309867D02*
X164022Y310375D01*
X163734Y310806D01*
X163303Y311094D01*
X162795Y311195D01*
X162286Y311094D01*
X161855Y310806D01*
X161567Y310375D01*
X161466Y309867D01*
X164094Y309867D02*
X164094Y307150D01*
X161466Y307150D02*
X161567Y306642D01*
X161855Y306211D01*
X162286Y305922D01*
X162795Y305821D01*
X163303Y305922D01*
X163734Y306211D01*
X164022Y306642D01*
X164124Y307150D01*
X160078Y311166D02*
X157421Y311166D01*
X158779Y311166D02*
X158779Y305851D01*
X156062Y310103D02*
X155000Y311166D01*
X155000Y305851D01*
X152047Y311166D02*
X153641Y307150D01*
X151515Y307150D01*
X152047Y308213D02*
X152047Y305851D01*
X25399Y219899D02*
X28057Y219899D01*
X28057Y222557D01*
X28057Y219899D02*
X30714Y219899D01*
X30714Y222557D02*
X25399Y222557D01*
X29415Y223885D02*
X29923Y223986D01*
X30354Y224275D01*
X30642Y224706D01*
X30744Y225214D01*
X30642Y225723D01*
X30354Y226154D01*
X29923Y226442D01*
X29415Y226543D01*
X29415Y223915D02*
X26698Y223915D01*
X26698Y226543D02*
X26190Y226442D01*
X25759Y226154D01*
X25471Y225723D01*
X25370Y225214D01*
X25471Y224706D01*
X25759Y224275D01*
X26190Y223986D01*
X26698Y223885D01*
X25399Y227931D02*
X28057Y227931D01*
X28057Y229230D01*
X30744Y229230D02*
X30642Y229738D01*
X30354Y230169D01*
X29923Y230457D01*
X29415Y230559D01*
X28906Y230457D01*
X28475Y230169D01*
X28187Y229738D01*
X28086Y229230D01*
X30714Y229230D02*
X30714Y227931D01*
X28057Y227931D01*
X30714Y231946D02*
X25399Y231946D01*
X25399Y234309D01*
X28057Y235667D02*
X28057Y238029D01*
X29651Y239387D02*
X30112Y239493D01*
X30482Y239788D01*
X30687Y240214D01*
X30687Y240687D01*
X30482Y241113D01*
X30112Y241408D01*
X29651Y241513D01*
X25399Y239387D01*
X25399Y241513D01*
X29651Y242872D02*
X30112Y242977D01*
X30482Y243272D01*
X30687Y243698D01*
X30687Y244171D01*
X30482Y244597D01*
X30112Y244892D01*
X29651Y244998D01*
X29651Y242872D02*
X26462Y242872D01*
X26462Y244998D02*
X26001Y244892D01*
X25631Y244597D01*
X25426Y244171D01*
X25426Y243698D01*
X25631Y243272D01*
X26001Y242977D01*
X26462Y242872D01*
X26462Y244998D02*
X27525Y244998D01*
X27525Y242872D02*
X27986Y242977D01*
X28356Y243272D01*
X28561Y243698D01*
X28561Y244171D01*
X28356Y244597D01*
X27986Y244892D01*
X27525Y244998D01*
X26462Y248482D02*
X26001Y248377D01*
X25631Y248082D01*
X25426Y247655D01*
X25426Y247182D01*
X25631Y246756D01*
X26001Y246461D01*
X26462Y246356D01*
X27230Y248482D02*
X26462Y248482D01*
X28293Y247419D02*
X28212Y247826D01*
X27981Y248170D01*
X27637Y248401D01*
X27230Y248482D01*
X28293Y247124D02*
X28293Y247419D01*
X28293Y247124D01*
X29415Y248482D02*
X28994Y248410D01*
X28634Y248183D01*
X28387Y247835D01*
X28293Y247419D01*
X29651Y248482D02*
X29415Y248482D01*
X29651Y246356D02*
X30112Y246461D01*
X30482Y246756D01*
X30687Y247182D01*
X30687Y247655D01*
X30482Y248082D01*
X30112Y248377D01*
X29651Y248482D01*
X29651Y251966D02*
X26462Y251966D01*
X29651Y249840D02*
X30112Y249945D01*
X30482Y250240D01*
X30687Y250667D01*
X30687Y251140D01*
X30482Y251566D01*
X30112Y251861D01*
X29651Y251966D01*
X26462Y249840D02*
X29651Y249840D01*
X26462Y251966D02*
X26001Y251861D01*
X25631Y251566D01*
X25426Y251140D01*
X25426Y250667D01*
X25631Y250240D01*
X26001Y249945D01*
X26462Y249840D01*
X25399Y281149D02*
X28057Y281149D01*
X28057Y283807D01*
X28057Y281149D02*
X30714Y281149D01*
X30714Y283807D02*
X25399Y283807D01*
X29415Y285135D02*
X29923Y285236D01*
X30354Y285525D01*
X30642Y285956D01*
X30744Y286464D01*
X30642Y286973D01*
X30354Y287404D01*
X29923Y287692D01*
X29415Y287793D01*
X29415Y285165D02*
X26698Y285165D01*
X26698Y287793D02*
X26190Y287692D01*
X25759Y287404D01*
X25471Y286973D01*
X25370Y286464D01*
X25471Y285956D01*
X25759Y285525D01*
X26190Y285236D01*
X26698Y285135D01*
X25399Y289181D02*
X28057Y289181D01*
X28057Y290480D01*
X30744Y290480D02*
X30642Y290988D01*
X30354Y291419D01*
X29923Y291707D01*
X29415Y291809D01*
X28906Y291707D01*
X28475Y291419D01*
X28187Y290988D01*
X28086Y290480D01*
X30714Y290480D02*
X30714Y289181D01*
X28057Y289181D01*
X30714Y293196D02*
X25399Y293196D01*
X25399Y295559D01*
X28057Y296917D02*
X28057Y299279D01*
X29651Y300637D02*
X30112Y300743D01*
X30482Y301038D01*
X30687Y301464D01*
X30687Y301937D01*
X30482Y302363D01*
X30112Y302658D01*
X29651Y302763D01*
X25399Y300637D01*
X25399Y302763D01*
X29651Y304122D02*
X30112Y304227D01*
X30482Y304522D01*
X30687Y304948D01*
X30687Y305421D01*
X30482Y305847D01*
X30112Y306142D01*
X29651Y306248D01*
X29651Y304122D02*
X26462Y304122D01*
X26462Y306248D02*
X26001Y306142D01*
X25631Y305847D01*
X25426Y305421D01*
X25426Y304948D01*
X25631Y304522D01*
X26001Y304227D01*
X26462Y304122D01*
X26462Y306248D02*
X27525Y306248D01*
X27525Y304122D02*
X27986Y304227D01*
X28356Y304522D01*
X28561Y304948D01*
X28561Y305421D01*
X28356Y305847D01*
X27986Y306142D01*
X27525Y306248D01*
X26462Y309732D02*
X26001Y309627D01*
X25631Y309332D01*
X25426Y308905D01*
X25426Y308432D01*
X25631Y308006D01*
X26001Y307711D01*
X26462Y307606D01*
X27230Y309732D02*
X26462Y309732D01*
X28293Y308669D02*
X28212Y309076D01*
X27981Y309420D01*
X27637Y309651D01*
X27230Y309732D01*
X28293Y308374D02*
X28293Y308669D01*
X28293Y308374D01*
X29415Y309732D02*
X28994Y309660D01*
X28634Y309433D01*
X28387Y309085D01*
X28293Y308669D01*
X29651Y309732D02*
X29415Y309732D01*
X29651Y307606D02*
X30112Y307711D01*
X30482Y308006D01*
X30687Y308432D01*
X30687Y308905D01*
X30482Y309332D01*
X30112Y309627D01*
X29651Y309732D01*
X29651Y313216D02*
X26462Y313216D01*
X29651Y311090D02*
X30112Y311195D01*
X30482Y311490D01*
X30687Y311917D01*
X30687Y312390D01*
X30482Y312816D01*
X30112Y313111D01*
X29651Y313216D01*
X26462Y311090D02*
X29651Y311090D01*
X26462Y313216D02*
X26001Y313111D01*
X25631Y312816D01*
X25426Y312390D01*
X25426Y311917D01*
X25631Y311490D01*
X26001Y311195D01*
X26462Y311090D01*
X38559Y21716D02*
X39020Y21821D01*
X39390Y22116D01*
X39595Y22542D01*
X39595Y23015D01*
X39390Y23441D01*
X39020Y23736D01*
X38559Y23842D01*
X34307Y21716D01*
X34307Y23842D01*
X38559Y25200D02*
X39020Y25305D01*
X39390Y25600D01*
X39595Y26026D01*
X39595Y26499D01*
X39390Y26926D01*
X39020Y27221D01*
X38559Y27326D01*
X34307Y25200D01*
X34307Y27326D01*
X38559Y30810D02*
X35370Y30810D01*
X38559Y28684D02*
X39020Y28789D01*
X39390Y29084D01*
X39595Y29511D01*
X39595Y29984D01*
X39390Y30410D01*
X39020Y30705D01*
X38559Y30810D01*
X35370Y28684D02*
X38559Y28684D01*
X35370Y30810D02*
X34909Y30705D01*
X34539Y30410D01*
X34333Y29984D01*
X34333Y29511D01*
X34539Y29084D01*
X34909Y28789D01*
X35370Y28684D01*
X26684Y22028D02*
X27145Y22133D01*
X27515Y22428D01*
X27720Y22855D01*
X27720Y23328D01*
X27515Y23754D01*
X27145Y24049D01*
X26684Y24154D01*
X22432Y22028D01*
X22432Y24154D01*
X26684Y25512D02*
X27145Y25618D01*
X27515Y25913D01*
X27720Y26339D01*
X27720Y26812D01*
X27515Y27238D01*
X27145Y27533D01*
X26684Y27638D01*
X22432Y25512D01*
X22432Y27638D01*
X26684Y31123D02*
X23495Y31123D01*
X26684Y28997D02*
X27145Y29102D01*
X27515Y29397D01*
X27720Y29823D01*
X27720Y30296D01*
X27515Y30722D01*
X27145Y31017D01*
X26684Y31123D01*
X23495Y28997D02*
X26684Y28997D01*
X23495Y31123D02*
X23034Y31017D01*
X22664Y30722D01*
X22458Y30296D01*
X22458Y29823D01*
X22664Y29397D01*
X23034Y29102D01*
X23495Y28997D01*
X14496Y22028D02*
X14957Y22133D01*
X15327Y22428D01*
X15533Y22855D01*
X15533Y23328D01*
X15327Y23754D01*
X14957Y24049D01*
X14496Y24154D01*
X10244Y22028D01*
X10244Y24154D01*
X14496Y25512D02*
X14957Y25618D01*
X15327Y25913D01*
X15533Y26339D01*
X15533Y26812D01*
X15327Y27238D01*
X14957Y27533D01*
X14496Y27638D01*
X10244Y25512D01*
X10244Y27638D01*
X14496Y31123D02*
X11307Y31123D01*
X14496Y28997D02*
X14957Y29102D01*
X15327Y29397D01*
X15533Y29823D01*
X15533Y30296D01*
X15327Y30722D01*
X14957Y31017D01*
X14496Y31123D01*
X11307Y28997D02*
X14496Y28997D01*
X11307Y31123D02*
X10846Y31017D01*
X10476Y30722D01*
X10271Y30296D01*
X10271Y29823D01*
X10476Y29397D01*
X10846Y29102D01*
X11307Y28997D01*
X267588Y104384D02*
X264931Y104384D01*
X266289Y104384D02*
X266289Y99069D01*
X263572Y102554D02*
X262509Y99069D01*
X261446Y102554D01*
X260383Y99069D01*
X259320Y102554D01*
X257962Y100900D02*
X255836Y100900D01*
X255836Y101432D01*
X257962Y101432D02*
X257857Y101893D01*
X257562Y102263D01*
X257136Y102468D01*
X256663Y102468D01*
X256236Y102263D01*
X255941Y101893D01*
X255836Y101432D01*
X257962Y101432D02*
X257962Y100132D01*
X255895Y99778D02*
X256162Y99364D01*
X256587Y99115D01*
X257078Y99084D01*
X257531Y99277D01*
X257848Y99653D01*
X257962Y100132D01*
X254478Y100900D02*
X252352Y100900D01*
X252352Y101432D01*
X254478Y101432D02*
X254373Y101893D01*
X254078Y102263D01*
X253651Y102468D01*
X253178Y102468D01*
X252752Y102263D01*
X252457Y101893D01*
X252352Y101432D01*
X254478Y101432D02*
X254478Y100132D01*
X252411Y99778D02*
X252678Y99364D01*
X253102Y99115D01*
X253594Y99084D01*
X254047Y99277D01*
X254364Y99653D01*
X254478Y100132D01*
X250994Y102554D02*
X249399Y102554D01*
X250226Y104384D02*
X250226Y99837D01*
X249399Y99069D02*
X249802Y99161D01*
X250104Y99442D01*
X250226Y99837D01*
X248041Y100900D02*
X245915Y100900D01*
X245915Y101432D01*
X248041Y101432D02*
X247936Y101893D01*
X247641Y102263D01*
X247214Y102468D01*
X246741Y102468D01*
X246315Y102263D01*
X246020Y101893D01*
X245915Y101432D01*
X248041Y101432D02*
X248041Y100132D01*
X245974Y99778D02*
X246241Y99364D01*
X246665Y99115D01*
X247157Y99084D01*
X247610Y99277D01*
X247927Y99653D01*
X248041Y100132D01*
X244557Y99069D02*
X244557Y102554D01*
X244557Y101727D02*
X244476Y102092D01*
X244238Y102381D01*
X243894Y102530D01*
X243521Y102507D01*
X243198Y102317D01*
X308233Y90108D02*
X308233Y88809D01*
X310920Y90108D02*
X310819Y90616D01*
X310531Y91047D01*
X310100Y91335D01*
X309591Y91437D01*
X309083Y91335D01*
X308651Y91047D01*
X308363Y90616D01*
X308262Y90108D01*
X310890Y88809D02*
X310890Y90108D01*
X305575Y88809D02*
X310890Y88809D01*
X305575Y90108D02*
X305575Y88809D01*
X308203Y90108D02*
X308102Y90616D01*
X307814Y91047D01*
X307383Y91335D01*
X306875Y91437D01*
X306366Y91335D01*
X305935Y91047D01*
X305647Y90616D01*
X305546Y90108D01*
X309591Y92795D02*
X310100Y92896D01*
X310531Y93184D01*
X310819Y93615D01*
X310920Y94124D01*
X310819Y94632D01*
X310531Y95063D01*
X310100Y95351D01*
X309591Y95452D01*
X309591Y92824D02*
X306875Y92824D01*
X306875Y95452D02*
X306366Y95351D01*
X305935Y95063D01*
X305647Y94632D01*
X305546Y94124D01*
X305647Y93615D01*
X305935Y93184D01*
X306366Y92896D01*
X306875Y92795D01*
X307406Y98966D02*
X306638Y98966D01*
X307406Y96840D02*
X307867Y96945D01*
X308237Y97240D01*
X308442Y97667D01*
X308442Y98140D01*
X308237Y98566D01*
X307867Y98861D01*
X307406Y98966D01*
X306638Y96840D02*
X307406Y96840D01*
X306638Y98966D02*
X306177Y98861D01*
X305807Y98566D01*
X305602Y98140D01*
X305602Y97667D01*
X305807Y97240D01*
X306177Y96945D01*
X306638Y96840D01*
X309827Y98966D02*
X309591Y98966D01*
X309827Y96840D02*
X310288Y96945D01*
X310658Y97240D01*
X310864Y97667D01*
X310864Y98140D01*
X310658Y98566D01*
X310288Y98861D01*
X309827Y98966D01*
X309591Y96840D02*
X309827Y96840D01*
X309591Y98966D02*
X309130Y98861D01*
X308760Y98566D01*
X308555Y98140D01*
X308555Y97667D01*
X308760Y97240D01*
X309130Y96945D01*
X309591Y96840D01*
X309827Y100324D02*
X310890Y101387D01*
X305575Y101387D01*
X310123Y102746D02*
X310890Y102746D01*
X310890Y104872D01*
X305575Y103277D01*
X306184Y133519D02*
X302168Y131925D01*
X302168Y134051D01*
X303231Y133519D02*
X300869Y133519D01*
X300869Y135409D02*
X300869Y135940D01*
X299806Y135468D01*
X305417Y137299D02*
X306184Y137299D01*
X306184Y139425D01*
X300869Y137830D01*
X300869Y140783D02*
X306184Y140783D01*
X302700Y140783D02*
X306184Y143440D01*
X304058Y141846D02*
X300869Y143440D01*
X191521Y248079D02*
X187506Y246485D01*
X187506Y248611D01*
X188569Y248079D02*
X186206Y248079D01*
X190754Y249969D02*
X191521Y249969D01*
X191521Y252095D01*
X186206Y250500D01*
X186206Y253453D02*
X189691Y253453D01*
X188569Y253453D02*
X189030Y253558D01*
X189400Y253853D01*
X189605Y254280D01*
X189605Y254753D01*
X189400Y255179D01*
X189030Y255474D01*
X188569Y255579D01*
X186206Y255579D01*
X191521Y259595D02*
X191521Y256937D01*
X188864Y256937D01*
X188864Y258768D01*
X188864Y256937D02*
X186206Y256937D01*
X219403Y262466D02*
X215387Y260872D01*
X215387Y262998D01*
X216450Y262466D02*
X214088Y262466D01*
X218635Y264356D02*
X219403Y264356D01*
X219403Y266482D01*
X214088Y264887D01*
X214088Y267840D02*
X217572Y267840D01*
X216450Y267840D02*
X216911Y267945D01*
X217281Y268240D01*
X217486Y268667D01*
X217486Y269140D01*
X217281Y269566D01*
X216911Y269861D01*
X216450Y269966D01*
X214088Y269966D01*
X219403Y273982D02*
X219403Y271324D01*
X216745Y271324D01*
X216745Y273155D01*
X216745Y271324D02*
X214088Y271324D01*
X204590Y250419D02*
X205653Y251482D01*
X200338Y251482D01*
X204590Y254966D02*
X201401Y254966D01*
X204590Y252840D02*
X205051Y252945D01*
X205421Y253240D01*
X205626Y253667D01*
X205626Y254140D01*
X205421Y254566D01*
X205051Y254861D01*
X204590Y254966D01*
X201401Y252840D02*
X204590Y252840D01*
X201401Y254966D02*
X200940Y254861D01*
X200570Y254566D01*
X200364Y254140D01*
X200364Y253667D01*
X200570Y253240D01*
X200940Y252945D01*
X201401Y252840D01*
X204590Y258450D02*
X201401Y258450D01*
X204590Y256324D02*
X205051Y256430D01*
X205421Y256725D01*
X205626Y257151D01*
X205626Y257624D01*
X205421Y258050D01*
X205051Y258345D01*
X204590Y258450D01*
X201401Y256324D02*
X204590Y256324D01*
X201401Y258450D02*
X200940Y258345D01*
X200570Y258050D01*
X200364Y257624D01*
X200364Y257151D01*
X200570Y256725D01*
X200940Y256430D01*
X201401Y256324D01*
X200338Y259809D02*
X205653Y259809D01*
X202168Y259809D02*
X205653Y262466D01*
X203527Y260872D02*
X200338Y262466D01*
X234590Y250419D02*
X235653Y251482D01*
X230338Y251482D01*
X234590Y254966D02*
X231401Y254966D01*
X234590Y252840D02*
X235051Y252945D01*
X235421Y253240D01*
X235626Y253667D01*
X235626Y254140D01*
X235421Y254566D01*
X235051Y254861D01*
X234590Y254966D01*
X231401Y252840D02*
X234590Y252840D01*
X231401Y254966D02*
X230940Y254861D01*
X230570Y254566D01*
X230364Y254140D01*
X230364Y253667D01*
X230570Y253240D01*
X230940Y252945D01*
X231401Y252840D01*
X234590Y258450D02*
X231401Y258450D01*
X234590Y256324D02*
X235051Y256430D01*
X235421Y256725D01*
X235626Y257151D01*
X235626Y257624D01*
X235421Y258050D01*
X235051Y258345D01*
X234590Y258450D01*
X231401Y256324D02*
X234590Y256324D01*
X231401Y258450D02*
X230940Y258345D01*
X230570Y258050D01*
X230364Y257624D01*
X230364Y257151D01*
X230570Y256725D01*
X230940Y256430D01*
X231401Y256324D01*
X230338Y259809D02*
X235653Y259809D01*
X232168Y259809D02*
X235653Y262466D01*
X233527Y260872D02*
X230338Y262466D01*
X112416Y190979D02*
X112416Y188321D01*
X109758Y188321D01*
X109758Y190152D01*
X109758Y188321D02*
X107101Y188321D01*
X107101Y190979D01*
X107101Y192337D02*
X110585Y192337D01*
X109463Y192337D02*
X109924Y192442D01*
X110294Y192737D01*
X110499Y193164D01*
X110499Y193637D01*
X110294Y194063D01*
X109924Y194358D01*
X109463Y194463D01*
X107101Y194463D01*
X109463Y195821D02*
X109924Y195927D01*
X110294Y196222D01*
X110499Y196648D01*
X110499Y197121D01*
X110294Y197547D01*
X109924Y197842D01*
X109463Y197947D01*
X109463Y195821D02*
X108164Y195821D01*
X108164Y197947D02*
X107703Y197842D01*
X107333Y197547D01*
X107128Y197121D01*
X107128Y196648D01*
X107333Y196222D01*
X107703Y195927D01*
X108164Y195821D01*
X109463Y201432D02*
X108164Y201432D01*
X109463Y199306D02*
X109924Y199411D01*
X110294Y199706D01*
X110499Y200132D01*
X110499Y200605D01*
X110294Y201031D01*
X109924Y201326D01*
X109463Y201432D01*
X108164Y199306D02*
X109463Y199306D01*
X108164Y201432D02*
X107703Y201326D01*
X107333Y201031D01*
X107128Y200605D01*
X107128Y200132D01*
X107333Y199706D01*
X107703Y199411D01*
X108164Y199306D01*
X112416Y204916D02*
X107101Y204916D01*
X109463Y202790D02*
X109924Y202895D01*
X110294Y203190D01*
X110499Y203616D01*
X110499Y204089D01*
X110294Y204516D01*
X109924Y204811D01*
X109463Y204916D01*
X109463Y202790D02*
X108164Y202790D01*
X108164Y204916D02*
X107703Y204811D01*
X107333Y204516D01*
X107128Y204089D01*
X107128Y203616D01*
X107333Y203190D01*
X107703Y202895D01*
X108164Y202790D01*
X108932Y206274D02*
X108932Y208400D01*
X109463Y208400D01*
X109463Y206274D02*
X109924Y206379D01*
X110294Y206674D01*
X110499Y207101D01*
X110499Y207574D01*
X110294Y208000D01*
X109924Y208295D01*
X109463Y208400D01*
X109463Y206274D02*
X108164Y206274D01*
X107810Y208341D02*
X107396Y208074D01*
X107147Y207650D01*
X107115Y207158D01*
X107308Y206705D01*
X107685Y206388D01*
X108164Y206274D01*
X107101Y209758D02*
X110585Y209758D01*
X109758Y209758D02*
X110124Y209839D01*
X110413Y210077D01*
X110562Y210421D01*
X110539Y210794D01*
X110349Y211117D01*
X224350Y68725D02*
X222519Y74040D01*
X220629Y68725D01*
X223818Y70319D02*
X221161Y70319D01*
X216909Y74040D02*
X219271Y68725D01*
X214251Y71382D02*
X215551Y71382D01*
X214251Y74069D02*
X213743Y73968D01*
X213312Y73680D01*
X213024Y73249D01*
X212923Y72741D01*
X213024Y72232D01*
X213312Y71801D01*
X213743Y71513D01*
X214251Y71412D01*
X215551Y74040D02*
X214251Y74040D01*
X215551Y68725D02*
X215551Y74040D01*
X214251Y68725D02*
X215551Y68725D01*
X214251Y71353D02*
X213743Y71252D01*
X213312Y70964D01*
X213024Y70533D01*
X212923Y70024D01*
X213024Y69516D01*
X213312Y69085D01*
X213743Y68797D01*
X214251Y68695D01*
X209173Y74040D02*
X211535Y68725D01*
X207814Y74040D02*
X205157Y74040D01*
X207814Y68725D01*
X205157Y68725D01*
X201259Y71382D02*
X198602Y71382D01*
X199960Y72741D02*
X199960Y70024D01*
X193405Y71382D02*
X193969Y71505D01*
X194432Y71851D01*
X194708Y72358D01*
X194749Y72934D01*
X194548Y73475D01*
X194139Y73883D01*
X193598Y74085D01*
X193022Y74044D01*
X192516Y73767D01*
X192169Y73305D01*
X192047Y72741D01*
X193405Y71382D02*
X192851Y71274D01*
X192391Y70946D01*
X192109Y70456D01*
X192057Y69894D01*
X192242Y69361D01*
X192633Y68952D01*
X193157Y68743D01*
X193722Y68771D01*
X194223Y69031D01*
X194572Y69475D01*
X194704Y70024D01*
X190688Y72209D02*
X189625Y68725D01*
X188562Y72209D01*
X187500Y68725D01*
X186437Y72209D01*
X185078Y68725D02*
X185078Y72445D01*
X185078Y73508D02*
X185078Y74040D01*
X183720Y72209D02*
X182125Y72209D01*
X182952Y74040D02*
X182952Y69493D01*
X182125Y68725D02*
X182528Y68817D01*
X182831Y69098D01*
X182952Y69493D01*
X180767Y71087D02*
X180662Y71548D01*
X180367Y71918D01*
X179941Y72123D01*
X179468Y72123D01*
X179041Y71918D01*
X178747Y71548D01*
X178641Y71087D01*
X180767Y71087D02*
X180767Y69788D01*
X178641Y69788D02*
X178747Y69327D01*
X179041Y68957D01*
X179468Y68752D01*
X179941Y68752D01*
X180367Y68957D01*
X180662Y69327D01*
X180767Y69788D01*
X177283Y68725D02*
X177283Y74040D01*
X177283Y71087D02*
X177178Y71548D01*
X176883Y71918D01*
X176457Y72123D01*
X175983Y72123D01*
X175557Y71918D01*
X175262Y71548D01*
X175157Y71087D01*
X175157Y68725D01*
X194833Y202735D02*
X195896Y203798D01*
X190581Y203798D01*
X194833Y207282D02*
X191644Y207282D01*
X194833Y205156D02*
X195295Y205261D01*
X195665Y205556D01*
X195870Y205982D01*
X195870Y206455D01*
X195665Y206882D01*
X195295Y207177D01*
X194833Y207282D01*
X191644Y205156D02*
X194833Y205156D01*
X191644Y207282D02*
X191183Y207177D01*
X190813Y206882D01*
X190608Y206455D01*
X190608Y205982D01*
X190813Y205556D01*
X191183Y205261D01*
X191644Y205156D01*
X190581Y208640D02*
X195896Y208640D01*
X192412Y208640D02*
X195896Y211298D01*
X193770Y209703D02*
X190581Y211298D01*
X205458Y202735D02*
X206521Y203798D01*
X201206Y203798D01*
X205458Y207282D02*
X202269Y207282D01*
X205458Y205156D02*
X205920Y205261D01*
X206290Y205556D01*
X206495Y205982D01*
X206495Y206455D01*
X206290Y206882D01*
X205920Y207177D01*
X205458Y207282D01*
X202269Y205156D02*
X205458Y205156D01*
X202269Y207282D02*
X201808Y207177D01*
X201438Y206882D01*
X201233Y206455D01*
X201233Y205982D01*
X201438Y205556D01*
X201808Y205261D01*
X202269Y205156D01*
X201206Y208640D02*
X206521Y208640D01*
X203037Y208640D02*
X206521Y211298D01*
X204395Y209703D02*
X201206Y211298D01*
X216083Y202735D02*
X217146Y203798D01*
X211831Y203798D01*
X216083Y207282D02*
X212894Y207282D01*
X216083Y205156D02*
X216545Y205261D01*
X216915Y205556D01*
X217120Y205982D01*
X217120Y206455D01*
X216915Y206882D01*
X216545Y207177D01*
X216083Y207282D01*
X212894Y205156D02*
X216083Y205156D01*
X212894Y207282D02*
X212433Y207177D01*
X212063Y206882D01*
X211858Y206455D01*
X211858Y205982D01*
X212063Y205556D01*
X212433Y205261D01*
X212894Y205156D01*
X211831Y208640D02*
X217146Y208640D01*
X213662Y208640D02*
X217146Y211298D01*
X215020Y209703D02*
X211831Y211298D01*
X136274Y190757D02*
X135768Y190645D01*
X135343Y190347D01*
X135065Y189910D01*
X134975Y189399D01*
X134975Y188100D01*
X140290Y188100D01*
X140290Y189399D01*
X140200Y189910D01*
X139922Y190347D01*
X139497Y190645D01*
X138991Y190757D01*
X136274Y190757D01*
X134975Y192116D02*
X138695Y192116D01*
X139758Y192116D02*
X140290Y192116D01*
X139522Y194242D02*
X139917Y194363D01*
X140198Y194666D01*
X140290Y195068D01*
X139522Y194242D02*
X138459Y194242D01*
X134975Y194242D01*
X138459Y193474D02*
X138459Y195068D01*
X139522Y197194D02*
X139917Y197316D01*
X140198Y197618D01*
X140290Y198021D01*
X139522Y197194D02*
X138459Y197194D01*
X134975Y197194D01*
X138459Y196427D02*
X138459Y198021D01*
X135506Y199379D02*
X134975Y199379D01*
X136274Y205905D02*
X135766Y205804D01*
X135335Y205516D01*
X135047Y205085D01*
X134945Y204576D01*
X135047Y204068D01*
X135335Y203637D01*
X135766Y203349D01*
X136274Y203248D01*
X136274Y205935D02*
X138991Y205935D01*
X138991Y203248D02*
X139499Y203349D01*
X139930Y203637D01*
X140218Y204068D01*
X140319Y204576D01*
X140218Y205085D01*
X139930Y205516D01*
X139499Y205804D01*
X138991Y205905D01*
X138991Y203277D02*
X136274Y203277D01*
X134975Y207293D02*
X140290Y207293D01*
X134975Y209950D01*
X140290Y209950D01*
X50132Y197101D02*
X49693Y197006D01*
X49332Y196738D01*
X49114Y196346D01*
X49077Y195898D01*
X49229Y195475D01*
X49542Y195152D01*
X50132Y197101D02*
X51195Y197101D01*
X51195Y194975D02*
X51657Y195080D01*
X52026Y195375D01*
X52232Y195801D01*
X52232Y196274D01*
X52026Y196701D01*
X51657Y196996D01*
X51195Y197101D01*
X51195Y194975D02*
X54384Y194975D01*
X54384Y197101D01*
X54384Y198459D02*
X49069Y199758D01*
X54384Y201117D01*
X221692Y63415D02*
X224350Y63415D01*
X224350Y60757D01*
X222519Y60757D01*
X224350Y60757D02*
X224350Y58100D01*
X218208Y60462D02*
X218208Y59163D01*
X220334Y60462D02*
X220229Y60923D01*
X219934Y61293D01*
X219508Y61498D01*
X219035Y61498D01*
X218608Y61293D01*
X218313Y60923D01*
X218208Y60462D01*
X220334Y59163D02*
X220334Y60462D01*
X218208Y59163D02*
X218313Y58702D01*
X218608Y58332D01*
X219035Y58127D01*
X219508Y58127D01*
X219934Y58332D01*
X220229Y58702D01*
X220334Y59163D01*
X216850Y58100D02*
X216850Y61584D01*
X216850Y60757D02*
X216769Y61123D01*
X216531Y61412D01*
X216188Y61561D01*
X215814Y61538D01*
X215492Y61348D01*
X211594Y58100D02*
X209763Y63415D01*
X207874Y58100D01*
X211062Y59694D02*
X208405Y59694D01*
X204153Y63415D02*
X206515Y58100D01*
X201496Y60757D02*
X202795Y60757D01*
X201496Y63444D02*
X200987Y63343D01*
X200556Y63055D01*
X200268Y62624D01*
X200167Y62116D01*
X200268Y61607D01*
X200556Y61176D01*
X200987Y60888D01*
X201496Y60787D01*
X202795Y63415D02*
X201496Y63415D01*
X202795Y58100D02*
X202795Y63415D01*
X201496Y58100D02*
X202795Y58100D01*
X201496Y60728D02*
X200987Y60627D01*
X200556Y60339D01*
X200268Y59908D01*
X200167Y59399D01*
X200268Y58891D01*
X200556Y58460D01*
X200987Y58172D01*
X201496Y58070D01*
X196417Y63415D02*
X198779Y58100D01*
X195059Y63415D02*
X192401Y63415D01*
X195059Y58100D01*
X192401Y58100D01*
X186377Y63415D02*
X186377Y58100D01*
X188503Y60462D02*
X188398Y60923D01*
X188103Y61293D01*
X187677Y61498D01*
X187204Y61498D01*
X186778Y61293D01*
X186483Y60923D01*
X186377Y60462D01*
X188503Y60462D02*
X188503Y59163D01*
X186377Y59163D02*
X186483Y58702D01*
X186778Y58332D01*
X187204Y58127D01*
X187677Y58127D01*
X188103Y58332D01*
X188398Y58702D01*
X188503Y59163D01*
X185019Y58100D02*
X185019Y61820D01*
X185019Y62883D02*
X185019Y63415D01*
X182893Y58100D02*
X183277Y58203D01*
X183558Y58484D01*
X183661Y58868D01*
X182893Y58100D02*
X182362Y58100D01*
X181535Y58868D02*
X181656Y58473D01*
X181959Y58192D01*
X182362Y58100D01*
X181535Y58868D02*
X181535Y59163D01*
X182362Y59931D02*
X181959Y59839D01*
X181656Y59558D01*
X181535Y59163D01*
X182362Y59931D02*
X182893Y59931D01*
X183307Y60041D01*
X183609Y60344D01*
X183720Y60757D01*
X183609Y61171D01*
X183307Y61473D01*
X182893Y61584D01*
X182362Y61584D01*
X181948Y61473D01*
X181646Y61171D01*
X181535Y60757D01*
X180177Y60462D02*
X180071Y60923D01*
X179776Y61293D01*
X179350Y61498D01*
X178877Y61498D01*
X178451Y61293D01*
X178156Y60923D01*
X178051Y60462D01*
X178172Y60067D01*
X178475Y59786D01*
X178877Y59694D01*
X179409Y59694D01*
X179409Y58070D02*
X179808Y58177D01*
X180099Y58469D01*
X180206Y58868D01*
X180099Y59266D01*
X179808Y59558D01*
X179409Y59665D01*
X179409Y58100D02*
X178877Y58100D01*
X178051Y58868D02*
X178172Y58473D01*
X178475Y58192D01*
X178877Y58100D01*
X178051Y60462D02*
X178051Y58631D01*
X177519Y58100D01*
X176161Y58100D02*
X176161Y63415D01*
X174035Y59163D02*
X174140Y58702D01*
X174435Y58332D01*
X174861Y58127D01*
X175334Y58127D01*
X175761Y58332D01*
X176056Y58702D01*
X176161Y59163D01*
X174035Y60462D02*
X174035Y59163D01*
X176161Y60462D02*
X176056Y60923D01*
X175761Y61293D01*
X175334Y61498D01*
X174861Y61498D01*
X174435Y61293D01*
X174140Y60923D01*
X174035Y60462D01*
X172677Y63415D02*
X172677Y58868D01*
X171909Y58100D02*
X172293Y58203D01*
X172574Y58484D01*
X172677Y58868D01*
X170551Y59931D02*
X168425Y59931D01*
X168425Y60462D01*
X170551Y60462D02*
X170445Y60923D01*
X170150Y61293D01*
X169724Y61498D01*
X169251Y61498D01*
X168825Y61293D01*
X168530Y60923D01*
X168425Y60462D01*
X170551Y60462D02*
X170551Y59163D01*
X168484Y58809D02*
X168751Y58395D01*
X169175Y58146D01*
X169667Y58114D01*
X170119Y58307D01*
X170437Y58684D01*
X170551Y59163D01*
X162401Y63415D02*
X162401Y58100D01*
X164527Y60462D02*
X164422Y60923D01*
X164127Y61293D01*
X163701Y61498D01*
X163228Y61498D01*
X162801Y61293D01*
X162506Y60923D01*
X162401Y60462D01*
X164527Y60462D02*
X164527Y59163D01*
X162401Y59163D02*
X162506Y58702D01*
X162801Y58332D01*
X163228Y58127D01*
X163701Y58127D01*
X164127Y58332D01*
X164422Y58702D01*
X164527Y59163D01*
X161043Y58100D02*
X161043Y61820D01*
X161043Y62883D02*
X161043Y63415D01*
X158917Y62647D02*
X158795Y63042D01*
X158493Y63323D01*
X158090Y63415D01*
X158917Y62647D02*
X158917Y61584D01*
X158917Y58100D01*
X159685Y61584D02*
X158090Y61584D01*
X155964Y62647D02*
X155843Y63042D01*
X155540Y63323D01*
X155137Y63415D01*
X155964Y62647D02*
X155964Y61584D01*
X155964Y58100D01*
X156732Y61584D02*
X155137Y61584D01*
X153779Y58631D02*
X153779Y58100D01*
X221850Y192475D02*
X221850Y195132D01*
X220551Y195132D01*
X220551Y197819D02*
X220042Y197718D01*
X219611Y197430D01*
X219323Y196999D01*
X219222Y196491D01*
X219323Y195982D01*
X219611Y195551D01*
X220042Y195263D01*
X220551Y195162D01*
X220551Y197790D02*
X221850Y197790D01*
X221850Y195132D01*
X217834Y195959D02*
X217834Y193538D01*
X215708Y193538D02*
X215813Y193077D01*
X216108Y192707D01*
X216535Y192502D01*
X217008Y192502D01*
X217434Y192707D01*
X217729Y193077D01*
X217834Y193538D01*
X215708Y195959D02*
X215708Y192475D01*
X214350Y197790D02*
X214350Y193243D01*
X213582Y192475D02*
X213966Y192578D01*
X214247Y192859D01*
X214350Y193243D01*
X212224Y197790D02*
X212224Y193243D01*
X211456Y192475D02*
X211840Y192578D01*
X212121Y192859D01*
X212224Y193243D01*
X210098Y195959D02*
X210098Y193538D01*
X207972Y193538D02*
X208077Y193077D01*
X208372Y192707D01*
X208798Y192502D01*
X209271Y192502D01*
X209698Y192707D01*
X209993Y193077D01*
X210098Y193538D01*
X207972Y195959D02*
X207972Y192475D01*
X206614Y190880D02*
X206614Y195959D01*
X204488Y193538D02*
X204593Y193077D01*
X204888Y192707D01*
X205314Y192502D01*
X205787Y192502D01*
X206213Y192707D01*
X206508Y193077D01*
X206614Y193538D01*
X204488Y194837D02*
X204488Y193538D01*
X206614Y194837D02*
X206508Y195298D01*
X206213Y195668D01*
X205787Y195873D01*
X205314Y195873D01*
X204888Y195668D01*
X204593Y195298D01*
X204488Y194837D01*
X200590Y192475D02*
X200590Y196195D01*
X200590Y197258D02*
X200590Y197790D01*
X199232Y192475D02*
X199232Y195959D01*
X199232Y194837D02*
X199127Y195298D01*
X198832Y195668D01*
X198405Y195873D01*
X197932Y195873D01*
X197506Y195668D01*
X197211Y195298D01*
X197106Y194837D01*
X197106Y192475D01*
X195748Y190880D02*
X195748Y195959D01*
X193622Y193538D02*
X193727Y193077D01*
X194022Y192707D01*
X194448Y192502D01*
X194921Y192502D01*
X195347Y192707D01*
X195642Y193077D01*
X195748Y193538D01*
X193622Y194837D02*
X193622Y193538D01*
X195748Y194837D02*
X195642Y195298D01*
X195347Y195668D01*
X194921Y195873D01*
X194448Y195873D01*
X194022Y195668D01*
X193727Y195298D01*
X193622Y194837D01*
X192263Y195959D02*
X192263Y193538D01*
X190137Y193538D02*
X190243Y193077D01*
X190538Y192707D01*
X190964Y192502D01*
X191437Y192502D01*
X191863Y192707D01*
X192158Y193077D01*
X192263Y193538D01*
X190137Y195959D02*
X190137Y192475D01*
X188779Y195959D02*
X187185Y195959D01*
X188011Y197790D02*
X188011Y193243D01*
X187185Y192475D02*
X187587Y192567D01*
X187890Y192848D01*
X188011Y193243D01*
X82632Y165226D02*
X82193Y165131D01*
X81832Y164863D01*
X81614Y164471D01*
X81577Y164023D01*
X81729Y163600D01*
X82042Y163277D01*
X82632Y165226D02*
X83695Y165226D01*
X83695Y163100D02*
X84157Y163205D01*
X84526Y163500D01*
X84732Y163926D01*
X84732Y164399D01*
X84526Y164826D01*
X84157Y165121D01*
X83695Y165226D01*
X83695Y163100D02*
X86884Y163100D01*
X86884Y165226D01*
X86884Y166584D02*
X81569Y167883D01*
X86884Y169242D01*
X100585Y162273D02*
X101094Y162374D01*
X101525Y162662D01*
X101813Y163093D01*
X101914Y163602D01*
X101813Y164110D01*
X101525Y164541D01*
X101094Y164829D01*
X100585Y164931D01*
X100585Y162303D02*
X97869Y162303D01*
X97869Y164931D02*
X97360Y164829D01*
X96929Y164541D01*
X96641Y164110D01*
X96540Y163602D01*
X96641Y163093D01*
X96929Y162662D01*
X97360Y162374D01*
X97869Y162273D01*
X97869Y164960D02*
X99227Y164960D01*
X99227Y163602D01*
X96569Y166318D02*
X101884Y166318D01*
X96569Y168976D01*
X101884Y168976D01*
X97869Y172992D02*
X97362Y172879D01*
X96938Y172582D01*
X96659Y172144D01*
X96569Y171633D01*
X96569Y170334D01*
X101884Y170334D01*
X101884Y171633D01*
X101795Y172144D01*
X101516Y172582D01*
X101091Y172879D01*
X100585Y172992D01*
X97869Y172992D01*
X49350Y54975D02*
X49350Y60290D01*
X48051Y60290D01*
X48051Y60319D02*
X47542Y60218D01*
X47111Y59930D01*
X46823Y59499D01*
X46722Y58991D01*
X46823Y58482D01*
X47111Y58051D01*
X47542Y57763D01*
X48051Y57662D01*
X48051Y57632D02*
X49350Y57632D01*
X48051Y57632D02*
X46692Y54975D01*
X40669Y57337D02*
X40669Y56038D01*
X42795Y57337D02*
X42690Y57798D01*
X42395Y58168D01*
X41968Y58373D01*
X41495Y58373D01*
X41069Y58168D01*
X40774Y57798D01*
X40669Y57337D01*
X42795Y56038D02*
X42795Y57337D01*
X40669Y56038D02*
X40774Y55577D01*
X41069Y55207D01*
X41495Y55002D01*
X41968Y55002D01*
X42395Y55207D01*
X42690Y55577D01*
X42795Y56038D01*
X39311Y58459D02*
X39311Y56038D01*
X37185Y56038D02*
X37290Y55577D01*
X37585Y55207D01*
X38011Y55002D01*
X38484Y55002D01*
X38910Y55207D01*
X39205Y55577D01*
X39311Y56038D01*
X37185Y58459D02*
X37185Y54975D01*
X35826Y58459D02*
X34232Y58459D01*
X35059Y60290D02*
X35059Y55743D01*
X34232Y54975D02*
X34634Y55067D01*
X34937Y55348D01*
X35059Y55743D01*
X32874Y53380D02*
X32874Y58459D01*
X30748Y56038D02*
X30853Y55577D01*
X31148Y55207D01*
X31574Y55002D01*
X32047Y55002D01*
X32473Y55207D01*
X32768Y55577D01*
X32874Y56038D01*
X30748Y57337D02*
X30748Y56038D01*
X32874Y57337D02*
X32768Y57798D01*
X32473Y58168D01*
X32047Y58373D01*
X31574Y58373D01*
X31148Y58168D01*
X30853Y57798D01*
X30748Y57337D01*
X29389Y58459D02*
X29389Y56038D01*
X27263Y56038D02*
X27369Y55577D01*
X27664Y55207D01*
X28090Y55002D01*
X28563Y55002D01*
X28989Y55207D01*
X29284Y55577D01*
X29389Y56038D01*
X27263Y58459D02*
X27263Y54975D01*
X25905Y58459D02*
X24311Y58459D01*
X25137Y60290D02*
X25137Y55743D01*
X24311Y54975D02*
X24713Y55067D01*
X25016Y55348D01*
X25137Y55743D01*
X20413Y60290D02*
X20413Y54975D01*
X18051Y54975D01*
X14035Y60290D02*
X16692Y60290D01*
X16692Y57632D01*
X14862Y57632D01*
X16692Y57632D02*
X16692Y54975D01*
X14035Y54975D01*
X10019Y56274D02*
X10132Y55768D01*
X10429Y55343D01*
X10867Y55065D01*
X11377Y54975D01*
X12677Y54975D01*
X12677Y60290D01*
X11377Y60290D01*
X10867Y60200D01*
X10429Y59922D01*
X10132Y59497D01*
X10019Y58991D01*
X10019Y56274D01*
X7893Y54975D02*
X8277Y55078D01*
X8558Y55359D01*
X8661Y55743D01*
X7893Y54975D02*
X7362Y54975D01*
X6535Y55743D02*
X6656Y55348D01*
X6959Y55067D01*
X7362Y54975D01*
X6535Y55743D02*
X6535Y56038D01*
X7362Y56806D02*
X6959Y56714D01*
X6656Y56433D01*
X6535Y56038D01*
X7362Y56806D02*
X7893Y56806D01*
X8307Y56916D01*
X8609Y57219D01*
X8720Y57632D01*
X8609Y58046D01*
X8307Y58348D01*
X7893Y58459D01*
X7362Y58459D01*
X6948Y58348D01*
X6646Y58046D01*
X6535Y57632D01*
X299552Y198085D02*
X299451Y198594D01*
X299162Y199025D01*
X298731Y199313D01*
X298223Y199414D01*
X297714Y199313D01*
X297283Y199025D01*
X296995Y198594D01*
X296894Y198085D01*
X299522Y198085D02*
X299522Y195369D01*
X296894Y195369D02*
X296995Y194860D01*
X297283Y194429D01*
X297714Y194141D01*
X298223Y194040D01*
X298731Y194141D01*
X299162Y194429D01*
X299451Y194860D01*
X299552Y195369D01*
X296865Y195369D02*
X296865Y196727D01*
X298223Y196727D01*
X295506Y194069D02*
X295506Y199384D01*
X292849Y194069D01*
X292849Y199384D01*
X288833Y195369D02*
X288946Y194862D01*
X289243Y194438D01*
X289681Y194159D01*
X290191Y194069D01*
X291491Y194069D01*
X291491Y199384D01*
X290191Y199384D01*
X289681Y199295D01*
X289243Y199016D01*
X288946Y198591D01*
X288833Y198085D01*
X288833Y195369D01*
G54D12*
X83350Y364350D02*
X85850Y361850D01*
X90850Y361850D01*
X93350Y364350D01*
X93350Y369350D01*
X90850Y371850D01*
X85850Y371850D01*
X83350Y369350D01*
X65850Y361850D02*
X70850Y361850D01*
X73350Y364350D01*
X73350Y369350D01*
X70850Y371850D01*
X73350Y364350D02*
X75850Y361850D01*
X80850Y361850D01*
X83350Y364350D01*
X83350Y369350D01*
X80850Y371850D01*
X75850Y371850D01*
X73350Y369350D01*
X53350Y364350D02*
X55850Y361850D01*
X60850Y361850D01*
X63350Y364350D01*
X63350Y369350D01*
X60850Y371850D01*
X55850Y371850D01*
X53350Y369350D01*
X65850Y361850D02*
X63350Y364350D01*
X63350Y369350D02*
X65850Y371850D01*
X70850Y371850D02*
X65850Y371850D01*
X35850Y361850D02*
X40850Y361850D01*
X43350Y364350D01*
X43350Y369350D01*
X40850Y371850D01*
X43350Y364350D02*
X45850Y361850D01*
X50850Y361850D01*
X53350Y364350D01*
X53350Y369350D01*
X50850Y371850D01*
X45850Y371850D01*
X43350Y369350D01*
X23350Y364350D02*
X25850Y361850D01*
X30850Y361850D01*
X33350Y364350D01*
X33350Y369350D01*
X30850Y371850D01*
X25850Y371850D01*
X23350Y369350D01*
X35850Y361850D02*
X33350Y364350D01*
X33350Y369350D02*
X35850Y371850D01*
X40850Y371850D02*
X35850Y371850D01*
X5850Y361850D02*
X10850Y361850D01*
X13350Y364350D01*
X13350Y369350D01*
X10850Y371850D01*
X13350Y364350D02*
X15850Y361850D01*
X20850Y361850D01*
X23350Y364350D01*
X23350Y369350D01*
X20850Y371850D01*
X15850Y371850D01*
X13350Y369350D01*
X3350Y364350D02*
X3350Y371850D01*
X5850Y361850D02*
X3350Y364350D01*
X10850Y371850D02*
X3350Y371850D01*
X95850Y361850D02*
X100850Y361850D01*
X103350Y364350D01*
X103350Y369350D01*
X100850Y371850D01*
X95850Y361850D02*
X93350Y364350D01*
X93350Y369350D02*
X95850Y371850D01*
X100850Y371850D02*
X95850Y371850D01*
X299350Y369350D02*
X299350Y364350D01*
X301850Y361850D01*
X306850Y361850D02*
X309350Y364350D01*
X301850Y371850D02*
X309350Y371850D01*
X299350Y369350D02*
X301850Y371850D01*
X309350Y364350D02*
X309350Y371850D01*
X299350Y219350D02*
X299350Y214350D01*
X301850Y211850D01*
X306850Y211850D01*
X309350Y214350D01*
X301850Y211850D02*
X299350Y209350D01*
X299350Y204350D01*
X301850Y201850D01*
X306850Y201850D01*
X309350Y204350D01*
X309350Y209350D01*
X306850Y211850D01*
X301850Y231850D02*
X299350Y229350D01*
X299350Y224350D01*
X301850Y221850D01*
X306850Y221850D01*
X309350Y224350D01*
X309350Y229350D01*
X306850Y231850D01*
X299350Y219350D02*
X301850Y221850D01*
X306850Y221850D02*
X309350Y219350D01*
X309350Y214350D02*
X309350Y219350D01*
X299350Y249350D02*
X299350Y244350D01*
X301850Y241850D01*
X306850Y241850D01*
X309350Y244350D01*
X301850Y241850D02*
X299350Y239350D01*
X299350Y234350D01*
X301850Y231850D01*
X306850Y231850D01*
X309350Y234350D01*
X309350Y239350D01*
X306850Y241850D01*
X301850Y261850D02*
X299350Y259350D01*
X299350Y254350D01*
X301850Y251850D01*
X306850Y251850D01*
X309350Y254350D01*
X309350Y259350D01*
X306850Y261850D01*
X299350Y249350D02*
X301850Y251850D01*
X306850Y251850D02*
X309350Y249350D01*
X309350Y244350D02*
X309350Y249350D01*
X299350Y279350D02*
X299350Y274350D01*
X301850Y271850D01*
X306850Y271850D01*
X309350Y274350D01*
X301850Y271850D02*
X299350Y269350D01*
X299350Y264350D01*
X301850Y261850D01*
X306850Y261850D01*
X309350Y264350D01*
X309350Y269350D01*
X306850Y271850D01*
X301850Y291850D02*
X299350Y289350D01*
X299350Y284350D01*
X301850Y281850D01*
X306850Y281850D01*
X309350Y284350D01*
X309350Y289350D01*
X306850Y291850D01*
X299350Y279350D02*
X301850Y281850D01*
X306850Y281850D02*
X309350Y279350D01*
X309350Y274350D02*
X309350Y279350D01*
X299350Y309350D02*
X299350Y304350D01*
X301850Y301850D01*
X306850Y301850D01*
X309350Y304350D01*
X301850Y301850D02*
X299350Y299350D01*
X299350Y294350D01*
X301850Y291850D01*
X306850Y291850D01*
X309350Y294350D01*
X309350Y299350D01*
X306850Y301850D01*
X301850Y321850D02*
X299350Y319350D01*
X299350Y314350D01*
X301850Y311850D01*
X306850Y311850D01*
X309350Y314350D01*
X309350Y319350D01*
X306850Y321850D01*
X299350Y309350D02*
X301850Y311850D01*
X306850Y311850D02*
X309350Y309350D01*
X309350Y304350D02*
X309350Y309350D01*
X299350Y339350D02*
X299350Y334350D01*
X301850Y331850D01*
X306850Y331850D01*
X309350Y334350D01*
X301850Y331850D02*
X299350Y329350D01*
X299350Y324350D01*
X301850Y321850D01*
X306850Y321850D01*
X309350Y324350D01*
X309350Y329350D01*
X306850Y331850D01*
X301850Y351850D02*
X299350Y349350D01*
X299350Y344350D01*
X301850Y341850D01*
X306850Y341850D01*
X309350Y344350D01*
X309350Y349350D01*
X306850Y351850D01*
X299350Y339350D02*
X301850Y341850D01*
X306850Y341850D02*
X309350Y339350D01*
X309350Y334350D02*
X309350Y339350D01*
X301850Y361850D02*
X306850Y361850D01*
X301850Y361850D02*
X299350Y359350D01*
X299350Y354350D01*
X301850Y351850D01*
X306850Y351850D01*
X309350Y354350D01*
X309350Y359350D01*
X306850Y361850D01*
X301850Y201850D02*
X299350Y199350D01*
X299350Y194350D01*
X301850Y191850D01*
X306850Y191850D01*
X309350Y194350D01*
X309350Y199350D01*
X306850Y201850D01*
X309350Y369350D02*
X309350Y364350D01*
X311850Y361850D01*
X316850Y361850D02*
X319350Y364350D01*
X311850Y371850D02*
X319350Y371850D01*
X309350Y369350D02*
X311850Y371850D01*
X319350Y364350D02*
X319350Y371850D01*
X309350Y219350D02*
X309350Y214350D01*
X311850Y211850D01*
X316850Y211850D01*
X319350Y214350D01*
X311850Y211850D02*
X309350Y209350D01*
X309350Y204350D01*
X311850Y201850D01*
X316850Y201850D01*
X319350Y204350D01*
X319350Y209350D01*
X316850Y211850D01*
X311850Y231850D02*
X309350Y229350D01*
X309350Y224350D01*
X311850Y221850D01*
X316850Y221850D01*
X319350Y224350D01*
X319350Y229350D01*
X316850Y231850D01*
X309350Y219350D02*
X311850Y221850D01*
X316850Y221850D02*
X319350Y219350D01*
X319350Y214350D02*
X319350Y219350D01*
X309350Y249350D02*
X309350Y244350D01*
X311850Y241850D01*
X316850Y241850D01*
X319350Y244350D01*
X311850Y241850D02*
X309350Y239350D01*
X309350Y234350D01*
X311850Y231850D01*
X316850Y231850D01*
X319350Y234350D01*
X319350Y239350D01*
X316850Y241850D01*
X311850Y261850D02*
X309350Y259350D01*
X309350Y254350D01*
X311850Y251850D01*
X316850Y251850D01*
X319350Y254350D01*
X319350Y259350D01*
X316850Y261850D01*
X309350Y249350D02*
X311850Y251850D01*
X316850Y251850D02*
X319350Y249350D01*
X319350Y244350D02*
X319350Y249350D01*
X309350Y279350D02*
X309350Y274350D01*
X311850Y271850D01*
X316850Y271850D01*
X319350Y274350D01*
X311850Y271850D02*
X309350Y269350D01*
X309350Y264350D01*
X311850Y261850D01*
X316850Y261850D01*
X319350Y264350D01*
X319350Y269350D01*
X316850Y271850D01*
X311850Y291850D02*
X309350Y289350D01*
X309350Y284350D01*
X311850Y281850D01*
X316850Y281850D01*
X319350Y284350D01*
X319350Y289350D01*
X316850Y291850D01*
X309350Y279350D02*
X311850Y281850D01*
X316850Y281850D02*
X319350Y279350D01*
X319350Y274350D02*
X319350Y279350D01*
X309350Y309350D02*
X309350Y304350D01*
X311850Y301850D01*
X316850Y301850D01*
X319350Y304350D01*
X311850Y301850D02*
X309350Y299350D01*
X309350Y294350D01*
X311850Y291850D01*
X316850Y291850D01*
X319350Y294350D01*
X319350Y299350D01*
X316850Y301850D01*
X311850Y321850D02*
X309350Y319350D01*
X309350Y314350D01*
X311850Y311850D01*
X316850Y311850D01*
X319350Y314350D01*
X319350Y319350D01*
X316850Y321850D01*
X309350Y309350D02*
X311850Y311850D01*
X316850Y311850D02*
X319350Y309350D01*
X319350Y304350D02*
X319350Y309350D01*
X309350Y339350D02*
X309350Y334350D01*
X311850Y331850D01*
X316850Y331850D01*
X319350Y334350D01*
X311850Y331850D02*
X309350Y329350D01*
X309350Y324350D01*
X311850Y321850D01*
X316850Y321850D01*
X319350Y324350D01*
X319350Y329350D01*
X316850Y331850D01*
X311850Y351850D02*
X309350Y349350D01*
X309350Y344350D01*
X311850Y341850D01*
X316850Y341850D01*
X319350Y344350D01*
X319350Y349350D01*
X316850Y351850D01*
X309350Y339350D02*
X311850Y341850D01*
X316850Y341850D02*
X319350Y339350D01*
X319350Y334350D02*
X319350Y339350D01*
X311850Y361850D02*
X316850Y361850D01*
X311850Y361850D02*
X309350Y359350D01*
X309350Y354350D01*
X311850Y351850D01*
X316850Y351850D01*
X319350Y354350D01*
X319350Y359350D01*
X316850Y361850D01*
X311850Y201850D02*
X309350Y199350D01*
X309350Y194350D01*
X311850Y191850D01*
X316850Y191850D01*
X319350Y194350D01*
X319350Y199350D01*
X316850Y201850D01*
X41850Y171850D02*
X46850Y171850D01*
X49350Y174350D01*
X49350Y179350D02*
X46850Y181850D01*
X39350Y174350D02*
X39350Y181850D01*
X41850Y171850D02*
X39350Y174350D01*
X46850Y181850D02*
X39350Y181850D01*
X101850Y171850D02*
X106850Y171850D01*
X109350Y174350D01*
X109350Y179350D01*
X106850Y181850D01*
X89350Y174350D02*
X91850Y171850D01*
X96850Y171850D01*
X99350Y174350D01*
X99350Y179350D01*
X96850Y181850D01*
X91850Y181850D01*
X89350Y179350D01*
X101850Y171850D02*
X99350Y174350D01*
X99350Y179350D02*
X101850Y181850D01*
X106850Y181850D02*
X101850Y181850D01*
X71850Y171850D02*
X76850Y171850D01*
X79350Y174350D01*
X79350Y179350D01*
X76850Y181850D01*
X79350Y174350D02*
X81850Y171850D01*
X86850Y171850D01*
X89350Y174350D01*
X89350Y179350D01*
X86850Y181850D01*
X81850Y181850D01*
X79350Y179350D01*
X59350Y174350D02*
X61850Y171850D01*
X66850Y171850D01*
X69350Y174350D01*
X69350Y179350D01*
X66850Y181850D01*
X61850Y181850D01*
X59350Y179350D01*
X71850Y171850D02*
X69350Y174350D01*
X69350Y179350D02*
X71850Y181850D01*
X76850Y181850D02*
X71850Y181850D01*
X49350Y174350D02*
X49350Y179350D01*
X49350Y174350D02*
X51850Y171850D01*
X56850Y171850D01*
X59350Y174350D01*
X59350Y179350D01*
X56850Y181850D01*
X51850Y181850D01*
X49350Y179350D01*
X111850Y171850D02*
X116850Y171850D01*
X119350Y174350D01*
X119350Y179350D01*
X116850Y181850D01*
X111850Y171850D02*
X109350Y174350D01*
X109350Y179350D02*
X111850Y181850D01*
X116850Y181850D02*
X111850Y181850D01*
X131850Y171850D02*
X136850Y171850D01*
X139350Y174350D01*
X139350Y179350D02*
X136850Y181850D01*
X129350Y174350D02*
X129350Y181850D01*
X131850Y171850D02*
X129350Y174350D01*
X136850Y181850D02*
X129350Y181850D01*
X191850Y171850D02*
X196850Y171850D01*
X199350Y174350D01*
X199350Y179350D01*
X196850Y181850D01*
X179350Y174350D02*
X181850Y171850D01*
X186850Y171850D01*
X189350Y174350D01*
X189350Y179350D01*
X186850Y181850D01*
X181850Y181850D01*
X179350Y179350D01*
X191850Y171850D02*
X189350Y174350D01*
X189350Y179350D02*
X191850Y181850D01*
X196850Y181850D02*
X191850Y181850D01*
X161850Y171850D02*
X166850Y171850D01*
X169350Y174350D01*
X169350Y179350D01*
X166850Y181850D01*
X169350Y174350D02*
X171850Y171850D01*
X176850Y171850D01*
X179350Y174350D01*
X179350Y179350D01*
X176850Y181850D01*
X171850Y181850D01*
X169350Y179350D01*
X149350Y174350D02*
X151850Y171850D01*
X156850Y171850D01*
X159350Y174350D01*
X159350Y179350D01*
X156850Y181850D01*
X151850Y181850D01*
X149350Y179350D01*
X161850Y171850D02*
X159350Y174350D01*
X159350Y179350D02*
X161850Y181850D01*
X166850Y181850D02*
X161850Y181850D01*
X139350Y174350D02*
X139350Y179350D01*
X139350Y174350D02*
X141850Y171850D01*
X146850Y171850D01*
X149350Y174350D01*
X149350Y179350D01*
X146850Y181850D01*
X141850Y181850D01*
X139350Y179350D01*
X201850Y171850D02*
X206850Y171850D01*
X209350Y174350D01*
X209350Y179350D01*
X206850Y181850D01*
X201850Y171850D02*
X199350Y174350D01*
X199350Y179350D02*
X201850Y181850D01*
X206850Y181850D02*
X201850Y181850D01*
X221850Y171850D02*
X226850Y171850D01*
X229350Y174350D01*
X229350Y179350D02*
X226850Y181850D01*
X219350Y174350D02*
X219350Y181850D01*
X221850Y171850D02*
X219350Y174350D01*
X226850Y181850D02*
X219350Y181850D01*
X281850Y171850D02*
X286850Y171850D01*
X289350Y174350D01*
X289350Y179350D01*
X286850Y181850D01*
X269350Y174350D02*
X271850Y171850D01*
X276850Y171850D01*
X279350Y174350D01*
X279350Y179350D01*
X276850Y181850D01*
X271850Y181850D01*
X269350Y179350D01*
X281850Y171850D02*
X279350Y174350D01*
X279350Y179350D02*
X281850Y181850D01*
X286850Y181850D02*
X281850Y181850D01*
X251850Y171850D02*
X256850Y171850D01*
X259350Y174350D01*
X259350Y179350D01*
X256850Y181850D01*
X259350Y174350D02*
X261850Y171850D01*
X266850Y171850D01*
X269350Y174350D01*
X269350Y179350D01*
X266850Y181850D01*
X261850Y181850D01*
X259350Y179350D01*
X239350Y174350D02*
X241850Y171850D01*
X246850Y171850D01*
X249350Y174350D01*
X249350Y179350D01*
X246850Y181850D01*
X241850Y181850D01*
X239350Y179350D01*
X251850Y171850D02*
X249350Y174350D01*
X249350Y179350D02*
X251850Y181850D01*
X256850Y181850D02*
X251850Y181850D01*
X229350Y174350D02*
X229350Y179350D01*
X229350Y174350D02*
X231850Y171850D01*
X236850Y171850D01*
X239350Y174350D01*
X239350Y179350D01*
X236850Y181850D01*
X231850Y181850D01*
X229350Y179350D01*
X291850Y171850D02*
X296850Y171850D01*
X299350Y174350D01*
X299350Y179350D01*
X296850Y181850D01*
X291850Y171850D02*
X289350Y174350D01*
X289350Y179350D02*
X291850Y181850D01*
X296850Y181850D02*
X291850Y181850D01*
X201850Y361850D02*
X206850Y361850D01*
X209350Y364350D01*
X209350Y369350D02*
X206850Y371850D01*
X199350Y364350D02*
X199350Y371850D01*
X201850Y361850D02*
X199350Y364350D01*
X206850Y371850D02*
X199350Y371850D01*
X261850Y361850D02*
X266850Y361850D01*
X269350Y364350D01*
X269350Y369350D01*
X266850Y371850D01*
X249350Y364350D02*
X251850Y361850D01*
X256850Y361850D01*
X259350Y364350D01*
X259350Y369350D01*
X256850Y371850D01*
X251850Y371850D01*
X249350Y369350D01*
X261850Y361850D02*
X259350Y364350D01*
X259350Y369350D02*
X261850Y371850D01*
X266850Y371850D02*
X261850Y371850D01*
X231850Y361850D02*
X236850Y361850D01*
X239350Y364350D01*
X239350Y369350D01*
X236850Y371850D01*
X239350Y364350D02*
X241850Y361850D01*
X246850Y361850D01*
X249350Y364350D01*
X249350Y369350D01*
X246850Y371850D01*
X241850Y371850D01*
X239350Y369350D01*
X219350Y364350D02*
X221850Y361850D01*
X226850Y361850D01*
X229350Y364350D01*
X229350Y369350D01*
X226850Y371850D01*
X221850Y371850D01*
X219350Y369350D01*
X231850Y361850D02*
X229350Y364350D01*
X229350Y369350D02*
X231850Y371850D01*
X236850Y371850D02*
X231850Y371850D01*
X209350Y364350D02*
X209350Y369350D01*
X209350Y364350D02*
X211850Y361850D01*
X216850Y361850D01*
X219350Y364350D01*
X219350Y369350D01*
X216850Y371850D01*
X211850Y371850D01*
X209350Y369350D01*
X271850Y361850D02*
X276850Y361850D01*
X279350Y364350D01*
X279350Y369350D01*
X276850Y371850D01*
X271850Y361850D02*
X269350Y364350D01*
X269350Y369350D02*
X271850Y371850D01*
X276850Y371850D02*
X271850Y371850D01*
X111850Y361850D02*
X116850Y361850D01*
X119350Y364350D01*
X119350Y369350D02*
X116850Y371850D01*
X109350Y364350D02*
X109350Y371850D01*
X111850Y361850D02*
X109350Y364350D01*
X116850Y371850D02*
X109350Y371850D01*
X171850Y361850D02*
X176850Y361850D01*
X179350Y364350D01*
X179350Y369350D01*
X176850Y371850D01*
X159350Y364350D02*
X161850Y361850D01*
X166850Y361850D01*
X169350Y364350D01*
X169350Y369350D01*
X166850Y371850D01*
X161850Y371850D01*
X159350Y369350D01*
X171850Y361850D02*
X169350Y364350D01*
X169350Y369350D02*
X171850Y371850D01*
X176850Y371850D02*
X171850Y371850D01*
X141850Y361850D02*
X146850Y361850D01*
X149350Y364350D01*
X149350Y369350D01*
X146850Y371850D01*
X149350Y364350D02*
X151850Y361850D01*
X156850Y361850D01*
X159350Y364350D01*
X159350Y369350D01*
X156850Y371850D01*
X151850Y371850D01*
X149350Y369350D01*
X129350Y364350D02*
X131850Y361850D01*
X136850Y361850D01*
X139350Y364350D01*
X139350Y369350D01*
X136850Y371850D01*
X131850Y371850D01*
X129350Y369350D01*
X141850Y361850D02*
X139350Y364350D01*
X139350Y369350D02*
X141850Y371850D01*
X146850Y371850D02*
X141850Y371850D01*
X119350Y364350D02*
X119350Y369350D01*
X119350Y364350D02*
X121850Y361850D01*
X126850Y361850D01*
X129350Y364350D01*
X129350Y369350D01*
X126850Y371850D01*
X121850Y371850D01*
X119350Y369350D01*
X181850Y361850D02*
X186850Y361850D01*
X189350Y364350D01*
X189350Y369350D01*
X186850Y371850D01*
X181850Y361850D02*
X179350Y364350D01*
X179350Y369350D02*
X181850Y371850D01*
X186850Y371850D02*
X181850Y371850D01*
X219300Y338600D02*
X219300Y322600D01*
X226900Y322600D01*
X226900Y338600D01*
X219300Y338600D02*
X226900Y338600D01*
X365974Y354350D02*
X365832Y355840D01*
X365410Y357276D01*
X364724Y358607D01*
X363799Y359784D01*
X362667Y360764D01*
X361371Y361512D01*
X359956Y362002D01*
X358475Y362215D01*
X356979Y362144D01*
X355525Y361791D01*
X354163Y361169D01*
X352944Y360301D01*
X351911Y359217D01*
X351101Y357958D01*
X350545Y356568D01*
X350262Y355098D01*
X350262Y353601D01*
X350545Y352132D01*
X351101Y350742D01*
X351911Y349482D01*
X352944Y348399D01*
X354163Y347531D01*
X355525Y346909D01*
X356979Y346556D01*
X358475Y346485D01*
X359956Y346698D01*
X361371Y347187D01*
X362667Y347936D01*
X363799Y348916D01*
X364724Y350093D01*
X365410Y351423D01*
X365832Y352860D01*
X365974Y354350D01*
X379696Y352768D02*
X379732Y355309D01*
X379471Y357836D01*
X378915Y360316D01*
X378073Y362714D01*
X376956Y364996D01*
X375579Y367132D01*
X373961Y369091D01*
X372125Y370848D01*
X370095Y372377D01*
X367901Y373659D01*
X365571Y374674D01*
X363139Y375409D01*
X360637Y375854D01*
X358100Y376003D01*
X355563Y375854D01*
X353061Y375409D01*
X350629Y374674D01*
X348299Y373659D01*
X346105Y372377D01*
X344075Y370848D01*
X342239Y369091D01*
X340621Y367132D01*
X339244Y364996D01*
X338127Y362714D01*
X337285Y360316D01*
X336729Y357836D01*
X336468Y355309D01*
X336504Y352768D01*
X379753Y332696D02*
X336446Y332696D01*
X379753Y354350D02*
X379753Y332696D01*
X336446Y354350D02*
X336446Y332696D01*
X199300Y338600D02*
X199300Y322600D01*
X206900Y322600D01*
X206900Y338600D01*
X199300Y338600D02*
X206900Y338600D01*
X341900Y301350D02*
X341900Y317350D01*
X334300Y317350D01*
X334300Y301350D01*
X341900Y301350D02*
X334300Y301350D01*
X355650Y301350D02*
X355650Y317350D01*
X348050Y317350D01*
X348050Y301350D01*
X355650Y301350D02*
X348050Y301350D01*
X369400Y301350D02*
X369400Y317350D01*
X361800Y317350D01*
X361800Y301350D01*
X369400Y301350D02*
X361800Y301350D01*
X383150Y301350D02*
X383150Y317350D01*
X375550Y317350D01*
X375550Y301350D01*
X383150Y301350D02*
X375550Y301350D01*
X380550Y262350D02*
X380550Y246350D01*
X388150Y246350D01*
X388150Y262350D01*
X380550Y262350D02*
X388150Y262350D01*
X154596Y77372D02*
X91604Y77372D01*
X91604Y162017D01*
X154596Y162017D01*
X154596Y77372D01*
X84596Y77372D02*
X21604Y77372D01*
X21604Y162017D01*
X84596Y162017D01*
X84596Y77372D01*
X96850Y245600D02*
X97622Y245722D01*
X98319Y246077D01*
X98872Y246630D01*
X99228Y247327D01*
X99350Y248100D01*
X99228Y248872D01*
X98872Y249569D01*
X98319Y250122D01*
X97622Y250478D01*
X96850Y250600D01*
X96850Y258100D02*
X96850Y238100D01*
X96850Y258100D02*
X176850Y258100D01*
X176850Y238100D01*
X96850Y238100D01*
X164850Y280650D02*
X148850Y280650D01*
X148850Y273050D01*
X164850Y273050D01*
X164850Y280650D02*
X164850Y273050D01*
X176100Y225650D02*
X160100Y225650D01*
X160100Y218050D01*
X176100Y218050D01*
X176100Y225650D02*
X176100Y218050D01*
X114850Y280650D02*
X98850Y280650D01*
X98850Y273050D01*
X114850Y273050D01*
X114850Y280650D02*
X114850Y273050D01*
X76225Y192787D02*
X76225Y197787D01*
X73725Y200287D01*
X68725Y200287D01*
X66225Y197787D01*
X73725Y190287D02*
X66225Y190287D01*
X76225Y192787D02*
X73725Y190287D01*
X66225Y197787D02*
X66225Y190287D01*
X73725Y200287D02*
X76225Y202787D01*
X76225Y207787D01*
X73725Y210287D01*
X68725Y210287D01*
X66225Y207787D01*
X66225Y202787D01*
X68725Y200287D01*
X106850Y300600D02*
X107622Y300722D01*
X108319Y301077D01*
X108872Y301630D01*
X109228Y302327D01*
X109350Y303100D01*
X109228Y303872D01*
X108872Y304569D01*
X108319Y305122D01*
X107622Y305478D01*
X106850Y305600D01*
X106850Y313100D02*
X106850Y293100D01*
X176850Y313100D02*
X106850Y313100D01*
X176850Y313100D02*
X176850Y293100D01*
X106850Y293100D01*
X39104Y215600D02*
X39104Y255600D01*
X67096Y255600D01*
X67096Y215600D01*
X39104Y215600D01*
X39104Y276850D02*
X39104Y316850D01*
X67096Y316850D01*
X67096Y276850D01*
X39104Y276850D01*
X33050Y49850D02*
X33050Y33850D01*
X40650Y33850D01*
X40650Y49850D01*
X33050Y49850D02*
X40650Y49850D01*
X21175Y49850D02*
X21175Y33850D01*
X28775Y33850D01*
X28775Y49850D01*
X21175Y49850D02*
X28775Y49850D01*
X9300Y49850D02*
X9300Y33850D01*
X16900Y33850D01*
X16900Y49850D01*
X9300Y49850D02*
X16900Y49850D01*
X299222Y129350D02*
X299073Y131995D01*
X298630Y134606D01*
X297896Y137152D01*
X296883Y139599D01*
X295601Y141918D01*
X294068Y144078D01*
X292303Y146053D01*
X290328Y147818D01*
X288168Y149351D01*
X285849Y150633D01*
X283402Y151646D01*
X280856Y152380D01*
X278245Y152823D01*
X275600Y152972D01*
X272955Y152823D01*
X270343Y152380D01*
X267798Y151646D01*
X265351Y150633D01*
X263032Y149351D01*
X260872Y147818D01*
X258897Y146053D01*
X257131Y144078D01*
X255599Y141918D01*
X254317Y139599D01*
X253303Y137152D01*
X252570Y134606D01*
X252126Y131995D01*
X251978Y129350D01*
X252126Y126705D01*
X252570Y124093D01*
X253303Y121548D01*
X254317Y119101D01*
X255599Y116782D01*
X257131Y114622D01*
X258897Y112647D01*
X260872Y110881D01*
X263032Y109349D01*
X265351Y108067D01*
X267798Y107053D01*
X270344Y106320D01*
X272955Y105876D01*
X275600Y105728D01*
X278245Y105876D01*
X280856Y106320D01*
X283402Y107053D01*
X285849Y108067D01*
X288168Y109349D01*
X290328Y110881D01*
X292303Y112647D01*
X294068Y114622D01*
X295601Y116782D01*
X296883Y119101D01*
X297896Y121548D01*
X298630Y124094D01*
X299073Y126705D01*
X299222Y129350D01*
X311481Y119630D02*
X305969Y119630D01*
X305969Y107819D01*
X311481Y107819D01*
X311481Y119630D01*
X308675Y144850D02*
X308675Y128850D01*
X316275Y128850D01*
X316275Y144850D01*
X308675Y144850D02*
X316275Y144850D01*
X192525Y262600D02*
X192525Y278600D01*
X184925Y278600D01*
X184925Y262600D01*
X192525Y262600D02*
X184925Y262600D01*
X213050Y293600D02*
X213050Y277600D01*
X220650Y277600D01*
X220650Y293600D01*
X213050Y293600D02*
X220650Y293600D01*
X199300Y278600D02*
X199300Y262600D01*
X206900Y262600D01*
X206900Y278600D01*
X199300Y278600D02*
X206900Y278600D01*
X228675Y278600D02*
X228675Y262600D01*
X236275Y262600D01*
X236275Y278600D01*
X228675Y278600D02*
X236275Y278600D01*
X106225Y219975D02*
X88725Y219975D01*
X106225Y219975D02*
X106225Y212475D01*
X103725Y209975D01*
X106225Y207475D01*
X106225Y202475D02*
X103725Y199975D01*
X88725Y219975D02*
X86225Y217475D01*
X86225Y212475D01*
X88725Y209975D01*
X86225Y207475D01*
X86225Y202475D01*
X88725Y199975D01*
X88725Y209975D02*
X103725Y209975D01*
X88725Y199975D02*
X103725Y199975D01*
X106225Y207475D02*
X106225Y202475D01*
X103725Y199975D02*
X106225Y197475D01*
X106225Y192475D02*
X103725Y189975D01*
X88725Y199975D02*
X86225Y197475D01*
X86225Y192475D01*
X88725Y189975D01*
X103725Y189975D01*
X106225Y197475D02*
X106225Y192475D01*
X225221Y77372D02*
X162229Y77372D01*
X162229Y162017D01*
X225221Y162017D01*
X225221Y77372D01*
X196275Y213850D02*
X196275Y229850D01*
X188675Y229850D01*
X188675Y213850D01*
X196275Y213850D02*
X188675Y213850D01*
X206900Y213850D02*
X206900Y229850D01*
X199300Y229850D01*
X199300Y213850D01*
X206900Y213850D02*
X199300Y213850D01*
X217525Y213850D02*
X217525Y229850D01*
X209925Y229850D01*
X209925Y213850D01*
X217525Y213850D02*
X209925Y213850D01*
X115600Y188725D02*
X115600Y220600D01*
X133725Y188725D02*
X115600Y188725D01*
X133725Y188725D02*
X133725Y220600D01*
X115600Y220600D01*
X118100Y191850D02*
X118100Y207475D01*
X123100Y191850D02*
X118100Y191850D01*
X123100Y191850D02*
X123100Y207475D01*
X118100Y207475D01*
X126225Y191850D02*
X126225Y207475D01*
X131225Y191850D02*
X126225Y191850D01*
X131225Y191850D02*
X131225Y207475D01*
X126225Y207475D01*
X40600Y190600D02*
X40600Y206225D01*
X45600Y190600D02*
X40600Y190600D01*
X45600Y190600D02*
X45600Y206225D01*
X40600Y206225D01*
X38100Y209350D02*
X38100Y187475D01*
X48100Y187475D01*
X48100Y209350D01*
X38100Y209350D01*
X185600Y234350D02*
X185600Y199350D01*
X221225Y199350D01*
X221225Y234350D01*
X185600Y234350D01*
X5600Y18100D02*
X5600Y53100D01*
X43725Y53100D01*
X43725Y18100D01*
X5600Y18100D01*
G54D13*
X281850Y147165D02*
X287165Y147165D01*
X284448Y149881D02*
X284448Y144448D01*
G54D18*
X120600Y215600D03*
X128725Y215600D03*
X120600Y204975D03*
X128725Y204975D03*
X120600Y194350D03*
X128725Y194350D03*
X43100Y203725D03*
X43100Y193100D03*
G54D19*
X101850Y253100D03*
X111850Y308100D03*
M02*
