%FSLAX35Y35*%
%MOIN*%
%IN21=Bestoeckungsdruckoben(X.GTO)*%
%ADD10C,0.00591*%
%ADD11C,0.00614*%
%ADD12C,0.00768*%
%ADD13C,0.00787*%
%ADD14C,0.01024*%
%ADD15C,0.01181*%
%ADD16C,0.01280*%
%ADD17C,0.01535*%
%ADD18C,0.01575*%
%ADD19C,0.01969*%
%ADD20C,0.02362*%
%ADD21C,0.02795*%
%ADD22C,0.03937*%
%ADD23C,0.12205*%
%ADD24C,0.12598*%
%ADD25C,0.13780*%
%ADD26C,0.14173*%
%AMR_27*21,1,0.01181,0.01181,0,0,0.000*%
%ADD27R_27*%
%AMR_28*21,1,0.01250,0.01250,0,0,0.000*%
%ADD28R_28*%
%AMR_29*21,1,0.01280,0.01280,0,0,0.000*%
%ADD29R_29*%
%AMR_30*21,1,0.01476,0.01476,0,0,0.000*%
%ADD30R_30*%
%AMR_31*21,1,0.01575,0.01575,0,0,0.000*%
%ADD31R_31*%
%AMR_32*21,1,0.01772,0.01772,0,0,0.000*%
%ADD32R_32*%
%AMR_33*21,1,0.01969,0.01969,0,0,0.000*%
%ADD33R_33*%
%AMR_34*21,1,0.04587,0.05433,0,0,90.000*%
%ADD34R_34*%
%AMR_35*21,1,0.05000,0.05000,0,0,0.000*%
%ADD35R_35*%
%AMR_36*21,1,0.05000,0.05000,0,0,90.000*%
%ADD36R_36*%
%AMR_37*21,1,0.05000,0.05000,0,0,180.000*%
%ADD37R_37*%
%AMR_38*21,1,0.05000,0.05000,0,0,270.000*%
%ADD38R_38*%
%AMR_39*21,1,0.05000,0.09843,0,0,0.000*%
%ADD39R_39*%
%AMR_40*21,1,0.05000,0.10000,0,0,90.000*%
%ADD40R_40*%
%AMR_41*21,1,0.12205,0.05118,0,0,90.000*%
%ADD41R_41*%
%AMR_42*21,1,0.12205,0.05118,0,0,180.000*%
%ADD42R_42*%
%AMR_43*21,1,0.19685,0.19685,0,0,0.000*%
%ADD43R_43*%
%AMOCT_44*4,1,8,0.029528,0.014764,0.014764,0.029528,-0.014764,0.029528,-0.029528,0.014764,-0.029528,-0.014764,-0.014764,-0.029528,0.014764,-0.029528,0.029528,-0.014764,0.029528,0.014764,0.000*%
%ADD44OCT_44*%
%AMOCT_45*4,1,8,0.031496,0.015748,0.015748,0.031496,-0.015748,0.031496,-0.031496,0.015748,-0.031496,-0.015748,-0.015748,-0.031496,0.015748,-0.031496,0.031496,-0.015748,0.031496,0.015748,-0.000*%
%ADD45OCT_45*%
%AMOCT_46*4,1,8,0.031496,0.015748,0.015748,0.031496,-0.015748,0.031496,-0.031496,0.015748,-0.031496,-0.015748,-0.015748,-0.031496,0.015748,-0.031496,0.031496,-0.015748,0.031496,0.015748,90.000*%
%ADD46OCT_46*%
%AMOCT_47*4,1,8,0.031496,0.015748,0.015748,0.031496,-0.015748,0.031496,-0.031496,0.015748,-0.031496,-0.015748,-0.015748,-0.031496,0.015748,-0.031496,0.031496,-0.015748,0.031496,0.015748,180.000*%
%ADD47OCT_47*%
%AMOCT_48*4,1,8,0.031496,0.015748,0.015748,0.031496,-0.015748,0.031496,-0.031496,0.015748,-0.031496,-0.015748,-0.015748,-0.031496,0.015748,-0.031496,0.031496,-0.015748,0.031496,0.015748,270.000*%
%ADD48OCT_48*%
%AMOCT_49*4,1,8,0.035433,0.017717,0.017717,0.035433,-0.017717,0.035433,-0.035433,0.017717,-0.035433,-0.017717,-0.017717,-0.035433,0.017717,-0.035433,0.035433,-0.017717,0.035433,0.017717,180.000*%
%ADD49OCT_49*%
%AMOCT_50*4,1,8,0.035433,0.017717,0.017717,0.035433,-0.017717,0.035433,-0.035433,0.017717,-0.035433,-0.017717,-0.017717,-0.035433,0.017717,-0.035433,0.035433,-0.017717,0.035433,0.017717,270.000*%
%ADD50OCT_50*%
%AMOCT_51*4,1,8,0.039370,0.019685,0.019685,0.039370,-0.019685,0.039370,-0.039370,0.019685,-0.039370,-0.019685,-0.019685,-0.039370,0.019685,-0.039370,0.039370,-0.019685,0.039370,0.019685,0.000*%
%ADD51OCT_51*%
%AMOCT_52*4,1,8,0.039370,0.019685,0.019685,0.039370,-0.019685,0.039370,-0.039370,0.019685,-0.039370,-0.019685,-0.019685,-0.039370,0.019685,-0.039370,0.039370,-0.019685,0.039370,0.019685,270.000*%
%ADD52OCT_52*%
%AMOCT_53*4,1,8,0.049213,0.024606,0.024606,0.049213,-0.024606,0.049213,-0.049213,0.024606,-0.049213,-0.024606,-0.024606,-0.049213,0.024606,-0.049213,0.049213,-0.024606,0.049213,0.024606,180.000*%
%ADD53OCT_53*%
%AMO_54*20,1,0.03937,-0.00787,0.00000,0.00787,0.00000,0*1,1,0.03937,-0.00787,0.00000*1,1,0.03937,0.00787,0.00000*%
%ADD54O_54*%
%AMO_55*20,1,0.05000,0.00000,-0.02421,0.00000,0.02421,0*1,1,0.05000,0.00000,-0.02421*1,1,0.05000,0.00000,0.02421*%
%ADD55O_55*%
%AMO_56*20,1,0.05000,0.02500,0.00000,-0.02500,0.00000,0*1,1,0.05000,0.02500,0.00000*1,1,0.05000,-0.02500,0.00000*%
%ADD56O_56*%
%AMRR_57*21,1,0.06299,0.05039,0,0,-0.000*21,1,0.05039,0.06299,0,0,-0.000*1,1,0.01260,0.02520,0.02520*1,1,0.01260,-0.02520,-0.02520*1,1,0.01260,0.02520,-0.02520*1,1,0.01260,-0.02520,0.02520*%
%ADD57RR_57*%
%AMRR_58*21,1,0.06299,0.05039,0,0,90.000*21,1,0.05039,0.06299,0,0,90.000*1,1,0.01260,-0.02520,0.02520*1,1,0.01260,0.02520,-0.02520*1,1,0.01260,0.02520,0.02520*1,1,0.01260,-0.02520,-0.02520*%
%ADD58RR_58*%
%AMRR_59*21,1,0.06299,0.05039,0,0,180.000*21,1,0.05039,0.06299,0,0,180.000*1,1,0.01260,-0.02520,-0.02520*1,1,0.01260,0.02520,0.02520*1,1,0.01260,-0.02520,0.02520*1,1,0.01260,0.02520,-0.02520*%
%ADD59RR_59*%
%AMRR_60*21,1,0.06299,0.05039,0,0,270.000*21,1,0.05039,0.06299,0,0,270.000*1,1,0.01260,0.02520,-0.02520*1,1,0.01260,-0.02520,0.02520*1,1,0.01260,-0.02520,-0.02520*1,1,0.01260,0.02520,0.02520*%
%ADD60RR_60*%
G54D12*
X38879Y337199D02*
X39390Y337289D01*
X39828Y337568D01*
X40125Y337992D01*
X40238Y338499D01*
X38879Y337199D02*
X37580Y337199D01*
X37580Y342514D01*
X38879Y342514D01*
X40238Y341215D02*
X40125Y341721D01*
X39828Y342146D01*
X39390Y342425D01*
X38879Y342514D01*
X40238Y341215D02*
X40238Y338499D01*
X41596Y337199D02*
X41596Y340920D01*
X41596Y341983D02*
X41596Y342514D01*
X42954Y337967D02*
X43057Y337583D01*
X43338Y337302D01*
X43722Y337199D01*
X44253Y337199D01*
X44656Y337291D01*
X44959Y337572D01*
X45080Y337967D01*
X45080Y338262D01*
X44959Y338657D01*
X44656Y338938D01*
X44253Y339030D01*
X43722Y339030D01*
X43722Y340684D02*
X43309Y340573D01*
X43006Y340270D01*
X42895Y339857D01*
X43006Y339443D01*
X43309Y339141D01*
X43722Y339030D01*
X43722Y340684D02*
X44253Y340684D01*
X45080Y339857D02*
X44969Y340270D01*
X44667Y340573D01*
X44253Y340684D01*
X46438Y335605D02*
X46438Y340684D01*
X46438Y338262D02*
X46544Y337801D01*
X46839Y337431D01*
X47265Y337226D01*
X47738Y337226D01*
X48164Y337431D01*
X48459Y337801D01*
X48564Y338262D01*
X48564Y339562D02*
X48564Y338262D01*
X48564Y339562D02*
X48459Y340023D01*
X48164Y340393D01*
X47738Y340598D01*
X47265Y340598D01*
X46839Y340393D01*
X46544Y340023D01*
X46438Y339562D01*
X49923Y342514D02*
X49923Y337967D01*
X50026Y337583D01*
X50307Y337302D01*
X50690Y337199D01*
X54175Y339562D02*
X54069Y340023D01*
X53774Y340393D01*
X53348Y340598D01*
X52875Y340598D01*
X52449Y340393D01*
X52154Y340023D01*
X52049Y339562D01*
X53348Y338794D02*
X53751Y338886D01*
X54053Y339167D01*
X54175Y339562D01*
X53348Y338794D02*
X52816Y338794D01*
X52816Y338764D02*
X52418Y338657D01*
X52126Y338366D01*
X52019Y337967D01*
X52126Y337568D01*
X52418Y337277D01*
X52816Y337170D01*
X52816Y337199D02*
X53348Y337199D01*
X53751Y337291D01*
X54053Y337572D01*
X54175Y337967D01*
X54175Y339562D02*
X54175Y337731D01*
X54706Y337199D01*
X56064Y340684D02*
X57364Y337199D01*
X58722Y340684D02*
X56832Y335900D01*
X56301Y335664D01*
X335132Y265241D02*
X335010Y265805D01*
X334664Y266267D01*
X334157Y266544D01*
X333581Y266585D01*
X333040Y266383D01*
X332631Y265975D01*
X332430Y265434D01*
X332471Y264858D01*
X332748Y264351D01*
X333210Y264005D01*
X333774Y263882D01*
X332475Y262524D02*
X332607Y261975D01*
X332956Y261531D01*
X333458Y261271D01*
X334022Y261243D01*
X334546Y261452D01*
X334937Y261861D01*
X335122Y262394D01*
X335070Y262956D01*
X334788Y263446D01*
X334329Y263774D01*
X333774Y263882D01*
X336491Y265477D02*
X337554Y266540D01*
X337554Y261225D01*
X338912Y265477D02*
X339975Y266540D01*
X339975Y261225D01*
X340132Y196540D02*
X337475Y196540D01*
X337475Y193882D01*
X339306Y193882D01*
X337475Y193882D02*
X337475Y191225D01*
X340132Y191225D01*
X344119Y195241D02*
X344017Y195749D01*
X343729Y196180D01*
X343298Y196468D01*
X342790Y196569D01*
X342281Y196468D01*
X341850Y196180D01*
X341562Y195749D01*
X341461Y195241D01*
X341491Y195241D02*
X341491Y192524D01*
X341461Y192524D02*
X341562Y192016D01*
X341850Y191585D01*
X342281Y191297D01*
X342790Y191195D01*
X343298Y191297D01*
X343729Y191585D01*
X344017Y192016D01*
X344119Y192524D01*
X345506Y195477D02*
X346569Y196540D01*
X346569Y191225D01*
X347928Y195477D02*
X348991Y196540D01*
X348991Y191225D01*
X353006Y196540D02*
X350349Y196540D01*
X350349Y193882D01*
X352180Y193882D01*
X350349Y193882D02*
X350349Y191225D01*
X353006Y191225D01*
X354365Y191225D02*
X356491Y194709D01*
X354365Y194709D02*
X356491Y191225D01*
X357849Y191225D02*
X359975Y194709D01*
X357849Y194709D02*
X359975Y191225D01*
X361333Y191225D02*
X363459Y194709D01*
X361333Y194709D02*
X363459Y191225D01*
X366412Y196540D02*
X364817Y192524D01*
X366943Y192524D01*
X366412Y193587D02*
X366412Y191225D01*
X369896Y196540D02*
X368302Y192524D01*
X370428Y192524D01*
X369896Y193587D02*
X369896Y191225D01*
X371786Y191225D02*
X373912Y194709D01*
X371786Y194709D02*
X373912Y191225D01*
X375270Y191225D02*
X377396Y194709D01*
X375270Y194709D02*
X377396Y191225D01*
X336899Y298725D02*
X337410Y298815D01*
X337847Y299093D01*
X338145Y299518D01*
X338257Y300024D01*
X336899Y298725D02*
X335600Y298725D01*
X335600Y304040D01*
X336899Y304040D01*
X338257Y302741D02*
X338145Y303247D01*
X337847Y303672D01*
X337410Y303950D01*
X336899Y304040D01*
X338257Y302741D02*
X338257Y300024D01*
X339616Y302977D02*
X340679Y304040D01*
X340679Y298725D01*
X349712Y298725D02*
X350222Y298815D01*
X350660Y299093D01*
X350958Y299518D01*
X351070Y300024D01*
X349712Y298725D02*
X348412Y298725D01*
X348412Y304040D01*
X349712Y304040D01*
X351070Y302741D02*
X350958Y303247D01*
X350660Y303672D01*
X350222Y303950D01*
X349712Y304040D01*
X351070Y302741D02*
X351070Y300024D01*
X354554Y302977D02*
X354449Y303438D01*
X354154Y303808D01*
X353728Y304013D01*
X353255Y304013D01*
X352828Y303808D01*
X352533Y303438D01*
X352428Y302977D01*
X354554Y302977D02*
X352428Y298725D01*
X354554Y298725D01*
X361899Y298725D02*
X362410Y298815D01*
X362847Y299093D01*
X363145Y299518D01*
X363257Y300024D01*
X361899Y298725D02*
X360600Y298725D01*
X360600Y304040D01*
X361899Y304040D01*
X363257Y302741D02*
X363145Y303247D01*
X362847Y303672D01*
X362410Y303950D01*
X361899Y304040D01*
X363257Y302741D02*
X363257Y300024D01*
X364616Y299788D02*
X364721Y299327D01*
X365016Y298957D01*
X365442Y298752D01*
X365915Y298752D01*
X366341Y298957D01*
X366636Y299327D01*
X366742Y299788D01*
X366742Y300556D02*
X366742Y299788D01*
X366742Y300556D02*
X366661Y300962D01*
X366430Y301307D01*
X366085Y301538D01*
X365679Y301619D01*
X365383Y301619D02*
X365679Y301619D01*
X365383Y301619D01*
X365679Y301619D02*
X366095Y301713D01*
X366443Y301959D01*
X366670Y302320D01*
X366742Y302741D01*
X366742Y302977D02*
X366742Y302741D01*
X366742Y302977D02*
X366636Y303438D01*
X366341Y303808D01*
X365915Y304013D01*
X365442Y304013D01*
X365016Y303808D01*
X364721Y303438D01*
X364616Y302977D01*
X376899Y299069D02*
X377410Y299159D01*
X377847Y299438D01*
X378145Y299862D01*
X378257Y300369D01*
X376899Y299069D02*
X375600Y299069D01*
X375600Y304384D01*
X376899Y304384D01*
X378257Y303085D02*
X378145Y303591D01*
X377847Y304016D01*
X377410Y304295D01*
X376899Y304384D01*
X378257Y303085D02*
X378257Y300369D01*
X381210Y304384D02*
X379616Y300369D01*
X381742Y300369D01*
X381210Y301432D02*
X381210Y299069D01*
X341225Y270944D02*
X341225Y273602D01*
X342524Y273602D01*
X342524Y273631D02*
X343033Y273733D01*
X343464Y274021D01*
X343752Y274452D01*
X343853Y274960D01*
X343752Y275469D01*
X343464Y275900D01*
X343033Y276188D01*
X342524Y276289D01*
X342524Y276259D02*
X341225Y276259D01*
X341225Y273602D01*
X347367Y273307D02*
X347367Y272007D01*
X347367Y273307D02*
X347261Y273768D01*
X346966Y274138D01*
X346540Y274343D01*
X346067Y274343D01*
X345641Y274138D01*
X345346Y273768D01*
X345241Y273307D01*
X345241Y272007D02*
X345241Y273307D01*
X345241Y272007D02*
X345346Y271546D01*
X345641Y271176D01*
X346067Y270971D01*
X346540Y270971D01*
X346966Y271176D01*
X347261Y271546D01*
X347367Y272007D01*
X348725Y274429D02*
X349788Y270944D01*
X350851Y274429D01*
X351914Y270944D01*
X352977Y274429D01*
X354335Y272775D02*
X356461Y272775D01*
X356461Y273307D01*
X356356Y273768D01*
X356061Y274138D01*
X355635Y274343D01*
X355162Y274343D01*
X354735Y274138D01*
X354440Y273768D01*
X354335Y273307D01*
X354335Y272007D01*
X354449Y271528D01*
X354766Y271152D01*
X355219Y270959D01*
X355711Y270990D01*
X356135Y271239D01*
X356402Y271653D01*
X357819Y270944D02*
X357819Y274429D01*
X359178Y274192D02*
X358855Y274382D01*
X358482Y274405D01*
X358138Y274256D01*
X357900Y273967D01*
X357819Y273602D01*
X364375Y270944D02*
X364885Y271034D01*
X365323Y271313D01*
X365620Y271737D01*
X365733Y272244D01*
X364375Y270944D02*
X363075Y270944D01*
X363075Y276259D01*
X364375Y276259D01*
X365733Y274960D02*
X365620Y275466D01*
X365323Y275891D01*
X364885Y276170D01*
X364375Y276259D01*
X365733Y274960D02*
X365733Y272244D01*
X367268Y271417D02*
X367591Y271104D01*
X368014Y270952D01*
X368462Y270989D01*
X368855Y271207D01*
X369122Y271568D01*
X369217Y272007D01*
X369217Y273070D01*
X369112Y273532D01*
X368817Y273901D01*
X368391Y274107D01*
X367917Y274107D01*
X367491Y273901D01*
X367196Y273532D01*
X367091Y273070D01*
X367091Y276259D01*
X369217Y276259D01*
X97235Y238450D02*
X96172Y239513D01*
X101487Y239513D01*
X97235Y242998D02*
X100424Y242998D01*
X97235Y242998D02*
X96774Y242892D01*
X96404Y242597D01*
X96199Y242171D01*
X96199Y241698D01*
X96404Y241272D01*
X96774Y240977D01*
X97235Y240872D01*
X100424Y240872D02*
X97235Y240872D01*
X100424Y240872D02*
X100885Y240977D01*
X101255Y241272D01*
X101460Y241698D01*
X101460Y242171D01*
X101255Y242597D01*
X100885Y242892D01*
X100424Y242998D01*
X97235Y246482D02*
X100424Y246482D01*
X97235Y246482D02*
X96774Y246377D01*
X96404Y246082D01*
X96199Y245655D01*
X96199Y245182D01*
X96404Y244756D01*
X96774Y244461D01*
X97235Y244356D01*
X100424Y244356D02*
X97235Y244356D01*
X100424Y244356D02*
X100885Y244461D01*
X101255Y244756D01*
X101460Y245182D01*
X101460Y245655D01*
X101255Y246082D01*
X100885Y246377D01*
X100424Y246482D01*
X101487Y247840D02*
X98003Y247840D01*
X99125Y249966D02*
X98664Y249861D01*
X98294Y249566D01*
X98088Y249140D01*
X98088Y248667D01*
X98294Y248240D01*
X98664Y247945D01*
X99125Y247840D01*
X99125Y249966D02*
X101487Y249966D01*
X96172Y253982D02*
X96172Y251324D01*
X98830Y251324D01*
X98830Y253155D01*
X98830Y251324D02*
X101487Y251324D01*
X14297Y210082D02*
X14402Y209621D01*
X14697Y209251D01*
X15124Y209046D01*
X15597Y209046D01*
X16023Y209251D01*
X16318Y209621D01*
X16423Y210082D01*
X16423Y210850D02*
X16423Y210082D01*
X16423Y210850D02*
X16342Y211256D01*
X16112Y211601D01*
X15767Y211832D01*
X15360Y211913D01*
X15065Y211913D02*
X15360Y211913D01*
X15065Y211913D01*
X15360Y211913D02*
X15776Y212007D01*
X16124Y212253D01*
X16351Y212614D01*
X16423Y213035D01*
X16423Y213271D02*
X16423Y213035D01*
X16423Y213271D02*
X16318Y213732D01*
X16023Y214102D01*
X15597Y214307D01*
X15124Y214307D01*
X14697Y214102D01*
X14402Y213732D01*
X14297Y213271D01*
X17781Y210082D02*
X17887Y209621D01*
X18182Y209251D01*
X18608Y209046D01*
X19081Y209046D01*
X19507Y209251D01*
X19802Y209621D01*
X19907Y210082D01*
X19907Y210850D02*
X19907Y210082D01*
X19907Y210850D02*
X19827Y211256D01*
X19596Y211601D01*
X19251Y211832D01*
X18844Y211913D01*
X18549Y211913D02*
X18844Y211913D01*
X18549Y211913D01*
X18844Y211913D02*
X19260Y212007D01*
X19608Y212253D01*
X19836Y212614D01*
X19907Y213035D01*
X19907Y213271D02*
X19907Y213035D01*
X19907Y213271D02*
X19802Y213732D01*
X19507Y214102D01*
X19081Y214307D01*
X18608Y214307D01*
X18182Y214102D01*
X17887Y213732D01*
X17781Y213271D01*
X23392Y213271D02*
X23392Y210082D01*
X23392Y213271D02*
X23286Y213732D01*
X22991Y214102D01*
X22565Y214307D01*
X22092Y214307D01*
X21666Y214102D01*
X21371Y213732D01*
X21266Y213271D01*
X21266Y210082D02*
X21266Y213271D01*
X21266Y210082D02*
X21371Y209621D01*
X21666Y209251D01*
X22092Y209046D01*
X22565Y209046D01*
X22991Y209251D01*
X23286Y209621D01*
X23392Y210082D01*
X107424Y288559D02*
X108487Y289622D01*
X108487Y284307D01*
X111972Y288559D02*
X111972Y285370D01*
X111972Y288559D02*
X111866Y289020D01*
X111571Y289390D01*
X111145Y289595D01*
X110672Y289595D01*
X110246Y289390D01*
X109951Y289020D01*
X109846Y288559D01*
X109846Y285370D02*
X109846Y288559D01*
X109846Y285370D02*
X109951Y284909D01*
X110246Y284539D01*
X110672Y284333D01*
X111145Y284333D01*
X111571Y284539D01*
X111866Y284909D01*
X111972Y285370D01*
X113330Y284307D02*
X113330Y289622D01*
X113330Y286137D02*
X115987Y289622D01*
X114393Y287496D02*
X115987Y284307D01*
X107329Y294695D02*
X106266Y295758D01*
X111581Y295758D01*
X107329Y299243D02*
X110518Y299243D01*
X107329Y299243D02*
X106867Y299137D01*
X106497Y298842D01*
X106292Y298416D01*
X106292Y297943D01*
X106497Y297517D01*
X106867Y297222D01*
X107329Y297117D01*
X110518Y297117D02*
X107329Y297117D01*
X110518Y297117D02*
X110979Y297222D01*
X111349Y297517D01*
X111554Y297943D01*
X111554Y298416D01*
X111349Y298842D01*
X110979Y299137D01*
X110518Y299243D01*
X107329Y302727D02*
X110518Y302727D01*
X107329Y302727D02*
X106867Y302622D01*
X106497Y302327D01*
X106292Y301900D01*
X106292Y301427D01*
X106497Y301001D01*
X106867Y300706D01*
X107329Y300601D01*
X110518Y300601D02*
X107329Y300601D01*
X110518Y300601D02*
X110979Y300706D01*
X111349Y301001D01*
X111554Y301427D01*
X111554Y301900D01*
X111349Y302327D01*
X110979Y302622D01*
X110518Y302727D01*
X111581Y304085D02*
X108096Y304085D01*
X109218Y306211D02*
X108757Y306106D01*
X108387Y305811D01*
X108182Y305385D01*
X108182Y304912D01*
X108387Y304485D01*
X108757Y304190D01*
X109218Y304085D01*
X109218Y306211D02*
X111581Y306211D01*
X106266Y310227D02*
X106266Y307569D01*
X108923Y307569D01*
X108923Y309400D01*
X108923Y307569D02*
X111581Y307569D01*
X45235Y213583D02*
X46298Y214646D01*
X46298Y209331D01*
X49782Y213583D02*
X49782Y210394D01*
X49782Y213583D02*
X49677Y214045D01*
X49382Y214415D01*
X48955Y214620D01*
X48482Y214620D01*
X48056Y214415D01*
X47761Y214045D01*
X47656Y213583D01*
X47656Y210394D02*
X47656Y213583D01*
X47656Y210394D02*
X47761Y209933D01*
X48056Y209563D01*
X48482Y209358D01*
X48955Y209358D01*
X49382Y209563D01*
X49677Y209933D01*
X49782Y210394D01*
X53266Y213583D02*
X53266Y210394D01*
X53266Y213583D02*
X53161Y214045D01*
X52866Y214415D01*
X52440Y214620D01*
X51967Y214620D01*
X51540Y214415D01*
X51245Y214045D01*
X51140Y213583D01*
X51140Y210394D02*
X51140Y213583D01*
X51140Y210394D02*
X51245Y209933D01*
X51540Y209563D01*
X51967Y209358D01*
X52440Y209358D01*
X52866Y209563D01*
X53161Y209933D01*
X53266Y210394D01*
X54624Y209331D02*
X54624Y212816D01*
X56750Y211694D02*
X56645Y212155D01*
X56350Y212525D01*
X55924Y212730D01*
X55451Y212730D01*
X55025Y212525D01*
X54730Y212155D01*
X54624Y211694D01*
X56750Y211694D02*
X56750Y209331D01*
X60766Y214646D02*
X58109Y214646D01*
X58109Y211989D01*
X59939Y211989D01*
X58109Y211989D02*
X58109Y209331D01*
X44610Y275458D02*
X45673Y276521D01*
X45673Y271206D01*
X49157Y275458D02*
X49157Y272269D01*
X49157Y275458D02*
X49052Y275920D01*
X48757Y276290D01*
X48330Y276495D01*
X47857Y276495D01*
X47431Y276290D01*
X47136Y275920D01*
X47031Y275458D01*
X47031Y272269D02*
X47031Y275458D01*
X47031Y272269D02*
X47136Y271808D01*
X47431Y271438D01*
X47857Y271233D01*
X48330Y271233D01*
X48757Y271438D01*
X49052Y271808D01*
X49157Y272269D01*
X52641Y275458D02*
X52641Y272269D01*
X52641Y275458D02*
X52536Y275920D01*
X52241Y276290D01*
X51815Y276495D01*
X51342Y276495D01*
X50915Y276290D01*
X50620Y275920D01*
X50515Y275458D01*
X50515Y272269D02*
X50515Y275458D01*
X50515Y272269D02*
X50620Y271808D01*
X50915Y271438D01*
X51342Y271233D01*
X51815Y271233D01*
X52241Y271438D01*
X52536Y271808D01*
X52641Y272269D01*
X53999Y271206D02*
X53999Y274691D01*
X56125Y273569D02*
X56020Y274030D01*
X55725Y274400D01*
X55299Y274605D01*
X54826Y274605D01*
X54400Y274400D01*
X54105Y274030D01*
X53999Y273569D01*
X56125Y273569D02*
X56125Y271206D01*
X60141Y276521D02*
X57484Y276521D01*
X57484Y273864D01*
X59314Y273864D01*
X57484Y273864D02*
X57484Y271206D01*
X14610Y240394D02*
X14715Y239933D01*
X15010Y239563D01*
X15436Y239358D01*
X15909Y239358D01*
X16335Y239563D01*
X16630Y239933D01*
X16736Y240394D01*
X16736Y241162D02*
X16736Y240394D01*
X16736Y241162D02*
X16655Y241569D01*
X16424Y241914D01*
X16079Y242144D01*
X15673Y242225D01*
X15377Y242225D02*
X15673Y242225D01*
X15377Y242225D01*
X15673Y242225D02*
X16089Y242320D01*
X16437Y242566D01*
X16664Y242927D01*
X16736Y243347D01*
X16736Y243583D02*
X16736Y243347D01*
X16736Y243583D02*
X16630Y244045D01*
X16335Y244415D01*
X15909Y244620D01*
X15436Y244620D01*
X15010Y244415D01*
X14715Y244045D01*
X14610Y243583D01*
X18094Y240394D02*
X18199Y239933D01*
X18494Y239563D01*
X18920Y239358D01*
X19393Y239358D01*
X19820Y239563D01*
X20115Y239933D01*
X20220Y240394D01*
X20220Y241162D02*
X20220Y240394D01*
X20220Y241162D02*
X20139Y241569D01*
X19909Y241914D01*
X19564Y242144D01*
X19157Y242225D01*
X18862Y242225D02*
X19157Y242225D01*
X18862Y242225D01*
X19157Y242225D02*
X19573Y242320D01*
X19921Y242566D01*
X20148Y242927D01*
X20220Y243347D01*
X20220Y243583D02*
X20220Y243347D01*
X20220Y243583D02*
X20115Y244045D01*
X19820Y244415D01*
X19393Y244620D01*
X18920Y244620D01*
X18494Y244415D01*
X18199Y244045D01*
X18094Y243583D01*
X23704Y243583D02*
X23704Y240394D01*
X23704Y243583D02*
X23599Y244045D01*
X23304Y244415D01*
X22878Y244620D01*
X22405Y244620D01*
X21978Y244415D01*
X21683Y244045D01*
X21578Y243583D01*
X21578Y240394D02*
X21578Y243583D01*
X21578Y240394D02*
X21683Y239933D01*
X21978Y239563D01*
X22405Y239358D01*
X22878Y239358D01*
X23304Y239563D01*
X23599Y239933D01*
X23704Y240394D01*
X15235Y271644D02*
X15340Y271183D01*
X15635Y270813D01*
X16061Y270608D01*
X16534Y270608D01*
X16960Y270813D01*
X17255Y271183D01*
X17361Y271644D01*
X17361Y272412D02*
X17361Y271644D01*
X17361Y272412D02*
X17280Y272819D01*
X17049Y273164D01*
X16704Y273394D01*
X16298Y273475D01*
X16002Y273475D02*
X16298Y273475D01*
X16002Y273475D01*
X16298Y273475D02*
X16714Y273570D01*
X17062Y273816D01*
X17289Y274177D01*
X17361Y274597D01*
X17361Y274833D02*
X17361Y274597D01*
X17361Y274833D02*
X17255Y275295D01*
X16960Y275665D01*
X16534Y275870D01*
X16061Y275870D01*
X15635Y275665D01*
X15340Y275295D01*
X15235Y274833D01*
X18719Y271644D02*
X18824Y271183D01*
X19119Y270813D01*
X19545Y270608D01*
X20018Y270608D01*
X20445Y270813D01*
X20740Y271183D01*
X20845Y271644D01*
X20845Y272412D02*
X20845Y271644D01*
X20845Y272412D02*
X20764Y272819D01*
X20534Y273164D01*
X20189Y273394D01*
X19782Y273475D01*
X19487Y273475D02*
X19782Y273475D01*
X19487Y273475D01*
X19782Y273475D02*
X20198Y273570D01*
X20546Y273816D01*
X20773Y274177D01*
X20845Y274597D01*
X20845Y274833D02*
X20845Y274597D01*
X20845Y274833D02*
X20740Y275295D01*
X20445Y275665D01*
X20018Y275870D01*
X19545Y275870D01*
X19119Y275665D01*
X18824Y275295D01*
X18719Y274833D01*
X24329Y274833D02*
X24329Y271644D01*
X24329Y274833D02*
X24224Y275295D01*
X23929Y275665D01*
X23503Y275870D01*
X23030Y275870D01*
X22603Y275665D01*
X22308Y275295D01*
X22203Y274833D01*
X22203Y271644D02*
X22203Y274833D01*
X22203Y271644D02*
X22308Y271183D01*
X22603Y270813D01*
X23030Y270608D01*
X23503Y270608D01*
X23929Y270813D01*
X24224Y271183D01*
X24329Y271644D01*
X15235Y301644D02*
X15340Y301183D01*
X15635Y300813D01*
X16061Y300608D01*
X16534Y300608D01*
X16960Y300813D01*
X17255Y301183D01*
X17361Y301644D01*
X17361Y302412D02*
X17361Y301644D01*
X17361Y302412D02*
X17280Y302819D01*
X17049Y303164D01*
X16704Y303394D01*
X16298Y303475D01*
X16002Y303475D02*
X16298Y303475D01*
X16002Y303475D01*
X16298Y303475D02*
X16714Y303570D01*
X17062Y303816D01*
X17289Y304177D01*
X17361Y304597D01*
X17361Y304833D02*
X17361Y304597D01*
X17361Y304833D02*
X17255Y305295D01*
X16960Y305665D01*
X16534Y305870D01*
X16061Y305870D01*
X15635Y305665D01*
X15340Y305295D01*
X15235Y304833D01*
X18719Y301644D02*
X18824Y301183D01*
X19119Y300813D01*
X19545Y300608D01*
X20018Y300608D01*
X20445Y300813D01*
X20740Y301183D01*
X20845Y301644D01*
X20845Y302412D02*
X20845Y301644D01*
X20845Y302412D02*
X20764Y302819D01*
X20534Y303164D01*
X20189Y303394D01*
X19782Y303475D01*
X19487Y303475D02*
X19782Y303475D01*
X19487Y303475D01*
X19782Y303475D02*
X20198Y303570D01*
X20546Y303816D01*
X20773Y304177D01*
X20845Y304597D01*
X20845Y304833D02*
X20845Y304597D01*
X20845Y304833D02*
X20740Y305295D01*
X20445Y305665D01*
X20018Y305870D01*
X19545Y305870D01*
X19119Y305665D01*
X18824Y305295D01*
X18719Y304833D01*
X24329Y304833D02*
X24329Y301644D01*
X24329Y304833D02*
X24224Y305295D01*
X23929Y305665D01*
X23503Y305870D01*
X23030Y305870D01*
X22603Y305665D01*
X22308Y305295D01*
X22203Y304833D01*
X22203Y301644D02*
X22203Y304833D01*
X22203Y301644D02*
X22308Y301183D01*
X22603Y300813D01*
X23030Y300608D01*
X23503Y300608D01*
X23929Y300813D01*
X24224Y301183D01*
X24329Y301644D01*
X41079Y105862D02*
X40016Y106925D01*
X45331Y106925D01*
X41079Y110409D02*
X44268Y110409D01*
X41079Y110409D02*
X40617Y110304D01*
X40247Y110009D01*
X40042Y109583D01*
X40042Y109109D01*
X40247Y108683D01*
X40617Y108388D01*
X41079Y108283D01*
X44268Y108283D02*
X41079Y108283D01*
X44268Y108283D02*
X44729Y108388D01*
X45099Y108683D01*
X45304Y109109D01*
X45304Y109583D01*
X45099Y110009D01*
X44729Y110304D01*
X44268Y110409D01*
X45331Y111767D02*
X40016Y111767D01*
X43500Y111767D02*
X40016Y114425D01*
X42142Y112830D02*
X45331Y114425D01*
X52329Y105862D02*
X51266Y106925D01*
X56581Y106925D01*
X52329Y110409D02*
X55518Y110409D01*
X52329Y110409D02*
X51867Y110304D01*
X51497Y110009D01*
X51292Y109583D01*
X51292Y109109D01*
X51497Y108683D01*
X51867Y108388D01*
X52329Y108283D01*
X55518Y108283D02*
X52329Y108283D01*
X55518Y108283D02*
X55979Y108388D01*
X56349Y108683D01*
X56554Y109109D01*
X56554Y109583D01*
X56349Y110009D01*
X55979Y110304D01*
X55518Y110409D01*
X56581Y111767D02*
X51266Y111767D01*
X54750Y111767D02*
X51266Y114425D01*
X53392Y112830D02*
X56581Y114425D01*
X62329Y105862D02*
X61266Y106925D01*
X66581Y106925D01*
X62329Y110409D02*
X65518Y110409D01*
X62329Y110409D02*
X61867Y110304D01*
X61497Y110009D01*
X61292Y109583D01*
X61292Y109109D01*
X61497Y108683D01*
X61867Y108388D01*
X62329Y108283D01*
X65518Y108283D02*
X62329Y108283D01*
X65518Y108283D02*
X65979Y108388D01*
X66349Y108683D01*
X66554Y109109D01*
X66554Y109583D01*
X66349Y110009D01*
X65979Y110304D01*
X65518Y110409D01*
X66581Y111767D02*
X61266Y111767D01*
X64750Y111767D02*
X61266Y114425D01*
X63392Y112830D02*
X66581Y114425D01*
X40255Y70236D02*
X40165Y70747D01*
X39887Y71184D01*
X39462Y71482D01*
X38956Y71594D01*
X40255Y70236D02*
X40255Y68937D01*
X34940Y68937D01*
X34940Y70236D01*
X36239Y71594D02*
X35733Y71482D01*
X35308Y71184D01*
X35030Y70747D01*
X34940Y70236D01*
X36239Y71594D02*
X38956Y71594D01*
X36003Y75079D02*
X35542Y74973D01*
X35172Y74678D01*
X34966Y74252D01*
X34966Y73779D01*
X35172Y73353D01*
X35542Y73058D01*
X36003Y72953D01*
X39192Y72953D01*
X39653Y73058D01*
X40023Y73353D01*
X40228Y73779D01*
X40228Y74252D01*
X40023Y74678D01*
X39653Y74973D01*
X39192Y75079D01*
X38129Y75079D01*
X37668Y74973D01*
X37298Y74678D01*
X37092Y74252D01*
X37092Y73779D01*
X37298Y73353D01*
X37668Y73058D01*
X38129Y72953D01*
X28380Y70236D02*
X28290Y70747D01*
X28012Y71184D01*
X27587Y71482D01*
X27081Y71594D01*
X28380Y70236D02*
X28380Y68937D01*
X23065Y68937D01*
X23065Y70236D01*
X24364Y71594D02*
X23858Y71482D01*
X23433Y71184D01*
X23155Y70747D01*
X23065Y70236D01*
X24364Y71594D02*
X27081Y71594D01*
X23833Y72953D02*
X23065Y72953D01*
X23065Y75079D01*
X28380Y73484D01*
X15880Y70236D02*
X15790Y70747D01*
X15512Y71184D01*
X15087Y71482D01*
X14581Y71594D01*
X15880Y70236D02*
X15880Y68937D01*
X10565Y68937D01*
X10565Y70236D01*
X11864Y71594D02*
X11358Y71482D01*
X10933Y71184D01*
X10655Y70747D01*
X10565Y70236D01*
X11864Y71594D02*
X14581Y71594D01*
X14049Y75079D02*
X14817Y75079D01*
X14049Y75079D02*
X13588Y74973D01*
X13218Y74678D01*
X13013Y74252D01*
X13013Y73779D01*
X13218Y73353D01*
X13588Y73058D01*
X14049Y72953D01*
X14817Y72953D02*
X14049Y72953D01*
X14817Y72953D02*
X15278Y73058D01*
X15648Y73353D01*
X15853Y73779D01*
X15853Y74252D01*
X15648Y74678D01*
X15278Y74973D01*
X14817Y75079D01*
X11628Y75079D02*
X11864Y75079D01*
X11628Y75079D02*
X11167Y74973D01*
X10797Y74678D01*
X10591Y74252D01*
X10591Y73779D01*
X10797Y73353D01*
X11167Y73058D01*
X11628Y72953D01*
X11864Y72953D02*
X11628Y72953D01*
X11864Y72953D02*
X12325Y73058D01*
X12695Y73353D01*
X12900Y73779D01*
X12900Y74252D01*
X12695Y74678D01*
X12325Y74973D01*
X11864Y75079D01*
X156485Y308583D02*
X157548Y309646D01*
X157548Y304331D01*
X161032Y308583D02*
X161032Y305394D01*
X161032Y308583D02*
X160927Y309045D01*
X160632Y309415D01*
X160205Y309620D01*
X159732Y309620D01*
X159306Y309415D01*
X159011Y309045D01*
X158906Y308583D01*
X158906Y305394D02*
X158906Y308583D01*
X158906Y305394D02*
X159011Y304933D01*
X159306Y304563D01*
X159732Y304358D01*
X160205Y304358D01*
X160632Y304563D01*
X160927Y304933D01*
X161032Y305394D01*
X162390Y304331D02*
X162390Y309646D01*
X162390Y306162D02*
X165048Y309646D01*
X163453Y307520D02*
X165048Y304331D01*
X125860Y337958D02*
X126923Y339021D01*
X126923Y333706D01*
X130407Y337958D02*
X130407Y334769D01*
X130407Y337958D02*
X130302Y338420D01*
X130007Y338790D01*
X129580Y338995D01*
X129107Y338995D01*
X128681Y338790D01*
X128386Y338420D01*
X128281Y337958D01*
X128281Y334769D02*
X128281Y337958D01*
X128281Y334769D02*
X128386Y334308D01*
X128681Y333938D01*
X129107Y333733D01*
X129580Y333733D01*
X130007Y333938D01*
X130302Y334308D01*
X130407Y334769D01*
X131765Y333706D02*
X131765Y339021D01*
X131765Y335537D02*
X134423Y339021D01*
X132828Y336895D02*
X134423Y333706D01*
X96485Y327958D02*
X97548Y329021D01*
X97548Y323706D01*
X101032Y327958D02*
X101032Y324769D01*
X101032Y327958D02*
X100927Y328420D01*
X100632Y328790D01*
X100205Y328995D01*
X99732Y328995D01*
X99306Y328790D01*
X99011Y328420D01*
X98906Y327958D01*
X98906Y324769D02*
X98906Y327958D01*
X98906Y324769D02*
X99011Y324308D01*
X99306Y323938D01*
X99732Y323733D01*
X100205Y323733D01*
X100632Y323938D01*
X100927Y324308D01*
X101032Y324769D01*
X102390Y323706D02*
X102390Y329021D01*
X102390Y325537D02*
X105048Y329021D01*
X103453Y326895D02*
X105048Y323706D01*
X382160Y22787D02*
X387475Y24087D01*
X382160Y25445D01*
X385644Y26803D02*
X385644Y28929D01*
X385113Y28929D01*
X384651Y28824D01*
X384282Y28529D01*
X384076Y28103D01*
X384076Y27630D01*
X384282Y27203D01*
X384651Y26908D01*
X385113Y26803D01*
X386412Y26803D01*
X386891Y26917D01*
X387267Y27234D01*
X387461Y27687D01*
X387429Y28179D01*
X387180Y28603D01*
X386766Y28870D01*
X387475Y30287D02*
X383991Y30287D01*
X384227Y31646D02*
X384037Y31323D01*
X384014Y30950D01*
X384163Y30606D01*
X384452Y30368D01*
X384817Y30287D01*
X386707Y33004D02*
X387091Y33107D01*
X387372Y33388D01*
X387475Y33772D01*
X387475Y34303D01*
X387383Y34706D01*
X387102Y35008D01*
X386707Y35130D01*
X386412Y35130D01*
X386017Y35008D01*
X385736Y34706D01*
X385644Y34303D01*
X385644Y33772D01*
X383991Y33772D02*
X384101Y33358D01*
X384404Y33056D01*
X384817Y32945D01*
X385231Y33056D01*
X385533Y33358D01*
X385644Y33772D01*
X383991Y33772D02*
X383991Y34303D01*
X384817Y35130D02*
X384404Y35019D01*
X384101Y34717D01*
X383991Y34303D01*
X387475Y36488D02*
X383754Y36488D01*
X382691Y36488D02*
X382160Y36488D01*
X385113Y39972D02*
X386412Y39972D01*
X385113Y39972D02*
X384651Y39867D01*
X384282Y39572D01*
X384076Y39146D01*
X384076Y38673D01*
X384282Y38247D01*
X384651Y37952D01*
X385113Y37846D01*
X386412Y37846D02*
X385113Y37846D01*
X386412Y37846D02*
X386873Y37952D01*
X387243Y38247D01*
X387448Y38673D01*
X387448Y39146D01*
X387243Y39572D01*
X386873Y39867D01*
X386412Y39972D01*
X387475Y41331D02*
X383991Y41331D01*
X385113Y43457D02*
X384651Y43351D01*
X384282Y43056D01*
X384076Y42630D01*
X384076Y42157D01*
X384282Y41731D01*
X384651Y41436D01*
X385113Y41331D01*
X385113Y43457D02*
X387475Y43457D01*
X387475Y47354D02*
X382160Y47354D01*
X386412Y47354D02*
X386873Y47460D01*
X387243Y47755D01*
X387448Y48181D01*
X387448Y48654D01*
X387243Y49080D01*
X386873Y49375D01*
X386412Y49480D01*
X385113Y49480D02*
X386412Y49480D01*
X385113Y49480D02*
X384651Y49375D01*
X384282Y49080D01*
X384076Y48654D01*
X384076Y48181D01*
X384282Y47755D01*
X384651Y47460D01*
X385113Y47354D01*
X383223Y52965D02*
X386412Y52965D01*
X383223Y52965D02*
X382762Y52859D01*
X382392Y52564D01*
X382187Y52138D01*
X382187Y51665D01*
X382392Y51239D01*
X382762Y50944D01*
X383223Y50839D01*
X386412Y50839D02*
X383223Y50839D01*
X386412Y50839D02*
X386873Y50944D01*
X387243Y51239D01*
X387448Y51665D01*
X387448Y52138D01*
X387243Y52564D01*
X386873Y52859D01*
X386412Y52965D01*
X386943Y54323D02*
X387475Y54323D01*
X383223Y57807D02*
X382762Y57702D01*
X382392Y57407D01*
X382187Y56981D01*
X382187Y56508D01*
X382392Y56081D01*
X382762Y55786D01*
X383223Y55681D01*
X383223Y57807D02*
X387475Y55681D01*
X387475Y57807D01*
X384817Y61705D02*
X384817Y64067D01*
X383459Y70593D02*
X382951Y70491D01*
X382520Y70203D01*
X382232Y69772D01*
X382130Y69264D01*
X382232Y68755D01*
X382520Y68324D01*
X382951Y68036D01*
X383459Y67935D01*
X383459Y67965D02*
X386176Y67965D01*
X386176Y67935D02*
X386684Y68036D01*
X387115Y68324D01*
X387403Y68755D01*
X387504Y69264D01*
X387403Y69772D01*
X387115Y70203D01*
X386684Y70491D01*
X386176Y70593D01*
X383459Y74608D02*
X382951Y74507D01*
X382520Y74219D01*
X382232Y73788D01*
X382130Y73280D01*
X382232Y72771D01*
X382520Y72340D01*
X382951Y72052D01*
X383459Y71951D01*
X383459Y71980D02*
X386176Y71980D01*
X386176Y71951D02*
X386684Y72052D01*
X387115Y72340D01*
X387403Y72771D01*
X387504Y73280D01*
X387403Y73788D01*
X387115Y74219D01*
X386684Y74507D01*
X386176Y74608D01*
X384817Y79835D02*
X384817Y78535D01*
X384788Y79835D02*
X384687Y80343D01*
X384399Y80774D01*
X383968Y81062D01*
X383459Y81163D01*
X382951Y81062D01*
X382520Y80774D01*
X382232Y80343D01*
X382130Y79835D01*
X382160Y78535D02*
X382160Y79835D01*
X387475Y78535D02*
X382160Y78535D01*
X387475Y79835D02*
X387475Y78535D01*
X387504Y79835D02*
X387403Y80343D01*
X387115Y80774D01*
X386684Y81062D01*
X386176Y81163D01*
X385667Y81062D01*
X385236Y80774D01*
X384948Y80343D01*
X384847Y79835D01*
X382160Y82551D02*
X385644Y83850D01*
X382160Y85209D01*
X385644Y83850D02*
X387475Y83850D01*
X384817Y86567D02*
X384817Y88929D01*
X387475Y90287D02*
X382160Y90287D01*
X387475Y92945D01*
X382160Y92945D01*
X383459Y96931D02*
X382951Y96830D01*
X382520Y96542D01*
X382232Y96111D01*
X382130Y95602D01*
X382232Y95094D01*
X382520Y94663D01*
X382951Y94375D01*
X383459Y94274D01*
X383459Y94303D02*
X386176Y94303D01*
X386176Y94274D02*
X386684Y94375D01*
X387115Y94663D01*
X387403Y95094D01*
X387504Y95602D01*
X387403Y96111D01*
X387115Y96542D01*
X386684Y96830D01*
X386176Y96931D01*
X384817Y98319D02*
X384817Y100681D01*
X383459Y104697D02*
X382895Y104574D01*
X382433Y104228D01*
X382156Y103721D01*
X382115Y103145D01*
X382317Y102604D01*
X382725Y102196D01*
X383266Y101994D01*
X383842Y102035D01*
X384349Y102312D01*
X384695Y102774D01*
X384817Y103339D01*
X386176Y102039D02*
X386725Y102172D01*
X387169Y102520D01*
X387429Y103022D01*
X387457Y103586D01*
X387247Y104111D01*
X386839Y104501D01*
X386306Y104687D01*
X385743Y104634D01*
X385254Y104353D01*
X384925Y103893D01*
X384817Y103339D01*
X387475Y106055D02*
X382160Y107886D01*
X387475Y109776D01*
X385880Y106587D02*
X385880Y109244D01*
X386412Y113673D02*
X386873Y113778D01*
X387243Y114073D01*
X387448Y114500D01*
X387448Y114973D01*
X387243Y115399D01*
X386873Y115694D01*
X386412Y115799D01*
X385644Y115799D02*
X386412Y115799D01*
X385644Y115799D02*
X385237Y115718D01*
X384893Y115488D01*
X384662Y115143D01*
X384581Y114736D01*
X384581Y114441D02*
X384581Y114736D01*
X384581Y114441D01*
X384581Y114736D02*
X384487Y115152D01*
X384240Y115500D01*
X383880Y115727D01*
X383459Y115799D01*
X383223Y115799D02*
X383459Y115799D01*
X383223Y115799D02*
X382762Y115694D01*
X382392Y115399D01*
X382187Y114973D01*
X382187Y114500D01*
X382392Y114073D01*
X382762Y113778D01*
X383223Y113673D01*
X386943Y117157D02*
X387475Y117157D01*
X383223Y120642D02*
X386412Y120642D01*
X383223Y120642D02*
X382762Y120536D01*
X382392Y120241D01*
X382187Y119815D01*
X382187Y119342D01*
X382392Y118916D01*
X382762Y118621D01*
X383223Y118516D01*
X386412Y118516D02*
X383223Y118516D01*
X386412Y118516D02*
X386873Y118621D01*
X387243Y118916D01*
X387448Y119342D01*
X387448Y119815D01*
X387243Y120241D01*
X386873Y120536D01*
X386412Y120642D01*
X382160Y124539D02*
X386707Y124539D01*
X387091Y124642D01*
X387372Y124923D01*
X387475Y125307D01*
X387475Y126665D02*
X383754Y126665D01*
X382691Y126665D02*
X382160Y126665D01*
X385113Y130150D02*
X384651Y130044D01*
X384282Y129749D01*
X384076Y129323D01*
X384076Y128850D01*
X384282Y128424D01*
X384651Y128129D01*
X385113Y128024D01*
X386412Y128024D01*
X386873Y128129D01*
X387243Y128424D01*
X387448Y128850D01*
X387448Y129323D01*
X387243Y129749D01*
X386873Y130044D01*
X386412Y130150D01*
X385644Y131508D02*
X385644Y133634D01*
X385113Y133634D01*
X384651Y133529D01*
X384282Y133234D01*
X384076Y132807D01*
X384076Y132334D01*
X384282Y131908D01*
X384651Y131613D01*
X385113Y131508D01*
X386412Y131508D01*
X386891Y131622D01*
X387267Y131939D01*
X387461Y132392D01*
X387429Y132883D01*
X387180Y133308D01*
X386766Y133575D01*
X387475Y134992D02*
X383991Y134992D01*
X385113Y137118D02*
X384651Y137013D01*
X384282Y136718D01*
X384076Y136292D01*
X384076Y135819D01*
X384282Y135392D01*
X384651Y135097D01*
X385113Y134992D01*
X385113Y137118D02*
X387475Y137118D01*
X386707Y138476D02*
X387091Y138579D01*
X387372Y138860D01*
X387475Y139244D01*
X387475Y139776D01*
X387383Y140178D01*
X387102Y140481D01*
X386707Y140602D01*
X386412Y140602D01*
X386017Y140481D01*
X385736Y140178D01*
X385644Y139776D01*
X385644Y139244D01*
X383991Y139244D02*
X384101Y138831D01*
X384404Y138528D01*
X384817Y138417D01*
X385231Y138528D01*
X385533Y138831D01*
X385644Y139244D01*
X383991Y139244D02*
X383991Y139776D01*
X384817Y140602D02*
X384404Y140492D01*
X384101Y140189D01*
X383991Y139776D01*
X385644Y141961D02*
X385644Y144087D01*
X385113Y144087D01*
X384651Y143981D01*
X384282Y143686D01*
X384076Y143260D01*
X384076Y142787D01*
X384282Y142361D01*
X384651Y142066D01*
X385113Y141961D01*
X386412Y141961D01*
X386891Y142074D01*
X387267Y142392D01*
X387461Y142845D01*
X387429Y143336D01*
X387180Y143761D01*
X386766Y144028D01*
X8070Y42524D02*
X8172Y42016D01*
X8460Y41585D01*
X8891Y41297D01*
X9399Y41195D01*
X9908Y41297D01*
X10339Y41585D01*
X10627Y42016D01*
X10728Y42524D01*
X10757Y42524D02*
X10757Y45241D01*
X10728Y45241D02*
X10627Y45749D01*
X10339Y46180D01*
X9908Y46468D01*
X9399Y46569D01*
X8891Y46468D01*
X8460Y46180D01*
X8172Y45749D01*
X8070Y45241D01*
X8100Y45241D02*
X8100Y42524D01*
X12116Y44709D02*
X12116Y42288D01*
X12221Y41827D01*
X12516Y41457D01*
X12942Y41252D01*
X13415Y41252D01*
X13841Y41457D01*
X14136Y41827D01*
X14242Y42288D01*
X14242Y44709D02*
X14242Y41225D01*
X15600Y44709D02*
X17194Y44709D01*
X16368Y46540D02*
X16368Y41993D01*
X16489Y41598D01*
X16792Y41317D01*
X17194Y41225D01*
X18553Y39630D02*
X18553Y44709D01*
X18553Y42288D02*
X18658Y41827D01*
X18953Y41457D01*
X19379Y41252D01*
X19852Y41252D01*
X20278Y41457D01*
X20573Y41827D01*
X20679Y42288D01*
X20679Y43587D02*
X20679Y42288D01*
X20679Y43587D02*
X20573Y44048D01*
X20278Y44418D01*
X19852Y44623D01*
X19379Y44623D01*
X18953Y44418D01*
X18658Y44048D01*
X18553Y43587D01*
X22037Y44709D02*
X22037Y42288D01*
X22142Y41827D01*
X22437Y41457D01*
X22863Y41252D01*
X23336Y41252D01*
X23763Y41457D01*
X24058Y41827D01*
X24163Y42288D01*
X24163Y44709D02*
X24163Y41225D01*
X25521Y44709D02*
X27116Y44709D01*
X26289Y46540D02*
X26289Y41993D01*
X26410Y41598D01*
X26713Y41317D01*
X27116Y41225D01*
X31013Y46540D02*
X31013Y41225D01*
X33375Y41225D01*
X37391Y46540D02*
X34734Y46540D01*
X34734Y43882D01*
X36564Y43882D01*
X34734Y43882D02*
X34734Y41225D01*
X37391Y41225D01*
X40049Y41225D02*
X40559Y41315D01*
X40997Y41593D01*
X41295Y42018D01*
X41407Y42524D01*
X40049Y41225D02*
X38750Y41225D01*
X38750Y46540D01*
X40049Y46540D01*
X41407Y45241D02*
X41295Y45747D01*
X40997Y46172D01*
X40559Y46450D01*
X40049Y46540D01*
X41407Y45241D02*
X41407Y42524D01*
X42765Y41993D02*
X42868Y41609D01*
X43149Y41328D01*
X43533Y41225D01*
X44064Y41225D01*
X44467Y41317D01*
X44770Y41598D01*
X44891Y41993D01*
X44891Y42288D01*
X44770Y42683D01*
X44467Y42964D01*
X44064Y43056D01*
X43533Y43056D01*
X43533Y44709D02*
X43120Y44598D01*
X42817Y44296D01*
X42706Y43882D01*
X42817Y43469D01*
X43120Y43166D01*
X43533Y43056D01*
X43533Y44709D02*
X44064Y44709D01*
X44891Y43882D02*
X44780Y44296D01*
X44478Y44598D01*
X44064Y44709D01*
X338257Y313366D02*
X338135Y313930D01*
X337789Y314392D01*
X337282Y314669D01*
X336706Y314710D01*
X336165Y314508D01*
X335756Y314100D01*
X335555Y313559D01*
X335596Y312983D01*
X335873Y312476D01*
X336335Y312130D01*
X336899Y312007D01*
X335600Y310649D02*
X335732Y310100D01*
X336081Y309656D01*
X336583Y309396D01*
X337147Y309368D01*
X337671Y309577D01*
X338062Y309986D01*
X338247Y310519D01*
X338195Y311081D01*
X337913Y311571D01*
X337454Y311899D01*
X336899Y312007D01*
X339616Y312834D02*
X341210Y312834D01*
X340383Y314665D02*
X340383Y310118D01*
X340505Y309723D01*
X340807Y309442D01*
X341210Y309350D01*
X344694Y311712D02*
X344589Y312173D01*
X344294Y312543D01*
X343868Y312748D01*
X343395Y312748D01*
X342969Y312543D01*
X342674Y312173D01*
X342568Y311712D01*
X343868Y310944D02*
X344270Y311036D01*
X344573Y311317D01*
X344694Y311712D01*
X343868Y310944D02*
X343336Y310944D01*
X343336Y310915D02*
X342937Y310808D01*
X342646Y310516D01*
X342539Y310118D01*
X342646Y309719D01*
X342937Y309427D01*
X343336Y309320D01*
X343336Y309350D02*
X343868Y309350D01*
X344270Y309442D01*
X344573Y309723D01*
X344694Y310118D01*
X344694Y311712D02*
X344694Y309881D01*
X345226Y309350D01*
X346584Y312834D02*
X348179Y312834D01*
X347352Y314665D02*
X347352Y310118D01*
X347473Y309723D01*
X347776Y309442D01*
X348179Y309350D01*
X349537Y312834D02*
X349537Y310413D01*
X349642Y309952D01*
X349937Y309582D01*
X350363Y309377D01*
X350836Y309377D01*
X351263Y309582D01*
X351558Y309952D01*
X351663Y310413D01*
X351663Y312834D02*
X351663Y309350D01*
X353021Y310118D02*
X353124Y309734D01*
X353405Y309453D01*
X353789Y309350D01*
X354320Y309350D01*
X354723Y309442D01*
X355026Y309723D01*
X355147Y310118D01*
X355147Y310413D01*
X355026Y310808D01*
X354723Y311089D01*
X354320Y311181D01*
X353789Y311181D01*
X353789Y312834D02*
X353375Y312723D01*
X353073Y312421D01*
X352962Y312007D01*
X353073Y311594D01*
X353375Y311291D01*
X353789Y311181D01*
X353789Y312834D02*
X354320Y312834D01*
X355147Y312007D02*
X355036Y312421D01*
X354734Y312723D01*
X354320Y312834D01*
X359045Y314665D02*
X359045Y309350D01*
X361407Y309350D01*
X365423Y314665D02*
X362765Y314665D01*
X362765Y312007D01*
X364596Y312007D01*
X362765Y312007D02*
X362765Y309350D01*
X365423Y309350D01*
X368080Y309350D02*
X368591Y309440D01*
X369029Y309718D01*
X369326Y310143D01*
X369438Y310649D01*
X368080Y309350D02*
X366781Y309350D01*
X366781Y314665D01*
X368080Y314665D01*
X369438Y313366D02*
X369326Y313872D01*
X369029Y314297D01*
X368591Y314575D01*
X368080Y314665D01*
X369438Y313366D02*
X369438Y310649D01*
X370797Y310118D02*
X370900Y309734D01*
X371181Y309453D01*
X371564Y309350D01*
X372096Y309350D01*
X372499Y309442D01*
X372801Y309723D01*
X372923Y310118D01*
X372923Y310413D01*
X372801Y310808D01*
X372499Y311089D01*
X372096Y311181D01*
X371564Y311181D01*
X371564Y312834D02*
X371151Y312723D01*
X370848Y312421D01*
X370738Y312007D01*
X370848Y311594D01*
X371151Y311291D01*
X371564Y311181D01*
X371564Y312834D02*
X372096Y312834D01*
X372923Y312007D02*
X372812Y312421D01*
X372509Y312723D01*
X372096Y312834D01*
X36850Y96850D02*
X36850Y99507D01*
X38149Y99507D01*
X38149Y99537D02*
X38658Y99638D01*
X39089Y99926D01*
X39377Y100357D01*
X39478Y100866D01*
X39377Y101374D01*
X39089Y101805D01*
X38658Y102093D01*
X38149Y102194D01*
X38149Y102165D02*
X36850Y102165D01*
X36850Y99507D01*
X40866Y100334D02*
X40866Y97913D01*
X40971Y97452D01*
X41266Y97082D01*
X41692Y96877D01*
X42165Y96877D01*
X42591Y97082D01*
X42886Y97452D01*
X42992Y97913D01*
X42992Y100334D02*
X42992Y96850D01*
X44350Y102165D02*
X44350Y97618D01*
X44453Y97234D01*
X44734Y96953D01*
X45118Y96850D01*
X46476Y102165D02*
X46476Y97618D01*
X46579Y97234D01*
X46860Y96953D01*
X47244Y96850D01*
X48602Y100334D02*
X48602Y97913D01*
X48707Y97452D01*
X49002Y97082D01*
X49428Y96877D01*
X49901Y96877D01*
X50328Y97082D01*
X50623Y97452D01*
X50728Y97913D01*
X50728Y100334D02*
X50728Y96850D01*
X52086Y95255D02*
X52086Y100334D01*
X52086Y97913D02*
X52191Y97452D01*
X52486Y97082D01*
X52913Y96877D01*
X53386Y96877D01*
X53812Y97082D01*
X54107Y97452D01*
X54212Y97913D01*
X54212Y99212D02*
X54212Y97913D01*
X54212Y99212D02*
X54107Y99673D01*
X53812Y100043D01*
X53386Y100248D01*
X52913Y100248D01*
X52486Y100043D01*
X52191Y99673D01*
X52086Y99212D01*
X60236Y99212D02*
X60236Y97913D01*
X60236Y99212D02*
X60130Y99673D01*
X59835Y100043D01*
X59409Y100248D01*
X58936Y100248D01*
X58510Y100043D01*
X58215Y99673D01*
X58110Y99212D01*
X58110Y97913D02*
X58110Y99212D01*
X58110Y97913D02*
X58215Y97452D01*
X58510Y97082D01*
X58936Y96877D01*
X59409Y96877D01*
X59835Y97082D01*
X60130Y97452D01*
X60236Y97913D01*
X61594Y100334D02*
X61594Y97913D01*
X61699Y97452D01*
X61994Y97082D01*
X62420Y96877D01*
X62894Y96877D01*
X63320Y97082D01*
X63615Y97452D01*
X63720Y97913D01*
X63720Y100334D02*
X63720Y96850D01*
X65078Y100334D02*
X66673Y100334D01*
X65846Y102165D02*
X65846Y97618D01*
X65967Y97223D01*
X66270Y96942D01*
X66673Y96850D01*
X68031Y95255D02*
X68031Y100334D01*
X68031Y97913D02*
X68136Y97452D01*
X68431Y97082D01*
X68857Y96877D01*
X69331Y96877D01*
X69757Y97082D01*
X70052Y97452D01*
X70157Y97913D01*
X70157Y99212D02*
X70157Y97913D01*
X70157Y99212D02*
X70052Y99673D01*
X69757Y100043D01*
X69331Y100248D01*
X68857Y100248D01*
X68431Y100043D01*
X68136Y99673D01*
X68031Y99212D01*
X71515Y100334D02*
X71515Y97913D01*
X71621Y97452D01*
X71915Y97082D01*
X72342Y96877D01*
X72815Y96877D01*
X73241Y97082D01*
X73536Y97452D01*
X73641Y97913D01*
X73641Y100334D02*
X73641Y96850D01*
X75000Y100334D02*
X76594Y100334D01*
X75767Y102165D02*
X75767Y97618D01*
X75889Y97223D01*
X76191Y96942D01*
X76594Y96850D01*
X76377Y335777D02*
X76690Y336100D01*
X76842Y336523D01*
X76805Y336971D01*
X76587Y337363D01*
X76226Y337631D01*
X75787Y337726D01*
X74724Y337726D01*
X74263Y337621D01*
X73893Y337326D01*
X73688Y336899D01*
X73688Y336426D01*
X73893Y336000D01*
X74263Y335705D01*
X74724Y335600D01*
X71535Y335600D01*
X71535Y337726D01*
X71535Y339084D02*
X76850Y340383D01*
X71535Y341742D01*
X232209Y333228D02*
X231701Y333127D01*
X231270Y332839D01*
X230982Y332408D01*
X230880Y331899D01*
X230982Y331391D01*
X231270Y330960D01*
X231701Y330672D01*
X232209Y330570D01*
X232209Y330600D02*
X234926Y330600D01*
X234926Y330570D02*
X235434Y330672D01*
X235865Y330960D01*
X236153Y331391D01*
X236254Y331899D01*
X236153Y332408D01*
X235865Y332839D01*
X235434Y333127D01*
X234926Y333228D01*
X234926Y333257D02*
X233567Y333257D01*
X233567Y331899D01*
X236225Y334616D02*
X230910Y334616D01*
X236225Y337273D01*
X230910Y337273D01*
X236225Y339931D02*
X236135Y340441D01*
X235857Y340879D01*
X235432Y341177D01*
X234926Y341289D01*
X236225Y339931D02*
X236225Y338631D01*
X230910Y338631D01*
X230910Y339931D01*
X232209Y341289D02*
X231703Y341177D01*
X231278Y340879D01*
X231000Y340441D01*
X230910Y339931D01*
X232209Y341289D02*
X234926Y341289D01*
X62209Y333853D02*
X61701Y333752D01*
X61270Y333464D01*
X60982Y333033D01*
X60880Y332524D01*
X60982Y332016D01*
X61270Y331585D01*
X61701Y331297D01*
X62209Y331195D01*
X62209Y331225D02*
X64926Y331225D01*
X64926Y331195D02*
X65434Y331297D01*
X65865Y331585D01*
X66153Y332016D01*
X66254Y332524D01*
X66153Y333033D01*
X65865Y333464D01*
X65434Y333752D01*
X64926Y333853D01*
X64926Y333882D02*
X63567Y333882D01*
X63567Y332524D01*
X66225Y335241D02*
X60910Y335241D01*
X66225Y337898D01*
X60910Y337898D01*
X66225Y340556D02*
X66135Y341066D01*
X65857Y341504D01*
X65432Y341802D01*
X64926Y341914D01*
X66225Y340556D02*
X66225Y339256D01*
X60910Y339256D01*
X60910Y340556D01*
X62209Y341914D02*
X61703Y341802D01*
X61278Y341504D01*
X61000Y341066D01*
X60910Y340556D01*
X62209Y341914D02*
X64926Y341914D01*
X323056Y198085D02*
X322954Y198594D01*
X322666Y199025D01*
X322235Y199313D01*
X321727Y199414D01*
X321218Y199313D01*
X320787Y199025D01*
X320499Y198594D01*
X320398Y198085D01*
X320428Y198085D02*
X320428Y195369D01*
X320398Y195369D02*
X320499Y194860D01*
X320787Y194429D01*
X321218Y194141D01*
X321727Y194040D01*
X322235Y194141D01*
X322666Y194429D01*
X322954Y194860D01*
X323056Y195369D01*
X323085Y195369D02*
X323085Y196727D01*
X321727Y196727D01*
X324443Y194069D02*
X324443Y199384D01*
X327101Y194069D01*
X327101Y199384D01*
X329758Y194069D02*
X330269Y194159D01*
X330707Y194438D01*
X331004Y194862D01*
X331117Y195369D01*
X329758Y194069D02*
X328459Y194069D01*
X328459Y199384D01*
X329758Y199384D01*
X331117Y198085D02*
X331004Y198591D01*
X330707Y199016D01*
X330269Y199295D01*
X329758Y199384D01*
X331117Y198085D02*
X331117Y195369D01*
G54D14*
X45871Y45423D02*
X45228Y45305D01*
X44670Y44967D01*
X44267Y44453D01*
X44073Y43830D01*
X44112Y43178D01*
X44380Y42583D01*
X44842Y42121D01*
X45437Y41853D01*
X46089Y41814D01*
X46712Y42008D01*
X47226Y42411D01*
X47564Y42970D01*
X47682Y43612D01*
X49493Y41879D02*
X50167Y42029D01*
X50733Y42426D01*
X51104Y43009D01*
X51224Y43690D01*
X51074Y44365D01*
X50677Y44931D01*
X50094Y45302D01*
X49414Y45422D01*
X48739Y45272D01*
X48173Y44875D01*
X47801Y44292D01*
X47682Y43612D01*
X45556Y47234D02*
X44138Y48651D01*
X51225Y48651D01*
X100871Y45423D02*
X100228Y45305D01*
X99670Y44967D01*
X99267Y44453D01*
X99073Y43830D01*
X99112Y43178D01*
X99380Y42583D01*
X99842Y42121D01*
X100437Y41853D01*
X101089Y41814D01*
X101712Y42008D01*
X102226Y42411D01*
X102564Y42970D01*
X102682Y43612D01*
X104493Y41879D02*
X105167Y42029D01*
X105733Y42426D01*
X106104Y43009D01*
X106224Y43690D01*
X106074Y44365D01*
X105677Y44931D01*
X105094Y45302D01*
X104414Y45422D01*
X103739Y45272D01*
X103173Y44875D01*
X102801Y44292D01*
X102682Y43612D01*
X100556Y50068D02*
X100013Y49961D01*
X99553Y49653D01*
X99246Y49193D01*
X99138Y48651D01*
X99246Y48109D01*
X99553Y47649D01*
X100013Y47342D01*
X100556Y47234D01*
X100556Y50068D02*
X106225Y47234D01*
X106225Y50068D01*
X155871Y45423D02*
X155228Y45305D01*
X154670Y44967D01*
X154267Y44453D01*
X154073Y43830D01*
X154112Y43178D01*
X154380Y42583D01*
X154842Y42121D01*
X155437Y41853D01*
X156089Y41814D01*
X156712Y42008D01*
X157226Y42411D01*
X157564Y42970D01*
X157682Y43612D01*
X159493Y41879D02*
X160167Y42029D01*
X160733Y42426D01*
X161104Y43009D01*
X161224Y43690D01*
X161074Y44365D01*
X160677Y44931D01*
X160094Y45302D01*
X159414Y45422D01*
X158739Y45272D01*
X158173Y44875D01*
X157801Y44292D01*
X157682Y43612D01*
X159808Y47234D02*
X160350Y47342D01*
X160810Y47649D01*
X161117Y48109D01*
X161225Y48651D01*
X161117Y49193D01*
X160810Y49653D01*
X160350Y49961D01*
X159808Y50068D01*
X158784Y50068D02*
X159808Y50068D01*
X158784Y50068D02*
X158242Y49961D01*
X157782Y49653D01*
X157475Y49193D01*
X157367Y48651D01*
X157367Y48257D02*
X157367Y48651D01*
X157367Y48257D01*
X157367Y48651D02*
X157241Y49206D01*
X156912Y49670D01*
X156431Y49973D01*
X155871Y50068D01*
X155556Y50068D02*
X155871Y50068D01*
X155556Y50068D02*
X155013Y49961D01*
X154553Y49653D01*
X154246Y49193D01*
X154138Y48651D01*
X154246Y48109D01*
X154553Y47649D01*
X155013Y47342D01*
X155556Y47234D01*
X210871Y45423D02*
X210228Y45305D01*
X209670Y44967D01*
X209267Y44453D01*
X209073Y43830D01*
X209112Y43178D01*
X209380Y42583D01*
X209842Y42121D01*
X210437Y41853D01*
X211089Y41814D01*
X211712Y42008D01*
X212226Y42411D01*
X212564Y42970D01*
X212682Y43612D01*
X214493Y41879D02*
X215167Y42029D01*
X215733Y42426D01*
X216104Y43009D01*
X216224Y43690D01*
X216074Y44365D01*
X215677Y44931D01*
X215094Y45302D01*
X214414Y45422D01*
X213739Y45272D01*
X213173Y44875D01*
X212801Y44292D01*
X212682Y43612D01*
X209138Y49360D02*
X214493Y47234D01*
X214493Y50068D01*
X213075Y49360D02*
X216225Y49360D01*
X344621Y112268D02*
X343978Y112151D01*
X343420Y111813D01*
X343017Y111299D01*
X342823Y110675D01*
X342862Y110024D01*
X343130Y109428D01*
X343592Y108967D01*
X344187Y108699D01*
X344839Y108659D01*
X345462Y108854D01*
X345976Y109256D01*
X346314Y109815D01*
X346432Y110457D01*
X348243Y108725D02*
X348917Y108875D01*
X349483Y109272D01*
X349854Y109855D01*
X349974Y110536D01*
X349824Y111210D01*
X349427Y111776D01*
X348844Y112148D01*
X348164Y112267D01*
X347489Y112118D01*
X346923Y111721D01*
X346551Y111138D01*
X346432Y110457D01*
X349345Y114315D02*
X349762Y114746D01*
X349964Y115310D01*
X349915Y115907D01*
X349624Y116431D01*
X349143Y116787D01*
X348558Y116914D01*
X347140Y116914D01*
X346598Y116806D01*
X346138Y116499D01*
X345831Y116039D01*
X345723Y115497D01*
X345831Y114954D01*
X346138Y114494D01*
X346598Y114187D01*
X347140Y114079D01*
X342888Y114079D01*
X342888Y116914D01*
X344621Y157268D02*
X343978Y157151D01*
X343420Y156813D01*
X343017Y156299D01*
X342823Y155675D01*
X342862Y155024D01*
X343130Y154428D01*
X343592Y153967D01*
X344187Y153699D01*
X344839Y153659D01*
X345462Y153854D01*
X345976Y154256D01*
X346314Y154815D01*
X346432Y155457D01*
X348243Y153725D02*
X348917Y153875D01*
X349483Y154272D01*
X349854Y154855D01*
X349974Y155536D01*
X349824Y156210D01*
X349427Y156776D01*
X348844Y157148D01*
X348164Y157267D01*
X347489Y157118D01*
X346923Y156721D01*
X346551Y156138D01*
X346432Y155457D01*
X344306Y161914D02*
X343763Y161806D01*
X343303Y161499D01*
X342996Y161039D01*
X342888Y160497D01*
X342996Y159954D01*
X343303Y159494D01*
X343763Y159187D01*
X344306Y159079D01*
X348558Y159079D01*
X349100Y159187D01*
X349560Y159494D01*
X349867Y159954D01*
X349975Y160497D01*
X349867Y161039D01*
X349560Y161499D01*
X349100Y161806D01*
X348558Y161914D01*
X347140Y161914D01*
X346598Y161806D01*
X346138Y161499D01*
X345831Y161039D01*
X345723Y160497D01*
X345831Y159954D01*
X346138Y159494D01*
X346598Y159187D01*
X347140Y159079D01*
X284876Y45423D02*
X284234Y45305D01*
X283676Y44967D01*
X283273Y44453D01*
X283079Y43830D01*
X283118Y43178D01*
X283386Y42583D01*
X283848Y42121D01*
X284443Y41853D01*
X285095Y41814D01*
X285718Y42008D01*
X286232Y42411D01*
X286570Y42970D01*
X286687Y43612D01*
X288499Y41879D02*
X289173Y42029D01*
X289739Y42426D01*
X290110Y43009D01*
X290230Y43690D01*
X290080Y44365D01*
X289683Y44931D01*
X289100Y45302D01*
X288420Y45422D01*
X287745Y45272D01*
X287179Y44875D01*
X286807Y44292D01*
X286687Y43612D01*
X284168Y47234D02*
X283144Y47234D01*
X283144Y50068D01*
X290231Y47942D01*
X314404Y15895D02*
X313762Y15777D01*
X313203Y15440D01*
X312800Y14926D01*
X312606Y14302D01*
X312646Y13651D01*
X312914Y13055D01*
X313375Y12594D01*
X313971Y12326D01*
X314622Y12286D01*
X315246Y12481D01*
X315760Y12883D01*
X316097Y13442D01*
X316215Y14084D01*
X318026Y12352D02*
X318701Y12502D01*
X319267Y12899D01*
X319638Y13482D01*
X319757Y14163D01*
X319608Y14837D01*
X319211Y15403D01*
X318628Y15775D01*
X317947Y15894D01*
X317272Y15744D01*
X316706Y15348D01*
X316335Y14765D01*
X316215Y14084D01*
X317317Y20541D02*
X318341Y20541D01*
X317317Y20541D02*
X316775Y20433D01*
X316315Y20126D01*
X316008Y19666D01*
X315900Y19124D01*
X316008Y18581D01*
X316315Y18121D01*
X316775Y17814D01*
X317317Y17706D01*
X318341Y17706D02*
X317317Y17706D01*
X318341Y17706D02*
X318883Y17814D01*
X319343Y18121D01*
X319650Y18581D01*
X319758Y19124D01*
X319650Y19666D01*
X319343Y20126D01*
X318883Y20433D01*
X318341Y20541D01*
X314089Y20541D02*
X314404Y20541D01*
X314089Y20541D02*
X313547Y20433D01*
X313087Y20126D01*
X312780Y19666D01*
X312672Y19124D01*
X312780Y18581D01*
X313087Y18121D01*
X313547Y17814D01*
X314089Y17706D01*
X314404Y17706D02*
X314089Y17706D01*
X314404Y17706D02*
X314946Y17814D01*
X315406Y18121D01*
X315713Y18581D01*
X315821Y19124D01*
X315713Y19666D01*
X315406Y20126D01*
X314946Y20433D01*
X314404Y20541D01*
X343932Y45423D02*
X343289Y45305D01*
X342731Y44967D01*
X342328Y44453D01*
X342134Y43830D01*
X342173Y43178D01*
X342441Y42583D01*
X342903Y42121D01*
X343498Y41853D01*
X344150Y41814D01*
X344773Y42008D01*
X345287Y42411D01*
X345625Y42970D01*
X345743Y43612D01*
X347554Y41879D02*
X348228Y42029D01*
X348794Y42426D01*
X349165Y43009D01*
X349285Y43690D01*
X349135Y44365D01*
X348738Y44931D01*
X348155Y45302D01*
X347475Y45422D01*
X346800Y45272D01*
X346234Y44875D01*
X345863Y44292D01*
X345743Y43612D01*
X347869Y47234D02*
X348411Y47342D01*
X348871Y47649D01*
X349178Y48109D01*
X349286Y48651D01*
X349178Y49193D01*
X348871Y49653D01*
X348411Y49961D01*
X347869Y50068D01*
X343617Y50068D01*
X343074Y49961D01*
X342614Y49653D01*
X342307Y49193D01*
X342199Y48651D01*
X342307Y48109D01*
X342614Y47649D01*
X343074Y47342D01*
X343617Y47234D01*
X345034Y47234D01*
X345576Y47342D01*
X346036Y47649D01*
X346343Y48109D01*
X346451Y48651D01*
X346343Y49193D01*
X346036Y49653D01*
X345576Y49961D01*
X345034Y50068D01*
X314404Y74950D02*
X313762Y74833D01*
X313203Y74495D01*
X312800Y73981D01*
X312606Y73358D01*
X312646Y72706D01*
X312914Y72110D01*
X313375Y71649D01*
X313971Y71381D01*
X314622Y71341D01*
X315246Y71536D01*
X315760Y71938D01*
X316097Y72497D01*
X316215Y73139D01*
X318026Y71407D02*
X318701Y71557D01*
X319267Y71954D01*
X319638Y72537D01*
X319757Y73218D01*
X319608Y73892D01*
X319211Y74458D01*
X318628Y74830D01*
X317947Y74949D01*
X317272Y74800D01*
X316706Y74403D01*
X316335Y73820D01*
X316215Y73139D01*
X314089Y76761D02*
X312672Y78179D01*
X319758Y78179D01*
X314089Y82824D02*
X318341Y82824D01*
X314089Y82824D02*
X313547Y82716D01*
X313087Y82409D01*
X312780Y81949D01*
X312672Y81407D01*
X312780Y80865D01*
X313087Y80405D01*
X313547Y80098D01*
X314089Y79990D01*
X318341Y79990D02*
X314089Y79990D01*
X318341Y79990D02*
X318883Y80098D01*
X319343Y80405D01*
X319650Y80865D01*
X319758Y81407D01*
X319650Y81949D01*
X319343Y82409D01*
X318883Y82716D01*
X318341Y82824D01*
X360915Y336205D02*
X360797Y336847D01*
X360459Y337406D01*
X359945Y337809D01*
X359322Y338003D01*
X358670Y337964D01*
X358075Y337696D01*
X357613Y337234D01*
X357345Y336639D01*
X357306Y335987D01*
X357500Y335364D01*
X357903Y334850D01*
X358462Y334512D01*
X359104Y334394D01*
X357372Y332583D02*
X357522Y331908D01*
X357918Y331342D01*
X358502Y330971D01*
X359182Y330852D01*
X359857Y331002D01*
X360423Y331398D01*
X360794Y331981D01*
X360914Y332662D01*
X360764Y333337D01*
X360368Y333903D01*
X359785Y334274D01*
X359104Y334394D01*
X362726Y336520D02*
X364143Y337937D01*
X364143Y330851D01*
X368789Y336520D02*
X368681Y337063D01*
X368374Y337522D01*
X367914Y337830D01*
X367372Y337937D01*
X366829Y337830D01*
X366369Y337522D01*
X366062Y337063D01*
X365954Y336520D01*
X368789Y336520D02*
X365954Y330851D01*
X368789Y330851D01*
G54D15*
X40846Y354350D02*
X45846Y354350D01*
X48346Y351850D01*
X48346Y346850D02*
X45846Y344350D01*
X38346Y351850D02*
X38346Y344350D01*
X40846Y354350D02*
X38346Y351850D01*
X45846Y344350D02*
X38346Y344350D01*
X220846Y354350D02*
X225846Y354350D01*
X228346Y351850D01*
X228346Y346850D01*
X225846Y344350D01*
X208346Y351850D02*
X210846Y354350D01*
X215846Y354350D01*
X218346Y351850D01*
X218346Y346850D01*
X215846Y344350D01*
X210846Y344350D01*
X208346Y346850D01*
X220846Y354350D02*
X218346Y351850D01*
X218346Y346850D02*
X220846Y344350D01*
X225846Y344350D02*
X220846Y344350D01*
X190846Y354350D02*
X195846Y354350D01*
X198346Y351850D01*
X198346Y346850D01*
X195846Y344350D01*
X198346Y351850D02*
X200846Y354350D01*
X205846Y354350D01*
X208346Y351850D01*
X208346Y346850D01*
X205846Y344350D01*
X200846Y344350D01*
X198346Y346850D01*
X178346Y351850D02*
X180846Y354350D01*
X185846Y354350D01*
X188346Y351850D01*
X188346Y346850D01*
X185846Y344350D01*
X180846Y344350D01*
X178346Y346850D01*
X190846Y354350D02*
X188346Y351850D01*
X188346Y346850D02*
X190846Y344350D01*
X195846Y344350D02*
X190846Y344350D01*
X160846Y354350D02*
X165846Y354350D01*
X168346Y351850D01*
X168346Y346850D01*
X165846Y344350D01*
X168346Y351850D02*
X170846Y354350D01*
X175846Y354350D01*
X178346Y351850D01*
X178346Y346850D01*
X175846Y344350D01*
X170846Y344350D01*
X168346Y346850D01*
X148346Y351850D02*
X150846Y354350D01*
X155846Y354350D01*
X158346Y351850D01*
X158346Y346850D01*
X155846Y344350D01*
X150846Y344350D01*
X148346Y346850D01*
X160846Y354350D02*
X158346Y351850D01*
X158346Y346850D02*
X160846Y344350D01*
X165846Y344350D02*
X160846Y344350D01*
X130846Y354350D02*
X135846Y354350D01*
X138346Y351850D01*
X138346Y346850D01*
X135846Y344350D01*
X138346Y351850D02*
X140846Y354350D01*
X145846Y354350D01*
X148346Y351850D01*
X148346Y346850D01*
X145846Y344350D01*
X140846Y344350D01*
X138346Y346850D01*
X118346Y351850D02*
X120846Y354350D01*
X125846Y354350D01*
X128346Y351850D01*
X128346Y346850D01*
X125846Y344350D01*
X120846Y344350D01*
X118346Y346850D01*
X130846Y354350D02*
X128346Y351850D01*
X128346Y346850D02*
X130846Y344350D01*
X135846Y344350D02*
X130846Y344350D01*
X100846Y354350D02*
X105846Y354350D01*
X108346Y351850D01*
X108346Y346850D01*
X105846Y344350D01*
X108346Y351850D02*
X110846Y354350D01*
X115846Y354350D01*
X118346Y351850D01*
X118346Y346850D01*
X115846Y344350D01*
X110846Y344350D01*
X108346Y346850D01*
X88346Y351850D02*
X90846Y354350D01*
X95846Y354350D01*
X98346Y351850D01*
X98346Y346850D01*
X95846Y344350D01*
X90846Y344350D01*
X88346Y346850D01*
X100846Y354350D02*
X98346Y351850D01*
X98346Y346850D02*
X100846Y344350D01*
X105846Y344350D02*
X100846Y344350D01*
X70846Y354350D02*
X75846Y354350D01*
X78346Y351850D01*
X78346Y346850D01*
X75846Y344350D01*
X78346Y351850D02*
X80846Y354350D01*
X85846Y354350D01*
X88346Y351850D01*
X88346Y346850D01*
X85846Y344350D01*
X80846Y344350D01*
X78346Y346850D01*
X58346Y351850D02*
X60846Y354350D01*
X65846Y354350D01*
X68346Y351850D01*
X68346Y346850D01*
X65846Y344350D01*
X60846Y344350D01*
X58346Y346850D01*
X70846Y354350D02*
X68346Y351850D01*
X68346Y346850D02*
X70846Y344350D01*
X75846Y344350D02*
X70846Y344350D01*
X48346Y351850D02*
X48346Y346850D01*
X48346Y351850D02*
X50846Y354350D01*
X55846Y354350D01*
X58346Y351850D01*
X58346Y346850D01*
X55846Y344350D01*
X50846Y344350D01*
X48346Y346850D01*
X230846Y354350D02*
X235846Y354350D01*
X238346Y351850D01*
X238346Y346850D01*
X235846Y344350D01*
X230846Y354350D02*
X228346Y351850D01*
X228346Y346850D02*
X230846Y344350D01*
X235846Y344350D02*
X230846Y344350D01*
X335068Y255472D02*
X335068Y208228D01*
X381131Y208228D01*
X381131Y255472D01*
X335068Y255472D01*
X369911Y231850D02*
X369766Y233698D01*
X369333Y235500D01*
X368624Y237212D01*
X367655Y238792D01*
X366452Y240202D01*
X365042Y241405D01*
X363462Y242374D01*
X361750Y243083D01*
X359948Y243516D01*
X358100Y243661D01*
X356252Y243516D01*
X354450Y243083D01*
X352738Y242374D01*
X351158Y241405D01*
X349748Y240202D01*
X348545Y238792D01*
X347576Y237212D01*
X346867Y235500D01*
X346434Y233698D01*
X346289Y231850D01*
X346434Y230002D01*
X346867Y228200D01*
X347576Y226488D01*
X348545Y224908D01*
X349748Y223498D01*
X351158Y222295D01*
X352738Y221326D01*
X354450Y220617D01*
X356252Y220184D01*
X358100Y220039D01*
X359948Y220184D01*
X361750Y220617D01*
X363462Y221326D01*
X365042Y222295D01*
X366452Y223498D01*
X367655Y224908D01*
X368624Y226488D01*
X369333Y228200D01*
X369766Y230002D01*
X369911Y231850D01*
X366958Y231850D02*
X366816Y233432D01*
X366393Y234962D01*
X365704Y236393D01*
X364771Y237678D01*
X363623Y238776D01*
X362298Y239650D01*
X360837Y240275D01*
X359289Y240628D01*
X357702Y240699D01*
X356129Y240486D01*
X354618Y239995D01*
X353220Y239243D01*
X351978Y238253D01*
X350933Y237057D01*
X350119Y235693D01*
X349561Y234207D01*
X349277Y232644D01*
X349277Y231056D01*
X349561Y229493D01*
X350119Y228006D01*
X350933Y226643D01*
X351978Y225447D01*
X353220Y224457D01*
X354618Y223704D01*
X356129Y223214D01*
X357702Y223001D01*
X359289Y223072D01*
X360837Y223425D01*
X362298Y224049D01*
X363623Y224924D01*
X364771Y226022D01*
X365704Y227307D01*
X366393Y228737D01*
X366816Y230268D01*
X366958Y231850D01*
X361850Y238937D02*
X361850Y224763D01*
X340600Y284350D02*
X335600Y284350D01*
X340666Y284212D02*
X341785Y284917D01*
X342719Y285852D01*
X343422Y286972D01*
X343858Y288220D01*
X344005Y289534D01*
X343857Y290847D01*
X343420Y292095D01*
X342716Y293214D01*
X341781Y294149D01*
X340661Y294852D01*
X339414Y295289D01*
X338100Y295437D01*
X336786Y295289D01*
X335538Y294852D01*
X334419Y294149D01*
X333484Y293214D01*
X332780Y292095D01*
X332343Y290847D01*
X332194Y289534D01*
X332342Y288220D01*
X332778Y286972D01*
X333480Y285852D01*
X334414Y284917D01*
X335533Y284212D01*
X354350Y284350D02*
X349350Y284350D01*
X354416Y284212D02*
X355535Y284917D01*
X356469Y285852D01*
X357172Y286972D01*
X357608Y288220D01*
X357755Y289534D01*
X357607Y290847D01*
X357170Y292095D01*
X356466Y293214D01*
X355531Y294149D01*
X354411Y294852D01*
X353164Y295289D01*
X351850Y295437D01*
X350536Y295289D01*
X349288Y294852D01*
X348169Y294149D01*
X347234Y293214D01*
X346530Y292095D01*
X346093Y290847D01*
X345944Y289534D01*
X346092Y288220D01*
X346528Y286972D01*
X347230Y285852D01*
X348164Y284917D01*
X349283Y284212D01*
X368100Y284350D02*
X363100Y284350D01*
X368166Y284212D02*
X369285Y284917D01*
X370219Y285852D01*
X370922Y286972D01*
X371358Y288220D01*
X371505Y289534D01*
X371357Y290847D01*
X370920Y292095D01*
X370216Y293214D01*
X369281Y294149D01*
X368161Y294852D01*
X366914Y295289D01*
X365600Y295437D01*
X364286Y295289D01*
X363038Y294852D01*
X361919Y294149D01*
X360984Y293214D01*
X360280Y292095D01*
X359843Y290847D01*
X359694Y289534D01*
X359842Y288220D01*
X360278Y286972D01*
X360980Y285852D01*
X361914Y284917D01*
X363033Y284212D01*
X381850Y284350D02*
X376850Y284350D01*
X381916Y284212D02*
X383035Y284917D01*
X383969Y285852D01*
X384672Y286972D01*
X385108Y288220D01*
X385255Y289534D01*
X385107Y290847D01*
X384670Y292095D01*
X383966Y293214D01*
X383031Y294149D01*
X381911Y294852D01*
X380664Y295289D01*
X379350Y295437D01*
X378036Y295289D01*
X376788Y294852D01*
X375669Y294149D01*
X374734Y293214D01*
X374030Y292095D01*
X373593Y290847D01*
X373444Y289534D01*
X373592Y288220D01*
X374028Y286972D01*
X374730Y285852D01*
X375664Y284917D01*
X376783Y284212D01*
X374350Y269350D02*
X374350Y274350D01*
X374212Y269283D02*
X374917Y268164D01*
X375852Y267230D01*
X376972Y266528D01*
X378220Y266092D01*
X379534Y265944D01*
X380847Y266093D01*
X382095Y266530D01*
X383214Y267234D01*
X384149Y268169D01*
X384852Y269288D01*
X385289Y270536D01*
X385437Y271850D01*
X385289Y273164D01*
X384852Y274411D01*
X384149Y275531D01*
X383214Y276466D01*
X382095Y277170D01*
X380847Y277607D01*
X379534Y277755D01*
X378220Y277608D01*
X376972Y277172D01*
X375852Y276469D01*
X374917Y275535D01*
X374212Y274416D01*
X94400Y254850D02*
X94400Y238850D01*
X86800Y238850D01*
X86800Y254850D01*
X94400Y254850D02*
X86800Y254850D01*
X14787Y224087D02*
X30787Y224087D01*
X30787Y216487D01*
X14787Y216487D01*
X14787Y224087D02*
X14787Y216487D01*
X89787Y290962D02*
X105787Y290962D01*
X105787Y283362D01*
X89787Y283362D01*
X89787Y290962D02*
X89787Y283362D01*
X104400Y311100D02*
X104400Y295100D01*
X96800Y295100D01*
X96800Y311100D01*
X104400Y311100D02*
X96800Y311100D01*
X45725Y224400D02*
X61725Y224400D01*
X61725Y216800D01*
X45725Y216800D01*
X45725Y224400D02*
X45725Y216800D01*
X45100Y285650D02*
X61100Y285650D01*
X61100Y278050D01*
X45100Y278050D01*
X45100Y285650D02*
X45100Y278050D01*
X15100Y254400D02*
X31100Y254400D01*
X31100Y246800D01*
X15100Y246800D01*
X15100Y254400D02*
X15100Y246800D01*
X15100Y285650D02*
X31100Y285650D01*
X31100Y278050D01*
X15100Y278050D01*
X15100Y285650D02*
X15100Y278050D01*
X15100Y315650D02*
X31100Y315650D01*
X31100Y308050D01*
X15100Y308050D01*
X15100Y315650D02*
X15100Y308050D01*
X46900Y133600D02*
X46900Y117600D01*
X39300Y117600D01*
X39300Y133600D01*
X46900Y133600D02*
X39300Y133600D01*
X56900Y133600D02*
X56900Y117600D01*
X49300Y117600D01*
X49300Y133600D01*
X56900Y133600D02*
X49300Y133600D01*
X66900Y133600D02*
X66900Y117600D01*
X59300Y117600D01*
X59300Y133600D01*
X66900Y133600D02*
X59300Y133600D01*
X34817Y62471D02*
X40132Y62471D01*
X34817Y56466D02*
X34817Y64734D01*
X40132Y64734D01*
X40132Y56466D01*
X34817Y56466D02*
X40132Y56466D01*
X22942Y62471D02*
X28257Y62471D01*
X22942Y56466D02*
X22942Y64734D01*
X28257Y64734D01*
X28257Y56466D01*
X22942Y56466D02*
X28257Y56466D01*
X10442Y62471D02*
X15757Y62471D01*
X10442Y56466D02*
X10442Y64734D01*
X15757Y64734D01*
X15757Y56466D01*
X10442Y56466D02*
X15757Y56466D01*
X155475Y302425D02*
X139475Y302425D01*
X139475Y310025D01*
X155475Y310025D01*
X155475Y302425D02*
X155475Y310025D01*
X135475Y324925D02*
X119475Y324925D01*
X119475Y332525D01*
X135475Y332525D01*
X135475Y324925D02*
X135475Y332525D01*
X106100Y314925D02*
X90100Y314925D01*
X90100Y322525D01*
X106100Y322525D01*
X106100Y314925D02*
X106100Y322525D01*
X54020Y42175D02*
X78430Y42175D01*
X78430Y66584D01*
X54020Y66584D01*
X54020Y42175D01*
X109020Y42175D02*
X133430Y42175D01*
X133430Y66584D01*
X109020Y66584D01*
X109020Y42175D01*
X164020Y42175D02*
X188430Y42175D01*
X188430Y66584D01*
X164020Y66584D01*
X164020Y42175D01*
X219020Y42175D02*
X243430Y42175D01*
X243430Y66584D01*
X219020Y66584D01*
X219020Y42175D01*
X352770Y109020D02*
X377180Y109020D01*
X377180Y133430D01*
X352770Y133430D01*
X352770Y109020D01*
X352770Y154020D02*
X377180Y154020D01*
X377180Y178430D01*
X352770Y178430D01*
X352770Y154020D01*
X293026Y42175D02*
X317436Y42175D01*
X317436Y66584D01*
X293026Y66584D01*
X293026Y42175D01*
X322554Y12647D02*
X346963Y12647D01*
X346963Y37057D01*
X322554Y37057D01*
X322554Y12647D01*
X352081Y42175D02*
X376491Y42175D01*
X376491Y66584D01*
X352081Y66584D01*
X352081Y42175D01*
X322554Y71702D02*
X346963Y71702D01*
X346963Y96112D01*
X322554Y96112D01*
X322554Y71702D01*
X370305Y341520D02*
X370305Y365930D01*
X345895Y365930D01*
X345895Y341520D01*
X370305Y341520D01*
X36850Y136850D02*
X36850Y103725D01*
X69350Y103725D01*
X69350Y136850D01*
X36850Y136850D01*
X329350Y306850D02*
X329350Y278725D01*
X388100Y278725D01*
X388100Y306850D01*
X329350Y306850D01*
X7475Y78100D02*
X7475Y49350D01*
X42475Y49350D01*
X42475Y78100D01*
X7475Y78100D01*
X2475Y85600D02*
X298100Y85600D01*
X298100Y357475D01*
X2475Y357475D02*
X298100Y357475D01*
G54D25*
X66225Y54379D03*
X121225Y54379D03*
X176225Y54379D03*
X231225Y54379D03*
X364975Y121225D03*
X364975Y166225D03*
X305231Y54379D03*
X334758Y24852D03*
X364286Y54379D03*
X334758Y83907D03*
X358100Y353725D03*
G36*
X34397Y8927D02*
X39160Y9045D01*
X41326Y9202D01*
X41247Y8887D01*
X41208Y8612D01*
X41247Y8415D01*
X41286Y8139D01*
X40735Y8139D01*
X37940Y8179D01*
X32782Y8218D01*
X28767Y8139D01*
X28767Y8415D01*
X35263Y15816D01*
X35775Y16407D01*
X36286Y16998D01*
X36719Y17509D01*
X37153Y18021D01*
X37507Y18454D01*
X37861Y18887D01*
X38137Y19242D01*
X38412Y19557D01*
X35853Y19557D01*
X31523Y19438D01*
X29672Y19320D01*
X29712Y19635D01*
X29751Y19872D01*
X29712Y20147D01*
X29672Y20344D01*
X30538Y20344D01*
X31326Y20305D01*
X31956Y20305D01*
X32507Y20305D01*
X38570Y20305D01*
X41208Y20344D01*
X41405Y20344D01*
X41405Y20108D01*
X38767Y17352D01*
X33570Y11328D01*
X31680Y9005D01*
X31759Y8927D01*
X33294Y8927D01*
X34397Y8927D01*
D02*G37*
G36*
X44633Y4438D02*
X45696Y5974D01*
X46601Y7352D01*
X46956Y7982D01*
X47074Y8139D01*
X46798Y8730D01*
X42586Y16604D01*
X43334Y16525D01*
X43885Y16525D01*
X44712Y16564D01*
X44869Y16092D01*
X46011Y13690D01*
X47901Y10108D01*
X48097Y9990D01*
X48334Y10423D01*
X49082Y11761D01*
X49948Y13612D01*
X51326Y16604D01*
X51641Y16525D01*
X51995Y16525D01*
X52428Y16525D01*
X52782Y16604D01*
X47507Y7234D01*
X46129Y4438D01*
X45460Y4517D01*
X44633Y4438D01*
D02*G37*
G36*
X54830Y8572D02*
X54908Y9990D01*
X55027Y16761D01*
X54908Y21013D01*
X54908Y21525D01*
X55105Y21446D01*
X56444Y21446D01*
X56601Y21486D01*
X56680Y21525D01*
X56759Y21486D01*
X56759Y21210D01*
X56759Y20935D01*
X56601Y17785D01*
X56601Y13494D01*
X56641Y13139D01*
X56759Y12903D01*
X57153Y12942D01*
X57586Y13139D01*
X58137Y13494D01*
X58727Y13966D01*
X60105Y15068D01*
X61838Y16564D01*
X62034Y16525D01*
X62546Y16525D01*
X62861Y16525D01*
X63176Y16525D01*
X63412Y16525D01*
X63609Y16564D01*
X63609Y16446D01*
X62940Y16013D01*
X62153Y15462D01*
X61719Y15187D01*
X61405Y14950D01*
X61129Y14793D01*
X60932Y14635D01*
X60184Y14163D01*
X58688Y13021D01*
X59200Y12588D01*
X59751Y12037D01*
X60460Y11407D01*
X61208Y10698D01*
X62231Y9793D01*
X63255Y8887D01*
X63924Y8218D01*
X63924Y8100D01*
X63727Y8139D01*
X63491Y8139D01*
X63176Y8139D01*
X62861Y8139D01*
X62468Y8139D01*
X62153Y8139D01*
X61877Y8139D01*
X61680Y8100D01*
X61011Y8769D01*
X60460Y9320D01*
X59751Y9990D01*
X58609Y11053D01*
X57468Y12076D01*
X57231Y12273D01*
X57074Y12431D01*
X56601Y12431D01*
X56601Y12155D01*
X56562Y11722D01*
X56562Y9990D01*
X56680Y8572D01*
X56680Y8100D01*
X56483Y8139D01*
X56011Y8139D01*
X55656Y8139D01*
X55302Y8139D01*
X55066Y8139D01*
X54830Y8100D01*
X54830Y8572D01*
D02*G37*
G36*
X68216Y17076D02*
X68216Y10147D01*
X68255Y8257D01*
X68294Y8100D01*
X67704Y8139D01*
X67271Y8139D01*
X66916Y8100D01*
X66641Y8100D01*
X66405Y8100D01*
X66405Y8651D01*
X66562Y12785D01*
X66562Y19753D01*
X66483Y21368D01*
X66444Y21525D01*
X66719Y21446D01*
X68097Y21446D01*
X68255Y21446D01*
X68373Y21525D01*
X68373Y21013D01*
X68216Y17076D01*
D02*G37*
G36*
X77310Y16683D02*
X76326Y16761D01*
X75223Y16683D01*
D02*G37*
G36*
X78216Y16525D02*
X77310Y16683D01*
X75223Y16683D01*
D02*G37*
G36*
X74279Y16446D02*
X78216Y16525D01*
X75223Y16683D01*
D02*G37*
G36*
X78964Y16210D02*
X78216Y16525D01*
X74279Y16446D01*
D02*G37*
G36*
X76327Y16171D02*
X78964Y16210D01*
X74279Y16446D01*
D02*G37*
G36*
X75617Y16131D02*
X76327Y16171D01*
X74279Y16446D01*
D02*G37*
G36*
X76956Y16131D02*
X78964Y16210D01*
X76327Y16171D01*
D02*G37*
G36*
X73412Y16092D02*
X75617Y16131D01*
X74279Y16446D01*
D02*G37*
G36*
X75027Y15974D02*
X75617Y16131D01*
X73412Y16092D01*
D02*G37*
G36*
X77507Y15974D02*
X78964Y16210D01*
X76956Y16131D01*
D02*G37*
G36*
X79633Y15777D02*
X78964Y16210D01*
X77507Y15974D01*
D02*G37*
G36*
X77979Y15738D02*
X79633Y15777D01*
X77507Y15974D01*
D02*G37*
G36*
X74515Y15659D02*
X75027Y15974D01*
X73412Y16092D01*
D02*G37*
G36*
X72625Y15541D02*
X74515Y15659D01*
X73412Y16092D01*
D02*G37*
G36*
X78373Y15423D02*
X79633Y15777D01*
X77979Y15738D01*
D02*G37*
G36*
X72310Y15265D02*
X74515Y15659D01*
X72625Y15541D01*
D02*G37*
G36*
X74082Y15265D02*
X74515Y15659D01*
X72310Y15265D01*
D02*G37*
G36*
X80145Y15265D02*
X79633Y15777D01*
X78373Y15423D01*
D02*G37*
G36*
X78688Y14990D02*
X80145Y15265D01*
X78373Y15423D01*
D02*G37*
G36*
X72034Y14911D02*
X74082Y15265D01*
X72310Y15265D01*
D02*G37*
G36*
X73727Y14793D02*
X74082Y15265D01*
X72034Y14911D01*
D02*G37*
G36*
X80538Y14635D02*
X80145Y15265D01*
X78688Y14990D01*
D02*G37*
G36*
X71798Y14517D02*
X73727Y14793D01*
X72034Y14911D01*
D02*G37*
G36*
X78885Y14438D02*
X80538Y14635D01*
X78688Y14990D01*
D02*G37*
G36*
X73452Y14281D02*
X73727Y14793D01*
X71798Y14517D01*
D02*G37*
G36*
X71601Y14084D02*
X73452Y14281D01*
X71798Y14517D01*
D02*G37*
G36*
X80775Y13927D02*
X80538Y14635D01*
X78885Y14438D01*
D02*G37*
G36*
X79042Y13809D02*
X80775Y13927D01*
X78885Y14438D01*
D02*G37*
G36*
X73294Y13730D02*
X73452Y14281D01*
X71601Y14084D01*
D02*G37*
G36*
X71444Y13651D02*
X73294Y13730D01*
X71601Y14084D01*
D02*G37*
G36*
X71326Y13179D02*
X73294Y13730D01*
X71444Y13651D01*
D02*G37*
G36*
X73176Y13100D02*
X73294Y13730D01*
X71326Y13179D01*
D02*G37*
G36*
X79082Y13100D02*
X80775Y13927D01*
X79042Y13809D01*
D02*G37*
G36*
X80893Y13100D02*
X80775Y13927D01*
X79082Y13100D01*
D02*G37*
G36*
X74633Y13061D02*
X74160Y13100D01*
X73176Y13100D01*
D02*G37*
G36*
X77625Y13061D02*
X80893Y13100D01*
X78058Y13100D01*
D02*G37*
G36*
X76326Y12470D02*
X80893Y13100D01*
X77625Y13061D01*
D02*G37*
G36*
X76326Y12470D02*
X77625Y13061D01*
X74633Y13061D01*
D02*G37*
G36*
X76326Y12470D02*
X74633Y13061D01*
X73176Y13100D01*
D02*G37*
G36*
X76326Y12470D02*
X73176Y13100D01*
X71326Y13179D01*
D02*G37*
G36*
X73137Y12391D02*
X76326Y12470D01*
X71326Y13179D01*
D02*G37*
G36*
X80853Y12391D02*
X80893Y13100D01*
X76326Y12470D01*
D02*G37*
G36*
X71247Y12312D02*
X73137Y12391D01*
X71326Y13179D01*
D02*G37*
G36*
X71286Y11604D02*
X73137Y12391D01*
X71247Y12312D01*
D02*G37*
G36*
X73216Y11564D02*
X73137Y12391D01*
X71286Y11604D01*
D02*G37*
G36*
X71444Y10935D02*
X73216Y11564D01*
X71286Y11604D01*
D02*G37*
G36*
X73373Y10816D02*
X73216Y11564D01*
X71444Y10935D01*
D02*G37*
G36*
X71680Y10344D02*
X73373Y10816D01*
X71444Y10935D01*
D02*G37*
G36*
X73727Y10187D02*
X73373Y10816D01*
X71680Y10344D01*
D02*G37*
G36*
X72034Y9793D02*
X73727Y10187D01*
X71680Y10344D01*
D02*G37*
G36*
X80145Y9675D02*
X80460Y9793D01*
X80263Y9753D01*
D02*G37*
G36*
X74160Y9635D02*
X73727Y10187D01*
X72034Y9793D01*
D02*G37*
G36*
X79475Y9242D02*
X80460Y9793D01*
X80145Y9675D01*
D02*G37*
G36*
X72586Y9202D02*
X74160Y9635D01*
X72034Y9793D01*
D02*G37*
G36*
X74712Y9163D02*
X74160Y9635D01*
X72586Y9202D01*
D02*G37*
G36*
X80302Y8887D02*
X80460Y9793D01*
X79475Y9242D01*
D02*G37*
G36*
X80302Y8887D02*
X79475Y9242D01*
X78688Y8887D01*
D02*G37*
G36*
X75381Y8848D02*
X74712Y9163D01*
X72586Y9202D01*
D02*G37*
G36*
X73294Y8690D02*
X75381Y8848D01*
X72586Y9202D01*
D02*G37*
G36*
X76168Y8651D02*
X75381Y8848D01*
X73294Y8690D01*
D02*G37*
G36*
X77861Y8651D02*
X80302Y8887D01*
X78688Y8887D01*
D02*G37*
G36*
X77034Y8572D02*
X76168Y8651D01*
X73294Y8690D01*
D02*G37*
G36*
X79357Y8454D02*
X80302Y8887D01*
X77861Y8651D01*
D02*G37*
G36*
X79357Y8454D02*
X77861Y8651D01*
X77034Y8572D01*
D02*G37*
G36*
X79357Y8454D02*
X77034Y8572D01*
X73294Y8690D01*
D02*G37*
G36*
X74082Y8336D02*
X79357Y8454D01*
X73294Y8690D01*
D02*G37*
G36*
X78412Y8139D02*
X79357Y8454D01*
X74082Y8336D01*
D02*G37*
G36*
X74908Y8100D02*
X78412Y8139D01*
X74082Y8336D01*
D02*G37*
G36*
X75499Y7982D02*
X78412Y8139D01*
X74908Y8100D01*
D02*G37*
G36*
X77468Y7942D02*
X78412Y8139D01*
X75499Y7982D01*
D02*G37*
G36*
X75971Y7903D02*
X77468Y7942D01*
X75499Y7982D01*
D02*G37*
G36*
X76286Y7864D02*
X77468Y7942D01*
X75971Y7903D01*
D02*G37*
G36*
X76483Y7864D02*
X77468Y7942D01*
X76286Y7864D01*
D02*G37*
G36*
X92271Y13257D02*
X92192Y10659D01*
X92271Y8927D01*
X92271Y8218D01*
X92271Y8100D01*
X91798Y8139D01*
X91286Y8139D01*
X90775Y8139D01*
X90381Y8100D01*
X90381Y8415D01*
X90420Y8887D01*
X90460Y9320D01*
X90460Y9635D01*
X90460Y10029D01*
X90499Y10462D01*
X90538Y11013D01*
X90578Y11604D01*
X90578Y11879D01*
X90578Y12234D01*
X90578Y12588D01*
X90617Y12824D01*
X90578Y13454D01*
X90538Y13966D01*
X90420Y14360D01*
X90302Y14635D01*
X89869Y15147D01*
X89357Y15541D01*
X88727Y15738D01*
X88019Y15816D01*
X87231Y15777D01*
X86523Y15541D01*
X85971Y15226D01*
X85538Y14753D01*
X85342Y14281D01*
X85184Y13730D01*
X85105Y13061D01*
X85066Y12234D01*
X85066Y9281D01*
X85145Y8218D01*
X85145Y8100D01*
X84633Y8139D01*
X84239Y8139D01*
X83964Y8139D01*
X83727Y8139D01*
X83491Y8139D01*
X83334Y8100D01*
X83373Y8533D01*
X83412Y9084D01*
X83412Y9675D01*
X83452Y10226D01*
X83491Y11210D01*
X83491Y12116D01*
X83531Y12824D01*
X83531Y13415D01*
X83531Y13769D01*
X83491Y14163D01*
X83491Y14635D01*
X83452Y15187D01*
X83452Y15423D01*
X83412Y15777D01*
X83412Y16171D01*
X83412Y16604D01*
X83806Y16525D01*
X84279Y16525D01*
X84790Y16525D01*
X84987Y16564D01*
X85145Y16604D01*
X85145Y16210D01*
X85066Y15659D01*
X85066Y15187D01*
X85066Y15029D01*
X85420Y15423D01*
X85775Y15777D01*
X86168Y16053D01*
X86641Y16289D01*
X87074Y16486D01*
X87586Y16604D01*
X88137Y16683D01*
X88688Y16722D01*
X89554Y16683D01*
X90302Y16486D01*
X90971Y16210D01*
X91483Y15816D01*
X91719Y15541D01*
X91916Y15265D01*
X92074Y14990D01*
X92153Y14753D01*
X92192Y14438D01*
X92231Y14084D01*
X92271Y13730D01*
X92271Y13257D01*
D02*G37*
G36*
X100971Y18257D02*
X101719Y20620D01*
X101286Y20620D01*
D02*G37*
G36*
X98531Y13651D02*
X100971Y18257D01*
X101286Y20620D01*
D02*G37*
G36*
X103453Y13651D02*
X101719Y20620D01*
X100971Y18257D01*
D02*G37*
G36*
X101090Y12942D02*
X103453Y13651D01*
X98531Y13651D01*
D02*G37*
G36*
X98097Y12903D02*
X101090Y12942D01*
X98531Y13651D01*
D02*G37*
G36*
X98097Y12903D02*
X98531Y13651D01*
X101286Y20620D01*
D02*G37*
G36*
X103767Y12903D02*
X103453Y13651D01*
X101090Y12942D01*
D02*G37*
G36*
X103767Y12903D02*
X101719Y20620D01*
X103453Y13651D01*
D02*G37*
G36*
X97704Y12076D02*
X98097Y12903D01*
X101286Y20620D01*
D02*G37*
G36*
X97349Y11328D02*
X97704Y12076D01*
X101286Y20620D01*
D02*G37*
G36*
X104869Y10777D02*
X101719Y20620D01*
X103767Y12903D01*
D02*G37*
G36*
X97034Y10620D02*
X97349Y11328D01*
X101286Y20620D01*
D02*G37*
G36*
X96759Y9990D02*
X97034Y10620D01*
X101286Y20620D01*
D02*G37*
G36*
X96483Y9438D02*
X96759Y9990D01*
X101286Y20620D01*
D02*G37*
G36*
X96247Y8927D02*
X96483Y9438D01*
X101286Y20620D01*
D02*G37*
G36*
X108019Y8730D02*
X101719Y20620D01*
X104869Y10777D01*
D02*G37*
G36*
X105853Y8651D02*
X108019Y8730D01*
X104869Y10777D01*
D02*G37*
G36*
X94790Y8139D02*
X96090Y8494D01*
X96247Y8927D01*
D02*G37*
G36*
X94790Y8139D02*
X96247Y8927D01*
X101286Y20620D01*
D02*G37*
G36*
X95617Y8139D02*
X96090Y8494D01*
X94790Y8139D01*
D02*G37*
G36*
X106286Y8139D02*
X108019Y8730D01*
X105853Y8651D01*
D02*G37*
G36*
X108058Y8139D02*
X108019Y8730D01*
X106286Y8139D01*
D02*G37*
G36*
X94318Y8100D02*
X94790Y8139D01*
X101286Y20620D01*
D02*G37*
G36*
X95932Y8100D02*
X96090Y8494D01*
X95617Y8139D01*
D02*G37*
G36*
X106090Y8100D02*
X106286Y8139D01*
X105853Y8651D01*
D02*G37*
G36*
X108412Y8100D02*
X108019Y8730D01*
X108058Y8139D01*
D02*G37*
G36*
X117625Y12509D02*
X117625Y15423D01*
X117586Y16446D01*
X117586Y16604D01*
X117743Y16564D01*
X117940Y16525D01*
X118216Y16525D01*
X118491Y16525D01*
X119042Y16525D01*
X119397Y16604D01*
X119357Y15935D01*
X119318Y15383D01*
X119279Y14911D01*
X119279Y14517D01*
X119279Y13887D01*
X119239Y13139D01*
X119239Y12273D01*
X119239Y11289D01*
X119239Y11092D01*
X119239Y10856D01*
X119239Y10620D01*
X119279Y10305D01*
X119279Y9990D01*
X119279Y9714D01*
X119279Y9478D01*
X119279Y9320D01*
X119279Y8927D01*
X119279Y8612D01*
X119318Y8336D01*
X119318Y8100D01*
X119003Y8139D01*
X118767Y8139D01*
X118570Y8139D01*
X118452Y8139D01*
X117940Y8139D01*
X117586Y8100D01*
X117586Y8454D01*
X117625Y9517D01*
X117625Y9675D01*
X117310Y9281D01*
X116956Y8966D01*
X116562Y8651D01*
X116129Y8415D01*
X115656Y8257D01*
X115184Y8139D01*
X114633Y8061D01*
X114042Y8021D01*
X113176Y8061D01*
X112428Y8257D01*
X111798Y8533D01*
X111247Y8927D01*
X111011Y9163D01*
X110814Y9399D01*
X110696Y9675D01*
X110617Y9950D01*
X110538Y10265D01*
X110499Y10620D01*
X110460Y11013D01*
X110460Y11486D01*
X110538Y14045D01*
X110460Y15816D01*
X110460Y16446D01*
X110460Y16604D01*
X110932Y16525D01*
X111444Y16525D01*
X111956Y16525D01*
X112192Y16564D01*
X112349Y16604D01*
X112271Y15935D01*
X112271Y15265D01*
X112192Y14281D01*
X112153Y13375D01*
X112113Y12588D01*
X112113Y11879D01*
X112153Y11250D01*
X112192Y10738D01*
X112310Y10305D01*
X112507Y9950D01*
X112901Y9478D01*
X113412Y9163D01*
X114082Y8927D01*
X114830Y8887D01*
X115342Y8927D01*
X115814Y9005D01*
X116208Y9163D01*
X116562Y9399D01*
X116916Y9675D01*
X117192Y10029D01*
X117389Y10383D01*
X117507Y10856D01*
X117586Y11171D01*
X117586Y11525D01*
X117625Y11998D01*
X117625Y12509D01*
D02*G37*
G36*
X122940Y18415D02*
X124869Y19005D01*
X124869Y18769D01*
X124830Y18572D01*
X124712Y16407D01*
X127074Y16446D01*
X127074Y15738D01*
X124712Y15777D01*
X124633Y15620D01*
X124633Y15383D01*
X124593Y11446D01*
X124593Y10698D01*
X124633Y10226D01*
X124672Y9832D01*
X124790Y9438D01*
X124948Y9124D01*
X125145Y8848D01*
X125460Y8651D01*
X125853Y8533D01*
X126326Y8533D01*
X126562Y8533D01*
X126838Y8572D01*
X127113Y8612D01*
X127349Y8651D01*
X127349Y8218D01*
X126444Y8021D01*
X125460Y7982D01*
X125184Y7982D01*
X124830Y8021D01*
X124475Y8100D01*
X124003Y8218D01*
X123609Y8494D01*
X123255Y8887D01*
X123019Y9281D01*
X122979Y9596D01*
X122901Y9911D01*
X122901Y10305D01*
X122901Y10738D01*
X123019Y13887D01*
X123019Y15383D01*
X123019Y15777D01*
X121562Y15738D01*
X121562Y15974D01*
X121562Y16486D01*
X123019Y16407D01*
X123019Y16604D01*
X123019Y16840D01*
X123019Y17116D01*
X122979Y17431D01*
X122979Y17746D01*
X122979Y17982D01*
X122940Y18218D01*
X122940Y18415D01*
D02*G37*
G36*
X134869Y16683D02*
X133767Y16761D01*
X132586Y16683D01*
D02*G37*
G36*
X135420Y16564D02*
X134869Y16683D01*
X132586Y16683D01*
D02*G37*
G36*
X131523Y16446D02*
X135420Y16564D01*
X132586Y16683D01*
D02*G37*
G36*
X135893Y16407D02*
X135420Y16564D01*
X131523Y16446D01*
D02*G37*
G36*
X136365Y16210D02*
X135893Y16407D01*
X131523Y16446D01*
D02*G37*
G36*
X133767Y16171D02*
X136365Y16210D01*
X131523Y16446D01*
D02*G37*
G36*
X134554Y16131D02*
X136365Y16210D01*
X133767Y16171D01*
D02*G37*
G36*
X130578Y16092D02*
X133767Y16171D01*
X131523Y16446D01*
D02*G37*
G36*
X132861Y16092D02*
X133767Y16171D01*
X130578Y16092D01*
D02*G37*
G36*
X136798Y15974D02*
X136365Y16210D01*
X134554Y16131D01*
D02*G37*
G36*
X132074Y15895D02*
X132861Y16092D01*
X130578Y16092D01*
D02*G37*
G36*
X135223Y15895D02*
X136798Y15974D01*
X134554Y16131D01*
D02*G37*
G36*
X137231Y15698D02*
X136798Y15974D01*
X135223Y15895D01*
D02*G37*
G36*
X129712Y15541D02*
X132074Y15895D01*
X130578Y16092D01*
D02*G37*
G36*
X135775Y15541D02*
X137231Y15698D01*
X135223Y15895D01*
D02*G37*
G36*
X131444Y15501D02*
X132074Y15895D01*
X129712Y15541D01*
D02*G37*
G36*
X137586Y15383D02*
X137231Y15698D01*
X135775Y15541D01*
D02*G37*
G36*
X129357Y15226D02*
X131444Y15501D01*
X129712Y15541D01*
D02*G37*
G36*
X137901Y15068D02*
X137586Y15383D01*
X135775Y15541D01*
D02*G37*
G36*
X136208Y15029D02*
X137901Y15068D01*
X135775Y15541D01*
D02*G37*
G36*
X130971Y14990D02*
X131444Y15501D01*
X129357Y15226D01*
D02*G37*
G36*
X129042Y14911D02*
X130971Y14990D01*
X129357Y15226D01*
D02*G37*
G36*
X138176Y14753D02*
X137901Y15068D01*
X136208Y15029D01*
D02*G37*
G36*
X128767Y14557D02*
X130971Y14990D01*
X129042Y14911D01*
D02*G37*
G36*
X136523Y14478D02*
X138176Y14753D01*
X136208Y15029D01*
D02*G37*
G36*
X138412Y14438D02*
X138176Y14753D01*
X136523Y14478D01*
D02*G37*
G36*
X130578Y14399D02*
X130971Y14990D01*
X128767Y14557D01*
D02*G37*
G36*
X128531Y14163D02*
X130578Y14399D01*
X128767Y14557D01*
D02*G37*
G36*
X138609Y14045D02*
X138412Y14438D01*
X136523Y14478D01*
D02*G37*
G36*
X136759Y13809D02*
X138609Y14045D01*
X136523Y14478D01*
D02*G37*
G36*
X128373Y13769D02*
X130578Y14399D01*
X128531Y14163D01*
D02*G37*
G36*
X130302Y13690D02*
X130578Y14399D01*
X128373Y13769D01*
D02*G37*
G36*
X128255Y13336D02*
X130302Y13690D01*
X128373Y13769D01*
D02*G37*
G36*
X138845Y13257D02*
X138609Y14045D01*
X136759Y13809D01*
D02*G37*
G36*
X136916Y13139D02*
X138845Y13257D01*
X136759Y13809D01*
D02*G37*
G36*
X130145Y12942D02*
X130302Y13690D01*
X128255Y13336D01*
D02*G37*
G36*
X128176Y12903D02*
X130145Y12942D01*
X128255Y13336D01*
D02*G37*
G36*
X138924Y12824D02*
X138845Y13257D01*
X136916Y13139D01*
D02*G37*
G36*
X136956Y12431D02*
X138924Y12824D01*
X136916Y13139D01*
D02*G37*
G36*
X128137Y12391D02*
X130145Y12942D01*
X128176Y12903D01*
D02*G37*
G36*
X138924Y12352D02*
X138924Y12824D01*
X136956Y12431D01*
D02*G37*
G36*
X130105Y12116D02*
X130145Y12942D01*
X128137Y12391D01*
D02*G37*
G36*
X128137Y11919D02*
X130105Y12116D01*
X128137Y12391D01*
D02*G37*
G36*
X136956Y11879D02*
X138924Y12352D01*
X136956Y12431D01*
D02*G37*
G36*
X138885Y11722D02*
X138924Y12352D01*
X136956Y11879D01*
D02*G37*
G36*
X136916Y11683D02*
X138885Y11722D01*
X136956Y11879D01*
D02*G37*
G36*
X136877Y11525D02*
X138885Y11722D01*
X136916Y11683D01*
D02*G37*
G36*
X128216Y11446D02*
X130105Y12116D01*
X128137Y11919D01*
D02*G37*
G36*
X130145Y11407D02*
X130105Y12116D01*
X128216Y11446D01*
D02*G37*
G36*
X138727Y11131D02*
X138885Y11722D01*
X136877Y11525D01*
D02*G37*
G36*
X136759Y10935D02*
X138727Y11131D01*
X136877Y11525D01*
D02*G37*
G36*
X130302Y10738D02*
X130145Y11407D01*
X128216Y11446D01*
D02*G37*
G36*
X128412Y10659D02*
X130302Y10738D01*
X128216Y11446D01*
D02*G37*
G36*
X138491Y10501D02*
X138727Y11131D01*
X136759Y10935D01*
D02*G37*
G36*
X136562Y10423D02*
X138491Y10501D01*
X136759Y10935D01*
D02*G37*
G36*
X128570Y10305D02*
X130302Y10738D01*
X128412Y10659D01*
D02*G37*
G36*
X130578Y10108D02*
X130302Y10738D01*
X128570Y10305D01*
D02*G37*
G36*
X128767Y9950D02*
X130578Y10108D01*
X128570Y10305D01*
D02*G37*
G36*
X136326Y9950D02*
X138491Y10501D01*
X136562Y10423D01*
D02*G37*
G36*
X138137Y9911D02*
X138491Y10501D01*
X136326Y9950D01*
D02*G37*
G36*
X129042Y9635D02*
X130578Y10108D01*
X128767Y9950D01*
D02*G37*
G36*
X130932Y9557D02*
X130578Y10108D01*
X129042Y9635D01*
D02*G37*
G36*
X136012Y9557D02*
X138137Y9911D01*
X136326Y9950D01*
D02*G37*
G36*
X137743Y9438D02*
X138137Y9911D01*
X136012Y9557D01*
D02*G37*
G36*
X129397Y9281D02*
X130932Y9557D01*
X129042Y9635D01*
D02*G37*
G36*
X131444Y9084D02*
X130932Y9557D01*
X129397Y9281D01*
D02*G37*
G36*
X135460Y9084D02*
X137743Y9438D01*
X136012Y9557D01*
D02*G37*
G36*
X137271Y9045D02*
X137743Y9438D01*
X135460Y9084D01*
D02*G37*
G36*
X129790Y8966D02*
X131444Y9084D01*
X129397Y9281D01*
D02*G37*
G36*
X132034Y8730D02*
X131444Y9084D01*
X129790Y8966D01*
D02*G37*
G36*
X134869Y8730D02*
X137271Y9045D01*
X135460Y9084D01*
D02*G37*
G36*
X130223Y8690D02*
X132034Y8730D01*
X129790Y8966D01*
D02*G37*
G36*
X136759Y8690D02*
X137271Y9045D01*
X134869Y8730D01*
D02*G37*
G36*
X132743Y8533D02*
X132034Y8730D01*
X130223Y8690D01*
D02*G37*
G36*
X134239Y8533D02*
X136759Y8690D01*
X134869Y8730D01*
D02*G37*
G36*
X130656Y8454D02*
X132743Y8533D01*
X130223Y8690D01*
D02*G37*
G36*
X133531Y8454D02*
X132743Y8533D01*
X130656Y8454D01*
D02*G37*
G36*
X133531Y8454D02*
X136759Y8690D01*
X134239Y8533D01*
D02*G37*
G36*
X136208Y8415D02*
X136759Y8690D01*
X133531Y8454D01*
D02*G37*
G36*
X136208Y8415D02*
X133531Y8454D01*
X130656Y8454D01*
D02*G37*
G36*
X131090Y8257D02*
X136208Y8415D01*
X130656Y8454D01*
D02*G37*
G36*
X135578Y8179D02*
X136208Y8415D01*
X131090Y8257D01*
D02*G37*
G36*
X131680Y8100D02*
X135578Y8179D01*
X131090Y8257D01*
D02*G37*
G36*
X134908Y8021D02*
X135578Y8179D01*
X131680Y8100D01*
D02*G37*
G36*
X132231Y7982D02*
X134908Y8021D01*
X131680Y8100D01*
D02*G37*
G36*
X132782Y7942D02*
X134908Y8021D01*
X132231Y7982D01*
D02*G37*
G36*
X134160Y7942D02*
X134908Y8021D01*
X132782Y7942D01*
D02*G37*
G36*
X133373Y7903D02*
X134160Y7942D01*
X132782Y7942D01*
D02*G37*
G36*
X156601Y12470D02*
X156523Y11328D01*
X156523Y9793D01*
X156601Y8572D01*
X156601Y8100D01*
X156405Y8139D01*
X155932Y8139D01*
X155578Y8139D01*
X155263Y8139D01*
X154987Y8139D01*
X154751Y8100D01*
X154751Y8297D01*
X154790Y8651D01*
X154869Y9753D01*
X154948Y11683D01*
X154948Y13021D01*
X154908Y13690D01*
X154869Y14281D01*
X154751Y14714D01*
X154554Y15068D01*
X154200Y15423D01*
X153767Y15659D01*
X153255Y15816D01*
X152664Y15856D01*
X152192Y15816D01*
X151759Y15738D01*
X151365Y15620D01*
X150971Y15462D01*
X150656Y15226D01*
X150381Y14990D01*
X150184Y14675D01*
X149987Y14320D01*
X149948Y14124D01*
X149908Y13809D01*
X149869Y13415D01*
X149830Y12903D01*
X149830Y10698D01*
X149830Y10265D01*
X149830Y9872D01*
X149869Y9517D01*
X149869Y9242D01*
X149869Y8494D01*
X149948Y8100D01*
X149554Y8139D01*
X149042Y8139D01*
X148727Y8139D01*
X148452Y8139D01*
X148216Y8139D01*
X148058Y8100D01*
X148058Y8297D01*
X148097Y8454D01*
X148216Y10541D01*
X148216Y11879D01*
X148216Y13336D01*
X148176Y13927D01*
X148097Y14399D01*
X147901Y14832D01*
X147664Y15147D01*
X147349Y15423D01*
X146916Y15620D01*
X146405Y15738D01*
X145814Y15816D01*
X144987Y15698D01*
X144318Y15462D01*
X143767Y15068D01*
X143373Y14517D01*
X143216Y14124D01*
X143097Y13572D01*
X143058Y12942D01*
X143019Y12194D01*
X143019Y11210D01*
X143019Y9753D01*
X143097Y8454D01*
X143137Y8100D01*
X142901Y8139D01*
X142625Y8139D01*
X142192Y8139D01*
X141641Y8139D01*
X141286Y8100D01*
X141286Y8257D01*
X141286Y8533D01*
X141483Y12076D01*
X141483Y14202D01*
X141365Y16171D01*
X141365Y16604D01*
X141523Y16564D01*
X141838Y16525D01*
X142271Y16525D01*
X142743Y16525D01*
X143137Y16604D01*
X143097Y15935D01*
X143058Y15541D01*
X143058Y15108D01*
X143373Y15462D01*
X143767Y15816D01*
X144160Y16092D01*
X144554Y16328D01*
X144987Y16486D01*
X145460Y16604D01*
X145932Y16683D01*
X146444Y16722D01*
X146995Y16683D01*
X147546Y16604D01*
X148019Y16446D01*
X148491Y16250D01*
X148885Y16013D01*
X149239Y15698D01*
X149515Y15344D01*
X149712Y14950D01*
X150027Y15344D01*
X150420Y15698D01*
X150814Y16013D01*
X151247Y16250D01*
X151719Y16446D01*
X152231Y16564D01*
X152782Y16643D01*
X153334Y16683D01*
X154042Y16643D01*
X154712Y16525D01*
X155263Y16289D01*
X155775Y16013D01*
X156168Y15620D01*
X156444Y15187D01*
X156601Y14675D01*
X156680Y14124D01*
X156680Y13809D01*
X156641Y13415D01*
X156641Y12982D01*
X156601Y12470D01*
D02*G37*
G36*
X162940Y16683D02*
X164633Y16722D01*
X163806Y16761D01*
D02*G37*
G36*
X165381Y16564D02*
X164633Y16722D01*
X162940Y16683D01*
D02*G37*
G36*
X162034Y16525D02*
X165381Y16564D01*
X162940Y16683D01*
D02*G37*
G36*
X166011Y16289D02*
X165381Y16564D01*
X162034Y16525D01*
D02*G37*
G36*
X161129Y16210D02*
X166011Y16289D01*
X162034Y16525D01*
D02*G37*
G36*
X163137Y16013D02*
X166011Y16289D01*
X161129Y16210D01*
D02*G37*
G36*
X162389Y15974D02*
X163137Y16013D01*
X161129Y16210D01*
D02*G37*
G36*
X163727Y15974D02*
X166011Y16289D01*
X163137Y16013D01*
D02*G37*
G36*
X164239Y15895D02*
X166011Y16289D01*
X163727Y15974D01*
D02*G37*
G36*
X160263Y15777D02*
X162389Y15974D01*
X161129Y16210D01*
D02*G37*
G36*
X161719Y15777D02*
X162389Y15974D01*
X160263Y15777D01*
D02*G37*
G36*
X164672Y15698D02*
X166011Y16289D01*
X164239Y15895D01*
D02*G37*
G36*
X166838Y15698D02*
X166011Y16289D01*
X164672Y15698D01*
D02*G37*
G36*
X161129Y15462D02*
X161719Y15777D01*
X160263Y15777D01*
D02*G37*
G36*
X165066Y15462D02*
X166838Y15698D01*
X164672Y15698D01*
D02*G37*
G36*
X167034Y15462D02*
X166838Y15698D01*
X165066Y15462D01*
D02*G37*
G36*
X165342Y15147D02*
X167034Y15462D01*
X165066Y15462D01*
D02*G37*
G36*
X160656Y15029D02*
X161129Y15462D01*
X160263Y15777D01*
D02*G37*
G36*
X167271Y14990D02*
X167034Y15462D01*
X165342Y15147D01*
D02*G37*
G36*
X160538Y14832D02*
X160656Y15029D01*
X160263Y15777D01*
D02*G37*
G36*
X165578Y14793D02*
X167271Y14990D01*
X165342Y15147D01*
D02*G37*
G36*
X160263Y14753D02*
X160538Y14832D01*
X160263Y15777D01*
D02*G37*
G36*
X160499Y14753D02*
X160538Y14832D01*
X160263Y14753D01*
D02*G37*
G36*
X167310Y14753D02*
X167271Y14990D01*
X165578Y14793D01*
D02*G37*
G36*
X167349Y14438D02*
X167310Y14753D01*
X165578Y14793D01*
D02*G37*
G36*
X165696Y14360D02*
X167349Y14438D01*
X165578Y14793D01*
D02*G37*
G36*
X167389Y14084D02*
X167349Y14438D01*
X165696Y14360D01*
D02*G37*
G36*
X165735Y13887D02*
X167389Y14084D01*
X165696Y14360D01*
D02*G37*
G36*
X167389Y13690D02*
X167389Y14084D01*
X165735Y13887D01*
D02*G37*
G36*
X165735Y13533D02*
X167389Y13690D01*
X165735Y13887D01*
D02*G37*
G36*
X165656Y13297D02*
X167389Y13690D01*
X165735Y13533D01*
D02*G37*
G36*
X165302Y13100D02*
X167389Y13690D01*
X165656Y13297D01*
D02*G37*
G36*
X165027Y12982D02*
X167389Y13690D01*
X165302Y13100D01*
D02*G37*
G36*
X163373Y12667D02*
X164593Y12864D01*
X164042Y12785D01*
D02*G37*
G36*
X165736Y12549D02*
X167389Y13690D01*
X165027Y12982D01*
D02*G37*
G36*
X165736Y12549D02*
X165027Y12982D01*
X164593Y12864D01*
D02*G37*
G36*
X165736Y12549D02*
X164593Y12864D01*
X163373Y12667D01*
D02*G37*
G36*
X165736Y12549D02*
X163373Y12667D01*
X162468Y12549D01*
D02*G37*
G36*
X165538Y12509D02*
X165736Y12549D01*
X162468Y12549D01*
D02*G37*
G36*
X161680Y12391D02*
X165538Y12509D01*
X162468Y12549D01*
D02*G37*
G36*
X164869Y12391D02*
X165538Y12509D01*
X161680Y12391D01*
D02*G37*
G36*
X164239Y12273D02*
X164869Y12391D01*
X161680Y12391D01*
D02*G37*
G36*
X161050Y12234D02*
X164239Y12273D01*
X161680Y12391D01*
D02*G37*
G36*
X163688Y12194D02*
X164239Y12273D01*
X161050Y12234D01*
D02*G37*
G36*
X163216Y12116D02*
X163688Y12194D01*
X161050Y12234D01*
D02*G37*
G36*
X160538Y12037D02*
X163216Y12116D01*
X161050Y12234D01*
D02*G37*
G36*
X162861Y12037D02*
X163216Y12116D01*
X160538Y12037D01*
D02*G37*
G36*
X162231Y11840D02*
X162861Y12037D01*
X160538Y12037D01*
D02*G37*
G36*
X160027Y11722D02*
X162231Y11840D01*
X160538Y12037D01*
D02*G37*
G36*
X167310Y11564D02*
X167389Y13690D01*
X165736Y12549D01*
D02*G37*
G36*
X161641Y11486D02*
X162231Y11840D01*
X160027Y11722D01*
D02*G37*
G36*
X159593Y11250D02*
X161641Y11486D01*
X160027Y11722D01*
D02*G37*
G36*
X161405Y11250D02*
X161641Y11486D01*
X159593Y11250D01*
D02*G37*
G36*
X159436Y10974D02*
X161405Y11250D01*
X159593Y11250D01*
D02*G37*
G36*
X161208Y10974D02*
X161405Y11250D01*
X159436Y10974D01*
D02*G37*
G36*
X159318Y10659D02*
X161208Y10974D01*
X159436Y10974D01*
D02*G37*
G36*
X161129Y10659D02*
X161208Y10974D01*
X159318Y10659D01*
D02*G37*
G36*
X161090Y10344D02*
X161129Y10659D01*
X159318Y10659D01*
D02*G37*
G36*
X159239Y10108D02*
X161090Y10344D01*
X159318Y10659D01*
D02*G37*
G36*
X161129Y9911D02*
X161090Y10344D01*
X159239Y10108D01*
D02*G37*
G36*
X165617Y9872D02*
X167310Y11564D01*
X165736Y12549D01*
D02*G37*
G36*
X167310Y9872D02*
X167310Y11564D01*
X165617Y9872D01*
D02*G37*
G36*
X165460Y9675D02*
X167310Y9872D01*
X165617Y9872D01*
D02*G37*
G36*
X159279Y9635D02*
X161129Y9911D01*
X159239Y10108D01*
D02*G37*
G36*
X161208Y9596D02*
X161129Y9911D01*
X159279Y9635D01*
D02*G37*
G36*
X167349Y9517D02*
X167310Y9872D01*
X165460Y9675D01*
D02*G37*
G36*
X165223Y9438D02*
X167349Y9517D01*
X165460Y9675D01*
D02*G37*
G36*
X165027Y9320D02*
X167349Y9517D01*
X165223Y9438D01*
D02*G37*
G36*
X161405Y9281D02*
X161208Y9596D01*
X159279Y9635D01*
D02*G37*
G36*
X167389Y9242D02*
X167349Y9517D01*
X165027Y9320D01*
D02*G37*
G36*
X159475Y9202D02*
X161405Y9281D01*
X159279Y9635D01*
D02*G37*
G36*
X165696Y9163D02*
X167389Y9242D01*
X165027Y9320D01*
D02*G37*
G36*
X161641Y9045D02*
X161405Y9281D01*
X159475Y9202D01*
D02*G37*
G36*
X164633Y9005D02*
X165696Y9163D01*
X165027Y9320D01*
D02*G37*
G36*
X165499Y9005D02*
X165696Y9163D01*
X164633Y9005D01*
D02*G37*
G36*
X159751Y8848D02*
X161641Y9045D01*
X159475Y9202D01*
D02*G37*
G36*
X161916Y8848D02*
X161641Y9045D01*
X159751Y8848D01*
D02*G37*
G36*
X167546Y8848D02*
X167389Y9242D01*
X165696Y9163D01*
D02*G37*
G36*
X164160Y8809D02*
X165499Y9005D01*
X164633Y9005D01*
D02*G37*
G36*
X162310Y8730D02*
X161916Y8848D01*
X159751Y8848D01*
D02*G37*
G36*
X165853Y8730D02*
X167546Y8848D01*
X165696Y9163D01*
D02*G37*
G36*
X167704Y8730D02*
X167546Y8848D01*
X165853Y8730D01*
D02*G37*
G36*
X163727Y8690D02*
X165499Y9005D01*
X164160Y8809D01*
D02*G37*
G36*
X162743Y8651D02*
X162310Y8730D01*
X159751Y8848D01*
D02*G37*
G36*
X167901Y8651D02*
X167704Y8730D01*
X165853Y8730D01*
D02*G37*
G36*
X163255Y8612D02*
X162743Y8651D01*
X159751Y8848D01*
D02*G37*
G36*
X168137Y8612D02*
X167901Y8651D01*
X165853Y8730D01*
D02*G37*
G36*
X164751Y8533D02*
X165499Y9005D01*
X163727Y8690D01*
D02*G37*
G36*
X164751Y8533D02*
X163727Y8690D01*
X163255Y8612D01*
D02*G37*
G36*
X160105Y8494D02*
X163255Y8612D01*
X159751Y8848D01*
D02*G37*
G36*
X160105Y8494D02*
X164751Y8533D01*
X163255Y8612D01*
D02*G37*
G36*
X166168Y8375D02*
X168137Y8612D01*
X165853Y8730D01*
D02*G37*
G36*
X168649Y8297D02*
X168649Y8690D01*
X168452Y8651D01*
D02*G37*
G36*
X168649Y8297D02*
X168452Y8651D01*
X168137Y8612D01*
D02*G37*
G36*
X168649Y8297D02*
X168137Y8612D01*
X166168Y8375D01*
D02*G37*
G36*
X160578Y8257D02*
X164751Y8533D01*
X160105Y8494D01*
D02*G37*
G36*
X168491Y8257D02*
X168649Y8297D01*
X166168Y8375D01*
D02*G37*
G36*
X163964Y8179D02*
X164751Y8533D01*
X160578Y8257D01*
D02*G37*
G36*
X166641Y8179D02*
X168491Y8257D01*
X166168Y8375D01*
D02*G37*
G36*
X168216Y8179D02*
X168491Y8257D01*
X166641Y8179D01*
D02*G37*
G36*
X167979Y8139D02*
X168216Y8179D01*
X166641Y8179D01*
D02*G37*
G36*
X167271Y8100D02*
X167979Y8139D01*
X166641Y8179D01*
D02*G37*
G36*
X167546Y8100D02*
X167979Y8139D01*
X167271Y8100D01*
D02*G37*
G36*
X161090Y8061D02*
X163964Y8179D01*
X160578Y8257D01*
D02*G37*
G36*
X163137Y7982D02*
X163964Y8179D01*
X161090Y8061D01*
D02*G37*
G36*
X161641Y7942D02*
X163137Y7982D01*
X161090Y8061D01*
D02*G37*
G36*
X162231Y7903D02*
X163137Y7982D01*
X161641Y7942D01*
D02*G37*
G36*
X171129Y18415D02*
X173058Y19005D01*
X173058Y18769D01*
X173019Y18572D01*
X172901Y16407D01*
X175263Y16446D01*
X175263Y15738D01*
X172901Y15777D01*
X172822Y15620D01*
X172822Y15383D01*
X172782Y11446D01*
X172782Y10698D01*
X172822Y10226D01*
X172861Y9832D01*
X172979Y9438D01*
X173137Y9124D01*
X173334Y8848D01*
X173649Y8651D01*
X174042Y8533D01*
X174515Y8533D01*
X174751Y8533D01*
X175027Y8572D01*
X175302Y8612D01*
X175538Y8651D01*
X175538Y8218D01*
X174633Y8021D01*
X173649Y7982D01*
X173373Y7982D01*
X173019Y8021D01*
X172664Y8100D01*
X172192Y8218D01*
X171798Y8494D01*
X171444Y8887D01*
X171208Y9281D01*
X171168Y9596D01*
X171090Y9911D01*
X171090Y10305D01*
X171090Y10738D01*
X171208Y13887D01*
X171208Y15383D01*
X171208Y15777D01*
X169751Y15738D01*
X169751Y15974D01*
X169751Y16486D01*
X171208Y16407D01*
X171208Y16604D01*
X171208Y16840D01*
X171208Y17116D01*
X171168Y17431D01*
X171168Y17746D01*
X171168Y17982D01*
X171129Y18218D01*
X171129Y18415D01*
D02*G37*
G36*
X177704Y16446D02*
X177704Y16604D01*
X177901Y16564D01*
X178137Y16525D01*
X178412Y16525D01*
X178767Y16525D01*
X179042Y16525D01*
X179279Y16525D01*
X179475Y16564D01*
X179593Y16604D01*
X179554Y15620D01*
X179515Y14596D01*
X179475Y13494D01*
X179475Y12352D01*
X179515Y10305D01*
X179593Y8257D01*
X179593Y8100D01*
X179082Y8139D01*
X178649Y8139D01*
X178334Y8139D01*
X178097Y8139D01*
X177861Y8139D01*
X177704Y8100D01*
X177743Y9084D01*
X177782Y10108D01*
X177822Y11210D01*
X177822Y12352D01*
X177822Y13021D01*
X177822Y13651D01*
X177822Y14242D01*
X177782Y14753D01*
X177782Y15265D01*
X177782Y15698D01*
X177743Y16092D01*
X177704Y16446D01*
D02*G37*
G36*
X179160Y18848D02*
X178767Y18769D01*
X178334Y18848D01*
X177940Y19045D01*
X177822Y19202D01*
X177704Y19320D01*
X177625Y19517D01*
X177625Y19675D01*
X177625Y19872D01*
X177704Y20029D01*
X177822Y20187D01*
X177940Y20344D01*
X178334Y20541D01*
X178767Y20620D01*
X179160Y20541D01*
X179515Y20344D01*
X179672Y20187D01*
X179790Y20029D01*
X179830Y19872D01*
X179869Y19675D01*
X179830Y19517D01*
X179790Y19360D01*
X179672Y19202D01*
X179515Y19045D01*
X179160Y18848D01*
D02*G37*
G36*
X183412Y8572D02*
X183491Y9990D01*
X183609Y16761D01*
X183491Y21013D01*
X183491Y21525D01*
X183688Y21446D01*
X185027Y21446D01*
X185184Y21486D01*
X185263Y21525D01*
X185342Y21486D01*
X185342Y21210D01*
X185342Y20935D01*
X185184Y17785D01*
X185184Y13494D01*
X185223Y13139D01*
X185342Y12903D01*
X185735Y12942D01*
X186168Y13139D01*
X186719Y13494D01*
X187310Y13966D01*
X188688Y15068D01*
X190420Y16564D01*
X190617Y16525D01*
X191129Y16525D01*
X191444Y16525D01*
X191759Y16525D01*
X191995Y16525D01*
X192192Y16564D01*
X192192Y16446D01*
X191523Y16013D01*
X190735Y15462D01*
X190302Y15187D01*
X189987Y14950D01*
X189712Y14793D01*
X189515Y14635D01*
X188767Y14163D01*
X187271Y13021D01*
X187782Y12588D01*
X188334Y12037D01*
X189042Y11407D01*
X189790Y10698D01*
X190814Y9793D01*
X191838Y8887D01*
X192507Y8218D01*
X192507Y8100D01*
X192310Y8139D01*
X192074Y8139D01*
X191759Y8139D01*
X191444Y8139D01*
X191050Y8139D01*
X190735Y8139D01*
X190460Y8139D01*
X190263Y8100D01*
X189593Y8769D01*
X189042Y9320D01*
X188334Y9990D01*
X187192Y11053D01*
X186050Y12076D01*
X185814Y12273D01*
X185656Y12431D01*
X185184Y12431D01*
X185184Y12155D01*
X185145Y11722D01*
X185145Y9990D01*
X185263Y8572D01*
X185263Y8100D01*
X185066Y8139D01*
X184593Y8139D01*
X184239Y8139D01*
X183885Y8139D01*
X183649Y8139D01*
X183412Y8100D01*
X183412Y8572D01*
D02*G37*
G36*
X197679Y14441D02*
X197364Y14520D01*
X197285Y14520D01*
D02*G37*
G36*
X198191Y14402D02*
X198191Y14520D01*
X197994Y14441D01*
D02*G37*
G36*
X198191Y14402D02*
X197994Y14441D01*
X197679Y14441D01*
D02*G37*
G36*
X197285Y14283D02*
X197679Y14441D01*
X197285Y14520D01*
D02*G37*
G36*
X197285Y14283D02*
X198191Y14402D01*
X197679Y14441D01*
D02*G37*
G36*
X198152Y14283D02*
X198191Y14402D01*
X197285Y14283D01*
D02*G37*
G36*
X198112Y13457D02*
X198152Y14283D01*
X197285Y14283D01*
D02*G37*
G36*
X197325Y12157D02*
X198112Y13457D01*
X197285Y14283D01*
D02*G37*
G36*
X199411Y12000D02*
X200474Y12039D01*
X199923Y12079D01*
D02*G37*
G36*
X200907Y11921D02*
X200474Y12039D01*
X199411Y12000D01*
D02*G37*
G36*
X198939Y11843D02*
X200907Y11921D01*
X199411Y12000D01*
D02*G37*
G36*
X199687Y11724D02*
X200907Y11921D01*
X198939Y11843D01*
D02*G37*
G36*
X199254Y11685D02*
X199687Y11724D01*
X198939Y11843D01*
D02*G37*
G36*
X200002Y11685D02*
X200907Y11921D01*
X199687Y11724D01*
D02*G37*
G36*
X201262Y11685D02*
X200907Y11921D01*
X200002Y11685D01*
D02*G37*
G36*
X198467Y11567D02*
X199254Y11685D01*
X198939Y11843D01*
D02*G37*
G36*
X200317Y11567D02*
X201262Y11685D01*
X200002Y11685D01*
D02*G37*
G36*
X198900Y11528D02*
X199254Y11685D01*
X198467Y11567D01*
D02*G37*
G36*
X201577Y11449D02*
X201262Y11685D01*
X200317Y11567D01*
D02*G37*
G36*
X200593Y11409D02*
X201577Y11449D01*
X200317Y11567D01*
D02*G37*
G36*
X198073Y11370D02*
X198112Y13457D01*
X197325Y12157D01*
D02*G37*
G36*
X198585Y11291D02*
X198900Y11528D01*
X198467Y11567D01*
D02*G37*
G36*
X198073Y11173D02*
X198073Y11370D01*
X197325Y12157D01*
D02*G37*
G36*
X198073Y11173D02*
X198585Y11291D01*
X198467Y11567D01*
D02*G37*
G36*
X200830Y11173D02*
X201577Y11449D01*
X200593Y11409D01*
D02*G37*
G36*
X201813Y11134D02*
X201577Y11449D01*
X200830Y11173D01*
D02*G37*
G36*
X198348Y10976D02*
X198585Y11291D01*
X198073Y11173D01*
D02*G37*
G36*
X200986Y10937D02*
X201813Y11134D01*
X200830Y11173D01*
D02*G37*
G36*
X201970Y10780D02*
X201813Y11134D01*
X200986Y10937D01*
D02*G37*
G36*
X198230Y10701D02*
X198348Y10976D01*
X198073Y11173D01*
D02*G37*
G36*
X198230Y10701D02*
X198073Y11173D01*
X197325Y12157D01*
D02*G37*
G36*
X201104Y10622D02*
X201970Y10780D01*
X200986Y10937D01*
D02*G37*
G36*
X198152Y10425D02*
X198230Y10701D01*
X197325Y12157D01*
D02*G37*
G36*
X202049Y10425D02*
X201970Y10780D01*
X201104Y10622D01*
D02*G37*
G36*
X198073Y10031D02*
X198152Y10425D01*
X197325Y12157D01*
D02*G37*
G36*
X201183Y9992D02*
X202049Y10425D01*
X201104Y10622D01*
D02*G37*
G36*
X202089Y9992D02*
X202049Y10425D01*
X201183Y9992D01*
D02*G37*
G36*
X198073Y9598D02*
X198073Y10031D01*
X197325Y12157D01*
D02*G37*
G36*
X201144Y9598D02*
X202089Y9992D01*
X201183Y9992D01*
D02*G37*
G36*
X202010Y9402D02*
X202089Y9992D01*
X201144Y9598D01*
D02*G37*
G36*
X201104Y9244D02*
X202010Y9402D01*
X201144Y9598D01*
D02*G37*
G36*
X198152Y8968D02*
X198073Y9598D01*
X197325Y12157D01*
D02*G37*
G36*
X200947Y8929D02*
X202010Y9402D01*
X201104Y9244D01*
D02*G37*
G36*
X201813Y8850D02*
X202010Y9402D01*
X200947Y8929D01*
D02*G37*
G36*
X197285Y8772D02*
X198152Y8968D01*
X197325Y12157D01*
D02*G37*
G36*
X198270Y8693D02*
X198152Y8968D01*
X197285Y8772D01*
D02*G37*
G36*
X200789Y8575D02*
X201813Y8850D01*
X200947Y8929D01*
D02*G37*
G36*
X198427Y8457D02*
X198270Y8693D01*
X197285Y8772D01*
D02*G37*
G36*
X201459Y8378D02*
X201813Y8850D01*
X200789Y8575D01*
D02*G37*
G36*
X198152Y8299D02*
X198427Y8457D01*
X197285Y8772D01*
D02*G37*
G36*
X200553Y8299D02*
X201459Y8378D01*
X200789Y8575D01*
D02*G37*
G36*
X198073Y8260D02*
X198152Y8299D01*
X197285Y8772D01*
D02*G37*
G36*
X198624Y8260D02*
X198427Y8457D01*
X198152Y8299D01*
D02*G37*
G36*
X198230Y8220D02*
X198624Y8260D01*
X198152Y8299D01*
D02*G37*
G36*
X197915Y8142D02*
X198073Y8260D01*
X197285Y8772D01*
D02*G37*
G36*
X198939Y8102D02*
X198624Y8260D01*
X198230Y8220D01*
D02*G37*
G36*
X200278Y8102D02*
X201459Y8378D01*
X200553Y8299D01*
D02*G37*
G36*
X197285Y7984D02*
X197915Y8142D01*
X197285Y8772D01*
D02*G37*
G36*
X197718Y7984D02*
X197915Y8142D01*
X197285Y7984D01*
D02*G37*
G36*
X198545Y7984D02*
X198939Y8102D01*
X198230Y8220D01*
D02*G37*
G36*
X199254Y7984D02*
X198939Y8102D01*
X198545Y7984D01*
D02*G37*
G36*
X199963Y7984D02*
X201459Y8378D01*
X200278Y8102D01*
D02*G37*
G36*
X200947Y7984D02*
X201459Y8378D01*
X199963Y7984D01*
D02*G37*
G36*
X197246Y7866D02*
X197718Y7984D01*
X197285Y7984D01*
D02*G37*
G36*
X200671Y7866D02*
X200947Y7984D01*
X198545Y7984D01*
D02*G37*
G36*
X198900Y7827D02*
X200671Y7866D01*
X198545Y7984D01*
D02*G37*
G36*
X197246Y7787D02*
X197718Y7984D01*
X197246Y7866D01*
D02*G37*
G36*
X197443Y7787D02*
X197718Y7984D01*
X197246Y7787D01*
D02*G37*
G36*
X200356Y7748D02*
X200671Y7866D01*
X198900Y7827D01*
D02*G37*
G36*
X199254Y7709D02*
X200356Y7748D01*
X198900Y7827D01*
D02*G37*
G36*
X199687Y7669D02*
X200356Y7748D01*
X199254Y7709D01*
D02*G37*
G36*
X200041Y7669D02*
X200356Y7748D01*
X199687Y7669D01*
D02*G37*
G36*
X203742Y5937D02*
X204215Y6685D01*
X204648Y7394D01*
X204844Y7709D01*
X204884Y7787D01*
X204766Y8102D01*
X202758Y12039D01*
X203112Y12000D01*
X203348Y12000D01*
X203781Y12039D01*
X203860Y11803D01*
X204411Y10583D01*
X205278Y8772D01*
X205356Y8732D01*
X205474Y8968D01*
X205868Y9638D01*
X206262Y10543D01*
X206892Y12039D01*
X207207Y12000D01*
X207443Y12000D01*
X207600Y12039D01*
X205120Y7354D01*
X204451Y5937D01*
X204136Y5976D01*
X203742Y5937D01*
D02*G37*
G36*
X213033Y14008D02*
X213230Y14008D01*
X214687Y11646D01*
X216301Y9205D01*
X216537Y9559D01*
X216734Y9874D01*
X217128Y10465D01*
X218506Y12630D01*
X218585Y12709D01*
X218663Y12866D01*
X218781Y13024D01*
X218939Y13260D01*
X219215Y13654D01*
X219451Y14008D01*
X219569Y14008D01*
X220081Y10110D01*
X220159Y9520D01*
X220278Y8850D01*
X220356Y8260D01*
X220435Y7787D01*
X220159Y7787D01*
X219963Y7827D01*
X219648Y7787D01*
X219451Y7787D01*
X219096Y11055D01*
X218900Y12394D01*
X217404Y10071D01*
X216852Y9126D01*
X216695Y8890D01*
X216537Y8575D01*
X216104Y7866D01*
X215986Y7866D01*
X215396Y8850D01*
X215159Y9323D01*
X214805Y9874D01*
X214096Y11055D01*
X213703Y11685D01*
X213270Y12394D01*
X212797Y8890D01*
X212758Y7984D01*
X212758Y7787D01*
X212561Y7787D01*
X212325Y7787D01*
X212167Y7787D01*
X212010Y7787D01*
X212010Y7866D01*
X212364Y9717D01*
X212876Y12984D01*
X212915Y13181D01*
X212955Y13417D01*
X213033Y14008D01*
D02*G37*
G36*
X225199Y9992D02*
X225199Y11449D01*
X225199Y11961D01*
X225199Y12039D01*
X225356Y12000D01*
X225593Y12000D01*
X225868Y12000D01*
X226065Y12039D01*
X226026Y11724D01*
X225986Y11409D01*
X225986Y11173D01*
X225986Y10976D01*
X225986Y10661D01*
X225986Y10307D01*
X225986Y9874D01*
X225986Y9362D01*
X225986Y9165D01*
X225986Y8890D01*
X225986Y8575D01*
X225986Y8378D01*
X225986Y8024D01*
X225986Y7787D01*
X225750Y7787D01*
X225593Y7827D01*
X225356Y7787D01*
X225199Y7787D01*
X225199Y7984D01*
X225199Y8496D01*
X225199Y8575D01*
X224884Y8220D01*
X224490Y7945D01*
X224018Y7787D01*
X223506Y7748D01*
X223073Y7787D01*
X222718Y7866D01*
X222404Y7984D01*
X222128Y8181D01*
X221970Y8417D01*
X221852Y8732D01*
X221813Y9047D01*
X221774Y9480D01*
X221813Y10740D01*
X221774Y11646D01*
X221774Y11961D01*
X221774Y12039D01*
X222246Y12000D01*
X222482Y12000D01*
X222679Y12039D01*
X222640Y11370D01*
X222600Y10858D01*
X222561Y10425D01*
X222561Y10031D01*
X222561Y9677D01*
X222561Y9362D01*
X222600Y9087D01*
X222679Y8890D01*
X222758Y8732D01*
X222955Y8496D01*
X223191Y8299D01*
X223506Y8220D01*
X223860Y8181D01*
X224333Y8220D01*
X224687Y8457D01*
X225002Y8732D01*
X225159Y9165D01*
X225199Y9520D01*
X225199Y9992D01*
D02*G37*
G36*
X231813Y11724D02*
X231577Y11134D01*
X231498Y11134D01*
X231341Y11331D01*
X231222Y11449D01*
X230986Y11567D01*
X230750Y11685D01*
X230435Y11764D01*
X230159Y11803D01*
X229726Y11764D01*
X229372Y11685D01*
X229057Y11488D01*
X228781Y11252D01*
X228545Y10976D01*
X228388Y10661D01*
X228309Y10307D01*
X228270Y9953D01*
X228309Y9559D01*
X228388Y9165D01*
X228545Y8850D01*
X228781Y8575D01*
X229057Y8339D01*
X229411Y8142D01*
X229844Y8024D01*
X230238Y7984D01*
X230632Y8024D01*
X230986Y8142D01*
X231380Y8299D01*
X231734Y8575D01*
X231813Y8535D01*
X231734Y8102D01*
X231380Y7906D01*
X230986Y7787D01*
X230553Y7709D01*
X230120Y7669D01*
X229293Y7748D01*
X228585Y7945D01*
X228033Y8299D01*
X227640Y8811D01*
X227443Y9323D01*
X227364Y9874D01*
X227404Y10228D01*
X227443Y10504D01*
X227561Y10819D01*
X227718Y11055D01*
X228152Y11488D01*
X228703Y11803D01*
X229372Y12000D01*
X230159Y12079D01*
X230632Y12039D01*
X231065Y12000D01*
X231459Y11882D01*
X231813Y11724D01*
D02*G37*
G36*
X233112Y8024D02*
X233152Y8732D01*
X233191Y12118D01*
X233152Y14244D01*
X233152Y14520D01*
X233230Y14441D01*
X233860Y14441D01*
X233939Y14480D01*
X234018Y14520D01*
X234057Y14480D01*
X234018Y14362D01*
X234018Y14205D01*
X233978Y12630D01*
X233978Y10465D01*
X233978Y10307D01*
X234057Y10189D01*
X234215Y10228D01*
X234451Y10307D01*
X234687Y10465D01*
X234963Y10701D01*
X235632Y11291D01*
X236459Y12039D01*
X236537Y12000D01*
X236774Y11961D01*
X237089Y11961D01*
X237285Y12039D01*
X236970Y11764D01*
X236577Y11488D01*
X236222Y11252D01*
X236026Y11094D01*
X235671Y10819D01*
X234963Y10268D01*
X235199Y10031D01*
X235474Y9756D01*
X235789Y9441D01*
X236144Y9087D01*
X236656Y8654D01*
X237128Y8181D01*
X237443Y7827D01*
X237246Y7787D01*
X236931Y7827D01*
X236616Y7787D01*
X236380Y7787D01*
X236065Y8102D01*
X235789Y8378D01*
X235435Y8732D01*
X234884Y9283D01*
X234372Y9795D01*
X234175Y9953D01*
X233978Y9953D01*
X233939Y9795D01*
X233939Y9598D01*
X233939Y8732D01*
X233978Y8024D01*
X233978Y7787D01*
X233900Y7787D01*
X233663Y7827D01*
X233348Y7787D01*
X233112Y7787D01*
X233112Y8024D01*
D02*G37*
G36*
X241970Y8929D02*
X242089Y8929D01*
X242443Y8535D01*
X242837Y8260D01*
X243270Y8102D01*
X243821Y8024D01*
X244096Y8063D01*
X244372Y8102D01*
X244648Y8220D01*
X244844Y8417D01*
X245041Y8614D01*
X245159Y8811D01*
X245238Y9047D01*
X245278Y9323D01*
X245199Y9677D01*
X245002Y9953D01*
X244687Y10228D01*
X244215Y10465D01*
X243703Y10661D01*
X243152Y10858D01*
X242718Y11055D01*
X242404Y11291D01*
X242167Y11567D01*
X242010Y11921D01*
X241970Y12276D01*
X242010Y12669D01*
X242128Y13024D01*
X242364Y13299D01*
X242640Y13575D01*
X242994Y13772D01*
X243388Y13890D01*
X243821Y13968D01*
X244333Y14008D01*
X244766Y13968D01*
X245199Y13890D01*
X245553Y13772D01*
X245829Y13614D01*
X245711Y13299D01*
X245553Y12866D01*
X245435Y12866D01*
X245238Y13181D01*
X244923Y13457D01*
X244569Y13614D01*
X244136Y13693D01*
X243624Y13614D01*
X243191Y13378D01*
X243033Y13220D01*
X242915Y13024D01*
X242837Y12827D01*
X242797Y12591D01*
X242837Y12354D01*
X242915Y12118D01*
X243033Y11921D01*
X243230Y11764D01*
X243663Y11528D01*
X244057Y11370D01*
X244372Y11291D01*
X244569Y11213D01*
X244805Y11134D01*
X245041Y11016D01*
X245278Y10898D01*
X245474Y10819D01*
X245593Y10701D01*
X245711Y10622D01*
X245907Y10386D01*
X246026Y10150D01*
X246104Y9913D01*
X246144Y9677D01*
X246104Y9402D01*
X246065Y9087D01*
X245947Y8850D01*
X245789Y8614D01*
X245396Y8220D01*
X244844Y7906D01*
X244215Y7709D01*
X243506Y7669D01*
X243033Y7709D01*
X242561Y7787D01*
X242089Y7945D01*
X241774Y8142D01*
X241892Y8496D01*
X241970Y8929D01*
D02*G37*
G36*
X250278Y12079D02*
X249726Y12118D01*
X249175Y12079D01*
D02*G37*
G36*
X248663Y11961D02*
X250278Y12079D01*
X249175Y12079D01*
D02*G37*
G36*
X250750Y11961D02*
X250278Y12079D01*
X248663Y11961D01*
D02*G37*
G36*
X249726Y11803D02*
X250750Y11961D01*
X248663Y11961D01*
D02*G37*
G36*
X248191Y11764D02*
X249726Y11803D01*
X248663Y11961D01*
D02*G37*
G36*
X249293Y11764D02*
X249726Y11803D01*
X248191Y11764D01*
D02*G37*
G36*
X250081Y11764D02*
X250750Y11961D01*
X249726Y11803D01*
D02*G37*
G36*
X251183Y11724D02*
X250750Y11961D01*
X250081Y11764D01*
D02*G37*
G36*
X248900Y11685D02*
X249293Y11764D01*
X248191Y11764D01*
D02*G37*
G36*
X250435Y11685D02*
X251183Y11724D01*
X250081Y11764D01*
D02*G37*
G36*
X247797Y11528D02*
X248900Y11685D01*
X248191Y11764D01*
D02*G37*
G36*
X248624Y11488D02*
X248900Y11685D01*
X247797Y11528D01*
D02*G37*
G36*
X250671Y11488D02*
X251183Y11724D01*
X250435Y11685D01*
D02*G37*
G36*
X251577Y11409D02*
X251183Y11724D01*
X250671Y11488D01*
D02*G37*
G36*
X250907Y11252D02*
X251577Y11409D01*
X250671Y11488D01*
D02*G37*
G36*
X248388Y11213D02*
X248624Y11488D01*
X247797Y11528D01*
D02*G37*
G36*
X247443Y11173D02*
X248388Y11213D01*
X247797Y11528D01*
D02*G37*
G36*
X251852Y11134D02*
X251577Y11409D01*
X250907Y11252D01*
D02*G37*
G36*
X251065Y10937D02*
X251852Y11134D01*
X250907Y11252D01*
D02*G37*
G36*
X248191Y10898D02*
X248388Y11213D01*
X247443Y11173D01*
D02*G37*
G36*
X247207Y10819D02*
X248191Y10898D01*
X247443Y11173D01*
D02*G37*
G36*
X252049Y10740D02*
X251852Y11134D01*
X251065Y10937D01*
D02*G37*
G36*
X251183Y10622D02*
X252049Y10740D01*
X251065Y10937D01*
D02*G37*
G36*
X248073Y10583D02*
X248191Y10898D01*
X247207Y10819D01*
D02*G37*
G36*
X247049Y10386D02*
X248073Y10583D01*
X247207Y10819D01*
D02*G37*
G36*
X252167Y10346D02*
X252049Y10740D01*
X251183Y10622D01*
D02*G37*
G36*
X251222Y10307D02*
X252167Y10346D01*
X251183Y10622D01*
D02*G37*
G36*
X247994Y10189D02*
X248073Y10583D01*
X247049Y10386D01*
D02*G37*
G36*
X247010Y9953D02*
X247994Y10189D01*
X247049Y10386D01*
D02*G37*
G36*
X251262Y9953D02*
X252167Y10346D01*
X251222Y10307D01*
D02*G37*
G36*
X252207Y9913D02*
X252167Y10346D01*
X251262Y9953D01*
D02*G37*
G36*
X247955Y9795D02*
X247994Y10189D01*
X247010Y9953D01*
D02*G37*
G36*
X251262Y9677D02*
X252207Y9913D01*
X251262Y9953D01*
D02*G37*
G36*
X251222Y9480D02*
X252207Y9913D01*
X251262Y9677D01*
D02*G37*
G36*
X247049Y9441D02*
X247955Y9795D01*
X247010Y9953D01*
D02*G37*
G36*
X247994Y9441D02*
X247955Y9795D01*
X247049Y9441D01*
D02*G37*
G36*
X252128Y9283D02*
X252207Y9913D01*
X251222Y9480D01*
D02*G37*
G36*
X248073Y9087D02*
X247994Y9441D01*
X247049Y9441D01*
D02*G37*
G36*
X247128Y9047D02*
X248073Y9087D01*
X247049Y9441D01*
D02*G37*
G36*
X252010Y8968D02*
X252128Y9283D01*
X251222Y9480D01*
D02*G37*
G36*
X251065Y8929D02*
X252010Y8968D01*
X251222Y9480D01*
D02*G37*
G36*
X248191Y8772D02*
X248073Y9087D01*
X247128Y9047D01*
D02*G37*
G36*
X247325Y8693D02*
X248191Y8772D01*
X247128Y9047D01*
D02*G37*
G36*
X251813Y8693D02*
X252010Y8968D01*
X251065Y8929D01*
D02*G37*
G36*
X248348Y8496D02*
X248191Y8772D01*
X247325Y8693D01*
D02*G37*
G36*
X250830Y8496D02*
X251813Y8693D01*
X251065Y8929D01*
D02*G37*
G36*
X247600Y8378D02*
X248348Y8496D01*
X247325Y8693D01*
D02*G37*
G36*
X248585Y8260D02*
X248348Y8496D01*
X247600Y8378D01*
D02*G37*
G36*
X250553Y8260D02*
X251813Y8693D01*
X250830Y8496D01*
D02*G37*
G36*
X251419Y8220D02*
X251813Y8693D01*
X250553Y8260D01*
D02*G37*
G36*
X248860Y8102D02*
X248585Y8260D01*
X247600Y8378D01*
D02*G37*
G36*
X250278Y8102D02*
X251419Y8220D01*
X250553Y8260D01*
D02*G37*
G36*
X247994Y8063D02*
X248860Y8102D01*
X247600Y8378D01*
D02*G37*
G36*
X249215Y7984D02*
X248860Y8102D01*
X247994Y8063D01*
D02*G37*
G36*
X249963Y7984D02*
X251419Y8220D01*
X250278Y8102D01*
D02*G37*
G36*
X250907Y7906D02*
X251419Y8220D01*
X249963Y7984D01*
D02*G37*
G36*
X250907Y7906D02*
X249963Y7984D01*
X249215Y7984D01*
D02*G37*
G36*
X248427Y7866D02*
X249215Y7984D01*
X247994Y8063D01*
D02*G37*
G36*
X248427Y7866D02*
X250907Y7906D01*
X249215Y7984D01*
D02*G37*
G36*
X250278Y7748D02*
X250907Y7906D01*
X248427Y7866D01*
D02*G37*
G36*
X248978Y7709D02*
X250278Y7748D01*
X248427Y7866D01*
D02*G37*
G36*
X249530Y7669D02*
X250278Y7748D01*
X248978Y7709D01*
D02*G37*
G36*
X254490Y12276D02*
X254490Y8811D01*
X254490Y7866D01*
X254530Y7787D01*
X254254Y7787D01*
X253860Y7787D01*
X253624Y7787D01*
X253624Y8063D01*
X253703Y10150D01*
X253703Y13614D01*
X253663Y14441D01*
X253663Y14520D01*
X253781Y14441D01*
X254451Y14441D01*
X254569Y14520D01*
X254569Y14244D01*
X254490Y12276D01*
D02*G37*
G36*
X259766Y9992D02*
X259766Y11449D01*
X259766Y11961D01*
X259766Y12039D01*
X259923Y12000D01*
X260159Y12000D01*
X260435Y12000D01*
X260632Y12039D01*
X260593Y11724D01*
X260553Y11409D01*
X260553Y11173D01*
X260553Y10976D01*
X260553Y10661D01*
X260553Y10307D01*
X260553Y9874D01*
X260553Y9362D01*
X260553Y9165D01*
X260553Y8890D01*
X260553Y8575D01*
X260553Y8378D01*
X260553Y8024D01*
X260553Y7787D01*
X260317Y7787D01*
X260159Y7827D01*
X259923Y7787D01*
X259766Y7787D01*
X259766Y7984D01*
X259766Y8496D01*
X259766Y8575D01*
X259451Y8220D01*
X259057Y7945D01*
X258585Y7787D01*
X258073Y7748D01*
X257640Y7787D01*
X257285Y7866D01*
X256970Y7984D01*
X256695Y8181D01*
X256537Y8417D01*
X256419Y8732D01*
X256380Y9047D01*
X256341Y9480D01*
X256380Y10740D01*
X256341Y11646D01*
X256341Y11961D01*
X256341Y12039D01*
X256813Y12000D01*
X257049Y12000D01*
X257246Y12039D01*
X257207Y11370D01*
X257167Y10858D01*
X257128Y10425D01*
X257128Y10031D01*
X257128Y9677D01*
X257128Y9362D01*
X257167Y9087D01*
X257246Y8890D01*
X257325Y8732D01*
X257522Y8496D01*
X257758Y8299D01*
X258073Y8220D01*
X258427Y8181D01*
X258900Y8220D01*
X259254Y8457D01*
X259569Y8732D01*
X259726Y9165D01*
X259766Y9520D01*
X259766Y9992D01*
D02*G37*
G36*
X262325Y12945D02*
X263270Y13260D01*
X263270Y13102D01*
X263230Y13024D01*
X263191Y11961D01*
X264333Y11961D01*
X264333Y11606D01*
X263191Y11646D01*
X263152Y11449D01*
X263152Y9441D01*
X263152Y9087D01*
X263191Y8654D01*
X263309Y8299D01*
X263388Y8181D01*
X263545Y8063D01*
X263742Y8024D01*
X263978Y7984D01*
X264215Y8024D01*
X264451Y8063D01*
X264451Y7827D01*
X264018Y7748D01*
X263545Y7709D01*
X263427Y7709D01*
X263270Y7748D01*
X263073Y7748D01*
X262837Y7827D01*
X262640Y7984D01*
X262482Y8142D01*
X262364Y8378D01*
X262325Y8693D01*
X262285Y9087D01*
X262364Y10661D01*
X262364Y11449D01*
X262364Y11646D01*
X261656Y11606D01*
X261656Y11724D01*
X261656Y11961D01*
X262364Y11961D01*
X262364Y12157D01*
X262364Y12433D01*
X262325Y12748D01*
X262325Y12945D01*
D02*G37*
G36*
X265514Y11961D02*
X265474Y12039D01*
X265711Y12000D01*
X265986Y12000D01*
X266222Y12000D01*
X266419Y12039D01*
X266341Y11016D01*
X266341Y9913D01*
X266380Y7866D01*
X266419Y7787D01*
X266144Y7787D01*
X265947Y7827D01*
X265671Y7787D01*
X265474Y7787D01*
X265553Y8811D01*
X265553Y9913D01*
X265553Y10543D01*
X265553Y11134D01*
X265514Y11567D01*
X265514Y11961D01*
D02*G37*
G36*
X266183Y13142D02*
X265986Y13142D01*
X265789Y13142D01*
X265632Y13260D01*
X265514Y13417D01*
X265474Y13575D01*
X265514Y13772D01*
X265632Y13890D01*
X265789Y14008D01*
X265986Y14047D01*
X266183Y14008D01*
X266380Y13890D01*
X266498Y13732D01*
X266537Y13575D01*
X266498Y13417D01*
X266380Y13260D01*
X266183Y13142D01*
D02*G37*
G36*
X271026Y12079D02*
X270474Y12118D01*
X269923Y12079D01*
D02*G37*
G36*
X269411Y11961D02*
X271026Y12079D01*
X269923Y12079D01*
D02*G37*
G36*
X271498Y11961D02*
X271026Y12079D01*
X269411Y11961D01*
D02*G37*
G36*
X270474Y11803D02*
X271498Y11961D01*
X269411Y11961D01*
D02*G37*
G36*
X268939Y11764D02*
X270474Y11803D01*
X269411Y11961D01*
D02*G37*
G36*
X270041Y11764D02*
X270474Y11803D01*
X268939Y11764D01*
D02*G37*
G36*
X270829Y11764D02*
X271498Y11961D01*
X270474Y11803D01*
D02*G37*
G36*
X271931Y11724D02*
X271498Y11961D01*
X270829Y11764D01*
D02*G37*
G36*
X269648Y11685D02*
X270041Y11764D01*
X268939Y11764D01*
D02*G37*
G36*
X271183Y11685D02*
X271931Y11724D01*
X270829Y11764D01*
D02*G37*
G36*
X268545Y11528D02*
X269648Y11685D01*
X268939Y11764D01*
D02*G37*
G36*
X269372Y11488D02*
X269648Y11685D01*
X268545Y11528D01*
D02*G37*
G36*
X271419Y11488D02*
X271931Y11724D01*
X271183Y11685D01*
D02*G37*
G36*
X272325Y11409D02*
X271931Y11724D01*
X271419Y11488D01*
D02*G37*
G36*
X271656Y11252D02*
X272325Y11409D01*
X271419Y11488D01*
D02*G37*
G36*
X269136Y11213D02*
X269372Y11488D01*
X268545Y11528D01*
D02*G37*
G36*
X268191Y11173D02*
X269136Y11213D01*
X268545Y11528D01*
D02*G37*
G36*
X272600Y11134D02*
X272325Y11409D01*
X271656Y11252D01*
D02*G37*
G36*
X271813Y10937D02*
X272600Y11134D01*
X271656Y11252D01*
D02*G37*
G36*
X268939Y10898D02*
X269136Y11213D01*
X268191Y11173D01*
D02*G37*
G36*
X267955Y10819D02*
X268939Y10898D01*
X268191Y11173D01*
D02*G37*
G36*
X272797Y10740D02*
X272600Y11134D01*
X271813Y10937D01*
D02*G37*
G36*
X271931Y10622D02*
X272797Y10740D01*
X271813Y10937D01*
D02*G37*
G36*
X268821Y10583D02*
X268939Y10898D01*
X267955Y10819D01*
D02*G37*
G36*
X267797Y10386D02*
X268821Y10583D01*
X267955Y10819D01*
D02*G37*
G36*
X272915Y10346D02*
X272797Y10740D01*
X271931Y10622D01*
D02*G37*
G36*
X271970Y10307D02*
X272915Y10346D01*
X271931Y10622D01*
D02*G37*
G36*
X268742Y10189D02*
X268821Y10583D01*
X267797Y10386D01*
D02*G37*
G36*
X267758Y9953D02*
X268742Y10189D01*
X267797Y10386D01*
D02*G37*
G36*
X272010Y9953D02*
X272915Y10346D01*
X271970Y10307D01*
D02*G37*
G36*
X272955Y9913D02*
X272915Y10346D01*
X272010Y9953D01*
D02*G37*
G36*
X268703Y9795D02*
X268742Y10189D01*
X267758Y9953D01*
D02*G37*
G36*
X272010Y9677D02*
X272955Y9913D01*
X272010Y9953D01*
D02*G37*
G36*
X271970Y9480D02*
X272955Y9913D01*
X272010Y9677D01*
D02*G37*
G36*
X267797Y9441D02*
X268703Y9795D01*
X267758Y9953D01*
D02*G37*
G36*
X268742Y9441D02*
X268703Y9795D01*
X267797Y9441D01*
D02*G37*
G36*
X272876Y9283D02*
X272955Y9913D01*
X271970Y9480D01*
D02*G37*
G36*
X268821Y9087D02*
X268742Y9441D01*
X267797Y9441D01*
D02*G37*
G36*
X267876Y9047D02*
X268821Y9087D01*
X267797Y9441D01*
D02*G37*
G36*
X272758Y8968D02*
X272876Y9283D01*
X271970Y9480D01*
D02*G37*
G36*
X271813Y8929D02*
X272758Y8968D01*
X271970Y9480D01*
D02*G37*
G36*
X268939Y8772D02*
X268821Y9087D01*
X267876Y9047D01*
D02*G37*
G36*
X268073Y8693D02*
X268939Y8772D01*
X267876Y9047D01*
D02*G37*
G36*
X272561Y8693D02*
X272758Y8968D01*
X271813Y8929D01*
D02*G37*
G36*
X269096Y8496D02*
X268939Y8772D01*
X268073Y8693D01*
D02*G37*
G36*
X271578Y8496D02*
X272561Y8693D01*
X271813Y8929D01*
D02*G37*
G36*
X268348Y8378D02*
X269096Y8496D01*
X268073Y8693D01*
D02*G37*
G36*
X269333Y8260D02*
X269096Y8496D01*
X268348Y8378D01*
D02*G37*
G36*
X271301Y8260D02*
X272561Y8693D01*
X271578Y8496D01*
D02*G37*
G36*
X272167Y8220D02*
X272561Y8693D01*
X271301Y8260D01*
D02*G37*
G36*
X269608Y8102D02*
X269333Y8260D01*
X268348Y8378D01*
D02*G37*
G36*
X271026Y8102D02*
X272167Y8220D01*
X271301Y8260D01*
D02*G37*
G36*
X268742Y8063D02*
X269608Y8102D01*
X268348Y8378D01*
D02*G37*
G36*
X269963Y7984D02*
X269608Y8102D01*
X268742Y8063D01*
D02*G37*
G36*
X270711Y7984D02*
X272167Y8220D01*
X271026Y8102D01*
D02*G37*
G36*
X271656Y7906D02*
X272167Y8220D01*
X270711Y7984D01*
D02*G37*
G36*
X271656Y7906D02*
X270711Y7984D01*
X269963Y7984D01*
D02*G37*
G36*
X269175Y7866D02*
X269963Y7984D01*
X268742Y8063D01*
D02*G37*
G36*
X269175Y7866D02*
X271656Y7906D01*
X269963Y7984D01*
D02*G37*
G36*
X271026Y7748D02*
X271656Y7906D01*
X269175Y7866D01*
D02*G37*
G36*
X269726Y7709D02*
X271026Y7748D01*
X269175Y7866D01*
D02*G37*
G36*
X270278Y7669D02*
X271026Y7748D01*
X269726Y7709D01*
D02*G37*
G36*
X278467Y10386D02*
X278427Y9047D01*
X278467Y8181D01*
X278467Y7866D01*
X278467Y7787D01*
X277994Y7827D01*
X277758Y7787D01*
X277561Y7787D01*
X277561Y7945D01*
X277600Y8181D01*
X277600Y8378D01*
X277600Y8575D01*
X277640Y8968D01*
X277640Y9244D01*
X277640Y9559D01*
X277679Y9677D01*
X277679Y9835D01*
X277679Y10031D01*
X277679Y10150D01*
X277679Y10465D01*
X277640Y10701D01*
X277600Y10898D01*
X277522Y11055D01*
X277325Y11291D01*
X277089Y11488D01*
X276774Y11606D01*
X276419Y11646D01*
X276026Y11606D01*
X275711Y11528D01*
X275435Y11331D01*
X275238Y11094D01*
X275120Y10898D01*
X275081Y10583D01*
X275002Y10268D01*
X275002Y9835D01*
X275002Y8378D01*
X275041Y7827D01*
X274805Y7787D01*
X274608Y7827D01*
X274333Y7787D01*
X274175Y7787D01*
X274175Y7984D01*
X274175Y8260D01*
X274215Y8850D01*
X274215Y9362D01*
X274254Y9795D01*
X274254Y10150D01*
X274254Y10465D01*
X274254Y10819D01*
X274215Y11331D01*
X274215Y11606D01*
X274215Y12039D01*
X274608Y12000D01*
X274844Y12000D01*
X275041Y12039D01*
X275041Y11843D01*
X275002Y11567D01*
X275002Y11331D01*
X275002Y11252D01*
X275356Y11606D01*
X275750Y11882D01*
X276222Y12039D01*
X276734Y12079D01*
X277167Y12039D01*
X277522Y11961D01*
X277837Y11843D01*
X278112Y11646D01*
X278309Y11370D01*
X278427Y11094D01*
X278467Y10780D01*
X278467Y10386D01*
D02*G37*
G36*
X279963Y8614D02*
X280041Y8614D01*
X280317Y8378D01*
X280593Y8181D01*
X280947Y8024D01*
X281262Y7984D01*
X281656Y8063D01*
X282010Y8220D01*
X282128Y8339D01*
X282246Y8457D01*
X282285Y8614D01*
X282325Y8772D01*
X282246Y9126D01*
X282010Y9323D01*
X281852Y9402D01*
X281656Y9480D01*
X281380Y9559D01*
X281104Y9638D01*
X280789Y9717D01*
X280553Y9795D01*
X280396Y9913D01*
X280238Y9992D01*
X280081Y10150D01*
X279923Y10346D01*
X279844Y10543D01*
X279844Y10780D01*
X279844Y11094D01*
X279963Y11331D01*
X280120Y11567D01*
X280317Y11764D01*
X280593Y11921D01*
X280868Y12039D01*
X281183Y12079D01*
X281537Y12118D01*
X282128Y12079D01*
X282679Y11882D01*
X282719Y11882D01*
X282482Y11252D01*
X282404Y11252D01*
X282246Y11449D01*
X282049Y11646D01*
X281774Y11764D01*
X281498Y11803D01*
X281104Y11764D01*
X280829Y11606D01*
X280593Y11370D01*
X280553Y11094D01*
X280593Y10740D01*
X280789Y10543D01*
X281104Y10386D01*
X281537Y10268D01*
X281892Y10189D01*
X282167Y10110D01*
X282364Y10031D01*
X282522Y9953D01*
X282718Y9756D01*
X282915Y9559D01*
X282994Y9323D01*
X283033Y9087D01*
X282994Y8732D01*
X282837Y8417D01*
X282561Y8142D01*
X282167Y7866D01*
X281970Y7787D01*
X281734Y7709D01*
X281419Y7669D01*
X281065Y7669D01*
X280396Y7748D01*
X279766Y7945D01*
X279844Y8220D01*
X279923Y8417D01*
X279963Y8535D01*
X279963Y8614D01*
D02*G37*
M02*
