%FSLAX35Y35*%
%MOIN*%
%IN7=Bestoeckungsdruckunten(X.GBO)*%
%ADD10C,0.00591*%
%ADD11C,0.00768*%
%ADD12C,0.01181*%
%ADD13C,0.01535*%
%ADD14C,0.01575*%
%ADD15C,0.02362*%
%ADD16C,0.02559*%
%ADD17C,0.02795*%
%ADD18C,0.03937*%
%AMR_19*21,1,0.04587,0.05433,0,0,90.000*%
%ADD19R_19*%
%AMR_20*21,1,0.05000,0.05000,0,0,0.000*%
%ADD20R_20*%
%AMR_21*21,1,0.05000,0.05000,0,0,90.000*%
%ADD21R_21*%
%AMR_22*21,1,0.05000,0.05000,0,0,180.000*%
%ADD22R_22*%
%AMR_23*21,1,0.05000,0.05000,0,0,270.000*%
%ADD23R_23*%
%AMR_24*21,1,0.05000,0.09843,0,0,0.000*%
%ADD24R_24*%
%AMR_25*21,1,0.05000,0.10000,0,0,90.000*%
%ADD25R_25*%
%AMR_26*21,1,0.05118,0.06102,0,0,0.000*%
%ADD26R_26*%
%AMR_27*21,1,0.05118,0.06102,0,0,90.000*%
%ADD27R_27*%
%AMR_28*21,1,0.19685,0.19685,0,0,0.000*%
%ADD28R_28*%
%AMOCT_29*4,1,8,0.023622,0.011811,0.011811,0.023622,-0.011811,0.023622,-0.023622,0.011811,-0.023622,-0.011811,-0.011811,-0.023622,0.011811,-0.023622,0.023622,-0.011811,0.023622,0.011811,0.000*%
%ADD29OCT_29*%
%AMOCT_30*4,1,8,0.031496,0.015748,0.015748,0.031496,-0.015748,0.031496,-0.031496,0.015748,-0.031496,-0.015748,-0.015748,-0.031496,0.015748,-0.031496,0.031496,-0.015748,0.031496,0.015748,-0.000*%
%ADD30OCT_30*%
%AMOCT_31*4,1,8,0.031496,0.015748,0.015748,0.031496,-0.015748,0.031496,-0.031496,0.015748,-0.031496,-0.015748,-0.015748,-0.031496,0.015748,-0.031496,0.031496,-0.015748,0.031496,0.015748,90.000*%
%ADD31OCT_31*%
%AMOCT_32*4,1,8,0.031496,0.015748,0.015748,0.031496,-0.015748,0.031496,-0.031496,0.015748,-0.031496,-0.015748,-0.015748,-0.031496,0.015748,-0.031496,0.031496,-0.015748,0.031496,0.015748,180.000*%
%ADD32OCT_32*%
%AMOCT_33*4,1,8,0.031496,0.015748,0.015748,0.031496,-0.015748,0.031496,-0.031496,0.015748,-0.031496,-0.015748,-0.015748,-0.031496,0.015748,-0.031496,0.031496,-0.015748,0.031496,0.015748,270.000*%
%ADD33OCT_33*%
%AMOCT_34*4,1,8,0.035433,0.017717,0.017717,0.035433,-0.017717,0.035433,-0.035433,0.017717,-0.035433,-0.017717,-0.017717,-0.035433,0.017717,-0.035433,0.035433,-0.017717,0.035433,0.017717,180.000*%
%ADD34OCT_34*%
%AMOCT_35*4,1,8,0.035433,0.017717,0.017717,0.035433,-0.017717,0.035433,-0.035433,0.017717,-0.035433,-0.017717,-0.017717,-0.035433,0.017717,-0.035433,0.035433,-0.017717,0.035433,0.017717,270.000*%
%ADD35OCT_35*%
%AMOCT_36*4,1,8,0.039370,0.019685,0.019685,0.039370,-0.019685,0.039370,-0.039370,0.019685,-0.039370,-0.019685,-0.019685,-0.039370,0.019685,-0.039370,0.039370,-0.019685,0.039370,0.019685,0.000*%
%ADD36OCT_36*%
%AMOCT_37*4,1,8,0.039370,0.019685,0.019685,0.039370,-0.019685,0.039370,-0.039370,0.019685,-0.039370,-0.019685,-0.019685,-0.039370,0.019685,-0.039370,0.039370,-0.019685,0.039370,0.019685,270.000*%
%ADD37OCT_37*%
%AMOCT_38*4,1,8,0.049213,0.024606,0.024606,0.049213,-0.024606,0.049213,-0.049213,0.024606,-0.049213,-0.024606,-0.024606,-0.049213,0.024606,-0.049213,0.049213,-0.024606,0.049213,0.024606,180.000*%
%ADD38OCT_38*%
%AMOCT_39*4,1,8,0.062992,0.031496,0.031496,0.062992,-0.031496,0.062992,-0.062992,0.031496,-0.062992,-0.031496,-0.031496,-0.062992,0.031496,-0.062992,0.062992,-0.031496,0.062992,0.031496,180.000*%
%ADD39OCT_39*%
%AMOCT_40*4,1,8,0.078740,0.039370,0.039370,0.078740,-0.039370,0.078740,-0.078740,0.039370,-0.078740,-0.039370,-0.039370,-0.078740,0.039370,-0.078740,0.078740,-0.039370,0.078740,0.039370,0.000*%
%ADD40OCT_40*%
%AMOCT_41*4,1,8,0.078740,0.039370,0.039370,0.078740,-0.039370,0.078740,-0.078740,0.039370,-0.078740,-0.039370,-0.039370,-0.078740,0.039370,-0.078740,0.078740,-0.039370,0.078740,0.039370,180.000*%
%ADD41OCT_41*%
%AMOCT_42*4,1,8,0.090551,0.045276,0.045276,0.090551,-0.045276,0.090551,-0.090551,0.045276,-0.090551,-0.045276,-0.045276,-0.090551,0.045276,-0.090551,0.090551,-0.045276,0.090551,0.045276,0.000*%
%ADD42OCT_42*%
%AMO_43*20,1,0.03937,-0.00787,0.00000,0.00787,0.00000,0*1,1,0.03937,-0.00787,0.00000*1,1,0.03937,0.00787,0.00000*%
%ADD43O_43*%
%AMO_44*20,1,0.05000,0.00000,-0.02421,0.00000,0.02421,0*1,1,0.05000,0.00000,-0.02421*1,1,0.05000,0.00000,0.02421*%
%ADD44O_44*%
%AMO_45*20,1,0.05000,0.02500,0.00000,-0.02500,0.00000,0*1,1,0.05000,0.02500,0.00000*1,1,0.05000,-0.02500,0.00000*%
%ADD45O_45*%
%AMRR_46*21,1,0.06299,0.05039,0,0,-0.000*21,1,0.05039,0.06299,0,0,-0.000*1,1,0.01260,0.02520,0.02520*1,1,0.01260,-0.02520,-0.02520*1,1,0.01260,0.02520,-0.02520*1,1,0.01260,-0.02520,0.02520*%
%ADD46RR_46*%
%AMRR_47*21,1,0.06299,0.05039,0,0,90.000*21,1,0.05039,0.06299,0,0,90.000*1,1,0.01260,-0.02520,0.02520*1,1,0.01260,0.02520,-0.02520*1,1,0.01260,0.02520,0.02520*1,1,0.01260,-0.02520,-0.02520*%
%ADD47RR_47*%
%AMRR_48*21,1,0.06299,0.05039,0,0,180.000*21,1,0.05039,0.06299,0,0,180.000*1,1,0.01260,-0.02520,-0.02520*1,1,0.01260,0.02520,0.02520*1,1,0.01260,-0.02520,0.02520*1,1,0.01260,0.02520,-0.02520*%
%ADD48RR_48*%
%AMRR_49*21,1,0.06299,0.05039,0,0,270.000*21,1,0.05039,0.06299,0,0,270.000*1,1,0.01260,0.02520,-0.02520*1,1,0.01260,-0.02520,0.02520*1,1,0.01260,-0.02520,-0.02520*1,1,0.01260,0.02520,0.02520*%
%ADD49RR_49*%
G54D11*
X63118Y373100D02*
X63118Y375757D01*
X61818Y375757D01*
X61818Y378444D02*
X61310Y378343D01*
X60879Y378055D01*
X60591Y377624D01*
X60490Y377116D01*
X60591Y376607D01*
X60879Y376176D01*
X61310Y375888D01*
X61818Y375787D01*
X61818Y378415D02*
X63118Y378415D01*
X63118Y375757D01*
X59102Y378415D02*
X57803Y373100D01*
X56444Y378415D01*
X55086Y373100D01*
X53787Y378415D01*
X52429Y373100D02*
X52429Y378415D01*
X50598Y374694D01*
X48708Y378415D01*
X48708Y373100D01*
X47350Y377352D02*
X47245Y377813D01*
X46950Y378183D01*
X46523Y378388D01*
X46050Y378388D01*
X45624Y378183D01*
X45329Y377813D01*
X45224Y377352D01*
X47350Y373100D01*
X45224Y373100D01*
X295203Y353582D02*
X295316Y353076D01*
X295613Y352651D01*
X296051Y352373D01*
X296562Y352283D01*
X297861Y352283D01*
X297861Y357598D01*
X296562Y357598D01*
X296051Y357508D01*
X295613Y357230D01*
X295316Y356805D01*
X295203Y356299D01*
X295203Y353582D01*
X293845Y352283D02*
X293845Y356003D01*
X293845Y357066D02*
X293845Y357598D01*
X290361Y351751D02*
X290475Y351272D01*
X290792Y350896D01*
X291245Y350703D01*
X291736Y350734D01*
X292161Y350983D01*
X292428Y351397D01*
X290361Y351751D02*
X290361Y354645D01*
X292487Y354645D02*
X292381Y355106D01*
X292086Y355476D01*
X291660Y355682D01*
X291187Y355682D01*
X290761Y355476D01*
X290466Y355106D01*
X290361Y354645D01*
X292487Y354645D02*
X292487Y353346D01*
X290361Y353346D02*
X290466Y352885D01*
X290761Y352515D01*
X291187Y352310D01*
X291660Y352310D01*
X292086Y352515D01*
X292381Y352885D01*
X292487Y353346D01*
X289002Y352283D02*
X289002Y356003D01*
X289002Y357066D02*
X289002Y357598D01*
X287644Y356535D02*
X286581Y357598D01*
X286581Y352283D01*
X331511Y202957D02*
X331624Y202451D01*
X331921Y202026D01*
X332359Y201748D01*
X332870Y201658D01*
X334169Y201658D01*
X334169Y206973D01*
X332870Y206973D01*
X332359Y206883D01*
X331921Y206605D01*
X331624Y206180D01*
X331511Y205674D01*
X331511Y202957D01*
X330153Y201658D02*
X330153Y205378D01*
X330153Y206441D02*
X330153Y206973D01*
X326669Y201126D02*
X326783Y200647D01*
X327100Y200271D01*
X327553Y200078D01*
X328044Y200109D01*
X328469Y200358D01*
X328736Y200772D01*
X326669Y201126D02*
X326669Y204020D01*
X328795Y204020D02*
X328690Y204481D01*
X328395Y204851D01*
X327968Y205057D01*
X327495Y205057D01*
X327069Y204851D01*
X326774Y204481D01*
X326669Y204020D01*
X328795Y204020D02*
X328795Y202721D01*
X326669Y202721D02*
X326774Y202260D01*
X327069Y201890D01*
X327495Y201685D01*
X327968Y201685D01*
X328395Y201890D01*
X328690Y202260D01*
X328795Y202721D01*
X325311Y201658D02*
X325311Y205378D01*
X325311Y206441D02*
X325311Y206973D01*
X323952Y205910D02*
X323847Y206371D01*
X323552Y206741D01*
X323126Y206946D01*
X322653Y206946D01*
X322227Y206741D01*
X321932Y206371D01*
X321826Y205910D01*
X323952Y201658D01*
X321826Y201658D01*
X83399Y185600D02*
X83399Y188257D01*
X82100Y188257D01*
X82100Y190944D02*
X81591Y190843D01*
X81160Y190555D01*
X80872Y190124D01*
X80771Y189616D01*
X80872Y189107D01*
X81160Y188676D01*
X81591Y188388D01*
X82100Y188287D01*
X82100Y190915D02*
X83399Y190915D01*
X83399Y188257D01*
X77257Y187962D02*
X77257Y186663D01*
X79383Y187962D02*
X79278Y188423D01*
X78983Y188793D01*
X78557Y188998D01*
X78084Y188998D01*
X77658Y188793D01*
X77363Y188423D01*
X77257Y187962D01*
X79383Y186663D02*
X79383Y187962D01*
X77257Y186663D02*
X77363Y186202D01*
X77658Y185832D01*
X78084Y185627D01*
X78557Y185627D01*
X78983Y185832D01*
X79278Y186202D01*
X79383Y186663D01*
X75899Y189084D02*
X74836Y185600D01*
X73773Y189084D01*
X72710Y185600D01*
X71647Y189084D01*
X70289Y187431D02*
X68163Y187431D01*
X68163Y187962D01*
X70289Y187962D02*
X70184Y188423D01*
X69889Y188793D01*
X69462Y188998D01*
X68989Y188998D01*
X68563Y188793D01*
X68268Y188423D01*
X68163Y187962D01*
X70289Y187962D02*
X70289Y186663D01*
X68222Y186309D02*
X68489Y185895D01*
X68913Y185646D01*
X69405Y185614D01*
X69858Y185807D01*
X70175Y186184D01*
X70289Y186663D01*
X66805Y185600D02*
X66805Y189084D01*
X66805Y188257D02*
X66724Y188623D01*
X66486Y188912D01*
X66142Y189061D01*
X65769Y189038D01*
X65446Y188848D01*
X183921Y184350D02*
X182090Y189665D01*
X180200Y184350D01*
X183389Y185944D02*
X180732Y185944D01*
X178842Y184350D02*
X178842Y187834D01*
X178842Y186712D02*
X178737Y187173D01*
X178442Y187543D01*
X178016Y187748D01*
X177542Y187748D01*
X177116Y187543D01*
X176821Y187173D01*
X176716Y186712D01*
X176716Y184350D01*
X175358Y186712D02*
X175253Y187173D01*
X174958Y187543D01*
X174531Y187748D01*
X174058Y187748D01*
X173632Y187543D01*
X173337Y187173D01*
X173232Y186712D01*
X173353Y186317D01*
X173656Y186036D01*
X174059Y185944D01*
X174590Y185944D01*
X174590Y184320D02*
X174989Y184427D01*
X175280Y184719D01*
X175387Y185118D01*
X175280Y185516D01*
X174989Y185808D01*
X174590Y185915D01*
X174590Y184350D02*
X174059Y184350D01*
X173232Y185118D02*
X173353Y184723D01*
X173656Y184442D01*
X174059Y184350D01*
X173232Y186712D02*
X173232Y184881D01*
X172700Y184350D01*
X171342Y189665D02*
X171342Y185118D01*
X170574Y184350D02*
X170958Y184453D01*
X171239Y184734D01*
X171342Y185118D01*
X167090Y186712D02*
X167090Y185413D01*
X169216Y186712D02*
X169111Y187173D01*
X168816Y187543D01*
X168390Y187748D01*
X167917Y187748D01*
X167490Y187543D01*
X167195Y187173D01*
X167090Y186712D01*
X169216Y185413D02*
X169216Y186712D01*
X167090Y185413D02*
X167195Y184952D01*
X167490Y184582D01*
X167917Y184377D01*
X168390Y184377D01*
X168816Y184582D01*
X169111Y184952D01*
X169216Y185413D01*
X163606Y183818D02*
X163720Y183339D01*
X164037Y182963D01*
X164490Y182770D01*
X164981Y182801D01*
X165406Y183050D01*
X165673Y183464D01*
X163606Y183818D02*
X163606Y186712D01*
X165732Y186712D02*
X165627Y187173D01*
X165332Y187543D01*
X164905Y187748D01*
X164432Y187748D01*
X164006Y187543D01*
X163711Y187173D01*
X163606Y186712D01*
X165732Y186712D02*
X165732Y185413D01*
X163606Y185413D02*
X163711Y184952D01*
X164006Y184582D01*
X164432Y184377D01*
X164905Y184377D01*
X165332Y184582D01*
X165627Y184952D01*
X165732Y185413D01*
X159708Y184350D02*
X159708Y189665D01*
X158350Y184350D02*
X158350Y189665D01*
X155692Y184350D01*
X155692Y189665D01*
X154334Y188602D02*
X153271Y189665D01*
X153271Y184350D01*
X275738Y184350D02*
X273907Y189665D01*
X272017Y184350D01*
X275206Y185944D02*
X272549Y185944D01*
X270659Y184350D02*
X270659Y187834D01*
X270659Y186712D02*
X270554Y187173D01*
X270259Y187543D01*
X269832Y187748D01*
X269359Y187748D01*
X268933Y187543D01*
X268638Y187173D01*
X268533Y186712D01*
X268533Y184350D01*
X267175Y186712D02*
X267069Y187173D01*
X266774Y187543D01*
X266348Y187748D01*
X265875Y187748D01*
X265449Y187543D01*
X265154Y187173D01*
X265049Y186712D01*
X265170Y186317D01*
X265473Y186036D01*
X265875Y185944D01*
X266407Y185944D01*
X266407Y184320D02*
X266806Y184427D01*
X267097Y184719D01*
X267204Y185118D01*
X267097Y185516D01*
X266806Y185808D01*
X266407Y185915D01*
X266407Y184350D02*
X265875Y184350D01*
X265049Y185118D02*
X265170Y184723D01*
X265473Y184442D01*
X265875Y184350D01*
X265049Y186712D02*
X265049Y184881D01*
X264517Y184350D01*
X263159Y189665D02*
X263159Y185118D01*
X262391Y184350D02*
X262775Y184453D01*
X263056Y184734D01*
X263159Y185118D01*
X258907Y186712D02*
X258907Y185413D01*
X261033Y186712D02*
X260928Y187173D01*
X260633Y187543D01*
X260207Y187748D01*
X259733Y187748D01*
X259307Y187543D01*
X259012Y187173D01*
X258907Y186712D01*
X261033Y185413D02*
X261033Y186712D01*
X258907Y185413D02*
X259012Y184952D01*
X259307Y184582D01*
X259733Y184377D01*
X260207Y184377D01*
X260633Y184582D01*
X260928Y184952D01*
X261033Y185413D01*
X255423Y183818D02*
X255537Y183339D01*
X255854Y182963D01*
X256307Y182770D01*
X256798Y182801D01*
X257223Y183050D01*
X257490Y183464D01*
X255423Y183818D02*
X255423Y186712D01*
X257549Y186712D02*
X257443Y187173D01*
X257148Y187543D01*
X256722Y187748D01*
X256249Y187748D01*
X255823Y187543D01*
X255528Y187173D01*
X255423Y186712D01*
X257549Y186712D02*
X257549Y185413D01*
X255423Y185413D02*
X255528Y184952D01*
X255823Y184582D01*
X256249Y184377D01*
X256722Y184377D01*
X257148Y184582D01*
X257443Y184952D01*
X257549Y185413D01*
X251525Y184350D02*
X251525Y189665D01*
X250167Y184350D02*
X250167Y189665D01*
X247509Y184350D01*
X247509Y189665D01*
X246151Y188602D02*
X246046Y189063D01*
X245751Y189433D01*
X245325Y189638D01*
X244852Y189638D01*
X244425Y189433D01*
X244130Y189063D01*
X244025Y188602D01*
X246151Y184350D01*
X244025Y184350D01*
X277570Y378366D02*
X277469Y378874D01*
X277181Y379305D01*
X276750Y379593D01*
X276242Y379694D01*
X275733Y379593D01*
X275302Y379305D01*
X275014Y378874D01*
X274913Y378366D01*
X277541Y378366D02*
X277541Y375649D01*
X274913Y375649D02*
X275014Y375141D01*
X275302Y374710D01*
X275733Y374422D01*
X276242Y374320D01*
X276750Y374422D01*
X277181Y374710D01*
X277469Y375141D01*
X277570Y375649D01*
X271399Y376712D02*
X271399Y375413D01*
X273525Y376712D02*
X273420Y377173D01*
X273125Y377543D01*
X272699Y377748D01*
X272226Y377748D01*
X271799Y377543D01*
X271504Y377173D01*
X271399Y376712D01*
X273525Y375413D02*
X273525Y376712D01*
X271399Y375413D02*
X271504Y374952D01*
X271799Y374582D01*
X272226Y374377D01*
X272699Y374377D01*
X273125Y374582D01*
X273420Y374952D01*
X273525Y375413D01*
X270041Y374350D02*
X270041Y377834D01*
X270041Y376712D02*
X269936Y377173D01*
X269641Y377543D01*
X269214Y377748D01*
X268741Y377748D01*
X268315Y377543D01*
X268020Y377173D01*
X267915Y376712D01*
X267915Y374350D01*
X267915Y376712D02*
X267810Y377173D01*
X267515Y377543D01*
X267088Y377748D01*
X266615Y377748D01*
X266189Y377543D01*
X265894Y377173D01*
X265789Y376712D01*
X265789Y374350D01*
X264431Y374350D02*
X264431Y377834D01*
X264431Y376712D02*
X264325Y377173D01*
X264030Y377543D01*
X263604Y377748D01*
X263131Y377748D01*
X262705Y377543D01*
X262410Y377173D01*
X262305Y376712D01*
X262305Y374350D01*
X262305Y376712D02*
X262199Y377173D01*
X261904Y377543D01*
X261478Y377748D01*
X261005Y377748D01*
X260579Y377543D01*
X260284Y377173D01*
X260179Y376712D01*
X260179Y374350D01*
X258820Y377834D02*
X258820Y375413D01*
X256694Y375413D02*
X256800Y374952D01*
X257095Y374582D01*
X257521Y374377D01*
X257994Y374377D01*
X258420Y374582D01*
X258715Y374952D01*
X258820Y375413D01*
X256694Y377834D02*
X256694Y374350D01*
X255336Y374350D02*
X255336Y377834D01*
X255336Y376712D02*
X255231Y377173D01*
X254936Y377543D01*
X254510Y377748D01*
X254037Y377748D01*
X253610Y377543D01*
X253315Y377173D01*
X253210Y376712D01*
X253210Y374350D01*
X251852Y374350D02*
X251852Y378070D01*
X251852Y379133D02*
X251852Y379665D01*
X250494Y376712D02*
X250388Y377173D01*
X250093Y377543D01*
X249667Y377748D01*
X249194Y377748D01*
X248768Y377543D01*
X248473Y377173D01*
X248368Y376712D01*
X250494Y376712D02*
X250494Y375413D01*
X248368Y375413D02*
X248473Y374952D01*
X248768Y374582D01*
X249194Y374377D01*
X249667Y374377D01*
X250093Y374582D01*
X250388Y374952D01*
X250494Y375413D01*
X247009Y376712D02*
X246904Y377173D01*
X246609Y377543D01*
X246183Y377748D01*
X245710Y377748D01*
X245284Y377543D01*
X244989Y377173D01*
X244883Y376712D01*
X245005Y376317D01*
X245307Y376036D01*
X245710Y375944D01*
X246242Y375944D01*
X246242Y374320D02*
X246640Y374427D01*
X246932Y374719D01*
X247039Y375118D01*
X246932Y375516D01*
X246640Y375808D01*
X246242Y375915D01*
X246242Y374350D02*
X245710Y374350D01*
X244883Y375118D02*
X245005Y374723D01*
X245307Y374442D01*
X245710Y374350D01*
X244883Y376712D02*
X244883Y374881D01*
X244352Y374350D01*
X242994Y377834D02*
X241399Y377834D01*
X242226Y379665D02*
X242226Y375118D01*
X241399Y374350D02*
X241802Y374442D01*
X242104Y374723D01*
X242226Y375118D01*
X240041Y374350D02*
X240041Y378070D01*
X240041Y379133D02*
X240041Y379665D01*
X236557Y376712D02*
X236557Y375413D01*
X238683Y376712D02*
X238577Y377173D01*
X238282Y377543D01*
X237856Y377748D01*
X237383Y377748D01*
X236957Y377543D01*
X236662Y377173D01*
X236557Y376712D01*
X238683Y375413D02*
X238683Y376712D01*
X236557Y375413D02*
X236662Y374952D01*
X236957Y374582D01*
X237383Y374377D01*
X237856Y374377D01*
X238282Y374582D01*
X238577Y374952D01*
X238683Y375413D01*
X235198Y374350D02*
X235198Y377834D01*
X235198Y376712D02*
X235093Y377173D01*
X234798Y377543D01*
X234372Y377748D01*
X233899Y377748D01*
X233473Y377543D01*
X233178Y377173D01*
X233072Y376712D01*
X233072Y374350D01*
X156652Y373725D02*
X156652Y376382D01*
X155353Y376382D01*
X155353Y379069D02*
X154844Y378968D01*
X154413Y378680D01*
X154125Y378249D01*
X154024Y377741D01*
X154125Y377232D01*
X154413Y376801D01*
X154844Y376513D01*
X155353Y376412D01*
X155353Y379040D02*
X156652Y379040D01*
X156652Y376382D01*
X152636Y379040D02*
X151337Y373725D01*
X149979Y379040D01*
X148621Y373725D01*
X147321Y379040D01*
X145963Y373725D02*
X145963Y379040D01*
X144132Y375319D01*
X142243Y379040D01*
X142243Y373725D01*
X140884Y377977D02*
X139821Y379040D01*
X139821Y373725D01*
X229930Y321387D02*
X229424Y321275D01*
X228999Y320977D01*
X228721Y320539D01*
X228631Y320029D01*
X228631Y318729D01*
X233946Y318729D01*
X233946Y320029D01*
X233856Y320539D01*
X233578Y320977D01*
X233153Y321275D01*
X232646Y321387D01*
X229930Y321387D01*
X228217Y327765D02*
X228217Y322745D01*
X233946Y329123D02*
X228631Y329123D01*
X228631Y331485D01*
X233946Y335501D02*
X233946Y332844D01*
X231288Y332844D01*
X231288Y334674D01*
X231288Y332844D02*
X228631Y332844D01*
X228631Y335501D01*
X229930Y339517D02*
X229424Y339405D01*
X228999Y339107D01*
X228721Y338669D01*
X228631Y338159D01*
X228631Y336859D01*
X233946Y336859D01*
X233946Y338159D01*
X233856Y338669D01*
X233578Y339107D01*
X233153Y339405D01*
X232646Y339517D01*
X229930Y339517D01*
X232883Y340875D02*
X233946Y341938D01*
X228631Y341938D01*
X224496Y311570D02*
X225559Y312633D01*
X220244Y312633D01*
X224496Y316118D02*
X221307Y316118D01*
X224496Y313992D02*
X224957Y314097D01*
X225327Y314392D01*
X225533Y314818D01*
X225533Y315291D01*
X225327Y315717D01*
X224957Y316012D01*
X224496Y316118D01*
X221307Y313992D02*
X224496Y313992D01*
X221307Y316118D02*
X220846Y316012D01*
X220476Y315717D01*
X220271Y315291D01*
X220271Y314818D01*
X220476Y314392D01*
X220846Y314097D01*
X221307Y313992D01*
X224496Y319602D02*
X221307Y319602D01*
X224496Y317476D02*
X224957Y317581D01*
X225327Y317876D01*
X225533Y318302D01*
X225533Y318775D01*
X225327Y319202D01*
X224957Y319497D01*
X224496Y319602D01*
X221307Y317476D02*
X224496Y317476D01*
X221307Y319602D02*
X220846Y319497D01*
X220476Y319202D01*
X220271Y318775D01*
X220271Y318302D01*
X220476Y317876D01*
X220846Y317581D01*
X221307Y317476D01*
X336122Y369852D02*
X335059Y370915D01*
X335059Y365600D01*
X331574Y369852D02*
X331574Y366663D01*
X333700Y369852D02*
X333595Y370313D01*
X333300Y370683D01*
X332874Y370888D01*
X332401Y370888D01*
X331975Y370683D01*
X331680Y370313D01*
X331574Y369852D01*
X333700Y366663D02*
X333700Y369852D01*
X331574Y366663D02*
X331680Y366202D01*
X331975Y365832D01*
X332401Y365627D01*
X332874Y365627D01*
X333300Y365832D01*
X333595Y366202D01*
X333700Y366663D01*
X330216Y365600D02*
X330216Y370915D01*
X330216Y367431D02*
X327559Y370915D01*
X329153Y368789D02*
X327559Y365600D01*
X204496Y311487D02*
X205559Y312550D01*
X200244Y312550D01*
X204496Y316034D02*
X201307Y316034D01*
X204496Y313908D02*
X204957Y314013D01*
X205327Y314308D01*
X205533Y314734D01*
X205533Y315208D01*
X205327Y315634D01*
X204957Y315929D01*
X204496Y316034D01*
X201307Y313908D02*
X204496Y313908D01*
X201307Y316034D02*
X200846Y315929D01*
X200476Y315634D01*
X200271Y315208D01*
X200271Y314734D01*
X200476Y314308D01*
X200846Y314013D01*
X201307Y313908D01*
X200244Y317392D02*
X205559Y317392D01*
X202075Y317392D02*
X205559Y320050D01*
X203433Y318455D02*
X200244Y320050D01*
X339927Y319344D02*
X340388Y319449D01*
X340758Y319744D01*
X340963Y320170D01*
X340963Y320643D01*
X340758Y321070D01*
X340388Y321365D01*
X339927Y321470D01*
X335675Y319344D01*
X335675Y321470D01*
X339927Y322828D02*
X340388Y322933D01*
X340758Y323228D01*
X340963Y323655D01*
X340963Y324128D01*
X340758Y324554D01*
X340388Y324849D01*
X339927Y324954D01*
X335675Y322828D01*
X335675Y324954D01*
X339927Y328438D02*
X336738Y328438D01*
X339927Y326312D02*
X340388Y326418D01*
X340758Y326713D01*
X340963Y327139D01*
X340963Y327612D01*
X340758Y328038D01*
X340388Y328333D01*
X339927Y328438D01*
X336738Y326312D02*
X339927Y326312D01*
X336738Y328438D02*
X336277Y328333D01*
X335907Y328038D01*
X335702Y327612D01*
X335702Y327139D01*
X335907Y326713D01*
X336277Y326418D01*
X336738Y326312D01*
X352427Y319344D02*
X352888Y319449D01*
X353258Y319744D01*
X353463Y320170D01*
X353463Y320643D01*
X353258Y321070D01*
X352888Y321365D01*
X352427Y321470D01*
X348175Y319344D01*
X348175Y321470D01*
X352427Y322828D02*
X352888Y322933D01*
X353258Y323228D01*
X353463Y323655D01*
X353463Y324128D01*
X353258Y324554D01*
X352888Y324849D01*
X352427Y324954D01*
X348175Y322828D01*
X348175Y324954D01*
X352427Y328438D02*
X349238Y328438D01*
X352427Y326312D02*
X352888Y326418D01*
X353258Y326713D01*
X353463Y327139D01*
X353463Y327612D01*
X353258Y328038D01*
X352888Y328333D01*
X352427Y328438D01*
X349238Y326312D02*
X352427Y326312D01*
X349238Y328438D02*
X348777Y328333D01*
X348407Y328038D01*
X348202Y327612D01*
X348202Y327139D01*
X348407Y326713D01*
X348777Y326418D01*
X349238Y326312D01*
X367427Y319344D02*
X367888Y319449D01*
X368258Y319744D01*
X368463Y320170D01*
X368463Y320643D01*
X368258Y321070D01*
X367888Y321365D01*
X367427Y321470D01*
X363175Y319344D01*
X363175Y321470D01*
X367427Y322828D02*
X367888Y322933D01*
X368258Y323228D01*
X368463Y323655D01*
X368463Y324128D01*
X368258Y324554D01*
X367888Y324849D01*
X367427Y324954D01*
X363175Y322828D01*
X363175Y324954D01*
X367427Y328438D02*
X364238Y328438D01*
X367427Y326312D02*
X367888Y326418D01*
X368258Y326713D01*
X368463Y327139D01*
X368463Y327612D01*
X368258Y328038D01*
X367888Y328333D01*
X367427Y328438D01*
X364238Y326312D02*
X367427Y326312D01*
X364238Y328438D02*
X363777Y328333D01*
X363407Y328038D01*
X363202Y327612D01*
X363202Y327139D01*
X363407Y326713D01*
X363777Y326418D01*
X364238Y326312D01*
X381083Y318985D02*
X381545Y319090D01*
X381915Y319385D01*
X382120Y319811D01*
X382120Y320284D01*
X381915Y320710D01*
X381545Y321005D01*
X381083Y321111D01*
X376831Y318985D01*
X376831Y321111D01*
X381083Y322469D02*
X381545Y322574D01*
X381915Y322869D01*
X382120Y323295D01*
X382120Y323768D01*
X381915Y324195D01*
X381545Y324490D01*
X381083Y324595D01*
X376831Y322469D01*
X376831Y324595D01*
X381083Y328079D02*
X377894Y328079D01*
X381083Y325953D02*
X381545Y326058D01*
X381915Y326353D01*
X382120Y326780D01*
X382120Y327253D01*
X381915Y327679D01*
X381545Y327974D01*
X381083Y328079D01*
X377894Y325953D02*
X381083Y325953D01*
X377894Y328079D02*
X377433Y327974D01*
X377063Y327679D01*
X376858Y327253D01*
X376858Y326780D01*
X377063Y326353D01*
X377433Y326058D01*
X377894Y325953D01*
X378340Y246137D02*
X378801Y246243D01*
X379171Y246538D01*
X379376Y246964D01*
X379376Y247437D01*
X379171Y247863D01*
X378801Y248158D01*
X378340Y248263D01*
X374088Y246137D01*
X374088Y248263D01*
X378340Y249622D02*
X378801Y249727D01*
X379171Y250022D01*
X379376Y250448D01*
X379376Y250921D01*
X379171Y251347D01*
X378801Y251642D01*
X378340Y251748D01*
X374088Y249622D01*
X374088Y251748D01*
X378340Y255232D02*
X375151Y255232D01*
X378340Y253106D02*
X378801Y253211D01*
X379171Y253506D01*
X379376Y253932D01*
X379376Y254405D01*
X379171Y254832D01*
X378801Y255127D01*
X378340Y255232D01*
X375151Y253106D02*
X378340Y253106D01*
X375151Y255232D02*
X374690Y255127D01*
X374320Y254832D01*
X374114Y254405D01*
X374114Y253932D01*
X374320Y253506D01*
X374690Y253211D01*
X375151Y253106D01*
X153444Y69350D02*
X151614Y74665D01*
X149724Y69350D01*
X152913Y70944D02*
X150255Y70944D01*
X148366Y69350D02*
X147834Y69350D01*
X148307Y68287D01*
X146476Y69350D02*
X144645Y74665D01*
X142755Y69350D01*
X145944Y70944D02*
X143287Y70944D01*
X141161Y74665D02*
X141161Y74133D01*
X141397Y73897D01*
X137440Y74665D02*
X139803Y69350D01*
X134783Y72007D02*
X136082Y72007D01*
X134783Y74694D02*
X134274Y74593D01*
X133843Y74305D01*
X133555Y73874D01*
X133454Y73366D01*
X133555Y72857D01*
X133843Y72426D01*
X134274Y72138D01*
X134783Y72037D01*
X136082Y74665D02*
X134783Y74665D01*
X136082Y69350D02*
X136082Y74665D01*
X134783Y69350D02*
X136082Y69350D01*
X134783Y71978D02*
X134274Y71877D01*
X133843Y71589D01*
X133555Y71158D01*
X133454Y70649D01*
X133555Y70141D01*
X133843Y69710D01*
X134274Y69422D01*
X134783Y69320D01*
X132066Y69350D02*
X131535Y69350D01*
X132007Y68287D01*
X128877Y72007D02*
X130177Y72007D01*
X128877Y74694D02*
X128369Y74593D01*
X127938Y74305D01*
X127650Y73874D01*
X127549Y73366D01*
X127650Y72857D01*
X127938Y72426D01*
X128369Y72138D01*
X128877Y72037D01*
X130177Y74665D02*
X128877Y74665D01*
X130177Y69350D02*
X130177Y74665D01*
X128877Y69350D02*
X130177Y69350D01*
X128877Y71978D02*
X128369Y71877D01*
X127938Y71589D01*
X127650Y71158D01*
X127549Y70649D01*
X127650Y70141D01*
X127938Y69710D01*
X128369Y69422D01*
X128877Y69320D01*
X125925Y74665D02*
X125925Y74133D01*
X126161Y73897D01*
X122204Y74665D02*
X124566Y69350D01*
X120846Y74665D02*
X118188Y74665D01*
X120846Y69350D01*
X118188Y69350D01*
X116830Y69350D02*
X116299Y69350D01*
X116771Y68287D01*
X114940Y74665D02*
X112283Y74665D01*
X114940Y69350D01*
X112283Y69350D01*
X110688Y74665D02*
X110688Y74133D01*
X110925Y73897D01*
X83444Y69350D02*
X83444Y74665D01*
X81614Y70944D01*
X79724Y74665D01*
X79724Y69350D01*
X76240Y71712D02*
X76240Y70413D01*
X78366Y71712D02*
X78260Y72173D01*
X77965Y72543D01*
X77539Y72748D01*
X77066Y72748D01*
X76640Y72543D01*
X76345Y72173D01*
X76240Y71712D01*
X78366Y70413D02*
X78366Y71712D01*
X76240Y70413D02*
X76345Y69952D01*
X76640Y69582D01*
X77066Y69377D01*
X77539Y69377D01*
X77965Y69582D01*
X78260Y69952D01*
X78366Y70413D01*
X74881Y72834D02*
X73287Y72834D01*
X74114Y74665D02*
X74114Y70118D01*
X73287Y69350D02*
X73690Y69442D01*
X73992Y69723D01*
X74114Y70118D01*
X69803Y71712D02*
X69803Y70413D01*
X71929Y71712D02*
X71823Y72173D01*
X71528Y72543D01*
X71102Y72748D01*
X70629Y72748D01*
X70203Y72543D01*
X69908Y72173D01*
X69803Y71712D01*
X71929Y70413D02*
X71929Y71712D01*
X69803Y70413D02*
X69908Y69952D01*
X70203Y69582D01*
X70629Y69377D01*
X71102Y69377D01*
X71528Y69582D01*
X71823Y69952D01*
X71929Y70413D01*
X68444Y69350D02*
X68444Y72834D01*
X68444Y72007D02*
X68363Y72373D01*
X68125Y72662D01*
X67782Y72811D01*
X67409Y72788D01*
X67086Y72598D01*
X104744Y229976D02*
X104744Y235291D01*
X103415Y233992D02*
X103314Y234500D01*
X103026Y234931D01*
X102595Y235219D01*
X102086Y235320D01*
X101578Y235219D01*
X101147Y234931D01*
X100859Y234500D01*
X100757Y233992D01*
X103385Y233992D02*
X103385Y231275D01*
X100757Y231275D02*
X100859Y230767D01*
X101147Y230336D01*
X101578Y230047D01*
X102086Y229946D01*
X102595Y230047D01*
X103026Y230336D01*
X103314Y230767D01*
X103415Y231275D01*
X99370Y234228D02*
X98307Y235291D01*
X98307Y229976D01*
X176771Y260226D02*
X174940Y265541D01*
X173051Y260226D01*
X176240Y261820D02*
X173582Y261820D01*
X171692Y260226D02*
X171692Y265541D01*
X169862Y261820D01*
X167972Y265541D01*
X167972Y260226D01*
X166614Y264478D02*
X166508Y264939D01*
X166213Y265309D01*
X165787Y265514D01*
X165314Y265514D01*
X164888Y265309D01*
X164593Y264939D01*
X164488Y264478D01*
X166614Y260226D01*
X164488Y260226D01*
X163129Y264478D02*
X163024Y264939D01*
X162729Y265309D01*
X162303Y265514D01*
X161830Y265514D01*
X161404Y265309D01*
X161109Y264939D01*
X161003Y264478D01*
X163129Y264478D02*
X163129Y261289D01*
X161003Y261289D02*
X161109Y260828D01*
X161404Y260458D01*
X161830Y260253D01*
X162303Y260253D01*
X162729Y260458D01*
X163024Y260828D01*
X163129Y261289D01*
X161003Y261289D02*
X161003Y262352D01*
X163129Y262352D02*
X163024Y262813D01*
X162729Y263183D01*
X162303Y263388D01*
X161830Y263388D01*
X161404Y263183D01*
X161109Y262813D01*
X161003Y262352D01*
X159645Y265541D02*
X159645Y260226D01*
X157283Y260226D01*
X154625Y262883D02*
X155190Y263006D01*
X155652Y263352D01*
X155929Y263859D01*
X155970Y264435D01*
X155768Y264976D01*
X155360Y265384D01*
X154819Y265586D01*
X154243Y265545D01*
X153736Y265268D01*
X153390Y264806D01*
X153267Y264242D01*
X154625Y262883D02*
X154071Y262775D01*
X153612Y262447D01*
X153330Y261957D01*
X153277Y261395D01*
X153463Y260862D01*
X153853Y260453D01*
X154378Y260244D01*
X154942Y260272D01*
X155444Y260532D01*
X155792Y260976D01*
X155925Y261525D01*
X149783Y261289D02*
X149888Y260828D01*
X150183Y260458D01*
X150609Y260253D01*
X151082Y260253D01*
X151509Y260458D01*
X151804Y260828D01*
X151909Y261289D01*
X149783Y262057D02*
X149783Y261289D01*
X150846Y263120D02*
X150439Y263039D01*
X150094Y262808D01*
X149864Y262463D01*
X149783Y262057D01*
X151141Y263120D02*
X150846Y263120D01*
X151141Y263120D01*
X149783Y264242D02*
X149855Y263821D01*
X150082Y263460D01*
X150430Y263214D01*
X150846Y263120D01*
X149783Y264478D02*
X149783Y264242D01*
X151909Y264478D02*
X151804Y264939D01*
X151509Y265309D01*
X151082Y265514D01*
X150609Y265514D01*
X150183Y265309D01*
X149888Y264939D01*
X149783Y264478D01*
X148425Y264478D02*
X148319Y264939D01*
X148024Y265309D01*
X147598Y265514D01*
X147125Y265514D01*
X146699Y265309D01*
X146404Y264939D01*
X146299Y264478D01*
X148425Y260226D01*
X146299Y260226D01*
X144940Y260226D02*
X143110Y265541D01*
X141220Y260226D01*
X144409Y261820D02*
X141751Y261820D01*
X139891Y264242D02*
X139790Y264750D01*
X139502Y265181D01*
X139071Y265469D01*
X138562Y265570D01*
X138054Y265469D01*
X137623Y265181D01*
X137335Y264750D01*
X137234Y264242D01*
X139862Y264242D02*
X139862Y261525D01*
X137234Y261525D02*
X137335Y261017D01*
X137623Y260586D01*
X138054Y260297D01*
X138562Y260196D01*
X139071Y260297D01*
X139502Y260586D01*
X139790Y261017D01*
X139891Y261525D01*
X135846Y260226D02*
X135846Y265541D01*
X133188Y260226D01*
X133188Y265541D01*
X177210Y278677D02*
X176147Y279740D01*
X176147Y274425D01*
X174789Y278677D02*
X174684Y279138D01*
X174389Y279508D01*
X173962Y279713D01*
X173489Y279713D01*
X173063Y279508D01*
X172768Y279138D01*
X172663Y278677D01*
X174789Y274425D01*
X172663Y274425D01*
X169179Y278677D02*
X169179Y275488D01*
X171305Y278677D02*
X171199Y279138D01*
X170904Y279508D01*
X170478Y279713D01*
X170005Y279713D01*
X169579Y279508D01*
X169284Y279138D01*
X169179Y278677D01*
X171305Y275488D02*
X171305Y278677D01*
X169179Y275488D02*
X169284Y275027D01*
X169579Y274657D01*
X170005Y274452D01*
X170478Y274452D01*
X170904Y274657D01*
X171199Y275027D01*
X171305Y275488D01*
X157840Y222958D02*
X156777Y224021D01*
X156777Y218706D01*
X155419Y222958D02*
X155314Y223420D01*
X155019Y223790D01*
X154592Y223995D01*
X154119Y223995D01*
X153693Y223790D01*
X153398Y223420D01*
X153293Y222958D01*
X155419Y218706D01*
X153293Y218706D01*
X149809Y222958D02*
X149809Y219769D01*
X151935Y222958D02*
X151829Y223420D01*
X151534Y223790D01*
X151108Y223995D01*
X150635Y223995D01*
X150209Y223790D01*
X149914Y223420D01*
X149809Y222958D01*
X151935Y219769D02*
X151935Y222958D01*
X149809Y219769D02*
X149914Y219308D01*
X150209Y218938D01*
X150635Y218733D01*
X151108Y218733D01*
X151534Y218938D01*
X151829Y219308D01*
X151935Y219769D01*
X127210Y278677D02*
X126147Y279740D01*
X126147Y274425D01*
X124789Y278677D02*
X124684Y279138D01*
X124389Y279508D01*
X123962Y279713D01*
X123489Y279713D01*
X123063Y279508D01*
X122768Y279138D01*
X122663Y278677D01*
X124789Y274425D01*
X122663Y274425D01*
X119179Y278677D02*
X119179Y275488D01*
X121305Y278677D02*
X121199Y279138D01*
X120904Y279508D01*
X120478Y279713D01*
X120005Y279713D01*
X119579Y279508D01*
X119284Y279138D01*
X119179Y278677D01*
X121305Y275488D02*
X121305Y278677D01*
X119179Y275488D02*
X119284Y275027D01*
X119579Y274657D01*
X120005Y274452D01*
X120478Y274452D01*
X120904Y274657D01*
X121199Y275027D01*
X121305Y275488D01*
X59221Y385864D02*
X58158Y386927D01*
X58158Y381613D01*
X54673Y385864D02*
X54673Y382675D01*
X56799Y385864D02*
X56694Y386326D01*
X56399Y386696D01*
X55973Y386901D01*
X55500Y386901D01*
X55074Y386696D01*
X54779Y386326D01*
X54673Y385864D01*
X56799Y382675D02*
X56799Y385864D01*
X54673Y382675D02*
X54779Y382214D01*
X55074Y381844D01*
X55500Y381639D01*
X55973Y381639D01*
X56399Y381844D01*
X56694Y382214D01*
X56799Y382675D01*
X53315Y381613D02*
X53315Y386927D01*
X53315Y383443D02*
X50658Y386927D01*
X52252Y384801D02*
X50658Y381613D01*
X26663Y188038D02*
X26224Y187944D01*
X25863Y187676D01*
X25645Y187283D01*
X25608Y186835D01*
X25760Y186412D01*
X26072Y186090D01*
X26663Y188038D02*
X27726Y188038D01*
X27726Y185912D02*
X28187Y186018D01*
X28557Y186313D01*
X28762Y186739D01*
X28762Y187212D01*
X28557Y187638D01*
X28187Y187933D01*
X27726Y188038D01*
X27726Y185912D02*
X30915Y185912D01*
X30915Y188038D01*
X30915Y189397D02*
X25600Y190696D01*
X30915Y192054D01*
X31978Y195952D02*
X24537Y195952D01*
X31978Y197310D02*
X24537Y197310D01*
X30915Y203865D02*
X30915Y201208D01*
X28257Y201208D01*
X28257Y203038D01*
X28257Y201208D02*
X25600Y201208D01*
X25600Y203865D01*
X25600Y205223D02*
X29084Y207349D01*
X29084Y205223D02*
X25600Y207349D01*
X29084Y208708D02*
X29084Y210302D01*
X30915Y209475D02*
X26368Y209475D01*
X25600Y210302D02*
X25692Y209899D01*
X25973Y209597D01*
X26368Y209475D01*
X26131Y211660D02*
X25600Y211660D01*
X114911Y283726D02*
X114911Y289041D01*
X113582Y287742D02*
X113481Y288250D01*
X113193Y288681D01*
X112762Y288969D01*
X112253Y289070D01*
X111745Y288969D01*
X111314Y288681D01*
X111026Y288250D01*
X110925Y287742D01*
X113553Y287742D02*
X113553Y285025D01*
X110925Y285025D02*
X111026Y284517D01*
X111314Y284086D01*
X111745Y283797D01*
X112253Y283696D01*
X112762Y283797D01*
X113193Y284086D01*
X113481Y284517D01*
X113582Y285025D01*
X107411Y284789D02*
X107516Y284328D01*
X107811Y283958D01*
X108237Y283753D01*
X108710Y283753D01*
X109137Y283958D01*
X109432Y284328D01*
X109537Y284789D01*
X107411Y285557D02*
X107411Y284789D01*
X108474Y286620D02*
X108067Y286539D01*
X107722Y286308D01*
X107492Y285963D01*
X107411Y285557D01*
X108769Y286620D02*
X108474Y286620D01*
X108769Y286620D01*
X107411Y287742D02*
X107483Y287321D01*
X107710Y286960D01*
X108058Y286714D01*
X108474Y286620D01*
X107411Y287978D02*
X107411Y287742D01*
X109537Y287978D02*
X109432Y288439D01*
X109137Y288809D01*
X108710Y289014D01*
X108237Y289014D01*
X107811Y288809D01*
X107516Y288439D01*
X107411Y287978D01*
X177578Y319773D02*
X177578Y320541D01*
X175452Y320541D01*
X177047Y315226D01*
X172500Y320541D02*
X174094Y316525D01*
X171968Y316525D01*
X172500Y317588D02*
X172500Y315226D01*
X170610Y315226D02*
X170610Y317883D01*
X167952Y317883D01*
X170610Y317883D02*
X170610Y320541D01*
X167952Y320541D02*
X167952Y315226D01*
X166624Y319242D02*
X166522Y319750D01*
X166234Y320181D01*
X165803Y320469D01*
X165295Y320570D01*
X164786Y320469D01*
X164355Y320181D01*
X164067Y319750D01*
X163966Y319242D01*
X166594Y319242D02*
X166594Y316525D01*
X163966Y316525D02*
X164067Y316017D01*
X164355Y315586D01*
X164786Y315297D01*
X165295Y315196D01*
X165803Y315297D01*
X166234Y315586D01*
X166522Y316017D01*
X166624Y316525D01*
X162578Y320541D02*
X159921Y320541D01*
X161279Y320541D02*
X161279Y315226D01*
X158562Y319478D02*
X157500Y320541D01*
X157500Y315226D01*
X154547Y320541D02*
X156141Y316525D01*
X154015Y316525D01*
X154547Y317588D02*
X154547Y315226D01*
X74001Y217600D02*
X79316Y217600D01*
X78017Y218929D02*
X78526Y219030D01*
X78957Y219318D01*
X79245Y219749D01*
X79346Y220257D01*
X79245Y220766D01*
X78957Y221197D01*
X78526Y221485D01*
X78017Y221586D01*
X78017Y218958D02*
X75301Y218958D01*
X75301Y221586D02*
X74792Y221485D01*
X74361Y221197D01*
X74073Y220766D01*
X73972Y220257D01*
X74073Y219749D01*
X74361Y219318D01*
X74792Y219030D01*
X75301Y218929D01*
X79316Y224568D02*
X75301Y222974D01*
X75301Y225100D01*
X76364Y224568D02*
X74001Y224568D01*
X25399Y219899D02*
X28057Y219899D01*
X28057Y222557D01*
X28057Y219899D02*
X30714Y219899D01*
X30714Y222557D02*
X25399Y222557D01*
X29415Y223885D02*
X29923Y223986D01*
X30354Y224275D01*
X30642Y224706D01*
X30744Y225214D01*
X30642Y225723D01*
X30354Y226154D01*
X29923Y226442D01*
X29415Y226543D01*
X29415Y223915D02*
X26698Y223915D01*
X26698Y226543D02*
X26190Y226442D01*
X25759Y226154D01*
X25471Y225723D01*
X25370Y225214D01*
X25471Y224706D01*
X25759Y224275D01*
X26190Y223986D01*
X26698Y223885D01*
X25399Y227931D02*
X28057Y227931D01*
X28057Y229230D01*
X30744Y229230D02*
X30642Y229738D01*
X30354Y230169D01*
X29923Y230457D01*
X29415Y230559D01*
X28906Y230457D01*
X28475Y230169D01*
X28187Y229738D01*
X28086Y229230D01*
X30714Y229230D02*
X30714Y227931D01*
X28057Y227931D01*
X30714Y231946D02*
X25399Y231946D01*
X25399Y234309D01*
X28057Y235667D02*
X28057Y238029D01*
X29651Y239387D02*
X30112Y239493D01*
X30482Y239788D01*
X30687Y240214D01*
X30687Y240687D01*
X30482Y241113D01*
X30112Y241408D01*
X29651Y241513D01*
X25399Y239387D01*
X25399Y241513D01*
X29651Y242872D02*
X30112Y242977D01*
X30482Y243272D01*
X30687Y243698D01*
X30687Y244171D01*
X30482Y244597D01*
X30112Y244892D01*
X29651Y244998D01*
X29651Y242872D02*
X26462Y242872D01*
X26462Y244998D02*
X26001Y244892D01*
X25631Y244597D01*
X25426Y244171D01*
X25426Y243698D01*
X25631Y243272D01*
X26001Y242977D01*
X26462Y242872D01*
X26462Y244998D02*
X27525Y244998D01*
X27525Y242872D02*
X27986Y242977D01*
X28356Y243272D01*
X28561Y243698D01*
X28561Y244171D01*
X28356Y244597D01*
X27986Y244892D01*
X27525Y244998D01*
X26462Y248482D02*
X26001Y248377D01*
X25631Y248082D01*
X25426Y247655D01*
X25426Y247182D01*
X25631Y246756D01*
X26001Y246461D01*
X26462Y246356D01*
X27230Y248482D02*
X26462Y248482D01*
X28293Y247419D02*
X28212Y247826D01*
X27981Y248170D01*
X27637Y248401D01*
X27230Y248482D01*
X28293Y247124D02*
X28293Y247419D01*
X28293Y247124D01*
X29415Y248482D02*
X28994Y248410D01*
X28634Y248183D01*
X28387Y247835D01*
X28293Y247419D01*
X29651Y248482D02*
X29415Y248482D01*
X29651Y246356D02*
X30112Y246461D01*
X30482Y246756D01*
X30687Y247182D01*
X30687Y247655D01*
X30482Y248082D01*
X30112Y248377D01*
X29651Y248482D01*
X29651Y251966D02*
X26462Y251966D01*
X29651Y249840D02*
X30112Y249945D01*
X30482Y250240D01*
X30687Y250667D01*
X30687Y251140D01*
X30482Y251566D01*
X30112Y251861D01*
X29651Y251966D01*
X26462Y249840D02*
X29651Y249840D01*
X26462Y251966D02*
X26001Y251861D01*
X25631Y251566D01*
X25426Y251140D01*
X25426Y250667D01*
X25631Y250240D01*
X26001Y249945D01*
X26462Y249840D01*
X74001Y278850D02*
X79316Y278850D01*
X78017Y280179D02*
X78526Y280280D01*
X78957Y280568D01*
X79245Y280999D01*
X79346Y281507D01*
X79245Y282016D01*
X78957Y282447D01*
X78526Y282735D01*
X78017Y282836D01*
X78017Y280208D02*
X75301Y280208D01*
X75301Y282836D02*
X74792Y282735D01*
X74361Y282447D01*
X74073Y282016D01*
X73972Y281507D01*
X74073Y280999D01*
X74361Y280568D01*
X74792Y280280D01*
X75301Y280179D01*
X75064Y286350D02*
X74625Y286255D01*
X74264Y285987D01*
X74046Y285595D01*
X74010Y285147D01*
X74161Y284724D01*
X74474Y284401D01*
X75064Y286350D02*
X76127Y286350D01*
X76127Y284224D02*
X76589Y284329D01*
X76959Y284624D01*
X77164Y285050D01*
X77164Y285523D01*
X76959Y285950D01*
X76589Y286245D01*
X76127Y286350D01*
X76127Y284224D02*
X79316Y284224D01*
X79316Y286350D01*
X25399Y281149D02*
X28057Y281149D01*
X28057Y283807D01*
X28057Y281149D02*
X30714Y281149D01*
X30714Y283807D02*
X25399Y283807D01*
X29415Y285135D02*
X29923Y285236D01*
X30354Y285525D01*
X30642Y285956D01*
X30744Y286464D01*
X30642Y286973D01*
X30354Y287404D01*
X29923Y287692D01*
X29415Y287793D01*
X29415Y285165D02*
X26698Y285165D01*
X26698Y287793D02*
X26190Y287692D01*
X25759Y287404D01*
X25471Y286973D01*
X25370Y286464D01*
X25471Y285956D01*
X25759Y285525D01*
X26190Y285236D01*
X26698Y285135D01*
X25399Y289181D02*
X28057Y289181D01*
X28057Y290480D01*
X30744Y290480D02*
X30642Y290988D01*
X30354Y291419D01*
X29923Y291707D01*
X29415Y291809D01*
X28906Y291707D01*
X28475Y291419D01*
X28187Y290988D01*
X28086Y290480D01*
X30714Y290480D02*
X30714Y289181D01*
X28057Y289181D01*
X30714Y293196D02*
X25399Y293196D01*
X25399Y295559D01*
X28057Y296917D02*
X28057Y299279D01*
X29651Y300637D02*
X30112Y300743D01*
X30482Y301038D01*
X30687Y301464D01*
X30687Y301937D01*
X30482Y302363D01*
X30112Y302658D01*
X29651Y302763D01*
X25399Y300637D01*
X25399Y302763D01*
X29651Y304122D02*
X30112Y304227D01*
X30482Y304522D01*
X30687Y304948D01*
X30687Y305421D01*
X30482Y305847D01*
X30112Y306142D01*
X29651Y306248D01*
X29651Y304122D02*
X26462Y304122D01*
X26462Y306248D02*
X26001Y306142D01*
X25631Y305847D01*
X25426Y305421D01*
X25426Y304948D01*
X25631Y304522D01*
X26001Y304227D01*
X26462Y304122D01*
X26462Y306248D02*
X27525Y306248D01*
X27525Y304122D02*
X27986Y304227D01*
X28356Y304522D01*
X28561Y304948D01*
X28561Y305421D01*
X28356Y305847D01*
X27986Y306142D01*
X27525Y306248D01*
X26462Y309732D02*
X26001Y309627D01*
X25631Y309332D01*
X25426Y308905D01*
X25426Y308432D01*
X25631Y308006D01*
X26001Y307711D01*
X26462Y307606D01*
X27230Y309732D02*
X26462Y309732D01*
X28293Y308669D02*
X28212Y309076D01*
X27981Y309420D01*
X27637Y309651D01*
X27230Y309732D01*
X28293Y308374D02*
X28293Y308669D01*
X28293Y308374D01*
X29415Y309732D02*
X28994Y309660D01*
X28634Y309433D01*
X28387Y309085D01*
X28293Y308669D01*
X29651Y309732D02*
X29415Y309732D01*
X29651Y307606D02*
X30112Y307711D01*
X30482Y308006D01*
X30687Y308432D01*
X30687Y308905D01*
X30482Y309332D01*
X30112Y309627D01*
X29651Y309732D01*
X29651Y313216D02*
X26462Y313216D01*
X29651Y311090D02*
X30112Y311195D01*
X30482Y311490D01*
X30687Y311917D01*
X30687Y312390D01*
X30482Y312816D01*
X30112Y313111D01*
X29651Y313216D01*
X26462Y311090D02*
X29651Y311090D01*
X26462Y313216D02*
X26001Y313111D01*
X25631Y312816D01*
X25426Y312390D01*
X25426Y311917D01*
X25631Y311490D01*
X26001Y311195D01*
X26462Y311090D01*
X38559Y21716D02*
X39020Y21821D01*
X39390Y22116D01*
X39595Y22542D01*
X39595Y23015D01*
X39390Y23441D01*
X39020Y23736D01*
X38559Y23842D01*
X34307Y21716D01*
X34307Y23842D01*
X38559Y25200D02*
X39020Y25305D01*
X39390Y25600D01*
X39595Y26026D01*
X39595Y26499D01*
X39390Y26926D01*
X39020Y27221D01*
X38559Y27326D01*
X34307Y25200D01*
X34307Y27326D01*
X38559Y30810D02*
X35370Y30810D01*
X38559Y28684D02*
X39020Y28789D01*
X39390Y29084D01*
X39595Y29511D01*
X39595Y29984D01*
X39390Y30410D01*
X39020Y30705D01*
X38559Y30810D01*
X35370Y28684D02*
X38559Y28684D01*
X35370Y30810D02*
X34909Y30705D01*
X34539Y30410D01*
X34333Y29984D01*
X34333Y29511D01*
X34539Y29084D01*
X34909Y28789D01*
X35370Y28684D01*
X26684Y22028D02*
X27145Y22133D01*
X27515Y22428D01*
X27720Y22855D01*
X27720Y23328D01*
X27515Y23754D01*
X27145Y24049D01*
X26684Y24154D01*
X22432Y22028D01*
X22432Y24154D01*
X26684Y25512D02*
X27145Y25618D01*
X27515Y25913D01*
X27720Y26339D01*
X27720Y26812D01*
X27515Y27238D01*
X27145Y27533D01*
X26684Y27638D01*
X22432Y25512D01*
X22432Y27638D01*
X26684Y31123D02*
X23495Y31123D01*
X26684Y28997D02*
X27145Y29102D01*
X27515Y29397D01*
X27720Y29823D01*
X27720Y30296D01*
X27515Y30722D01*
X27145Y31017D01*
X26684Y31123D01*
X23495Y28997D02*
X26684Y28997D01*
X23495Y31123D02*
X23034Y31017D01*
X22664Y30722D01*
X22458Y30296D01*
X22458Y29823D01*
X22664Y29397D01*
X23034Y29102D01*
X23495Y28997D01*
X14496Y22028D02*
X14957Y22133D01*
X15327Y22428D01*
X15533Y22855D01*
X15533Y23328D01*
X15327Y23754D01*
X14957Y24049D01*
X14496Y24154D01*
X10244Y22028D01*
X10244Y24154D01*
X14496Y25512D02*
X14957Y25618D01*
X15327Y25913D01*
X15533Y26339D01*
X15533Y26812D01*
X15327Y27238D01*
X14957Y27533D01*
X14496Y27638D01*
X10244Y25512D01*
X10244Y27638D01*
X14496Y31123D02*
X11307Y31123D01*
X14496Y28997D02*
X14957Y29102D01*
X15327Y29397D01*
X15533Y29823D01*
X15533Y30296D01*
X15327Y30722D01*
X14957Y31017D01*
X14496Y31123D01*
X11307Y28997D02*
X14496Y28997D01*
X11307Y31123D02*
X10846Y31017D01*
X10476Y30722D01*
X10271Y30296D01*
X10271Y29823D01*
X10476Y29397D01*
X10846Y29102D01*
X11307Y28997D01*
X267588Y104384D02*
X264931Y104384D01*
X266289Y104384D02*
X266289Y99069D01*
X263572Y102554D02*
X262509Y99069D01*
X261446Y102554D01*
X260383Y99069D01*
X259320Y102554D01*
X257962Y100900D02*
X255836Y100900D01*
X255836Y101432D01*
X257962Y101432D02*
X257857Y101893D01*
X257562Y102263D01*
X257136Y102468D01*
X256663Y102468D01*
X256236Y102263D01*
X255941Y101893D01*
X255836Y101432D01*
X257962Y101432D02*
X257962Y100132D01*
X255895Y99778D02*
X256162Y99364D01*
X256587Y99115D01*
X257078Y99084D01*
X257531Y99277D01*
X257848Y99653D01*
X257962Y100132D01*
X254478Y100900D02*
X252352Y100900D01*
X252352Y101432D01*
X254478Y101432D02*
X254373Y101893D01*
X254078Y102263D01*
X253651Y102468D01*
X253178Y102468D01*
X252752Y102263D01*
X252457Y101893D01*
X252352Y101432D01*
X254478Y101432D02*
X254478Y100132D01*
X252411Y99778D02*
X252678Y99364D01*
X253102Y99115D01*
X253594Y99084D01*
X254047Y99277D01*
X254364Y99653D01*
X254478Y100132D01*
X250994Y102554D02*
X249399Y102554D01*
X250226Y104384D02*
X250226Y99837D01*
X249399Y99069D02*
X249802Y99161D01*
X250104Y99442D01*
X250226Y99837D01*
X248041Y100900D02*
X245915Y100900D01*
X245915Y101432D01*
X248041Y101432D02*
X247936Y101893D01*
X247641Y102263D01*
X247214Y102468D01*
X246741Y102468D01*
X246315Y102263D01*
X246020Y101893D01*
X245915Y101432D01*
X248041Y101432D02*
X248041Y100132D01*
X245974Y99778D02*
X246241Y99364D01*
X246665Y99115D01*
X247157Y99084D01*
X247610Y99277D01*
X247927Y99653D01*
X248041Y100132D01*
X244557Y99069D02*
X244557Y102554D01*
X244557Y101727D02*
X244476Y102092D01*
X244238Y102381D01*
X243894Y102530D01*
X243521Y102507D01*
X243198Y102317D01*
X308233Y90108D02*
X308233Y88809D01*
X310920Y90108D02*
X310819Y90616D01*
X310531Y91047D01*
X310100Y91335D01*
X309591Y91437D01*
X309083Y91335D01*
X308651Y91047D01*
X308363Y90616D01*
X308262Y90108D01*
X310890Y88809D02*
X310890Y90108D01*
X305575Y88809D02*
X310890Y88809D01*
X305575Y90108D02*
X305575Y88809D01*
X308203Y90108D02*
X308102Y90616D01*
X307814Y91047D01*
X307383Y91335D01*
X306875Y91437D01*
X306366Y91335D01*
X305935Y91047D01*
X305647Y90616D01*
X305546Y90108D01*
X309591Y92795D02*
X310100Y92896D01*
X310531Y93184D01*
X310819Y93615D01*
X310920Y94124D01*
X310819Y94632D01*
X310531Y95063D01*
X310100Y95351D01*
X309591Y95452D01*
X309591Y92824D02*
X306875Y92824D01*
X306875Y95452D02*
X306366Y95351D01*
X305935Y95063D01*
X305647Y94632D01*
X305546Y94124D01*
X305647Y93615D01*
X305935Y93184D01*
X306366Y92896D01*
X306875Y92795D01*
X307406Y98966D02*
X306638Y98966D01*
X307406Y96840D02*
X307867Y96945D01*
X308237Y97240D01*
X308442Y97667D01*
X308442Y98140D01*
X308237Y98566D01*
X307867Y98861D01*
X307406Y98966D01*
X306638Y96840D02*
X307406Y96840D01*
X306638Y98966D02*
X306177Y98861D01*
X305807Y98566D01*
X305602Y98140D01*
X305602Y97667D01*
X305807Y97240D01*
X306177Y96945D01*
X306638Y96840D01*
X309827Y98966D02*
X309591Y98966D01*
X309827Y96840D02*
X310288Y96945D01*
X310658Y97240D01*
X310864Y97667D01*
X310864Y98140D01*
X310658Y98566D01*
X310288Y98861D01*
X309827Y98966D01*
X309591Y96840D02*
X309827Y96840D01*
X309591Y98966D02*
X309130Y98861D01*
X308760Y98566D01*
X308555Y98140D01*
X308555Y97667D01*
X308760Y97240D01*
X309130Y96945D01*
X309591Y96840D01*
X309827Y100324D02*
X310890Y101387D01*
X305575Y101387D01*
X310123Y102746D02*
X310890Y102746D01*
X310890Y104872D01*
X305575Y103277D01*
X306184Y133519D02*
X302168Y131925D01*
X302168Y134051D01*
X303231Y133519D02*
X300869Y133519D01*
X300869Y135409D02*
X300869Y135940D01*
X299806Y135468D01*
X305417Y137299D02*
X306184Y137299D01*
X306184Y139425D01*
X300869Y137830D01*
X300869Y140783D02*
X306184Y140783D01*
X302700Y140783D02*
X306184Y143440D01*
X304058Y141846D02*
X300869Y143440D01*
X191521Y248079D02*
X187506Y246485D01*
X187506Y248611D01*
X188569Y248079D02*
X186206Y248079D01*
X190754Y249969D02*
X191521Y249969D01*
X191521Y252095D01*
X186206Y250500D01*
X186206Y253453D02*
X189691Y253453D01*
X188569Y253453D02*
X189030Y253558D01*
X189400Y253853D01*
X189605Y254280D01*
X189605Y254753D01*
X189400Y255179D01*
X189030Y255474D01*
X188569Y255579D01*
X186206Y255579D01*
X191521Y259595D02*
X191521Y256937D01*
X188864Y256937D01*
X188864Y258768D01*
X188864Y256937D02*
X186206Y256937D01*
X219403Y262466D02*
X215387Y260872D01*
X215387Y262998D01*
X216450Y262466D02*
X214088Y262466D01*
X218635Y264356D02*
X219403Y264356D01*
X219403Y266482D01*
X214088Y264887D01*
X214088Y267840D02*
X217572Y267840D01*
X216450Y267840D02*
X216911Y267945D01*
X217281Y268240D01*
X217486Y268667D01*
X217486Y269140D01*
X217281Y269566D01*
X216911Y269861D01*
X216450Y269966D01*
X214088Y269966D01*
X219403Y273982D02*
X219403Y271324D01*
X216745Y271324D01*
X216745Y273155D01*
X216745Y271324D02*
X214088Y271324D01*
X204590Y250419D02*
X205653Y251482D01*
X200338Y251482D01*
X204590Y254966D02*
X201401Y254966D01*
X204590Y252840D02*
X205051Y252945D01*
X205421Y253240D01*
X205626Y253667D01*
X205626Y254140D01*
X205421Y254566D01*
X205051Y254861D01*
X204590Y254966D01*
X201401Y252840D02*
X204590Y252840D01*
X201401Y254966D02*
X200940Y254861D01*
X200570Y254566D01*
X200364Y254140D01*
X200364Y253667D01*
X200570Y253240D01*
X200940Y252945D01*
X201401Y252840D01*
X204590Y258450D02*
X201401Y258450D01*
X204590Y256324D02*
X205051Y256430D01*
X205421Y256725D01*
X205626Y257151D01*
X205626Y257624D01*
X205421Y258050D01*
X205051Y258345D01*
X204590Y258450D01*
X201401Y256324D02*
X204590Y256324D01*
X201401Y258450D02*
X200940Y258345D01*
X200570Y258050D01*
X200364Y257624D01*
X200364Y257151D01*
X200570Y256725D01*
X200940Y256430D01*
X201401Y256324D01*
X200338Y259809D02*
X205653Y259809D01*
X202168Y259809D02*
X205653Y262466D01*
X203527Y260872D02*
X200338Y262466D01*
X234590Y250419D02*
X235653Y251482D01*
X230338Y251482D01*
X234590Y254966D02*
X231401Y254966D01*
X234590Y252840D02*
X235051Y252945D01*
X235421Y253240D01*
X235626Y253667D01*
X235626Y254140D01*
X235421Y254566D01*
X235051Y254861D01*
X234590Y254966D01*
X231401Y252840D02*
X234590Y252840D01*
X231401Y254966D02*
X230940Y254861D01*
X230570Y254566D01*
X230364Y254140D01*
X230364Y253667D01*
X230570Y253240D01*
X230940Y252945D01*
X231401Y252840D01*
X234590Y258450D02*
X231401Y258450D01*
X234590Y256324D02*
X235051Y256430D01*
X235421Y256725D01*
X235626Y257151D01*
X235626Y257624D01*
X235421Y258050D01*
X235051Y258345D01*
X234590Y258450D01*
X231401Y256324D02*
X234590Y256324D01*
X231401Y258450D02*
X230940Y258345D01*
X230570Y258050D01*
X230364Y257624D01*
X230364Y257151D01*
X230570Y256725D01*
X230940Y256430D01*
X231401Y256324D01*
X230338Y259809D02*
X235653Y259809D01*
X232168Y259809D02*
X235653Y262466D01*
X233527Y260872D02*
X230338Y262466D01*
X109025Y191604D02*
X108519Y191491D01*
X108094Y191194D01*
X107816Y190756D01*
X107726Y190246D01*
X107726Y188946D01*
X113041Y188946D01*
X113041Y190246D01*
X112951Y190756D01*
X112673Y191194D01*
X112248Y191491D01*
X111742Y191604D01*
X109025Y191604D01*
X109557Y192962D02*
X109557Y195088D01*
X110088Y195088D01*
X110088Y192962D02*
X110549Y193067D01*
X110919Y193362D01*
X111124Y193789D01*
X111124Y194262D01*
X110919Y194688D01*
X110549Y194983D01*
X110088Y195088D01*
X110088Y192962D02*
X108789Y192962D01*
X108435Y195029D02*
X108021Y194762D01*
X107772Y194338D01*
X107740Y193846D01*
X107933Y193393D01*
X108310Y193076D01*
X108789Y192962D01*
X110088Y196446D02*
X110549Y196552D01*
X110919Y196847D01*
X111124Y197273D01*
X111124Y197746D01*
X110919Y198172D01*
X110549Y198467D01*
X110088Y198572D01*
X110088Y196446D02*
X108789Y196446D01*
X108789Y198572D02*
X108328Y198467D01*
X107958Y198172D01*
X107753Y197746D01*
X107753Y197273D01*
X107958Y196847D01*
X108328Y196552D01*
X108789Y196446D01*
X110088Y202057D02*
X108789Y202057D01*
X110088Y199931D02*
X110549Y200036D01*
X110919Y200331D01*
X111124Y200757D01*
X111124Y201230D01*
X110919Y201656D01*
X110549Y201951D01*
X110088Y202057D01*
X108789Y199931D02*
X110088Y199931D01*
X108789Y202057D02*
X108328Y201951D01*
X107958Y201656D01*
X107753Y201230D01*
X107753Y200757D01*
X107958Y200331D01*
X108328Y200036D01*
X108789Y199931D01*
X113041Y205541D02*
X107726Y205541D01*
X110088Y203415D02*
X110549Y203520D01*
X110919Y203815D01*
X111124Y204241D01*
X111124Y204714D01*
X110919Y205141D01*
X110549Y205436D01*
X110088Y205541D01*
X110088Y203415D02*
X108789Y203415D01*
X108789Y205541D02*
X108328Y205436D01*
X107958Y205141D01*
X107753Y204714D01*
X107753Y204241D01*
X107958Y203815D01*
X108328Y203520D01*
X108789Y203415D01*
X109557Y206899D02*
X109557Y209025D01*
X110088Y209025D01*
X110088Y206899D02*
X110549Y207004D01*
X110919Y207299D01*
X111124Y207726D01*
X111124Y208199D01*
X110919Y208625D01*
X110549Y208920D01*
X110088Y209025D01*
X110088Y206899D02*
X108789Y206899D01*
X108435Y208966D02*
X108021Y208699D01*
X107772Y208275D01*
X107740Y207783D01*
X107933Y207330D01*
X108310Y207013D01*
X108789Y206899D01*
X107726Y210383D02*
X111210Y210383D01*
X110383Y210383D02*
X110749Y210464D01*
X111038Y210702D01*
X111187Y211046D01*
X111164Y211419D01*
X110974Y211742D01*
X224350Y68725D02*
X222519Y74040D01*
X220629Y68725D01*
X223818Y70319D02*
X221161Y70319D01*
X216909Y74040D02*
X219271Y68725D01*
X214251Y71382D02*
X215551Y71382D01*
X214251Y74069D02*
X213743Y73968D01*
X213312Y73680D01*
X213024Y73249D01*
X212923Y72741D01*
X213024Y72232D01*
X213312Y71801D01*
X213743Y71513D01*
X214251Y71412D01*
X215551Y74040D02*
X214251Y74040D01*
X215551Y68725D02*
X215551Y74040D01*
X214251Y68725D02*
X215551Y68725D01*
X214251Y71353D02*
X213743Y71252D01*
X213312Y70964D01*
X213024Y70533D01*
X212923Y70024D01*
X213024Y69516D01*
X213312Y69085D01*
X213743Y68797D01*
X214251Y68695D01*
X209173Y74040D02*
X211535Y68725D01*
X207814Y74040D02*
X205157Y74040D01*
X207814Y68725D01*
X205157Y68725D01*
X194833Y202735D02*
X195896Y203798D01*
X190581Y203798D01*
X194833Y207282D02*
X191644Y207282D01*
X194833Y205156D02*
X195295Y205261D01*
X195665Y205556D01*
X195870Y205982D01*
X195870Y206455D01*
X195665Y206882D01*
X195295Y207177D01*
X194833Y207282D01*
X191644Y205156D02*
X194833Y205156D01*
X191644Y207282D02*
X191183Y207177D01*
X190813Y206882D01*
X190608Y206455D01*
X190608Y205982D01*
X190813Y205556D01*
X191183Y205261D01*
X191644Y205156D01*
X190581Y208640D02*
X195896Y208640D01*
X192412Y208640D02*
X195896Y211298D01*
X193770Y209703D02*
X190581Y211298D01*
X205458Y202735D02*
X206521Y203798D01*
X201206Y203798D01*
X205458Y207282D02*
X202269Y207282D01*
X205458Y205156D02*
X205920Y205261D01*
X206290Y205556D01*
X206495Y205982D01*
X206495Y206455D01*
X206290Y206882D01*
X205920Y207177D01*
X205458Y207282D01*
X202269Y205156D02*
X205458Y205156D01*
X202269Y207282D02*
X201808Y207177D01*
X201438Y206882D01*
X201233Y206455D01*
X201233Y205982D01*
X201438Y205556D01*
X201808Y205261D01*
X202269Y205156D01*
X201206Y208640D02*
X206521Y208640D01*
X203037Y208640D02*
X206521Y211298D01*
X204395Y209703D02*
X201206Y211298D01*
X216083Y202735D02*
X217146Y203798D01*
X211831Y203798D01*
X216083Y207282D02*
X212894Y207282D01*
X216083Y205156D02*
X216545Y205261D01*
X216915Y205556D01*
X217120Y205982D01*
X217120Y206455D01*
X216915Y206882D01*
X216545Y207177D01*
X216083Y207282D01*
X212894Y205156D02*
X216083Y205156D01*
X212894Y207282D02*
X212433Y207177D01*
X212063Y206882D01*
X211858Y206455D01*
X211858Y205982D01*
X212063Y205556D01*
X212433Y205261D01*
X212894Y205156D01*
X211831Y208640D02*
X217146Y208640D01*
X213662Y208640D02*
X217146Y211298D01*
X215020Y209703D02*
X211831Y211298D01*
X136274Y189507D02*
X135768Y189395D01*
X135343Y189097D01*
X135065Y188660D01*
X134975Y188149D01*
X134975Y186850D01*
X140290Y186850D01*
X140290Y188149D01*
X140200Y188660D01*
X139922Y189097D01*
X139497Y189395D01*
X138991Y189507D01*
X136274Y189507D01*
X134975Y190866D02*
X138695Y190866D01*
X139758Y190866D02*
X140290Y190866D01*
X139522Y192992D02*
X139917Y193113D01*
X140198Y193416D01*
X140290Y193818D01*
X139522Y192992D02*
X138459Y192992D01*
X134975Y192992D01*
X138459Y192224D02*
X138459Y193818D01*
X139522Y195944D02*
X139917Y196066D01*
X140198Y196368D01*
X140290Y196771D01*
X139522Y195944D02*
X138459Y195944D01*
X134975Y195944D01*
X138459Y195177D02*
X138459Y196771D01*
X136806Y198129D02*
X136806Y200255D01*
X137337Y200255D01*
X137337Y198129D02*
X137798Y198235D01*
X138168Y198530D01*
X138373Y198956D01*
X138373Y199429D01*
X138168Y199855D01*
X137798Y200150D01*
X137337Y200255D01*
X137337Y198129D02*
X136038Y198129D01*
X135684Y200196D02*
X135270Y199929D01*
X135021Y199505D01*
X134989Y199013D01*
X135182Y198561D01*
X135559Y198243D01*
X136038Y198129D01*
X134975Y201614D02*
X138459Y201614D01*
X137632Y201614D02*
X137998Y201695D01*
X138287Y201933D01*
X138436Y202276D01*
X138413Y202649D01*
X138223Y202972D01*
X136806Y204330D02*
X136806Y206456D01*
X137337Y206456D01*
X137337Y204330D02*
X137798Y204435D01*
X138168Y204730D01*
X138373Y205157D01*
X138373Y205630D01*
X138168Y206056D01*
X137798Y206351D01*
X137337Y206456D01*
X137337Y204330D02*
X136038Y204330D01*
X135684Y206397D02*
X135270Y206130D01*
X135021Y205706D01*
X134989Y205214D01*
X135182Y204761D01*
X135559Y204444D01*
X136038Y204330D01*
X134975Y207814D02*
X138459Y207814D01*
X137337Y207814D02*
X137798Y207920D01*
X138168Y208215D01*
X138373Y208641D01*
X138373Y209114D01*
X138168Y209540D01*
X137798Y209835D01*
X137337Y209940D01*
X134975Y209940D01*
X138459Y211299D02*
X138459Y212893D01*
X140290Y212066D02*
X135743Y212066D01*
X134975Y212893D02*
X135067Y212491D01*
X135348Y212188D01*
X135743Y212066D01*
X134975Y214251D02*
X138695Y214251D01*
X139758Y214251D02*
X140290Y214251D01*
X137337Y215610D02*
X137798Y215715D01*
X138168Y216010D01*
X138373Y216436D01*
X138373Y216909D01*
X138168Y217335D01*
X137798Y217630D01*
X137337Y217736D01*
X136942Y217614D01*
X136661Y217312D01*
X136569Y216909D01*
X136569Y216377D01*
X134945Y216377D02*
X135052Y215979D01*
X135344Y215687D01*
X135743Y215580D01*
X136141Y215687D01*
X136433Y215979D01*
X136540Y216377D01*
X134975Y216377D02*
X134975Y216909D01*
X135743Y217736D02*
X135348Y217614D01*
X135067Y217312D01*
X134975Y216909D01*
X137337Y217736D02*
X135506Y217736D01*
X134975Y218267D01*
X140290Y219625D02*
X135743Y219625D01*
X134975Y220393D02*
X135078Y220009D01*
X135359Y219728D01*
X135743Y219625D01*
X58882Y198351D02*
X58443Y198256D01*
X58082Y197988D01*
X57864Y197596D01*
X57827Y197148D01*
X57979Y196725D01*
X58292Y196402D01*
X58882Y198351D02*
X59945Y198351D01*
X59945Y196225D02*
X60407Y196330D01*
X60776Y196625D01*
X60982Y197051D01*
X60982Y197524D01*
X60776Y197951D01*
X60407Y198246D01*
X59945Y198351D01*
X59945Y196225D02*
X63134Y196225D01*
X63134Y198351D01*
X63134Y199709D02*
X57819Y201008D01*
X63134Y202367D01*
G54D12*
X83350Y364350D02*
X85850Y361850D01*
X90850Y361850D01*
X93350Y364350D01*
X93350Y369350D01*
X90850Y371850D01*
X85850Y371850D01*
X83350Y369350D01*
X65850Y361850D02*
X70850Y361850D01*
X73350Y364350D01*
X73350Y369350D01*
X70850Y371850D01*
X73350Y364350D02*
X75850Y361850D01*
X80850Y361850D01*
X83350Y364350D01*
X83350Y369350D01*
X80850Y371850D01*
X75850Y371850D01*
X73350Y369350D01*
X53350Y364350D02*
X55850Y361850D01*
X60850Y361850D01*
X63350Y364350D01*
X63350Y369350D01*
X60850Y371850D01*
X55850Y371850D01*
X53350Y369350D01*
X65850Y361850D02*
X63350Y364350D01*
X63350Y369350D02*
X65850Y371850D01*
X70850Y371850D02*
X65850Y371850D01*
X35850Y361850D02*
X40850Y361850D01*
X43350Y364350D01*
X43350Y369350D01*
X40850Y371850D01*
X43350Y364350D02*
X45850Y361850D01*
X50850Y361850D01*
X53350Y364350D01*
X53350Y369350D01*
X50850Y371850D01*
X45850Y371850D01*
X43350Y369350D01*
X23350Y364350D02*
X25850Y361850D01*
X30850Y361850D01*
X33350Y364350D01*
X33350Y369350D01*
X30850Y371850D01*
X25850Y371850D01*
X23350Y369350D01*
X35850Y361850D02*
X33350Y364350D01*
X33350Y369350D02*
X35850Y371850D01*
X40850Y371850D02*
X35850Y371850D01*
X5850Y361850D02*
X10850Y361850D01*
X13350Y364350D01*
X13350Y369350D01*
X10850Y371850D01*
X13350Y364350D02*
X15850Y361850D01*
X20850Y361850D01*
X23350Y364350D01*
X23350Y369350D01*
X20850Y371850D01*
X15850Y371850D01*
X13350Y369350D01*
X3350Y364350D02*
X3350Y371850D01*
X5850Y361850D02*
X3350Y364350D01*
X10850Y371850D02*
X3350Y371850D01*
X95850Y361850D02*
X100850Y361850D01*
X103350Y364350D01*
X103350Y369350D01*
X100850Y371850D01*
X95850Y361850D02*
X93350Y364350D01*
X93350Y369350D02*
X95850Y371850D01*
X100850Y371850D02*
X95850Y371850D01*
X299350Y369350D02*
X299350Y364350D01*
X301850Y361850D01*
X306850Y361850D02*
X309350Y364350D01*
X301850Y371850D02*
X309350Y371850D01*
X299350Y369350D02*
X301850Y371850D01*
X309350Y364350D02*
X309350Y371850D01*
X299350Y219350D02*
X299350Y214350D01*
X301850Y211850D01*
X306850Y211850D01*
X309350Y214350D01*
X301850Y211850D02*
X299350Y209350D01*
X299350Y204350D01*
X301850Y201850D01*
X306850Y201850D01*
X309350Y204350D01*
X309350Y209350D01*
X306850Y211850D01*
X301850Y231850D02*
X299350Y229350D01*
X299350Y224350D01*
X301850Y221850D01*
X306850Y221850D01*
X309350Y224350D01*
X309350Y229350D01*
X306850Y231850D01*
X299350Y219350D02*
X301850Y221850D01*
X306850Y221850D02*
X309350Y219350D01*
X309350Y214350D02*
X309350Y219350D01*
X299350Y249350D02*
X299350Y244350D01*
X301850Y241850D01*
X306850Y241850D01*
X309350Y244350D01*
X301850Y241850D02*
X299350Y239350D01*
X299350Y234350D01*
X301850Y231850D01*
X306850Y231850D01*
X309350Y234350D01*
X309350Y239350D01*
X306850Y241850D01*
X301850Y261850D02*
X299350Y259350D01*
X299350Y254350D01*
X301850Y251850D01*
X306850Y251850D01*
X309350Y254350D01*
X309350Y259350D01*
X306850Y261850D01*
X299350Y249350D02*
X301850Y251850D01*
X306850Y251850D02*
X309350Y249350D01*
X309350Y244350D02*
X309350Y249350D01*
X299350Y279350D02*
X299350Y274350D01*
X301850Y271850D01*
X306850Y271850D01*
X309350Y274350D01*
X301850Y271850D02*
X299350Y269350D01*
X299350Y264350D01*
X301850Y261850D01*
X306850Y261850D01*
X309350Y264350D01*
X309350Y269350D01*
X306850Y271850D01*
X301850Y291850D02*
X299350Y289350D01*
X299350Y284350D01*
X301850Y281850D01*
X306850Y281850D01*
X309350Y284350D01*
X309350Y289350D01*
X306850Y291850D01*
X299350Y279350D02*
X301850Y281850D01*
X306850Y281850D02*
X309350Y279350D01*
X309350Y274350D02*
X309350Y279350D01*
X299350Y309350D02*
X299350Y304350D01*
X301850Y301850D01*
X306850Y301850D01*
X309350Y304350D01*
X301850Y301850D02*
X299350Y299350D01*
X299350Y294350D01*
X301850Y291850D01*
X306850Y291850D01*
X309350Y294350D01*
X309350Y299350D01*
X306850Y301850D01*
X301850Y321850D02*
X299350Y319350D01*
X299350Y314350D01*
X301850Y311850D01*
X306850Y311850D01*
X309350Y314350D01*
X309350Y319350D01*
X306850Y321850D01*
X299350Y309350D02*
X301850Y311850D01*
X306850Y311850D02*
X309350Y309350D01*
X309350Y304350D02*
X309350Y309350D01*
X299350Y339350D02*
X299350Y334350D01*
X301850Y331850D01*
X306850Y331850D01*
X309350Y334350D01*
X301850Y331850D02*
X299350Y329350D01*
X299350Y324350D01*
X301850Y321850D01*
X306850Y321850D01*
X309350Y324350D01*
X309350Y329350D01*
X306850Y331850D01*
X301850Y351850D02*
X299350Y349350D01*
X299350Y344350D01*
X301850Y341850D01*
X306850Y341850D01*
X309350Y344350D01*
X309350Y349350D01*
X306850Y351850D01*
X299350Y339350D02*
X301850Y341850D01*
X306850Y341850D02*
X309350Y339350D01*
X309350Y334350D02*
X309350Y339350D01*
X301850Y361850D02*
X306850Y361850D01*
X301850Y361850D02*
X299350Y359350D01*
X299350Y354350D01*
X301850Y351850D01*
X306850Y351850D01*
X309350Y354350D01*
X309350Y359350D01*
X306850Y361850D01*
X301850Y201850D02*
X299350Y199350D01*
X299350Y194350D01*
X301850Y191850D01*
X306850Y191850D01*
X309350Y194350D01*
X309350Y199350D01*
X306850Y201850D01*
X309350Y369350D02*
X309350Y364350D01*
X311850Y361850D01*
X316850Y361850D02*
X319350Y364350D01*
X311850Y371850D02*
X319350Y371850D01*
X309350Y369350D02*
X311850Y371850D01*
X319350Y364350D02*
X319350Y371850D01*
X309350Y219350D02*
X309350Y214350D01*
X311850Y211850D01*
X316850Y211850D01*
X319350Y214350D01*
X311850Y211850D02*
X309350Y209350D01*
X309350Y204350D01*
X311850Y201850D01*
X316850Y201850D01*
X319350Y204350D01*
X319350Y209350D01*
X316850Y211850D01*
X311850Y231850D02*
X309350Y229350D01*
X309350Y224350D01*
X311850Y221850D01*
X316850Y221850D01*
X319350Y224350D01*
X319350Y229350D01*
X316850Y231850D01*
X309350Y219350D02*
X311850Y221850D01*
X316850Y221850D02*
X319350Y219350D01*
X319350Y214350D02*
X319350Y219350D01*
X309350Y249350D02*
X309350Y244350D01*
X311850Y241850D01*
X316850Y241850D01*
X319350Y244350D01*
X311850Y241850D02*
X309350Y239350D01*
X309350Y234350D01*
X311850Y231850D01*
X316850Y231850D01*
X319350Y234350D01*
X319350Y239350D01*
X316850Y241850D01*
X311850Y261850D02*
X309350Y259350D01*
X309350Y254350D01*
X311850Y251850D01*
X316850Y251850D01*
X319350Y254350D01*
X319350Y259350D01*
X316850Y261850D01*
X309350Y249350D02*
X311850Y251850D01*
X316850Y251850D02*
X319350Y249350D01*
X319350Y244350D02*
X319350Y249350D01*
X309350Y279350D02*
X309350Y274350D01*
X311850Y271850D01*
X316850Y271850D01*
X319350Y274350D01*
X311850Y271850D02*
X309350Y269350D01*
X309350Y264350D01*
X311850Y261850D01*
X316850Y261850D01*
X319350Y264350D01*
X319350Y269350D01*
X316850Y271850D01*
X311850Y291850D02*
X309350Y289350D01*
X309350Y284350D01*
X311850Y281850D01*
X316850Y281850D01*
X319350Y284350D01*
X319350Y289350D01*
X316850Y291850D01*
X309350Y279350D02*
X311850Y281850D01*
X316850Y281850D02*
X319350Y279350D01*
X319350Y274350D02*
X319350Y279350D01*
X309350Y309350D02*
X309350Y304350D01*
X311850Y301850D01*
X316850Y301850D01*
X319350Y304350D01*
X311850Y301850D02*
X309350Y299350D01*
X309350Y294350D01*
X311850Y291850D01*
X316850Y291850D01*
X319350Y294350D01*
X319350Y299350D01*
X316850Y301850D01*
X311850Y321850D02*
X309350Y319350D01*
X309350Y314350D01*
X311850Y311850D01*
X316850Y311850D01*
X319350Y314350D01*
X319350Y319350D01*
X316850Y321850D01*
X309350Y309350D02*
X311850Y311850D01*
X316850Y311850D02*
X319350Y309350D01*
X319350Y304350D02*
X319350Y309350D01*
X309350Y339350D02*
X309350Y334350D01*
X311850Y331850D01*
X316850Y331850D01*
X319350Y334350D01*
X311850Y331850D02*
X309350Y329350D01*
X309350Y324350D01*
X311850Y321850D01*
X316850Y321850D01*
X319350Y324350D01*
X319350Y329350D01*
X316850Y331850D01*
X311850Y351850D02*
X309350Y349350D01*
X309350Y344350D01*
X311850Y341850D01*
X316850Y341850D01*
X319350Y344350D01*
X319350Y349350D01*
X316850Y351850D01*
X309350Y339350D02*
X311850Y341850D01*
X316850Y341850D02*
X319350Y339350D01*
X319350Y334350D02*
X319350Y339350D01*
X311850Y361850D02*
X316850Y361850D01*
X311850Y361850D02*
X309350Y359350D01*
X309350Y354350D01*
X311850Y351850D01*
X316850Y351850D01*
X319350Y354350D01*
X319350Y359350D01*
X316850Y361850D01*
X311850Y201850D02*
X309350Y199350D01*
X309350Y194350D01*
X311850Y191850D01*
X316850Y191850D01*
X319350Y194350D01*
X319350Y199350D01*
X316850Y201850D01*
X41850Y171850D02*
X46850Y171850D01*
X49350Y174350D01*
X49350Y179350D02*
X46850Y181850D01*
X39350Y174350D02*
X39350Y181850D01*
X41850Y171850D02*
X39350Y174350D01*
X46850Y181850D02*
X39350Y181850D01*
X101850Y171850D02*
X106850Y171850D01*
X109350Y174350D01*
X109350Y179350D01*
X106850Y181850D01*
X89350Y174350D02*
X91850Y171850D01*
X96850Y171850D01*
X99350Y174350D01*
X99350Y179350D01*
X96850Y181850D01*
X91850Y181850D01*
X89350Y179350D01*
X101850Y171850D02*
X99350Y174350D01*
X99350Y179350D02*
X101850Y181850D01*
X106850Y181850D02*
X101850Y181850D01*
X71850Y171850D02*
X76850Y171850D01*
X79350Y174350D01*
X79350Y179350D01*
X76850Y181850D01*
X79350Y174350D02*
X81850Y171850D01*
X86850Y171850D01*
X89350Y174350D01*
X89350Y179350D01*
X86850Y181850D01*
X81850Y181850D01*
X79350Y179350D01*
X59350Y174350D02*
X61850Y171850D01*
X66850Y171850D01*
X69350Y174350D01*
X69350Y179350D01*
X66850Y181850D01*
X61850Y181850D01*
X59350Y179350D01*
X71850Y171850D02*
X69350Y174350D01*
X69350Y179350D02*
X71850Y181850D01*
X76850Y181850D02*
X71850Y181850D01*
X49350Y174350D02*
X49350Y179350D01*
X49350Y174350D02*
X51850Y171850D01*
X56850Y171850D01*
X59350Y174350D01*
X59350Y179350D01*
X56850Y181850D01*
X51850Y181850D01*
X49350Y179350D01*
X111850Y171850D02*
X116850Y171850D01*
X119350Y174350D01*
X119350Y179350D01*
X116850Y181850D01*
X111850Y171850D02*
X109350Y174350D01*
X109350Y179350D02*
X111850Y181850D01*
X116850Y181850D02*
X111850Y181850D01*
X131850Y171850D02*
X136850Y171850D01*
X139350Y174350D01*
X139350Y179350D02*
X136850Y181850D01*
X129350Y174350D02*
X129350Y181850D01*
X131850Y171850D02*
X129350Y174350D01*
X136850Y181850D02*
X129350Y181850D01*
X191850Y171850D02*
X196850Y171850D01*
X199350Y174350D01*
X199350Y179350D01*
X196850Y181850D01*
X179350Y174350D02*
X181850Y171850D01*
X186850Y171850D01*
X189350Y174350D01*
X189350Y179350D01*
X186850Y181850D01*
X181850Y181850D01*
X179350Y179350D01*
X191850Y171850D02*
X189350Y174350D01*
X189350Y179350D02*
X191850Y181850D01*
X196850Y181850D02*
X191850Y181850D01*
X161850Y171850D02*
X166850Y171850D01*
X169350Y174350D01*
X169350Y179350D01*
X166850Y181850D01*
X169350Y174350D02*
X171850Y171850D01*
X176850Y171850D01*
X179350Y174350D01*
X179350Y179350D01*
X176850Y181850D01*
X171850Y181850D01*
X169350Y179350D01*
X149350Y174350D02*
X151850Y171850D01*
X156850Y171850D01*
X159350Y174350D01*
X159350Y179350D01*
X156850Y181850D01*
X151850Y181850D01*
X149350Y179350D01*
X161850Y171850D02*
X159350Y174350D01*
X159350Y179350D02*
X161850Y181850D01*
X166850Y181850D02*
X161850Y181850D01*
X139350Y174350D02*
X139350Y179350D01*
X139350Y174350D02*
X141850Y171850D01*
X146850Y171850D01*
X149350Y174350D01*
X149350Y179350D01*
X146850Y181850D01*
X141850Y181850D01*
X139350Y179350D01*
X201850Y171850D02*
X206850Y171850D01*
X209350Y174350D01*
X209350Y179350D01*
X206850Y181850D01*
X201850Y171850D02*
X199350Y174350D01*
X199350Y179350D02*
X201850Y181850D01*
X206850Y181850D02*
X201850Y181850D01*
X221850Y171850D02*
X226850Y171850D01*
X229350Y174350D01*
X229350Y179350D02*
X226850Y181850D01*
X219350Y174350D02*
X219350Y181850D01*
X221850Y171850D02*
X219350Y174350D01*
X226850Y181850D02*
X219350Y181850D01*
X281850Y171850D02*
X286850Y171850D01*
X289350Y174350D01*
X289350Y179350D01*
X286850Y181850D01*
X269350Y174350D02*
X271850Y171850D01*
X276850Y171850D01*
X279350Y174350D01*
X279350Y179350D01*
X276850Y181850D01*
X271850Y181850D01*
X269350Y179350D01*
X281850Y171850D02*
X279350Y174350D01*
X279350Y179350D02*
X281850Y181850D01*
X286850Y181850D02*
X281850Y181850D01*
X251850Y171850D02*
X256850Y171850D01*
X259350Y174350D01*
X259350Y179350D01*
X256850Y181850D01*
X259350Y174350D02*
X261850Y171850D01*
X266850Y171850D01*
X269350Y174350D01*
X269350Y179350D01*
X266850Y181850D01*
X261850Y181850D01*
X259350Y179350D01*
X239350Y174350D02*
X241850Y171850D01*
X246850Y171850D01*
X249350Y174350D01*
X249350Y179350D01*
X246850Y181850D01*
X241850Y181850D01*
X239350Y179350D01*
X251850Y171850D02*
X249350Y174350D01*
X249350Y179350D02*
X251850Y181850D01*
X256850Y181850D02*
X251850Y181850D01*
X229350Y174350D02*
X229350Y179350D01*
X229350Y174350D02*
X231850Y171850D01*
X236850Y171850D01*
X239350Y174350D01*
X239350Y179350D01*
X236850Y181850D01*
X231850Y181850D01*
X229350Y179350D01*
X291850Y171850D02*
X296850Y171850D01*
X299350Y174350D01*
X299350Y179350D01*
X296850Y181850D01*
X291850Y171850D02*
X289350Y174350D01*
X289350Y179350D02*
X291850Y181850D01*
X296850Y181850D02*
X291850Y181850D01*
X201850Y361850D02*
X206850Y361850D01*
X209350Y364350D01*
X209350Y369350D02*
X206850Y371850D01*
X199350Y364350D02*
X199350Y371850D01*
X201850Y361850D02*
X199350Y364350D01*
X206850Y371850D02*
X199350Y371850D01*
X261850Y361850D02*
X266850Y361850D01*
X269350Y364350D01*
X269350Y369350D01*
X266850Y371850D01*
X249350Y364350D02*
X251850Y361850D01*
X256850Y361850D01*
X259350Y364350D01*
X259350Y369350D01*
X256850Y371850D01*
X251850Y371850D01*
X249350Y369350D01*
X261850Y361850D02*
X259350Y364350D01*
X259350Y369350D02*
X261850Y371850D01*
X266850Y371850D02*
X261850Y371850D01*
X231850Y361850D02*
X236850Y361850D01*
X239350Y364350D01*
X239350Y369350D01*
X236850Y371850D01*
X239350Y364350D02*
X241850Y361850D01*
X246850Y361850D01*
X249350Y364350D01*
X249350Y369350D01*
X246850Y371850D01*
X241850Y371850D01*
X239350Y369350D01*
X219350Y364350D02*
X221850Y361850D01*
X226850Y361850D01*
X229350Y364350D01*
X229350Y369350D01*
X226850Y371850D01*
X221850Y371850D01*
X219350Y369350D01*
X231850Y361850D02*
X229350Y364350D01*
X229350Y369350D02*
X231850Y371850D01*
X236850Y371850D02*
X231850Y371850D01*
X209350Y364350D02*
X209350Y369350D01*
X209350Y364350D02*
X211850Y361850D01*
X216850Y361850D01*
X219350Y364350D01*
X219350Y369350D01*
X216850Y371850D01*
X211850Y371850D01*
X209350Y369350D01*
X271850Y361850D02*
X276850Y361850D01*
X279350Y364350D01*
X279350Y369350D01*
X276850Y371850D01*
X271850Y361850D02*
X269350Y364350D01*
X269350Y369350D02*
X271850Y371850D01*
X276850Y371850D02*
X271850Y371850D01*
X111850Y361850D02*
X116850Y361850D01*
X119350Y364350D01*
X119350Y369350D02*
X116850Y371850D01*
X109350Y364350D02*
X109350Y371850D01*
X111850Y361850D02*
X109350Y364350D01*
X116850Y371850D02*
X109350Y371850D01*
X171850Y361850D02*
X176850Y361850D01*
X179350Y364350D01*
X179350Y369350D01*
X176850Y371850D01*
X159350Y364350D02*
X161850Y361850D01*
X166850Y361850D01*
X169350Y364350D01*
X169350Y369350D01*
X166850Y371850D01*
X161850Y371850D01*
X159350Y369350D01*
X171850Y361850D02*
X169350Y364350D01*
X169350Y369350D02*
X171850Y371850D01*
X176850Y371850D02*
X171850Y371850D01*
X141850Y361850D02*
X146850Y361850D01*
X149350Y364350D01*
X149350Y369350D01*
X146850Y371850D01*
X149350Y364350D02*
X151850Y361850D01*
X156850Y361850D01*
X159350Y364350D01*
X159350Y369350D01*
X156850Y371850D01*
X151850Y371850D01*
X149350Y369350D01*
X129350Y364350D02*
X131850Y361850D01*
X136850Y361850D01*
X139350Y364350D01*
X139350Y369350D01*
X136850Y371850D01*
X131850Y371850D01*
X129350Y369350D01*
X141850Y361850D02*
X139350Y364350D01*
X139350Y369350D02*
X141850Y371850D01*
X146850Y371850D02*
X141850Y371850D01*
X119350Y364350D02*
X119350Y369350D01*
X119350Y364350D02*
X121850Y361850D01*
X126850Y361850D01*
X129350Y364350D01*
X129350Y369350D01*
X126850Y371850D01*
X121850Y371850D01*
X119350Y369350D01*
X181850Y361850D02*
X186850Y361850D01*
X189350Y364350D01*
X189350Y369350D01*
X186850Y371850D01*
X181850Y361850D02*
X179350Y364350D01*
X179350Y369350D02*
X181850Y371850D01*
X186850Y371850D02*
X181850Y371850D01*
X219300Y338600D02*
X219300Y322600D01*
X226900Y322600D01*
X226900Y338600D01*
X219300Y338600D02*
X226900Y338600D01*
X365974Y354350D02*
X365832Y355840D01*
X365410Y357276D01*
X364724Y358607D01*
X363799Y359784D01*
X362667Y360764D01*
X361371Y361512D01*
X359956Y362002D01*
X358475Y362215D01*
X356979Y362144D01*
X355525Y361791D01*
X354163Y361169D01*
X352944Y360301D01*
X351911Y359217D01*
X351101Y357958D01*
X350545Y356568D01*
X350262Y355098D01*
X350262Y353601D01*
X350545Y352132D01*
X351101Y350742D01*
X351911Y349482D01*
X352944Y348399D01*
X354163Y347531D01*
X355525Y346909D01*
X356979Y346556D01*
X358475Y346485D01*
X359956Y346698D01*
X361371Y347187D01*
X362667Y347936D01*
X363799Y348916D01*
X364724Y350093D01*
X365410Y351423D01*
X365832Y352860D01*
X365974Y354350D01*
X379696Y352768D02*
X379732Y355309D01*
X379471Y357836D01*
X378915Y360316D01*
X378073Y362714D01*
X376956Y364996D01*
X375579Y367132D01*
X373961Y369091D01*
X372125Y370848D01*
X370095Y372377D01*
X367901Y373659D01*
X365571Y374674D01*
X363139Y375409D01*
X360637Y375854D01*
X358100Y376003D01*
X355563Y375854D01*
X353061Y375409D01*
X350629Y374674D01*
X348299Y373659D01*
X346105Y372377D01*
X344075Y370848D01*
X342239Y369091D01*
X340621Y367132D01*
X339244Y364996D01*
X338127Y362714D01*
X337285Y360316D01*
X336729Y357836D01*
X336468Y355309D01*
X336504Y352768D01*
X379753Y332696D02*
X336446Y332696D01*
X379753Y354350D02*
X379753Y332696D01*
X336446Y354350D02*
X336446Y332696D01*
X199300Y338600D02*
X199300Y322600D01*
X206900Y322600D01*
X206900Y338600D01*
X199300Y338600D02*
X206900Y338600D01*
X341900Y301350D02*
X341900Y317350D01*
X334300Y317350D01*
X334300Y301350D01*
X341900Y301350D02*
X334300Y301350D01*
X355650Y301350D02*
X355650Y317350D01*
X348050Y317350D01*
X348050Y301350D01*
X355650Y301350D02*
X348050Y301350D01*
X369400Y301350D02*
X369400Y317350D01*
X361800Y317350D01*
X361800Y301350D01*
X369400Y301350D02*
X361800Y301350D01*
X383150Y301350D02*
X383150Y317350D01*
X375550Y317350D01*
X375550Y301350D01*
X383150Y301350D02*
X375550Y301350D01*
X380550Y262350D02*
X380550Y246350D01*
X388150Y246350D01*
X388150Y262350D01*
X380550Y262350D02*
X388150Y262350D01*
X154596Y77372D02*
X91604Y77372D01*
X91604Y162017D01*
X154596Y162017D01*
X154596Y77372D01*
X84596Y77372D02*
X21604Y77372D01*
X21604Y162017D01*
X84596Y162017D01*
X84596Y77372D01*
X96850Y245600D02*
X97622Y245722D01*
X98319Y246077D01*
X98872Y246630D01*
X99228Y247327D01*
X99350Y248100D01*
X99228Y248872D01*
X98872Y249569D01*
X98319Y250122D01*
X97622Y250478D01*
X96850Y250600D01*
X96850Y258100D02*
X96850Y238100D01*
X96850Y258100D02*
X176850Y258100D01*
X176850Y238100D01*
X96850Y238100D01*
X164850Y280650D02*
X148850Y280650D01*
X148850Y273050D01*
X164850Y273050D01*
X164850Y280650D02*
X164850Y273050D01*
X176100Y225650D02*
X160100Y225650D01*
X160100Y218050D01*
X176100Y218050D01*
X176100Y225650D02*
X176100Y218050D01*
X114850Y280650D02*
X98850Y280650D01*
X98850Y273050D01*
X114850Y273050D01*
X114850Y280650D02*
X114850Y273050D01*
X78287Y389087D02*
X62287Y389087D01*
X62287Y381487D01*
X78287Y381487D01*
X78287Y389087D02*
X78287Y381487D01*
X43100Y192787D02*
X43100Y197787D01*
X40600Y200287D01*
X35600Y200287D01*
X33100Y197787D01*
X40600Y190287D02*
X33100Y190287D01*
X43100Y192787D02*
X40600Y190287D01*
X33100Y197787D02*
X33100Y190287D01*
X40600Y200287D02*
X43100Y202787D01*
X43100Y207787D01*
X40600Y210287D01*
X35600Y210287D01*
X33100Y207787D01*
X33100Y202787D01*
X35600Y200287D01*
X106850Y300600D02*
X107622Y300722D01*
X108319Y301077D01*
X108872Y301630D01*
X109228Y302327D01*
X109350Y303100D01*
X109228Y303872D01*
X108872Y304569D01*
X108319Y305122D01*
X107622Y305478D01*
X106850Y305600D01*
X106850Y313100D02*
X106850Y293100D01*
X176850Y313100D02*
X106850Y313100D01*
X176850Y313100D02*
X176850Y293100D01*
X106850Y293100D01*
X39104Y215600D02*
X39104Y255600D01*
X67096Y255600D01*
X67096Y215600D01*
X39104Y215600D01*
X39104Y276850D02*
X39104Y316850D01*
X67096Y316850D01*
X67096Y276850D01*
X39104Y276850D01*
X33050Y49850D02*
X33050Y33850D01*
X40650Y33850D01*
X40650Y49850D01*
X33050Y49850D02*
X40650Y49850D01*
X21175Y49850D02*
X21175Y33850D01*
X28775Y33850D01*
X28775Y49850D01*
X21175Y49850D02*
X28775Y49850D01*
X9300Y49850D02*
X9300Y33850D01*
X16900Y33850D01*
X16900Y49850D01*
X9300Y49850D02*
X16900Y49850D01*
X299222Y129350D02*
X299073Y131995D01*
X298630Y134606D01*
X297896Y137152D01*
X296883Y139599D01*
X295601Y141918D01*
X294068Y144078D01*
X292303Y146053D01*
X290328Y147818D01*
X288168Y149351D01*
X285849Y150633D01*
X283402Y151646D01*
X280856Y152380D01*
X278245Y152823D01*
X275600Y152972D01*
X272955Y152823D01*
X270343Y152380D01*
X267798Y151646D01*
X265351Y150633D01*
X263032Y149351D01*
X260872Y147818D01*
X258897Y146053D01*
X257131Y144078D01*
X255599Y141918D01*
X254317Y139599D01*
X253303Y137152D01*
X252570Y134606D01*
X252126Y131995D01*
X251978Y129350D01*
X252126Y126705D01*
X252570Y124093D01*
X253303Y121548D01*
X254317Y119101D01*
X255599Y116782D01*
X257131Y114622D01*
X258897Y112647D01*
X260872Y110881D01*
X263032Y109349D01*
X265351Y108067D01*
X267798Y107053D01*
X270344Y106320D01*
X272955Y105876D01*
X275600Y105728D01*
X278245Y105876D01*
X280856Y106320D01*
X283402Y107053D01*
X285849Y108067D01*
X288168Y109349D01*
X290328Y110881D01*
X292303Y112647D01*
X294068Y114622D01*
X295601Y116782D01*
X296883Y119101D01*
X297896Y121548D01*
X298630Y124094D01*
X299073Y126705D01*
X299222Y129350D01*
X311481Y119630D02*
X305969Y119630D01*
X305969Y107819D01*
X311481Y107819D01*
X311481Y119630D01*
X308675Y144850D02*
X308675Y128850D01*
X316275Y128850D01*
X316275Y144850D01*
X308675Y144850D02*
X316275Y144850D01*
X192525Y262600D02*
X192525Y278600D01*
X184925Y278600D01*
X184925Y262600D01*
X192525Y262600D02*
X184925Y262600D01*
X213050Y293600D02*
X213050Y277600D01*
X220650Y277600D01*
X220650Y293600D01*
X213050Y293600D02*
X220650Y293600D01*
X199300Y278600D02*
X199300Y262600D01*
X206900Y262600D01*
X206900Y278600D01*
X199300Y278600D02*
X206900Y278600D01*
X228675Y278600D02*
X228675Y262600D01*
X236275Y262600D01*
X236275Y278600D01*
X228675Y278600D02*
X236275Y278600D01*
X106225Y219975D02*
X88725Y219975D01*
X106225Y219975D02*
X106225Y212475D01*
X103725Y209975D01*
X106225Y207475D01*
X106225Y202475D02*
X103725Y199975D01*
X88725Y219975D02*
X86225Y217475D01*
X86225Y212475D01*
X88725Y209975D01*
X86225Y207475D01*
X86225Y202475D01*
X88725Y199975D01*
X88725Y209975D02*
X103725Y209975D01*
X88725Y199975D02*
X103725Y199975D01*
X106225Y207475D02*
X106225Y202475D01*
X103725Y199975D02*
X106225Y197475D01*
X106225Y192475D02*
X103725Y189975D01*
X88725Y199975D02*
X86225Y197475D01*
X86225Y192475D01*
X88725Y189975D01*
X103725Y189975D01*
X106225Y197475D02*
X106225Y192475D01*
X225221Y77372D02*
X162229Y77372D01*
X162229Y162017D01*
X225221Y162017D01*
X225221Y77372D01*
X196275Y213850D02*
X196275Y229850D01*
X188675Y229850D01*
X188675Y213850D01*
X196275Y213850D02*
X188675Y213850D01*
X206900Y213850D02*
X206900Y229850D01*
X199300Y229850D01*
X199300Y213850D01*
X206900Y213850D02*
X199300Y213850D01*
X217525Y213850D02*
X217525Y229850D01*
X209925Y229850D01*
X209925Y213850D01*
X217525Y213850D02*
X209925Y213850D01*
X115600Y188725D02*
X115600Y220600D01*
X133725Y188725D02*
X115600Y188725D01*
X133725Y188725D02*
X133725Y220600D01*
X115600Y220600D01*
X118100Y191850D02*
X118100Y207475D01*
X123100Y191850D02*
X118100Y191850D01*
X123100Y191850D02*
X123100Y207475D01*
X118100Y207475D01*
X126225Y191850D02*
X126225Y207475D01*
X131225Y191850D02*
X126225Y191850D01*
X131225Y191850D02*
X131225Y207475D01*
X126225Y207475D01*
X49350Y192475D02*
X49350Y208100D01*
X54350Y192475D02*
X49350Y192475D01*
X54350Y192475D02*
X54350Y208100D01*
X49350Y208100D01*
X46850Y211225D02*
X46850Y189350D01*
X56850Y189350D01*
X56850Y211225D01*
X46850Y211225D01*
G54D13*
X281850Y147165D02*
X287165Y147165D01*
X284448Y149881D02*
X284448Y144448D01*
G54D17*
X120600Y215600D03*
X128725Y215600D03*
X120600Y204975D03*
X128725Y204975D03*
X120600Y194350D03*
X128725Y194350D03*
X51850Y205600D03*
X51850Y194975D03*
G54D18*
X101850Y253100D03*
X111850Y308100D03*
M02*
