%FSLAX35Y35*%
%MOIN*%
%IN4=Loetstoppmaskeunten(X.GBS)*%
%ADD10C,0.00591*%
%ADD11C,0.00768*%
%ADD12C,0.01181*%
%ADD13C,0.01535*%
%ADD14C,0.01575*%
%ADD15C,0.01969*%
%ADD16C,0.02362*%
%ADD17C,0.02559*%
%ADD18C,0.02795*%
%ADD19C,0.03937*%
%AMR_20*21,1,0.01181,0.01181,0,0,0.000*%
%ADD20R_20*%
%AMR_21*21,1,0.01250,0.01250,0,0,0.000*%
%ADD21R_21*%
%AMR_22*21,1,0.01280,0.01280,0,0,0.000*%
%ADD22R_22*%
%AMR_23*21,1,0.01575,0.01575,0,0,0.000*%
%ADD23R_23*%
%AMR_24*21,1,0.01772,0.01772,0,0,0.000*%
%ADD24R_24*%
%AMR_25*21,1,0.01969,0.01969,0,0,0.000*%
%ADD25R_25*%
%AMR_26*21,1,0.02461,0.02461,0,0,0.000*%
%ADD26R_26*%
%AMR_27*21,1,0.04587,0.05433,0,0,90.000*%
%ADD27R_27*%
%AMR_28*21,1,0.05000,0.05000,0,0,0.000*%
%ADD28R_28*%
%AMR_29*21,1,0.05000,0.05000,0,0,90.000*%
%ADD29R_29*%
%AMR_30*21,1,0.05000,0.05000,0,0,180.000*%
%ADD30R_30*%
%AMR_31*21,1,0.05000,0.05000,0,0,270.000*%
%ADD31R_31*%
%AMR_32*21,1,0.05000,0.09843,0,0,0.000*%
%ADD32R_32*%
%AMR_33*21,1,0.05000,0.10000,0,0,90.000*%
%ADD33R_33*%
%AMR_34*21,1,0.05118,0.06102,0,0,0.000*%
%ADD34R_34*%
%AMR_35*21,1,0.05118,0.06102,0,0,90.000*%
%ADD35R_35*%
%AMR_36*21,1,0.19685,0.19685,0,0,0.000*%
%ADD36R_36*%
%AMOCT_37*4,1,8,0.023622,0.011811,0.011811,0.023622,-0.011811,0.023622,-0.023622,0.011811,-0.023622,-0.011811,-0.011811,-0.023622,0.011811,-0.023622,0.023622,-0.011811,0.023622,0.011811,0.000*%
%ADD37OCT_37*%
%AMOCT_38*4,1,8,0.031496,0.015748,0.015748,0.031496,-0.015748,0.031496,-0.031496,0.015748,-0.031496,-0.015748,-0.015748,-0.031496,0.015748,-0.031496,0.031496,-0.015748,0.031496,0.015748,-0.000*%
%ADD38OCT_38*%
%AMOCT_39*4,1,8,0.031496,0.015748,0.015748,0.031496,-0.015748,0.031496,-0.031496,0.015748,-0.031496,-0.015748,-0.015748,-0.031496,0.015748,-0.031496,0.031496,-0.015748,0.031496,0.015748,90.000*%
%ADD39OCT_39*%
%AMOCT_40*4,1,8,0.031496,0.015748,0.015748,0.031496,-0.015748,0.031496,-0.031496,0.015748,-0.031496,-0.015748,-0.015748,-0.031496,0.015748,-0.031496,0.031496,-0.015748,0.031496,0.015748,180.000*%
%ADD40OCT_40*%
%AMOCT_41*4,1,8,0.031496,0.015748,0.015748,0.031496,-0.015748,0.031496,-0.031496,0.015748,-0.031496,-0.015748,-0.015748,-0.031496,0.015748,-0.031496,0.031496,-0.015748,0.031496,0.015748,270.000*%
%ADD41OCT_41*%
%AMOCT_42*4,1,8,0.035433,0.017717,0.017717,0.035433,-0.017717,0.035433,-0.035433,0.017717,-0.035433,-0.017717,-0.017717,-0.035433,0.017717,-0.035433,0.035433,-0.017717,0.035433,0.017717,180.000*%
%ADD42OCT_42*%
%AMOCT_43*4,1,8,0.035433,0.017717,0.017717,0.035433,-0.017717,0.035433,-0.035433,0.017717,-0.035433,-0.017717,-0.017717,-0.035433,0.017717,-0.035433,0.035433,-0.017717,0.035433,0.017717,270.000*%
%ADD43OCT_43*%
%AMOCT_44*4,1,8,0.039370,0.019685,0.019685,0.039370,-0.019685,0.039370,-0.039370,0.019685,-0.039370,-0.019685,-0.019685,-0.039370,0.019685,-0.039370,0.039370,-0.019685,0.039370,0.019685,0.000*%
%ADD44OCT_44*%
%AMOCT_45*4,1,8,0.039370,0.019685,0.019685,0.039370,-0.019685,0.039370,-0.039370,0.019685,-0.039370,-0.019685,-0.019685,-0.039370,0.019685,-0.039370,0.039370,-0.019685,0.039370,0.019685,270.000*%
%ADD45OCT_45*%
%AMOCT_46*4,1,8,0.049213,0.024606,0.024606,0.049213,-0.024606,0.049213,-0.049213,0.024606,-0.049213,-0.024606,-0.024606,-0.049213,0.024606,-0.049213,0.049213,-0.024606,0.049213,0.024606,180.000*%
%ADD46OCT_46*%
%AMOCT_47*4,1,8,0.062992,0.031496,0.031496,0.062992,-0.031496,0.062992,-0.062992,0.031496,-0.062992,-0.031496,-0.031496,-0.062992,0.031496,-0.062992,0.062992,-0.031496,0.062992,0.031496,180.000*%
%ADD47OCT_47*%
%AMOCT_48*4,1,8,0.078740,0.039370,0.039370,0.078740,-0.039370,0.078740,-0.078740,0.039370,-0.078740,-0.039370,-0.039370,-0.078740,0.039370,-0.078740,0.078740,-0.039370,0.078740,0.039370,0.000*%
%ADD48OCT_48*%
%AMOCT_49*4,1,8,0.078740,0.039370,0.039370,0.078740,-0.039370,0.078740,-0.078740,0.039370,-0.078740,-0.039370,-0.039370,-0.078740,0.039370,-0.078740,0.078740,-0.039370,0.078740,0.039370,180.000*%
%ADD49OCT_49*%
%AMOCT_50*4,1,8,0.090551,0.045276,0.045276,0.090551,-0.045276,0.090551,-0.090551,0.045276,-0.090551,-0.045276,-0.045276,-0.090551,0.045276,-0.090551,0.090551,-0.045276,0.090551,0.045276,0.000*%
%ADD50OCT_50*%
%AMO_51*20,1,0.03937,-0.00787,0.00000,0.00787,0.00000,0*1,1,0.03937,-0.00787,0.00000*1,1,0.03937,0.00787,0.00000*%
%ADD51O_51*%
%AMO_52*20,1,0.05000,0.00000,-0.02421,0.00000,0.02421,0*1,1,0.05000,0.00000,-0.02421*1,1,0.05000,0.00000,0.02421*%
%ADD52O_52*%
%AMO_53*20,1,0.05000,0.02500,0.00000,-0.02500,0.00000,0*1,1,0.05000,0.02500,0.00000*1,1,0.05000,-0.02500,0.00000*%
%ADD53O_53*%
%AMRR_54*21,1,0.06299,0.05039,0,0,-0.000*21,1,0.05039,0.06299,0,0,-0.000*1,1,0.01260,0.02520,0.02520*1,1,0.01260,-0.02520,-0.02520*1,1,0.01260,0.02520,-0.02520*1,1,0.01260,-0.02520,0.02520*%
%ADD54RR_54*%
%AMRR_55*21,1,0.06299,0.05039,0,0,90.000*21,1,0.05039,0.06299,0,0,90.000*1,1,0.01260,-0.02520,0.02520*1,1,0.01260,0.02520,-0.02520*1,1,0.01260,0.02520,0.02520*1,1,0.01260,-0.02520,-0.02520*%
%ADD55RR_55*%
%AMRR_56*21,1,0.06299,0.05039,0,0,180.000*21,1,0.05039,0.06299,0,0,180.000*1,1,0.01260,-0.02520,-0.02520*1,1,0.01260,0.02520,0.02520*1,1,0.01260,-0.02520,0.02520*1,1,0.01260,0.02520,-0.02520*%
%ADD56RR_56*%
%AMRR_57*21,1,0.06299,0.05039,0,0,270.000*21,1,0.05039,0.06299,0,0,270.000*1,1,0.01260,0.02520,-0.02520*1,1,0.01260,-0.02520,0.02520*1,1,0.01260,-0.02520,-0.02520*1,1,0.01260,0.02520,0.02520*%
%ADD57RR_57*%
G54D19*
X349242Y107549D03*
X329950Y98651D03*
X354242Y51299D03*
X351742Y63090D03*
X56299Y92401D03*
X220590Y266225D03*
X213100Y266225D03*
X7450Y46050D03*
X19109Y56397D03*
X30088Y51397D03*
G54D29*
X338100Y313550D03*
X338100Y305150D03*
X351850Y313550D03*
X351850Y305150D03*
X365600Y313550D03*
X365600Y305150D03*
X379350Y313550D03*
X379350Y305150D03*
X188725Y274800D03*
X188725Y266400D03*
X192475Y226050D03*
X192475Y217650D03*
X203100Y226050D03*
X203100Y217650D03*
X213725Y226050D03*
X213725Y217650D03*
G54D30*
X152650Y276850D03*
X161050Y276850D03*
X163900Y221850D03*
X172300Y221850D03*
X102650Y276850D03*
X111050Y276850D03*
G54D31*
X223100Y326400D03*
X223100Y334800D03*
X203100Y326400D03*
X203100Y334800D03*
X384350Y250150D03*
X384350Y258550D03*
X36850Y37650D03*
X36850Y46050D03*
X24975Y37650D03*
X24975Y46050D03*
X13100Y37650D03*
X13100Y46050D03*
X312475Y132650D03*
X312475Y141050D03*
X216850Y281400D03*
X216850Y289800D03*
X203100Y266400D03*
X203100Y274800D03*
X232475Y266400D03*
X232475Y274800D03*
G54D32*
X101850Y263100D03*
X111850Y318100D03*
G54D33*
X38100Y220600D03*
X38100Y281850D03*
G54D37*
X196850Y340600D03*
X247650Y281850D03*
X71850Y321850D03*
X10600Y311850D03*
X18725Y266850D03*
X261850Y332475D03*
X261537Y314975D03*
X4350Y245600D03*
X16850Y190600D03*
X45600Y111850D03*
X42475Y195287D03*
X28100Y334037D03*
X284350Y236225D03*
X323100Y301850D03*
X323100Y276225D03*
X239350Y161225D03*
X187475Y303725D03*
X211225Y306850D03*
X252475Y314975D03*
X204975Y189350D03*
X199350Y197475D03*
X189350Y203100D03*
X224975Y246225D03*
X181225Y310600D03*
X204350Y313100D03*
X243725Y314975D03*
X64350Y261850D03*
X53100Y267475D03*
G54D38*
X18350Y366850D03*
X28350Y366850D03*
X38350Y366850D03*
X48350Y366850D03*
X58350Y366850D03*
X68350Y366850D03*
X78350Y366850D03*
X88350Y366850D03*
X98350Y366850D03*
X54350Y176850D03*
X64350Y176850D03*
X74350Y176850D03*
X84350Y176850D03*
X94350Y176850D03*
X104350Y176850D03*
X114350Y176850D03*
X144350Y176850D03*
X154350Y176850D03*
X164350Y176850D03*
X174350Y176850D03*
X184350Y176850D03*
X194350Y176850D03*
X204350Y176850D03*
X234350Y176850D03*
X244350Y176850D03*
X254350Y176850D03*
X264350Y176850D03*
X274350Y176850D03*
X284350Y176850D03*
X294350Y176850D03*
X214350Y366850D03*
X224350Y366850D03*
X234350Y366850D03*
X244350Y366850D03*
X254350Y366850D03*
X264350Y366850D03*
X274350Y366850D03*
X124350Y366850D03*
X134350Y366850D03*
X144350Y366850D03*
X154350Y366850D03*
X164350Y366850D03*
X174350Y366850D03*
X184350Y366850D03*
X53346Y349350D03*
X63346Y349350D03*
X73346Y349350D03*
X83346Y349350D03*
X93346Y349350D03*
X103346Y349350D03*
X113346Y349350D03*
X123346Y349350D03*
X133346Y349350D03*
X143346Y349350D03*
X153346Y349350D03*
X163346Y349350D03*
X173346Y349350D03*
X183346Y349350D03*
X193346Y349350D03*
X203346Y349350D03*
X213346Y349350D03*
X223346Y349350D03*
X233346Y349350D03*
G54D39*
X71225Y205287D03*
G54D40*
X135600Y155600D03*
X130600Y145600D03*
X125600Y155600D03*
X120600Y145600D03*
X115600Y155600D03*
X110600Y145600D03*
X105600Y155600D03*
X65600Y155600D03*
X60600Y145600D03*
X55600Y155600D03*
X50600Y145600D03*
X45600Y155600D03*
X40600Y145600D03*
X35600Y155600D03*
X206225Y155600D03*
X201225Y145600D03*
X196225Y155600D03*
X191225Y145600D03*
X186225Y155600D03*
X181225Y145600D03*
X176225Y155600D03*
G54D41*
X304350Y356850D03*
X304350Y346850D03*
X304350Y336850D03*
X304350Y326850D03*
X304350Y316850D03*
X304350Y306850D03*
X304350Y296850D03*
X304350Y286850D03*
X304350Y276850D03*
X304350Y266850D03*
X304350Y256850D03*
X304350Y246850D03*
X304350Y236850D03*
X304350Y226850D03*
X304350Y216850D03*
X304350Y206850D03*
X304350Y196850D03*
X314350Y356850D03*
X314350Y346850D03*
X314350Y336850D03*
X314350Y326850D03*
X314350Y316850D03*
X314350Y306850D03*
X314350Y296850D03*
X314350Y286850D03*
X314350Y276850D03*
X314350Y266850D03*
X314350Y256850D03*
X314350Y246850D03*
X314350Y236850D03*
X314350Y226850D03*
X314350Y216850D03*
X314350Y206850D03*
X314350Y196850D03*
X91225Y214975D03*
X101225Y204975D03*
X91225Y204975D03*
X101225Y194975D03*
X91225Y194975D03*
G54D42*
X384350Y271850D03*
X374350Y271850D03*
G54D43*
X338100Y294350D03*
X338100Y284350D03*
X351850Y294350D03*
X351850Y284350D03*
X365600Y294350D03*
X365600Y284350D03*
X379350Y294350D03*
X379350Y284350D03*
G54D44*
X348257Y202322D03*
X358100Y202322D03*
X367942Y202322D03*
X348257Y259409D03*
X367942Y259409D03*
G54D45*
X275600Y144350D03*
X275600Y114350D03*
G54D46*
X367942Y334665D03*
X348257Y334665D03*
X358100Y374035D03*
X92588Y132608D03*
X153612Y132608D03*
X22588Y132608D03*
X83612Y132608D03*
X163213Y132608D03*
X224237Y132608D03*
G54D47*
X145600Y120600D03*
X100600Y120600D03*
X75600Y120600D03*
X30600Y120600D03*
X216225Y120600D03*
X171225Y120600D03*
G54D48*
X383100Y10600D03*
X10600Y10600D03*
X10600Y383100D03*
X383100Y383100D03*
G54D49*
X11742Y93759D03*
X11742Y349350D03*
X279458Y93759D03*
X279458Y349350D03*
G54D50*
X333494Y231850D03*
X382706Y231850D03*
G54D51*
X313056Y117465D03*
X313056Y109985D03*
X304394Y113725D03*
G54D52*
X111850Y263100D03*
X121850Y263100D03*
X131850Y263100D03*
X141850Y263100D03*
X151850Y263100D03*
X161850Y263100D03*
X171850Y263100D03*
X171850Y233100D03*
X161850Y233100D03*
X151850Y233100D03*
X141850Y233100D03*
X131850Y233100D03*
X121850Y233100D03*
X111850Y233100D03*
X101850Y233100D03*
X121850Y318100D03*
X131850Y318100D03*
X141850Y318100D03*
X151850Y318100D03*
X161850Y318100D03*
X171850Y318100D03*
X171850Y288100D03*
X161850Y288100D03*
X151850Y288100D03*
X141850Y288100D03*
X131850Y288100D03*
X121850Y288100D03*
X111850Y288100D03*
G54D53*
X38100Y230600D03*
X38100Y240600D03*
X38100Y250600D03*
X68100Y250600D03*
X68100Y240600D03*
X68100Y230600D03*
X68100Y220600D03*
X38100Y291850D03*
X38100Y301850D03*
X38100Y311850D03*
X68100Y311850D03*
X68100Y301850D03*
X68100Y291850D03*
X68100Y281850D03*
G54D54*
X8350Y366850D03*
X44350Y176850D03*
X134350Y176850D03*
X224350Y176850D03*
X204350Y366850D03*
X114350Y366850D03*
X43346Y349350D03*
G54D55*
X71225Y195287D03*
G54D56*
X140600Y145600D03*
X70600Y145600D03*
X211225Y145600D03*
G54D57*
X304350Y366850D03*
X314350Y366850D03*
X101225Y214975D03*
M02*
