%FSLAX35Y35*%
%MOIN*%
%IN21=Bestoeckungsdruckoben(X.GTO)*%
%ADD10C,0.00591*%
%ADD11C,0.00768*%
%ADD12C,0.01181*%
%ADD13C,0.01535*%
%ADD14C,0.01575*%
%ADD15C,0.02362*%
%ADD16C,0.02559*%
%ADD17C,0.02795*%
%ADD18C,0.03937*%
%AMR_19*21,1,0.04587,0.05433,0,0,90.000*%
%ADD19R_19*%
%AMR_20*21,1,0.05000,0.05000,0,0,0.000*%
%ADD20R_20*%
%AMR_21*21,1,0.05000,0.05000,0,0,90.000*%
%ADD21R_21*%
%AMR_22*21,1,0.05000,0.05000,0,0,180.000*%
%ADD22R_22*%
%AMR_23*21,1,0.05000,0.05000,0,0,270.000*%
%ADD23R_23*%
%AMR_24*21,1,0.05000,0.09843,0,0,0.000*%
%ADD24R_24*%
%AMR_25*21,1,0.05000,0.10000,0,0,90.000*%
%ADD25R_25*%
%AMR_26*21,1,0.05118,0.06102,0,0,0.000*%
%ADD26R_26*%
%AMR_27*21,1,0.05118,0.06102,0,0,90.000*%
%ADD27R_27*%
%AMR_28*21,1,0.19685,0.19685,0,0,0.000*%
%ADD28R_28*%
%AMOCT_29*4,1,8,0.023622,0.011811,0.011811,0.023622,-0.011811,0.023622,-0.023622,0.011811,-0.023622,-0.011811,-0.011811,-0.023622,0.011811,-0.023622,0.023622,-0.011811,0.023622,0.011811,0.000*%
%ADD29OCT_29*%
%AMOCT_30*4,1,8,0.031496,0.015748,0.015748,0.031496,-0.015748,0.031496,-0.031496,0.015748,-0.031496,-0.015748,-0.015748,-0.031496,0.015748,-0.031496,0.031496,-0.015748,0.031496,0.015748,-0.000*%
%ADD30OCT_30*%
%AMOCT_31*4,1,8,0.031496,0.015748,0.015748,0.031496,-0.015748,0.031496,-0.031496,0.015748,-0.031496,-0.015748,-0.015748,-0.031496,0.015748,-0.031496,0.031496,-0.015748,0.031496,0.015748,90.000*%
%ADD31OCT_31*%
%AMOCT_32*4,1,8,0.031496,0.015748,0.015748,0.031496,-0.015748,0.031496,-0.031496,0.015748,-0.031496,-0.015748,-0.015748,-0.031496,0.015748,-0.031496,0.031496,-0.015748,0.031496,0.015748,180.000*%
%ADD32OCT_32*%
%AMOCT_33*4,1,8,0.031496,0.015748,0.015748,0.031496,-0.015748,0.031496,-0.031496,0.015748,-0.031496,-0.015748,-0.015748,-0.031496,0.015748,-0.031496,0.031496,-0.015748,0.031496,0.015748,270.000*%
%ADD33OCT_33*%
%AMOCT_34*4,1,8,0.035433,0.017717,0.017717,0.035433,-0.017717,0.035433,-0.035433,0.017717,-0.035433,-0.017717,-0.017717,-0.035433,0.017717,-0.035433,0.035433,-0.017717,0.035433,0.017717,180.000*%
%ADD34OCT_34*%
%AMOCT_35*4,1,8,0.035433,0.017717,0.017717,0.035433,-0.017717,0.035433,-0.035433,0.017717,-0.035433,-0.017717,-0.017717,-0.035433,0.017717,-0.035433,0.035433,-0.017717,0.035433,0.017717,270.000*%
%ADD35OCT_35*%
%AMOCT_36*4,1,8,0.039370,0.019685,0.019685,0.039370,-0.019685,0.039370,-0.039370,0.019685,-0.039370,-0.019685,-0.019685,-0.039370,0.019685,-0.039370,0.039370,-0.019685,0.039370,0.019685,0.000*%
%ADD36OCT_36*%
%AMOCT_37*4,1,8,0.039370,0.019685,0.019685,0.039370,-0.019685,0.039370,-0.039370,0.019685,-0.039370,-0.019685,-0.019685,-0.039370,0.019685,-0.039370,0.039370,-0.019685,0.039370,0.019685,270.000*%
%ADD37OCT_37*%
%AMOCT_38*4,1,8,0.049213,0.024606,0.024606,0.049213,-0.024606,0.049213,-0.049213,0.024606,-0.049213,-0.024606,-0.024606,-0.049213,0.024606,-0.049213,0.049213,-0.024606,0.049213,0.024606,180.000*%
%ADD38OCT_38*%
%AMOCT_39*4,1,8,0.062992,0.031496,0.031496,0.062992,-0.031496,0.062992,-0.062992,0.031496,-0.062992,-0.031496,-0.031496,-0.062992,0.031496,-0.062992,0.062992,-0.031496,0.062992,0.031496,180.000*%
%ADD39OCT_39*%
%AMOCT_40*4,1,8,0.078740,0.039370,0.039370,0.078740,-0.039370,0.078740,-0.078740,0.039370,-0.078740,-0.039370,-0.039370,-0.078740,0.039370,-0.078740,0.078740,-0.039370,0.078740,0.039370,0.000*%
%ADD40OCT_40*%
%AMOCT_41*4,1,8,0.078740,0.039370,0.039370,0.078740,-0.039370,0.078740,-0.078740,0.039370,-0.078740,-0.039370,-0.039370,-0.078740,0.039370,-0.078740,0.078740,-0.039370,0.078740,0.039370,180.000*%
%ADD41OCT_41*%
%AMOCT_42*4,1,8,0.090551,0.045276,0.045276,0.090551,-0.045276,0.090551,-0.090551,0.045276,-0.090551,-0.045276,-0.045276,-0.090551,0.045276,-0.090551,0.090551,-0.045276,0.090551,0.045276,0.000*%
%ADD42OCT_42*%
%AMO_43*20,1,0.03937,-0.00787,0.00000,0.00787,0.00000,0*1,1,0.03937,-0.00787,0.00000*1,1,0.03937,0.00787,0.00000*%
%ADD43O_43*%
%AMO_44*20,1,0.05000,0.00000,-0.02421,0.00000,0.02421,0*1,1,0.05000,0.00000,-0.02421*1,1,0.05000,0.00000,0.02421*%
%ADD44O_44*%
%AMO_45*20,1,0.05000,0.02500,0.00000,-0.02500,0.00000,0*1,1,0.05000,0.02500,0.00000*1,1,0.05000,-0.02500,0.00000*%
%ADD45O_45*%
%AMRR_46*21,1,0.06299,0.05039,0,0,-0.000*21,1,0.05039,0.06299,0,0,-0.000*1,1,0.01260,0.02520,0.02520*1,1,0.01260,-0.02520,-0.02520*1,1,0.01260,0.02520,-0.02520*1,1,0.01260,-0.02520,0.02520*%
%ADD46RR_46*%
%AMRR_47*21,1,0.06299,0.05039,0,0,90.000*21,1,0.05039,0.06299,0,0,90.000*1,1,0.01260,-0.02520,0.02520*1,1,0.01260,0.02520,-0.02520*1,1,0.01260,0.02520,0.02520*1,1,0.01260,-0.02520,-0.02520*%
%ADD47RR_47*%
%AMRR_48*21,1,0.06299,0.05039,0,0,180.000*21,1,0.05039,0.06299,0,0,180.000*1,1,0.01260,-0.02520,-0.02520*1,1,0.01260,0.02520,0.02520*1,1,0.01260,-0.02520,0.02520*1,1,0.01260,0.02520,-0.02520*%
%ADD48RR_48*%
%AMRR_49*21,1,0.06299,0.05039,0,0,270.000*21,1,0.05039,0.06299,0,0,270.000*1,1,0.01260,0.02520,-0.02520*1,1,0.01260,-0.02520,0.02520*1,1,0.01260,-0.02520,-0.02520*1,1,0.01260,0.02520,0.02520*%
%ADD49RR_49*%
G54D10*
X73740Y59350D02*
X73599Y60737D01*
X73181Y62067D01*
X72505Y63286D01*
X71597Y64344D01*
X70494Y65197D01*
X69243Y65811D01*
X67893Y66160D01*
X66501Y66231D01*
X65123Y66020D01*
X63816Y65536D01*
X62633Y64798D01*
X61622Y63838D01*
X60826Y62694D01*
X60276Y61412D01*
X59995Y60047D01*
X59995Y58653D01*
X60276Y57287D01*
X60826Y56006D01*
X61622Y54862D01*
X62633Y53902D01*
X63816Y53164D01*
X65123Y52680D01*
X66501Y52469D01*
X67893Y52540D01*
X69243Y52889D01*
X70494Y53503D01*
X71597Y54356D01*
X72505Y55414D01*
X73181Y56633D01*
X73599Y57963D01*
X73740Y59350D01*
X128740Y59350D02*
X128599Y60737D01*
X128181Y62067D01*
X127505Y63286D01*
X126597Y64344D01*
X125494Y65197D01*
X124243Y65811D01*
X122893Y66160D01*
X121501Y66231D01*
X120123Y66020D01*
X118816Y65536D01*
X117633Y64798D01*
X116622Y63838D01*
X115826Y62694D01*
X115276Y61412D01*
X114995Y60047D01*
X114995Y58653D01*
X115276Y57287D01*
X115826Y56006D01*
X116622Y54862D01*
X117633Y53902D01*
X118816Y53164D01*
X120123Y52680D01*
X121501Y52469D01*
X122893Y52540D01*
X124243Y52889D01*
X125494Y53503D01*
X126597Y54356D01*
X127505Y55414D01*
X128181Y56633D01*
X128599Y57963D01*
X128740Y59350D01*
X183740Y59350D02*
X183599Y60737D01*
X183181Y62067D01*
X182505Y63286D01*
X181597Y64344D01*
X180494Y65197D01*
X179243Y65811D01*
X177893Y66160D01*
X176501Y66231D01*
X175123Y66020D01*
X173816Y65536D01*
X172633Y64798D01*
X171622Y63838D01*
X170826Y62694D01*
X170276Y61412D01*
X169995Y60047D01*
X169995Y58653D01*
X170276Y57287D01*
X170826Y56006D01*
X171622Y54862D01*
X172633Y53902D01*
X173816Y53164D01*
X175123Y52680D01*
X176501Y52469D01*
X177893Y52540D01*
X179243Y52889D01*
X180494Y53503D01*
X181597Y54356D01*
X182505Y55414D01*
X183181Y56633D01*
X183599Y57963D01*
X183740Y59350D01*
X238740Y59350D02*
X238599Y60737D01*
X238181Y62067D01*
X237505Y63286D01*
X236597Y64344D01*
X235494Y65197D01*
X234243Y65811D01*
X232893Y66160D01*
X231501Y66231D01*
X230123Y66020D01*
X228816Y65536D01*
X227633Y64798D01*
X226622Y63838D01*
X225826Y62694D01*
X225276Y61412D01*
X224995Y60047D01*
X224995Y58653D01*
X225276Y57287D01*
X225826Y56006D01*
X226622Y54862D01*
X227633Y53902D01*
X228816Y53164D01*
X230123Y52680D01*
X231501Y52469D01*
X232893Y52540D01*
X234243Y52889D01*
X235494Y53503D01*
X236597Y54356D01*
X237505Y55414D01*
X238181Y56633D01*
X238599Y57963D01*
X238740Y59350D01*
X364990Y130600D02*
X364849Y131987D01*
X364431Y133317D01*
X363755Y134536D01*
X362847Y135594D01*
X361744Y136447D01*
X360493Y137061D01*
X359143Y137410D01*
X357751Y137481D01*
X356373Y137270D01*
X355066Y136786D01*
X353883Y136048D01*
X352872Y135088D01*
X352076Y133944D01*
X351526Y132662D01*
X351245Y131297D01*
X351245Y129903D01*
X351526Y128537D01*
X352076Y127256D01*
X352872Y126112D01*
X353883Y125152D01*
X355066Y124414D01*
X356373Y123930D01*
X357751Y123719D01*
X359143Y123790D01*
X360493Y124139D01*
X361744Y124753D01*
X362847Y125606D01*
X363755Y126664D01*
X364431Y127883D01*
X364849Y129213D01*
X364990Y130600D01*
X364990Y171850D02*
X364849Y173237D01*
X364431Y174567D01*
X363755Y175786D01*
X362847Y176844D01*
X361744Y177697D01*
X360493Y178311D01*
X359143Y178660D01*
X357751Y178731D01*
X356373Y178520D01*
X355066Y178036D01*
X353883Y177298D01*
X352872Y176338D01*
X352076Y175194D01*
X351526Y173912D01*
X351245Y172547D01*
X351245Y171153D01*
X351526Y169787D01*
X352076Y168506D01*
X352872Y167362D01*
X353883Y166402D01*
X355066Y165664D01*
X356373Y165180D01*
X357751Y164969D01*
X359143Y165040D01*
X360493Y165389D01*
X361744Y166003D01*
X362847Y166856D01*
X363755Y167914D01*
X364431Y169133D01*
X364849Y170463D01*
X364990Y171850D01*
X312490Y59350D02*
X312349Y60737D01*
X311931Y62067D01*
X311255Y63286D01*
X310347Y64344D01*
X309244Y65197D01*
X307993Y65811D01*
X306643Y66160D01*
X305251Y66231D01*
X303873Y66020D01*
X302566Y65536D01*
X301383Y64798D01*
X300372Y63838D01*
X299576Y62694D01*
X299026Y61412D01*
X298745Y60047D01*
X298745Y58653D01*
X299026Y57287D01*
X299576Y56006D01*
X300372Y54862D01*
X301383Y53902D01*
X302566Y53164D01*
X303873Y52680D01*
X305251Y52469D01*
X306643Y52540D01*
X307993Y52889D01*
X309244Y53503D01*
X310347Y54356D01*
X311255Y55414D01*
X311931Y56633D01*
X312349Y57963D01*
X312490Y59350D01*
X339990Y35600D02*
X339849Y36987D01*
X339431Y38317D01*
X338755Y39536D01*
X337847Y40594D01*
X336744Y41447D01*
X335493Y42061D01*
X334143Y42410D01*
X332751Y42481D01*
X331373Y42270D01*
X330066Y41786D01*
X328883Y41048D01*
X327872Y40088D01*
X327076Y38944D01*
X326526Y37662D01*
X326245Y36297D01*
X326245Y34903D01*
X326526Y33537D01*
X327076Y32256D01*
X327872Y31112D01*
X328883Y30152D01*
X330066Y29414D01*
X331373Y28930D01*
X332751Y28719D01*
X334143Y28790D01*
X335493Y29139D01*
X336744Y29753D01*
X337847Y30606D01*
X338755Y31664D01*
X339431Y32883D01*
X339849Y34213D01*
X339990Y35600D01*
X367490Y59350D02*
X367349Y60737D01*
X366931Y62067D01*
X366255Y63286D01*
X365347Y64344D01*
X364244Y65197D01*
X362993Y65811D01*
X361643Y66160D01*
X360251Y66231D01*
X358873Y66020D01*
X357566Y65536D01*
X356383Y64798D01*
X355372Y63838D01*
X354576Y62694D01*
X354026Y61412D01*
X353745Y60047D01*
X353745Y58653D01*
X354026Y57287D01*
X354576Y56006D01*
X355372Y54862D01*
X356383Y53902D01*
X357566Y53164D01*
X358873Y52680D01*
X360251Y52469D01*
X361643Y52540D01*
X362993Y52889D01*
X364244Y53503D01*
X365347Y54356D01*
X366255Y55414D01*
X366931Y56633D01*
X367349Y57963D01*
X367490Y59350D01*
X339990Y83100D02*
X339849Y84487D01*
X339431Y85817D01*
X338755Y87036D01*
X337847Y88094D01*
X336744Y88947D01*
X335493Y89561D01*
X334143Y89910D01*
X332751Y89981D01*
X331373Y89770D01*
X330066Y89286D01*
X328883Y88548D01*
X327872Y87588D01*
X327076Y86444D01*
X326526Y85162D01*
X326245Y83797D01*
X326245Y82403D01*
X326526Y81037D01*
X327076Y79756D01*
X327872Y78612D01*
X328883Y77652D01*
X330066Y76914D01*
X331373Y76430D01*
X332751Y76219D01*
X334143Y76290D01*
X335493Y76639D01*
X336744Y77253D01*
X337847Y78106D01*
X338755Y79164D01*
X339431Y80383D01*
X339849Y81713D01*
X339990Y83100D01*
X364990Y354350D02*
X364849Y355737D01*
X364431Y357067D01*
X363755Y358286D01*
X362847Y359344D01*
X361744Y360197D01*
X360493Y360811D01*
X359143Y361160D01*
X357751Y361231D01*
X356373Y361020D01*
X355066Y360536D01*
X353883Y359798D01*
X352872Y358838D01*
X352076Y357694D01*
X351526Y356412D01*
X351245Y355047D01*
X351245Y353653D01*
X351526Y352287D01*
X352076Y351006D01*
X352872Y349862D01*
X353883Y348902D01*
X355066Y348164D01*
X356373Y347680D01*
X357751Y347469D01*
X359143Y347540D01*
X360493Y347889D01*
X361744Y348503D01*
X362847Y349356D01*
X363755Y350414D01*
X364431Y351633D01*
X364849Y352963D01*
X364990Y354350D01*
G54D11*
X52047Y361275D02*
X52047Y366590D01*
X52047Y363106D02*
X54704Y366590D01*
X53110Y364464D02*
X54704Y361275D01*
X56062Y362338D02*
X56168Y361877D01*
X56463Y361507D01*
X56889Y361302D01*
X57362Y361302D01*
X57788Y361507D01*
X58083Y361877D01*
X58188Y362338D01*
X58188Y365527D01*
X58083Y365988D01*
X57788Y366358D01*
X57362Y366563D01*
X56889Y366563D01*
X56463Y366358D01*
X56168Y365988D01*
X56062Y365527D01*
X56062Y364464D01*
X56168Y364003D01*
X56463Y363633D01*
X56889Y363428D01*
X57362Y363428D01*
X57788Y363633D01*
X58083Y364003D01*
X58188Y364464D01*
X38879Y336574D02*
X39390Y336664D01*
X39828Y336943D01*
X40125Y337367D01*
X40238Y337874D01*
X38879Y336574D02*
X37580Y336574D01*
X37580Y341889D01*
X38879Y341889D01*
X40238Y340590D02*
X40125Y341096D01*
X39828Y341521D01*
X39390Y341800D01*
X38879Y341889D01*
X40238Y340590D02*
X40238Y337874D01*
X41596Y336574D02*
X41596Y340295D01*
X41596Y341358D02*
X41596Y341889D01*
X42954Y337342D02*
X43057Y336958D01*
X43338Y336677D01*
X43722Y336574D01*
X44253Y336574D01*
X44656Y336666D01*
X44959Y336947D01*
X45080Y337342D01*
X45080Y337637D01*
X44959Y338032D01*
X44656Y338313D01*
X44253Y338405D01*
X43722Y338405D01*
X43722Y340059D02*
X43309Y339948D01*
X43006Y339645D01*
X42895Y339232D01*
X43006Y338818D01*
X43309Y338516D01*
X43722Y338405D01*
X43722Y340059D02*
X44253Y340059D01*
X45080Y339232D02*
X44969Y339645D01*
X44667Y339948D01*
X44253Y340059D01*
X46438Y334980D02*
X46438Y340059D01*
X46438Y337637D02*
X46544Y337176D01*
X46839Y336806D01*
X47265Y336601D01*
X47738Y336601D01*
X48164Y336806D01*
X48459Y337176D01*
X48564Y337637D01*
X48564Y338937D02*
X48564Y337637D01*
X48564Y338937D02*
X48459Y339398D01*
X48164Y339768D01*
X47738Y339973D01*
X47265Y339973D01*
X46839Y339768D01*
X46544Y339398D01*
X46438Y338937D01*
X49923Y341889D02*
X49923Y337342D01*
X50026Y336958D01*
X50307Y336677D01*
X50690Y336574D01*
X54175Y338937D02*
X54069Y339398D01*
X53774Y339768D01*
X53348Y339973D01*
X52875Y339973D01*
X52449Y339768D01*
X52154Y339398D01*
X52049Y338937D01*
X53348Y338169D02*
X53751Y338261D01*
X54053Y338542D01*
X54175Y338937D01*
X53348Y338169D02*
X52816Y338169D01*
X52816Y338139D02*
X52418Y338032D01*
X52126Y337741D01*
X52019Y337342D01*
X52126Y336943D01*
X52418Y336652D01*
X52816Y336545D01*
X52816Y336574D02*
X53348Y336574D01*
X53751Y336666D01*
X54053Y336947D01*
X54175Y337342D01*
X54175Y338937D02*
X54175Y337106D01*
X54706Y336574D01*
X56064Y340059D02*
X57364Y336574D01*
X58722Y340059D02*
X56832Y335275D01*
X56301Y335039D01*
X83230Y70962D02*
X81753Y70470D01*
X81015Y69486D01*
X81753Y68501D01*
X83230Y68009D01*
X84706Y68009D01*
X86183Y67517D01*
X86921Y66533D01*
X86183Y65549D01*
X84706Y65057D01*
X82492Y65057D01*
X81015Y65549D01*
X83230Y70962D02*
X84706Y70962D01*
X86183Y70470D01*
X88456Y65057D02*
X94362Y65057D01*
X91409Y65057D02*
X91409Y70962D01*
X89194Y69486D02*
X91409Y70962D01*
X138767Y71143D02*
X137291Y70651D01*
X136553Y69667D01*
X137291Y68683D01*
X138767Y68190D01*
X140244Y68190D01*
X141720Y67698D01*
X142458Y66714D01*
X141720Y65730D01*
X140244Y65238D01*
X138029Y65238D01*
X136553Y65730D01*
X138767Y71143D02*
X140244Y71143D01*
X141720Y70651D01*
X149899Y65238D02*
X143994Y65238D01*
X144732Y70651D02*
X146208Y71143D01*
X147685Y71143D01*
X149161Y70651D01*
X149899Y69667D01*
X149899Y69175D01*
X149161Y68190D01*
X143994Y65238D02*
X149161Y68190D01*
X144732Y70651D02*
X143994Y69667D01*
X193230Y72212D02*
X191753Y71720D01*
X191015Y70736D01*
X191753Y69751D01*
X193230Y69259D01*
X194706Y69259D01*
X196183Y68767D01*
X196921Y67783D01*
X196183Y66799D01*
X194706Y66307D01*
X192492Y66307D01*
X191015Y66799D01*
X193230Y72212D02*
X194706Y72212D01*
X196183Y71720D01*
X199194Y71720D02*
X200671Y72212D01*
X202147Y72212D01*
X203624Y71720D01*
X204362Y70736D01*
X204362Y70244D01*
X203624Y69259D01*
X199194Y66799D02*
X200671Y66307D01*
X202147Y66307D01*
X203624Y66799D01*
X204362Y67783D01*
X204362Y68275D01*
X203624Y69259D01*
X202885Y69259D02*
X203624Y69259D01*
X248230Y70962D02*
X246753Y70470D01*
X246015Y69486D01*
X246753Y68501D01*
X248230Y68009D01*
X249706Y68009D01*
X251183Y67517D01*
X251921Y66533D01*
X251183Y65549D01*
X249706Y65057D01*
X247492Y65057D01*
X246015Y65549D01*
X248230Y70962D02*
X249706Y70962D01*
X251183Y70470D01*
X254194Y70962D02*
X253456Y68009D01*
X259362Y68009D01*
X257147Y69486D02*
X257147Y65057D01*
X329480Y142212D02*
X328003Y141720D01*
X327265Y140736D01*
X328003Y139751D01*
X329480Y139259D01*
X330956Y139259D01*
X332433Y138767D01*
X333171Y137783D01*
X332433Y136799D01*
X330956Y136307D01*
X328742Y136307D01*
X327265Y136799D01*
X329480Y142212D02*
X330956Y142212D01*
X332433Y141720D01*
X334706Y136799D02*
X336183Y136307D01*
X338397Y136307D01*
X339874Y136799D01*
X340612Y137783D01*
X340612Y138275D01*
X339874Y139259D01*
X338397Y139751D01*
X334706Y139751D01*
X334706Y142212D01*
X339874Y142212D01*
X329480Y183462D02*
X328003Y182970D01*
X327265Y181986D01*
X328003Y181001D01*
X329480Y180509D01*
X330956Y180509D01*
X332433Y180017D01*
X333171Y179033D01*
X332433Y178049D01*
X330956Y177557D01*
X328742Y177557D01*
X327265Y178049D01*
X329480Y183462D02*
X330956Y183462D01*
X332433Y182970D01*
X339874Y183462D02*
X336921Y183462D01*
X335444Y182970D01*
X334706Y181986D01*
X334706Y179033D01*
X335444Y178049D01*
X336921Y177557D01*
X338397Y177557D01*
X339874Y178049D01*
X340612Y179033D01*
X340612Y179525D01*
X339874Y180509D01*
X338397Y181001D01*
X336921Y181001D01*
X335444Y180509D01*
X334706Y179525D01*
X295730Y84712D02*
X294253Y84220D01*
X293515Y83236D01*
X294253Y82251D01*
X295730Y81759D01*
X297206Y81759D01*
X298683Y81267D01*
X299421Y80283D01*
X298683Y79299D01*
X297206Y78807D01*
X294992Y78807D01*
X293515Y79299D01*
X295730Y84712D02*
X297206Y84712D01*
X298683Y84220D01*
X302433Y78807D02*
X306862Y84712D01*
X300956Y84712D01*
X306124Y81759D02*
X303171Y81759D01*
X327517Y16143D02*
X326041Y15651D01*
X325303Y14667D01*
X326041Y13683D01*
X327517Y13190D01*
X328994Y13190D01*
X330470Y12698D01*
X331208Y11714D01*
X330470Y10730D01*
X328994Y10238D01*
X326779Y10238D01*
X325303Y10730D01*
X327517Y16143D02*
X328994Y16143D01*
X330470Y15651D01*
X332744Y11222D02*
X334220Y10238D01*
X337173Y10238D01*
X338649Y11222D01*
X338649Y12206D01*
X332744Y14175D01*
X332744Y15159D01*
X334220Y16143D01*
X337173Y16143D01*
X338649Y15159D01*
X338649Y14175D01*
X332744Y12206D01*
X332744Y11222D01*
X355730Y84712D02*
X354253Y84220D01*
X353515Y83236D01*
X354253Y82251D01*
X355730Y81759D01*
X357206Y81759D01*
X358683Y81267D01*
X359421Y80283D01*
X358683Y79299D01*
X357206Y78807D01*
X354992Y78807D01*
X353515Y79299D01*
X355730Y84712D02*
X357206Y84712D01*
X358683Y84220D01*
X361694Y78807D02*
X364647Y78807D01*
X366124Y79299D01*
X366862Y80283D01*
X366862Y83236D01*
X366124Y84220D01*
X364647Y84712D01*
X363171Y84712D01*
X361694Y84220D01*
X360956Y83236D01*
X360956Y82744D01*
X361694Y81759D01*
X363171Y81267D01*
X364647Y81267D01*
X366124Y81759D01*
X366862Y82744D01*
X324185Y108718D02*
X322708Y108226D01*
X321970Y107242D01*
X322708Y106257D01*
X324185Y105765D01*
X325661Y105765D01*
X327137Y105273D01*
X327875Y104289D01*
X327137Y103305D01*
X325661Y102812D01*
X323446Y102812D01*
X321970Y103305D01*
X324185Y108718D02*
X325661Y108718D01*
X327137Y108226D01*
X329411Y102812D02*
X335316Y102812D01*
X332364Y102812D02*
X332364Y108718D01*
X330149Y107242D02*
X332364Y108718D01*
X339066Y108718D02*
X337590Y108226D01*
X336852Y107242D01*
X336852Y104289D01*
X337590Y103305D01*
X339066Y102812D01*
X340543Y102812D01*
X342019Y103305D01*
X342757Y104289D01*
X342757Y107242D01*
X342019Y108226D01*
X340543Y108718D01*
X339066Y108718D01*
X337590Y103305D02*
X342019Y108226D01*
X335132Y265241D02*
X335010Y265805D01*
X334664Y266267D01*
X334157Y266544D01*
X333581Y266585D01*
X333040Y266383D01*
X332631Y265975D01*
X332430Y265434D01*
X332471Y264858D01*
X332748Y264351D01*
X333210Y264005D01*
X333774Y263882D01*
X332475Y262524D02*
X332607Y261975D01*
X332956Y261531D01*
X333458Y261271D01*
X334022Y261243D01*
X334546Y261452D01*
X334937Y261861D01*
X335122Y262394D01*
X335070Y262956D01*
X334788Y263446D01*
X334329Y263774D01*
X333774Y263882D01*
X336491Y265477D02*
X337554Y266540D01*
X337554Y261225D01*
X338912Y265477D02*
X339975Y266540D01*
X339975Y261225D01*
X340132Y196540D02*
X337475Y196540D01*
X337475Y193882D01*
X339306Y193882D01*
X337475Y193882D02*
X337475Y191225D01*
X340132Y191225D01*
X344119Y195241D02*
X344017Y195749D01*
X343729Y196180D01*
X343298Y196468D01*
X342790Y196569D01*
X342281Y196468D01*
X341850Y196180D01*
X341562Y195749D01*
X341461Y195241D01*
X341491Y195241D02*
X341491Y192524D01*
X341461Y192524D02*
X341562Y192016D01*
X341850Y191585D01*
X342281Y191297D01*
X342790Y191195D01*
X343298Y191297D01*
X343729Y191585D01*
X344017Y192016D01*
X344119Y192524D01*
X345506Y195477D02*
X346569Y196540D01*
X346569Y191225D01*
X347928Y195477D02*
X348991Y196540D01*
X348991Y191225D01*
X353006Y196540D02*
X350349Y196540D01*
X350349Y193882D01*
X352180Y193882D01*
X350349Y193882D02*
X350349Y191225D01*
X353006Y191225D01*
X354365Y191225D02*
X356491Y194709D01*
X354365Y194709D02*
X356491Y191225D01*
X357849Y191225D02*
X359975Y194709D01*
X357849Y194709D02*
X359975Y191225D01*
X361333Y191225D02*
X363459Y194709D01*
X361333Y194709D02*
X363459Y191225D01*
X366412Y196540D02*
X364817Y192524D01*
X366943Y192524D01*
X366412Y193587D02*
X366412Y191225D01*
X369896Y196540D02*
X368302Y192524D01*
X370428Y192524D01*
X369896Y193587D02*
X369896Y191225D01*
X371786Y191225D02*
X373912Y194709D01*
X371786Y194709D02*
X373912Y191225D01*
X375270Y191225D02*
X377396Y194709D01*
X375270Y194709D02*
X377396Y191225D01*
X336899Y298725D02*
X337410Y298815D01*
X337847Y299093D01*
X338145Y299518D01*
X338257Y300024D01*
X336899Y298725D02*
X335600Y298725D01*
X335600Y304040D01*
X336899Y304040D01*
X338257Y302741D02*
X338145Y303247D01*
X337847Y303672D01*
X337410Y303950D01*
X336899Y304040D01*
X338257Y302741D02*
X338257Y300024D01*
X339616Y302977D02*
X340679Y304040D01*
X340679Y298725D01*
X349712Y298725D02*
X350222Y298815D01*
X350660Y299093D01*
X350958Y299518D01*
X351070Y300024D01*
X349712Y298725D02*
X348412Y298725D01*
X348412Y304040D01*
X349712Y304040D01*
X351070Y302741D02*
X350958Y303247D01*
X350660Y303672D01*
X350222Y303950D01*
X349712Y304040D01*
X351070Y302741D02*
X351070Y300024D01*
X354554Y302977D02*
X354449Y303438D01*
X354154Y303808D01*
X353728Y304013D01*
X353255Y304013D01*
X352828Y303808D01*
X352533Y303438D01*
X352428Y302977D01*
X354554Y302977D02*
X352428Y298725D01*
X354554Y298725D01*
X361899Y298725D02*
X362410Y298815D01*
X362847Y299093D01*
X363145Y299518D01*
X363257Y300024D01*
X361899Y298725D02*
X360600Y298725D01*
X360600Y304040D01*
X361899Y304040D01*
X363257Y302741D02*
X363145Y303247D01*
X362847Y303672D01*
X362410Y303950D01*
X361899Y304040D01*
X363257Y302741D02*
X363257Y300024D01*
X364616Y299788D02*
X364721Y299327D01*
X365016Y298957D01*
X365442Y298752D01*
X365915Y298752D01*
X366341Y298957D01*
X366636Y299327D01*
X366742Y299788D01*
X366742Y300556D02*
X366742Y299788D01*
X366742Y300556D02*
X366661Y300962D01*
X366430Y301307D01*
X366085Y301538D01*
X365679Y301619D01*
X365383Y301619D02*
X365679Y301619D01*
X365383Y301619D01*
X365679Y301619D02*
X366095Y301713D01*
X366443Y301959D01*
X366670Y302320D01*
X366742Y302741D01*
X366742Y302977D02*
X366742Y302741D01*
X366742Y302977D02*
X366636Y303438D01*
X366341Y303808D01*
X365915Y304013D01*
X365442Y304013D01*
X365016Y303808D01*
X364721Y303438D01*
X364616Y302977D01*
X376899Y299069D02*
X377410Y299159D01*
X377847Y299438D01*
X378145Y299862D01*
X378257Y300369D01*
X376899Y299069D02*
X375600Y299069D01*
X375600Y304384D01*
X376899Y304384D01*
X378257Y303085D02*
X378145Y303591D01*
X377847Y304016D01*
X377410Y304295D01*
X376899Y304384D01*
X378257Y303085D02*
X378257Y300369D01*
X381210Y304384D02*
X379616Y300369D01*
X381742Y300369D01*
X381210Y301432D02*
X381210Y299069D01*
X341225Y270944D02*
X341225Y273602D01*
X342524Y273602D01*
X342524Y273631D02*
X343033Y273733D01*
X343464Y274021D01*
X343752Y274452D01*
X343853Y274960D01*
X343752Y275469D01*
X343464Y275900D01*
X343033Y276188D01*
X342524Y276289D01*
X342524Y276259D02*
X341225Y276259D01*
X341225Y273602D01*
X347367Y273307D02*
X347367Y272007D01*
X347367Y273307D02*
X347261Y273768D01*
X346966Y274138D01*
X346540Y274343D01*
X346067Y274343D01*
X345641Y274138D01*
X345346Y273768D01*
X345241Y273307D01*
X345241Y272007D02*
X345241Y273307D01*
X345241Y272007D02*
X345346Y271546D01*
X345641Y271176D01*
X346067Y270971D01*
X346540Y270971D01*
X346966Y271176D01*
X347261Y271546D01*
X347367Y272007D01*
X348725Y274429D02*
X349788Y270944D01*
X350851Y274429D01*
X351914Y270944D01*
X352977Y274429D01*
X354335Y272775D02*
X356461Y272775D01*
X356461Y273307D01*
X356356Y273768D01*
X356061Y274138D01*
X355635Y274343D01*
X355162Y274343D01*
X354735Y274138D01*
X354440Y273768D01*
X354335Y273307D01*
X354335Y272007D01*
X354449Y271528D01*
X354766Y271152D01*
X355219Y270959D01*
X355711Y270990D01*
X356135Y271239D01*
X356402Y271653D01*
X357819Y270944D02*
X357819Y274429D01*
X359178Y274192D02*
X358855Y274382D01*
X358482Y274405D01*
X358138Y274256D01*
X357900Y273967D01*
X357819Y273602D01*
X364375Y270944D02*
X364885Y271034D01*
X365323Y271313D01*
X365620Y271737D01*
X365733Y272244D01*
X364375Y270944D02*
X363075Y270944D01*
X363075Y276259D01*
X364375Y276259D01*
X365733Y274960D02*
X365620Y275466D01*
X365323Y275891D01*
X364885Y276170D01*
X364375Y276259D01*
X365733Y274960D02*
X365733Y272244D01*
X367268Y271417D02*
X367591Y271104D01*
X368014Y270952D01*
X368462Y270989D01*
X368855Y271207D01*
X369122Y271568D01*
X369217Y272007D01*
X369217Y273070D01*
X369112Y273532D01*
X368817Y273901D01*
X368391Y274107D01*
X367917Y274107D01*
X367491Y273901D01*
X367196Y273532D01*
X367091Y273070D01*
X367091Y276259D01*
X369217Y276259D01*
X320600Y374005D02*
X320600Y368100D01*
X320600Y371053D02*
X324291Y371053D01*
X325767Y371545D01*
X326505Y372529D01*
X325767Y373513D01*
X324291Y374005D01*
X320600Y374005D01*
X323553Y371053D02*
X326505Y368100D01*
X333946Y368592D02*
X332470Y368100D01*
X329517Y368100D01*
X328041Y369084D01*
X328041Y370561D01*
X329517Y371545D01*
X332470Y371545D01*
X333946Y371053D01*
X333946Y370561D01*
X332470Y370068D01*
X328041Y370068D01*
X335482Y368100D02*
X340649Y368100D01*
X341387Y369084D01*
X340649Y370068D01*
X336220Y370068D01*
X335482Y371053D01*
X336220Y371545D01*
X341387Y371545D01*
X348828Y368592D02*
X347352Y368100D01*
X344399Y368100D01*
X342923Y369084D01*
X342923Y370561D01*
X344399Y371545D01*
X347352Y371545D01*
X348828Y371053D01*
X348828Y370561D01*
X347352Y370068D01*
X342923Y370068D01*
X350364Y374005D02*
X350364Y369084D01*
X351840Y368100D01*
X356269Y368100D01*
X350364Y371545D02*
X353316Y371545D01*
X367460Y374005D02*
X365984Y373513D01*
X365246Y372529D01*
X365984Y371545D01*
X367460Y371053D01*
X368937Y371053D01*
X370413Y370561D01*
X371151Y369576D01*
X370413Y368592D01*
X368937Y368100D01*
X366722Y368100D01*
X365246Y368592D01*
X367460Y374005D02*
X368937Y374005D01*
X370413Y373513D01*
X372687Y368100D02*
X378592Y368100D01*
X375639Y368100D02*
X375639Y374005D01*
X373425Y372529D02*
X375639Y374005D01*
X386033Y368100D02*
X380127Y368100D01*
X380866Y373513D02*
X382342Y374005D01*
X383818Y374005D01*
X385295Y373513D01*
X386033Y372529D01*
X386033Y372037D01*
X385295Y371053D01*
X380127Y368100D02*
X385295Y371053D01*
X380866Y373513D02*
X380127Y372529D01*
X97235Y238450D02*
X96172Y239513D01*
X101487Y239513D01*
X97235Y242998D02*
X100424Y242998D01*
X97235Y242998D02*
X96774Y242892D01*
X96404Y242597D01*
X96199Y242171D01*
X96199Y241698D01*
X96404Y241272D01*
X96774Y240977D01*
X97235Y240872D01*
X100424Y240872D02*
X97235Y240872D01*
X100424Y240872D02*
X100885Y240977D01*
X101255Y241272D01*
X101460Y241698D01*
X101460Y242171D01*
X101255Y242597D01*
X100885Y242892D01*
X100424Y242998D01*
X97235Y246482D02*
X100424Y246482D01*
X97235Y246482D02*
X96774Y246377D01*
X96404Y246082D01*
X96199Y245655D01*
X96199Y245182D01*
X96404Y244756D01*
X96774Y244461D01*
X97235Y244356D01*
X100424Y244356D02*
X97235Y244356D01*
X100424Y244356D02*
X100885Y244461D01*
X101255Y244756D01*
X101460Y245182D01*
X101460Y245655D01*
X101255Y246082D01*
X100885Y246377D01*
X100424Y246482D01*
X101487Y247840D02*
X98003Y247840D01*
X99125Y249966D02*
X98664Y249861D01*
X98294Y249566D01*
X98088Y249140D01*
X98088Y248667D01*
X98294Y248240D01*
X98664Y247945D01*
X99125Y247840D01*
X99125Y249966D02*
X101487Y249966D01*
X96172Y253982D02*
X96172Y251324D01*
X98830Y251324D01*
X98830Y253155D01*
X98830Y251324D02*
X101487Y251324D01*
X14297Y210082D02*
X14402Y209621D01*
X14697Y209251D01*
X15124Y209046D01*
X15597Y209046D01*
X16023Y209251D01*
X16318Y209621D01*
X16423Y210082D01*
X16423Y210850D02*
X16423Y210082D01*
X16423Y210850D02*
X16342Y211256D01*
X16112Y211601D01*
X15767Y211832D01*
X15360Y211913D01*
X15065Y211913D02*
X15360Y211913D01*
X15065Y211913D01*
X15360Y211913D02*
X15776Y212007D01*
X16124Y212253D01*
X16351Y212614D01*
X16423Y213035D01*
X16423Y213271D02*
X16423Y213035D01*
X16423Y213271D02*
X16318Y213732D01*
X16023Y214102D01*
X15597Y214307D01*
X15124Y214307D01*
X14697Y214102D01*
X14402Y213732D01*
X14297Y213271D01*
X17781Y210082D02*
X17887Y209621D01*
X18182Y209251D01*
X18608Y209046D01*
X19081Y209046D01*
X19507Y209251D01*
X19802Y209621D01*
X19907Y210082D01*
X19907Y210850D02*
X19907Y210082D01*
X19907Y210850D02*
X19827Y211256D01*
X19596Y211601D01*
X19251Y211832D01*
X18844Y211913D01*
X18549Y211913D02*
X18844Y211913D01*
X18549Y211913D01*
X18844Y211913D02*
X19260Y212007D01*
X19608Y212253D01*
X19836Y212614D01*
X19907Y213035D01*
X19907Y213271D02*
X19907Y213035D01*
X19907Y213271D02*
X19802Y213732D01*
X19507Y214102D01*
X19081Y214307D01*
X18608Y214307D01*
X18182Y214102D01*
X17887Y213732D01*
X17781Y213271D01*
X23392Y213271D02*
X23392Y210082D01*
X23392Y213271D02*
X23286Y213732D01*
X22991Y214102D01*
X22565Y214307D01*
X22092Y214307D01*
X21666Y214102D01*
X21371Y213732D01*
X21266Y213271D01*
X21266Y210082D02*
X21266Y213271D01*
X21266Y210082D02*
X21371Y209621D01*
X21666Y209251D01*
X22092Y209046D01*
X22565Y209046D01*
X22991Y209251D01*
X23286Y209621D01*
X23392Y210082D01*
X107329Y294695D02*
X106266Y295758D01*
X111581Y295758D01*
X107329Y299243D02*
X110518Y299243D01*
X107329Y299243D02*
X106867Y299137D01*
X106497Y298842D01*
X106292Y298416D01*
X106292Y297943D01*
X106497Y297517D01*
X106867Y297222D01*
X107329Y297117D01*
X110518Y297117D02*
X107329Y297117D01*
X110518Y297117D02*
X110979Y297222D01*
X111349Y297517D01*
X111554Y297943D01*
X111554Y298416D01*
X111349Y298842D01*
X110979Y299137D01*
X110518Y299243D01*
X107329Y302727D02*
X110518Y302727D01*
X107329Y302727D02*
X106867Y302622D01*
X106497Y302327D01*
X106292Y301900D01*
X106292Y301427D01*
X106497Y301001D01*
X106867Y300706D01*
X107329Y300601D01*
X110518Y300601D02*
X107329Y300601D01*
X110518Y300601D02*
X110979Y300706D01*
X111349Y301001D01*
X111554Y301427D01*
X111554Y301900D01*
X111349Y302327D01*
X110979Y302622D01*
X110518Y302727D01*
X111581Y304085D02*
X108096Y304085D01*
X109218Y306211D02*
X108757Y306106D01*
X108387Y305811D01*
X108182Y305385D01*
X108182Y304912D01*
X108387Y304485D01*
X108757Y304190D01*
X109218Y304085D01*
X109218Y306211D02*
X111581Y306211D01*
X106266Y310227D02*
X106266Y307569D01*
X108923Y307569D01*
X108923Y309400D01*
X108923Y307569D02*
X111581Y307569D01*
X44610Y212333D02*
X45673Y213396D01*
X45673Y208081D01*
X49157Y212333D02*
X49157Y209144D01*
X49157Y212333D02*
X49052Y212795D01*
X48757Y213165D01*
X48330Y213370D01*
X47857Y213370D01*
X47431Y213165D01*
X47136Y212795D01*
X47031Y212333D01*
X47031Y209144D02*
X47031Y212333D01*
X47031Y209144D02*
X47136Y208683D01*
X47431Y208313D01*
X47857Y208108D01*
X48330Y208108D01*
X48757Y208313D01*
X49052Y208683D01*
X49157Y209144D01*
X52641Y212333D02*
X52641Y209144D01*
X52641Y212333D02*
X52536Y212795D01*
X52241Y213165D01*
X51815Y213370D01*
X51342Y213370D01*
X50915Y213165D01*
X50620Y212795D01*
X50515Y212333D01*
X50515Y209144D02*
X50515Y212333D01*
X50515Y209144D02*
X50620Y208683D01*
X50915Y208313D01*
X51342Y208108D01*
X51815Y208108D01*
X52241Y208313D01*
X52536Y208683D01*
X52641Y209144D01*
X53999Y208081D02*
X53999Y211566D01*
X56125Y210444D02*
X56020Y210905D01*
X55725Y211275D01*
X55299Y211480D01*
X54826Y211480D01*
X54400Y211275D01*
X54105Y210905D01*
X53999Y210444D01*
X56125Y210444D02*
X56125Y208081D01*
X60141Y213396D02*
X57484Y213396D01*
X57484Y210739D01*
X59314Y210739D01*
X57484Y210739D02*
X57484Y208081D01*
X44610Y275458D02*
X45673Y276521D01*
X45673Y271206D01*
X49157Y275458D02*
X49157Y272269D01*
X49157Y275458D02*
X49052Y275920D01*
X48757Y276290D01*
X48330Y276495D01*
X47857Y276495D01*
X47431Y276290D01*
X47136Y275920D01*
X47031Y275458D01*
X47031Y272269D02*
X47031Y275458D01*
X47031Y272269D02*
X47136Y271808D01*
X47431Y271438D01*
X47857Y271233D01*
X48330Y271233D01*
X48757Y271438D01*
X49052Y271808D01*
X49157Y272269D01*
X52641Y275458D02*
X52641Y272269D01*
X52641Y275458D02*
X52536Y275920D01*
X52241Y276290D01*
X51815Y276495D01*
X51342Y276495D01*
X50915Y276290D01*
X50620Y275920D01*
X50515Y275458D01*
X50515Y272269D02*
X50515Y275458D01*
X50515Y272269D02*
X50620Y271808D01*
X50915Y271438D01*
X51342Y271233D01*
X51815Y271233D01*
X52241Y271438D01*
X52536Y271808D01*
X52641Y272269D01*
X53999Y271206D02*
X53999Y274691D01*
X56125Y273569D02*
X56020Y274030D01*
X55725Y274400D01*
X55299Y274605D01*
X54826Y274605D01*
X54400Y274400D01*
X54105Y274030D01*
X53999Y273569D01*
X56125Y273569D02*
X56125Y271206D01*
X60141Y276521D02*
X57484Y276521D01*
X57484Y273864D01*
X59314Y273864D01*
X57484Y273864D02*
X57484Y271206D01*
X14610Y240394D02*
X14715Y239933D01*
X15010Y239563D01*
X15436Y239358D01*
X15909Y239358D01*
X16335Y239563D01*
X16630Y239933D01*
X16736Y240394D01*
X16736Y241162D02*
X16736Y240394D01*
X16736Y241162D02*
X16655Y241569D01*
X16424Y241914D01*
X16079Y242144D01*
X15673Y242225D01*
X15377Y242225D02*
X15673Y242225D01*
X15377Y242225D01*
X15673Y242225D02*
X16089Y242320D01*
X16437Y242566D01*
X16664Y242927D01*
X16736Y243347D01*
X16736Y243583D02*
X16736Y243347D01*
X16736Y243583D02*
X16630Y244045D01*
X16335Y244415D01*
X15909Y244620D01*
X15436Y244620D01*
X15010Y244415D01*
X14715Y244045D01*
X14610Y243583D01*
X18094Y240394D02*
X18199Y239933D01*
X18494Y239563D01*
X18920Y239358D01*
X19393Y239358D01*
X19820Y239563D01*
X20115Y239933D01*
X20220Y240394D01*
X20220Y241162D02*
X20220Y240394D01*
X20220Y241162D02*
X20139Y241569D01*
X19909Y241914D01*
X19564Y242144D01*
X19157Y242225D01*
X18862Y242225D02*
X19157Y242225D01*
X18862Y242225D01*
X19157Y242225D02*
X19573Y242320D01*
X19921Y242566D01*
X20148Y242927D01*
X20220Y243347D01*
X20220Y243583D02*
X20220Y243347D01*
X20220Y243583D02*
X20115Y244045D01*
X19820Y244415D01*
X19393Y244620D01*
X18920Y244620D01*
X18494Y244415D01*
X18199Y244045D01*
X18094Y243583D01*
X23704Y243583D02*
X23704Y240394D01*
X23704Y243583D02*
X23599Y244045D01*
X23304Y244415D01*
X22878Y244620D01*
X22405Y244620D01*
X21978Y244415D01*
X21683Y244045D01*
X21578Y243583D01*
X21578Y240394D02*
X21578Y243583D01*
X21578Y240394D02*
X21683Y239933D01*
X21978Y239563D01*
X22405Y239358D01*
X22878Y239358D01*
X23304Y239563D01*
X23599Y239933D01*
X23704Y240394D01*
X15235Y271644D02*
X15340Y271183D01*
X15635Y270813D01*
X16061Y270608D01*
X16534Y270608D01*
X16960Y270813D01*
X17255Y271183D01*
X17361Y271644D01*
X17361Y272412D02*
X17361Y271644D01*
X17361Y272412D02*
X17280Y272819D01*
X17049Y273164D01*
X16704Y273394D01*
X16298Y273475D01*
X16002Y273475D02*
X16298Y273475D01*
X16002Y273475D01*
X16298Y273475D02*
X16714Y273570D01*
X17062Y273816D01*
X17289Y274177D01*
X17361Y274597D01*
X17361Y274833D02*
X17361Y274597D01*
X17361Y274833D02*
X17255Y275295D01*
X16960Y275665D01*
X16534Y275870D01*
X16061Y275870D01*
X15635Y275665D01*
X15340Y275295D01*
X15235Y274833D01*
X18719Y271644D02*
X18824Y271183D01*
X19119Y270813D01*
X19545Y270608D01*
X20018Y270608D01*
X20445Y270813D01*
X20740Y271183D01*
X20845Y271644D01*
X20845Y272412D02*
X20845Y271644D01*
X20845Y272412D02*
X20764Y272819D01*
X20534Y273164D01*
X20189Y273394D01*
X19782Y273475D01*
X19487Y273475D02*
X19782Y273475D01*
X19487Y273475D01*
X19782Y273475D02*
X20198Y273570D01*
X20546Y273816D01*
X20773Y274177D01*
X20845Y274597D01*
X20845Y274833D02*
X20845Y274597D01*
X20845Y274833D02*
X20740Y275295D01*
X20445Y275665D01*
X20018Y275870D01*
X19545Y275870D01*
X19119Y275665D01*
X18824Y275295D01*
X18719Y274833D01*
X24329Y274833D02*
X24329Y271644D01*
X24329Y274833D02*
X24224Y275295D01*
X23929Y275665D01*
X23503Y275870D01*
X23030Y275870D01*
X22603Y275665D01*
X22308Y275295D01*
X22203Y274833D01*
X22203Y271644D02*
X22203Y274833D01*
X22203Y271644D02*
X22308Y271183D01*
X22603Y270813D01*
X23030Y270608D01*
X23503Y270608D01*
X23929Y270813D01*
X24224Y271183D01*
X24329Y271644D01*
X15235Y301644D02*
X15340Y301183D01*
X15635Y300813D01*
X16061Y300608D01*
X16534Y300608D01*
X16960Y300813D01*
X17255Y301183D01*
X17361Y301644D01*
X17361Y302412D02*
X17361Y301644D01*
X17361Y302412D02*
X17280Y302819D01*
X17049Y303164D01*
X16704Y303394D01*
X16298Y303475D01*
X16002Y303475D02*
X16298Y303475D01*
X16002Y303475D01*
X16298Y303475D02*
X16714Y303570D01*
X17062Y303816D01*
X17289Y304177D01*
X17361Y304597D01*
X17361Y304833D02*
X17361Y304597D01*
X17361Y304833D02*
X17255Y305295D01*
X16960Y305665D01*
X16534Y305870D01*
X16061Y305870D01*
X15635Y305665D01*
X15340Y305295D01*
X15235Y304833D01*
X18719Y301644D02*
X18824Y301183D01*
X19119Y300813D01*
X19545Y300608D01*
X20018Y300608D01*
X20445Y300813D01*
X20740Y301183D01*
X20845Y301644D01*
X20845Y302412D02*
X20845Y301644D01*
X20845Y302412D02*
X20764Y302819D01*
X20534Y303164D01*
X20189Y303394D01*
X19782Y303475D01*
X19487Y303475D02*
X19782Y303475D01*
X19487Y303475D01*
X19782Y303475D02*
X20198Y303570D01*
X20546Y303816D01*
X20773Y304177D01*
X20845Y304597D01*
X20845Y304833D02*
X20845Y304597D01*
X20845Y304833D02*
X20740Y305295D01*
X20445Y305665D01*
X20018Y305870D01*
X19545Y305870D01*
X19119Y305665D01*
X18824Y305295D01*
X18719Y304833D01*
X24329Y304833D02*
X24329Y301644D01*
X24329Y304833D02*
X24224Y305295D01*
X23929Y305665D01*
X23503Y305870D01*
X23030Y305870D01*
X22603Y305665D01*
X22308Y305295D01*
X22203Y304833D01*
X22203Y301644D02*
X22203Y304833D01*
X22203Y301644D02*
X22308Y301183D01*
X22603Y300813D01*
X23030Y300608D01*
X23503Y300608D01*
X23929Y300813D01*
X24224Y301183D01*
X24329Y301644D01*
X41079Y105862D02*
X40016Y106925D01*
X45331Y106925D01*
X41079Y110409D02*
X44268Y110409D01*
X41079Y110409D02*
X40617Y110304D01*
X40247Y110009D01*
X40042Y109583D01*
X40042Y109109D01*
X40247Y108683D01*
X40617Y108388D01*
X41079Y108283D01*
X44268Y108283D02*
X41079Y108283D01*
X44268Y108283D02*
X44729Y108388D01*
X45099Y108683D01*
X45304Y109109D01*
X45304Y109583D01*
X45099Y110009D01*
X44729Y110304D01*
X44268Y110409D01*
X45331Y111767D02*
X40016Y111767D01*
X43500Y111767D02*
X40016Y114425D01*
X42142Y112830D02*
X45331Y114425D01*
X52329Y105862D02*
X51266Y106925D01*
X56581Y106925D01*
X52329Y110409D02*
X55518Y110409D01*
X52329Y110409D02*
X51867Y110304D01*
X51497Y110009D01*
X51292Y109583D01*
X51292Y109109D01*
X51497Y108683D01*
X51867Y108388D01*
X52329Y108283D01*
X55518Y108283D02*
X52329Y108283D01*
X55518Y108283D02*
X55979Y108388D01*
X56349Y108683D01*
X56554Y109109D01*
X56554Y109583D01*
X56349Y110009D01*
X55979Y110304D01*
X55518Y110409D01*
X56581Y111767D02*
X51266Y111767D01*
X54750Y111767D02*
X51266Y114425D01*
X53392Y112830D02*
X56581Y114425D01*
X62329Y105862D02*
X61266Y106925D01*
X66581Y106925D01*
X62329Y110409D02*
X65518Y110409D01*
X62329Y110409D02*
X61867Y110304D01*
X61497Y110009D01*
X61292Y109583D01*
X61292Y109109D01*
X61497Y108683D01*
X61867Y108388D01*
X62329Y108283D01*
X65518Y108283D02*
X62329Y108283D01*
X65518Y108283D02*
X65979Y108388D01*
X66349Y108683D01*
X66554Y109109D01*
X66554Y109583D01*
X66349Y110009D01*
X65979Y110304D01*
X65518Y110409D01*
X66581Y111767D02*
X61266Y111767D01*
X64750Y111767D02*
X61266Y114425D01*
X63392Y112830D02*
X66581Y114425D01*
X39630Y70236D02*
X39540Y70747D01*
X39262Y71184D01*
X38837Y71482D01*
X38331Y71594D01*
X39630Y70236D02*
X39630Y68937D01*
X34315Y68937D01*
X34315Y70236D01*
X35614Y71594D02*
X35108Y71482D01*
X34683Y71184D01*
X34405Y70747D01*
X34315Y70236D01*
X35614Y71594D02*
X38331Y71594D01*
X35378Y75079D02*
X34917Y74973D01*
X34547Y74678D01*
X34341Y74252D01*
X34341Y73779D01*
X34547Y73353D01*
X34917Y73058D01*
X35378Y72953D01*
X38567Y72953D01*
X39028Y73058D01*
X39398Y73353D01*
X39603Y73779D01*
X39603Y74252D01*
X39398Y74678D01*
X39028Y74973D01*
X38567Y75079D01*
X37504Y75079D01*
X37043Y74973D01*
X36673Y74678D01*
X36467Y74252D01*
X36467Y73779D01*
X36673Y73353D01*
X37043Y73058D01*
X37504Y72953D01*
X28380Y70236D02*
X28290Y70747D01*
X28012Y71184D01*
X27587Y71482D01*
X27081Y71594D01*
X28380Y70236D02*
X28380Y68937D01*
X23065Y68937D01*
X23065Y70236D01*
X24364Y71594D02*
X23858Y71482D01*
X23433Y71184D01*
X23155Y70747D01*
X23065Y70236D01*
X24364Y71594D02*
X27081Y71594D01*
X23833Y72953D02*
X23065Y72953D01*
X23065Y75079D01*
X28380Y73484D01*
X15880Y70236D02*
X15790Y70747D01*
X15512Y71184D01*
X15087Y71482D01*
X14581Y71594D01*
X15880Y70236D02*
X15880Y68937D01*
X10565Y68937D01*
X10565Y70236D01*
X11864Y71594D02*
X11358Y71482D01*
X10933Y71184D01*
X10655Y70747D01*
X10565Y70236D01*
X11864Y71594D02*
X14581Y71594D01*
X14049Y75079D02*
X14817Y75079D01*
X14049Y75079D02*
X13588Y74973D01*
X13218Y74678D01*
X13013Y74252D01*
X13013Y73779D01*
X13218Y73353D01*
X13588Y73058D01*
X14049Y72953D01*
X14817Y72953D02*
X14049Y72953D01*
X14817Y72953D02*
X15278Y73058D01*
X15648Y73353D01*
X15853Y73779D01*
X15853Y74252D01*
X15648Y74678D01*
X15278Y74973D01*
X14817Y75079D01*
X11628Y75079D02*
X11864Y75079D01*
X11628Y75079D02*
X11167Y74973D01*
X10797Y74678D01*
X10591Y74252D01*
X10591Y73779D01*
X10797Y73353D01*
X11167Y73058D01*
X11628Y72953D01*
X11864Y72953D02*
X11628Y72953D01*
X11864Y72953D02*
X12325Y73058D01*
X12695Y73353D01*
X12900Y73779D01*
X12900Y74252D01*
X12695Y74678D01*
X12325Y74973D01*
X11864Y75079D01*
X156485Y308583D02*
X157548Y309646D01*
X157548Y304331D01*
X161032Y308583D02*
X161032Y305394D01*
X161032Y308583D02*
X160927Y309045D01*
X160632Y309415D01*
X160205Y309620D01*
X159732Y309620D01*
X159306Y309415D01*
X159011Y309045D01*
X158906Y308583D01*
X158906Y305394D02*
X158906Y308583D01*
X158906Y305394D02*
X159011Y304933D01*
X159306Y304563D01*
X159732Y304358D01*
X160205Y304358D01*
X160632Y304563D01*
X160927Y304933D01*
X161032Y305394D01*
X162390Y304331D02*
X162390Y309646D01*
X162390Y306162D02*
X165048Y309646D01*
X163453Y307520D02*
X165048Y304331D01*
X125860Y337958D02*
X126923Y339021D01*
X126923Y333706D01*
X130407Y337958D02*
X130407Y334769D01*
X130407Y337958D02*
X130302Y338420D01*
X130007Y338790D01*
X129580Y338995D01*
X129107Y338995D01*
X128681Y338790D01*
X128386Y338420D01*
X128281Y337958D01*
X128281Y334769D02*
X128281Y337958D01*
X128281Y334769D02*
X128386Y334308D01*
X128681Y333938D01*
X129107Y333733D01*
X129580Y333733D01*
X130007Y333938D01*
X130302Y334308D01*
X130407Y334769D01*
X131765Y333706D02*
X131765Y339021D01*
X131765Y335537D02*
X134423Y339021D01*
X132828Y336895D02*
X134423Y333706D01*
X96485Y327958D02*
X97548Y329021D01*
X97548Y323706D01*
X101032Y327958D02*
X101032Y324769D01*
X101032Y327958D02*
X100927Y328420D01*
X100632Y328790D01*
X100205Y328995D01*
X99732Y328995D01*
X99306Y328790D01*
X99011Y328420D01*
X98906Y327958D01*
X98906Y324769D02*
X98906Y327958D01*
X98906Y324769D02*
X99011Y324308D01*
X99306Y323938D01*
X99732Y323733D01*
X100205Y323733D01*
X100632Y323938D01*
X100927Y324308D01*
X101032Y324769D01*
X102390Y323706D02*
X102390Y329021D01*
X102390Y325537D02*
X105048Y329021D01*
X103453Y326895D02*
X105048Y323706D01*
X207787Y7787D02*
X207787Y13102D01*
X207787Y8850D02*
X207893Y8389D01*
X208188Y8019D01*
X208614Y7814D01*
X209087Y7814D01*
X209513Y8019D01*
X209808Y8389D01*
X209913Y8850D01*
X209913Y10150D02*
X209913Y8850D01*
X209913Y10150D02*
X209808Y10611D01*
X209513Y10981D01*
X209087Y11186D01*
X208614Y11186D01*
X208188Y10981D01*
X207893Y10611D01*
X207787Y10150D01*
X211272Y11272D02*
X212571Y7787D01*
X213929Y11272D02*
X212039Y6488D01*
X211508Y6252D01*
X217827Y7787D02*
X217827Y13102D01*
X219657Y9382D01*
X221547Y13102D01*
X221547Y7787D01*
X222906Y11272D02*
X222906Y8850D01*
X223011Y8389D01*
X223306Y8019D01*
X223732Y7814D01*
X224205Y7814D01*
X224631Y8019D01*
X224926Y8389D01*
X225031Y8850D01*
X225031Y11272D02*
X225031Y7787D01*
X228516Y10150D02*
X228410Y10611D01*
X228116Y10981D01*
X227689Y11186D01*
X227216Y11186D01*
X226790Y10981D01*
X226495Y10611D01*
X226390Y10150D01*
X226390Y8850D01*
X226495Y8389D01*
X226790Y8019D01*
X227216Y7814D01*
X227689Y7814D01*
X228116Y8019D01*
X228410Y8389D01*
X228516Y8850D01*
X229874Y7787D02*
X229874Y13102D01*
X229874Y8850D02*
X232236Y11272D01*
X230937Y9913D02*
X232236Y7787D01*
X238791Y11803D02*
X238669Y12367D01*
X238323Y12830D01*
X237816Y13106D01*
X237240Y13148D01*
X236699Y12946D01*
X236290Y12537D01*
X236089Y11996D01*
X236130Y11420D01*
X236407Y10914D01*
X236869Y10568D01*
X237433Y10445D01*
X236134Y9087D02*
X236266Y8538D01*
X236615Y8093D01*
X237116Y7833D01*
X237681Y7806D01*
X238205Y8015D01*
X238596Y8423D01*
X238781Y8957D01*
X238729Y9519D01*
X238447Y10009D01*
X237987Y10337D01*
X237433Y10445D01*
X242276Y10150D02*
X242276Y8850D01*
X242276Y10150D02*
X242170Y10611D01*
X241875Y10981D01*
X241449Y11186D01*
X240976Y11186D01*
X240550Y10981D01*
X240255Y10611D01*
X240150Y10150D01*
X240150Y8850D02*
X240150Y10150D01*
X240150Y8850D02*
X240255Y8389D01*
X240550Y8019D01*
X240976Y7814D01*
X241449Y7814D01*
X241875Y8019D01*
X242170Y8389D01*
X242276Y8850D01*
X243634Y13102D02*
X243634Y8555D01*
X243737Y8171D01*
X244018Y7890D01*
X244402Y7787D01*
X245760Y11272D02*
X245760Y8850D01*
X245865Y8389D01*
X246160Y8019D01*
X246586Y7814D01*
X247059Y7814D01*
X247486Y8019D01*
X247781Y8389D01*
X247886Y8850D01*
X247886Y11272D02*
X247886Y7787D01*
X249244Y11272D02*
X250839Y11272D01*
X250012Y13102D02*
X250012Y8555D01*
X250133Y8160D01*
X250436Y7879D01*
X250839Y7787D01*
X252197Y7787D02*
X252197Y11508D01*
X252197Y12571D02*
X252197Y13102D01*
X255681Y10150D02*
X255681Y8850D01*
X255681Y10150D02*
X255576Y10611D01*
X255281Y10981D01*
X254855Y11186D01*
X254382Y11186D01*
X253955Y10981D01*
X253660Y10611D01*
X253555Y10150D01*
X253555Y8850D02*
X253555Y10150D01*
X253555Y8850D02*
X253660Y8389D01*
X253955Y8019D01*
X254382Y7814D01*
X254855Y7814D01*
X255281Y8019D01*
X255576Y8389D01*
X255681Y8850D01*
X257039Y7787D02*
X257039Y11272D01*
X259165Y10150D02*
X259060Y10611D01*
X258765Y10981D01*
X258339Y11186D01*
X257866Y11186D01*
X257440Y10981D01*
X257145Y10611D01*
X257039Y10150D01*
X259165Y10150D02*
X259165Y7787D01*
X260524Y8555D02*
X260626Y8171D01*
X260907Y7890D01*
X261291Y7787D01*
X261823Y7787D01*
X262226Y7879D01*
X262528Y8160D01*
X262650Y8555D01*
X262650Y8850D01*
X262528Y9245D01*
X262226Y9526D01*
X261823Y9618D01*
X261291Y9618D01*
X261291Y11272D02*
X260878Y11161D01*
X260575Y10858D01*
X260465Y10445D01*
X260575Y10031D01*
X260878Y9729D01*
X261291Y9618D01*
X261291Y11272D02*
X261823Y11272D01*
X262650Y10445D02*
X262539Y10858D01*
X262236Y11161D01*
X261823Y11272D01*
X382160Y22787D02*
X387475Y24087D01*
X382160Y25445D01*
X385644Y26803D02*
X385644Y28929D01*
X385113Y28929D01*
X384651Y28824D01*
X384282Y28529D01*
X384076Y28103D01*
X384076Y27630D01*
X384282Y27203D01*
X384651Y26908D01*
X385113Y26803D01*
X386412Y26803D01*
X386891Y26917D01*
X387267Y27234D01*
X387461Y27687D01*
X387429Y28179D01*
X387180Y28603D01*
X386766Y28870D01*
X387475Y30287D02*
X383991Y30287D01*
X384227Y31646D02*
X384037Y31323D01*
X384014Y30950D01*
X384163Y30606D01*
X384452Y30368D01*
X384817Y30287D01*
X386707Y33004D02*
X387091Y33107D01*
X387372Y33388D01*
X387475Y33772D01*
X387475Y34303D01*
X387383Y34706D01*
X387102Y35008D01*
X386707Y35130D01*
X386412Y35130D01*
X386017Y35008D01*
X385736Y34706D01*
X385644Y34303D01*
X385644Y33772D01*
X383991Y33772D02*
X384101Y33358D01*
X384404Y33056D01*
X384817Y32945D01*
X385231Y33056D01*
X385533Y33358D01*
X385644Y33772D01*
X383991Y33772D02*
X383991Y34303D01*
X384817Y35130D02*
X384404Y35019D01*
X384101Y34717D01*
X383991Y34303D01*
X387475Y36488D02*
X383754Y36488D01*
X382691Y36488D02*
X382160Y36488D01*
X385113Y39972D02*
X386412Y39972D01*
X385113Y39972D02*
X384651Y39867D01*
X384282Y39572D01*
X384076Y39146D01*
X384076Y38673D01*
X384282Y38247D01*
X384651Y37952D01*
X385113Y37846D01*
X386412Y37846D02*
X385113Y37846D01*
X386412Y37846D02*
X386873Y37952D01*
X387243Y38247D01*
X387448Y38673D01*
X387448Y39146D01*
X387243Y39572D01*
X386873Y39867D01*
X386412Y39972D01*
X387475Y41331D02*
X383991Y41331D01*
X385113Y43457D02*
X384651Y43351D01*
X384282Y43056D01*
X384076Y42630D01*
X384076Y42157D01*
X384282Y41731D01*
X384651Y41436D01*
X385113Y41331D01*
X385113Y43457D02*
X387475Y43457D01*
X387475Y47354D02*
X382160Y47354D01*
X386412Y47354D02*
X386873Y47460D01*
X387243Y47755D01*
X387448Y48181D01*
X387448Y48654D01*
X387243Y49080D01*
X386873Y49375D01*
X386412Y49480D01*
X385113Y49480D02*
X386412Y49480D01*
X385113Y49480D02*
X384651Y49375D01*
X384282Y49080D01*
X384076Y48654D01*
X384076Y48181D01*
X384282Y47755D01*
X384651Y47460D01*
X385113Y47354D01*
X383223Y52965D02*
X386412Y52965D01*
X383223Y52965D02*
X382762Y52859D01*
X382392Y52564D01*
X382187Y52138D01*
X382187Y51665D01*
X382392Y51239D01*
X382762Y50944D01*
X383223Y50839D01*
X386412Y50839D02*
X383223Y50839D01*
X386412Y50839D02*
X386873Y50944D01*
X387243Y51239D01*
X387448Y51665D01*
X387448Y52138D01*
X387243Y52564D01*
X386873Y52859D01*
X386412Y52965D01*
X386943Y54323D02*
X387475Y54323D01*
X383223Y55681D02*
X382160Y56744D01*
X387475Y56744D01*
G54D12*
X40846Y354350D02*
X45846Y354350D01*
X48346Y351850D01*
X48346Y346850D02*
X45846Y344350D01*
X38346Y351850D02*
X38346Y344350D01*
X40846Y354350D02*
X38346Y351850D01*
X45846Y344350D02*
X38346Y344350D01*
X220846Y354350D02*
X225846Y354350D01*
X228346Y351850D01*
X228346Y346850D01*
X225846Y344350D01*
X208346Y351850D02*
X210846Y354350D01*
X215846Y354350D01*
X218346Y351850D01*
X218346Y346850D01*
X215846Y344350D01*
X210846Y344350D01*
X208346Y346850D01*
X220846Y354350D02*
X218346Y351850D01*
X218346Y346850D02*
X220846Y344350D01*
X225846Y344350D02*
X220846Y344350D01*
X190846Y354350D02*
X195846Y354350D01*
X198346Y351850D01*
X198346Y346850D01*
X195846Y344350D01*
X198346Y351850D02*
X200846Y354350D01*
X205846Y354350D01*
X208346Y351850D01*
X208346Y346850D01*
X205846Y344350D01*
X200846Y344350D01*
X198346Y346850D01*
X178346Y351850D02*
X180846Y354350D01*
X185846Y354350D01*
X188346Y351850D01*
X188346Y346850D01*
X185846Y344350D01*
X180846Y344350D01*
X178346Y346850D01*
X190846Y354350D02*
X188346Y351850D01*
X188346Y346850D02*
X190846Y344350D01*
X195846Y344350D02*
X190846Y344350D01*
X160846Y354350D02*
X165846Y354350D01*
X168346Y351850D01*
X168346Y346850D01*
X165846Y344350D01*
X168346Y351850D02*
X170846Y354350D01*
X175846Y354350D01*
X178346Y351850D01*
X178346Y346850D01*
X175846Y344350D01*
X170846Y344350D01*
X168346Y346850D01*
X148346Y351850D02*
X150846Y354350D01*
X155846Y354350D01*
X158346Y351850D01*
X158346Y346850D01*
X155846Y344350D01*
X150846Y344350D01*
X148346Y346850D01*
X160846Y354350D02*
X158346Y351850D01*
X158346Y346850D02*
X160846Y344350D01*
X165846Y344350D02*
X160846Y344350D01*
X130846Y354350D02*
X135846Y354350D01*
X138346Y351850D01*
X138346Y346850D01*
X135846Y344350D01*
X138346Y351850D02*
X140846Y354350D01*
X145846Y354350D01*
X148346Y351850D01*
X148346Y346850D01*
X145846Y344350D01*
X140846Y344350D01*
X138346Y346850D01*
X118346Y351850D02*
X120846Y354350D01*
X125846Y354350D01*
X128346Y351850D01*
X128346Y346850D01*
X125846Y344350D01*
X120846Y344350D01*
X118346Y346850D01*
X130846Y354350D02*
X128346Y351850D01*
X128346Y346850D02*
X130846Y344350D01*
X135846Y344350D02*
X130846Y344350D01*
X100846Y354350D02*
X105846Y354350D01*
X108346Y351850D01*
X108346Y346850D01*
X105846Y344350D01*
X108346Y351850D02*
X110846Y354350D01*
X115846Y354350D01*
X118346Y351850D01*
X118346Y346850D01*
X115846Y344350D01*
X110846Y344350D01*
X108346Y346850D01*
X88346Y351850D02*
X90846Y354350D01*
X95846Y354350D01*
X98346Y351850D01*
X98346Y346850D01*
X95846Y344350D01*
X90846Y344350D01*
X88346Y346850D01*
X100846Y354350D02*
X98346Y351850D01*
X98346Y346850D02*
X100846Y344350D01*
X105846Y344350D02*
X100846Y344350D01*
X70846Y354350D02*
X75846Y354350D01*
X78346Y351850D01*
X78346Y346850D01*
X75846Y344350D01*
X78346Y351850D02*
X80846Y354350D01*
X85846Y354350D01*
X88346Y351850D01*
X88346Y346850D01*
X85846Y344350D01*
X80846Y344350D01*
X78346Y346850D01*
X58346Y351850D02*
X60846Y354350D01*
X65846Y354350D01*
X68346Y351850D01*
X68346Y346850D01*
X65846Y344350D01*
X60846Y344350D01*
X58346Y346850D01*
X70846Y354350D02*
X68346Y351850D01*
X68346Y346850D02*
X70846Y344350D01*
X75846Y344350D02*
X70846Y344350D01*
X48346Y351850D02*
X48346Y346850D01*
X48346Y351850D02*
X50846Y354350D01*
X55846Y354350D01*
X58346Y351850D01*
X58346Y346850D01*
X55846Y344350D01*
X50846Y344350D01*
X48346Y346850D01*
X230846Y354350D02*
X235846Y354350D01*
X238346Y351850D01*
X238346Y346850D01*
X235846Y344350D01*
X230846Y354350D02*
X228346Y351850D01*
X228346Y346850D02*
X230846Y344350D01*
X235846Y344350D02*
X230846Y344350D01*
X54645Y47145D02*
X54645Y71555D01*
X79055Y71555D01*
X79055Y47145D01*
X54645Y47145D01*
X109645Y47145D02*
X109645Y71555D01*
X134055Y71555D01*
X134055Y47145D01*
X109645Y47145D01*
X164645Y47145D02*
X164645Y71555D01*
X189055Y71555D01*
X189055Y47145D01*
X164645Y47145D01*
X219645Y47145D02*
X219645Y71555D01*
X244055Y71555D01*
X244055Y47145D01*
X219645Y47145D01*
X345895Y118395D02*
X345895Y142805D01*
X370305Y142805D01*
X370305Y118395D01*
X345895Y118395D01*
X345895Y159645D02*
X345895Y184055D01*
X370305Y184055D01*
X370305Y159645D01*
X345895Y159645D01*
X293395Y47145D02*
X293395Y71555D01*
X317805Y71555D01*
X317805Y47145D01*
X293395Y47145D01*
X320895Y23395D02*
X320895Y47805D01*
X345305Y47805D01*
X345305Y23395D01*
X320895Y23395D01*
X348395Y47145D02*
X348395Y71555D01*
X372805Y71555D01*
X372805Y47145D01*
X348395Y47145D01*
X320895Y70895D02*
X320895Y95305D01*
X345305Y95305D01*
X345305Y70895D01*
X320895Y70895D01*
X335068Y255472D02*
X335068Y208228D01*
X381131Y208228D01*
X381131Y255472D01*
X335068Y255472D01*
X369911Y231850D02*
X369766Y233698D01*
X369333Y235500D01*
X368624Y237212D01*
X367655Y238792D01*
X366452Y240202D01*
X365042Y241405D01*
X363462Y242374D01*
X361750Y243083D01*
X359948Y243516D01*
X358100Y243661D01*
X356252Y243516D01*
X354450Y243083D01*
X352738Y242374D01*
X351158Y241405D01*
X349748Y240202D01*
X348545Y238792D01*
X347576Y237212D01*
X346867Y235500D01*
X346434Y233698D01*
X346289Y231850D01*
X346434Y230002D01*
X346867Y228200D01*
X347576Y226488D01*
X348545Y224908D01*
X349748Y223498D01*
X351158Y222295D01*
X352738Y221326D01*
X354450Y220617D01*
X356252Y220184D01*
X358100Y220039D01*
X359948Y220184D01*
X361750Y220617D01*
X363462Y221326D01*
X365042Y222295D01*
X366452Y223498D01*
X367655Y224908D01*
X368624Y226488D01*
X369333Y228200D01*
X369766Y230002D01*
X369911Y231850D01*
X366958Y231850D02*
X366816Y233432D01*
X366393Y234962D01*
X365704Y236393D01*
X364771Y237678D01*
X363623Y238776D01*
X362298Y239650D01*
X360837Y240275D01*
X359289Y240628D01*
X357702Y240699D01*
X356129Y240486D01*
X354618Y239995D01*
X353220Y239243D01*
X351978Y238253D01*
X350933Y237057D01*
X350119Y235693D01*
X349561Y234207D01*
X349277Y232644D01*
X349277Y231056D01*
X349561Y229493D01*
X350119Y228006D01*
X350933Y226643D01*
X351978Y225447D01*
X353220Y224457D01*
X354618Y223704D01*
X356129Y223214D01*
X357702Y223001D01*
X359289Y223072D01*
X360837Y223425D01*
X362298Y224049D01*
X363623Y224924D01*
X364771Y226022D01*
X365704Y227307D01*
X366393Y228737D01*
X366816Y230268D01*
X366958Y231850D01*
X361850Y238937D02*
X361850Y224763D01*
X340600Y284350D02*
X335600Y284350D01*
X340666Y284212D02*
X341785Y284917D01*
X342719Y285852D01*
X343422Y286972D01*
X343858Y288220D01*
X344005Y289534D01*
X343857Y290847D01*
X343420Y292095D01*
X342716Y293214D01*
X341781Y294149D01*
X340661Y294852D01*
X339414Y295289D01*
X338100Y295437D01*
X336786Y295289D01*
X335538Y294852D01*
X334419Y294149D01*
X333484Y293214D01*
X332780Y292095D01*
X332343Y290847D01*
X332194Y289534D01*
X332342Y288220D01*
X332778Y286972D01*
X333480Y285852D01*
X334414Y284917D01*
X335533Y284212D01*
X354350Y284350D02*
X349350Y284350D01*
X354416Y284212D02*
X355535Y284917D01*
X356469Y285852D01*
X357172Y286972D01*
X357608Y288220D01*
X357755Y289534D01*
X357607Y290847D01*
X357170Y292095D01*
X356466Y293214D01*
X355531Y294149D01*
X354411Y294852D01*
X353164Y295289D01*
X351850Y295437D01*
X350536Y295289D01*
X349288Y294852D01*
X348169Y294149D01*
X347234Y293214D01*
X346530Y292095D01*
X346093Y290847D01*
X345944Y289534D01*
X346092Y288220D01*
X346528Y286972D01*
X347230Y285852D01*
X348164Y284917D01*
X349283Y284212D01*
X368100Y284350D02*
X363100Y284350D01*
X368166Y284212D02*
X369285Y284917D01*
X370219Y285852D01*
X370922Y286972D01*
X371358Y288220D01*
X371505Y289534D01*
X371357Y290847D01*
X370920Y292095D01*
X370216Y293214D01*
X369281Y294149D01*
X368161Y294852D01*
X366914Y295289D01*
X365600Y295437D01*
X364286Y295289D01*
X363038Y294852D01*
X361919Y294149D01*
X360984Y293214D01*
X360280Y292095D01*
X359843Y290847D01*
X359694Y289534D01*
X359842Y288220D01*
X360278Y286972D01*
X360980Y285852D01*
X361914Y284917D01*
X363033Y284212D01*
X381850Y284350D02*
X376850Y284350D01*
X381916Y284212D02*
X383035Y284917D01*
X383969Y285852D01*
X384672Y286972D01*
X385108Y288220D01*
X385255Y289534D01*
X385107Y290847D01*
X384670Y292095D01*
X383966Y293214D01*
X383031Y294149D01*
X381911Y294852D01*
X380664Y295289D01*
X379350Y295437D01*
X378036Y295289D01*
X376788Y294852D01*
X375669Y294149D01*
X374734Y293214D01*
X374030Y292095D01*
X373593Y290847D01*
X373444Y289534D01*
X373592Y288220D01*
X374028Y286972D01*
X374730Y285852D01*
X375664Y284917D01*
X376783Y284212D01*
X374350Y269350D02*
X374350Y274350D01*
X374212Y269283D02*
X374917Y268164D01*
X375852Y267230D01*
X376972Y266528D01*
X378220Y266092D01*
X379534Y265944D01*
X380847Y266093D01*
X382095Y266530D01*
X383214Y267234D01*
X384149Y268169D01*
X384852Y269288D01*
X385289Y270536D01*
X385437Y271850D01*
X385289Y273164D01*
X384852Y274411D01*
X384149Y275531D01*
X383214Y276466D01*
X382095Y277170D01*
X380847Y277607D01*
X379534Y277755D01*
X378220Y277608D01*
X376972Y277172D01*
X375852Y276469D01*
X374917Y275535D01*
X374212Y274416D01*
X370305Y342145D02*
X345895Y342145D01*
X345895Y366555D01*
X370305Y366555D01*
X370305Y342145D01*
X94400Y254850D02*
X94400Y238850D01*
X86800Y238850D01*
X86800Y254850D01*
X94400Y254850D02*
X86800Y254850D01*
X14787Y224087D02*
X30787Y224087D01*
X30787Y216487D01*
X14787Y216487D01*
X14787Y224087D02*
X14787Y216487D01*
X104400Y311100D02*
X104400Y295100D01*
X96800Y295100D01*
X96800Y311100D01*
X104400Y311100D02*
X96800Y311100D01*
X45100Y223150D02*
X61100Y223150D01*
X61100Y215550D01*
X45100Y215550D01*
X45100Y223150D02*
X45100Y215550D01*
X45100Y285650D02*
X61100Y285650D01*
X61100Y278050D01*
X45100Y278050D01*
X45100Y285650D02*
X45100Y278050D01*
X15100Y254400D02*
X31100Y254400D01*
X31100Y246800D01*
X15100Y246800D01*
X15100Y254400D02*
X15100Y246800D01*
X15100Y285650D02*
X31100Y285650D01*
X31100Y278050D01*
X15100Y278050D01*
X15100Y285650D02*
X15100Y278050D01*
X15100Y315650D02*
X31100Y315650D01*
X31100Y308050D01*
X15100Y308050D01*
X15100Y315650D02*
X15100Y308050D01*
X46900Y133600D02*
X46900Y117600D01*
X39300Y117600D01*
X39300Y133600D01*
X46900Y133600D02*
X39300Y133600D01*
X56900Y133600D02*
X56900Y117600D01*
X49300Y117600D01*
X49300Y133600D01*
X56900Y133600D02*
X49300Y133600D01*
X66900Y133600D02*
X66900Y117600D01*
X59300Y117600D01*
X59300Y133600D01*
X66900Y133600D02*
X59300Y133600D01*
X34192Y62471D02*
X39507Y62471D01*
X34192Y56466D02*
X34192Y64734D01*
X39507Y64734D01*
X39507Y56466D01*
X34192Y56466D02*
X39507Y56466D01*
X22942Y62471D02*
X28257Y62471D01*
X22942Y56466D02*
X22942Y64734D01*
X28257Y64734D01*
X28257Y56466D01*
X22942Y56466D02*
X28257Y56466D01*
X10442Y62471D02*
X15757Y62471D01*
X10442Y56466D02*
X10442Y64734D01*
X15757Y64734D01*
X15757Y56466D01*
X10442Y56466D02*
X15757Y56466D01*
X155475Y302425D02*
X139475Y302425D01*
X139475Y310025D01*
X155475Y310025D01*
X155475Y302425D02*
X155475Y310025D01*
X135475Y324925D02*
X119475Y324925D01*
X119475Y332525D01*
X135475Y332525D01*
X135475Y324925D02*
X135475Y332525D01*
X106100Y314925D02*
X90100Y314925D01*
X90100Y322525D01*
X106100Y322525D01*
X106100Y314925D02*
X106100Y322525D01*
G54D16*
X28412Y25816D02*
X37271Y25816D01*
X28412Y8100D01*
X37271Y8100D01*
X41798Y19714D02*
X46129Y8100D01*
X50656Y19714D02*
X44357Y3769D01*
X42586Y2982D01*
X55184Y8100D02*
X55184Y25816D01*
X55184Y11643D02*
X63058Y19714D01*
X58727Y15187D02*
X63058Y8100D01*
X67586Y25816D02*
X67586Y10659D01*
X67711Y9868D01*
X68074Y9155D01*
X68641Y8589D01*
X69354Y8225D01*
X70145Y8100D01*
X74672Y14202D02*
X81759Y14202D01*
X81759Y15974D01*
X81638Y16891D01*
X81284Y17746D01*
X80721Y18479D01*
X79987Y19043D01*
X79133Y19396D01*
X78216Y19517D01*
X77298Y19396D01*
X76444Y19043D01*
X75710Y18479D01*
X75147Y17746D01*
X74793Y16891D01*
X74672Y15974D01*
X74672Y11643D01*
X74810Y10662D01*
X75214Y9758D01*
X75853Y9001D01*
X76676Y8450D01*
X77619Y8148D01*
X78609Y8118D01*
X79569Y8364D01*
X80423Y8865D01*
X81105Y9583D01*
X81562Y10462D01*
X86286Y8100D02*
X86286Y19714D01*
X93373Y15974D02*
X93252Y16891D01*
X92898Y17746D01*
X92335Y18479D01*
X91601Y19043D01*
X90747Y19396D01*
X89830Y19517D01*
X88913Y19396D01*
X88058Y19043D01*
X87324Y18479D01*
X86761Y17746D01*
X86407Y16891D01*
X86286Y15974D01*
X93373Y15974D02*
X93373Y8100D01*
X97901Y8100D02*
X104003Y25816D01*
X110302Y8100D01*
X99672Y13415D02*
X108531Y13415D01*
X114830Y19714D02*
X114830Y11643D01*
X114950Y10726D01*
X115304Y9872D01*
X115868Y9138D01*
X116601Y8575D01*
X117456Y8221D01*
X118373Y8100D01*
X119290Y8221D01*
X120145Y8575D01*
X120879Y9138D01*
X121442Y9872D01*
X121796Y10726D01*
X121916Y11643D01*
X121916Y19714D02*
X121916Y8100D01*
X126444Y19714D02*
X131759Y19714D01*
X129003Y25816D02*
X129003Y10659D01*
X129163Y9842D01*
X129568Y9115D01*
X130178Y8549D01*
X130933Y8199D01*
X131759Y8100D01*
X143373Y15974D02*
X143373Y11643D01*
X143373Y15974D02*
X143252Y16891D01*
X142898Y17746D01*
X142335Y18479D01*
X141601Y19043D01*
X140747Y19396D01*
X139830Y19517D01*
X138913Y19396D01*
X138058Y19043D01*
X137324Y18479D01*
X136761Y17746D01*
X136407Y16891D01*
X136286Y15974D01*
X136286Y11643D02*
X136286Y15974D01*
X136286Y11643D02*
X136407Y10726D01*
X136761Y9872D01*
X137324Y9138D01*
X138058Y8575D01*
X138913Y8221D01*
X139830Y8100D01*
X140747Y8221D01*
X141601Y8575D01*
X142335Y9138D01*
X142898Y9872D01*
X143252Y10726D01*
X143373Y11643D01*
X147901Y8100D02*
X147901Y19714D01*
X154987Y15974D02*
X154866Y16891D01*
X154512Y17746D01*
X153949Y18479D01*
X153216Y19043D01*
X152361Y19396D01*
X151444Y19517D01*
X150527Y19396D01*
X149672Y19043D01*
X148938Y18479D01*
X148375Y17746D01*
X148021Y16891D01*
X147901Y15974D01*
X154987Y15974D02*
X154987Y8100D01*
X162074Y15974D02*
X161953Y16891D01*
X161599Y17746D01*
X161036Y18479D01*
X160302Y19043D01*
X159448Y19396D01*
X158531Y19517D01*
X157613Y19396D01*
X156759Y19043D01*
X156025Y18479D01*
X155462Y17746D01*
X155108Y16891D01*
X154987Y15974D01*
X162074Y15974D02*
X162074Y8100D01*
X173688Y15974D02*
X173567Y16891D01*
X173213Y17746D01*
X172650Y18479D01*
X171916Y19043D01*
X171062Y19396D01*
X170145Y19517D01*
X169228Y19396D01*
X168373Y19043D01*
X167639Y18479D01*
X167076Y17746D01*
X166722Y16891D01*
X166601Y15974D01*
X170932Y13415D02*
X171758Y13514D01*
X172513Y13864D01*
X173123Y14430D01*
X173528Y15157D01*
X173688Y15974D01*
X170932Y13415D02*
X169160Y13415D01*
X169160Y13316D02*
X168339Y13186D01*
X167598Y12809D01*
X167010Y12221D01*
X166633Y11480D01*
X166503Y10659D01*
X166633Y9838D01*
X167010Y9097D01*
X167598Y8509D01*
X168339Y8132D01*
X169160Y8001D01*
X169160Y8100D02*
X170932Y8100D01*
X171758Y8199D01*
X172513Y8549D01*
X173123Y9115D01*
X173528Y9842D01*
X173688Y10659D01*
X173688Y15974D02*
X173688Y9872D01*
X175460Y8100D01*
X179987Y19714D02*
X185302Y19714D01*
X182546Y25816D02*
X182546Y10659D01*
X182706Y9842D01*
X183111Y9115D01*
X183721Y8549D01*
X184476Y8199D01*
X185302Y8100D01*
X189830Y8100D02*
X189830Y20501D01*
X189830Y24045D02*
X189830Y25816D01*
X194357Y8100D02*
X194357Y25816D01*
X194357Y11643D02*
X202231Y19714D01*
X197901Y15187D02*
X202231Y8100D01*
M02*
